<?xml version="1.0" encoding="utf-8" standalone="no"?>
<!DOCTYPE svg PUBLIC "-//W3C//DTD SVG 1.1//EN"
  "http://www.w3.org/Graphics/SVG/1.1/DTD/svg11.dtd">
<svg xmlns:xlink="http://www.w3.org/1999/xlink" width="1382.4pt" height="707.76pt" viewBox="0 0 1382.4 707.76" xmlns="http://www.w3.org/2000/svg" version="1.1">
 <metadata>
  <rdf:RDF xmlns:dc="http://purl.org/dc/elements/1.1/" xmlns:cc="http://creativecommons.org/ns#" xmlns:rdf="http://www.w3.org/1999/02/22-rdf-syntax-ns#">
   <cc:Work>
    <dc:type rdf:resource="http://purl.org/dc/dcmitype/StillImage"/>
    <dc:date>2022-05-15T15:16:34.976979</dc:date>
    <dc:format>image/svg+xml</dc:format>
    <dc:creator>
     <cc:Agent>
      <dc:title>Matplotlib v3.5.1, https://matplotlib.org/</dc:title>
     </cc:Agent>
    </dc:creator>
   </cc:Work>
  </rdf:RDF>
 </metadata>
 <defs>
  <style type="text/css">*{stroke-linejoin: round; stroke-linecap: butt}</style>
 </defs>
 <g id="figure_1">
  <g id="patch_1">
   <path d="M 0 707.76 
L 1382.4 707.76 
L 1382.4 0 
L 0 0 
z
" style="fill: #ffffff"/>
  </g>
  <g id="axes_1">
   <g id="patch_2">
    <path d="M 172.8 629.9064 
L 1244.16 629.9064 
L 1244.16 84.9312 
L 172.8 84.9312 
z
" style="fill: #ffffff"/>
   </g>
   <g id="matplotlib.axis_1">
    <g id="xtick_1">
     <g id="line2d_1">
      <defs>
       <path id="mb498756131" d="M 0 0 
L 0 3.5 
" style="stroke: #000000; stroke-width: 0.8"/>
      </defs>
      <g>
       <use xlink:href="#mb498756131" x="221.498182" y="629.9064" style="stroke: #000000; stroke-width: 0.8"/>
      </g>
     </g>
     <g id="text_1">
      <!-- 0 -->
      <g transform="translate(218.316932 644.504838)scale(0.1 -0.1)">
       <defs>
        <path id="DejaVuSans-30" d="M 2034 4250 
Q 1547 4250 1301 3770 
Q 1056 3291 1056 2328 
Q 1056 1369 1301 889 
Q 1547 409 2034 409 
Q 2525 409 2770 889 
Q 3016 1369 3016 2328 
Q 3016 3291 2770 3770 
Q 2525 4250 2034 4250 
z
M 2034 4750 
Q 2819 4750 3233 4129 
Q 3647 3509 3647 2328 
Q 3647 1150 3233 529 
Q 2819 -91 2034 -91 
Q 1250 -91 836 529 
Q 422 1150 422 2328 
Q 422 3509 836 4129 
Q 1250 4750 2034 4750 
z
" transform="scale(0.015625)"/>
       </defs>
       <use xlink:href="#DejaVuSans-30"/>
      </g>
     </g>
    </g>
    <g id="xtick_2">
     <g id="line2d_2">
      <g>
       <use xlink:href="#mb498756131" x="374.157059" y="629.9064" style="stroke: #000000; stroke-width: 0.8"/>
      </g>
     </g>
     <g id="text_2">
      <!-- 100 -->
      <g transform="translate(364.613309 644.504838)scale(0.1 -0.1)">
       <defs>
        <path id="DejaVuSans-31" d="M 794 531 
L 1825 531 
L 1825 4091 
L 703 3866 
L 703 4441 
L 1819 4666 
L 2450 4666 
L 2450 531 
L 3481 531 
L 3481 0 
L 794 0 
L 794 531 
z
" transform="scale(0.015625)"/>
       </defs>
       <use xlink:href="#DejaVuSans-31"/>
       <use xlink:href="#DejaVuSans-30" x="63.623047"/>
       <use xlink:href="#DejaVuSans-30" x="127.246094"/>
      </g>
     </g>
    </g>
    <g id="xtick_3">
     <g id="line2d_3">
      <g>
       <use xlink:href="#mb498756131" x="526.815936" y="629.9064" style="stroke: #000000; stroke-width: 0.8"/>
      </g>
     </g>
     <g id="text_3">
      <!-- 200 -->
      <g transform="translate(517.272186 644.504838)scale(0.1 -0.1)">
       <defs>
        <path id="DejaVuSans-32" d="M 1228 531 
L 3431 531 
L 3431 0 
L 469 0 
L 469 531 
Q 828 903 1448 1529 
Q 2069 2156 2228 2338 
Q 2531 2678 2651 2914 
Q 2772 3150 2772 3378 
Q 2772 3750 2511 3984 
Q 2250 4219 1831 4219 
Q 1534 4219 1204 4116 
Q 875 4013 500 3803 
L 500 4441 
Q 881 4594 1212 4672 
Q 1544 4750 1819 4750 
Q 2544 4750 2975 4387 
Q 3406 4025 3406 3419 
Q 3406 3131 3298 2873 
Q 3191 2616 2906 2266 
Q 2828 2175 2409 1742 
Q 1991 1309 1228 531 
z
" transform="scale(0.015625)"/>
       </defs>
       <use xlink:href="#DejaVuSans-32"/>
       <use xlink:href="#DejaVuSans-30" x="63.623047"/>
       <use xlink:href="#DejaVuSans-30" x="127.246094"/>
      </g>
     </g>
    </g>
    <g id="xtick_4">
     <g id="line2d_4">
      <g>
       <use xlink:href="#mb498756131" x="679.474813" y="629.9064" style="stroke: #000000; stroke-width: 0.8"/>
      </g>
     </g>
     <g id="text_4">
      <!-- 300 -->
      <g transform="translate(669.931063 644.504838)scale(0.1 -0.1)">
       <defs>
        <path id="DejaVuSans-33" d="M 2597 2516 
Q 3050 2419 3304 2112 
Q 3559 1806 3559 1356 
Q 3559 666 3084 287 
Q 2609 -91 1734 -91 
Q 1441 -91 1130 -33 
Q 819 25 488 141 
L 488 750 
Q 750 597 1062 519 
Q 1375 441 1716 441 
Q 2309 441 2620 675 
Q 2931 909 2931 1356 
Q 2931 1769 2642 2001 
Q 2353 2234 1838 2234 
L 1294 2234 
L 1294 2753 
L 1863 2753 
Q 2328 2753 2575 2939 
Q 2822 3125 2822 3475 
Q 2822 3834 2567 4026 
Q 2313 4219 1838 4219 
Q 1578 4219 1281 4162 
Q 984 4106 628 3988 
L 628 4550 
Q 988 4650 1302 4700 
Q 1616 4750 1894 4750 
Q 2613 4750 3031 4423 
Q 3450 4097 3450 3541 
Q 3450 3153 3228 2886 
Q 3006 2619 2597 2516 
z
" transform="scale(0.015625)"/>
       </defs>
       <use xlink:href="#DejaVuSans-33"/>
       <use xlink:href="#DejaVuSans-30" x="63.623047"/>
       <use xlink:href="#DejaVuSans-30" x="127.246094"/>
      </g>
     </g>
    </g>
    <g id="xtick_5">
     <g id="line2d_5">
      <g>
       <use xlink:href="#mb498756131" x="832.133691" y="629.9064" style="stroke: #000000; stroke-width: 0.8"/>
      </g>
     </g>
     <g id="text_5">
      <!-- 400 -->
      <g transform="translate(822.589941 644.504838)scale(0.1 -0.1)">
       <defs>
        <path id="DejaVuSans-34" d="M 2419 4116 
L 825 1625 
L 2419 1625 
L 2419 4116 
z
M 2253 4666 
L 3047 4666 
L 3047 1625 
L 3713 1625 
L 3713 1100 
L 3047 1100 
L 3047 0 
L 2419 0 
L 2419 1100 
L 313 1100 
L 313 1709 
L 2253 4666 
z
" transform="scale(0.015625)"/>
       </defs>
       <use xlink:href="#DejaVuSans-34"/>
       <use xlink:href="#DejaVuSans-30" x="63.623047"/>
       <use xlink:href="#DejaVuSans-30" x="127.246094"/>
      </g>
     </g>
    </g>
    <g id="xtick_6">
     <g id="line2d_6">
      <g>
       <use xlink:href="#mb498756131" x="984.792568" y="629.9064" style="stroke: #000000; stroke-width: 0.8"/>
      </g>
     </g>
     <g id="text_6">
      <!-- 500 -->
      <g transform="translate(975.248818 644.504838)scale(0.1 -0.1)">
       <defs>
        <path id="DejaVuSans-35" d="M 691 4666 
L 3169 4666 
L 3169 4134 
L 1269 4134 
L 1269 2991 
Q 1406 3038 1543 3061 
Q 1681 3084 1819 3084 
Q 2600 3084 3056 2656 
Q 3513 2228 3513 1497 
Q 3513 744 3044 326 
Q 2575 -91 1722 -91 
Q 1428 -91 1123 -41 
Q 819 9 494 109 
L 494 744 
Q 775 591 1075 516 
Q 1375 441 1709 441 
Q 2250 441 2565 725 
Q 2881 1009 2881 1497 
Q 2881 1984 2565 2268 
Q 2250 2553 1709 2553 
Q 1456 2553 1204 2497 
Q 953 2441 691 2322 
L 691 4666 
z
" transform="scale(0.015625)"/>
       </defs>
       <use xlink:href="#DejaVuSans-35"/>
       <use xlink:href="#DejaVuSans-30" x="63.623047"/>
       <use xlink:href="#DejaVuSans-30" x="127.246094"/>
      </g>
     </g>
    </g>
    <g id="xtick_7">
     <g id="line2d_7">
      <g>
       <use xlink:href="#mb498756131" x="1137.451445" y="629.9064" style="stroke: #000000; stroke-width: 0.8"/>
      </g>
     </g>
     <g id="text_7">
      <!-- 600 -->
      <g transform="translate(1127.907695 644.504838)scale(0.1 -0.1)">
       <defs>
        <path id="DejaVuSans-36" d="M 2113 2584 
Q 1688 2584 1439 2293 
Q 1191 2003 1191 1497 
Q 1191 994 1439 701 
Q 1688 409 2113 409 
Q 2538 409 2786 701 
Q 3034 994 3034 1497 
Q 3034 2003 2786 2293 
Q 2538 2584 2113 2584 
z
M 3366 4563 
L 3366 3988 
Q 3128 4100 2886 4159 
Q 2644 4219 2406 4219 
Q 1781 4219 1451 3797 
Q 1122 3375 1075 2522 
Q 1259 2794 1537 2939 
Q 1816 3084 2150 3084 
Q 2853 3084 3261 2657 
Q 3669 2231 3669 1497 
Q 3669 778 3244 343 
Q 2819 -91 2113 -91 
Q 1303 -91 875 529 
Q 447 1150 447 2328 
Q 447 3434 972 4092 
Q 1497 4750 2381 4750 
Q 2619 4750 2861 4703 
Q 3103 4656 3366 4563 
z
" transform="scale(0.015625)"/>
       </defs>
       <use xlink:href="#DejaVuSans-36"/>
       <use xlink:href="#DejaVuSans-30" x="63.623047"/>
       <use xlink:href="#DejaVuSans-30" x="127.246094"/>
      </g>
     </g>
    </g>
    <g id="text_8">
     <!-- Time -->
     <g transform="translate(696.246406 658.182963)scale(0.1 -0.1)">
      <defs>
       <path id="DejaVuSans-54" d="M -19 4666 
L 3928 4666 
L 3928 4134 
L 2272 4134 
L 2272 0 
L 1638 0 
L 1638 4134 
L -19 4134 
L -19 4666 
z
" transform="scale(0.015625)"/>
       <path id="DejaVuSans-69" d="M 603 3500 
L 1178 3500 
L 1178 0 
L 603 0 
L 603 3500 
z
M 603 4863 
L 1178 4863 
L 1178 4134 
L 603 4134 
L 603 4863 
z
" transform="scale(0.015625)"/>
       <path id="DejaVuSans-6d" d="M 3328 2828 
Q 3544 3216 3844 3400 
Q 4144 3584 4550 3584 
Q 5097 3584 5394 3201 
Q 5691 2819 5691 2113 
L 5691 0 
L 5113 0 
L 5113 2094 
Q 5113 2597 4934 2840 
Q 4756 3084 4391 3084 
Q 3944 3084 3684 2787 
Q 3425 2491 3425 1978 
L 3425 0 
L 2847 0 
L 2847 2094 
Q 2847 2600 2669 2842 
Q 2491 3084 2119 3084 
Q 1678 3084 1418 2786 
Q 1159 2488 1159 1978 
L 1159 0 
L 581 0 
L 581 3500 
L 1159 3500 
L 1159 2956 
Q 1356 3278 1631 3431 
Q 1906 3584 2284 3584 
Q 2666 3584 2933 3390 
Q 3200 3197 3328 2828 
z
" transform="scale(0.015625)"/>
       <path id="DejaVuSans-65" d="M 3597 1894 
L 3597 1613 
L 953 1613 
Q 991 1019 1311 708 
Q 1631 397 2203 397 
Q 2534 397 2845 478 
Q 3156 559 3463 722 
L 3463 178 
Q 3153 47 2828 -22 
Q 2503 -91 2169 -91 
Q 1331 -91 842 396 
Q 353 884 353 1716 
Q 353 2575 817 3079 
Q 1281 3584 2069 3584 
Q 2775 3584 3186 3129 
Q 3597 2675 3597 1894 
z
M 3022 2063 
Q 3016 2534 2758 2815 
Q 2500 3097 2075 3097 
Q 1594 3097 1305 2825 
Q 1016 2553 972 2059 
L 3022 2063 
z
" transform="scale(0.015625)"/>
      </defs>
      <use xlink:href="#DejaVuSans-54"/>
      <use xlink:href="#DejaVuSans-69" x="57.958984"/>
      <use xlink:href="#DejaVuSans-6d" x="85.742188"/>
      <use xlink:href="#DejaVuSans-65" x="183.154297"/>
     </g>
    </g>
   </g>
   <g id="matplotlib.axis_2">
    <g id="ytick_1">
     <g id="line2d_8">
      <defs>
       <path id="mca7d4ec0fc" d="M 0 0 
L -3.5 0 
" style="stroke: #000000; stroke-width: 0.8"/>
      </defs>
      <g>
       <use xlink:href="#mca7d4ec0fc" x="172.8" y="619.614275" style="stroke: #000000; stroke-width: 0.8"/>
      </g>
     </g>
     <g id="text_9">
      <!-- 4.2 -->
      <g transform="translate(149.896875 623.413494)scale(0.1 -0.1)">
       <defs>
        <path id="DejaVuSans-2e" d="M 684 794 
L 1344 794 
L 1344 0 
L 684 0 
L 684 794 
z
" transform="scale(0.015625)"/>
       </defs>
       <use xlink:href="#DejaVuSans-34"/>
       <use xlink:href="#DejaVuSans-2e" x="63.623047"/>
       <use xlink:href="#DejaVuSans-32" x="95.410156"/>
      </g>
     </g>
    </g>
    <g id="ytick_2">
     <g id="line2d_9">
      <g>
       <use xlink:href="#mca7d4ec0fc" x="172.8" y="552.91995" style="stroke: #000000; stroke-width: 0.8"/>
      </g>
     </g>
     <g id="text_10">
      <!-- 4.3 -->
      <g transform="translate(149.896875 556.719168)scale(0.1 -0.1)">
       <use xlink:href="#DejaVuSans-34"/>
       <use xlink:href="#DejaVuSans-2e" x="63.623047"/>
       <use xlink:href="#DejaVuSans-33" x="95.410156"/>
      </g>
     </g>
    </g>
    <g id="ytick_3">
     <g id="line2d_10">
      <g>
       <use xlink:href="#mca7d4ec0fc" x="172.8" y="486.225625" style="stroke: #000000; stroke-width: 0.8"/>
      </g>
     </g>
     <g id="text_11">
      <!-- 4.4 -->
      <g transform="translate(149.896875 490.024843)scale(0.1 -0.1)">
       <use xlink:href="#DejaVuSans-34"/>
       <use xlink:href="#DejaVuSans-2e" x="63.623047"/>
       <use xlink:href="#DejaVuSans-34" x="95.410156"/>
      </g>
     </g>
    </g>
    <g id="ytick_4">
     <g id="line2d_11">
      <g>
       <use xlink:href="#mca7d4ec0fc" x="172.8" y="419.531299" style="stroke: #000000; stroke-width: 0.8"/>
      </g>
     </g>
     <g id="text_12">
      <!-- 4.5 -->
      <g transform="translate(149.896875 423.330518)scale(0.1 -0.1)">
       <use xlink:href="#DejaVuSans-34"/>
       <use xlink:href="#DejaVuSans-2e" x="63.623047"/>
       <use xlink:href="#DejaVuSans-35" x="95.410156"/>
      </g>
     </g>
    </g>
    <g id="ytick_5">
     <g id="line2d_12">
      <g>
       <use xlink:href="#mca7d4ec0fc" x="172.8" y="352.836974" style="stroke: #000000; stroke-width: 0.8"/>
      </g>
     </g>
     <g id="text_13">
      <!-- 4.6 -->
      <g transform="translate(149.896875 356.636193)scale(0.1 -0.1)">
       <use xlink:href="#DejaVuSans-34"/>
       <use xlink:href="#DejaVuSans-2e" x="63.623047"/>
       <use xlink:href="#DejaVuSans-36" x="95.410156"/>
      </g>
     </g>
    </g>
    <g id="ytick_6">
     <g id="line2d_13">
      <g>
       <use xlink:href="#mca7d4ec0fc" x="172.8" y="286.142649" style="stroke: #000000; stroke-width: 0.8"/>
      </g>
     </g>
     <g id="text_14">
      <!-- 4.7 -->
      <g transform="translate(149.896875 289.941868)scale(0.1 -0.1)">
       <defs>
        <path id="DejaVuSans-37" d="M 525 4666 
L 3525 4666 
L 3525 4397 
L 1831 0 
L 1172 0 
L 2766 4134 
L 525 4134 
L 525 4666 
z
" transform="scale(0.015625)"/>
       </defs>
       <use xlink:href="#DejaVuSans-34"/>
       <use xlink:href="#DejaVuSans-2e" x="63.623047"/>
       <use xlink:href="#DejaVuSans-37" x="95.410156"/>
      </g>
     </g>
    </g>
    <g id="ytick_7">
     <g id="line2d_14">
      <g>
       <use xlink:href="#mca7d4ec0fc" x="172.8" y="219.448324" style="stroke: #000000; stroke-width: 0.8"/>
      </g>
     </g>
     <g id="text_15">
      <!-- 4.8 -->
      <g transform="translate(149.896875 223.247543)scale(0.1 -0.1)">
       <defs>
        <path id="DejaVuSans-38" d="M 2034 2216 
Q 1584 2216 1326 1975 
Q 1069 1734 1069 1313 
Q 1069 891 1326 650 
Q 1584 409 2034 409 
Q 2484 409 2743 651 
Q 3003 894 3003 1313 
Q 3003 1734 2745 1975 
Q 2488 2216 2034 2216 
z
M 1403 2484 
Q 997 2584 770 2862 
Q 544 3141 544 3541 
Q 544 4100 942 4425 
Q 1341 4750 2034 4750 
Q 2731 4750 3128 4425 
Q 3525 4100 3525 3541 
Q 3525 3141 3298 2862 
Q 3072 2584 2669 2484 
Q 3125 2378 3379 2068 
Q 3634 1759 3634 1313 
Q 3634 634 3220 271 
Q 2806 -91 2034 -91 
Q 1263 -91 848 271 
Q 434 634 434 1313 
Q 434 1759 690 2068 
Q 947 2378 1403 2484 
z
M 1172 3481 
Q 1172 3119 1398 2916 
Q 1625 2713 2034 2713 
Q 2441 2713 2670 2916 
Q 2900 3119 2900 3481 
Q 2900 3844 2670 4047 
Q 2441 4250 2034 4250 
Q 1625 4250 1398 4047 
Q 1172 3844 1172 3481 
z
" transform="scale(0.015625)"/>
       </defs>
       <use xlink:href="#DejaVuSans-34"/>
       <use xlink:href="#DejaVuSans-2e" x="63.623047"/>
       <use xlink:href="#DejaVuSans-38" x="95.410156"/>
      </g>
     </g>
    </g>
    <g id="ytick_8">
     <g id="line2d_15">
      <g>
       <use xlink:href="#mca7d4ec0fc" x="172.8" y="152.753999" style="stroke: #000000; stroke-width: 0.8"/>
      </g>
     </g>
     <g id="text_16">
      <!-- 4.9 -->
      <g transform="translate(149.896875 156.553218)scale(0.1 -0.1)">
       <defs>
        <path id="DejaVuSans-39" d="M 703 97 
L 703 672 
Q 941 559 1184 500 
Q 1428 441 1663 441 
Q 2288 441 2617 861 
Q 2947 1281 2994 2138 
Q 2813 1869 2534 1725 
Q 2256 1581 1919 1581 
Q 1219 1581 811 2004 
Q 403 2428 403 3163 
Q 403 3881 828 4315 
Q 1253 4750 1959 4750 
Q 2769 4750 3195 4129 
Q 3622 3509 3622 2328 
Q 3622 1225 3098 567 
Q 2575 -91 1691 -91 
Q 1453 -91 1209 -44 
Q 966 3 703 97 
z
M 1959 2075 
Q 2384 2075 2632 2365 
Q 2881 2656 2881 3163 
Q 2881 3666 2632 3958 
Q 2384 4250 1959 4250 
Q 1534 4250 1286 3958 
Q 1038 3666 1038 3163 
Q 1038 2656 1286 2365 
Q 1534 2075 1959 2075 
z
" transform="scale(0.015625)"/>
       </defs>
       <use xlink:href="#DejaVuSans-34"/>
       <use xlink:href="#DejaVuSans-2e" x="63.623047"/>
       <use xlink:href="#DejaVuSans-39" x="95.410156"/>
      </g>
     </g>
    </g>
    <g id="ytick_9">
     <g id="line2d_16">
      <g>
       <use xlink:href="#mca7d4ec0fc" x="172.8" y="86.059674" style="stroke: #000000; stroke-width: 0.8"/>
      </g>
     </g>
     <g id="text_17">
      <!-- 5.0 -->
      <g transform="translate(149.896875 89.858893)scale(0.1 -0.1)">
       <use xlink:href="#DejaVuSans-35"/>
       <use xlink:href="#DejaVuSans-2e" x="63.623047"/>
       <use xlink:href="#DejaVuSans-30" x="95.410156"/>
      </g>
     </g>
    </g>
    <g id="text_18">
     <!-- Price -->
     <g transform="translate(143.817187 369.616456)rotate(-90)scale(0.1 -0.1)">
      <defs>
       <path id="DejaVuSans-50" d="M 1259 4147 
L 1259 2394 
L 2053 2394 
Q 2494 2394 2734 2622 
Q 2975 2850 2975 3272 
Q 2975 3691 2734 3919 
Q 2494 4147 2053 4147 
L 1259 4147 
z
M 628 4666 
L 2053 4666 
Q 2838 4666 3239 4311 
Q 3641 3956 3641 3272 
Q 3641 2581 3239 2228 
Q 2838 1875 2053 1875 
L 1259 1875 
L 1259 0 
L 628 0 
L 628 4666 
z
" transform="scale(0.015625)"/>
       <path id="DejaVuSans-72" d="M 2631 2963 
Q 2534 3019 2420 3045 
Q 2306 3072 2169 3072 
Q 1681 3072 1420 2755 
Q 1159 2438 1159 1844 
L 1159 0 
L 581 0 
L 581 3500 
L 1159 3500 
L 1159 2956 
Q 1341 3275 1631 3429 
Q 1922 3584 2338 3584 
Q 2397 3584 2469 3576 
Q 2541 3569 2628 3553 
L 2631 2963 
z
" transform="scale(0.015625)"/>
       <path id="DejaVuSans-63" d="M 3122 3366 
L 3122 2828 
Q 2878 2963 2633 3030 
Q 2388 3097 2138 3097 
Q 1578 3097 1268 2742 
Q 959 2388 959 1747 
Q 959 1106 1268 751 
Q 1578 397 2138 397 
Q 2388 397 2633 464 
Q 2878 531 3122 666 
L 3122 134 
Q 2881 22 2623 -34 
Q 2366 -91 2075 -91 
Q 1284 -91 818 406 
Q 353 903 353 1747 
Q 353 2603 823 3093 
Q 1294 3584 2113 3584 
Q 2378 3584 2631 3529 
Q 2884 3475 3122 3366 
z
" transform="scale(0.015625)"/>
      </defs>
      <use xlink:href="#DejaVuSans-50"/>
      <use xlink:href="#DejaVuSans-72" x="58.552734"/>
      <use xlink:href="#DejaVuSans-69" x="99.666016"/>
      <use xlink:href="#DejaVuSans-63" x="127.449219"/>
      <use xlink:href="#DejaVuSans-65" x="182.429688"/>
     </g>
    </g>
   </g>
   <g id="line2d_17">
    <path d="M 221.498182 565.925386 
L 223.024771 568.499785 
L 224.551359 569.193394 
L 226.077948 568.539856 
L 227.604537 560.523124 
L 229.131126 560.123051 
L 230.657714 564.8581 
L 232.184303 562.523809 
L 233.710892 572.147831 
L 235.237481 582.732283 
L 236.76407 579.824596 
L 238.290658 577.263236 
L 239.817247 577.663627 
L 241.343836 582.498854 
L 242.870425 570.86079 
L 244.397013 568.126108 
L 245.923602 580.598028 
L 247.450191 581.011459 
L 248.97678 579.777846 
L 250.503368 584.172929 
L 252.029957 572.394617 
L 253.556546 582.665498 
L 255.083135 594.003666 
L 256.609724 591.349125 
L 258.136312 599.072321 
L 259.662901 588.928331 
L 261.18949 597.985318 
L 262.716079 589.401868 
L 264.242667 595.537492 
L 265.769256 597.938568 
L 267.295845 605.1348 
L 268.822434 600.406429 
L 270.349023 598.472211 
L 271.875611 593.603592 
L 273.4022 590.455479 
L 274.928789 599.272358 
L 276.455378 594.843883 
L 277.981966 589.862048 
L 279.508555 583.412535 
L 281.035144 568.493107 
L 282.561733 572.261365 
L 284.088321 562.990667 
L 285.61491 557.721975 
L 287.141499 555.787757 
L 288.668088 554.800612 
L 290.194677 570.260362 
L 291.721265 589.268298 
L 293.247854 580.26474 
L 294.774443 572.114438 
L 297.82762 582.398995 
L 299.354209 585.853682 
L 300.880798 589.975264 
L 302.407387 589.268298 
L 303.933975 579.864349 
L 305.460564 575.369407 
L 306.987153 573.328333 
L 308.513742 568.326462 
L 311.566919 548.851668 
L 313.093508 549.318526 
L 316.146686 538.440539 
L 317.673274 531.604309 
L 319.199863 543.209298 
L 320.726452 548.084596 
L 322.253041 555.720972 
L 323.77963 550.292314 
L 325.306218 544.449907 
L 326.832807 534.458886 
L 328.359396 550.578853 
L 329.885985 535.76628 
L 331.412573 502.505811 
L 332.939162 506.974357 
L 334.465751 462.389077 
L 335.99234 442.514209 
L 337.518928 425.380384 
L 339.045517 382.249107 
L 340.572106 419.104512 
L 342.098695 352.92354 
L 343.625284 349.508924 
L 345.151872 377.580525 
L 346.678461 412.041532 
L 348.20505 397.775642 
L 349.731639 392.119915 
L 351.258227 384.210039 
L 352.784816 355.758082 
L 354.311405 376.513556 
L 355.837994 362.881169 
L 357.364583 379.181136 
L 358.891171 404.48498 
L 360.41776 400.323327 
L 361.944349 389.305409 
L 363.470938 386.890976 
L 364.997526 392.586773 
L 366.524115 407.059379 
L 368.050704 394.721028 
L 369.577293 399.98972 
L 371.103881 410.367457 
L 372.63047 405.191946 
L 374.157059 398.442537 
L 375.683648 386.91769 
L 377.210237 392.253167 
L 378.736825 394.987849 
L 380.263414 395.988351 
L 381.790003 387.518118 
L 383.316592 388.718656 
L 384.84318 393.360524 
L 386.369769 375.179449 
L 387.896358 388.118228 
L 389.422947 395.121101 
L 390.949535 387.284688 
L 392.476124 386.624472 
L 394.002713 388.671906 
L 395.529302 382.382677 
L 397.055891 378.114168 
L 398.582479 375.713092 
L 400.109068 379.714779 
L 401.635657 376.246735 
L 403.162246 380.475173 
L 404.688834 390.732697 
L 406.215423 396.121603 
L 407.742012 410.994281 
L 409.268601 409.660492 
L 410.79519 419.398048 
L 412.321778 460.014715 
L 413.848367 467.878159 
L 415.374956 449.276975 
L 416.901545 464.383083 
L 418.428133 485.145236 
L 419.954722 497.923731 
L 421.481311 482.164085 
L 423.0079 463.93626 
L 424.534488 465.016903 
L 426.061077 471.379596 
L 430.640844 438.459094 
L 433.694021 477.201967 
L 435.22061 457.080313 
L 436.747199 444.708252 
L 438.273787 454.345631 
L 439.800376 441.827279 
L 441.326965 461.748896 
L 442.853554 456.893316 
L 444.380142 449.010153 
L 445.906731 452.758376 
L 447.43332 443.274603 
L 448.959909 450.690907 
L 450.486498 456.353312 
L 452.013086 436.471766 
L 453.539675 444.708252 
L 455.066264 445.295323 
L 456.592853 444.014643 
L 458.119441 437.305305 
L 459.64603 437.192089 
L 461.172619 443.941498 
L 462.699208 442.140532 
L 464.225797 426.594279 
L 465.752385 438.259057 
L 467.278974 435.804871 
L 468.805563 434.470763 
L 470.332152 436.118124 
L 471.85874 449.817297 
L 473.385329 465.196905 
L 474.911918 472.673315 
L 476.438507 483.491196 
L 477.965095 483.924662 
L 479.491684 492.78829 
L 481.018273 479.102793 
L 482.544862 484.518094 
L 484.071451 483.15759 
L 485.598039 471.766312 
L 487.124628 480.890084 
L 488.651217 488.88678 
L 490.177806 487.099171 
L 491.704394 477.488824 
L 493.230983 479.889582 
L 494.757572 487.712956 
L 496.284161 483.077766 
L 497.81075 487.559669 
L 499.337338 488.193171 
L 500.863927 489.427102 
L 502.390516 489.113531 
L 503.917105 502.285739 
L 505.443693 486.945884 
L 506.970282 501.031773 
L 508.496871 480.690047 
L 510.02346 491.954751 
L 511.550048 488.866745 
L 513.076637 479.949689 
L 514.603226 482.157407 
L 516.129815 497.897017 
L 517.656404 489.126888 
L 519.182992 495.369368 
L 520.709581 480.096297 
L 522.23617 463.149471 
L 523.762759 449.076938 
L 525.289347 466.417478 
L 526.815936 455.412917 
L 528.342525 462.682612 
L 529.869114 452.544983 
L 531.395702 456.946744 
L 532.922291 458.480888 
L 534.44888 452.544983 
L 535.975469 456.146597 
L 537.502058 452.364982 
L 539.028646 452.811804 
L 540.555235 426.033922 
L 542.081824 431.262862 
L 543.608413 411.968069 
L 545.135001 388.331621 
L 546.66159 385.5839 
L 548.188179 362.567598 
L 549.714768 401.31715 
L 551.241357 399.522862 
L 552.767945 435.271228 
L 554.294534 425.720669 
L 555.821123 424.686776 
L 557.347712 428.074996 
L 558.8743 433.803868 
L 560.400889 431.469577 
L 561.927478 444.408356 
L 563.454067 449.750512 
L 564.980655 425.320278 
L 566.507244 411.608066 
L 568.033833 392.986847 
L 569.560422 391.45302 
L 571.087011 373.445585 
L 572.613599 379.627959 
L 574.140188 374.245732 
L 575.666777 371.891405 
L 577.193366 376.206664 
L 578.719954 368.483468 
L 580.246543 362.967989 
L 581.773132 333.188921 
L 583.299721 338.230863 
L 584.826309 348.321743 
L 586.352898 352.983647 
L 587.879487 393.127095 
L 589.406076 396.888675 
L 590.932665 404.605193 
L 592.459253 417.883939 
L 593.985842 434.003905 
L 595.512431 422.265664 
L 597.03902 434.937621 
L 598.565608 429.135286 
L 600.092197 432.036613 
L 601.618786 442.207317 
L 603.145375 428.461712 
L 604.671964 442.747638 
L 606.198552 443.674676 
L 607.725141 443.434569 
L 609.25173 440.173239 
L 610.778319 446.475826 
L 612.304907 446.342574 
L 613.831496 436.878518 
L 615.358085 428.981999 
L 616.884674 434.230656 
L 618.411262 457.446994 
L 619.937851 438.619059 
L 621.46444 441.466958 
L 622.991029 441.940495 
L 624.517618 437.458592 
L 627.570795 469.038626 
L 629.097384 468.751769 
L 630.623973 458.580747 
L 632.150561 464.436511 
L 633.67715 463.529508 
L 636.730328 464.149654 
L 638.256917 434.664121 
L 639.783505 424.619991 
L 641.310094 415.596397 
L 642.836683 420.351482 
L 644.363272 421.932376 
L 645.88986 419.84487 
L 647.416449 426.600958 
L 648.943038 393.433669 
L 650.469627 366.902892 
L 651.996215 398.122287 
L 653.522804 381.755535 
L 655.049393 384.183325 
L 656.575982 400.069862 
L 658.102571 404.218158 
L 659.629159 408.773524 
L 661.155748 412.735141 
L 662.682337 404.525051 
L 664.208926 406.706055 
L 665.735514 395.387923 
L 667.262103 395.121101 
L 668.788692 396.848604 
L 670.315281 399.836433 
L 671.841869 397.748928 
L 673.368458 398.722715 
L 674.895047 400.456578 
L 676.421636 394.267527 
L 677.948225 393.973991 
L 679.474813 393.186883 
L 681.001402 388.805158 
L 682.527991 395.321138 
L 684.05458 409.39367 
L 685.581168 414.289003 
L 687.107757 432.963651 
L 688.634346 432.136472 
L 690.160935 422.399234 
L 691.687524 431.069504 
L 693.214112 437.672304 
L 694.740701 439.472952 
L 696.26729 425.667241 
L 697.793879 421.465517 
L 699.320467 423.599772 
L 700.847056 432.336509 
L 702.373645 424.599955 
L 703.900234 427.14128 
L 705.426822 427.46789 
L 706.953411 430.816039 
L 708.48 423.192702 
L 710.006589 414.809289 
L 711.533178 416.956901 
L 713.059766 408.219846 
L 714.586355 407.499523 
L 716.112944 401.257043 
L 717.639533 397.722214 
L 719.166121 390.439162 
L 720.69271 379.614602 
L 722.219299 363.687994 
L 723.745888 356.125081 
L 725.272476 375.479663 
L 726.799065 370.170899 
L 728.325654 366.415998 
L 729.852243 367.456252 
L 731.378832 361.113595 
L 732.90542 359.106232 
L 734.432009 355.378044 
L 735.958598 340.451938 
L 737.485187 339.304827 
L 739.011775 358.906195 
L 740.538364 340.778548 
L 742.064953 336.77686 
L 743.591542 331.854813 
L 745.118131 333.095422 
L 746.644719 311.953231 
L 748.171308 317.489063 
L 749.697897 334.696033 
L 751.224486 361.987523 
L 752.751074 353.237111 
L 754.277663 360.693486 
L 755.804252 362.040633 
L 757.330841 372.73862 
L 758.857429 390.625841 
L 760.384018 399.102753 
L 761.910607 399.796362 
L 763.437196 378.447456 
L 764.963785 386.450831 
L 766.490373 386.391043 
L 768.016962 392.766774 
L 769.543551 386.54433 
L 771.07014 386.18401 
L 772.596728 383.216216 
L 774.123317 377.74049 
L 775.649906 385.743865 
L 777.176495 382.916002 
L 778.703083 374.372623 
L 780.229672 371.444583 
L 781.756261 375.886414 
L 783.28285 380.881925 
L 784.809439 392.853595 
L 786.336027 384.403397 
L 787.862616 370.697864 
L 789.389205 373.845659 
L 790.915794 385.510436 
L 792.442382 380.955388 
L 793.968971 393.907206 
L 795.49556 385.190505 
L 797.022149 405.058694 
L 798.548738 403.071048 
L 800.075326 401.737258 
L 801.601915 406.045838 
L 803.128504 406.125662 
L 804.655093 423.619807 
L 806.181681 425.173669 
L 807.70827 434.6708 
L 809.234859 434.270726 
L 810.761448 420.40491 
L 812.288036 426.600958 
L 813.814625 431.989863 
L 815.341214 436.938624 
L 816.867803 449.143723 
L 818.394392 451.811303 
L 819.92098 446.22904 
L 821.447569 450.771049 
L 822.974158 443.007781 
L 824.500747 447.676364 
L 826.027335 440.139847 
L 827.553924 442.080743 
L 829.080513 422.125734 
L 830.607102 407.739631 
L 832.133691 402.924439 
L 833.660279 403.444726 
L 835.186868 381.935854 
L 836.713457 386.124221 
L 838.240046 402.103939 
L 839.766634 411.527924 
L 841.293223 401.517186 
L 842.819812 408.179775 
L 844.346401 412.428249 
L 845.872989 419.391369 
L 847.399578 407.926628 
L 848.926167 405.625412 
L 850.452756 410.200813 
L 851.979345 413.161928 
L 853.505933 419.731336 
L 855.032522 411.08778 
L 856.559111 397.895537 
L 858.0857 394.974492 
L 859.612288 390.179019 
L 861.138877 386.030722 
L 862.665466 368.216646 
L 864.192055 378.781063 
L 865.718643 368.576966 
L 867.245232 364.095064 
L 868.771821 357.905694 
L 870.29841 359.039447 
L 871.824999 369.557114 
L 873.351587 378.287491 
L 874.878176 369.150362 
L 876.404765 358.372552 
L 877.931354 355.578081 
L 879.457942 358.2393 
L 880.984531 374.165908 
L 882.51112 376.513556 
L 884.037709 381.615605 
L 885.564298 385.870757 
L 887.090886 392.213414 
L 888.617475 389.538838 
L 890.144064 372.445084 
L 891.670653 377.74049 
L 893.197241 369.790543 
L 894.72383 367.929789 
L 896.250419 371.918119 
L 897.777008 376.806774 
L 899.303596 382.78275 
L 900.830185 378.707599 
L 902.356774 382.916002 
L 903.883363 366.028963 
L 905.409952 369.71072 
L 906.93654 365.321998 
L 908.463129 371.724761 
L 909.989718 371.351402 
L 911.516307 371.331366 
L 913.042895 370.591008 
L 914.569484 382.155926 
L 916.096073 405.558945 
L 917.622662 416.73015 
L 919.14925 412.28164 
L 920.675839 414.949537 
L 922.202428 405.318837 
L 923.729017 412.168105 
L 925.255606 410.660993 
L 926.782194 391.966628 
L 928.308783 393.587275 
L 929.835372 388.344978 
L 931.361961 387.284688 
L 932.888549 377.440594 
L 934.415138 371.738118 
L 935.941727 362.574276 
L 937.468316 350.209211 
L 938.994905 341.49887 
L 940.521493 340.925474 
L 942.048082 346.781238 
L 943.574671 349.862566 
L 945.10126 354.52447 
L 946.627848 330.167699 
L 948.154437 332.755455 
L 951.207615 368.550252 
L 952.734203 360.30677 
L 954.260792 351.249784 
L 955.787381 389.652372 
L 957.31397 363.007742 
L 958.840559 351.58975 
L 960.367147 364.788673 
L 961.893736 364.335171 
L 963.420325 370.797723 
L 964.946914 373.111979 
L 966.473502 378.814455 
L 968.000091 363.687994 
L 969.52668 365.321998 
L 971.053269 365.468924 
L 972.579858 351.703285 
L 974.106446 356.305082 
L 975.633035 346.701096 
L 977.159624 348.568529 
L 978.686213 339.931651 
L 980.212801 339.698222 
L 981.73939 348.041564 
L 983.265979 342.952873 
L 984.792568 351.436463 
L 986.319156 366.642749 
L 987.845745 354.604294 
L 989.372334 354.451006 
L 990.898923 360.239985 
L 992.425512 361.04045 
L 993.9521 348.955245 
L 995.478689 331.581631 
L 997.005278 327.373228 
L 998.531867 324.625189 
L 1001.585044 313.487376 
L 1003.111633 308.511901 
L 1004.638222 296.987054 
L 1006.16481 283.575056 
L 1007.691399 284.368524 
L 1009.217988 301.782528 
L 1010.744577 301.615883 
L 1012.271166 284.24863 
L 1013.797754 299.721736 
L 1015.324343 317.489063 
L 1016.850932 339.698222 
L 1018.377521 355.964797 
L 1019.904109 355.438151 
L 1021.430698 359.839912 
L 1022.957287 367.309643 
L 1024.483876 348.135063 
L 1026.010465 351.516287 
L 1027.537053 343.69991 
L 1029.063642 328.533696 
L 1030.590231 334.982891 
L 1032.11682 339.858188 
L 1033.643408 333.862494 
L 1035.169997 333.728925 
L 1036.696586 335.623071 
L 1038.223175 339.724936 
L 1039.749763 333.228992 
L 1041.276352 335.889893 
L 1042.802941 339.945008 
L 1044.32953 353.537325 
L 1045.856119 356.305082 
L 1047.382707 356.40526 
L 1048.909296 359.206409 
L 1050.435885 360.660094 
L 1051.962474 370.717581 
L 1053.489062 378.020669 
L 1055.015651 373.045512 
L 1056.54224 384.483539 
L 1058.068829 390.966126 
L 1059.595417 393.733883 
L 1061.122006 395.394601 
L 1062.648595 405.658804 
L 1064.175184 394.520991 
L 1065.701773 394.647564 
L 1067.228361 403.691512 
L 1068.75495 399.38961 
L 1070.281539 405.772338 
L 1071.808128 402.670975 
L 1073.334716 401.437044 
L 1074.861305 377.51374 
L 1076.387894 368.110108 
L 1077.914483 365.909069 
L 1079.441072 382.396034 
L 1080.96766 365.468924 
L 1082.494249 366.976037 
L 1084.020838 374.38598 
L 1085.547427 394.574419 
L 1087.074015 394.867637 
L 1088.600604 382.449144 
L 1090.127193 397.401964 
L 1091.653782 402.764474 
L 1093.18037 424.566563 
L 1094.706959 418.577548 
L 1096.233548 375.426235 
L 1097.760137 385.657363 
L 1099.286726 423.939739 
L 1100.813314 419.931373 
L 1102.339903 405.692196 
L 1103.866492 403.557942 
L 1105.393081 390.746054 
L 1106.919669 389.61898 
L 1108.446258 362.614347 
L 1109.972847 338.737792 
L 1111.499436 286.382884 
L 1113.026025 296.133479 
L 1114.552613 270.802921 
L 1116.079202 258.46457 
L 1117.605791 211.911998 
L 1119.13238 132.865711 
L 1120.658968 109.7028 
L 1123.712146 245.692436 
L 1125.238735 237.815952 
L 1126.765323 239.089954 
L 1128.291912 270.836314 
L 1129.818501 285.929383 
L 1131.34509 315.154772 
L 1132.871679 304.029998 
L 1134.398267 279.780084 
L 1135.924856 292.645399 
L 1137.451445 303.896747 
L 1138.978034 276.772219 
L 1140.504622 243.538464 
L 1142.031211 295.006405 
L 1143.5578 292.13847 
L 1145.084389 316.555347 
L 1146.610977 325.979014 
L 1148.137566 328.540374 
L 1149.664155 327.09305 
L 1151.190744 342.299335 
L 1152.717333 333.88253 
L 1154.243921 316.822169 
L 1155.77051 331.174561 
L 1157.297099 329.20059 
L 1158.823688 313.620628 
L 1160.350276 331.241346 
L 1161.876865 329.420663 
L 1163.403454 328.266874 
L 1164.930043 335.289783 
L 1166.456632 339.651473 
L 1167.98322 325.545548 
L 1169.509809 328.580127 
L 1171.036398 329.046985 
L 1172.562987 325.62569 
L 1174.089575 326.619513 
L 1175.616164 275.551646 
L 1177.142753 282.501091 
L 1178.669342 294.679477 
L 1180.19593 304.183604 
L 1181.722519 294.372584 
L 1183.249108 293.478939 
L 1184.775697 323.037934 
L 1186.302286 297.820911 
L 1187.828874 294.112759 
L 1189.355463 293.045473 
L 1190.882052 301.415529 
L 1192.408641 305.417216 
L 1193.935229 311.999981 
L 1195.461818 299.74845 
L 1195.461818 299.74845 
" clip-path="url(#p8080ff6df2)" style="fill: none; stroke: #000000; stroke-width: 1.5; stroke-linecap: square"/>
   </g>
   <g id="line2d_18">
    <path d="M 221.498182 309.936646 
L 223.024771 387.784939 
L 224.551359 422.440895 
L 226.077948 449.417859 
L 227.604537 464.483896 
L 229.131126 492.665215 
L 230.657714 510.546395 
L 232.184303 525.675082 
L 233.710892 536.85074 
L 235.237481 551.701475 
L 236.76407 564.509546 
L 238.290658 571.51242 
L 239.817247 577.270232 
L 241.343836 582.442246 
L 242.870425 589.616852 
L 244.397013 588.896847 
L 245.923602 588.875858 
L 247.450191 589.876995 
L 248.97678 592.849241 
L 250.503368 590.2494 
L 252.029957 588.028325 
L 253.556546 586.175203 
L 255.083135 587.607581 
L 256.609724 586.910473 
L 258.136312 584.735512 
L 259.662901 583.946178 
L 261.18949 583.916602 
L 262.716079 584.968623 
L 264.242667 582.219311 
L 265.769256 582.403765 
L 267.295845 581.882843 
L 268.822434 585.121592 
L 270.349023 582.939952 
L 271.875611 583.50508 
L 273.4022 582.009098 
L 274.928789 584.966079 
L 276.455378 583.533702 
L 277.981966 583.674586 
L 279.508555 581.5133 
L 281.035144 582.684897 
L 282.561733 578.996463 
L 284.088321 577.931721 
L 285.61491 573.28858 
L 287.141499 572.178043 
L 288.668088 566.800905 
L 290.194677 564.761739 
L 291.721265 561.568785 
L 293.247854 564.411277 
L 294.774443 560.991254 
L 296.301032 561.389738 
L 297.82762 560.278246 
L 299.354209 565.170717 
L 300.880798 564.187071 
L 302.407387 567.726352 
L 303.933975 568.995583 
L 305.460564 573.425966 
L 306.987153 572.604512 
L 308.513742 575.230431 
L 310.040331 574.922584 
L 311.566919 576.261462 
L 313.093508 572.291895 
L 314.620097 569.926756 
L 316.146686 567.149458 
L 317.673274 563.420953 
L 319.199863 558.363746 
L 322.253041 553.862444 
L 323.77963 552.597029 
L 325.306218 549.416159 
L 326.832807 548.0035 
L 328.359396 545.351503 
L 329.885985 546.33992 
L 331.412573 542.966964 
L 332.939162 537.085759 
L 334.465751 532.73043 
L 335.99234 523.293406 
L 337.518928 510.366075 
L 339.045517 493.848262 
L 340.572106 472.358154 
L 342.098695 460.995499 
L 343.625284 432.047425 
L 345.151872 410.386221 
L 346.678461 398.040873 
L 348.20505 399.675831 
L 349.731639 393.934874 
L 351.258227 392.716209 
L 352.784816 392.247124 
L 354.311405 387.233805 
L 355.837994 387.339388 
L 357.364583 380.608425 
L 358.891171 383.794382 
L 360.41776 394.439259 
L 361.944349 399.327278 
L 363.470938 399.879048 
L 364.997526 401.412875 
L 368.050704 410.970748 
L 369.577293 410.462864 
L 371.103881 412.254608 
L 372.63047 418.215319 
L 374.157059 420.011197 
L 375.683648 418.880942 
L 377.210237 414.599712 
L 378.736825 415.538835 
L 380.263414 415.193143 
L 381.790003 414.102323 
L 383.316592 409.526604 
L 384.84318 409.559678 
L 386.369769 410.171555 
L 387.896358 404.800141 
L 389.422947 403.299389 
L 390.949535 404.820495 
L 392.476124 404.314201 
L 394.002713 403.940524 
L 395.529302 402.416238 
L 397.055891 401.070682 
L 401.635657 394.434171 
L 403.162246 393.114056 
L 404.688834 392.799849 
L 406.215423 395.552659 
L 407.742012 397.779776 
L 409.268601 404.671342 
L 410.79519 408.120305 
L 412.321778 414.51639 
L 413.848367 427.624039 
L 415.374956 438.533829 
L 416.901545 442.670677 
L 418.428133 451.011156 
L 421.481311 471.523979 
L 423.0079 474.246894 
L 424.534488 475.596903 
L 426.061077 478.030418 
L 427.587666 481.334998 
L 429.114255 477.402322 
L 432.167432 468.595302 
L 433.694021 469.575132 
L 435.22061 470.198776 
L 436.747199 464.626371 
L 438.273787 461.001541 
L 439.800376 461.706281 
L 441.326965 458.151734 
L 444.380142 455.304153 
L 445.906731 455.551893 
L 447.43332 455.5926 
L 448.959909 452.253037 
L 450.486498 450.87377 
L 452.013086 452.087665 
L 453.539675 449.873587 
L 455.066264 448.903616 
L 456.592853 447.147809 
L 458.119441 446.737559 
L 459.64603 444.857723 
L 461.172619 443.956763 
L 464.225797 443.225627 
L 465.752385 439.605886 
L 467.278974 440.463913 
L 468.805563 439.740092 
L 470.332152 439.181325 
L 471.85874 438.237431 
L 473.385329 441.852721 
L 477.965095 459.264498 
L 479.491684 465.464362 
L 481.018273 473.093742 
L 482.544862 476.17348 
L 484.071451 480.171033 
L 485.598039 483.279711 
L 487.124628 484.805587 
L 488.651217 486.73249 
L 490.177806 488.921445 
L 491.704394 490.857253 
L 493.230983 489.769931 
L 494.757572 490.62605 
L 496.284161 491.679979 
L 497.81075 492.007543 
L 499.337338 491.631639 
L 502.390516 493.44469 
L 503.917105 493.845082 
L 505.443693 495.418025 
L 506.970282 494.6112 
L 508.496871 497.469912 
L 510.02346 495.084101 
L 511.550048 496.000008 
L 513.076637 494.523108 
L 514.603226 493.888969 
L 516.129815 492.27023 
L 517.656404 493.9354 
L 519.182992 493.00391 
L 520.709581 493.633596 
L 522.23617 491.37245 
L 523.762759 487.540269 
L 525.289347 481.392242 
L 526.815936 479.658697 
L 528.342525 474.61771 
L 529.869114 471.925006 
L 531.395702 467.326707 
L 532.922291 465.731502 
L 535.975469 460.760479 
L 537.502058 459.759342 
L 539.028646 458.471347 
L 540.555235 458.035019 
L 542.081824 450.9237 
L 543.608413 448.541705 
L 545.135001 441.16261 
L 548.188179 420.747739 
L 549.714768 406.857434 
L 551.241357 407.140793 
L 552.767945 403.66925 
L 554.294534 412.259378 
L 555.821123 414.825826 
L 557.347712 421.054313 
L 558.8743 424.879498 
L 560.400889 430.273173 
L 561.927478 432.723543 
L 563.454067 439.571857 
L 564.980655 444.858041 
L 566.507244 444.046445 
L 568.033833 440.026631 
L 571.087011 427.712449 
L 572.613599 417.195736 
L 574.140188 409.425472 
L 575.666777 402.351043 
L 577.193366 396.568743 
L 578.719954 394.217279 
L 580.246543 388.187557 
L 581.773132 385.334569 
L 583.299721 373.988133 
L 586.352898 365.13023 
L 587.879487 365.294012 
L 589.406076 376.325923 
L 592.459253 395.844604 
L 593.985842 407.396801 
L 595.512431 416.930823 
L 597.03902 423.223868 
L 598.565608 430.639536 
L 600.092197 435.760666 
L 601.618786 438.7927 
L 603.145375 444.00542 
L 604.671964 443.26856 
L 606.198552 447.985164 
L 607.725141 448.943051 
L 609.25173 451.738158 
L 610.778319 449.980125 
L 612.304907 452.753606 
L 613.831496 453.068131 
L 615.358085 452.271801 
L 616.884674 447.986118 
L 618.411262 447.442935 
L 619.937851 451.206105 
L 621.46444 448.604992 
L 622.991029 447.479507 
L 624.517618 447.184382 
L 626.044206 447.206961 
L 627.570795 449.122416 
L 629.097384 452.496961 
L 630.623973 456.294796 
L 632.150561 457.560211 
L 633.67715 460.918219 
L 635.203739 461.561262 
L 636.730328 463.859299 
L 638.256917 464.6763 
L 639.783505 460.404929 
L 641.310094 454.484925 
L 642.836683 447.323994 
L 644.363272 442.256292 
L 645.88986 436.351553 
L 647.416449 432.122161 
L 648.943038 430.059144 
L 650.469627 420.890213 
L 651.996215 407.845532 
L 653.522804 406.225204 
L 655.049393 398.378614 
L 656.575982 394.631663 
L 658.102571 395.151631 
L 659.629159 398.303243 
L 662.682337 405.593927 
L 664.208926 406.258278 
L 665.735514 409.408935 
L 667.262103 409.086459 
L 668.788692 407.926946 
L 670.315281 406.617326 
L 671.841869 408.13398 
L 673.368458 408.264369 
L 676.421636 408.701015 
L 677.948225 408.623417 
L 679.474813 407.908501 
L 681.001402 406.908318 
L 682.527991 405.105443 
L 684.05458 405.972693 
L 685.581168 409.216849 
L 687.107757 412.811785 
L 688.634346 420.531165 
L 690.160935 425.738161 
L 691.687524 428.12747 
L 694.740701 436.985692 
L 696.26729 440.527835 
L 697.793879 439.280866 
L 699.320467 439.287862 
L 700.847056 438.873796 
L 702.373645 440.156066 
L 703.900234 437.173961 
L 705.426822 437.414387 
L 706.953411 437.395624 
L 708.48 438.454005 
L 711.533178 432.155871 
L 713.059766 431.019256 
L 714.586355 427.725806 
L 716.112944 423.816664 
L 717.639533 418.850093 
L 719.166121 415.185193 
L 720.69271 410.653996 
L 722.219299 403.495609 
L 725.272476 385.023543 
L 726.799065 384.151841 
L 728.325654 379.844533 
L 729.852243 377.503563 
L 731.378832 376.770201 
L 732.90542 375.471712 
L 734.432009 373.67011 
L 735.958598 370.679419 
L 737.485187 364.281107 
L 739.011775 361.276741 
L 740.538364 363.917607 
L 742.064953 359.417259 
L 743.591542 356.470772 
L 745.118131 354.25733 
L 746.644719 352.464951 
L 748.171308 344.472388 
L 749.697897 339.860732 
L 751.224486 342.597641 
L 752.751074 353.066969 
L 754.277663 358.760222 
L 755.804252 365.073303 
L 757.330841 370.515319 
L 758.857429 377.306389 
L 760.384018 385.819555 
L 763.437196 399.465936 
L 764.963785 400.049191 
L 766.490373 401.949698 
L 768.016962 400.410147 
L 769.543551 401.823761 
L 771.07014 401.528953 
L 772.596728 401.356584 
L 774.123317 399.773146 
L 775.649906 396.496234 
L 777.176495 396.283794 
L 778.703083 394.567741 
L 780.229672 392.212778 
L 781.756261 389.346434 
L 783.28285 387.73978 
L 784.809439 387.365784 
L 786.336027 390.923829 
L 787.862616 390.853864 
L 789.389205 388.129358 
L 790.915794 387.134581 
L 792.442382 388.621022 
L 793.968971 387.28278 
L 795.49556 390.878034 
L 797.022149 391.020826 
L 798.548738 397.642072 
L 801.601915 401.67906 
L 804.655093 407.425742 
L 806.181681 413.18737 
L 807.70827 416.308133 
L 809.234859 422.012835 
L 810.761448 426.46389 
L 812.288036 427.132057 
L 815.341214 430.4748 
L 816.867803 433.489025 
L 819.92098 441.680988 
L 821.447569 443.008417 
L 822.974158 446.15494 
L 824.500747 446.219499 
L 826.027335 448.300007 
L 827.553924 446.812294 
L 829.080513 447.431168 
L 832.133691 435.823952 
L 833.660279 428.722174 
L 835.186868 423.24772 
L 836.713457 412.248247 
L 838.240046 405.97969 
L 839.766634 404.802367 
L 841.293223 405.906226 
L 842.819812 403.941796 
L 844.346401 405.447 
L 845.872989 408.518788 
L 847.399578 412.528744 
L 850.452756 411.518702 
L 853.505933 415.61834 
L 855.032522 417.396091 
L 856.559111 416.242938 
L 858.0857 414.420029 
L 859.612288 412.848357 
L 861.138877 408.426561 
L 862.665466 403.400202 
L 864.192055 395.651246 
L 865.718643 394.415725 
L 867.245232 388.405085 
L 868.771821 383.218442 
L 870.29841 377.576072 
L 871.824999 375.342595 
L 873.351587 376.34723 
L 874.878176 379.084457 
L 876.404765 378.246148 
L 879.457942 375.881008 
L 880.984531 374.859517 
L 882.51112 376.788647 
L 884.037709 379.690609 
L 885.564298 384.641597 
L 887.090886 390.125591 
L 888.617475 394.201696 
L 890.144064 396.335632 
L 891.670653 394.034097 
L 893.197241 395.267392 
L 894.72383 391.875673 
L 896.250419 388.901837 
L 897.777008 386.634649 
L 899.303596 387.622111 
L 900.830185 389.412264 
L 902.356774 389.966579 
L 903.883363 390.701531 
L 905.409952 387.707023 
L 906.93654 386.786664 
L 908.463129 384.159791 
L 909.989718 382.576989 
L 911.516307 382.53024 
L 913.042895 382.077375 
L 914.569484 382.675258 
L 916.096073 384.689618 
L 917.622662 393.049815 
L 919.14925 400.655343 
L 920.675839 407.036163 
L 922.202428 412.178918 
L 923.729017 414.13826 
L 925.255606 416.470961 
L 926.782194 417.724609 
L 928.308783 413.753452 
L 929.835372 412.140119 
L 931.361961 407.929173 
L 932.888549 404.314201 
L 934.415138 397.850059 
L 935.941727 392.751191 
L 937.468316 386.252703 
L 938.994905 377.700101 
L 940.521493 368.330816 
L 942.048082 361.342572 
L 943.574671 358.53379 
L 945.10126 357.453783 
L 946.627848 358.364919 
L 948.154437 352.855165 
L 949.681026 351.304166 
L 951.207615 354.006092 
L 952.734203 359.609027 
L 954.260792 362.712934 
L 955.787381 364.314182 
L 957.31397 376.612462 
L 958.840559 375.205527 
L 960.367147 372.356674 
L 961.893736 373.99831 
L 963.420325 374.489656 
L 964.946914 377.771021 
L 966.473502 377.971375 
L 968.000091 380.713054 
L 969.52668 380.1845 
L 971.053269 381.443554 
L 972.579858 378.379717 
L 974.106446 372.631764 
L 975.633035 372.17063 
L 977.159624 368.070673 
L 978.686213 364.579095 
L 980.212801 359.584539 
L 981.73939 356.749997 
L 983.265979 357.656045 
L 984.792568 355.814054 
L 986.319156 358.404036 
L 987.845745 363.801528 
L 989.372334 364.852595 
L 990.898923 366.573737 
L 992.425512 368.702904 
L 993.9521 369.171352 
L 995.478689 367.104518 
L 998.531867 354.652951 
L 1000.058455 348.368492 
L 1001.585044 341.587917 
L 1003.111633 335.36102 
L 1004.638222 330.675265 
L 1006.16481 324.767345 
L 1007.691399 315.78096 
L 1009.217988 309.156534 
L 1010.744577 310.472515 
L 1012.271166 312.63889 
L 1013.797754 310.328768 
L 1015.324343 315.101026 
L 1016.850932 321.487571 
L 1018.377521 333.01687 
L 1019.904109 346.21293 
L 1022.957287 364.143085 
L 1024.483876 370.77578 
L 1026.010465 367.356075 
L 1027.537053 366.669462 
L 1029.063642 363.769408 
L 1030.590231 357.091236 
L 1032.11682 353.267642 
L 1035.169997 347.63354 
L 1036.696586 347.590925 
L 1038.223175 347.194668 
L 1039.749763 348.299481 
L 1041.276352 346.876009 
L 1042.802941 347.340959 
L 1044.32953 348.177678 
L 1045.856119 353.568174 
L 1047.382707 357.015864 
L 1048.909296 359.782985 
L 1050.435885 363.460289 
L 1051.962474 366.242993 
L 1055.015651 373.776648 
L 1056.54224 375.726767 
L 1058.068829 381.653767 
L 1059.595417 385.72542 
L 1061.122006 389.326716 
L 1062.648595 392.269068 
L 1064.175184 398.191616 
L 1065.701773 398.430452 
L 1067.228361 399.362578 
L 1068.75495 401.367715 
L 1070.281539 401.765244 
L 1071.808128 403.815859 
L 1073.334716 404.107168 
L 1074.861305 404.070914 
L 1076.387894 397.851649 
L 1079.441072 384.429157 
L 1080.96766 383.24929 
L 1082.494249 377.092995 
L 1084.020838 374.096897 
L 1085.547427 374.819764 
L 1087.074015 380.219482 
L 1088.600604 383.804877 
L 1090.127193 383.2671 
L 1091.653782 389.621206 
L 1093.18037 394.333993 
L 1094.706959 403.045606 
L 1096.233548 405.792374 
L 1097.760137 400.733259 
L 1099.286726 401.429094 
L 1100.813314 408.832041 
L 1102.339903 409.612152 
L 1103.866492 408.915999 
L 1105.393081 410.660357 
L 1106.919669 409.238157 
L 1108.446258 405.079684 
L 1109.972847 392.552109 
L 1111.499436 378.996365 
L 1113.026025 355.748223 
L 1114.552613 339.428857 
L 1116.079202 313.373206 
L 1117.605791 292.281581 
L 1119.13238 267.975376 
L 1120.658968 223.391368 
L 1122.185557 185.654084 
L 1123.712146 181.546813 
L 1125.238735 207.431368 
L 1126.765323 242.894149 
L 1128.291912 282.37897 
L 1129.818501 310.857005 
L 1132.871679 328.022314 
L 1134.398267 326.246472 
L 1135.924856 323.614829 
L 1137.451445 327.934858 
L 1138.978034 324.544093 
L 1142.031211 294.666756 
L 1143.5578 303.729466 
L 1145.084389 304.616751 
L 1146.610977 314.627172 
L 1148.137566 328.313623 
L 1149.664155 336.453748 
L 1151.190744 346.798411 
L 1152.717333 350.072461 
L 1154.243921 347.687922 
L 1155.77051 342.814215 
L 1157.297099 347.483433 
L 1158.823688 343.326232 
L 1160.350276 335.939823 
L 1161.876865 337.618668 
L 1163.403454 338.420405 
L 1164.930043 338.73334 
L 1166.456632 341.448305 
L 1167.98322 342.188027 
L 1169.509809 341.238727 
L 1171.036398 341.625126 
L 1172.562987 339.560518 
L 1174.089575 336.115372 
L 1175.616164 336.248941 
L 1177.142753 318.907129 
L 1178.669342 309.93919 
L 1180.19593 305.008556 
L 1181.722519 303.051123 
L 1183.249108 303.317944 
L 1184.775697 304.551557 
L 1186.302286 316.272624 
L 1187.828874 313.751653 
L 1189.355463 310.963543 
L 1190.882052 307.89907 
L 1192.408641 307.35048 
L 1193.935229 310.500819 
L 1195.461818 311.188385 
L 1195.461818 311.188385 
" clip-path="url(#p8080ff6df2)" style="fill: none; stroke: #008000; stroke-width: 1.5; stroke-linecap: square"/>
   </g>
   <g id="patch_3">
    <path d="M 172.8 629.9064 
L 172.8 84.9312 
" style="fill: none; stroke: #000000; stroke-width: 0.8; stroke-linejoin: miter; stroke-linecap: square"/>
   </g>
   <g id="patch_4">
    <path d="M 1244.16 629.9064 
L 1244.16 84.9312 
" style="fill: none; stroke: #000000; stroke-width: 0.8; stroke-linejoin: miter; stroke-linecap: square"/>
   </g>
   <g id="patch_5">
    <path d="M 172.8 629.9064 
L 1244.16 629.9064 
" style="fill: none; stroke: #000000; stroke-width: 0.8; stroke-linejoin: miter; stroke-linecap: square"/>
   </g>
   <g id="patch_6">
    <path d="M 172.8 84.9312 
L 1244.16 84.9312 
" style="fill: none; stroke: #000000; stroke-width: 0.8; stroke-linejoin: miter; stroke-linecap: square"/>
   </g>
   <g id="text_19">
    <!-- EUR price prediction -->
    <g transform="translate(647.280937 78.9312)scale(0.12 -0.12)">
     <defs>
      <path id="DejaVuSans-45" d="M 628 4666 
L 3578 4666 
L 3578 4134 
L 1259 4134 
L 1259 2753 
L 3481 2753 
L 3481 2222 
L 1259 2222 
L 1259 531 
L 3634 531 
L 3634 0 
L 628 0 
L 628 4666 
z
" transform="scale(0.015625)"/>
      <path id="DejaVuSans-55" d="M 556 4666 
L 1191 4666 
L 1191 1831 
Q 1191 1081 1462 751 
Q 1734 422 2344 422 
Q 2950 422 3222 751 
Q 3494 1081 3494 1831 
L 3494 4666 
L 4128 4666 
L 4128 1753 
Q 4128 841 3676 375 
Q 3225 -91 2344 -91 
Q 1459 -91 1007 375 
Q 556 841 556 1753 
L 556 4666 
z
" transform="scale(0.015625)"/>
      <path id="DejaVuSans-52" d="M 2841 2188 
Q 3044 2119 3236 1894 
Q 3428 1669 3622 1275 
L 4263 0 
L 3584 0 
L 2988 1197 
Q 2756 1666 2539 1819 
Q 2322 1972 1947 1972 
L 1259 1972 
L 1259 0 
L 628 0 
L 628 4666 
L 2053 4666 
Q 2853 4666 3247 4331 
Q 3641 3997 3641 3322 
Q 3641 2881 3436 2590 
Q 3231 2300 2841 2188 
z
M 1259 4147 
L 1259 2491 
L 2053 2491 
Q 2509 2491 2742 2702 
Q 2975 2913 2975 3322 
Q 2975 3731 2742 3939 
Q 2509 4147 2053 4147 
L 1259 4147 
z
" transform="scale(0.015625)"/>
      <path id="DejaVuSans-20" transform="scale(0.015625)"/>
      <path id="DejaVuSans-70" d="M 1159 525 
L 1159 -1331 
L 581 -1331 
L 581 3500 
L 1159 3500 
L 1159 2969 
Q 1341 3281 1617 3432 
Q 1894 3584 2278 3584 
Q 2916 3584 3314 3078 
Q 3713 2572 3713 1747 
Q 3713 922 3314 415 
Q 2916 -91 2278 -91 
Q 1894 -91 1617 61 
Q 1341 213 1159 525 
z
M 3116 1747 
Q 3116 2381 2855 2742 
Q 2594 3103 2138 3103 
Q 1681 3103 1420 2742 
Q 1159 2381 1159 1747 
Q 1159 1113 1420 752 
Q 1681 391 2138 391 
Q 2594 391 2855 752 
Q 3116 1113 3116 1747 
z
" transform="scale(0.015625)"/>
      <path id="DejaVuSans-64" d="M 2906 2969 
L 2906 4863 
L 3481 4863 
L 3481 0 
L 2906 0 
L 2906 525 
Q 2725 213 2448 61 
Q 2172 -91 1784 -91 
Q 1150 -91 751 415 
Q 353 922 353 1747 
Q 353 2572 751 3078 
Q 1150 3584 1784 3584 
Q 2172 3584 2448 3432 
Q 2725 3281 2906 2969 
z
M 947 1747 
Q 947 1113 1208 752 
Q 1469 391 1925 391 
Q 2381 391 2643 752 
Q 2906 1113 2906 1747 
Q 2906 2381 2643 2742 
Q 2381 3103 1925 3103 
Q 1469 3103 1208 2742 
Q 947 2381 947 1747 
z
" transform="scale(0.015625)"/>
      <path id="DejaVuSans-74" d="M 1172 4494 
L 1172 3500 
L 2356 3500 
L 2356 3053 
L 1172 3053 
L 1172 1153 
Q 1172 725 1289 603 
Q 1406 481 1766 481 
L 2356 481 
L 2356 0 
L 1766 0 
Q 1100 0 847 248 
Q 594 497 594 1153 
L 594 3053 
L 172 3053 
L 172 3500 
L 594 3500 
L 594 4494 
L 1172 4494 
z
" transform="scale(0.015625)"/>
      <path id="DejaVuSans-6f" d="M 1959 3097 
Q 1497 3097 1228 2736 
Q 959 2375 959 1747 
Q 959 1119 1226 758 
Q 1494 397 1959 397 
Q 2419 397 2687 759 
Q 2956 1122 2956 1747 
Q 2956 2369 2687 2733 
Q 2419 3097 1959 3097 
z
M 1959 3584 
Q 2709 3584 3137 3096 
Q 3566 2609 3566 1747 
Q 3566 888 3137 398 
Q 2709 -91 1959 -91 
Q 1206 -91 779 398 
Q 353 888 353 1747 
Q 353 2609 779 3096 
Q 1206 3584 1959 3584 
z
" transform="scale(0.015625)"/>
      <path id="DejaVuSans-6e" d="M 3513 2113 
L 3513 0 
L 2938 0 
L 2938 2094 
Q 2938 2591 2744 2837 
Q 2550 3084 2163 3084 
Q 1697 3084 1428 2787 
Q 1159 2491 1159 1978 
L 1159 0 
L 581 0 
L 581 3500 
L 1159 3500 
L 1159 2956 
Q 1366 3272 1645 3428 
Q 1925 3584 2291 3584 
Q 2894 3584 3203 3211 
Q 3513 2838 3513 2113 
z
" transform="scale(0.015625)"/>
     </defs>
     <use xlink:href="#DejaVuSans-45"/>
     <use xlink:href="#DejaVuSans-55" x="63.183594"/>
     <use xlink:href="#DejaVuSans-52" x="136.376953"/>
     <use xlink:href="#DejaVuSans-20" x="205.859375"/>
     <use xlink:href="#DejaVuSans-70" x="237.646484"/>
     <use xlink:href="#DejaVuSans-72" x="301.123047"/>
     <use xlink:href="#DejaVuSans-69" x="342.236328"/>
     <use xlink:href="#DejaVuSans-63" x="370.019531"/>
     <use xlink:href="#DejaVuSans-65" x="425"/>
     <use xlink:href="#DejaVuSans-20" x="486.523438"/>
     <use xlink:href="#DejaVuSans-70" x="518.310547"/>
     <use xlink:href="#DejaVuSans-72" x="581.787109"/>
     <use xlink:href="#DejaVuSans-65" x="620.650391"/>
     <use xlink:href="#DejaVuSans-64" x="682.173828"/>
     <use xlink:href="#DejaVuSans-69" x="745.650391"/>
     <use xlink:href="#DejaVuSans-63" x="773.433594"/>
     <use xlink:href="#DejaVuSans-74" x="828.414062"/>
     <use xlink:href="#DejaVuSans-69" x="867.623047"/>
     <use xlink:href="#DejaVuSans-6f" x="895.40625"/>
     <use xlink:href="#DejaVuSans-6e" x="956.587891"/>
    </g>
   </g>
   <g id="legend_1">
    <g id="patch_7">
     <path d="M 179.8 122.28745 
L 291.523438 122.28745 
Q 293.523438 122.28745 293.523438 120.28745 
L 293.523438 91.9312 
Q 293.523438 89.9312 291.523438 89.9312 
L 179.8 89.9312 
Q 177.8 89.9312 177.8 91.9312 
L 177.8 120.28745 
Q 177.8 122.28745 179.8 122.28745 
z
" style="fill: #ffffff; opacity: 0.8; stroke: #cccccc; stroke-linejoin: miter"/>
    </g>
    <g id="line2d_19">
     <path d="M 181.8 98.029638 
L 191.8 98.029638 
L 201.8 98.029638 
" style="fill: none; stroke: #000000; stroke-width: 1.5; stroke-linecap: square"/>
    </g>
    <g id="text_20">
     <!-- Actual Prices -->
     <g transform="translate(209.8 101.529638)scale(0.1 -0.1)">
      <defs>
       <path id="DejaVuSans-41" d="M 2188 4044 
L 1331 1722 
L 3047 1722 
L 2188 4044 
z
M 1831 4666 
L 2547 4666 
L 4325 0 
L 3669 0 
L 3244 1197 
L 1141 1197 
L 716 0 
L 50 0 
L 1831 4666 
z
" transform="scale(0.015625)"/>
       <path id="DejaVuSans-75" d="M 544 1381 
L 544 3500 
L 1119 3500 
L 1119 1403 
Q 1119 906 1312 657 
Q 1506 409 1894 409 
Q 2359 409 2629 706 
Q 2900 1003 2900 1516 
L 2900 3500 
L 3475 3500 
L 3475 0 
L 2900 0 
L 2900 538 
Q 2691 219 2414 64 
Q 2138 -91 1772 -91 
Q 1169 -91 856 284 
Q 544 659 544 1381 
z
M 1991 3584 
L 1991 3584 
z
" transform="scale(0.015625)"/>
       <path id="DejaVuSans-61" d="M 2194 1759 
Q 1497 1759 1228 1600 
Q 959 1441 959 1056 
Q 959 750 1161 570 
Q 1363 391 1709 391 
Q 2188 391 2477 730 
Q 2766 1069 2766 1631 
L 2766 1759 
L 2194 1759 
z
M 3341 1997 
L 3341 0 
L 2766 0 
L 2766 531 
Q 2569 213 2275 61 
Q 1981 -91 1556 -91 
Q 1019 -91 701 211 
Q 384 513 384 1019 
Q 384 1609 779 1909 
Q 1175 2209 1959 2209 
L 2766 2209 
L 2766 2266 
Q 2766 2663 2505 2880 
Q 2244 3097 1772 3097 
Q 1472 3097 1187 3025 
Q 903 2953 641 2809 
L 641 3341 
Q 956 3463 1253 3523 
Q 1550 3584 1831 3584 
Q 2591 3584 2966 3190 
Q 3341 2797 3341 1997 
z
" transform="scale(0.015625)"/>
       <path id="DejaVuSans-6c" d="M 603 4863 
L 1178 4863 
L 1178 0 
L 603 0 
L 603 4863 
z
" transform="scale(0.015625)"/>
       <path id="DejaVuSans-73" d="M 2834 3397 
L 2834 2853 
Q 2591 2978 2328 3040 
Q 2066 3103 1784 3103 
Q 1356 3103 1142 2972 
Q 928 2841 928 2578 
Q 928 2378 1081 2264 
Q 1234 2150 1697 2047 
L 1894 2003 
Q 2506 1872 2764 1633 
Q 3022 1394 3022 966 
Q 3022 478 2636 193 
Q 2250 -91 1575 -91 
Q 1294 -91 989 -36 
Q 684 19 347 128 
L 347 722 
Q 666 556 975 473 
Q 1284 391 1588 391 
Q 1994 391 2212 530 
Q 2431 669 2431 922 
Q 2431 1156 2273 1281 
Q 2116 1406 1581 1522 
L 1381 1569 
Q 847 1681 609 1914 
Q 372 2147 372 2553 
Q 372 3047 722 3315 
Q 1072 3584 1716 3584 
Q 2034 3584 2315 3537 
Q 2597 3491 2834 3397 
z
" transform="scale(0.015625)"/>
      </defs>
      <use xlink:href="#DejaVuSans-41"/>
      <use xlink:href="#DejaVuSans-63" x="66.658203"/>
      <use xlink:href="#DejaVuSans-74" x="121.638672"/>
      <use xlink:href="#DejaVuSans-75" x="160.847656"/>
      <use xlink:href="#DejaVuSans-61" x="224.226562"/>
      <use xlink:href="#DejaVuSans-6c" x="285.505859"/>
      <use xlink:href="#DejaVuSans-20" x="313.289062"/>
      <use xlink:href="#DejaVuSans-50" x="345.076172"/>
      <use xlink:href="#DejaVuSans-72" x="403.628906"/>
      <use xlink:href="#DejaVuSans-69" x="444.742188"/>
      <use xlink:href="#DejaVuSans-63" x="472.525391"/>
      <use xlink:href="#DejaVuSans-65" x="527.505859"/>
      <use xlink:href="#DejaVuSans-73" x="589.029297"/>
     </g>
    </g>
    <g id="line2d_20">
     <path d="M 181.8 112.707763 
L 191.8 112.707763 
L 201.8 112.707763 
" style="fill: none; stroke: #008000; stroke-width: 1.5; stroke-linecap: square"/>
    </g>
    <g id="text_21">
     <!-- Predicted Prices -->
     <g transform="translate(209.8 116.207763)scale(0.1 -0.1)">
      <use xlink:href="#DejaVuSans-50"/>
      <use xlink:href="#DejaVuSans-72" x="58.552734"/>
      <use xlink:href="#DejaVuSans-65" x="97.416016"/>
      <use xlink:href="#DejaVuSans-64" x="158.939453"/>
      <use xlink:href="#DejaVuSans-69" x="222.416016"/>
      <use xlink:href="#DejaVuSans-63" x="250.199219"/>
      <use xlink:href="#DejaVuSans-74" x="305.179688"/>
      <use xlink:href="#DejaVuSans-65" x="344.388672"/>
      <use xlink:href="#DejaVuSans-64" x="405.912109"/>
      <use xlink:href="#DejaVuSans-20" x="469.388672"/>
      <use xlink:href="#DejaVuSans-50" x="501.175781"/>
      <use xlink:href="#DejaVuSans-72" x="559.728516"/>
      <use xlink:href="#DejaVuSans-69" x="600.841797"/>
      <use xlink:href="#DejaVuSans-63" x="628.625"/>
      <use xlink:href="#DejaVuSans-65" x="683.605469"/>
      <use xlink:href="#DejaVuSans-73" x="745.128906"/>
     </g>
    </g>
   </g>
  </g>
 </g>
 <defs>
  <clipPath id="p8080ff6df2">
   <rect x="172.8" y="84.9312" width="1071.36" height="544.9752"/>
  </clipPath>
 </defs>
</svg>
