<?xml version="1.0" encoding="utf-8" standalone="no"?>
<!DOCTYPE svg PUBLIC "-//W3C//DTD SVG 1.1//EN"
  "http://www.w3.org/Graphics/SVG/1.1/DTD/svg11.dtd">
<svg xmlns:xlink="http://www.w3.org/1999/xlink" width="460.8pt" height="345.6pt" viewBox="0 0 460.8 345.6" xmlns="http://www.w3.org/2000/svg" version="1.1">
 <metadata>
  <rdf:RDF xmlns:dc="http://purl.org/dc/elements/1.1/" xmlns:cc="http://creativecommons.org/ns#" xmlns:rdf="http://www.w3.org/1999/02/22-rdf-syntax-ns#">
   <cc:Work>
    <dc:type rdf:resource="http://purl.org/dc/dcmitype/StillImage"/>
    <dc:date>2022-06-06T22:42:01.686356</dc:date>
    <dc:format>image/svg+xml</dc:format>
    <dc:creator>
     <cc:Agent>
      <dc:title>Matplotlib v3.5.1, https://matplotlib.org/</dc:title>
     </cc:Agent>
    </dc:creator>
   </cc:Work>
  </rdf:RDF>
 </metadata>
 <defs>
  <style type="text/css">*{stroke-linejoin: round; stroke-linecap: butt}</style>
 </defs>
 <g id="figure_1">
  <g id="patch_1">
   <path d="M 0 345.6 
L 460.8 345.6 
L 460.8 0 
L 0 0 
z
" style="fill: #ffffff"/>
  </g>
  <g id="axes_1">
   <g id="patch_2">
    <path d="M 57.6 307.584 
L 414.72 307.584 
L 414.72 41.472 
L 57.6 41.472 
z
" style="fill: #ffffff"/>
   </g>
   <g id="matplotlib.axis_1">
    <g id="xtick_1">
     <g id="line2d_1">
      <defs>
       <path id="m5a467aa645" d="M 0 0 
L 0 3.5 
" style="stroke: #000000; stroke-width: 0.8"/>
      </defs>
      <g>
       <use xlink:href="#m5a467aa645" x="73.832727" y="307.584" style="stroke: #000000; stroke-width: 0.8"/>
      </g>
     </g>
     <g id="text_1">
      <!-- 0 -->
      <g transform="translate(70.651477 322.182437)scale(0.1 -0.1)">
       <defs>
        <path id="DejaVuSans-30" d="M 2034 4250 
Q 1547 4250 1301 3770 
Q 1056 3291 1056 2328 
Q 1056 1369 1301 889 
Q 1547 409 2034 409 
Q 2525 409 2770 889 
Q 3016 1369 3016 2328 
Q 3016 3291 2770 3770 
Q 2525 4250 2034 4250 
z
M 2034 4750 
Q 2819 4750 3233 4129 
Q 3647 3509 3647 2328 
Q 3647 1150 3233 529 
Q 2819 -91 2034 -91 
Q 1250 -91 836 529 
Q 422 1150 422 2328 
Q 422 3509 836 4129 
Q 1250 4750 2034 4750 
z
" transform="scale(0.015625)"/>
       </defs>
       <use xlink:href="#DejaVuSans-30"/>
      </g>
     </g>
    </g>
    <g id="xtick_2">
     <g id="line2d_2">
      <g>
       <use xlink:href="#m5a467aa645" x="123.626369" y="307.584" style="stroke: #000000; stroke-width: 0.8"/>
      </g>
     </g>
     <g id="text_2">
      <!-- 100 -->
      <g transform="translate(114.082619 322.182437)scale(0.1 -0.1)">
       <defs>
        <path id="DejaVuSans-31" d="M 794 531 
L 1825 531 
L 1825 4091 
L 703 3866 
L 703 4441 
L 1819 4666 
L 2450 4666 
L 2450 531 
L 3481 531 
L 3481 0 
L 794 0 
L 794 531 
z
" transform="scale(0.015625)"/>
       </defs>
       <use xlink:href="#DejaVuSans-31"/>
       <use xlink:href="#DejaVuSans-30" x="63.623047"/>
       <use xlink:href="#DejaVuSans-30" x="127.246094"/>
      </g>
     </g>
    </g>
    <g id="xtick_3">
     <g id="line2d_3">
      <g>
       <use xlink:href="#m5a467aa645" x="173.420011" y="307.584" style="stroke: #000000; stroke-width: 0.8"/>
      </g>
     </g>
     <g id="text_3">
      <!-- 200 -->
      <g transform="translate(163.876261 322.182437)scale(0.1 -0.1)">
       <defs>
        <path id="DejaVuSans-32" d="M 1228 531 
L 3431 531 
L 3431 0 
L 469 0 
L 469 531 
Q 828 903 1448 1529 
Q 2069 2156 2228 2338 
Q 2531 2678 2651 2914 
Q 2772 3150 2772 3378 
Q 2772 3750 2511 3984 
Q 2250 4219 1831 4219 
Q 1534 4219 1204 4116 
Q 875 4013 500 3803 
L 500 4441 
Q 881 4594 1212 4672 
Q 1544 4750 1819 4750 
Q 2544 4750 2975 4387 
Q 3406 4025 3406 3419 
Q 3406 3131 3298 2873 
Q 3191 2616 2906 2266 
Q 2828 2175 2409 1742 
Q 1991 1309 1228 531 
z
" transform="scale(0.015625)"/>
       </defs>
       <use xlink:href="#DejaVuSans-32"/>
       <use xlink:href="#DejaVuSans-30" x="63.623047"/>
       <use xlink:href="#DejaVuSans-30" x="127.246094"/>
      </g>
     </g>
    </g>
    <g id="xtick_4">
     <g id="line2d_4">
      <g>
       <use xlink:href="#m5a467aa645" x="223.213653" y="307.584" style="stroke: #000000; stroke-width: 0.8"/>
      </g>
     </g>
     <g id="text_4">
      <!-- 300 -->
      <g transform="translate(213.669903 322.182437)scale(0.1 -0.1)">
       <defs>
        <path id="DejaVuSans-33" d="M 2597 2516 
Q 3050 2419 3304 2112 
Q 3559 1806 3559 1356 
Q 3559 666 3084 287 
Q 2609 -91 1734 -91 
Q 1441 -91 1130 -33 
Q 819 25 488 141 
L 488 750 
Q 750 597 1062 519 
Q 1375 441 1716 441 
Q 2309 441 2620 675 
Q 2931 909 2931 1356 
Q 2931 1769 2642 2001 
Q 2353 2234 1838 2234 
L 1294 2234 
L 1294 2753 
L 1863 2753 
Q 2328 2753 2575 2939 
Q 2822 3125 2822 3475 
Q 2822 3834 2567 4026 
Q 2313 4219 1838 4219 
Q 1578 4219 1281 4162 
Q 984 4106 628 3988 
L 628 4550 
Q 988 4650 1302 4700 
Q 1616 4750 1894 4750 
Q 2613 4750 3031 4423 
Q 3450 4097 3450 3541 
Q 3450 3153 3228 2886 
Q 3006 2619 2597 2516 
z
" transform="scale(0.015625)"/>
       </defs>
       <use xlink:href="#DejaVuSans-33"/>
       <use xlink:href="#DejaVuSans-30" x="63.623047"/>
       <use xlink:href="#DejaVuSans-30" x="127.246094"/>
      </g>
     </g>
    </g>
    <g id="xtick_5">
     <g id="line2d_5">
      <g>
       <use xlink:href="#m5a467aa645" x="273.007295" y="307.584" style="stroke: #000000; stroke-width: 0.8"/>
      </g>
     </g>
     <g id="text_5">
      <!-- 400 -->
      <g transform="translate(263.463545 322.182437)scale(0.1 -0.1)">
       <defs>
        <path id="DejaVuSans-34" d="M 2419 4116 
L 825 1625 
L 2419 1625 
L 2419 4116 
z
M 2253 4666 
L 3047 4666 
L 3047 1625 
L 3713 1625 
L 3713 1100 
L 3047 1100 
L 3047 0 
L 2419 0 
L 2419 1100 
L 313 1100 
L 313 1709 
L 2253 4666 
z
" transform="scale(0.015625)"/>
       </defs>
       <use xlink:href="#DejaVuSans-34"/>
       <use xlink:href="#DejaVuSans-30" x="63.623047"/>
       <use xlink:href="#DejaVuSans-30" x="127.246094"/>
      </g>
     </g>
    </g>
    <g id="xtick_6">
     <g id="line2d_6">
      <g>
       <use xlink:href="#m5a467aa645" x="322.800937" y="307.584" style="stroke: #000000; stroke-width: 0.8"/>
      </g>
     </g>
     <g id="text_6">
      <!-- 500 -->
      <g transform="translate(313.257187 322.182437)scale(0.1 -0.1)">
       <defs>
        <path id="DejaVuSans-35" d="M 691 4666 
L 3169 4666 
L 3169 4134 
L 1269 4134 
L 1269 2991 
Q 1406 3038 1543 3061 
Q 1681 3084 1819 3084 
Q 2600 3084 3056 2656 
Q 3513 2228 3513 1497 
Q 3513 744 3044 326 
Q 2575 -91 1722 -91 
Q 1428 -91 1123 -41 
Q 819 9 494 109 
L 494 744 
Q 775 591 1075 516 
Q 1375 441 1709 441 
Q 2250 441 2565 725 
Q 2881 1009 2881 1497 
Q 2881 1984 2565 2268 
Q 2250 2553 1709 2553 
Q 1456 2553 1204 2497 
Q 953 2441 691 2322 
L 691 4666 
z
" transform="scale(0.015625)"/>
       </defs>
       <use xlink:href="#DejaVuSans-35"/>
       <use xlink:href="#DejaVuSans-30" x="63.623047"/>
       <use xlink:href="#DejaVuSans-30" x="127.246094"/>
      </g>
     </g>
    </g>
    <g id="xtick_7">
     <g id="line2d_7">
      <g>
       <use xlink:href="#m5a467aa645" x="372.594579" y="307.584" style="stroke: #000000; stroke-width: 0.8"/>
      </g>
     </g>
     <g id="text_7">
      <!-- 600 -->
      <g transform="translate(363.050829 322.182437)scale(0.1 -0.1)">
       <defs>
        <path id="DejaVuSans-36" d="M 2113 2584 
Q 1688 2584 1439 2293 
Q 1191 2003 1191 1497 
Q 1191 994 1439 701 
Q 1688 409 2113 409 
Q 2538 409 2786 701 
Q 3034 994 3034 1497 
Q 3034 2003 2786 2293 
Q 2538 2584 2113 2584 
z
M 3366 4563 
L 3366 3988 
Q 3128 4100 2886 4159 
Q 2644 4219 2406 4219 
Q 1781 4219 1451 3797 
Q 1122 3375 1075 2522 
Q 1259 2794 1537 2939 
Q 1816 3084 2150 3084 
Q 2853 3084 3261 2657 
Q 3669 2231 3669 1497 
Q 3669 778 3244 343 
Q 2819 -91 2113 -91 
Q 1303 -91 875 529 
Q 447 1150 447 2328 
Q 447 3434 972 4092 
Q 1497 4750 2381 4750 
Q 2619 4750 2861 4703 
Q 3103 4656 3366 4563 
z
" transform="scale(0.015625)"/>
       </defs>
       <use xlink:href="#DejaVuSans-36"/>
       <use xlink:href="#DejaVuSans-30" x="63.623047"/>
       <use xlink:href="#DejaVuSans-30" x="127.246094"/>
      </g>
     </g>
    </g>
    <g id="text_8">
     <!-- Time -->
     <g transform="translate(223.926406 335.860562)scale(0.1 -0.1)">
      <defs>
       <path id="DejaVuSans-54" d="M -19 4666 
L 3928 4666 
L 3928 4134 
L 2272 4134 
L 2272 0 
L 1638 0 
L 1638 4134 
L -19 4134 
L -19 4666 
z
" transform="scale(0.015625)"/>
       <path id="DejaVuSans-69" d="M 603 3500 
L 1178 3500 
L 1178 0 
L 603 0 
L 603 3500 
z
M 603 4863 
L 1178 4863 
L 1178 4134 
L 603 4134 
L 603 4863 
z
" transform="scale(0.015625)"/>
       <path id="DejaVuSans-6d" d="M 3328 2828 
Q 3544 3216 3844 3400 
Q 4144 3584 4550 3584 
Q 5097 3584 5394 3201 
Q 5691 2819 5691 2113 
L 5691 0 
L 5113 0 
L 5113 2094 
Q 5113 2597 4934 2840 
Q 4756 3084 4391 3084 
Q 3944 3084 3684 2787 
Q 3425 2491 3425 1978 
L 3425 0 
L 2847 0 
L 2847 2094 
Q 2847 2600 2669 2842 
Q 2491 3084 2119 3084 
Q 1678 3084 1418 2786 
Q 1159 2488 1159 1978 
L 1159 0 
L 581 0 
L 581 3500 
L 1159 3500 
L 1159 2956 
Q 1356 3278 1631 3431 
Q 1906 3584 2284 3584 
Q 2666 3584 2933 3390 
Q 3200 3197 3328 2828 
z
" transform="scale(0.015625)"/>
       <path id="DejaVuSans-65" d="M 3597 1894 
L 3597 1613 
L 953 1613 
Q 991 1019 1311 708 
Q 1631 397 2203 397 
Q 2534 397 2845 478 
Q 3156 559 3463 722 
L 3463 178 
Q 3153 47 2828 -22 
Q 2503 -91 2169 -91 
Q 1331 -91 842 396 
Q 353 884 353 1716 
Q 353 2575 817 3079 
Q 1281 3584 2069 3584 
Q 2775 3584 3186 3129 
Q 3597 2675 3597 1894 
z
M 3022 2063 
Q 3016 2534 2758 2815 
Q 2500 3097 2075 3097 
Q 1594 3097 1305 2825 
Q 1016 2553 972 2059 
L 3022 2063 
z
" transform="scale(0.015625)"/>
      </defs>
      <use xlink:href="#DejaVuSans-54"/>
      <use xlink:href="#DejaVuSans-69" x="57.958984"/>
      <use xlink:href="#DejaVuSans-6d" x="85.742188"/>
      <use xlink:href="#DejaVuSans-65" x="183.154297"/>
     </g>
    </g>
   </g>
   <g id="matplotlib.axis_2">
    <g id="ytick_1">
     <g id="line2d_8">
      <defs>
       <path id="mfbe8879195" d="M 0 0 
L -3.5 0 
" style="stroke: #000000; stroke-width: 0.8"/>
      </defs>
      <g>
       <use xlink:href="#mfbe8879195" x="57.6" y="302.558344" style="stroke: #000000; stroke-width: 0.8"/>
      </g>
     </g>
     <g id="text_9">
      <!-- 4.2 -->
      <g transform="translate(34.696875 306.357562)scale(0.1 -0.1)">
       <defs>
        <path id="DejaVuSans-2e" d="M 684 794 
L 1344 794 
L 1344 0 
L 684 0 
L 684 794 
z
" transform="scale(0.015625)"/>
       </defs>
       <use xlink:href="#DejaVuSans-34"/>
       <use xlink:href="#DejaVuSans-2e" x="63.623047"/>
       <use xlink:href="#DejaVuSans-32" x="95.410156"/>
      </g>
     </g>
    </g>
    <g id="ytick_2">
     <g id="line2d_9">
      <g>
       <use xlink:href="#mfbe8879195" x="57.6" y="269.99143" style="stroke: #000000; stroke-width: 0.8"/>
      </g>
     </g>
     <g id="text_10">
      <!-- 4.3 -->
      <g transform="translate(34.696875 273.790649)scale(0.1 -0.1)">
       <use xlink:href="#DejaVuSans-34"/>
       <use xlink:href="#DejaVuSans-2e" x="63.623047"/>
       <use xlink:href="#DejaVuSans-33" x="95.410156"/>
      </g>
     </g>
    </g>
    <g id="ytick_3">
     <g id="line2d_10">
      <g>
       <use xlink:href="#mfbe8879195" x="57.6" y="237.424517" style="stroke: #000000; stroke-width: 0.8"/>
      </g>
     </g>
     <g id="text_11">
      <!-- 4.4 -->
      <g transform="translate(34.696875 241.223735)scale(0.1 -0.1)">
       <use xlink:href="#DejaVuSans-34"/>
       <use xlink:href="#DejaVuSans-2e" x="63.623047"/>
       <use xlink:href="#DejaVuSans-34" x="95.410156"/>
      </g>
     </g>
    </g>
    <g id="ytick_4">
     <g id="line2d_11">
      <g>
       <use xlink:href="#mfbe8879195" x="57.6" y="204.857603" style="stroke: #000000; stroke-width: 0.8"/>
      </g>
     </g>
     <g id="text_12">
      <!-- 4.5 -->
      <g transform="translate(34.696875 208.656822)scale(0.1 -0.1)">
       <use xlink:href="#DejaVuSans-34"/>
       <use xlink:href="#DejaVuSans-2e" x="63.623047"/>
       <use xlink:href="#DejaVuSans-35" x="95.410156"/>
      </g>
     </g>
    </g>
    <g id="ytick_5">
     <g id="line2d_12">
      <g>
       <use xlink:href="#mfbe8879195" x="57.6" y="172.290689" style="stroke: #000000; stroke-width: 0.8"/>
      </g>
     </g>
     <g id="text_13">
      <!-- 4.6 -->
      <g transform="translate(34.696875 176.089908)scale(0.1 -0.1)">
       <use xlink:href="#DejaVuSans-34"/>
       <use xlink:href="#DejaVuSans-2e" x="63.623047"/>
       <use xlink:href="#DejaVuSans-36" x="95.410156"/>
      </g>
     </g>
    </g>
    <g id="ytick_6">
     <g id="line2d_13">
      <g>
       <use xlink:href="#mfbe8879195" x="57.6" y="139.723776" style="stroke: #000000; stroke-width: 0.8"/>
      </g>
     </g>
     <g id="text_14">
      <!-- 4.7 -->
      <g transform="translate(34.696875 143.522995)scale(0.1 -0.1)">
       <defs>
        <path id="DejaVuSans-37" d="M 525 4666 
L 3525 4666 
L 3525 4397 
L 1831 0 
L 1172 0 
L 2766 4134 
L 525 4134 
L 525 4666 
z
" transform="scale(0.015625)"/>
       </defs>
       <use xlink:href="#DejaVuSans-34"/>
       <use xlink:href="#DejaVuSans-2e" x="63.623047"/>
       <use xlink:href="#DejaVuSans-37" x="95.410156"/>
      </g>
     </g>
    </g>
    <g id="ytick_7">
     <g id="line2d_14">
      <g>
       <use xlink:href="#mfbe8879195" x="57.6" y="107.156862" style="stroke: #000000; stroke-width: 0.8"/>
      </g>
     </g>
     <g id="text_15">
      <!-- 4.8 -->
      <g transform="translate(34.696875 110.956081)scale(0.1 -0.1)">
       <defs>
        <path id="DejaVuSans-38" d="M 2034 2216 
Q 1584 2216 1326 1975 
Q 1069 1734 1069 1313 
Q 1069 891 1326 650 
Q 1584 409 2034 409 
Q 2484 409 2743 651 
Q 3003 894 3003 1313 
Q 3003 1734 2745 1975 
Q 2488 2216 2034 2216 
z
M 1403 2484 
Q 997 2584 770 2862 
Q 544 3141 544 3541 
Q 544 4100 942 4425 
Q 1341 4750 2034 4750 
Q 2731 4750 3128 4425 
Q 3525 4100 3525 3541 
Q 3525 3141 3298 2862 
Q 3072 2584 2669 2484 
Q 3125 2378 3379 2068 
Q 3634 1759 3634 1313 
Q 3634 634 3220 271 
Q 2806 -91 2034 -91 
Q 1263 -91 848 271 
Q 434 634 434 1313 
Q 434 1759 690 2068 
Q 947 2378 1403 2484 
z
M 1172 3481 
Q 1172 3119 1398 2916 
Q 1625 2713 2034 2713 
Q 2441 2713 2670 2916 
Q 2900 3119 2900 3481 
Q 2900 3844 2670 4047 
Q 2441 4250 2034 4250 
Q 1625 4250 1398 4047 
Q 1172 3844 1172 3481 
z
" transform="scale(0.015625)"/>
       </defs>
       <use xlink:href="#DejaVuSans-34"/>
       <use xlink:href="#DejaVuSans-2e" x="63.623047"/>
       <use xlink:href="#DejaVuSans-38" x="95.410156"/>
      </g>
     </g>
    </g>
    <g id="ytick_8">
     <g id="line2d_15">
      <g>
       <use xlink:href="#mfbe8879195" x="57.6" y="74.589949" style="stroke: #000000; stroke-width: 0.8"/>
      </g>
     </g>
     <g id="text_16">
      <!-- 4.9 -->
      <g transform="translate(34.696875 78.389167)scale(0.1 -0.1)">
       <defs>
        <path id="DejaVuSans-39" d="M 703 97 
L 703 672 
Q 941 559 1184 500 
Q 1428 441 1663 441 
Q 2288 441 2617 861 
Q 2947 1281 2994 2138 
Q 2813 1869 2534 1725 
Q 2256 1581 1919 1581 
Q 1219 1581 811 2004 
Q 403 2428 403 3163 
Q 403 3881 828 4315 
Q 1253 4750 1959 4750 
Q 2769 4750 3195 4129 
Q 3622 3509 3622 2328 
Q 3622 1225 3098 567 
Q 2575 -91 1691 -91 
Q 1453 -91 1209 -44 
Q 966 3 703 97 
z
M 1959 2075 
Q 2384 2075 2632 2365 
Q 2881 2656 2881 3163 
Q 2881 3666 2632 3958 
Q 2384 4250 1959 4250 
Q 1534 4250 1286 3958 
Q 1038 3666 1038 3163 
Q 1038 2656 1286 2365 
Q 1534 2075 1959 2075 
z
" transform="scale(0.015625)"/>
       </defs>
       <use xlink:href="#DejaVuSans-34"/>
       <use xlink:href="#DejaVuSans-2e" x="63.623047"/>
       <use xlink:href="#DejaVuSans-39" x="95.410156"/>
      </g>
     </g>
    </g>
    <g id="ytick_9">
     <g id="line2d_16">
      <g>
       <use xlink:href="#mfbe8879195" x="57.6" y="42.023035" style="stroke: #000000; stroke-width: 0.8"/>
      </g>
     </g>
     <g id="text_17">
      <!-- 5.0 -->
      <g transform="translate(34.696875 45.822254)scale(0.1 -0.1)">
       <use xlink:href="#DejaVuSans-35"/>
       <use xlink:href="#DejaVuSans-2e" x="63.623047"/>
       <use xlink:href="#DejaVuSans-30" x="95.410156"/>
      </g>
     </g>
    </g>
    <g id="text_18">
     <!-- Price -->
     <g transform="translate(28.617188 186.725656)rotate(-90)scale(0.1 -0.1)">
      <defs>
       <path id="DejaVuSans-50" d="M 1259 4147 
L 1259 2394 
L 2053 2394 
Q 2494 2394 2734 2622 
Q 2975 2850 2975 3272 
Q 2975 3691 2734 3919 
Q 2494 4147 2053 4147 
L 1259 4147 
z
M 628 4666 
L 2053 4666 
Q 2838 4666 3239 4311 
Q 3641 3956 3641 3272 
Q 3641 2581 3239 2228 
Q 2838 1875 2053 1875 
L 1259 1875 
L 1259 0 
L 628 0 
L 628 4666 
z
" transform="scale(0.015625)"/>
       <path id="DejaVuSans-72" d="M 2631 2963 
Q 2534 3019 2420 3045 
Q 2306 3072 2169 3072 
Q 1681 3072 1420 2755 
Q 1159 2438 1159 1844 
L 1159 0 
L 581 0 
L 581 3500 
L 1159 3500 
L 1159 2956 
Q 1341 3275 1631 3429 
Q 1922 3584 2338 3584 
Q 2397 3584 2469 3576 
Q 2541 3569 2628 3553 
L 2631 2963 
z
" transform="scale(0.015625)"/>
       <path id="DejaVuSans-63" d="M 3122 3366 
L 3122 2828 
Q 2878 2963 2633 3030 
Q 2388 3097 2138 3097 
Q 1578 3097 1268 2742 
Q 959 2388 959 1747 
Q 959 1106 1268 751 
Q 1578 397 2138 397 
Q 2388 397 2633 464 
Q 2878 531 3122 666 
L 3122 134 
Q 2881 22 2623 -34 
Q 2366 -91 2075 -91 
Q 1284 -91 818 406 
Q 353 903 353 1747 
Q 353 2603 823 3093 
Q 1294 3584 2113 3584 
Q 2378 3584 2631 3529 
Q 2884 3475 3122 3366 
z
" transform="scale(0.015625)"/>
      </defs>
      <use xlink:href="#DejaVuSans-50"/>
      <use xlink:href="#DejaVuSans-72" x="58.552734"/>
      <use xlink:href="#DejaVuSans-69" x="99.666016"/>
      <use xlink:href="#DejaVuSans-63" x="127.449219"/>
      <use xlink:href="#DejaVuSans-65" x="182.429688"/>
     </g>
    </g>
   </g>
   <g id="line2d_17">
    <path d="M 73.832727 276.341999 
L 74.330664 277.599081 
L 74.8286 277.937771 
L 75.326537 277.618648 
L 75.824473 273.704069 
L 76.322409 273.508712 
L 76.820346 275.820842 
L 77.318282 274.681005 
L 78.314155 284.548826 
L 79.310028 281.878284 
L 79.807964 282.073796 
L 80.305901 284.434842 
L 80.803837 278.751963 
L 81.301774 277.416614 
L 81.79971 283.506667 
L 82.297646 283.708545 
L 82.795583 283.106171 
L 83.293519 285.252295 
L 83.791456 279.500932 
L 84.787328 290.052655 
L 85.285265 288.756439 
L 85.783201 292.527685 
L 86.281138 287.574363 
L 86.779074 291.9969 
L 87.277011 287.805592 
L 87.774947 290.801624 
L 88.272883 291.974072 
L 88.77082 295.488 
L 89.268756 293.179131 
L 89.766693 292.234651 
L 90.264629 289.857298 
L 90.762566 288.320071 
L 91.260502 292.625363 
L 92.256375 288.030298 
L 92.754311 284.880994 
L 93.252248 277.59582 
L 93.750184 279.435865 
L 94.24812 274.908973 
L 94.746057 272.336264 
L 95.243993 271.391784 
L 95.74193 270.90976 
L 96.239866 278.458773 
L 96.737803 287.740369 
L 97.733675 279.36412 
L 98.729548 284.386081 
L 99.725421 288.085582 
L 100.223358 287.740369 
L 100.721294 283.14841 
L 101.21923 280.953525 
L 101.717167 279.956867 
L 102.215103 277.514448 
L 103.210976 268.004884 
L 103.708912 268.232851 
L 105.202722 259.582979 
L 105.700658 265.249708 
L 106.198595 267.630321 
L 106.696531 271.359172 
L 107.692404 265.855499 
L 108.19034 260.976872 
L 108.688277 268.84827 
L 109.186213 261.615274 
L 109.684149 245.37415 
L 110.182086 247.556146 
L 110.680022 225.785104 
L 111.675895 207.713718 
L 112.173832 186.652667 
L 112.671768 204.649202 
L 113.169704 172.33296 
L 113.667641 170.665599 
L 114.165577 184.372993 
L 114.663514 201.200341 
L 115.16145 194.234291 
L 115.659387 191.472593 
L 116.157323 187.610192 
L 116.655259 173.71707 
L 117.153196 183.851991 
L 117.651132 177.195281 
L 118.149069 185.154573 
L 118.647005 197.510468 
L 119.144941 195.478328 
L 119.642878 190.098267 
L 120.140814 188.919296 
L 120.638751 191.700561 
L 121.136687 198.76755 
L 121.634624 192.74272 
L 122.13256 195.315428 
L 122.630496 200.382889 
L 123.128433 197.855681 
L 123.626369 194.559937 
L 124.124306 188.932341 
L 124.622242 191.53766 
L 125.120178 192.873009 
L 125.618115 193.361555 
L 126.116051 189.22553 
L 126.613988 189.811755 
L 127.111924 192.078384 
L 127.609861 183.200545 
L 128.107797 189.518565 
L 128.605733 192.938076 
L 129.10367 189.111547 
L 129.601606 188.789162 
L 130.099543 189.788927 
L 130.597479 186.717889 
L 131.095416 184.633571 
L 131.593352 183.461123 
L 132.091288 185.415152 
L 132.589225 183.721702 
L 133.087161 185.786453 
L 133.585098 190.795213 
L 134.083034 193.426622 
L 134.58097 200.688967 
L 135.078907 200.037676 
L 135.576843 204.792536 
L 136.07478 224.6257 
L 136.572716 228.465429 
L 137.070653 219.38245 
L 137.568589 226.758779 
L 138.066525 236.896961 
L 138.564462 243.136715 
L 139.560335 226.540595 
L 140.058271 227.068274 
L 140.556207 230.175184 
L 142.050017 214.100066 
L 143.04589 233.018255 
L 143.543826 223.192829 
L 144.041762 217.151537 
L 144.539699 221.85748 
L 145.037635 215.744755 
L 145.535572 225.472503 
L 146.033508 223.101517 
L 146.531445 219.25216 
L 147.029381 221.082422 
L 147.527317 216.451485 
L 148.025254 220.072874 
L 148.52319 222.837833 
L 149.021127 213.129652 
L 149.519063 217.151537 
L 150.016999 217.438205 
L 150.514936 216.812847 
L 151.012872 213.53667 
L 151.510809 213.481386 
L 152.008745 216.77713 
L 152.506682 215.897716 
L 153.004618 208.306464 
L 153.502554 214.002388 
L 154.000491 212.804006 
L 154.498427 212.15256 
L 154.996364 212.956968 
L 155.992236 227.156169 
L 156.490173 230.806909 
L 156.988109 236.089292 
L 157.486046 236.300954 
L 157.983982 240.629074 
L 158.481919 233.94643 
L 158.979855 236.590727 
L 159.477791 235.926392 
L 159.975728 230.364018 
L 160.971601 238.723962 
L 161.469537 237.85107 
L 161.967474 233.158327 
L 162.46541 234.33062 
L 162.963346 238.150782 
L 163.461283 235.887414 
L 163.959219 238.075932 
L 164.457156 238.385272 
L 164.955092 238.987801 
L 165.453028 238.834684 
L 165.950965 245.266688 
L 166.448901 237.77622 
L 166.946838 244.654375 
L 167.444774 234.721488 
L 167.942711 240.222055 
L 168.440647 238.714178 
L 168.938583 234.35997 
L 169.43652 235.438001 
L 169.934456 243.123671 
L 170.432393 238.841207 
L 170.930329 241.889417 
L 172.424138 219.284772 
L 172.922075 227.752177 
L 173.420011 222.378637 
L 173.917948 225.928437 
L 174.415884 220.978221 
L 174.91382 223.127606 
L 175.411757 223.876731 
L 175.909693 220.978221 
L 176.40763 222.736894 
L 176.905566 220.890327 
L 177.403503 221.108511 
L 177.901439 208.032841 
L 178.399375 210.586138 
L 178.897312 201.164469 
L 179.395248 189.622765 
L 179.893185 188.28105 
L 180.391121 177.042164 
L 180.889057 195.963613 
L 181.386994 195.087461 
L 181.88493 212.543428 
L 182.382867 207.879879 
L 182.880803 207.375028 
L 183.37874 209.0295 
L 183.876676 211.826914 
L 184.374612 210.687077 
L 184.872549 217.005098 
L 185.370485 219.613678 
L 185.868422 207.684368 
L 186.366358 200.988679 
L 186.864294 191.895917 
L 187.362231 191.146948 
L 187.860167 182.353897 
L 188.358104 185.372757 
L 188.85604 182.74461 
L 189.353977 181.594989 
L 189.851913 183.702135 
L 190.349849 179.93089 
L 190.847786 177.237675 
L 191.345722 162.696523 
L 191.843659 165.158509 
L 192.341595 170.085897 
L 192.839532 172.36231 
L 193.337468 191.9644 
L 193.835404 193.801184 
L 194.333341 197.569168 
L 195.329214 211.924592 
L 195.82715 206.192796 
L 196.325086 212.380527 
L 196.823023 209.54724 
L 197.320959 210.963961 
L 197.818896 215.930328 
L 198.316832 209.218334 
L 198.814769 216.194167 
L 199.312705 216.646841 
L 199.810641 216.529596 
L 200.308578 214.937085 
L 200.806514 218.014645 
L 201.304451 217.949578 
L 202.300323 209.47239 
L 202.79826 212.035315 
L 203.296196 223.371879 
L 203.794133 214.178178 
L 204.292069 215.56881 
L 204.790006 215.800038 
L 205.287942 213.61152 
L 206.283815 229.032086 
L 206.781751 228.892014 
L 207.279688 223.925492 
L 207.777624 226.784868 
L 208.275561 226.341978 
L 209.271433 226.644795 
L 209.76937 212.246977 
L 210.765243 202.936186 
L 211.263179 205.258099 
L 211.761115 206.030051 
L 212.259052 205.01072 
L 212.756988 208.309725 
L 213.752861 179.159093 
L 214.250798 194.403558 
L 214.748734 186.411655 
L 215.24667 187.597147 
L 215.744607 195.354561 
L 217.238416 201.539031 
L 217.736352 197.530035 
L 218.234289 198.595022 
L 218.732225 193.068365 
L 219.230162 192.938076 
L 219.728098 193.781617 
L 220.226035 195.240578 
L 220.723971 194.221247 
L 221.221907 194.696748 
L 221.719844 195.543395 
L 222.21778 192.521274 
L 222.715717 192.377941 
L 223.213653 191.993595 
L 223.71159 189.853994 
L 224.209526 193.035754 
L 224.707462 199.907387 
L 225.205399 202.297784 
L 225.703335 211.416635 
L 226.201272 211.012723 
L 226.699208 206.258019 
L 227.197144 210.491721 
L 227.695081 213.715876 
L 228.193017 214.595134 
L 228.690954 207.85379 
L 229.18889 205.802084 
L 229.686827 206.844243 
L 230.184763 211.110401 
L 230.682699 207.332633 
L 231.180636 208.573565 
L 231.678572 208.733049 
L 232.176509 210.367954 
L 233.172381 202.55184 
L 233.670318 203.600521 
L 234.168254 199.334208 
L 234.666191 198.982473 
L 235.164127 195.934263 
L 235.662064 194.208202 
L 236.16 190.65188 
L 236.657936 185.366235 
L 237.155873 177.589254 
L 237.653809 173.896276 
L 238.151746 183.347139 
L 238.649682 180.754864 
L 239.147619 178.921342 
L 239.645555 179.429299 
L 240.143491 176.332173 
L 240.641428 175.351975 
L 241.139364 173.531497 
L 241.637301 166.243062 
L 242.135237 165.682927 
L 242.633173 175.254297 
L 243.13111 166.402546 
L 244.126983 162.045077 
L 244.624919 162.650867 
L 245.122856 152.327112 
L 245.620792 155.030265 
L 246.118728 163.432448 
L 246.616665 176.758913 
L 247.114601 172.486077 
L 247.612538 176.127033 
L 248.110474 176.784846 
L 248.60841 182.008685 
L 249.106347 190.743036 
L 249.604283 194.882321 
L 250.10222 195.221011 
L 250.600156 184.796316 
L 251.098093 188.704373 
L 251.596029 188.675179 
L 252.093965 191.788456 
L 252.591902 188.750029 
L 253.089838 188.574084 
L 253.587775 187.124907 
L 254.085711 184.451104 
L 254.583648 188.359161 
L 255.081584 186.978312 
L 255.57952 182.806571 
L 256.077457 181.376805 
L 257.07333 185.98507 
L 257.571266 191.83085 
L 258.069202 187.704609 
L 258.567139 181.012182 
L 259.065075 182.549254 
L 259.563012 188.245177 
L 260.060948 186.020942 
L 260.558885 192.34533 
L 261.056821 188.088955 
L 261.554757 197.790614 
L 262.052694 196.820044 
L 262.55063 196.168753 
L 263.048567 198.272637 
L 263.546503 198.311615 
L 264.044439 206.854026 
L 264.542376 207.612778 
L 265.040312 212.250238 
L 265.538249 212.054882 
L 266.036185 205.284188 
L 267.032058 210.941134 
L 267.529994 213.357619 
L 268.027931 219.317383 
L 268.525867 220.619965 
L 269.023804 217.894139 
L 269.52174 220.112007 
L 270.019677 216.321195 
L 270.517613 218.600869 
L 271.015549 214.92078 
L 271.513486 215.868522 
L 272.011422 206.124468 
L 272.509359 199.099718 
L 273.007295 196.748455 
L 273.505231 197.002511 
L 274.003168 186.499705 
L 274.501104 188.544889 
L 274.999041 196.347804 
L 275.496977 200.949546 
L 275.994914 196.061291 
L 276.49285 199.314641 
L 276.990786 201.389175 
L 277.488723 204.789275 
L 277.986659 199.191029 
L 278.484596 198.067342 
L 278.982532 200.301516 
L 279.480468 201.747432 
L 279.978405 204.955281 
L 280.476341 200.734623 
L 280.974278 194.292836 
L 281.472214 192.866487 
L 282.468087 188.499234 
L 282.966023 179.8006 
L 283.46396 184.959217 
L 283.961896 179.976545 
L 284.459833 177.788027 
L 284.957769 174.765751 
L 285.455706 175.319364 
L 286.451578 184.718205 
L 287.447451 174.993718 
L 287.945388 173.629175 
L 288.443324 174.928651 
L 288.94126 182.705632 
L 289.439197 183.851991 
L 290.933006 191.518249 
L 291.430943 190.21225 
L 291.928879 181.865351 
L 292.426815 184.451104 
L 292.924752 180.569136 
L 293.422688 179.660528 
L 294.418561 183.995169 
L 294.916497 186.913245 
L 295.414434 184.923345 
L 295.91237 186.978312 
L 296.410307 178.732352 
L 296.908243 180.530158 
L 297.40618 178.38714 
L 297.904116 181.513617 
L 298.402052 181.331305 
L 298.899989 181.321522 
L 299.397925 180.960004 
L 299.895862 186.607166 
L 300.393798 198.034887 
L 300.891735 203.489799 
L 301.389671 201.317586 
L 301.887607 202.620323 
L 302.385544 197.917642 
L 302.88348 201.262147 
L 303.381417 200.526222 
L 303.879353 191.397743 
L 304.377289 192.189107 
L 304.875226 189.629287 
L 305.373162 189.111547 
L 305.871099 184.304665 
L 306.369035 181.520139 
L 306.866972 177.045425 
L 307.364908 171.00755 
L 307.862844 166.754281 
L 308.360781 166.474291 
L 308.858717 169.333666 
L 309.356654 170.838282 
L 309.85459 173.114695 
L 310.352526 161.221257 
L 310.850463 162.484861 
L 311.846336 179.963501 
L 312.842209 171.515662 
L 313.340145 190.267689 
L 313.838081 177.257087 
L 314.336018 171.681669 
L 314.833954 178.126717 
L 315.331891 177.905272 
L 315.829827 181.060943 
L 316.327764 182.190997 
L 316.8257 184.975522 
L 317.323636 177.589254 
L 317.821573 178.38714 
L 318.319509 178.458885 
L 318.817446 171.737108 
L 319.315382 173.98417 
L 319.813318 169.294533 
L 320.311255 170.206403 
L 320.809191 165.989006 
L 321.307128 165.875022 
L 321.805064 169.949085 
L 322.303001 167.464272 
L 322.800937 171.606818 
L 323.298873 179.032064 
L 323.79681 173.153673 
L 324.294746 173.078823 
L 324.792683 175.905588 
L 325.290619 176.296456 
L 325.788555 170.395237 
L 326.286492 161.911681 
L 326.784428 159.856714 
L 327.282365 158.514843 
L 328.776174 150.646707 
L 329.772047 138.470017 
L 330.269983 138.857469 
L 330.76792 147.360746 
L 331.265856 147.279373 
L 331.763793 138.798924 
L 332.759665 155.030265 
L 333.257602 165.875022 
L 333.755538 173.818009 
L 334.253475 173.560847 
L 334.751411 175.710231 
L 335.249347 179.35771 
L 335.747284 169.994741 
L 336.24522 171.645796 
L 336.743157 167.829051 
L 337.241093 160.423371 
L 337.73903 163.57252 
L 338.236966 165.953134 
L 338.734902 163.02543 
L 339.232839 162.960207 
L 339.730775 163.885121 
L 340.228712 165.888067 
L 340.726648 162.71609 
L 341.224584 164.015411 
L 341.722521 165.995528 
L 342.220457 172.632672 
L 342.718394 173.98417 
L 343.21633 174.033087 
L 343.714267 175.400892 
L 344.212203 176.110727 
L 344.710139 181.02181 
L 345.208076 184.587916 
L 345.706012 182.158541 
L 346.203949 187.743742 
L 346.701885 190.909197 
L 347.199822 192.260696 
L 347.697758 193.071626 
L 348.195694 198.083648 
L 348.693631 192.645041 
L 349.191567 192.706847 
L 349.689504 197.123017 
L 350.18744 195.022394 
L 350.685376 198.139087 
L 351.183313 196.624688 
L 351.681249 196.022158 
L 352.179186 184.340382 
L 352.677122 179.748578 
L 353.175059 178.673808 
L 353.672995 186.724411 
L 354.170931 178.458885 
L 354.668868 179.194809 
L 355.166804 182.813093 
L 355.664741 192.67113 
L 356.162677 192.814309 
L 356.660613 186.750345 
L 357.15855 194.051824 
L 357.656486 196.670343 
L 358.154423 207.316328 
L 358.652359 204.391885 
L 359.150296 183.321051 
L 359.648232 188.316922 
L 360.146168 207.010249 
L 360.644105 205.052959 
L 361.142041 198.099954 
L 361.639978 197.057795 
L 362.137914 190.801736 
L 362.635851 190.251384 
L 363.631723 165.406043 
L 364.12966 139.841083 
L 364.627596 144.602309 
L 365.125533 132.23337 
L 365.623469 126.208539 
L 366.121405 103.476866 
L 366.619342 64.878475 
L 367.117278 53.568 
L 368.113151 119.971891 
L 368.611088 116.125796 
L 369.109024 116.747892 
L 369.60696 132.249675 
L 370.104897 139.619638 
L 370.602833 153.890428 
L 371.10077 148.458188 
L 371.598706 136.616928 
L 372.594579 148.393121 
L 373.092515 135.148184 
L 373.590452 118.920104 
L 374.088388 144.051957 
L 374.586325 142.651542 
L 375.084261 154.57433 
L 375.582197 159.175917 
L 376.080134 160.426632 
L 376.57807 159.719902 
L 377.076007 167.145148 
L 377.573943 163.035213 
L 378.07188 154.704619 
L 378.569816 161.712909 
L 379.067752 160.749017 
L 379.565689 153.141303 
L 380.063625 161.74552 
L 380.561562 160.856478 
L 381.059498 160.293082 
L 381.557434 163.722376 
L 382.055371 165.852194 
L 382.553307 158.964256 
L 383.051244 160.446044 
L 383.54918 160.674011 
L 384.047117 159.003389 
L 384.545053 159.488674 
L 385.042989 134.552177 
L 385.540926 137.945599 
L 386.536799 148.533194 
L 387.034735 143.742462 
L 387.532672 143.306094 
L 388.030608 157.739785 
L 388.528544 145.426284 
L 389.026481 143.615589 
L 389.524417 143.094432 
L 390.022354 147.18154 
L 390.52029 149.135568 
L 391.018226 152.34994 
L 391.516163 147.347701 
L 392.014099 154.404908 
L 393.009972 159.149984 
L 393.507909 158.156586 
L 395.001718 174.384666 
L 395.499654 173.368596 
L 395.997591 170.974939 
L 396.495527 182.80331 
L 396.993463 177.651216 
L 397.4914 179.715967 
L 397.989336 177.165931 
L 398.487273 180.689642 
L 398.487273 180.689642 
" clip-path="url(#p49f90aeac0)" style="fill: none; stroke: #000000; stroke-width: 1.5; stroke-linecap: square"/>
   </g>
   <g id="line2d_18">
    <path d="M 73.832727 269.49894 
L 74.330664 275.161631 
L 74.8286 274.132051 
L 75.326537 276.458468 
L 75.824473 275.312419 
L 76.322409 271.476573 
L 76.820346 272.310486 
L 77.318282 273.479362 
L 77.816219 271.816971 
L 78.314155 277.776734 
L 78.812091 281.08661 
L 79.310028 279.164261 
L 79.807964 279.434312 
L 80.305901 278.931479 
L 80.803837 281.079466 
L 81.301774 274.13935 
L 81.79971 275.771615 
L 82.297646 279.954848 
L 82.795583 279.24377 
L 83.293519 279.978452 
L 83.791456 282.004846 
L 84.289392 275.079482 
L 84.787328 282.45488 
L 85.285265 285.330406 
L 85.783201 284.285763 
L 86.281138 288.443994 
L 86.779074 282.899168 
L 87.277011 288.510769 
L 87.774947 283.077287 
L 88.272883 287.335681 
L 88.77082 287.420004 
L 89.268756 290.944026 
L 89.766693 288.736562 
L 90.264629 288.538255 
L 90.762566 286.297249 
L 91.260502 285.118589 
L 91.758438 288.793865 
L 92.256375 286.675072 
L 92.754311 285.106632 
L 93.252248 282.182965 
L 93.750184 274.701038 
L 94.24812 278.354417 
L 94.746057 271.023122 
L 95.243993 271.41927 
L 95.74193 269.499406 
L 96.239866 269.875987 
L 97.235739 282.989392 
L 97.733675 277.96355 
L 98.231612 277.280579 
L 100.223358 283.758705 
L 100.721294 283.562417 
L 101.21923 278.994217 
L 101.717167 278.46514 
L 102.71304 274.29697 
L 103.708912 265.982993 
L 104.206849 266.985242 
L 104.704785 263.152501 
L 105.202722 262.091086 
L 105.700658 258.421712 
L 106.198595 265.564794 
L 106.696531 264.995186 
L 107.194467 270.562063 
L 107.692404 266.657422 
L 108.19034 266.824516 
L 108.688277 260.477456 
L 109.186213 269.903939 
L 110.182086 248.390991 
L 110.680022 248.179329 
L 111.177959 230.22907 
L 112.173832 209.731571 
L 112.671768 188.555604 
L 113.169704 197.556279 
L 113.667641 173.953267 
L 114.165577 168.353158 
L 114.663514 177.227581 
L 115.16145 190.173117 
L 115.659387 189.390294 
L 116.157323 189.212952 
L 116.655259 186.302019 
L 117.153196 172.499276 
L 117.651132 183.050067 
L 118.149069 176.311829 
L 119.144941 197.645106 
L 119.642878 196.65528 
L 120.140814 192.726259 
L 120.638751 190.554823 
L 121.136687 193.093367 
L 121.634624 199.585934 
L 122.13256 193.269157 
L 122.630496 197.073634 
L 123.128433 201.828494 
L 123.626369 199.052665 
L 124.124306 195.290737 
L 124.622242 188.960293 
L 125.120178 192.76151 
L 125.618115 193.752267 
L 126.116051 194.291593 
L 126.613988 189.740631 
L 127.111924 190.482768 
L 127.609861 192.985284 
L 128.107797 183.353506 
L 128.605733 191.78038 
L 129.10367 195.097399 
L 129.601606 190.876431 
L 130.099543 189.644195 
L 130.597479 190.386021 
L 131.095416 186.699875 
L 131.593352 183.858203 
L 132.091288 182.582641 
L 132.589225 185.922022 
L 133.087161 184.094866 
L 133.585098 187.42788 
L 134.083034 193.196791 
L 134.58097 195.312943 
L 135.078907 202.558362 
L 135.576843 201.063996 
L 136.07478 205.925385 
L 136.572716 220.954462 
L 137.070653 222.1853 
L 137.568589 218.597764 
L 138.066525 226.579728 
L 139.062398 237.014517 
L 140.058271 226.5114 
L 140.556207 225.745504 
L 141.054144 228.187147 
L 141.55208 223.322031 
L 142.050017 220.001285 
L 142.547953 214.95308 
L 143.543826 229.103054 
L 144.041762 222.057495 
L 144.539699 219.302009 
L 145.037635 222.76143 
L 145.535572 217.380747 
L 146.033508 224.81764 
L 146.531445 221.821763 
L 147.029381 220.10005 
L 147.527317 221.66523 
L 148.025254 217.842272 
L 148.52319 221.147178 
L 149.021127 222.167441 
L 149.519063 214.890343 
L 150.016999 218.192298 
L 150.514936 217.35062 
L 151.012872 217.055878 
L 151.510809 214.27306 
L 152.008745 213.90735 
L 152.506682 216.781012 
L 153.004618 215.618503 
L 153.502554 208.998131 
L 154.000491 214.102085 
L 154.498427 212.301173 
L 154.996364 211.875831 
L 155.4943 212.496685 
L 156.490173 223.107729 
L 156.988109 225.837747 
L 157.486046 230.865453 
L 157.983982 231.69595 
L 158.481919 236.229986 
L 158.979855 230.768241 
L 159.477791 235.240316 
L 159.975728 232.239004 
L 160.473664 228.47428 
L 160.971601 233.626064 
L 161.469537 235.638948 
L 161.967474 234.807053 
L 162.46541 231.176812 
L 163.461283 236.509976 
L 163.959219 233.19451 
L 164.457156 237.237981 
L 164.955092 236.272225 
L 165.453028 237.881197 
L 165.950965 237.038742 
L 166.448901 243.436737 
L 166.946838 235.448406 
L 167.444774 244.333544 
L 167.942711 233.251347 
L 168.440647 241.294186 
L 168.938583 236.487925 
L 169.43652 233.92267 
L 169.934456 235.731657 
L 170.432393 241.980262 
L 170.930329 236.683126 
L 171.428265 242.164127 
L 171.926202 233.995657 
L 172.424138 229.29546 
L 172.922075 223.196711 
L 173.420011 228.722591 
L 173.917948 223.350915 
L 174.415884 227.525296 
L 174.91382 222.836746 
L 175.411757 225.438494 
L 175.909693 224.836275 
L 176.40763 223.002752 
L 176.905566 224.580821 
L 177.403503 222.392769 
L 177.901439 222.503491 
L 178.399375 211.199849 
L 178.897312 211.87257 
L 179.395248 203.510142 
L 179.893185 191.178006 
L 180.391121 188.076221 
L 180.889057 178.85643 
L 181.386994 190.192373 
L 181.88493 193.502714 
L 182.382867 208.095889 
L 182.880803 205.301736 
L 183.37874 207.070036 
L 183.876676 208.322304 
L 184.374612 210.452898 
L 184.872549 209.832976 
L 185.370485 215.743512 
L 185.868422 216.746848 
L 187.362231 191.735191 
L 187.860167 189.952138 
L 188.358104 182.950526 
L 188.85604 183.177872 
L 189.353977 182.682338 
L 189.851913 181.015443 
L 190.349849 182.669138 
L 190.847786 178.381394 
L 191.345722 175.273087 
L 191.843659 161.042517 
L 192.341595 163.416608 
L 192.839532 172.029055 
L 193.337468 177.480706 
L 193.835404 195.425995 
L 194.333341 195.107648 
L 195.329214 204.091241 
L 195.82715 210.20583 
L 196.325086 206.048375 
L 196.823023 212.753226 
L 197.320959 209.044408 
L 197.818896 210.363606 
L 198.316832 214.445744 
L 198.814769 208.516573 
L 199.312705 215.211485 
L 199.810641 214.527272 
L 200.308578 215.163034 
L 200.806514 214.055498 
L 201.304451 216.852446 
L 201.802387 216.210473 
L 202.79826 208.501044 
L 203.296196 211.222987 
L 203.794133 219.372045 
L 204.292069 212.735212 
L 204.790006 214.818132 
L 205.287942 214.900747 
L 205.785878 213.018774 
L 206.283815 219.530287 
L 206.781751 224.375215 
L 207.279688 224.240423 
L 207.777624 222.178622 
L 208.275561 225.1349 
L 208.773497 223.593946 
L 209.271433 224.580355 
L 209.76937 224.196786 
L 210.267306 213.111793 
L 210.765243 206.938194 
L 211.263179 202.808536 
L 212.259052 205.558743 
L 212.756988 204.64532 
L 213.254925 207.432796 
L 214.250798 177.121673 
L 214.748734 189.288113 
L 215.24667 185.888945 
L 215.744607 187.365143 
L 216.242543 194.545805 
L 217.736352 200.472492 
L 218.234289 197.268214 
L 218.732225 199.504717 
L 219.230162 192.91121 
L 219.728098 193.257665 
L 220.226035 194.45527 
L 220.723971 196.269692 
L 221.221907 195.386551 
L 221.719844 195.720117 
L 222.21778 196.507288 
L 222.715717 192.956866 
L 223.71159 192.1082 
L 224.209526 189.700255 
L 224.707462 194.413963 
L 225.205399 200.946906 
L 225.703335 202.815369 
L 226.201272 210.81923 
L 226.699208 210.021344 
L 227.197144 207.083236 
L 227.695081 210.716583 
L 228.193017 212.083455 
L 228.690954 212.714869 
L 229.18889 206.993477 
L 229.686827 204.19482 
L 230.184763 205.44538 
L 230.682699 209.36586 
L 231.180636 206.334111 
L 231.678572 207.666975 
L 232.176509 207.721948 
L 232.674445 209.249392 
L 233.172381 205.615113 
L 233.670318 201.146766 
L 234.168254 202.607124 
L 234.666191 198.304627 
L 235.164127 197.615445 
L 235.662064 194.966644 
L 236.16 193.030008 
L 236.657936 189.583787 
L 237.155873 184.044707 
L 237.653809 175.924223 
L 238.151746 171.405561 
L 238.649682 181.249933 
L 239.147619 181.782115 
L 239.645555 179.688635 
L 240.143491 180.125003 
L 240.641428 176.443206 
L 241.637301 173.458199 
L 242.135237 165.877973 
L 242.633173 165.491142 
L 243.13111 178.504385 
L 243.629046 170.172239 
L 244.126983 165.642085 
L 244.624919 163.039406 
L 245.122856 163.467699 
L 245.620792 154.054415 
L 246.118728 156.177245 
L 247.114601 182.395205 
L 247.612538 178.409813 
L 248.110474 180.350952 
L 248.60841 178.942461 
L 249.106347 183.241076 
L 249.604283 191.258136 
L 250.10222 194.584473 
L 250.600156 195.390278 
L 251.098093 184.6623 
L 251.596029 189.899805 
L 252.093965 189.092601 
L 252.591902 193.033114 
L 253.089838 189.698547 
L 253.587775 189.269478 
L 254.085711 187.761756 
L 254.583648 184.554839 
L 255.081584 190.27592 
L 255.57952 188.244556 
L 256.077457 183.062957 
L 256.575393 181.023829 
L 257.571266 187.571059 
L 258.069202 194.475148 
L 258.567139 189.027845 
L 259.065075 180.476272 
L 259.563012 182.750977 
L 260.060948 189.276777 
L 260.558885 187.341072 
L 261.056821 195.177374 
L 261.554757 189.016664 
L 262.052694 200.973927 
L 262.55063 198.28211 
L 263.048567 197.826331 
L 263.546503 199.443533 
L 264.044439 199.038999 
L 264.542376 207.545537 
L 265.040312 207.372543 
L 265.538249 212.005189 
L 266.036185 211.650814 
L 266.534122 205.846963 
L 267.032058 208.823739 
L 267.529994 210.168405 
L 268.027931 212.126471 
L 268.525867 216.754147 
L 269.023804 217.596757 
L 269.52174 216.53441 
L 270.019677 218.608168 
L 270.517613 215.260402 
L 271.015549 217.571755 
L 271.513486 213.88095 
L 272.011422 214.853383 
L 273.007295 198.323262 
L 273.505231 195.580044 
L 274.003168 196.077286 
L 274.501104 186.992444 
L 274.999041 186.429669 
L 275.994914 198.787583 
L 276.49285 194.929374 
L 276.990786 199.337158 
L 277.488723 200.117341 
L 277.986659 204.649979 
L 278.484596 198.458521 
L 278.982532 197.485777 
L 279.480468 200.996444 
L 279.978405 202.009253 
L 280.476341 205.803947 
L 280.974278 200.97579 
L 281.472214 193.85507 
L 282.966023 188.200298 
L 283.46396 179.688635 
L 283.961896 184.653449 
L 284.459833 179.768921 
L 285.455706 174.061505 
L 285.953642 175.442044 
L 286.451578 182.716813 
L 286.949515 187.557548 
L 287.447451 182.594133 
L 287.945388 175.153357 
L 288.443324 172.523036 
L 288.94126 174.956759 
L 289.439197 184.861073 
L 291.430943 193.109983 
L 291.928879 190.996471 
L 292.426815 181.104891 
L 292.924752 184.799888 
L 293.422688 180.017697 
L 293.920625 178.869319 
L 294.916497 185.826207 
L 295.414434 189.116671 
L 295.91237 186.745997 
L 296.410307 189.144468 
L 296.908243 178.946188 
L 297.40618 181.102872 
L 297.904116 178.215854 
L 298.402052 183.33658 
L 298.899989 183.521687 
L 299.397925 183.277414 
L 299.895862 182.379986 
L 300.393798 189.472754 
L 300.891735 199.505338 
L 301.389671 203.024391 
L 301.887607 202.394685 
L 302.385544 203.727083 
L 302.88348 198.11921 
L 303.381417 201.392592 
L 303.879353 199.773526 
L 304.377289 190.576098 
L 304.875226 190.261478 
L 305.373162 188.816804 
L 305.871099 188.242072 
L 307.364908 175.612553 
L 307.862844 169.433674 
L 308.360781 164.776803 
L 308.858717 164.900881 
L 309.85459 173.861956 
L 310.352526 177.015609 
L 310.850463 163.262249 
L 311.348399 163.08677 
L 312.344272 183.93709 
L 312.842209 179.904801 
L 313.340145 172.739201 
L 313.838081 193.075819 
L 314.336018 176.690274 
L 314.833954 170.349426 
L 315.331891 178.976625 
L 315.829827 180.264765 
L 316.327764 182.999443 
L 316.8257 183.809441 
L 317.323636 186.583096 
L 317.821573 178.200014 
L 318.319509 179.845479 
L 318.817446 180.157149 
L 319.315382 173.1838 
L 319.813318 176.026249 
L 320.311255 171.094668 
L 320.809191 171.619242 
L 321.307128 167.56226 
L 321.805064 166.8341 
L 322.303001 173.5624 
L 322.800937 171.104296 
L 323.298873 176.744936 
L 323.79681 183.920008 
L 324.294746 176.440721 
L 324.792683 173.895344 
L 325.290619 177.183323 
L 325.788555 177.328365 
L 326.286492 170.152206 
L 326.784428 160.283454 
L 327.282365 157.917593 
L 327.780301 158.899033 
L 328.278238 157.73994 
L 329.27411 152.762704 
L 329.772047 147.542281 
L 330.269983 140.720962 
L 330.76792 142.574207 
L 331.265856 154.797173 
L 331.763793 157.502966 
L 332.261729 144.857919 
L 332.759665 151.119879 
L 334.253475 175.585688 
L 334.751411 174.168656 
L 335.249347 175.065463 
L 335.747284 178.655017 
L 336.24522 168.706911 
L 336.743157 170.603016 
L 337.241093 167.134433 
L 337.73903 160.013247 
L 338.236966 163.860741 
L 338.734902 169.496101 
L 339.232839 167.458992 
L 339.730775 165.940089 
L 340.228712 166.825093 
L 340.726648 169.424046 
L 341.224584 165.434461 
L 341.722521 166.598058 
L 342.220457 169.498896 
L 342.718394 177.615343 
L 343.21633 178.195977 
L 343.714267 176.74152 
L 344.212203 176.934392 
L 344.710139 176.779256 
L 345.208076 182.798962 
L 345.706012 186.117689 
L 346.203949 183.201787 
L 346.701885 190.63604 
L 347.199822 192.631842 
L 347.697758 193.704127 
L 348.195694 194.009429 
L 348.693631 199.587332 
L 349.191567 192.665385 
L 349.689504 192.461332 
L 350.18744 198.053987 
L 350.685376 195.283749 
L 351.183313 199.313864 
L 351.681249 196.98341 
L 352.179186 196.133191 
L 352.677122 184.028091 
L 353.175059 177.203977 
L 353.672995 176.710772 
L 354.170931 185.260171 
L 354.668868 179.127413 
L 355.166804 179.601206 
L 355.664741 184.145646 
L 356.162677 194.278083 
L 356.660613 194.458066 
L 357.15855 187.908196 
L 357.656486 197.570721 
L 358.154423 197.643553 
L 358.652359 207.681262 
L 359.150296 204.83462 
L 359.648232 184.790105 
L 360.146168 187.568263 
L 360.644105 203.141015 
L 361.142041 203.785628 
L 362.137914 198.625459 
L 362.635851 191.921385 
L 363.133787 189.833495 
L 364.12966 164.140731 
L 364.627596 139.461862 
L 365.623469 134.647215 
L 366.121405 130.127622 
L 366.619342 111.362706 
L 367.117278 79.662503 
L 367.615215 65.261113 
L 368.113151 77.340124 
L 368.611088 97.597388 
L 369.109024 105.458847 
L 369.60696 102.928688 
L 370.104897 103.585259 
L 370.602833 103.303561 
L 371.10077 112.423344 
L 372.096642 104.589527 
L 372.594579 115.321698 
L 373.092515 122.139135 
L 373.590452 117.936801 
L 374.088388 107.886358 
L 374.586325 132.256353 
L 375.084261 138.793023 
L 375.582197 150.580087 
L 376.080134 151.72862 
L 376.57807 151.56572 
L 377.076007 150.54468 
L 377.573943 160.668576 
L 378.07188 156.536123 
L 378.569816 149.685454 
L 379.067752 161.937305 
L 379.565689 163.488663 
L 380.063625 156.574946 
L 380.561562 166.119295 
L 381.059498 165.702028 
L 381.557434 163.635103 
L 382.055371 167.044054 
L 382.553307 168.978516 
L 383.051244 161.130101 
L 384.047117 163.496583 
L 384.545053 162.470419 
L 385.042989 163.230569 
L 385.540926 138.670809 
L 386.038862 137.011212 
L 387.034735 153.931425 
L 387.532672 149.856275 
L 388.030608 144.573425 
L 388.528544 160.999967 
L 389.026481 147.078737 
L 389.524417 143.356874 
L 390.022354 145.439173 
L 390.52029 151.565409 
L 391.516163 157.344103 
L 392.014099 150.609903 
L 392.512036 159.048113 
L 393.009972 161.315829 
L 393.507909 164.122406 
L 394.005845 162.285467 
L 395.001718 173.255078 
L 395.499654 177.520771 
L 395.997591 174.887965 
L 396.495527 170.79418 
L 396.993463 185.632715 
L 397.4914 178.859381 
L 397.989336 181.536289 
L 398.487273 178.757044 
L 398.487273 178.757044 
" clip-path="url(#p49f90aeac0)" style="fill: none; stroke: #008000; stroke-width: 1.5; stroke-linecap: square"/>
   </g>
   <g id="line2d_19">
    <path d="M 73.832727 277.599081 
L 74.330664 277.937771 
L 74.8286 277.618648 
L 75.326537 273.704069 
L 75.824473 273.508712 
L 76.322409 275.820842 
L 76.820346 274.681005 
L 77.816219 284.548826 
L 78.812091 281.878284 
L 79.310028 282.073796 
L 79.807964 284.434842 
L 80.305901 278.751963 
L 80.803837 277.416614 
L 81.301774 283.506667 
L 81.79971 283.708545 
L 82.297646 283.106171 
L 82.795583 285.252295 
L 83.293519 279.500932 
L 84.289392 290.052655 
L 84.787328 288.756439 
L 85.285265 292.527685 
L 85.783201 287.574363 
L 86.281138 291.9969 
L 86.779074 287.805592 
L 87.277011 290.801624 
L 87.774947 291.974072 
L 88.272883 295.488 
L 88.77082 293.179131 
L 89.268756 292.234651 
L 89.766693 289.857298 
L 90.264629 288.320071 
L 90.762566 292.625363 
L 91.758438 288.030298 
L 92.256375 284.880994 
L 92.754311 277.59582 
L 93.252248 279.435865 
L 93.750184 274.908973 
L 94.24812 272.336264 
L 94.746057 271.391784 
L 95.243993 270.90976 
L 95.74193 278.458773 
L 96.239866 287.740369 
L 97.235739 279.36412 
L 98.231612 284.386081 
L 99.227485 288.085582 
L 99.725421 287.740369 
L 100.223358 283.14841 
L 100.721294 280.953525 
L 101.21923 279.956867 
L 101.717167 277.514448 
L 102.71304 268.004884 
L 103.210976 268.232851 
L 104.704785 259.582979 
L 105.202722 265.249708 
L 105.700658 267.630321 
L 106.198595 271.359172 
L 107.194467 265.855499 
L 107.692404 260.976872 
L 108.19034 268.84827 
L 108.688277 261.615274 
L 109.186213 245.37415 
L 109.684149 247.556146 
L 110.182086 225.785104 
L 111.177959 207.713718 
L 111.675895 186.652667 
L 112.173832 204.649202 
L 112.671768 172.33296 
L 113.169704 170.665599 
L 113.667641 184.372993 
L 114.165577 201.200341 
L 114.663514 194.234291 
L 115.16145 191.472593 
L 115.659387 187.610192 
L 116.157323 173.71707 
L 116.655259 183.851991 
L 117.153196 177.195281 
L 117.651132 185.154573 
L 118.149069 197.510468 
L 118.647005 195.478328 
L 119.144941 190.098267 
L 119.642878 188.919296 
L 120.140814 191.700561 
L 120.638751 198.76755 
L 121.136687 192.74272 
L 121.634624 195.315428 
L 122.13256 200.382889 
L 122.630496 197.855681 
L 123.128433 194.559937 
L 123.626369 188.932341 
L 124.124306 191.53766 
L 124.622242 192.873009 
L 125.120178 193.361555 
L 125.618115 189.22553 
L 126.116051 189.811755 
L 126.613988 192.078384 
L 127.111924 183.200545 
L 127.609861 189.518565 
L 128.107797 192.938076 
L 128.605733 189.111547 
L 129.10367 188.789162 
L 129.601606 189.788927 
L 130.099543 186.717889 
L 130.597479 184.633571 
L 131.095416 183.461123 
L 131.593352 185.415152 
L 132.091288 183.721702 
L 132.589225 185.786453 
L 133.087161 190.795213 
L 133.585098 193.426622 
L 134.083034 200.688967 
L 134.58097 200.037676 
L 135.078907 204.792536 
L 135.576843 224.6257 
L 136.07478 228.465429 
L 136.572716 219.38245 
L 137.070653 226.758779 
L 137.568589 236.896961 
L 138.066525 243.136715 
L 139.062398 226.540595 
L 139.560335 227.068274 
L 140.058271 230.175184 
L 141.55208 214.100066 
L 142.547953 233.018255 
L 143.04589 223.192829 
L 143.543826 217.151537 
L 144.041762 221.85748 
L 144.539699 215.744755 
L 145.037635 225.472503 
L 145.535572 223.101517 
L 146.033508 219.25216 
L 146.531445 221.082422 
L 147.029381 216.451485 
L 147.527317 220.072874 
L 148.025254 222.837833 
L 148.52319 213.129652 
L 149.021127 217.151537 
L 149.519063 217.438205 
L 150.016999 216.812847 
L 150.514936 213.53667 
L 151.012872 213.481386 
L 151.510809 216.77713 
L 152.008745 215.897716 
L 152.506682 208.306464 
L 153.004618 214.002388 
L 153.502554 212.804006 
L 154.000491 212.15256 
L 154.498427 212.956968 
L 155.4943 227.156169 
L 155.992236 230.806909 
L 156.490173 236.089292 
L 156.988109 236.300954 
L 157.486046 240.629074 
L 157.983982 233.94643 
L 158.481919 236.590727 
L 158.979855 235.926392 
L 159.477791 230.364018 
L 160.473664 238.723962 
L 160.971601 237.85107 
L 161.469537 233.158327 
L 161.967474 234.33062 
L 162.46541 238.150782 
L 162.963346 235.887414 
L 163.461283 238.075932 
L 163.959219 238.385272 
L 164.457156 238.987801 
L 164.955092 238.834684 
L 165.453028 245.266688 
L 165.950965 237.77622 
L 166.448901 244.654375 
L 166.946838 234.721488 
L 167.444774 240.222055 
L 167.942711 238.714178 
L 168.440647 234.35997 
L 168.938583 235.438001 
L 169.43652 243.123671 
L 169.934456 238.841207 
L 170.432393 241.889417 
L 171.926202 219.284772 
L 172.424138 227.752177 
L 172.922075 222.378637 
L 173.420011 225.928437 
L 173.917948 220.978221 
L 174.415884 223.127606 
L 174.91382 223.876731 
L 175.411757 220.978221 
L 175.909693 222.736894 
L 176.40763 220.890327 
L 176.905566 221.108511 
L 177.403503 208.032841 
L 177.901439 210.586138 
L 178.399375 201.164469 
L 178.897312 189.622765 
L 179.395248 188.28105 
L 179.893185 177.042164 
L 180.391121 195.963613 
L 180.889057 195.087461 
L 181.386994 212.543428 
L 181.88493 207.879879 
L 182.382867 207.375028 
L 182.880803 209.0295 
L 183.37874 211.826914 
L 183.876676 210.687077 
L 184.374612 217.005098 
L 184.872549 219.613678 
L 185.370485 207.684368 
L 185.868422 200.988679 
L 186.366358 191.895917 
L 186.864294 191.146948 
L 187.362231 182.353897 
L 187.860167 185.372757 
L 188.358104 182.74461 
L 188.85604 181.594989 
L 189.353977 183.702135 
L 189.851913 179.93089 
L 190.349849 177.237675 
L 190.847786 162.696523 
L 191.345722 165.158509 
L 191.843659 170.085897 
L 192.341595 172.36231 
L 192.839532 191.9644 
L 193.337468 193.801184 
L 193.835404 197.569168 
L 194.831277 211.924592 
L 195.329214 206.192796 
L 195.82715 212.380527 
L 196.325086 209.54724 
L 196.823023 210.963961 
L 197.320959 215.930328 
L 197.818896 209.218334 
L 198.316832 216.194167 
L 198.814769 216.646841 
L 199.312705 216.529596 
L 199.810641 214.937085 
L 200.308578 218.014645 
L 200.806514 217.949578 
L 201.802387 209.47239 
L 202.300323 212.035315 
L 202.79826 223.371879 
L 203.296196 214.178178 
L 203.794133 215.56881 
L 204.292069 215.800038 
L 204.790006 213.61152 
L 205.785878 229.032086 
L 206.283815 228.892014 
L 206.781751 223.925492 
L 207.279688 226.784868 
L 207.777624 226.341978 
L 208.773497 226.644795 
L 209.271433 212.246977 
L 210.267306 202.936186 
L 210.765243 205.258099 
L 211.263179 206.030051 
L 211.761115 205.01072 
L 212.259052 208.309725 
L 213.254925 179.159093 
L 213.752861 194.403558 
L 214.250798 186.411655 
L 214.748734 187.597147 
L 215.24667 195.354561 
L 216.74048 201.539031 
L 217.238416 197.530035 
L 217.736352 198.595022 
L 218.234289 193.068365 
L 218.732225 192.938076 
L 219.230162 193.781617 
L 219.728098 195.240578 
L 220.226035 194.221247 
L 220.723971 194.696748 
L 221.221907 195.543395 
L 221.719844 192.521274 
L 222.21778 192.377941 
L 222.715717 191.993595 
L 223.213653 189.853994 
L 223.71159 193.035754 
L 224.209526 199.907387 
L 224.707462 202.297784 
L 225.205399 211.416635 
L 225.703335 211.012723 
L 226.201272 206.258019 
L 226.699208 210.491721 
L 227.197144 213.715876 
L 227.695081 214.595134 
L 228.193017 207.85379 
L 228.690954 205.802084 
L 229.18889 206.844243 
L 229.686827 211.110401 
L 230.184763 207.332633 
L 230.682699 208.573565 
L 231.180636 208.733049 
L 231.678572 210.367954 
L 232.674445 202.55184 
L 233.172381 203.600521 
L 233.670318 199.334208 
L 234.168254 198.982473 
L 234.666191 195.934263 
L 235.164127 194.208202 
L 235.662064 190.65188 
L 236.16 185.366235 
L 236.657936 177.589254 
L 237.155873 173.896276 
L 237.653809 183.347139 
L 238.151746 180.754864 
L 238.649682 178.921342 
L 239.147619 179.429299 
L 239.645555 176.332173 
L 240.143491 175.351975 
L 240.641428 173.531497 
L 241.139364 166.243062 
L 241.637301 165.682927 
L 242.135237 175.254297 
L 242.633173 166.402546 
L 243.629046 162.045077 
L 244.126983 162.650867 
L 244.624919 152.327112 
L 245.122856 155.030265 
L 245.620792 163.432448 
L 246.118728 176.758913 
L 246.616665 172.486077 
L 247.114601 176.127033 
L 247.612538 176.784846 
L 248.110474 182.008685 
L 248.60841 190.743036 
L 249.106347 194.882321 
L 249.604283 195.221011 
L 250.10222 184.796316 
L 250.600156 188.704373 
L 251.098093 188.675179 
L 251.596029 191.788456 
L 252.093965 188.750029 
L 252.591902 188.574084 
L 253.089838 187.124907 
L 253.587775 184.451104 
L 254.085711 188.359161 
L 254.583648 186.978312 
L 255.081584 182.806571 
L 255.57952 181.376805 
L 256.575393 185.98507 
L 257.07333 191.83085 
L 257.571266 187.704609 
L 258.069202 181.012182 
L 258.567139 182.549254 
L 259.065075 188.245177 
L 259.563012 186.020942 
L 260.060948 192.34533 
L 260.558885 188.088955 
L 261.056821 197.790614 
L 261.554757 196.820044 
L 262.052694 196.168753 
L 262.55063 198.272637 
L 263.048567 198.311615 
L 263.546503 206.854026 
L 264.044439 207.612778 
L 264.542376 212.250238 
L 265.040312 212.054882 
L 265.538249 205.284188 
L 266.534122 210.941134 
L 267.032058 213.357619 
L 267.529994 219.317383 
L 268.027931 220.619965 
L 268.525867 217.894139 
L 269.023804 220.112007 
L 269.52174 216.321195 
L 270.019677 218.600869 
L 270.517613 214.92078 
L 271.015549 215.868522 
L 271.513486 206.124468 
L 272.011422 199.099718 
L 272.509359 196.748455 
L 273.007295 197.002511 
L 273.505231 186.499705 
L 274.003168 188.544889 
L 274.501104 196.347804 
L 274.999041 200.949546 
L 275.496977 196.061291 
L 275.994914 199.314641 
L 276.49285 201.389175 
L 276.990786 204.789275 
L 277.488723 199.191029 
L 277.986659 198.067342 
L 278.484596 200.301516 
L 278.982532 201.747432 
L 279.480468 204.955281 
L 279.978405 200.734623 
L 280.476341 194.292836 
L 280.974278 192.866487 
L 281.970151 188.499234 
L 282.468087 179.8006 
L 282.966023 184.959217 
L 283.46396 179.976545 
L 283.961896 177.788027 
L 284.459833 174.765751 
L 284.957769 175.319364 
L 285.953642 184.718205 
L 286.949515 174.993718 
L 287.447451 173.629175 
L 287.945388 174.928651 
L 288.443324 182.705632 
L 288.94126 183.851991 
L 290.43507 191.518249 
L 290.933006 190.21225 
L 291.430943 181.865351 
L 291.928879 184.451104 
L 292.426815 180.569136 
L 292.924752 179.660528 
L 293.920625 183.995169 
L 294.418561 186.913245 
L 294.916497 184.923345 
L 295.414434 186.978312 
L 295.91237 178.732352 
L 296.410307 180.530158 
L 296.908243 178.38714 
L 297.40618 181.513617 
L 297.904116 181.331305 
L 298.402052 181.321522 
L 298.899989 180.960004 
L 299.397925 186.607166 
L 299.895862 198.034887 
L 300.393798 203.489799 
L 300.891735 201.317586 
L 301.389671 202.620323 
L 301.887607 197.917642 
L 302.385544 201.262147 
L 302.88348 200.526222 
L 303.381417 191.397743 
L 303.879353 192.189107 
L 304.377289 189.629287 
L 304.875226 189.111547 
L 305.373162 184.304665 
L 305.871099 181.520139 
L 306.369035 177.045425 
L 306.866972 171.00755 
L 307.364908 166.754281 
L 307.862844 166.474291 
L 308.360781 169.333666 
L 308.858717 170.838282 
L 309.356654 173.114695 
L 309.85459 161.221257 
L 310.352526 162.484861 
L 311.348399 179.963501 
L 312.344272 171.515662 
L 312.842209 190.267689 
L 313.340145 177.257087 
L 313.838081 171.681669 
L 314.336018 178.126717 
L 314.833954 177.905272 
L 315.331891 181.060943 
L 315.829827 182.190997 
L 316.327764 184.975522 
L 316.8257 177.589254 
L 317.323636 178.38714 
L 317.821573 178.458885 
L 318.319509 171.737108 
L 318.817446 173.98417 
L 319.315382 169.294533 
L 319.813318 170.206403 
L 320.311255 165.989006 
L 320.809191 165.875022 
L 321.307128 169.949085 
L 321.805064 167.464272 
L 322.303001 171.606818 
L 322.800937 179.032064 
L 323.298873 173.153673 
L 323.79681 173.078823 
L 324.294746 175.905588 
L 324.792683 176.296456 
L 325.290619 170.395237 
L 325.788555 161.911681 
L 326.286492 159.856714 
L 326.784428 158.514843 
L 328.278238 150.646707 
L 329.27411 138.470017 
L 329.772047 138.857469 
L 330.269983 147.360746 
L 330.76792 147.279373 
L 331.265856 138.798924 
L 332.261729 155.030265 
L 332.759665 165.875022 
L 333.257602 173.818009 
L 333.755538 173.560847 
L 334.253475 175.710231 
L 334.751411 179.35771 
L 335.249347 169.994741 
L 335.747284 171.645796 
L 336.24522 167.829051 
L 336.743157 160.423371 
L 337.241093 163.57252 
L 337.73903 165.953134 
L 338.236966 163.02543 
L 338.734902 162.960207 
L 339.232839 163.885121 
L 339.730775 165.888067 
L 340.228712 162.71609 
L 340.726648 164.015411 
L 341.224584 165.995528 
L 341.722521 172.632672 
L 342.220457 173.98417 
L 342.718394 174.033087 
L 343.21633 175.400892 
L 343.714267 176.110727 
L 344.212203 181.02181 
L 344.710139 184.587916 
L 345.208076 182.158541 
L 345.706012 187.743742 
L 346.203949 190.909197 
L 346.701885 192.260696 
L 347.199822 193.071626 
L 347.697758 198.083648 
L 348.195694 192.645041 
L 348.693631 192.706847 
L 349.191567 197.123017 
L 349.689504 195.022394 
L 350.18744 198.139087 
L 350.685376 196.624688 
L 351.183313 196.022158 
L 351.681249 184.340382 
L 352.179186 179.748578 
L 352.677122 178.673808 
L 353.175059 186.724411 
L 353.672995 178.458885 
L 354.170931 179.194809 
L 354.668868 182.813093 
L 355.166804 192.67113 
L 355.664741 192.814309 
L 356.162677 186.750345 
L 356.660613 194.051824 
L 357.15855 196.670343 
L 357.656486 207.316328 
L 358.154423 204.391885 
L 358.652359 183.321051 
L 359.150296 188.316922 
L 359.648232 207.010249 
L 360.146168 205.052959 
L 360.644105 198.099954 
L 361.142041 197.057795 
L 361.639978 190.801736 
L 362.137914 190.251384 
L 363.133787 165.406043 
L 363.631723 139.841083 
L 364.12966 144.602309 
L 364.627596 132.23337 
L 365.125533 126.208539 
L 365.623469 103.476866 
L 366.121405 64.878475 
L 366.619342 53.568 
L 367.615215 119.971891 
L 368.113151 116.125796 
L 368.611088 116.747892 
L 369.109024 132.249675 
L 369.60696 139.619638 
L 370.104897 153.890428 
L 370.602833 148.458188 
L 371.10077 136.616928 
L 372.096642 148.393121 
L 372.594579 135.148184 
L 373.092515 118.920104 
L 373.590452 144.051957 
L 374.088388 142.651542 
L 374.586325 154.57433 
L 375.084261 159.175917 
L 375.582197 160.426632 
L 376.080134 159.719902 
L 376.57807 167.145148 
L 377.076007 163.035213 
L 377.573943 154.704619 
L 378.07188 161.712909 
L 378.569816 160.749017 
L 379.067752 153.141303 
L 379.565689 161.74552 
L 380.063625 160.856478 
L 380.561562 160.293082 
L 381.059498 163.722376 
L 381.557434 165.852194 
L 382.055371 158.964256 
L 382.553307 160.446044 
L 383.051244 160.674011 
L 383.54918 159.003389 
L 384.047117 159.488674 
L 384.545053 134.552177 
L 385.042989 137.945599 
L 386.038862 148.533194 
L 386.536799 143.742462 
L 387.034735 143.306094 
L 387.532672 157.739785 
L 388.030608 145.426284 
L 388.528544 143.615589 
L 389.026481 143.094432 
L 389.524417 147.18154 
L 390.022354 149.135568 
L 390.52029 152.34994 
L 391.018226 147.347701 
L 391.516163 154.404908 
L 392.512036 159.149984 
L 393.009972 158.156586 
L 394.503781 174.384666 
L 395.001718 173.368596 
L 395.499654 170.974939 
L 395.997591 182.80331 
L 396.495527 177.651216 
L 396.993463 179.715967 
L 397.4914 177.165931 
L 397.989336 180.689642 
L 398.487273 177.104125 
L 398.487273 177.104125 
" clip-path="url(#p49f90aeac0)" style="fill: none; stroke: #0000ff; stroke-width: 1.5; stroke-linecap: square"/>
   </g>
   <g id="patch_3">
    <path d="M 57.6 307.584 
L 57.6 41.472 
" style="fill: none; stroke: #000000; stroke-width: 0.8; stroke-linejoin: miter; stroke-linecap: square"/>
   </g>
   <g id="patch_4">
    <path d="M 414.72 307.584 
L 414.72 41.472 
" style="fill: none; stroke: #000000; stroke-width: 0.8; stroke-linejoin: miter; stroke-linecap: square"/>
   </g>
   <g id="patch_5">
    <path d="M 57.6 307.584 
L 414.72 307.584 
" style="fill: none; stroke: #000000; stroke-width: 0.8; stroke-linejoin: miter; stroke-linecap: square"/>
   </g>
   <g id="patch_6">
    <path d="M 57.6 41.472 
L 414.72 41.472 
" style="fill: none; stroke: #000000; stroke-width: 0.8; stroke-linejoin: miter; stroke-linecap: square"/>
   </g>
   <g id="text_19">
    <!-- EUR price prediction -->
    <g transform="translate(174.960938 35.472)scale(0.12 -0.12)">
     <defs>
      <path id="DejaVuSans-45" d="M 628 4666 
L 3578 4666 
L 3578 4134 
L 1259 4134 
L 1259 2753 
L 3481 2753 
L 3481 2222 
L 1259 2222 
L 1259 531 
L 3634 531 
L 3634 0 
L 628 0 
L 628 4666 
z
" transform="scale(0.015625)"/>
      <path id="DejaVuSans-55" d="M 556 4666 
L 1191 4666 
L 1191 1831 
Q 1191 1081 1462 751 
Q 1734 422 2344 422 
Q 2950 422 3222 751 
Q 3494 1081 3494 1831 
L 3494 4666 
L 4128 4666 
L 4128 1753 
Q 4128 841 3676 375 
Q 3225 -91 2344 -91 
Q 1459 -91 1007 375 
Q 556 841 556 1753 
L 556 4666 
z
" transform="scale(0.015625)"/>
      <path id="DejaVuSans-52" d="M 2841 2188 
Q 3044 2119 3236 1894 
Q 3428 1669 3622 1275 
L 4263 0 
L 3584 0 
L 2988 1197 
Q 2756 1666 2539 1819 
Q 2322 1972 1947 1972 
L 1259 1972 
L 1259 0 
L 628 0 
L 628 4666 
L 2053 4666 
Q 2853 4666 3247 4331 
Q 3641 3997 3641 3322 
Q 3641 2881 3436 2590 
Q 3231 2300 2841 2188 
z
M 1259 4147 
L 1259 2491 
L 2053 2491 
Q 2509 2491 2742 2702 
Q 2975 2913 2975 3322 
Q 2975 3731 2742 3939 
Q 2509 4147 2053 4147 
L 1259 4147 
z
" transform="scale(0.015625)"/>
      <path id="DejaVuSans-20" transform="scale(0.015625)"/>
      <path id="DejaVuSans-70" d="M 1159 525 
L 1159 -1331 
L 581 -1331 
L 581 3500 
L 1159 3500 
L 1159 2969 
Q 1341 3281 1617 3432 
Q 1894 3584 2278 3584 
Q 2916 3584 3314 3078 
Q 3713 2572 3713 1747 
Q 3713 922 3314 415 
Q 2916 -91 2278 -91 
Q 1894 -91 1617 61 
Q 1341 213 1159 525 
z
M 3116 1747 
Q 3116 2381 2855 2742 
Q 2594 3103 2138 3103 
Q 1681 3103 1420 2742 
Q 1159 2381 1159 1747 
Q 1159 1113 1420 752 
Q 1681 391 2138 391 
Q 2594 391 2855 752 
Q 3116 1113 3116 1747 
z
" transform="scale(0.015625)"/>
      <path id="DejaVuSans-64" d="M 2906 2969 
L 2906 4863 
L 3481 4863 
L 3481 0 
L 2906 0 
L 2906 525 
Q 2725 213 2448 61 
Q 2172 -91 1784 -91 
Q 1150 -91 751 415 
Q 353 922 353 1747 
Q 353 2572 751 3078 
Q 1150 3584 1784 3584 
Q 2172 3584 2448 3432 
Q 2725 3281 2906 2969 
z
M 947 1747 
Q 947 1113 1208 752 
Q 1469 391 1925 391 
Q 2381 391 2643 752 
Q 2906 1113 2906 1747 
Q 2906 2381 2643 2742 
Q 2381 3103 1925 3103 
Q 1469 3103 1208 2742 
Q 947 2381 947 1747 
z
" transform="scale(0.015625)"/>
      <path id="DejaVuSans-74" d="M 1172 4494 
L 1172 3500 
L 2356 3500 
L 2356 3053 
L 1172 3053 
L 1172 1153 
Q 1172 725 1289 603 
Q 1406 481 1766 481 
L 2356 481 
L 2356 0 
L 1766 0 
Q 1100 0 847 248 
Q 594 497 594 1153 
L 594 3053 
L 172 3053 
L 172 3500 
L 594 3500 
L 594 4494 
L 1172 4494 
z
" transform="scale(0.015625)"/>
      <path id="DejaVuSans-6f" d="M 1959 3097 
Q 1497 3097 1228 2736 
Q 959 2375 959 1747 
Q 959 1119 1226 758 
Q 1494 397 1959 397 
Q 2419 397 2687 759 
Q 2956 1122 2956 1747 
Q 2956 2369 2687 2733 
Q 2419 3097 1959 3097 
z
M 1959 3584 
Q 2709 3584 3137 3096 
Q 3566 2609 3566 1747 
Q 3566 888 3137 398 
Q 2709 -91 1959 -91 
Q 1206 -91 779 398 
Q 353 888 353 1747 
Q 353 2609 779 3096 
Q 1206 3584 1959 3584 
z
" transform="scale(0.015625)"/>
      <path id="DejaVuSans-6e" d="M 3513 2113 
L 3513 0 
L 2938 0 
L 2938 2094 
Q 2938 2591 2744 2837 
Q 2550 3084 2163 3084 
Q 1697 3084 1428 2787 
Q 1159 2491 1159 1978 
L 1159 0 
L 581 0 
L 581 3500 
L 1159 3500 
L 1159 2956 
Q 1366 3272 1645 3428 
Q 1925 3584 2291 3584 
Q 2894 3584 3203 3211 
Q 3513 2838 3513 2113 
z
" transform="scale(0.015625)"/>
     </defs>
     <use xlink:href="#DejaVuSans-45"/>
     <use xlink:href="#DejaVuSans-55" x="63.183594"/>
     <use xlink:href="#DejaVuSans-52" x="136.376953"/>
     <use xlink:href="#DejaVuSans-20" x="205.859375"/>
     <use xlink:href="#DejaVuSans-70" x="237.646484"/>
     <use xlink:href="#DejaVuSans-72" x="301.123047"/>
     <use xlink:href="#DejaVuSans-69" x="342.236328"/>
     <use xlink:href="#DejaVuSans-63" x="370.019531"/>
     <use xlink:href="#DejaVuSans-65" x="425"/>
     <use xlink:href="#DejaVuSans-20" x="486.523438"/>
     <use xlink:href="#DejaVuSans-70" x="518.310547"/>
     <use xlink:href="#DejaVuSans-72" x="581.787109"/>
     <use xlink:href="#DejaVuSans-65" x="620.650391"/>
     <use xlink:href="#DejaVuSans-64" x="682.173828"/>
     <use xlink:href="#DejaVuSans-69" x="745.650391"/>
     <use xlink:href="#DejaVuSans-63" x="773.433594"/>
     <use xlink:href="#DejaVuSans-74" x="828.414062"/>
     <use xlink:href="#DejaVuSans-69" x="867.623047"/>
     <use xlink:href="#DejaVuSans-6f" x="895.40625"/>
     <use xlink:href="#DejaVuSans-6e" x="956.587891"/>
    </g>
   </g>
   <g id="legend_1">
    <g id="patch_7">
     <path d="M 64.6 93.506375 
L 176.323438 93.506375 
Q 178.323438 93.506375 178.323438 91.506375 
L 178.323438 48.472 
Q 178.323438 46.472 176.323438 46.472 
L 64.6 46.472 
Q 62.6 46.472 62.6 48.472 
L 62.6 91.506375 
Q 62.6 93.506375 64.6 93.506375 
z
" style="fill: #ffffff; opacity: 0.8; stroke: #cccccc; stroke-linejoin: miter"/>
    </g>
    <g id="line2d_20">
     <path d="M 66.6 54.570438 
L 76.6 54.570438 
L 86.6 54.570438 
" style="fill: none; stroke: #000000; stroke-width: 1.5; stroke-linecap: square"/>
    </g>
    <g id="text_20">
     <!-- Actual Prices -->
     <g transform="translate(94.6 58.070438)scale(0.1 -0.1)">
      <defs>
       <path id="DejaVuSans-41" d="M 2188 4044 
L 1331 1722 
L 3047 1722 
L 2188 4044 
z
M 1831 4666 
L 2547 4666 
L 4325 0 
L 3669 0 
L 3244 1197 
L 1141 1197 
L 716 0 
L 50 0 
L 1831 4666 
z
" transform="scale(0.015625)"/>
       <path id="DejaVuSans-75" d="M 544 1381 
L 544 3500 
L 1119 3500 
L 1119 1403 
Q 1119 906 1312 657 
Q 1506 409 1894 409 
Q 2359 409 2629 706 
Q 2900 1003 2900 1516 
L 2900 3500 
L 3475 3500 
L 3475 0 
L 2900 0 
L 2900 538 
Q 2691 219 2414 64 
Q 2138 -91 1772 -91 
Q 1169 -91 856 284 
Q 544 659 544 1381 
z
M 1991 3584 
L 1991 3584 
z
" transform="scale(0.015625)"/>
       <path id="DejaVuSans-61" d="M 2194 1759 
Q 1497 1759 1228 1600 
Q 959 1441 959 1056 
Q 959 750 1161 570 
Q 1363 391 1709 391 
Q 2188 391 2477 730 
Q 2766 1069 2766 1631 
L 2766 1759 
L 2194 1759 
z
M 3341 1997 
L 3341 0 
L 2766 0 
L 2766 531 
Q 2569 213 2275 61 
Q 1981 -91 1556 -91 
Q 1019 -91 701 211 
Q 384 513 384 1019 
Q 384 1609 779 1909 
Q 1175 2209 1959 2209 
L 2766 2209 
L 2766 2266 
Q 2766 2663 2505 2880 
Q 2244 3097 1772 3097 
Q 1472 3097 1187 3025 
Q 903 2953 641 2809 
L 641 3341 
Q 956 3463 1253 3523 
Q 1550 3584 1831 3584 
Q 2591 3584 2966 3190 
Q 3341 2797 3341 1997 
z
" transform="scale(0.015625)"/>
       <path id="DejaVuSans-6c" d="M 603 4863 
L 1178 4863 
L 1178 0 
L 603 0 
L 603 4863 
z
" transform="scale(0.015625)"/>
       <path id="DejaVuSans-73" d="M 2834 3397 
L 2834 2853 
Q 2591 2978 2328 3040 
Q 2066 3103 1784 3103 
Q 1356 3103 1142 2972 
Q 928 2841 928 2578 
Q 928 2378 1081 2264 
Q 1234 2150 1697 2047 
L 1894 2003 
Q 2506 1872 2764 1633 
Q 3022 1394 3022 966 
Q 3022 478 2636 193 
Q 2250 -91 1575 -91 
Q 1294 -91 989 -36 
Q 684 19 347 128 
L 347 722 
Q 666 556 975 473 
Q 1284 391 1588 391 
Q 1994 391 2212 530 
Q 2431 669 2431 922 
Q 2431 1156 2273 1281 
Q 2116 1406 1581 1522 
L 1381 1569 
Q 847 1681 609 1914 
Q 372 2147 372 2553 
Q 372 3047 722 3315 
Q 1072 3584 1716 3584 
Q 2034 3584 2315 3537 
Q 2597 3491 2834 3397 
z
" transform="scale(0.015625)"/>
      </defs>
      <use xlink:href="#DejaVuSans-41"/>
      <use xlink:href="#DejaVuSans-63" x="66.658203"/>
      <use xlink:href="#DejaVuSans-74" x="121.638672"/>
      <use xlink:href="#DejaVuSans-75" x="160.847656"/>
      <use xlink:href="#DejaVuSans-61" x="224.226562"/>
      <use xlink:href="#DejaVuSans-6c" x="285.505859"/>
      <use xlink:href="#DejaVuSans-20" x="313.289062"/>
      <use xlink:href="#DejaVuSans-50" x="345.076172"/>
      <use xlink:href="#DejaVuSans-72" x="403.628906"/>
      <use xlink:href="#DejaVuSans-69" x="444.742188"/>
      <use xlink:href="#DejaVuSans-63" x="472.525391"/>
      <use xlink:href="#DejaVuSans-65" x="527.505859"/>
      <use xlink:href="#DejaVuSans-73" x="589.029297"/>
     </g>
    </g>
    <g id="line2d_21">
     <path d="M 66.6 69.248563 
L 76.6 69.248563 
L 86.6 69.248563 
" style="fill: none; stroke: #008000; stroke-width: 1.5; stroke-linecap: square"/>
    </g>
    <g id="text_21">
     <!-- Predicted Prices -->
     <g transform="translate(94.6 72.748563)scale(0.1 -0.1)">
      <use xlink:href="#DejaVuSans-50"/>
      <use xlink:href="#DejaVuSans-72" x="58.552734"/>
      <use xlink:href="#DejaVuSans-65" x="97.416016"/>
      <use xlink:href="#DejaVuSans-64" x="158.939453"/>
      <use xlink:href="#DejaVuSans-69" x="222.416016"/>
      <use xlink:href="#DejaVuSans-63" x="250.199219"/>
      <use xlink:href="#DejaVuSans-74" x="305.179688"/>
      <use xlink:href="#DejaVuSans-65" x="344.388672"/>
      <use xlink:href="#DejaVuSans-64" x="405.912109"/>
      <use xlink:href="#DejaVuSans-20" x="469.388672"/>
      <use xlink:href="#DejaVuSans-50" x="501.175781"/>
      <use xlink:href="#DejaVuSans-72" x="559.728516"/>
      <use xlink:href="#DejaVuSans-69" x="600.841797"/>
      <use xlink:href="#DejaVuSans-63" x="628.625"/>
      <use xlink:href="#DejaVuSans-65" x="683.605469"/>
      <use xlink:href="#DejaVuSans-73" x="745.128906"/>
     </g>
    </g>
    <g id="line2d_22">
     <path d="M 66.6 83.926688 
L 76.6 83.926688 
L 86.6 83.926688 
" style="fill: none; stroke: #0000ff; stroke-width: 1.5; stroke-linecap: square"/>
    </g>
    <g id="text_22">
     <!-- Naive method -->
     <g transform="translate(94.6 87.426688)scale(0.1 -0.1)">
      <defs>
       <path id="DejaVuSans-4e" d="M 628 4666 
L 1478 4666 
L 3547 763 
L 3547 4666 
L 4159 4666 
L 4159 0 
L 3309 0 
L 1241 3903 
L 1241 0 
L 628 0 
L 628 4666 
z
" transform="scale(0.015625)"/>
       <path id="DejaVuSans-76" d="M 191 3500 
L 800 3500 
L 1894 563 
L 2988 3500 
L 3597 3500 
L 2284 0 
L 1503 0 
L 191 3500 
z
" transform="scale(0.015625)"/>
       <path id="DejaVuSans-68" d="M 3513 2113 
L 3513 0 
L 2938 0 
L 2938 2094 
Q 2938 2591 2744 2837 
Q 2550 3084 2163 3084 
Q 1697 3084 1428 2787 
Q 1159 2491 1159 1978 
L 1159 0 
L 581 0 
L 581 4863 
L 1159 4863 
L 1159 2956 
Q 1366 3272 1645 3428 
Q 1925 3584 2291 3584 
Q 2894 3584 3203 3211 
Q 3513 2838 3513 2113 
z
" transform="scale(0.015625)"/>
      </defs>
      <use xlink:href="#DejaVuSans-4e"/>
      <use xlink:href="#DejaVuSans-61" x="74.804688"/>
      <use xlink:href="#DejaVuSans-69" x="136.083984"/>
      <use xlink:href="#DejaVuSans-76" x="163.867188"/>
      <use xlink:href="#DejaVuSans-65" x="223.046875"/>
      <use xlink:href="#DejaVuSans-20" x="284.570312"/>
      <use xlink:href="#DejaVuSans-6d" x="316.357422"/>
      <use xlink:href="#DejaVuSans-65" x="413.769531"/>
      <use xlink:href="#DejaVuSans-74" x="475.292969"/>
      <use xlink:href="#DejaVuSans-68" x="514.501953"/>
      <use xlink:href="#DejaVuSans-6f" x="577.880859"/>
      <use xlink:href="#DejaVuSans-64" x="639.0625"/>
     </g>
    </g>
   </g>
  </g>
 </g>
 <defs>
  <clipPath id="p49f90aeac0">
   <rect x="57.6" y="41.472" width="357.12" height="266.112"/>
  </clipPath>
 </defs>
</svg>
