<?xml version="1.0" encoding="utf-8" standalone="no"?>
<!DOCTYPE svg PUBLIC "-//W3C//DTD SVG 1.1//EN"
  "http://www.w3.org/Graphics/SVG/1.1/DTD/svg11.dtd">
<svg xmlns:xlink="http://www.w3.org/1999/xlink" width="460.8pt" height="345.6pt" viewBox="0 0 460.8 345.6" xmlns="http://www.w3.org/2000/svg" version="1.1">
 <metadata>
  <rdf:RDF xmlns:dc="http://purl.org/dc/elements/1.1/" xmlns:cc="http://creativecommons.org/ns#" xmlns:rdf="http://www.w3.org/1999/02/22-rdf-syntax-ns#">
   <cc:Work>
    <dc:type rdf:resource="http://purl.org/dc/dcmitype/StillImage"/>
    <dc:date>2022-06-06T21:57:57.731008</dc:date>
    <dc:format>image/svg+xml</dc:format>
    <dc:creator>
     <cc:Agent>
      <dc:title>Matplotlib v3.5.1, https://matplotlib.org/</dc:title>
     </cc:Agent>
    </dc:creator>
   </cc:Work>
  </rdf:RDF>
 </metadata>
 <defs>
  <style type="text/css">*{stroke-linejoin: round; stroke-linecap: butt}</style>
 </defs>
 <g id="figure_1">
  <g id="patch_1">
   <path d="M 0 345.6 
L 460.8 345.6 
L 460.8 0 
L 0 0 
z
" style="fill: #ffffff"/>
  </g>
  <g id="axes_1">
   <g id="patch_2">
    <path d="M 57.6 307.584 
L 414.72 307.584 
L 414.72 41.472 
L 57.6 41.472 
z
" style="fill: #ffffff"/>
   </g>
   <g id="matplotlib.axis_1">
    <g id="xtick_1">
     <g id="line2d_1">
      <defs>
       <path id="m9a83798d36" d="M 0 0 
L 0 3.5 
" style="stroke: #000000; stroke-width: 0.8"/>
      </defs>
      <g>
       <use xlink:href="#m9a83798d36" x="73.832727" y="307.584" style="stroke: #000000; stroke-width: 0.8"/>
      </g>
     </g>
     <g id="text_1">
      <!-- 0 -->
      <g transform="translate(70.651477 322.182437)scale(0.1 -0.1)">
       <defs>
        <path id="DejaVuSans-30" d="M 2034 4250 
Q 1547 4250 1301 3770 
Q 1056 3291 1056 2328 
Q 1056 1369 1301 889 
Q 1547 409 2034 409 
Q 2525 409 2770 889 
Q 3016 1369 3016 2328 
Q 3016 3291 2770 3770 
Q 2525 4250 2034 4250 
z
M 2034 4750 
Q 2819 4750 3233 4129 
Q 3647 3509 3647 2328 
Q 3647 1150 3233 529 
Q 2819 -91 2034 -91 
Q 1250 -91 836 529 
Q 422 1150 422 2328 
Q 422 3509 836 4129 
Q 1250 4750 2034 4750 
z
" transform="scale(0.015625)"/>
       </defs>
       <use xlink:href="#DejaVuSans-30"/>
      </g>
     </g>
    </g>
    <g id="xtick_2">
     <g id="line2d_2">
      <g>
       <use xlink:href="#m9a83798d36" x="126.880856" y="307.584" style="stroke: #000000; stroke-width: 0.8"/>
      </g>
     </g>
     <g id="text_2">
      <!-- 100 -->
      <g transform="translate(117.337106 322.182437)scale(0.1 -0.1)">
       <defs>
        <path id="DejaVuSans-31" d="M 794 531 
L 1825 531 
L 1825 4091 
L 703 3866 
L 703 4441 
L 1819 4666 
L 2450 4666 
L 2450 531 
L 3481 531 
L 3481 0 
L 794 0 
L 794 531 
z
" transform="scale(0.015625)"/>
       </defs>
       <use xlink:href="#DejaVuSans-31"/>
       <use xlink:href="#DejaVuSans-30" x="63.623047"/>
       <use xlink:href="#DejaVuSans-30" x="127.246094"/>
      </g>
     </g>
    </g>
    <g id="xtick_3">
     <g id="line2d_3">
      <g>
       <use xlink:href="#m9a83798d36" x="179.928984" y="307.584" style="stroke: #000000; stroke-width: 0.8"/>
      </g>
     </g>
     <g id="text_3">
      <!-- 200 -->
      <g transform="translate(170.385234 322.182437)scale(0.1 -0.1)">
       <defs>
        <path id="DejaVuSans-32" d="M 1228 531 
L 3431 531 
L 3431 0 
L 469 0 
L 469 531 
Q 828 903 1448 1529 
Q 2069 2156 2228 2338 
Q 2531 2678 2651 2914 
Q 2772 3150 2772 3378 
Q 2772 3750 2511 3984 
Q 2250 4219 1831 4219 
Q 1534 4219 1204 4116 
Q 875 4013 500 3803 
L 500 4441 
Q 881 4594 1212 4672 
Q 1544 4750 1819 4750 
Q 2544 4750 2975 4387 
Q 3406 4025 3406 3419 
Q 3406 3131 3298 2873 
Q 3191 2616 2906 2266 
Q 2828 2175 2409 1742 
Q 1991 1309 1228 531 
z
" transform="scale(0.015625)"/>
       </defs>
       <use xlink:href="#DejaVuSans-32"/>
       <use xlink:href="#DejaVuSans-30" x="63.623047"/>
       <use xlink:href="#DejaVuSans-30" x="127.246094"/>
      </g>
     </g>
    </g>
    <g id="xtick_4">
     <g id="line2d_4">
      <g>
       <use xlink:href="#m9a83798d36" x="232.977112" y="307.584" style="stroke: #000000; stroke-width: 0.8"/>
      </g>
     </g>
     <g id="text_4">
      <!-- 300 -->
      <g transform="translate(223.433362 322.182437)scale(0.1 -0.1)">
       <defs>
        <path id="DejaVuSans-33" d="M 2597 2516 
Q 3050 2419 3304 2112 
Q 3559 1806 3559 1356 
Q 3559 666 3084 287 
Q 2609 -91 1734 -91 
Q 1441 -91 1130 -33 
Q 819 25 488 141 
L 488 750 
Q 750 597 1062 519 
Q 1375 441 1716 441 
Q 2309 441 2620 675 
Q 2931 909 2931 1356 
Q 2931 1769 2642 2001 
Q 2353 2234 1838 2234 
L 1294 2234 
L 1294 2753 
L 1863 2753 
Q 2328 2753 2575 2939 
Q 2822 3125 2822 3475 
Q 2822 3834 2567 4026 
Q 2313 4219 1838 4219 
Q 1578 4219 1281 4162 
Q 984 4106 628 3988 
L 628 4550 
Q 988 4650 1302 4700 
Q 1616 4750 1894 4750 
Q 2613 4750 3031 4423 
Q 3450 4097 3450 3541 
Q 3450 3153 3228 2886 
Q 3006 2619 2597 2516 
z
" transform="scale(0.015625)"/>
       </defs>
       <use xlink:href="#DejaVuSans-33"/>
       <use xlink:href="#DejaVuSans-30" x="63.623047"/>
       <use xlink:href="#DejaVuSans-30" x="127.246094"/>
      </g>
     </g>
    </g>
    <g id="xtick_5">
     <g id="line2d_5">
      <g>
       <use xlink:href="#m9a83798d36" x="286.025241" y="307.584" style="stroke: #000000; stroke-width: 0.8"/>
      </g>
     </g>
     <g id="text_5">
      <!-- 400 -->
      <g transform="translate(276.481491 322.182437)scale(0.1 -0.1)">
       <defs>
        <path id="DejaVuSans-34" d="M 2419 4116 
L 825 1625 
L 2419 1625 
L 2419 4116 
z
M 2253 4666 
L 3047 4666 
L 3047 1625 
L 3713 1625 
L 3713 1100 
L 3047 1100 
L 3047 0 
L 2419 0 
L 2419 1100 
L 313 1100 
L 313 1709 
L 2253 4666 
z
" transform="scale(0.015625)"/>
       </defs>
       <use xlink:href="#DejaVuSans-34"/>
       <use xlink:href="#DejaVuSans-30" x="63.623047"/>
       <use xlink:href="#DejaVuSans-30" x="127.246094"/>
      </g>
     </g>
    </g>
    <g id="xtick_6">
     <g id="line2d_6">
      <g>
       <use xlink:href="#m9a83798d36" x="339.073369" y="307.584" style="stroke: #000000; stroke-width: 0.8"/>
      </g>
     </g>
     <g id="text_6">
      <!-- 500 -->
      <g transform="translate(329.529619 322.182437)scale(0.1 -0.1)">
       <defs>
        <path id="DejaVuSans-35" d="M 691 4666 
L 3169 4666 
L 3169 4134 
L 1269 4134 
L 1269 2991 
Q 1406 3038 1543 3061 
Q 1681 3084 1819 3084 
Q 2600 3084 3056 2656 
Q 3513 2228 3513 1497 
Q 3513 744 3044 326 
Q 2575 -91 1722 -91 
Q 1428 -91 1123 -41 
Q 819 9 494 109 
L 494 744 
Q 775 591 1075 516 
Q 1375 441 1709 441 
Q 2250 441 2565 725 
Q 2881 1009 2881 1497 
Q 2881 1984 2565 2268 
Q 2250 2553 1709 2553 
Q 1456 2553 1204 2497 
Q 953 2441 691 2322 
L 691 4666 
z
" transform="scale(0.015625)"/>
       </defs>
       <use xlink:href="#DejaVuSans-35"/>
       <use xlink:href="#DejaVuSans-30" x="63.623047"/>
       <use xlink:href="#DejaVuSans-30" x="127.246094"/>
      </g>
     </g>
    </g>
    <g id="xtick_7">
     <g id="line2d_7">
      <g>
       <use xlink:href="#m9a83798d36" x="392.121497" y="307.584" style="stroke: #000000; stroke-width: 0.8"/>
      </g>
     </g>
     <g id="text_7">
      <!-- 600 -->
      <g transform="translate(382.577747 322.182437)scale(0.1 -0.1)">
       <defs>
        <path id="DejaVuSans-36" d="M 2113 2584 
Q 1688 2584 1439 2293 
Q 1191 2003 1191 1497 
Q 1191 994 1439 701 
Q 1688 409 2113 409 
Q 2538 409 2786 701 
Q 3034 994 3034 1497 
Q 3034 2003 2786 2293 
Q 2538 2584 2113 2584 
z
M 3366 4563 
L 3366 3988 
Q 3128 4100 2886 4159 
Q 2644 4219 2406 4219 
Q 1781 4219 1451 3797 
Q 1122 3375 1075 2522 
Q 1259 2794 1537 2939 
Q 1816 3084 2150 3084 
Q 2853 3084 3261 2657 
Q 3669 2231 3669 1497 
Q 3669 778 3244 343 
Q 2819 -91 2113 -91 
Q 1303 -91 875 529 
Q 447 1150 447 2328 
Q 447 3434 972 4092 
Q 1497 4750 2381 4750 
Q 2619 4750 2861 4703 
Q 3103 4656 3366 4563 
z
" transform="scale(0.015625)"/>
       </defs>
       <use xlink:href="#DejaVuSans-36"/>
       <use xlink:href="#DejaVuSans-30" x="63.623047"/>
       <use xlink:href="#DejaVuSans-30" x="127.246094"/>
      </g>
     </g>
    </g>
    <g id="text_8">
     <!-- Time -->
     <g transform="translate(223.926406 335.860562)scale(0.1 -0.1)">
      <defs>
       <path id="DejaVuSans-54" d="M -19 4666 
L 3928 4666 
L 3928 4134 
L 2272 4134 
L 2272 0 
L 1638 0 
L 1638 4134 
L -19 4134 
L -19 4666 
z
" transform="scale(0.015625)"/>
       <path id="DejaVuSans-69" d="M 603 3500 
L 1178 3500 
L 1178 0 
L 603 0 
L 603 3500 
z
M 603 4863 
L 1178 4863 
L 1178 4134 
L 603 4134 
L 603 4863 
z
" transform="scale(0.015625)"/>
       <path id="DejaVuSans-6d" d="M 3328 2828 
Q 3544 3216 3844 3400 
Q 4144 3584 4550 3584 
Q 5097 3584 5394 3201 
Q 5691 2819 5691 2113 
L 5691 0 
L 5113 0 
L 5113 2094 
Q 5113 2597 4934 2840 
Q 4756 3084 4391 3084 
Q 3944 3084 3684 2787 
Q 3425 2491 3425 1978 
L 3425 0 
L 2847 0 
L 2847 2094 
Q 2847 2600 2669 2842 
Q 2491 3084 2119 3084 
Q 1678 3084 1418 2786 
Q 1159 2488 1159 1978 
L 1159 0 
L 581 0 
L 581 3500 
L 1159 3500 
L 1159 2956 
Q 1356 3278 1631 3431 
Q 1906 3584 2284 3584 
Q 2666 3584 2933 3390 
Q 3200 3197 3328 2828 
z
" transform="scale(0.015625)"/>
       <path id="DejaVuSans-65" d="M 3597 1894 
L 3597 1613 
L 953 1613 
Q 991 1019 1311 708 
Q 1631 397 2203 397 
Q 2534 397 2845 478 
Q 3156 559 3463 722 
L 3463 178 
Q 3153 47 2828 -22 
Q 2503 -91 2169 -91 
Q 1331 -91 842 396 
Q 353 884 353 1716 
Q 353 2575 817 3079 
Q 1281 3584 2069 3584 
Q 2775 3584 3186 3129 
Q 3597 2675 3597 1894 
z
M 3022 2063 
Q 3016 2534 2758 2815 
Q 2500 3097 2075 3097 
Q 1594 3097 1305 2825 
Q 1016 2553 972 2059 
L 3022 2063 
z
" transform="scale(0.015625)"/>
      </defs>
      <use xlink:href="#DejaVuSans-54"/>
      <use xlink:href="#DejaVuSans-69" x="57.958984"/>
      <use xlink:href="#DejaVuSans-6d" x="85.742188"/>
      <use xlink:href="#DejaVuSans-65" x="183.154297"/>
     </g>
    </g>
   </g>
   <g id="matplotlib.axis_2">
    <g id="ytick_1">
     <g id="line2d_8">
      <defs>
       <path id="m13e1ee2f0b" d="M 0 0 
L -3.5 0 
" style="stroke: #000000; stroke-width: 0.8"/>
      </defs>
      <g>
       <use xlink:href="#m13e1ee2f0b" x="57.6" y="276.822717" style="stroke: #000000; stroke-width: 0.8"/>
      </g>
     </g>
     <g id="text_9">
      <!-- 4.3 -->
      <g transform="translate(34.696875 280.621935)scale(0.1 -0.1)">
       <defs>
        <path id="DejaVuSans-2e" d="M 684 794 
L 1344 794 
L 1344 0 
L 684 0 
L 684 794 
z
" transform="scale(0.015625)"/>
       </defs>
       <use xlink:href="#DejaVuSans-34"/>
       <use xlink:href="#DejaVuSans-2e" x="63.623047"/>
       <use xlink:href="#DejaVuSans-33" x="95.410156"/>
      </g>
     </g>
    </g>
    <g id="ytick_2">
     <g id="line2d_9">
      <g>
       <use xlink:href="#m13e1ee2f0b" x="57.6" y="243.227846" style="stroke: #000000; stroke-width: 0.8"/>
      </g>
     </g>
     <g id="text_10">
      <!-- 4.4 -->
      <g transform="translate(34.696875 247.027065)scale(0.1 -0.1)">
       <use xlink:href="#DejaVuSans-34"/>
       <use xlink:href="#DejaVuSans-2e" x="63.623047"/>
       <use xlink:href="#DejaVuSans-34" x="95.410156"/>
      </g>
     </g>
    </g>
    <g id="ytick_3">
     <g id="line2d_10">
      <g>
       <use xlink:href="#m13e1ee2f0b" x="57.6" y="209.632976" style="stroke: #000000; stroke-width: 0.8"/>
      </g>
     </g>
     <g id="text_11">
      <!-- 4.5 -->
      <g transform="translate(34.696875 213.432195)scale(0.1 -0.1)">
       <use xlink:href="#DejaVuSans-34"/>
       <use xlink:href="#DejaVuSans-2e" x="63.623047"/>
       <use xlink:href="#DejaVuSans-35" x="95.410156"/>
      </g>
     </g>
    </g>
    <g id="ytick_4">
     <g id="line2d_11">
      <g>
       <use xlink:href="#m13e1ee2f0b" x="57.6" y="176.038106" style="stroke: #000000; stroke-width: 0.8"/>
      </g>
     </g>
     <g id="text_12">
      <!-- 4.6 -->
      <g transform="translate(34.696875 179.837324)scale(0.1 -0.1)">
       <use xlink:href="#DejaVuSans-34"/>
       <use xlink:href="#DejaVuSans-2e" x="63.623047"/>
       <use xlink:href="#DejaVuSans-36" x="95.410156"/>
      </g>
     </g>
    </g>
    <g id="ytick_5">
     <g id="line2d_12">
      <g>
       <use xlink:href="#m13e1ee2f0b" x="57.6" y="142.443235" style="stroke: #000000; stroke-width: 0.8"/>
      </g>
     </g>
     <g id="text_13">
      <!-- 4.7 -->
      <g transform="translate(34.696875 146.242454)scale(0.1 -0.1)">
       <defs>
        <path id="DejaVuSans-37" d="M 525 4666 
L 3525 4666 
L 3525 4397 
L 1831 0 
L 1172 0 
L 2766 4134 
L 525 4134 
L 525 4666 
z
" transform="scale(0.015625)"/>
       </defs>
       <use xlink:href="#DejaVuSans-34"/>
       <use xlink:href="#DejaVuSans-2e" x="63.623047"/>
       <use xlink:href="#DejaVuSans-37" x="95.410156"/>
      </g>
     </g>
    </g>
    <g id="ytick_6">
     <g id="line2d_13">
      <g>
       <use xlink:href="#m13e1ee2f0b" x="57.6" y="108.848365" style="stroke: #000000; stroke-width: 0.8"/>
      </g>
     </g>
     <g id="text_14">
      <!-- 4.8 -->
      <g transform="translate(34.696875 112.647584)scale(0.1 -0.1)">
       <defs>
        <path id="DejaVuSans-38" d="M 2034 2216 
Q 1584 2216 1326 1975 
Q 1069 1734 1069 1313 
Q 1069 891 1326 650 
Q 1584 409 2034 409 
Q 2484 409 2743 651 
Q 3003 894 3003 1313 
Q 3003 1734 2745 1975 
Q 2488 2216 2034 2216 
z
M 1403 2484 
Q 997 2584 770 2862 
Q 544 3141 544 3541 
Q 544 4100 942 4425 
Q 1341 4750 2034 4750 
Q 2731 4750 3128 4425 
Q 3525 4100 3525 3541 
Q 3525 3141 3298 2862 
Q 3072 2584 2669 2484 
Q 3125 2378 3379 2068 
Q 3634 1759 3634 1313 
Q 3634 634 3220 271 
Q 2806 -91 2034 -91 
Q 1263 -91 848 271 
Q 434 634 434 1313 
Q 434 1759 690 2068 
Q 947 2378 1403 2484 
z
M 1172 3481 
Q 1172 3119 1398 2916 
Q 1625 2713 2034 2713 
Q 2441 2713 2670 2916 
Q 2900 3119 2900 3481 
Q 2900 3844 2670 4047 
Q 2441 4250 2034 4250 
Q 1625 4250 1398 4047 
Q 1172 3844 1172 3481 
z
" transform="scale(0.015625)"/>
       </defs>
       <use xlink:href="#DejaVuSans-34"/>
       <use xlink:href="#DejaVuSans-2e" x="63.623047"/>
       <use xlink:href="#DejaVuSans-38" x="95.410156"/>
      </g>
     </g>
    </g>
    <g id="ytick_7">
     <g id="line2d_14">
      <g>
       <use xlink:href="#m13e1ee2f0b" x="57.6" y="75.253495" style="stroke: #000000; stroke-width: 0.8"/>
      </g>
     </g>
     <g id="text_15">
      <!-- 4.9 -->
      <g transform="translate(34.696875 79.052714)scale(0.1 -0.1)">
       <defs>
        <path id="DejaVuSans-39" d="M 703 97 
L 703 672 
Q 941 559 1184 500 
Q 1428 441 1663 441 
Q 2288 441 2617 861 
Q 2947 1281 2994 2138 
Q 2813 1869 2534 1725 
Q 2256 1581 1919 1581 
Q 1219 1581 811 2004 
Q 403 2428 403 3163 
Q 403 3881 828 4315 
Q 1253 4750 1959 4750 
Q 2769 4750 3195 4129 
Q 3622 3509 3622 2328 
Q 3622 1225 3098 567 
Q 2575 -91 1691 -91 
Q 1453 -91 1209 -44 
Q 966 3 703 97 
z
M 1959 2075 
Q 2384 2075 2632 2365 
Q 2881 2656 2881 3163 
Q 2881 3666 2632 3958 
Q 2384 4250 1959 4250 
Q 1534 4250 1286 3958 
Q 1038 3666 1038 3163 
Q 1038 2656 1286 2365 
Q 1534 2075 1959 2075 
z
" transform="scale(0.015625)"/>
       </defs>
       <use xlink:href="#DejaVuSans-34"/>
       <use xlink:href="#DejaVuSans-2e" x="63.623047"/>
       <use xlink:href="#DejaVuSans-39" x="95.410156"/>
      </g>
     </g>
    </g>
    <g id="ytick_8">
     <g id="line2d_15">
      <g>
       <use xlink:href="#m13e1ee2f0b" x="57.6" y="41.658625" style="stroke: #000000; stroke-width: 0.8"/>
      </g>
     </g>
     <g id="text_16">
      <!-- 5.0 -->
      <g transform="translate(34.696875 45.457843)scale(0.1 -0.1)">
       <use xlink:href="#DejaVuSans-35"/>
       <use xlink:href="#DejaVuSans-2e" x="63.623047"/>
       <use xlink:href="#DejaVuSans-30" x="95.410156"/>
      </g>
     </g>
    </g>
    <g id="text_17">
     <!-- Price -->
     <g transform="translate(28.617188 186.725656)rotate(-90)scale(0.1 -0.1)">
      <defs>
       <path id="DejaVuSans-50" d="M 1259 4147 
L 1259 2394 
L 2053 2394 
Q 2494 2394 2734 2622 
Q 2975 2850 2975 3272 
Q 2975 3691 2734 3919 
Q 2494 4147 2053 4147 
L 1259 4147 
z
M 628 4666 
L 2053 4666 
Q 2838 4666 3239 4311 
Q 3641 3956 3641 3272 
Q 3641 2581 3239 2228 
Q 2838 1875 2053 1875 
L 1259 1875 
L 1259 0 
L 628 0 
L 628 4666 
z
" transform="scale(0.015625)"/>
       <path id="DejaVuSans-72" d="M 2631 2963 
Q 2534 3019 2420 3045 
Q 2306 3072 2169 3072 
Q 1681 3072 1420 2755 
Q 1159 2438 1159 1844 
L 1159 0 
L 581 0 
L 581 3500 
L 1159 3500 
L 1159 2956 
Q 1341 3275 1631 3429 
Q 1922 3584 2338 3584 
Q 2397 3584 2469 3576 
Q 2541 3569 2628 3553 
L 2631 2963 
z
" transform="scale(0.015625)"/>
       <path id="DejaVuSans-63" d="M 3122 3366 
L 3122 2828 
Q 2878 2963 2633 3030 
Q 2388 3097 2138 3097 
Q 1578 3097 1268 2742 
Q 959 2388 959 1747 
Q 959 1106 1268 751 
Q 1578 397 2138 397 
Q 2388 397 2633 464 
Q 2878 531 3122 666 
L 3122 134 
Q 2881 22 2623 -34 
Q 2366 -91 2075 -91 
Q 1284 -91 818 406 
Q 353 903 353 1747 
Q 353 2603 823 3093 
Q 1294 3584 2113 3584 
Q 2378 3584 2631 3529 
Q 2884 3475 3122 3366 
z
" transform="scale(0.015625)"/>
      </defs>
      <use xlink:href="#DejaVuSans-50"/>
      <use xlink:href="#DejaVuSans-72" x="58.552734"/>
      <use xlink:href="#DejaVuSans-69" x="99.666016"/>
      <use xlink:href="#DejaVuSans-63" x="127.449219"/>
      <use xlink:href="#DejaVuSans-65" x="182.429688"/>
     </g>
    </g>
   </g>
   <g id="line2d_16">
    <path d="M 73.832727 284.667135 
L 74.363209 286.56526 
L 74.89369 281.895479 
L 75.424171 279.241564 
L 75.954652 278.267271 
L 76.485134 277.770033 
L 77.015615 285.557326 
L 77.546096 295.131891 
L 78.607059 286.491251 
L 79.668021 291.671726 
L 80.728984 295.488 
L 81.259465 295.131891 
L 81.789947 290.39499 
L 82.320428 288.130824 
L 82.850909 287.102707 
L 83.38139 284.583194 
L 84.442353 274.773466 
L 84.972834 275.008629 
L 86.564278 266.085728 
L 87.094759 271.931325 
L 87.625241 274.387081 
L 88.155722 278.233631 
L 89.216684 272.556237 
L 89.747166 267.523619 
L 90.277647 275.643473 
L 90.808128 268.182172 
L 91.33861 251.428405 
L 91.869091 253.679275 
L 92.399572 231.221042 
L 93.460535 212.579242 
L 93.991016 190.853411 
L 94.521497 209.417997 
L 95.051979 176.08171 
L 95.58246 174.36172 
L 96.112941 188.50178 
L 96.643422 205.860275 
L 97.173904 198.674345 
L 97.704385 195.825476 
L 98.234866 191.84116 
L 98.765348 177.509509 
L 99.295829 187.964333 
L 99.82631 181.097508 
L 100.356791 189.308031 
L 100.887273 202.053933 
L 101.417754 199.95765 
L 101.948235 194.407769 
L 102.478717 193.191585 
L 103.009198 196.060639 
L 103.539679 203.350694 
L 104.07016 197.135693 
L 104.600642 199.789607 
L 105.131123 205.01702 
L 105.661604 202.410042 
L 106.192086 199.010269 
L 106.722567 193.205042 
L 107.253048 195.892597 
L 107.783529 197.270095 
L 108.314011 197.774061 
L 108.844492 193.507486 
L 109.374973 194.112214 
L 109.905455 196.450388 
L 110.435936 187.292324 
L 110.966417 193.80977 
L 111.496898 197.337216 
L 112.02738 193.389904 
L 112.557861 193.057344 
L 113.088342 194.088665 
L 113.618824 190.920692 
L 114.149305 188.770584 
L 114.679786 187.561128 
L 115.210267 189.576834 
L 115.740749 187.829932 
L 116.27123 189.959855 
L 116.801711 195.126715 
L 117.332193 197.841182 
L 117.862674 205.33276 
L 118.393155 204.660911 
L 118.923636 209.565855 
L 119.454118 230.025042 
L 119.984599 233.98597 
L 120.51508 224.616291 
L 121.045561 232.225451 
L 121.576043 242.683639 
L 122.106524 249.120347 
L 123.167487 232.00038 
L 123.697968 232.544715 
L 124.228449 235.749693 
L 125.819893 219.167172 
L 126.880856 238.682503 
L 127.411337 228.546943 
L 127.941818 222.314961 
L 128.472299 227.169445 
L 129.002781 220.863775 
L 129.533262 230.898573 
L 130.063743 228.452749 
L 130.594225 224.48189 
L 131.124706 226.369922 
L 131.655187 221.592812 
L 132.185668 225.328509 
L 132.71615 228.180742 
L 133.246631 218.166127 
L 133.777112 222.314961 
L 134.307594 222.610677 
L 134.838075 221.965581 
L 135.368556 218.585993 
L 135.899037 218.528964 
L 136.429519 221.928736 
L 136.96 221.021564 
L 137.490481 213.190698 
L 138.020963 219.066411 
L 138.551444 217.830203 
L 139.081925 217.158194 
L 139.612406 217.987993 
L 140.673369 232.635384 
L 141.20385 236.401357 
L 141.734332 241.850476 
L 142.264813 242.068819 
L 142.795294 246.533553 
L 143.325775 239.639976 
L 143.856257 242.367739 
L 144.386738 241.682434 
L 144.917219 235.944487 
L 145.978182 244.568308 
L 146.508663 243.667864 
L 147.039144 238.826997 
L 147.569626 240.036293 
L 148.100107 243.977036 
L 148.630588 241.642226 
L 149.16107 243.899823 
L 149.691551 244.218927 
L 150.222032 244.840475 
L 150.752513 244.682525 
L 151.282995 251.317552 
L 151.813476 243.590651 
L 152.343957 250.685912 
L 152.874439 240.439498 
L 153.40492 246.113688 
L 153.935401 244.558216 
L 154.465882 240.066569 
L 154.996364 241.178628 
L 155.526845 249.106891 
L 156.057326 244.689253 
L 156.587807 247.833678 
L 158.179251 224.51553 
L 158.709733 233.250204 
L 159.240214 227.707052 
L 159.770695 231.3689 
L 160.301176 226.262433 
L 160.831658 228.479662 
L 161.362139 229.252432 
L 161.89262 226.262433 
L 162.423102 228.076617 
L 162.953583 226.171764 
L 163.484064 226.396835 
L 164.014545 212.908439 
L 164.545027 215.542329 
L 165.075508 205.82327 
L 165.605989 193.917259 
L 166.136471 192.533193 
L 166.666952 180.939558 
L 167.197433 200.458252 
L 167.727914 199.554444 
L 168.258396 217.561399 
L 168.788877 212.750649 
L 169.319358 212.229862 
L 169.84984 213.936556 
L 170.380321 216.82227 
L 170.910802 215.646454 
L 171.441283 222.1639 
L 171.971765 224.854819 
L 172.502246 212.548966 
L 173.032727 205.641932 
L 173.563209 196.262161 
L 174.09369 195.489551 
L 174.624171 186.418953 
L 175.154652 189.533102 
L 175.685134 186.821998 
L 176.215615 185.636091 
L 176.746096 187.809747 
L 177.276578 183.919465 
L 177.807059 181.14124 
L 178.33754 166.141105 
L 178.868021 168.680802 
L 179.398503 173.76372 
L 179.928984 176.111987 
L 180.459465 196.332807 
L 180.989947 198.227567 
L 181.520428 202.114486 
L 182.050909 208.803177 
L 182.58139 216.923031 
L 183.111872 211.010314 
L 183.642353 217.393357 
L 184.172834 214.470639 
L 184.703316 215.932078 
L 185.233797 221.055205 
L 185.764278 214.131351 
L 186.294759 221.327373 
L 186.825241 221.794335 
L 187.355722 221.673389 
L 187.886203 220.030612 
L 188.416684 223.205313 
L 188.947166 223.138192 
L 190.008128 214.393426 
L 190.53861 217.037249 
L 191.069091 228.731645 
L 191.599572 219.247749 
L 192.130053 220.682276 
L 192.660535 220.920803 
L 193.191016 218.663206 
L 194.251979 234.570513 
L 194.78246 234.426019 
L 195.312941 229.302733 
L 195.843422 232.252363 
L 196.373904 231.795493 
L 197.434866 232.107869 
L 197.965348 217.255591 
L 199.02631 207.65091 
L 199.556791 210.046113 
L 200.087273 210.842432 
L 200.617754 209.790926 
L 201.148235 213.194062 
L 202.209198 183.123306 
L 202.739679 198.848955 
L 203.27016 190.604792 
L 203.800642 191.827704 
L 204.331123 199.829976 
L 205.922567 206.209655 
L 206.453048 202.074117 
L 206.983529 203.17272 
L 207.514011 197.471617 
L 208.044492 197.337216 
L 208.574973 198.207383 
L 209.105455 199.712395 
L 209.635936 198.660889 
L 210.166417 199.151399 
L 210.696898 200.024771 
L 211.22738 196.907258 
L 211.757861 196.7594 
L 212.288342 196.362923 
L 212.818824 194.155786 
L 213.349305 197.437977 
L 213.879786 204.526509 
L 214.410267 206.992357 
L 214.940749 216.39904 
L 215.47123 215.982379 
L 216.001711 211.077595 
L 216.532193 215.444932 
L 217.062674 218.770855 
L 217.593155 219.677867 
L 218.123636 212.723736 
L 218.654118 210.607269 
L 219.184599 211.682323 
L 219.71508 216.08314 
L 220.245561 212.186129 
L 220.776043 213.46623 
L 221.306524 213.630748 
L 221.837005 215.317258 
L 222.897968 207.254433 
L 223.428449 208.336215 
L 223.95893 203.935238 
L 224.489412 203.572401 
L 225.019893 200.427976 
L 225.550374 198.647433 
L 226.080856 194.978857 
L 226.611337 189.526374 
L 227.141818 181.503917 
L 227.672299 177.694371 
L 228.202781 187.443546 
L 228.733262 184.769448 
L 229.263743 182.878051 
L 229.794225 183.402042 
L 230.324706 180.207156 
L 230.855187 179.196019 
L 231.385668 177.318078 
L 231.91615 169.799588 
L 232.446631 169.221773 
L 232.977112 179.095258 
L 233.507594 169.964106 
L 234.038075 167.9484 
L 234.568556 165.469096 
L 235.099037 166.094008 
L 235.629519 155.444389 
L 236.16 158.232865 
L 236.690481 166.900258 
L 237.220963 180.647366 
L 237.751444 176.23966 
L 238.281925 179.995541 
L 238.812406 180.674118 
L 239.342888 186.062845 
L 239.873369 195.07289 
L 240.40385 199.34283 
L 240.934332 199.69221 
L 241.464813 188.938466 
L 241.995294 192.969879 
L 242.525775 192.939762 
L 243.056257 196.151308 
L 243.586738 193.016975 
L 244.117219 192.835477 
L 244.647701 191.340557 
L 245.178182 188.582357 
L 245.708663 192.61377 
L 246.239144 191.189335 
L 246.769626 186.885915 
L 247.300107 185.41102 
L 248.36107 190.164742 
L 248.891551 196.195041 
L 249.422032 191.938557 
L 249.952513 185.034887 
L 250.482995 186.620476 
L 251.013476 192.496188 
L 251.543957 190.201747 
L 252.074439 196.72576 
L 252.60492 192.335034 
L 253.135401 202.342921 
L 253.665882 201.341716 
L 254.196364 200.669867 
L 254.726845 202.840159 
L 255.257326 202.880368 
L 255.787807 211.692415 
L 256.318289 212.475117 
L 256.84877 217.258955 
L 257.379251 217.057433 
L 257.909733 210.073026 
L 258.970695 215.90853 
L 259.501176 218.40129 
L 260.031658 224.549171 
L 260.562139 225.892868 
L 261.09262 223.081003 
L 261.623102 225.368877 
L 262.153583 221.45841 
L 262.684064 223.810041 
L 263.214545 220.013791 
L 263.745027 220.991448 
L 264.275508 210.939829 
L 264.805989 203.693346 
L 265.336471 201.267867 
L 265.866952 201.529942 
L 266.397433 190.695621 
L 266.927914 192.805361 
L 267.458396 200.854569 
L 267.988877 205.601563 
L 268.519358 200.559014 
L 269.04984 203.915053 
L 269.580321 206.055069 
L 270.110802 209.562491 
L 270.641283 203.78754 
L 271.171765 202.628385 
L 271.702246 204.933079 
L 272.232727 206.424634 
L 272.763209 209.733737 
L 273.29369 205.379856 
L 273.824171 198.734738 
L 274.354652 197.263367 
L 275.415615 192.758264 
L 275.946096 183.785063 
L 276.476578 189.106508 
L 277.007059 183.966561 
L 277.53754 181.708964 
L 278.068021 178.591291 
L 278.598503 179.162378 
L 279.659465 188.857889 
L 280.720428 178.826454 
L 281.250909 177.41884 
L 281.78139 178.759333 
L 282.311872 186.78179 
L 282.842353 187.964333 
L 284.433797 195.872573 
L 284.964278 194.525351 
L 285.494759 185.914987 
L 286.025241 188.582357 
L 286.555722 184.577857 
L 287.086203 183.640569 
L 287.616684 185.649547 
L 288.147166 188.112031 
L 288.677647 191.122215 
L 289.208128 189.069504 
L 289.73861 191.189335 
L 290.269091 182.683096 
L 290.799572 184.537649 
L 291.330053 182.326988 
L 291.860535 185.55215 
L 292.391016 185.364083 
L 292.921497 185.353991 
L 293.451979 184.981062 
L 293.98246 190.806474 
L 294.512941 202.594904 
L 295.043422 208.221998 
L 295.573904 205.98122 
L 296.104385 207.325078 
L 296.634866 202.473959 
L 297.165348 205.924032 
L 297.695829 205.164878 
L 298.22631 195.748263 
L 298.756791 196.564606 
L 299.287273 193.923987 
L 299.817754 193.389904 
L 300.348235 188.431295 
L 300.878717 185.558878 
L 301.409198 180.942922 
L 301.939679 174.714464 
L 302.47016 170.326943 
L 303.000642 170.038116 
L 303.531123 172.987746 
L 304.061604 174.539854 
L 304.592086 176.888121 
L 305.122567 164.619273 
L 305.653048 165.922762 
L 306.714011 183.953105 
L 307.774973 175.238615 
L 308.305455 194.58254 
L 308.835936 181.161264 
L 309.366417 175.409861 
L 309.896898 182.058344 
L 310.42738 181.829909 
L 310.957861 185.085188 
L 311.488342 186.250911 
L 312.018824 189.123328 
L 312.549305 181.503917 
L 313.079786 182.326988 
L 313.610267 182.400997 
L 314.140749 175.46705 
L 314.67123 177.785041 
L 315.201711 172.947377 
L 315.732193 173.88803 
L 316.262674 169.537513 
L 316.793155 169.419931 
L 317.323636 173.62259 
L 317.854118 171.059345 
L 318.384599 175.332649 
L 318.91508 182.992268 
L 319.445561 176.928329 
L 319.976043 176.851116 
L 320.506524 179.767106 
L 321.037005 180.170312 
L 321.567487 174.082824 
L 322.097968 165.33149 
L 322.628449 163.211658 
L 323.15893 161.827432 
L 324.750374 153.710942 
L 325.811337 141.149903 
L 326.341818 141.549584 
L 326.872299 150.321262 
L 327.402781 150.237321 
L 327.933262 141.489191 
L 328.994225 158.232865 
L 329.524706 169.419931 
L 330.055187 177.613634 
L 330.585668 177.348355 
L 331.11615 179.565584 
L 331.646631 183.328193 
L 332.177112 173.669687 
L 332.707594 175.372857 
L 333.238075 171.435638 
L 333.768556 163.796202 
L 334.299037 167.044752 
L 334.829519 169.500508 
L 335.36 166.480393 
L 335.890481 166.413112 
L 336.420963 167.367221 
L 336.951444 169.433388 
L 337.481925 166.161289 
L 338.012406 167.501622 
L 338.542888 169.544241 
L 339.073369 176.390882 
L 339.60385 177.785041 
L 340.134332 177.835501 
L 340.664813 179.24648 
L 341.195294 179.978721 
L 341.725775 185.044819 
L 342.256257 188.723487 
L 342.786738 186.217431 
L 343.317219 191.978926 
L 343.847701 195.244296 
L 344.378182 196.638454 
L 344.908663 197.474981 
L 345.439144 202.645205 
L 345.969626 197.034932 
L 346.500107 197.098688 
L 347.030588 201.654252 
L 347.56107 199.487324 
L 348.091551 202.702394 
L 348.622032 201.140193 
L 349.152513 200.518645 
L 349.682995 188.46814 
L 350.213476 183.731398 
L 350.743957 182.622704 
L 351.274439 190.92742 
L 351.80492 182.400997 
L 352.335401 183.160151 
L 352.865882 186.892643 
L 353.396364 197.061844 
L 353.926845 197.209542 
L 354.457326 190.954172 
L 354.987807 198.486118 
L 355.518289 201.18729 
L 356.04877 212.169309 
L 356.579251 209.152558 
L 357.109733 187.416634 
L 357.640214 192.570197 
L 358.170695 211.853569 
L 358.701176 209.834499 
L 359.231658 202.662025 
L 359.762139 201.586971 
L 360.29262 195.133443 
L 360.823102 194.565719 
L 361.884064 168.936149 
L 362.414545 142.564245 
L 362.945027 147.475757 
L 363.475508 134.716399 
L 364.005989 128.501398 
L 364.536471 105.052212 
L 365.066952 65.235484 
L 365.597433 53.568 
L 366.658396 122.067894 
L 367.188877 118.100398 
L 367.719358 118.74213 
L 368.24984 134.733219 
L 368.780321 142.33581 
L 369.310802 157.05705 
L 369.841283 151.453345 
L 370.371765 139.238322 
L 371.432727 151.386224 
L 371.963209 137.723218 
L 372.49369 120.982908 
L 373.024171 146.908034 
L 373.554652 145.463415 
L 374.085134 157.762539 
L 374.615615 162.509373 
L 375.146096 163.799566 
L 375.676578 163.070529 
L 376.207059 170.730149 
L 376.73754 166.490485 
L 377.268021 157.896941 
L 377.798503 165.126443 
L 378.328984 164.132126 
L 378.859465 156.28428 
L 379.389947 165.160084 
L 379.920428 164.24298 
L 380.450909 163.6618 
L 380.98139 167.199338 
L 381.511872 169.396383 
L 382.042353 162.29103 
L 382.572834 163.81959 
L 383.103316 164.054753 
L 383.633797 162.331399 
L 384.164278 162.832001 
L 384.694759 137.108398 
L 385.225241 140.608931 
L 385.755722 146.743356 
L 386.286203 151.530718 
L 386.816684 146.588769 
L 387.347166 146.138628 
L 387.877647 161.02791 
L 388.408128 148.32574 
L 388.93861 146.457892 
L 389.469091 145.920285 
L 389.999572 150.1364 
L 390.530053 152.152106 
L 391.060535 155.467937 
L 391.591016 150.307806 
L 392.121497 157.587769 
L 393.18246 162.482621 
L 393.712941 161.457867 
L 395.304385 178.198178 
L 395.834866 177.150036 
L 396.365348 174.680824 
L 396.895829 186.882551 
L 397.42631 181.567834 
L 397.956791 183.697758 
L 398.487273 181.067231 
L 398.487273 181.067231 
" clip-path="url(#p6f5fd02a68)" style="fill: none; stroke: #000000; stroke-width: 1.5; stroke-linecap: square"/>
   </g>
   <g id="line2d_17">
    <path d="M 73.832727 197.117912 
L 74.363209 281.186786 
L 74.89369 288.605796 
L 75.424171 275.952966 
L 75.954652 273.398371 
L 76.485134 277.120931 
L 77.015615 277.142237 
L 77.546096 284.507423 
L 78.076578 287.140192 
L 78.607059 282.895723 
L 79.13754 280.778774 
L 79.668021 283.717031 
L 80.198503 284.763251 
L 80.728984 283.890039 
L 81.259465 283.655197 
L 81.789947 283.185511 
L 83.38139 283.193201 
L 83.911872 282.949868 
L 84.442353 279.031551 
L 84.972834 274.065253 
L 85.503316 274.071821 
L 86.564278 269.214454 
L 87.094759 265.373992 
L 87.625241 270.982823 
L 88.155722 273.635296 
L 88.686203 277.872556 
L 89.747166 271.96881 
L 90.277647 266.634389 
L 90.808128 274.526609 
L 91.33861 267.835034 
L 91.869091 252.20502 
L 92.399572 251.957843 
L 92.930053 231.417758 
L 93.991016 211.402146 
L 94.521497 192.591663 
L 95.051979 208.568014 
L 95.58246 177.387602 
L 96.112941 176.647992 
L 96.643422 185.330763 
L 97.173904 207.433208 
L 97.704385 200.225332 
L 98.234866 196.080503 
L 98.765348 190.749766 
L 99.295829 178.663698 
L 99.82631 187.59637 
L 100.356791 181.353976 
L 101.417754 200.831341 
L 101.948235 201.228139 
L 102.478717 194.970687 
L 103.009198 192.489781 
L 103.539679 195.95379 
L 104.07016 203.498232 
L 104.600642 197.880269 
L 105.131123 199.953645 
L 105.661604 204.176328 
L 106.192086 203.217574 
L 106.722567 199.366538 
L 107.253048 193.132795 
L 107.783529 195.868247 
L 108.314011 197.330167 
L 108.844492 198.438061 
L 109.374973 193.8016 
L 109.905455 194.177252 
L 110.435936 196.298525 
L 110.966417 188.247234 
L 111.496898 193.727911 
L 112.02738 196.851831 
L 113.088342 193.025145 
L 113.618824 193.832517 
L 114.679786 189.148479 
L 115.210267 187.628249 
L 115.740749 189.823691 
L 116.27123 188.275268 
L 116.801711 190.293537 
L 117.332193 194.952745 
L 117.862674 198.207063 
L 118.393155 205.323949 
L 118.923636 204.721945 
L 119.454118 209.638583 
L 119.984599 228.646743 
L 120.51508 234.203672 
L 121.045561 225.671161 
L 121.576043 230.537178 
L 122.106524 241.317835 
L 122.637005 249.582023 
L 123.697968 231.69297 
L 124.228449 231.328691 
L 124.75893 235.351293 
L 125.289412 230.914433 
L 126.350374 218.734972 
L 127.411337 238.147139 
L 128.472299 222.232943 
L 129.002781 225.566876 
L 129.533262 221.348518 
L 130.063743 230.843147 
L 131.124706 225.359907 
L 131.655187 225.333795 
L 132.185668 221.622608 
L 132.71615 225.300155 
L 133.246631 227.575694 
L 133.777112 218.996086 
L 134.307594 221.811155 
L 134.838075 221.834383 
L 135.368556 222.703269 
L 135.899037 218.389116 
L 136.429519 218.349708 
L 136.96 221.544914 
L 137.490481 221.203704 
L 138.020963 213.636835 
L 138.551444 218.390878 
L 139.081925 217.53689 
L 139.612406 217.889635 
L 140.142888 217.456313 
L 141.20385 232.3001 
L 142.264813 241.354519 
L 142.795294 241.526406 
L 143.325775 246.030388 
L 143.856257 239.323114 
L 144.386738 242.02813 
L 144.917219 240.76533 
L 145.447701 236.426668 
L 145.978182 239.745222 
L 146.508663 243.844877 
L 147.039144 243.984085 
L 147.569626 238.614581 
L 148.100107 239.296202 
L 148.630588 243.271867 
L 149.16107 241.799375 
L 149.691551 243.543074 
L 150.222032 243.502385 
L 150.752513 244.698865 
L 151.282995 244.195539 
L 151.813476 250.622956 
L 152.343957 243.563418 
L 152.874439 250.212862 
L 153.40492 239.782868 
L 153.935401 246.188818 
L 154.996364 240.800252 
L 155.526845 240.29997 
L 156.057326 248.25082 
L 156.587807 244.923455 
L 157.118289 247.583938 
L 158.709733 223.897666 
L 159.240214 232.577234 
L 159.770695 228.001646 
L 160.301176 231.813755 
L 160.831658 225.518337 
L 161.362139 228.654913 
L 161.89262 228.563122 
L 162.423102 226.644493 
L 162.953583 227.682062 
L 163.484064 225.898475 
L 164.014545 226.46732 
L 164.545027 213.188776 
L 165.075508 215.320142 
L 166.136471 195.372451 
L 166.666952 191.950091 
L 167.197433 181.662988 
L 167.727914 200.337147 
L 168.258396 199.504624 
L 168.788877 218.557799 
L 169.319358 211.974515 
L 169.84984 213.186213 
L 170.380321 212.499466 
L 170.910802 216.948822 
L 171.441283 215.814977 
L 171.971765 221.836786 
L 172.502246 224.469875 
L 173.032727 213.4579 
L 173.563209 205.529797 
L 174.09369 195.867446 
L 174.624171 195.940334 
L 175.154652 186.959444 
L 175.685134 190.065583 
L 176.215615 186.829688 
L 176.746096 186.660844 
L 177.276578 187.66269 
L 178.33754 181.733153 
L 178.868021 166.85172 
L 179.398503 168.948324 
L 180.459465 177.567178 
L 180.989947 195.924475 
L 181.520428 198.45376 
L 182.58139 207.534931 
L 183.111872 216.762998 
L 183.642353 211.489451 
L 184.172834 217.031482 
L 184.703316 213.844285 
L 185.233797 216.483943 
L 185.764278 220.241746 
L 186.294759 214.696831 
L 186.825241 221.029254 
L 187.355722 221.096535 
L 187.886203 222.373592 
L 188.416684 219.586077 
L 188.947166 222.896621 
L 189.477647 222.979601 
L 190.53861 214.243005 
L 191.069091 216.568685 
L 191.599572 228.22079 
L 192.130053 220.077068 
L 192.660535 220.84359 
L 193.191016 219.618436 
L 193.721497 219.321598 
L 194.78246 234.016406 
L 195.312941 234.863666 
L 195.843422 229.199088 
L 196.373904 231.355123 
L 196.904385 231.362011 
L 197.434866 232.192451 
L 197.965348 231.667659 
L 198.495829 217.782145 
L 199.556791 206.991236 
L 200.087273 210.536944 
L 200.617754 210.927494 
L 201.148235 210.270704 
L 201.678717 212.936152 
L 202.739679 183.940129 
L 203.27016 197.117912 
L 203.800642 191.702593 
L 204.331123 193.536 
L 205.392086 202.648889 
L 205.922567 204.606606 
L 206.453048 205.868445 
L 206.983529 202.371115 
L 207.514011 203.1394 
L 208.044492 197.529287 
L 209.105455 197.965171 
L 209.635936 200.151964 
L 210.166417 198.934658 
L 210.696898 199.295733 
L 211.22738 199.994174 
L 211.757861 197.303255 
L 212.288342 196.912384 
L 212.818824 196.340175 
L 213.349305 194.621306 
L 213.879786 197.441341 
L 214.410267 204.310249 
L 214.940749 207.379383 
L 215.47123 216.218663 
L 216.001711 215.801841 
L 216.532193 211.616003 
L 217.062674 214.576847 
L 217.593155 218.40081 
L 218.123636 220.135538 
L 218.654118 212.900269 
L 219.184599 210.441149 
L 219.71508 211.188128 
L 220.245561 216.196877 
L 220.776043 212.582126 
L 221.306524 213.511084 
L 221.837005 213.152412 
L 222.367487 215.522465 
L 223.428449 207.486552 
L 223.95893 207.967131 
L 224.489412 204.216376 
L 225.019893 203.92899 
L 225.550374 200.374632 
L 226.080856 199.067458 
L 226.611337 195.140972 
L 227.141818 190.029539 
L 227.672299 181.985296 
L 228.202781 178.043592 
L 228.733262 187.21399 
L 229.794225 183.997959 
L 230.324706 182.957987 
L 230.855187 180.767511 
L 231.385668 179.710879 
L 231.91615 177.57695 
L 232.446631 170.682571 
L 232.977112 169.589095 
L 233.507594 178.820527 
L 234.038075 171.372362 
L 234.568556 168.958896 
L 235.099037 164.992842 
L 235.629519 167.015117 
L 236.16 156.501021 
L 236.690481 158.777841 
L 237.220963 166.547834 
L 237.751444 181.434874 
L 238.281925 177.330894 
L 238.812406 180.373596 
L 239.342888 180.01076 
L 239.873369 186.645466 
L 240.40385 194.832761 
L 240.934332 199.721045 
L 241.464813 200.045756 
L 241.995294 189.295856 
L 242.525775 192.637639 
L 243.056257 192.633474 
L 243.586738 197.082829 
L 244.117219 193.161149 
L 244.647701 193.191585 
L 245.708663 189.115639 
L 246.239144 192.58093 
L 246.769626 191.492741 
L 247.300107 187.699214 
L 247.830588 185.391316 
L 248.36107 187.685438 
L 248.891551 190.544399 
L 249.422032 196.405694 
L 249.952513 192.424903 
L 250.482995 185.70978 
L 251.013476 186.161363 
L 251.543957 192.422179 
L 252.074439 191.135831 
L 252.60492 196.846225 
L 253.135401 192.353296 
L 253.665882 202.504716 
L 254.196364 201.032544 
L 255.257326 202.199869 
L 255.787807 203.044886 
L 256.318289 211.527737 
L 256.84877 212.449807 
L 257.379251 217.500526 
L 257.909733 216.590311 
L 258.440214 210.55857 
L 258.970695 212.656616 
L 259.501176 215.45134 
L 260.031658 218.864888 
L 260.562139 224.170475 
L 261.09262 225.745651 
L 261.623102 223.253371 
L 262.153583 224.784494 
L 262.684064 221.296936 
L 263.214545 223.815648 
L 263.745027 219.750434 
L 264.275508 221.152282 
L 264.805989 210.994935 
L 265.336471 204.183216 
L 265.866952 200.775594 
L 266.397433 201.826139 
L 266.927914 191.65854 
L 267.458396 192.944248 
L 268.519358 206.394037 
L 269.04984 201.255852 
L 270.110802 205.543253 
L 270.641283 209.978672 
L 271.171765 204.063872 
L 271.702246 202.74917 
L 272.232727 204.393549 
L 272.763209 206.758156 
L 273.29369 209.854683 
L 273.824171 205.610855 
L 274.354652 199.154603 
L 275.415615 195.024352 
L 275.946096 193.346652 
L 276.476578 184.375373 
L 277.007059 189.073348 
L 277.53754 184.216622 
L 278.068021 182.893269 
L 278.598503 178.468423 
L 279.128984 179.668267 
L 280.189947 189.268784 
L 280.720428 185.068047 
L 281.250909 179.259455 
L 281.78139 177.281394 
L 282.311872 179.066743 
L 282.842353 187.055399 
L 283.372834 188.4848 
L 283.903316 191.056856 
L 284.433797 192.444446 
L 284.964278 196.043338 
L 285.494759 194.789669 
L 286.025241 186.559442 
L 286.555722 188.359849 
L 287.086203 184.711938 
L 287.616684 184.607813 
L 288.147166 185.495762 
L 289.208128 191.458619 
L 289.73861 189.471748 
L 290.269091 191.335431 
L 290.799572 183.083739 
L 291.330053 184.896 
L 291.860535 182.204761 
L 292.391016 186.321556 
L 292.921497 185.504573 
L 293.451979 185.969933 
L 293.98246 185.107455 
L 294.512941 190.845401 
L 295.043422 202.34196 
L 295.573904 208.576024 
L 296.104385 206.499604 
L 296.634866 206.884067 
L 297.165348 202.327062 
L 297.695829 205.999482 
L 298.22631 204.987704 
L 298.756791 196.752191 
L 299.287273 196.320151 
L 299.817754 193.790546 
L 300.348235 194.199198 
L 300.878717 188.693051 
L 301.409198 186.029204 
L 303.000642 170.808483 
L 303.531123 170.419695 
L 304.061604 173.474572 
L 304.592086 175.21795 
L 305.122567 177.412752 
L 305.653048 165.570177 
L 306.183529 166.255643 
L 306.714011 174.077858 
L 307.244492 184.890233 
L 307.774973 180.867631 
L 308.305455 175.73281 
L 308.835936 193.224105 
L 309.366417 182.32875 
L 309.896898 177.149235 
L 311.488342 185.979224 
L 312.018824 186.147587 
L 312.549305 189.491612 
L 313.079786 182.054179 
L 313.610267 182.608927 
L 314.140749 182.17929 
L 314.67123 176.657283 
L 315.201711 177.947316 
L 315.732193 173.246778 
L 316.262674 174.767488 
L 316.793155 169.813846 
L 317.323636 170.198629 
L 317.854118 173.627556 
L 318.384599 171.956905 
L 318.91508 175.796567 
L 319.445561 182.726509 
L 319.976043 178.066499 
L 320.506524 177.322564 
L 321.567487 180.936834 
L 322.097968 174.919511 
L 322.628449 165.953198 
L 323.15893 163.377298 
L 323.689412 162.335564 
L 324.219893 160.045768 
L 325.280856 154.374301 
L 325.811337 148.864789 
L 326.341818 142.170331 
L 326.872299 142.098244 
L 327.402781 150.71806 
L 327.933262 151.531679 
L 328.463743 143.082309 
L 328.994225 149.061186 
L 329.524706 158.194099 
L 330.055187 170.5903 
L 330.585668 177.896214 
L 331.11615 177.949238 
L 331.646631 179.622132 
L 332.177112 183.05202 
L 332.707594 174.66961 
L 333.238075 175.656078 
L 333.768556 171.342085 
L 334.299037 165.25684 
L 334.829519 167.020563 
L 335.36 169.790137 
L 335.890481 167.799261 
L 336.420963 166.838584 
L 336.951444 167.545836 
L 337.481925 170.050611 
L 338.012406 166.907788 
L 338.542888 167.976113 
L 339.073369 169.689216 
L 339.60385 176.857204 
L 340.134332 178.270265 
L 340.664813 178.498379 
L 341.195294 179.240873 
L 341.725775 180.26835 
L 342.256257 185.258036 
L 342.786738 188.894093 
L 343.317219 186.896168 
L 343.847701 191.852694 
L 344.378182 195.054948 
L 344.908663 197.276983 
L 345.439144 197.462967 
L 345.969626 202.454736 
L 346.500107 197.459282 
L 347.030588 197.409142 
L 347.56107 200.997622 
L 348.091551 200.127775 
L 348.622032 202.898309 
L 349.152513 200.985447 
L 349.682995 200.95453 
L 350.213476 188.902743 
L 350.743957 184.111536 
L 351.274439 182.329871 
L 351.80492 191.32598 
L 352.335401 183.420144 
L 352.865882 183.847378 
L 353.396364 186.105776 
L 353.926845 197.475462 
L 354.457326 197.68996 
L 354.987807 191.751612 
L 355.518289 197.663048 
L 356.04877 200.989932 
L 356.579251 212.583407 
L 357.109733 209.158645 
L 357.640214 188.88368 
L 358.170695 191.445003 
L 358.701176 210.247315 
L 359.231658 211.822972 
L 359.762139 203.722341 
L 360.29262 200.365501 
L 360.823102 195.292835 
L 361.353583 195.066482 
L 362.414545 170.032989 
L 362.945027 143.474781 
L 363.475508 147.820011 
L 364.005989 135.491892 
L 364.536471 131.365806 
L 365.066952 106.100033 
L 365.597433 68.501496 
L 366.127914 54.361755 
L 367.188877 124.198138 
L 367.719358 122.430891 
L 368.24984 119.459794 
L 369.841283 158.090935 
L 370.371765 152.041092 
L 370.902246 140.7821 
L 371.432727 144.879352 
L 371.963209 151.676814 
L 372.49369 140.271405 
L 373.024171 122.367134 
L 373.554652 145.382838 
L 374.085134 146.635225 
L 374.615615 160.315372 
L 375.146096 161.465236 
L 375.676578 165.135094 
L 376.207059 163.202848 
L 376.73754 170.702756 
L 377.268021 167.184441 
L 377.798503 159.235833 
L 378.328984 164.587234 
L 378.859465 164.6417 
L 379.389947 158.117046 
L 379.920428 164.770335 
L 380.450909 164.617991 
L 380.98139 165.183632 
L 381.511872 167.00102 
L 382.042353 169.895224 
L 382.572834 163.395239 
L 383.103316 164.121554 
L 383.633797 164.121554 
L 384.164278 163.492476 
L 384.694759 163.284226 
L 385.225241 138.839602 
L 385.755722 141.046899 
L 386.286203 145.935984 
L 386.816684 153.899329 
L 387.347166 147.729823 
L 387.877647 146.736307 
L 388.408128 160.517055 
L 388.93861 150.049415 
L 389.469091 147.919011 
L 389.999572 145.11083 
L 390.530053 151.36604 
L 391.060535 152.930323 
L 391.591016 156.298057 
L 392.121497 151.127513 
L 392.651979 157.932344 
L 393.18246 160.079889 
L 393.712941 163.705373 
L 394.243422 161.813976 
L 395.834866 178.868905 
L 396.365348 177.613474 
L 396.895829 175.139456 
L 397.42631 186.31659 
L 397.956791 182.243848 
L 398.487273 184.668206 
L 398.487273 184.668206 
" clip-path="url(#p6f5fd02a68)" style="fill: none; stroke: #008000; stroke-width: 1.5; stroke-linecap: square"/>
   </g>
   <g id="patch_3">
    <path d="M 57.6 307.584 
L 57.6 41.472 
" style="fill: none; stroke: #000000; stroke-width: 0.8; stroke-linejoin: miter; stroke-linecap: square"/>
   </g>
   <g id="patch_4">
    <path d="M 414.72 307.584 
L 414.72 41.472 
" style="fill: none; stroke: #000000; stroke-width: 0.8; stroke-linejoin: miter; stroke-linecap: square"/>
   </g>
   <g id="patch_5">
    <path d="M 57.6 307.584 
L 414.72 307.584 
" style="fill: none; stroke: #000000; stroke-width: 0.8; stroke-linejoin: miter; stroke-linecap: square"/>
   </g>
   <g id="patch_6">
    <path d="M 57.6 41.472 
L 414.72 41.472 
" style="fill: none; stroke: #000000; stroke-width: 0.8; stroke-linejoin: miter; stroke-linecap: square"/>
   </g>
   <g id="text_18">
    <!-- EUR price prediction -->
    <g transform="translate(174.960938 35.472)scale(0.12 -0.12)">
     <defs>
      <path id="DejaVuSans-45" d="M 628 4666 
L 3578 4666 
L 3578 4134 
L 1259 4134 
L 1259 2753 
L 3481 2753 
L 3481 2222 
L 1259 2222 
L 1259 531 
L 3634 531 
L 3634 0 
L 628 0 
L 628 4666 
z
" transform="scale(0.015625)"/>
      <path id="DejaVuSans-55" d="M 556 4666 
L 1191 4666 
L 1191 1831 
Q 1191 1081 1462 751 
Q 1734 422 2344 422 
Q 2950 422 3222 751 
Q 3494 1081 3494 1831 
L 3494 4666 
L 4128 4666 
L 4128 1753 
Q 4128 841 3676 375 
Q 3225 -91 2344 -91 
Q 1459 -91 1007 375 
Q 556 841 556 1753 
L 556 4666 
z
" transform="scale(0.015625)"/>
      <path id="DejaVuSans-52" d="M 2841 2188 
Q 3044 2119 3236 1894 
Q 3428 1669 3622 1275 
L 4263 0 
L 3584 0 
L 2988 1197 
Q 2756 1666 2539 1819 
Q 2322 1972 1947 1972 
L 1259 1972 
L 1259 0 
L 628 0 
L 628 4666 
L 2053 4666 
Q 2853 4666 3247 4331 
Q 3641 3997 3641 3322 
Q 3641 2881 3436 2590 
Q 3231 2300 2841 2188 
z
M 1259 4147 
L 1259 2491 
L 2053 2491 
Q 2509 2491 2742 2702 
Q 2975 2913 2975 3322 
Q 2975 3731 2742 3939 
Q 2509 4147 2053 4147 
L 1259 4147 
z
" transform="scale(0.015625)"/>
      <path id="DejaVuSans-20" transform="scale(0.015625)"/>
      <path id="DejaVuSans-70" d="M 1159 525 
L 1159 -1331 
L 581 -1331 
L 581 3500 
L 1159 3500 
L 1159 2969 
Q 1341 3281 1617 3432 
Q 1894 3584 2278 3584 
Q 2916 3584 3314 3078 
Q 3713 2572 3713 1747 
Q 3713 922 3314 415 
Q 2916 -91 2278 -91 
Q 1894 -91 1617 61 
Q 1341 213 1159 525 
z
M 3116 1747 
Q 3116 2381 2855 2742 
Q 2594 3103 2138 3103 
Q 1681 3103 1420 2742 
Q 1159 2381 1159 1747 
Q 1159 1113 1420 752 
Q 1681 391 2138 391 
Q 2594 391 2855 752 
Q 3116 1113 3116 1747 
z
" transform="scale(0.015625)"/>
      <path id="DejaVuSans-64" d="M 2906 2969 
L 2906 4863 
L 3481 4863 
L 3481 0 
L 2906 0 
L 2906 525 
Q 2725 213 2448 61 
Q 2172 -91 1784 -91 
Q 1150 -91 751 415 
Q 353 922 353 1747 
Q 353 2572 751 3078 
Q 1150 3584 1784 3584 
Q 2172 3584 2448 3432 
Q 2725 3281 2906 2969 
z
M 947 1747 
Q 947 1113 1208 752 
Q 1469 391 1925 391 
Q 2381 391 2643 752 
Q 2906 1113 2906 1747 
Q 2906 2381 2643 2742 
Q 2381 3103 1925 3103 
Q 1469 3103 1208 2742 
Q 947 2381 947 1747 
z
" transform="scale(0.015625)"/>
      <path id="DejaVuSans-74" d="M 1172 4494 
L 1172 3500 
L 2356 3500 
L 2356 3053 
L 1172 3053 
L 1172 1153 
Q 1172 725 1289 603 
Q 1406 481 1766 481 
L 2356 481 
L 2356 0 
L 1766 0 
Q 1100 0 847 248 
Q 594 497 594 1153 
L 594 3053 
L 172 3053 
L 172 3500 
L 594 3500 
L 594 4494 
L 1172 4494 
z
" transform="scale(0.015625)"/>
      <path id="DejaVuSans-6f" d="M 1959 3097 
Q 1497 3097 1228 2736 
Q 959 2375 959 1747 
Q 959 1119 1226 758 
Q 1494 397 1959 397 
Q 2419 397 2687 759 
Q 2956 1122 2956 1747 
Q 2956 2369 2687 2733 
Q 2419 3097 1959 3097 
z
M 1959 3584 
Q 2709 3584 3137 3096 
Q 3566 2609 3566 1747 
Q 3566 888 3137 398 
Q 2709 -91 1959 -91 
Q 1206 -91 779 398 
Q 353 888 353 1747 
Q 353 2609 779 3096 
Q 1206 3584 1959 3584 
z
" transform="scale(0.015625)"/>
      <path id="DejaVuSans-6e" d="M 3513 2113 
L 3513 0 
L 2938 0 
L 2938 2094 
Q 2938 2591 2744 2837 
Q 2550 3084 2163 3084 
Q 1697 3084 1428 2787 
Q 1159 2491 1159 1978 
L 1159 0 
L 581 0 
L 581 3500 
L 1159 3500 
L 1159 2956 
Q 1366 3272 1645 3428 
Q 1925 3584 2291 3584 
Q 2894 3584 3203 3211 
Q 3513 2838 3513 2113 
z
" transform="scale(0.015625)"/>
     </defs>
     <use xlink:href="#DejaVuSans-45"/>
     <use xlink:href="#DejaVuSans-55" x="63.183594"/>
     <use xlink:href="#DejaVuSans-52" x="136.376953"/>
     <use xlink:href="#DejaVuSans-20" x="205.859375"/>
     <use xlink:href="#DejaVuSans-70" x="237.646484"/>
     <use xlink:href="#DejaVuSans-72" x="301.123047"/>
     <use xlink:href="#DejaVuSans-69" x="342.236328"/>
     <use xlink:href="#DejaVuSans-63" x="370.019531"/>
     <use xlink:href="#DejaVuSans-65" x="425"/>
     <use xlink:href="#DejaVuSans-20" x="486.523438"/>
     <use xlink:href="#DejaVuSans-70" x="518.310547"/>
     <use xlink:href="#DejaVuSans-72" x="581.787109"/>
     <use xlink:href="#DejaVuSans-65" x="620.650391"/>
     <use xlink:href="#DejaVuSans-64" x="682.173828"/>
     <use xlink:href="#DejaVuSans-69" x="745.650391"/>
     <use xlink:href="#DejaVuSans-63" x="773.433594"/>
     <use xlink:href="#DejaVuSans-74" x="828.414062"/>
     <use xlink:href="#DejaVuSans-69" x="867.623047"/>
     <use xlink:href="#DejaVuSans-6f" x="895.40625"/>
     <use xlink:href="#DejaVuSans-6e" x="956.587891"/>
    </g>
   </g>
   <g id="legend_1">
    <g id="patch_7">
     <path d="M 64.6 78.82825 
L 176.323438 78.82825 
Q 178.323438 78.82825 178.323438 76.82825 
L 178.323438 48.472 
Q 178.323438 46.472 176.323438 46.472 
L 64.6 46.472 
Q 62.6 46.472 62.6 48.472 
L 62.6 76.82825 
Q 62.6 78.82825 64.6 78.82825 
z
" style="fill: #ffffff; opacity: 0.8; stroke: #cccccc; stroke-linejoin: miter"/>
    </g>
    <g id="line2d_18">
     <path d="M 66.6 54.570437 
L 76.6 54.570437 
L 86.6 54.570437 
" style="fill: none; stroke: #000000; stroke-width: 1.5; stroke-linecap: square"/>
    </g>
    <g id="text_19">
     <!-- Actual Prices -->
     <g transform="translate(94.6 58.070437)scale(0.1 -0.1)">
      <defs>
       <path id="DejaVuSans-41" d="M 2188 4044 
L 1331 1722 
L 3047 1722 
L 2188 4044 
z
M 1831 4666 
L 2547 4666 
L 4325 0 
L 3669 0 
L 3244 1197 
L 1141 1197 
L 716 0 
L 50 0 
L 1831 4666 
z
" transform="scale(0.015625)"/>
       <path id="DejaVuSans-75" d="M 544 1381 
L 544 3500 
L 1119 3500 
L 1119 1403 
Q 1119 906 1312 657 
Q 1506 409 1894 409 
Q 2359 409 2629 706 
Q 2900 1003 2900 1516 
L 2900 3500 
L 3475 3500 
L 3475 0 
L 2900 0 
L 2900 538 
Q 2691 219 2414 64 
Q 2138 -91 1772 -91 
Q 1169 -91 856 284 
Q 544 659 544 1381 
z
M 1991 3584 
L 1991 3584 
z
" transform="scale(0.015625)"/>
       <path id="DejaVuSans-61" d="M 2194 1759 
Q 1497 1759 1228 1600 
Q 959 1441 959 1056 
Q 959 750 1161 570 
Q 1363 391 1709 391 
Q 2188 391 2477 730 
Q 2766 1069 2766 1631 
L 2766 1759 
L 2194 1759 
z
M 3341 1997 
L 3341 0 
L 2766 0 
L 2766 531 
Q 2569 213 2275 61 
Q 1981 -91 1556 -91 
Q 1019 -91 701 211 
Q 384 513 384 1019 
Q 384 1609 779 1909 
Q 1175 2209 1959 2209 
L 2766 2209 
L 2766 2266 
Q 2766 2663 2505 2880 
Q 2244 3097 1772 3097 
Q 1472 3097 1187 3025 
Q 903 2953 641 2809 
L 641 3341 
Q 956 3463 1253 3523 
Q 1550 3584 1831 3584 
Q 2591 3584 2966 3190 
Q 3341 2797 3341 1997 
z
" transform="scale(0.015625)"/>
       <path id="DejaVuSans-6c" d="M 603 4863 
L 1178 4863 
L 1178 0 
L 603 0 
L 603 4863 
z
" transform="scale(0.015625)"/>
       <path id="DejaVuSans-73" d="M 2834 3397 
L 2834 2853 
Q 2591 2978 2328 3040 
Q 2066 3103 1784 3103 
Q 1356 3103 1142 2972 
Q 928 2841 928 2578 
Q 928 2378 1081 2264 
Q 1234 2150 1697 2047 
L 1894 2003 
Q 2506 1872 2764 1633 
Q 3022 1394 3022 966 
Q 3022 478 2636 193 
Q 2250 -91 1575 -91 
Q 1294 -91 989 -36 
Q 684 19 347 128 
L 347 722 
Q 666 556 975 473 
Q 1284 391 1588 391 
Q 1994 391 2212 530 
Q 2431 669 2431 922 
Q 2431 1156 2273 1281 
Q 2116 1406 1581 1522 
L 1381 1569 
Q 847 1681 609 1914 
Q 372 2147 372 2553 
Q 372 3047 722 3315 
Q 1072 3584 1716 3584 
Q 2034 3584 2315 3537 
Q 2597 3491 2834 3397 
z
" transform="scale(0.015625)"/>
      </defs>
      <use xlink:href="#DejaVuSans-41"/>
      <use xlink:href="#DejaVuSans-63" x="66.658203"/>
      <use xlink:href="#DejaVuSans-74" x="121.638672"/>
      <use xlink:href="#DejaVuSans-75" x="160.847656"/>
      <use xlink:href="#DejaVuSans-61" x="224.226562"/>
      <use xlink:href="#DejaVuSans-6c" x="285.505859"/>
      <use xlink:href="#DejaVuSans-20" x="313.289062"/>
      <use xlink:href="#DejaVuSans-50" x="345.076172"/>
      <use xlink:href="#DejaVuSans-72" x="403.628906"/>
      <use xlink:href="#DejaVuSans-69" x="444.742188"/>
      <use xlink:href="#DejaVuSans-63" x="472.525391"/>
      <use xlink:href="#DejaVuSans-65" x="527.505859"/>
      <use xlink:href="#DejaVuSans-73" x="589.029297"/>
     </g>
    </g>
    <g id="line2d_19">
     <path d="M 66.6 69.248562 
L 76.6 69.248562 
L 86.6 69.248562 
" style="fill: none; stroke: #008000; stroke-width: 1.5; stroke-linecap: square"/>
    </g>
    <g id="text_20">
     <!-- Predicted Prices -->
     <g transform="translate(94.6 72.748562)scale(0.1 -0.1)">
      <use xlink:href="#DejaVuSans-50"/>
      <use xlink:href="#DejaVuSans-72" x="58.552734"/>
      <use xlink:href="#DejaVuSans-65" x="97.416016"/>
      <use xlink:href="#DejaVuSans-64" x="158.939453"/>
      <use xlink:href="#DejaVuSans-69" x="222.416016"/>
      <use xlink:href="#DejaVuSans-63" x="250.199219"/>
      <use xlink:href="#DejaVuSans-74" x="305.179688"/>
      <use xlink:href="#DejaVuSans-65" x="344.388672"/>
      <use xlink:href="#DejaVuSans-64" x="405.912109"/>
      <use xlink:href="#DejaVuSans-20" x="469.388672"/>
      <use xlink:href="#DejaVuSans-50" x="501.175781"/>
      <use xlink:href="#DejaVuSans-72" x="559.728516"/>
      <use xlink:href="#DejaVuSans-69" x="600.841797"/>
      <use xlink:href="#DejaVuSans-63" x="628.625"/>
      <use xlink:href="#DejaVuSans-65" x="683.605469"/>
      <use xlink:href="#DejaVuSans-73" x="745.128906"/>
     </g>
    </g>
   </g>
  </g>
 </g>
 <defs>
  <clipPath id="p6f5fd02a68">
   <rect x="57.6" y="41.472" width="357.12" height="266.112"/>
  </clipPath>
 </defs>
</svg>
