<?xml version="1.0" encoding="utf-8" standalone="no"?>
<!DOCTYPE svg PUBLIC "-//W3C//DTD SVG 1.1//EN"
  "http://www.w3.org/Graphics/SVG/1.1/DTD/svg11.dtd">
<svg xmlns:xlink="http://www.w3.org/1999/xlink" width="460.8pt" height="345.6pt" viewBox="0 0 460.8 345.6" xmlns="http://www.w3.org/2000/svg" version="1.1">
 <metadata>
  <rdf:RDF xmlns:dc="http://purl.org/dc/elements/1.1/" xmlns:cc="http://creativecommons.org/ns#" xmlns:rdf="http://www.w3.org/1999/02/22-rdf-syntax-ns#">
   <cc:Work>
    <dc:type rdf:resource="http://purl.org/dc/dcmitype/StillImage"/>
    <dc:date>2022-06-06T21:55:46.001069</dc:date>
    <dc:format>image/svg+xml</dc:format>
    <dc:creator>
     <cc:Agent>
      <dc:title>Matplotlib v3.5.1, https://matplotlib.org/</dc:title>
     </cc:Agent>
    </dc:creator>
   </cc:Work>
  </rdf:RDF>
 </metadata>
 <defs>
  <style type="text/css">*{stroke-linejoin: round; stroke-linecap: butt}</style>
 </defs>
 <g id="figure_1">
  <g id="patch_1">
   <path d="M 0 345.6 
L 460.8 345.6 
L 460.8 0 
L 0 0 
z
" style="fill: #ffffff"/>
  </g>
  <g id="axes_1">
   <g id="patch_2">
    <path d="M 57.6 307.584 
L 414.72 307.584 
L 414.72 41.472 
L 57.6 41.472 
z
" style="fill: #ffffff"/>
   </g>
   <g id="matplotlib.axis_1">
    <g id="xtick_1">
     <g id="line2d_1">
      <defs>
       <path id="m294994437c" d="M 0 0 
L 0 3.5 
" style="stroke: #000000; stroke-width: 0.8"/>
      </defs>
      <g>
       <use xlink:href="#m294994437c" x="73.832727" y="307.584" style="stroke: #000000; stroke-width: 0.8"/>
      </g>
     </g>
     <g id="text_1">
      <!-- 0 -->
      <g transform="translate(70.651477 322.182437)scale(0.1 -0.1)">
       <defs>
        <path id="DejaVuSans-30" d="M 2034 4250 
Q 1547 4250 1301 3770 
Q 1056 3291 1056 2328 
Q 1056 1369 1301 889 
Q 1547 409 2034 409 
Q 2525 409 2770 889 
Q 3016 1369 3016 2328 
Q 3016 3291 2770 3770 
Q 2525 4250 2034 4250 
z
M 2034 4750 
Q 2819 4750 3233 4129 
Q 3647 3509 3647 2328 
Q 3647 1150 3233 529 
Q 2819 -91 2034 -91 
Q 1250 -91 836 529 
Q 422 1150 422 2328 
Q 422 3509 836 4129 
Q 1250 4750 2034 4750 
z
" transform="scale(0.015625)"/>
       </defs>
       <use xlink:href="#DejaVuSans-30"/>
      </g>
     </g>
    </g>
    <g id="xtick_2">
     <g id="line2d_2">
      <g>
       <use xlink:href="#m294994437c" x="126.880856" y="307.584" style="stroke: #000000; stroke-width: 0.8"/>
      </g>
     </g>
     <g id="text_2">
      <!-- 100 -->
      <g transform="translate(117.337106 322.182437)scale(0.1 -0.1)">
       <defs>
        <path id="DejaVuSans-31" d="M 794 531 
L 1825 531 
L 1825 4091 
L 703 3866 
L 703 4441 
L 1819 4666 
L 2450 4666 
L 2450 531 
L 3481 531 
L 3481 0 
L 794 0 
L 794 531 
z
" transform="scale(0.015625)"/>
       </defs>
       <use xlink:href="#DejaVuSans-31"/>
       <use xlink:href="#DejaVuSans-30" x="63.623047"/>
       <use xlink:href="#DejaVuSans-30" x="127.246094"/>
      </g>
     </g>
    </g>
    <g id="xtick_3">
     <g id="line2d_3">
      <g>
       <use xlink:href="#m294994437c" x="179.928984" y="307.584" style="stroke: #000000; stroke-width: 0.8"/>
      </g>
     </g>
     <g id="text_3">
      <!-- 200 -->
      <g transform="translate(170.385234 322.182437)scale(0.1 -0.1)">
       <defs>
        <path id="DejaVuSans-32" d="M 1228 531 
L 3431 531 
L 3431 0 
L 469 0 
L 469 531 
Q 828 903 1448 1529 
Q 2069 2156 2228 2338 
Q 2531 2678 2651 2914 
Q 2772 3150 2772 3378 
Q 2772 3750 2511 3984 
Q 2250 4219 1831 4219 
Q 1534 4219 1204 4116 
Q 875 4013 500 3803 
L 500 4441 
Q 881 4594 1212 4672 
Q 1544 4750 1819 4750 
Q 2544 4750 2975 4387 
Q 3406 4025 3406 3419 
Q 3406 3131 3298 2873 
Q 3191 2616 2906 2266 
Q 2828 2175 2409 1742 
Q 1991 1309 1228 531 
z
" transform="scale(0.015625)"/>
       </defs>
       <use xlink:href="#DejaVuSans-32"/>
       <use xlink:href="#DejaVuSans-30" x="63.623047"/>
       <use xlink:href="#DejaVuSans-30" x="127.246094"/>
      </g>
     </g>
    </g>
    <g id="xtick_4">
     <g id="line2d_4">
      <g>
       <use xlink:href="#m294994437c" x="232.977112" y="307.584" style="stroke: #000000; stroke-width: 0.8"/>
      </g>
     </g>
     <g id="text_4">
      <!-- 300 -->
      <g transform="translate(223.433362 322.182437)scale(0.1 -0.1)">
       <defs>
        <path id="DejaVuSans-33" d="M 2597 2516 
Q 3050 2419 3304 2112 
Q 3559 1806 3559 1356 
Q 3559 666 3084 287 
Q 2609 -91 1734 -91 
Q 1441 -91 1130 -33 
Q 819 25 488 141 
L 488 750 
Q 750 597 1062 519 
Q 1375 441 1716 441 
Q 2309 441 2620 675 
Q 2931 909 2931 1356 
Q 2931 1769 2642 2001 
Q 2353 2234 1838 2234 
L 1294 2234 
L 1294 2753 
L 1863 2753 
Q 2328 2753 2575 2939 
Q 2822 3125 2822 3475 
Q 2822 3834 2567 4026 
Q 2313 4219 1838 4219 
Q 1578 4219 1281 4162 
Q 984 4106 628 3988 
L 628 4550 
Q 988 4650 1302 4700 
Q 1616 4750 1894 4750 
Q 2613 4750 3031 4423 
Q 3450 4097 3450 3541 
Q 3450 3153 3228 2886 
Q 3006 2619 2597 2516 
z
" transform="scale(0.015625)"/>
       </defs>
       <use xlink:href="#DejaVuSans-33"/>
       <use xlink:href="#DejaVuSans-30" x="63.623047"/>
       <use xlink:href="#DejaVuSans-30" x="127.246094"/>
      </g>
     </g>
    </g>
    <g id="xtick_5">
     <g id="line2d_5">
      <g>
       <use xlink:href="#m294994437c" x="286.025241" y="307.584" style="stroke: #000000; stroke-width: 0.8"/>
      </g>
     </g>
     <g id="text_5">
      <!-- 400 -->
      <g transform="translate(276.481491 322.182437)scale(0.1 -0.1)">
       <defs>
        <path id="DejaVuSans-34" d="M 2419 4116 
L 825 1625 
L 2419 1625 
L 2419 4116 
z
M 2253 4666 
L 3047 4666 
L 3047 1625 
L 3713 1625 
L 3713 1100 
L 3047 1100 
L 3047 0 
L 2419 0 
L 2419 1100 
L 313 1100 
L 313 1709 
L 2253 4666 
z
" transform="scale(0.015625)"/>
       </defs>
       <use xlink:href="#DejaVuSans-34"/>
       <use xlink:href="#DejaVuSans-30" x="63.623047"/>
       <use xlink:href="#DejaVuSans-30" x="127.246094"/>
      </g>
     </g>
    </g>
    <g id="xtick_6">
     <g id="line2d_6">
      <g>
       <use xlink:href="#m294994437c" x="339.073369" y="307.584" style="stroke: #000000; stroke-width: 0.8"/>
      </g>
     </g>
     <g id="text_6">
      <!-- 500 -->
      <g transform="translate(329.529619 322.182437)scale(0.1 -0.1)">
       <defs>
        <path id="DejaVuSans-35" d="M 691 4666 
L 3169 4666 
L 3169 4134 
L 1269 4134 
L 1269 2991 
Q 1406 3038 1543 3061 
Q 1681 3084 1819 3084 
Q 2600 3084 3056 2656 
Q 3513 2228 3513 1497 
Q 3513 744 3044 326 
Q 2575 -91 1722 -91 
Q 1428 -91 1123 -41 
Q 819 9 494 109 
L 494 744 
Q 775 591 1075 516 
Q 1375 441 1709 441 
Q 2250 441 2565 725 
Q 2881 1009 2881 1497 
Q 2881 1984 2565 2268 
Q 2250 2553 1709 2553 
Q 1456 2553 1204 2497 
Q 953 2441 691 2322 
L 691 4666 
z
" transform="scale(0.015625)"/>
       </defs>
       <use xlink:href="#DejaVuSans-35"/>
       <use xlink:href="#DejaVuSans-30" x="63.623047"/>
       <use xlink:href="#DejaVuSans-30" x="127.246094"/>
      </g>
     </g>
    </g>
    <g id="xtick_7">
     <g id="line2d_7">
      <g>
       <use xlink:href="#m294994437c" x="392.121497" y="307.584" style="stroke: #000000; stroke-width: 0.8"/>
      </g>
     </g>
     <g id="text_7">
      <!-- 600 -->
      <g transform="translate(382.577747 322.182437)scale(0.1 -0.1)">
       <defs>
        <path id="DejaVuSans-36" d="M 2113 2584 
Q 1688 2584 1439 2293 
Q 1191 2003 1191 1497 
Q 1191 994 1439 701 
Q 1688 409 2113 409 
Q 2538 409 2786 701 
Q 3034 994 3034 1497 
Q 3034 2003 2786 2293 
Q 2538 2584 2113 2584 
z
M 3366 4563 
L 3366 3988 
Q 3128 4100 2886 4159 
Q 2644 4219 2406 4219 
Q 1781 4219 1451 3797 
Q 1122 3375 1075 2522 
Q 1259 2794 1537 2939 
Q 1816 3084 2150 3084 
Q 2853 3084 3261 2657 
Q 3669 2231 3669 1497 
Q 3669 778 3244 343 
Q 2819 -91 2113 -91 
Q 1303 -91 875 529 
Q 447 1150 447 2328 
Q 447 3434 972 4092 
Q 1497 4750 2381 4750 
Q 2619 4750 2861 4703 
Q 3103 4656 3366 4563 
z
" transform="scale(0.015625)"/>
       </defs>
       <use xlink:href="#DejaVuSans-36"/>
       <use xlink:href="#DejaVuSans-30" x="63.623047"/>
       <use xlink:href="#DejaVuSans-30" x="127.246094"/>
      </g>
     </g>
    </g>
    <g id="text_8">
     <!-- Time -->
     <g transform="translate(223.926406 335.860562)scale(0.1 -0.1)">
      <defs>
       <path id="DejaVuSans-54" d="M -19 4666 
L 3928 4666 
L 3928 4134 
L 2272 4134 
L 2272 0 
L 1638 0 
L 1638 4134 
L -19 4134 
L -19 4666 
z
" transform="scale(0.015625)"/>
       <path id="DejaVuSans-69" d="M 603 3500 
L 1178 3500 
L 1178 0 
L 603 0 
L 603 3500 
z
M 603 4863 
L 1178 4863 
L 1178 4134 
L 603 4134 
L 603 4863 
z
" transform="scale(0.015625)"/>
       <path id="DejaVuSans-6d" d="M 3328 2828 
Q 3544 3216 3844 3400 
Q 4144 3584 4550 3584 
Q 5097 3584 5394 3201 
Q 5691 2819 5691 2113 
L 5691 0 
L 5113 0 
L 5113 2094 
Q 5113 2597 4934 2840 
Q 4756 3084 4391 3084 
Q 3944 3084 3684 2787 
Q 3425 2491 3425 1978 
L 3425 0 
L 2847 0 
L 2847 2094 
Q 2847 2600 2669 2842 
Q 2491 3084 2119 3084 
Q 1678 3084 1418 2786 
Q 1159 2488 1159 1978 
L 1159 0 
L 581 0 
L 581 3500 
L 1159 3500 
L 1159 2956 
Q 1356 3278 1631 3431 
Q 1906 3584 2284 3584 
Q 2666 3584 2933 3390 
Q 3200 3197 3328 2828 
z
" transform="scale(0.015625)"/>
       <path id="DejaVuSans-65" d="M 3597 1894 
L 3597 1613 
L 953 1613 
Q 991 1019 1311 708 
Q 1631 397 2203 397 
Q 2534 397 2845 478 
Q 3156 559 3463 722 
L 3463 178 
Q 3153 47 2828 -22 
Q 2503 -91 2169 -91 
Q 1331 -91 842 396 
Q 353 884 353 1716 
Q 353 2575 817 3079 
Q 1281 3584 2069 3584 
Q 2775 3584 3186 3129 
Q 3597 2675 3597 1894 
z
M 3022 2063 
Q 3016 2534 2758 2815 
Q 2500 3097 2075 3097 
Q 1594 3097 1305 2825 
Q 1016 2553 972 2059 
L 3022 2063 
z
" transform="scale(0.015625)"/>
      </defs>
      <use xlink:href="#DejaVuSans-54"/>
      <use xlink:href="#DejaVuSans-69" x="57.958984"/>
      <use xlink:href="#DejaVuSans-6d" x="85.742188"/>
      <use xlink:href="#DejaVuSans-65" x="183.154297"/>
     </g>
    </g>
   </g>
   <g id="matplotlib.axis_2">
    <g id="ytick_1">
     <g id="line2d_8">
      <defs>
       <path id="m4f495f9863" d="M 0 0 
L -3.5 0 
" style="stroke: #000000; stroke-width: 0.8"/>
      </defs>
      <g>
       <use xlink:href="#m4f495f9863" x="57.6" y="276.85822" style="stroke: #000000; stroke-width: 0.8"/>
      </g>
     </g>
     <g id="text_9">
      <!-- 4.3 -->
      <g transform="translate(34.696875 280.657439)scale(0.1 -0.1)">
       <defs>
        <path id="DejaVuSans-2e" d="M 684 794 
L 1344 794 
L 1344 0 
L 684 0 
L 684 794 
z
" transform="scale(0.015625)"/>
       </defs>
       <use xlink:href="#DejaVuSans-34"/>
       <use xlink:href="#DejaVuSans-2e" x="63.623047"/>
       <use xlink:href="#DejaVuSans-33" x="95.410156"/>
      </g>
     </g>
    </g>
    <g id="ytick_2">
     <g id="line2d_9">
      <g>
       <use xlink:href="#m4f495f9863" x="57.6" y="243.327251" style="stroke: #000000; stroke-width: 0.8"/>
      </g>
     </g>
     <g id="text_10">
      <!-- 4.4 -->
      <g transform="translate(34.696875 247.126469)scale(0.1 -0.1)">
       <use xlink:href="#DejaVuSans-34"/>
       <use xlink:href="#DejaVuSans-2e" x="63.623047"/>
       <use xlink:href="#DejaVuSans-34" x="95.410156"/>
      </g>
     </g>
    </g>
    <g id="ytick_3">
     <g id="line2d_10">
      <g>
       <use xlink:href="#m4f495f9863" x="57.6" y="209.796282" style="stroke: #000000; stroke-width: 0.8"/>
      </g>
     </g>
     <g id="text_11">
      <!-- 4.5 -->
      <g transform="translate(34.696875 213.5955)scale(0.1 -0.1)">
       <use xlink:href="#DejaVuSans-34"/>
       <use xlink:href="#DejaVuSans-2e" x="63.623047"/>
       <use xlink:href="#DejaVuSans-35" x="95.410156"/>
      </g>
     </g>
    </g>
    <g id="ytick_4">
     <g id="line2d_11">
      <g>
       <use xlink:href="#m4f495f9863" x="57.6" y="176.265312" style="stroke: #000000; stroke-width: 0.8"/>
      </g>
     </g>
     <g id="text_12">
      <!-- 4.6 -->
      <g transform="translate(34.696875 180.064531)scale(0.1 -0.1)">
       <use xlink:href="#DejaVuSans-34"/>
       <use xlink:href="#DejaVuSans-2e" x="63.623047"/>
       <use xlink:href="#DejaVuSans-36" x="95.410156"/>
      </g>
     </g>
    </g>
    <g id="ytick_5">
     <g id="line2d_12">
      <g>
       <use xlink:href="#m4f495f9863" x="57.6" y="142.734343" style="stroke: #000000; stroke-width: 0.8"/>
      </g>
     </g>
     <g id="text_13">
      <!-- 4.7 -->
      <g transform="translate(34.696875 146.533562)scale(0.1 -0.1)">
       <defs>
        <path id="DejaVuSans-37" d="M 525 4666 
L 3525 4666 
L 3525 4397 
L 1831 0 
L 1172 0 
L 2766 4134 
L 525 4134 
L 525 4666 
z
" transform="scale(0.015625)"/>
       </defs>
       <use xlink:href="#DejaVuSans-34"/>
       <use xlink:href="#DejaVuSans-2e" x="63.623047"/>
       <use xlink:href="#DejaVuSans-37" x="95.410156"/>
      </g>
     </g>
    </g>
    <g id="ytick_6">
     <g id="line2d_13">
      <g>
       <use xlink:href="#m4f495f9863" x="57.6" y="109.203374" style="stroke: #000000; stroke-width: 0.8"/>
      </g>
     </g>
     <g id="text_14">
      <!-- 4.8 -->
      <g transform="translate(34.696875 113.002593)scale(0.1 -0.1)">
       <defs>
        <path id="DejaVuSans-38" d="M 2034 2216 
Q 1584 2216 1326 1975 
Q 1069 1734 1069 1313 
Q 1069 891 1326 650 
Q 1584 409 2034 409 
Q 2484 409 2743 651 
Q 3003 894 3003 1313 
Q 3003 1734 2745 1975 
Q 2488 2216 2034 2216 
z
M 1403 2484 
Q 997 2584 770 2862 
Q 544 3141 544 3541 
Q 544 4100 942 4425 
Q 1341 4750 2034 4750 
Q 2731 4750 3128 4425 
Q 3525 4100 3525 3541 
Q 3525 3141 3298 2862 
Q 3072 2584 2669 2484 
Q 3125 2378 3379 2068 
Q 3634 1759 3634 1313 
Q 3634 634 3220 271 
Q 2806 -91 2034 -91 
Q 1263 -91 848 271 
Q 434 634 434 1313 
Q 434 1759 690 2068 
Q 947 2378 1403 2484 
z
M 1172 3481 
Q 1172 3119 1398 2916 
Q 1625 2713 2034 2713 
Q 2441 2713 2670 2916 
Q 2900 3119 2900 3481 
Q 2900 3844 2670 4047 
Q 2441 4250 2034 4250 
Q 1625 4250 1398 4047 
Q 1172 3844 1172 3481 
z
" transform="scale(0.015625)"/>
       </defs>
       <use xlink:href="#DejaVuSans-34"/>
       <use xlink:href="#DejaVuSans-2e" x="63.623047"/>
       <use xlink:href="#DejaVuSans-38" x="95.410156"/>
      </g>
     </g>
    </g>
    <g id="ytick_7">
     <g id="line2d_14">
      <g>
       <use xlink:href="#m4f495f9863" x="57.6" y="75.672405" style="stroke: #000000; stroke-width: 0.8"/>
      </g>
     </g>
     <g id="text_15">
      <!-- 4.9 -->
      <g transform="translate(34.696875 79.471624)scale(0.1 -0.1)">
       <defs>
        <path id="DejaVuSans-39" d="M 703 97 
L 703 672 
Q 941 559 1184 500 
Q 1428 441 1663 441 
Q 2288 441 2617 861 
Q 2947 1281 2994 2138 
Q 2813 1869 2534 1725 
Q 2256 1581 1919 1581 
Q 1219 1581 811 2004 
Q 403 2428 403 3163 
Q 403 3881 828 4315 
Q 1253 4750 1959 4750 
Q 2769 4750 3195 4129 
Q 3622 3509 3622 2328 
Q 3622 1225 3098 567 
Q 2575 -91 1691 -91 
Q 1453 -91 1209 -44 
Q 966 3 703 97 
z
M 1959 2075 
Q 2384 2075 2632 2365 
Q 2881 2656 2881 3163 
Q 2881 3666 2632 3958 
Q 2384 4250 1959 4250 
Q 1534 4250 1286 3958 
Q 1038 3666 1038 3163 
Q 1038 2656 1286 2365 
Q 1534 2075 1959 2075 
z
" transform="scale(0.015625)"/>
       </defs>
       <use xlink:href="#DejaVuSans-34"/>
       <use xlink:href="#DejaVuSans-2e" x="63.623047"/>
       <use xlink:href="#DejaVuSans-39" x="95.410156"/>
      </g>
     </g>
    </g>
    <g id="ytick_8">
     <g id="line2d_15">
      <g>
       <use xlink:href="#m4f495f9863" x="57.6" y="42.141436" style="stroke: #000000; stroke-width: 0.8"/>
      </g>
     </g>
     <g id="text_16">
      <!-- 5.0 -->
      <g transform="translate(34.696875 45.940654)scale(0.1 -0.1)">
       <use xlink:href="#DejaVuSans-35"/>
       <use xlink:href="#DejaVuSans-2e" x="63.623047"/>
       <use xlink:href="#DejaVuSans-30" x="95.410156"/>
      </g>
     </g>
    </g>
    <g id="text_17">
     <!-- Price -->
     <g transform="translate(28.617188 186.725656)rotate(-90)scale(0.1 -0.1)">
      <defs>
       <path id="DejaVuSans-50" d="M 1259 4147 
L 1259 2394 
L 2053 2394 
Q 2494 2394 2734 2622 
Q 2975 2850 2975 3272 
Q 2975 3691 2734 3919 
Q 2494 4147 2053 4147 
L 1259 4147 
z
M 628 4666 
L 2053 4666 
Q 2838 4666 3239 4311 
Q 3641 3956 3641 3272 
Q 3641 2581 3239 2228 
Q 2838 1875 2053 1875 
L 1259 1875 
L 1259 0 
L 628 0 
L 628 4666 
z
" transform="scale(0.015625)"/>
       <path id="DejaVuSans-72" d="M 2631 2963 
Q 2534 3019 2420 3045 
Q 2306 3072 2169 3072 
Q 1681 3072 1420 2755 
Q 1159 2438 1159 1844 
L 1159 0 
L 581 0 
L 581 3500 
L 1159 3500 
L 1159 2956 
Q 1341 3275 1631 3429 
Q 1922 3584 2338 3584 
Q 2397 3584 2469 3576 
Q 2541 3569 2628 3553 
L 2631 2963 
z
" transform="scale(0.015625)"/>
       <path id="DejaVuSans-63" d="M 3122 3366 
L 3122 2828 
Q 2878 2963 2633 3030 
Q 2388 3097 2138 3097 
Q 1578 3097 1268 2742 
Q 959 2388 959 1747 
Q 959 1106 1268 751 
Q 1578 397 2138 397 
Q 2388 397 2633 464 
Q 2878 531 3122 666 
L 3122 134 
Q 2881 22 2623 -34 
Q 2366 -91 2075 -91 
Q 1284 -91 818 406 
Q 353 903 353 1747 
Q 353 2603 823 3093 
Q 1294 3584 2113 3584 
Q 2378 3584 2631 3529 
Q 2884 3475 3122 3366 
z
" transform="scale(0.015625)"/>
      </defs>
      <use xlink:href="#DejaVuSans-50"/>
      <use xlink:href="#DejaVuSans-72" x="58.552734"/>
      <use xlink:href="#DejaVuSans-69" x="99.666016"/>
      <use xlink:href="#DejaVuSans-63" x="127.449219"/>
      <use xlink:href="#DejaVuSans-65" x="182.429688"/>
     </g>
    </g>
   </g>
   <g id="line2d_16">
    <path d="M 73.832727 284.687717 
L 74.363209 286.582232 
L 74.89369 281.921333 
L 75.424171 279.272467 
L 75.954652 278.300027 
L 76.485134 277.803734 
L 77.015615 285.576216 
L 77.546096 295.132569 
L 78.607059 286.508363 
L 79.668021 291.678985 
L 80.728984 295.488 
L 81.259465 295.132569 
L 81.789947 290.404677 
L 82.320428 288.144818 
L 82.850909 287.118656 
L 83.38139 284.603936 
L 84.442353 274.812867 
L 84.972834 275.047583 
L 86.564278 266.141655 
L 87.094759 271.976132 
L 87.625241 274.427217 
L 88.155722 278.266451 
L 89.216684 272.599856 
L 89.747166 267.57681 
L 90.277647 275.68122 
L 90.808128 268.234111 
L 91.33861 251.512211 
L 91.869091 253.758799 
L 92.399572 231.343284 
L 93.460535 212.736944 
L 93.991016 191.052437 
L 94.521497 209.581712 
L 95.051979 176.308834 
L 95.58246 174.592115 
L 96.112941 188.70528 
L 96.643422 206.030756 
L 97.173904 198.858495 
L 97.704385 196.015045 
L 98.234866 192.038307 
L 98.765348 177.733917 
L 99.295829 188.168855 
L 99.82631 181.315091 
L 100.356791 189.509997 
L 100.887273 202.231655 
L 101.417754 200.139359 
L 101.948235 194.600035 
L 102.478717 193.386164 
L 103.009198 196.249761 
L 103.539679 203.525949 
L 104.07016 197.32277 
L 104.600642 199.971636 
L 105.131123 205.189105 
L 105.661604 202.587086 
L 106.192086 199.19378 
L 106.722567 193.399595 
L 107.253048 196.082038 
L 107.783529 197.456916 
L 108.314011 197.959924 
L 108.844492 193.701464 
L 109.374973 194.305041 
L 109.905455 196.638768 
L 110.435936 187.498124 
L 110.966417 194.003173 
L 111.496898 197.523909 
L 112.02738 193.584106 
L 112.557861 193.252178 
L 113.088342 194.281538 
L 113.618824 191.11959 
L 114.149305 188.973572 
L 114.679786 187.766417 
L 115.210267 189.778289 
L 115.740749 188.034709 
L 116.27123 190.160581 
L 116.801711 195.317613 
L 117.332193 198.026917 
L 117.862674 205.504245 
L 118.393155 204.833674 
L 118.923636 209.729288 
L 119.454118 230.14956 
L 119.984599 234.102953 
L 120.51508 224.751097 
L 121.045561 232.345783 
L 121.576043 242.784079 
L 122.106524 249.208543 
L 123.167487 232.12114 
L 123.697968 232.66444 
L 124.228449 235.863322 
L 125.819893 219.312343 
L 126.880856 238.790553 
L 127.411337 228.674272 
L 127.941818 222.454144 
L 128.472299 227.299394 
L 129.002781 221.005718 
L 129.533262 231.02143 
L 130.063743 228.580258 
L 130.594225 224.616951 
L 131.124706 226.501392 
L 131.655187 221.733369 
L 132.185668 225.46196 
L 132.71615 228.308768 
L 133.246631 218.313202 
L 133.777112 222.454144 
L 134.307594 222.749298 
L 134.838075 222.105428 
L 135.368556 218.732269 
L 135.899037 218.675349 
L 136.429519 222.068654 
L 136.96 221.163208 
L 137.490481 213.347237 
L 138.020963 219.211773 
L 138.551444 217.977917 
L 139.081925 217.307186 
L 139.612406 218.135406 
L 140.673369 232.754937 
L 141.20385 236.513746 
L 141.734332 241.952501 
L 142.264813 242.170428 
L 142.795294 246.62667 
L 143.325775 239.746205 
L 143.856257 242.468779 
L 144.386738 241.784778 
L 144.917219 236.057745 
L 145.978182 244.665163 
L 146.508663 243.766431 
L 147.039144 238.934772 
L 147.569626 240.141768 
L 148.100107 244.075015 
L 148.630588 241.744646 
L 149.16107 243.997949 
L 149.691551 244.316447 
L 150.222032 244.936812 
L 150.752513 244.779163 
L 151.282995 251.401569 
L 151.813476 243.689365 
L 152.343957 250.77113 
L 152.874439 240.544206 
L 153.40492 246.207603 
L 153.935401 244.65509 
L 154.465882 240.171987 
L 154.996364 241.28193 
L 155.526845 249.195113 
L 156.057326 244.785878 
L 156.587807 247.924322 
L 158.179251 224.650527 
L 158.709733 233.368587 
L 159.240214 227.835979 
L 159.770695 231.490861 
L 160.301176 226.394107 
L 160.831658 228.607119 
L 161.362139 229.378419 
L 161.89262 226.394107 
L 162.423102 228.20484 
L 162.953583 226.303611 
L 163.484064 226.528254 
L 164.014545 213.065514 
L 164.545027 215.694394 
L 165.075508 205.993822 
L 165.605989 194.110457 
L 166.136471 192.729024 
L 166.666952 181.157441 
L 167.197433 200.639009 
L 167.727914 199.73692 
L 168.258396 217.709624 
L 168.788877 212.908024 
L 169.319358 212.388228 
L 169.84984 214.091676 
L 170.380321 216.9719 
L 170.910802 215.798322 
L 171.441283 222.30337 
L 171.971765 224.989171 
L 172.502246 212.706725 
L 173.032727 205.812829 
L 173.563209 196.4509 
L 174.09369 195.679759 
L 174.624171 186.626414 
L 175.154652 189.734639 
L 175.685134 187.028693 
L 176.215615 185.845041 
L 176.746096 188.014563 
L 177.276578 184.13168 
L 177.807059 181.35874 
L 178.33754 166.387136 
L 178.868021 168.922003 
L 179.398503 173.995253 
L 179.928984 176.339053 
L 180.459465 196.52141 
L 180.989947 198.412567 
L 181.520428 202.292092 
L 182.050909 208.968061 
L 182.58139 217.07247 
L 183.111872 211.171 
L 183.642353 217.541902 
L 184.172834 214.624743 
L 184.703316 216.083402 
L 185.233797 221.196784 
L 185.764278 214.2861 
L 186.294759 221.468434 
L 186.825241 221.934508 
L 187.355722 221.813792 
L 187.886203 220.17414 
L 188.416684 223.342803 
L 188.947166 223.275809 
L 190.008128 214.547677 
L 190.53861 217.18647 
L 191.069091 228.858623 
L 191.599572 219.392767 
L 192.130053 220.824565 
L 192.660535 221.062638 
L 193.191016 218.809335 
L 194.251979 234.686385 
L 194.78246 234.542166 
L 195.312941 229.428624 
L 195.843422 232.372644 
L 196.373904 231.916643 
L 197.434866 232.228425 
L 197.965348 217.404398 
L 199.02631 207.817986 
L 199.556791 210.208633 
L 200.087273 211.003437 
L 200.617754 209.953931 
L 201.148235 213.350594 
L 202.209198 183.337036 
L 202.739679 199.032773 
L 203.27016 190.804291 
L 203.800642 192.024877 
L 204.331123 200.011928 
L 205.922567 206.379472 
L 206.453048 202.251801 
L 206.983529 203.348313 
L 207.514011 197.658055 
L 208.044492 197.523909 
L 208.574973 198.392421 
L 209.105455 199.89457 
L 209.635936 198.845064 
L 210.166417 199.334642 
L 210.696898 200.206352 
L 211.22738 197.094769 
L 211.757861 196.947192 
L 212.288342 196.551469 
L 212.818824 194.348531 
L 213.349305 197.624479 
L 213.879786 204.699528 
L 214.410267 207.160686 
L 214.940749 216.549476 
L 215.47123 216.133607 
L 216.001711 211.238153 
L 216.532193 215.597182 
L 217.062674 218.91678 
L 217.593155 219.822066 
L 218.123636 212.881163 
L 218.654118 210.768721 
L 219.184599 211.84173 
L 219.71508 216.234177 
L 220.245561 212.344578 
L 220.776043 213.622244 
L 221.306524 213.786449 
L 221.837005 215.469752 
L 222.897968 207.422263 
L 223.428449 208.501987 
L 223.95893 204.109381 
L 224.489412 203.747234 
L 225.019893 200.60879 
L 225.550374 198.831634 
L 226.080856 195.170036 
L 226.611337 189.727924 
L 227.141818 181.720727 
L 227.672299 177.918428 
L 228.202781 187.649059 
L 228.733262 184.980046 
L 229.263743 183.092247 
L 229.794225 183.615241 
L 230.324706 180.426433 
L 230.855187 179.417219 
L 231.385668 177.54285 
L 231.91615 170.038661 
L 232.446631 169.461945 
L 232.977112 179.316649 
L 233.507594 170.202866 
L 234.038075 168.190994 
L 234.568556 165.716406 
L 235.099037 166.340129 
L 235.629519 155.710767 
L 236.16 158.49394 
L 236.690481 167.144846 
L 237.220963 180.865805 
L 237.751444 176.466484 
L 238.281925 180.21522 
L 238.812406 180.892507 
L 239.342888 186.270983 
L 239.873369 195.26389 
L 240.40385 199.525708 
L 240.934332 199.874424 
L 241.464813 189.141135 
L 241.995294 193.164879 
L 242.525775 193.13482 
L 243.056257 196.340257 
L 243.586738 193.211886 
L 244.117219 193.030733 
L 244.647701 191.538657 
L 245.178182 188.785703 
L 245.708663 192.809448 
L 246.239144 191.387723 
L 246.769626 187.092488 
L 247.300107 185.620398 
L 248.36107 190.365078 
L 248.891551 196.383907 
L 249.422032 192.135519 
L 249.952513 185.244981 
L 250.482995 186.827554 
L 251.013476 192.69209 
L 251.543957 190.402012 
L 252.074439 196.913616 
L 252.60492 192.531242 
L 253.135401 202.520093 
L 253.665882 201.520792 
L 254.196364 200.850221 
L 254.726845 203.016386 
L 255.257326 203.056518 
L 255.787807 211.851803 
L 256.318289 212.633017 
L 256.84877 217.407756 
L 257.379251 217.206616 
L 257.909733 210.235494 
L 258.970695 216.059899 
L 259.501176 218.547918 
L 260.031658 224.684104 
L 260.562139 226.025246 
L 261.09262 223.218729 
L 261.623102 225.502252 
L 262.153583 221.599223 
L 262.684064 223.94638 
L 263.214545 220.157352 
L 263.745027 221.133149 
L 264.275508 211.100649 
L 264.805989 203.86795 
L 265.336471 201.447084 
L 265.866952 201.708661 
L 266.397433 190.894947 
L 266.927914 193.000674 
L 267.458396 201.034572 
L 267.988877 205.772537 
L 268.519358 200.739579 
L 269.04984 204.089235 
L 269.580321 206.22518 
L 270.110802 209.725931 
L 270.641283 203.961964 
L 271.171765 202.805014 
L 271.702246 205.105324 
L 272.232727 206.594042 
L 272.763209 209.896851 
L 273.29369 205.551252 
L 273.824171 198.918773 
L 274.354652 197.450201 
L 275.415615 192.953667 
L 275.946096 183.997534 
L 276.476578 189.308857 
L 277.007059 184.178687 
L 277.53754 181.925384 
L 278.068021 178.813641 
L 278.598503 179.383642 
L 279.659465 189.060711 
L 280.720428 179.048357 
L 281.250909 177.64342 
L 281.78139 178.981364 
L 282.311872 186.988561 
L 282.842353 188.168855 
L 284.433797 196.062052 
L 284.964278 194.717393 
L 285.494759 186.123406 
L 286.025241 188.785703 
L 286.555722 184.78882 
L 287.086203 183.853315 
L 287.616684 185.858472 
L 288.147166 188.316272 
L 288.677647 191.32073 
L 289.208128 189.271923 
L 289.73861 191.387723 
L 290.269091 182.897663 
L 290.799572 184.748688 
L 291.330053 182.542232 
L 291.860535 185.76126 
L 292.391016 185.573551 
L 292.921497 185.563478 
L 293.451979 185.191259 
L 293.98246 191.00559 
L 294.512941 202.771597 
L 295.043422 208.387987 
L 295.573904 206.151472 
L 296.104385 207.492773 
L 296.634866 202.650881 
L 297.165348 206.094392 
L 297.695829 205.336682 
L 298.22631 195.937979 
L 298.756791 196.752769 
L 299.287273 194.117173 
L 299.817754 193.584106 
L 300.348235 188.634929 
L 300.878717 185.767975 
L 301.409198 181.160799 
L 301.939679 174.944189 
L 302.47016 170.565013 
L 303.000642 170.276735 
L 303.531123 173.220755 
L 304.061604 174.769911 
L 304.592086 177.113711 
L 305.122567 164.868199 
L 305.653048 166.169209 
L 306.714011 184.165256 
L 307.774973 175.467343 
L 308.305455 194.774473 
L 308.835936 181.378726 
L 309.366417 175.638263 
L 309.896898 182.2741 
L 310.42738 182.046099 
L 310.957861 185.295186 
L 311.488342 186.458692 
L 312.018824 189.325646 
L 312.549305 181.720727 
L 313.079786 182.542232 
L 313.610267 182.6161 
L 314.140749 175.695343 
L 314.67123 178.008924 
L 315.201711 173.180463 
L 315.732193 174.119326 
L 316.262674 169.777084 
L 316.793155 169.659727 
L 317.323636 173.854391 
L 317.854118 171.296022 
L 318.384599 175.561197 
L 318.91508 183.206248 
L 319.445561 177.153843 
L 319.976043 177.076777 
L 320.506524 179.98722 
L 321.037005 180.389658 
L 321.567487 174.31375 
L 322.097968 165.579062 
L 322.628449 163.463262 
L 323.15893 162.081669 
L 324.750374 153.980618 
L 325.811337 141.44347 
L 326.341818 141.842391 
L 326.872299 150.597385 
L 327.402781 150.513604 
L 327.933262 141.782113 
L 328.994225 158.49394 
L 329.524706 169.659727 
L 330.055187 177.837844 
L 330.585668 177.573069 
L 331.11615 179.786081 
L 331.646631 183.541533 
L 332.177112 173.901398 
L 332.707594 175.601329 
L 333.238075 171.671599 
L 333.768556 164.046694 
L 334.299037 167.289065 
L 334.829519 169.74015 
L 335.36 166.725779 
L 335.890481 166.658626 
L 336.420963 167.61092 
L 336.951444 169.673157 
L 337.481925 166.407282 
L 338.012406 167.745066 
L 338.542888 169.7838 
L 339.073369 176.617418 
L 339.60385 178.008924 
L 340.134332 178.059289 
L 340.664813 179.467584 
L 341.195294 180.198432 
L 341.725775 185.254894 
L 342.256257 188.926565 
L 342.786738 186.425275 
L 343.317219 192.175811 
L 343.847701 195.434971 
L 344.378182 196.826477 
L 344.908663 197.661413 
L 345.439144 202.821802 
L 345.969626 197.2222 
L 346.500107 197.285836 
L 347.030588 201.832734 
L 347.56107 199.669927 
L 348.091551 202.878882 
L 348.622032 201.319653 
L 349.152513 200.699287 
L 349.682995 188.671703 
L 350.213476 183.943971 
L 350.743957 182.837386 
L 351.274439 191.126306 
L 351.80492 182.6161 
L 352.335401 183.37381 
L 352.865882 187.099203 
L 353.396364 197.249061 
L 353.926845 197.396478 
L 354.457326 191.153007 
L 354.987807 198.670627 
L 355.518289 201.36666 
L 356.04877 212.32779 
L 356.579251 209.316777 
L 357.109733 187.622198 
L 357.640214 192.765958 
L 358.170695 212.012651 
L 358.701176 209.997421 
L 359.231658 202.83859 
L 359.762139 201.765581 
L 360.29262 195.324328 
L 360.823102 194.757685 
L 361.884064 169.176864 
L 362.414545 142.855123 
L 362.945027 147.757292 
L 363.475508 135.022204 
L 364.005989 128.819024 
L 364.536471 105.414441 
L 365.066952 65.673449 
L 365.597433 54.028158 
L 366.658396 122.397757 
L 367.188877 118.437808 
L 367.719358 119.07832 
L 368.24984 135.038992 
L 368.780321 142.627122 
L 369.310802 157.320361 
L 369.841283 151.727314 
L 370.371765 139.535525 
L 371.432727 151.660321 
L 371.963209 138.023304 
L 372.49369 121.314835 
L 373.024171 147.190649 
L 373.554652 145.748778 
L 374.085134 158.024508 
L 374.615615 162.762313 
L 375.146096 164.050052 
L 375.676578 163.322401 
L 376.207059 170.967451 
L 376.73754 166.735852 
L 377.268021 158.158654 
L 377.798503 165.374405 
L 378.328984 164.38198 
L 378.859465 156.549061 
L 379.389947 165.407982 
L 379.920428 164.492622 
L 380.450909 163.912548 
L 380.98139 167.443357 
L 381.511872 169.636223 
L 382.042353 162.544385 
L 382.572834 164.070038 
L 383.103316 164.304754 
L 383.633797 162.584677 
L 384.164278 163.084328 
L 384.694759 137.409653 
L 385.225241 140.903528 
L 385.755722 147.026284 
L 386.286203 151.80454 
L 386.816684 146.871992 
L 387.347166 146.422706 
L 387.877647 161.283668 
L 388.408128 148.605659 
L 388.93861 146.741363 
L 389.469091 146.204779 
L 389.999572 150.412874 
L 390.530053 152.424746 
L 391.060535 155.734271 
L 391.591016 150.583954 
L 392.121497 157.85007 
L 393.18246 162.735612 
L 393.712941 161.712807 
L 395.304385 178.421276 
L 395.834866 177.375128 
L 396.365348 174.910612 
L 396.895829 187.089131 
L 397.42631 181.784522 
L 397.956791 183.910395 
L 398.487273 181.284872 
L 398.487273 181.284872 
" clip-path="url(#pdeeb36e35b)" style="fill: none; stroke: #000000; stroke-width: 1.5; stroke-linecap: square"/>
   </g>
   <g id="line2d_17">
    <path d="M 73.832727 196.234731 
L 74.363209 279.514217 
L 74.89369 293.050665 
L 75.424171 283.16894 
L 75.954652 270.733642 
L 76.485134 277.370597 
L 77.015615 277.62402 
L 77.546096 284.579473 
L 78.076578 294.30179 
L 78.607059 291.324993 
L 79.13754 285.548395 
L 79.668021 286.935105 
L 80.198503 291.30117 
L 80.728984 293.277227 
L 81.259465 293.417929 
L 81.789947 293.279465 
L 82.320428 291.293495 
L 82.850909 287.349055 
L 83.38139 287.033916 
L 83.911872 284.542699 
L 84.972834 274.407871 
L 85.503316 274.313377 
L 86.033797 272.352349 
L 86.564278 269.631852 
L 87.094759 265.718431 
L 87.625241 271.012646 
L 88.686203 278.119513 
L 89.747166 272.088853 
L 90.277647 266.916153 
L 90.808128 274.395879 
L 91.33861 269.018682 
L 91.869091 252.793075 
L 92.399572 251.213221 
L 92.930053 233.277771 
L 93.991016 211.872429 
L 94.521497 194.183526 
L 95.051979 207.453761 
L 95.58246 180.531319 
L 96.112941 175.573508 
L 96.643422 184.906818 
L 97.173904 208.697211 
L 98.234866 195.188903 
L 98.765348 190.518251 
L 99.295829 179.496843 
L 99.82631 186.80437 
L 100.356791 182.710594 
L 100.887273 190.31903 
L 101.417754 200.670027 
L 101.948235 202.146594 
L 102.478717 194.723948 
L 103.009198 192.060052 
L 103.539679 196.125687 
L 104.07016 203.715896 
L 104.600642 198.631614 
L 105.131123 199.468148 
L 105.661604 204.156548 
L 106.192086 203.897529 
L 106.722567 199.354148 
L 107.253048 193.253777 
L 108.314011 197.800995 
L 108.844492 198.783028 
L 109.374973 194.045063 
L 109.905455 194.052738 
L 110.435936 196.467848 
L 110.966417 189.015463 
L 112.02738 197.299106 
L 112.557861 195.36446 
L 113.088342 192.72087 
L 113.618824 193.901644 
L 114.149305 191.994498 
L 114.679786 189.226995 
L 115.210267 187.758102 
L 115.740749 189.984065 
L 116.27123 188.69009 
L 116.801711 190.272023 
L 117.332193 194.972734 
L 117.862674 198.520332 
L 118.393155 205.142738 
L 118.923636 205.059436 
L 119.454118 209.341879 
L 119.984599 228.02001 
L 120.51508 235.162532 
L 121.045561 225.868395 
L 121.576043 229.242354 
L 122.106524 241.555978 
L 122.637005 250.212801 
L 123.167487 241.737771 
L 123.697968 231.439217 
L 124.228449 231.047491 
L 124.75893 235.927117 
L 125.289412 231.804082 
L 126.350374 218.941242 
L 126.880856 227.858203 
L 127.411337 238.710289 
L 128.472299 221.692277 
L 129.002781 225.165847 
L 129.533262 222.510745 
L 130.063743 230.447911 
L 130.594225 228.650449 
L 131.124706 225.613534 
L 131.655187 225.001802 
L 132.185668 222.280986 
L 133.246631 227.8913 
L 133.777112 219.826383 
L 134.838075 222.34558 
L 135.368556 223.191389 
L 135.899037 218.557351 
L 136.429519 218.395225 
L 136.96 221.699792 
L 137.490481 221.720738 
L 138.020963 214.040831 
L 138.551444 217.881824 
L 139.081925 218.263637 
L 139.612406 218.189608 
L 140.142888 217.423105 
L 141.20385 232.536849 
L 142.264813 241.158177 
L 142.795294 241.684368 
L 143.325775 245.864164 
L 143.856257 239.875394 
L 144.386738 241.72418 
L 144.917219 241.162334 
L 145.447701 237.030185 
L 145.978182 239.442097 
L 146.508663 244.284789 
L 147.039144 244.547805 
L 147.569626 238.771367 
L 148.100107 239.13783 
L 148.630588 243.54035 
L 149.16107 242.456788 
L 149.691551 243.457687 
L 150.222032 243.760356 
L 150.752513 244.961595 
L 151.282995 244.395271 
L 151.813476 250.57127 
L 152.343957 244.426769 
L 152.874439 249.667902 
L 153.40492 240.730316 
L 153.935401 245.813319 
L 154.465882 243.91129 
L 154.996364 241.365072 
L 155.526845 240.12386 
L 156.057326 248.371849 
L 156.587807 245.853771 
L 157.118289 247.287807 
L 158.709733 224.053505 
L 159.240214 232.532692 
L 159.770695 229.294798 
L 160.301176 231.666738 
L 160.831658 225.949778 
L 161.362139 228.640216 
L 161.89262 228.843274 
L 162.423102 227.139666 
L 162.953583 227.59135 
L 163.484064 226.315442 
L 164.014545 226.640495 
L 164.545027 213.931948 
L 165.075508 214.819167 
L 165.605989 206.549913 
L 166.136471 195.948851 
L 166.666952 191.714534 
L 167.197433 182.786541 
L 167.727914 199.562163 
L 168.258396 200.934642 
L 168.788877 217.934267 
L 169.319358 212.605995 
L 169.84984 212.818007 
L 170.380321 212.108104 
L 170.910802 217.277127 
L 171.441283 216.178855 
L 171.971765 221.599702 
L 172.502246 224.811215 
L 173.563209 205.137302 
L 174.09369 196.261752 
L 174.624171 196.23553 
L 175.154652 187.870983 
L 175.685134 189.978948 
L 176.215615 187.456074 
L 176.746096 186.958342 
L 177.276578 187.620599 
L 177.807059 185.050397 
L 178.33754 181.794276 
L 178.868021 167.466541 
L 179.398503 168.429707 
L 180.459465 178.281374 
L 180.989947 195.170516 
L 182.58139 206.925011 
L 183.111872 216.799541 
L 183.642353 212.043189 
L 184.172834 216.291896 
L 184.703316 214.323514 
L 185.233797 216.539083 
L 185.764278 220.156232 
L 186.294759 215.487819 
L 186.825241 220.448828 
L 187.886203 222.682145 
L 188.416684 219.605897 
L 188.947166 222.882005 
L 189.477647 223.381336 
L 190.53861 214.27139 
L 191.069091 216.569622 
L 191.599572 228.31932 
L 192.130053 221.306787 
L 192.660535 220.201481 
L 193.191016 219.698473 
L 193.721497 219.908246 
L 194.251979 226.022368 
L 194.78246 234.358614 
L 195.312941 235.363991 
L 195.843422 229.19183 
L 196.373904 230.962751 
L 196.904385 231.857644 
L 197.434866 232.491921 
L 197.965348 231.8068 
L 198.495829 218.615231 
L 199.02631 211.827021 
L 199.556791 207.429618 
L 200.087273 211.000239 
L 200.617754 211.458638 
L 201.148235 210.637133 
L 201.678717 212.841191 
L 202.739679 183.801031 
L 203.27016 196.234731 
L 203.800642 193.780768 
L 204.331123 193.354027 
L 204.861604 197.862072 
L 205.392086 203.362384 
L 206.453048 205.769179 
L 206.983529 202.694851 
L 207.514011 202.954029 
L 208.044492 198.006291 
L 208.574973 197.744874 
L 209.105455 198.173854 
L 209.635936 200.490473 
L 210.166417 199.204173 
L 210.696898 199.333523 
L 211.22738 200.124329 
L 211.757861 197.663491 
L 212.288342 196.899706 
L 212.818824 196.55083 
L 213.349305 194.959623 
L 213.879786 197.378571 
L 214.410267 204.409971 
L 214.940749 207.800718 
L 215.47123 215.88594 
L 216.001711 216.181254 
L 216.532193 211.709183 
L 217.062674 214.05698 
L 217.593155 218.789669 
L 218.123636 220.528132 
L 218.654118 213.210373 
L 219.184599 210.25596 
L 219.71508 211.348635 
L 220.245561 216.534766 
L 220.776043 213.191346 
L 221.306524 213.335885 
L 221.837005 213.337484 
L 222.367487 215.756431 
L 223.428449 207.619405 
L 223.95893 207.929908 
L 224.489412 204.842308 
L 225.019893 204.02512 
L 225.550374 200.716075 
L 226.080856 199.310819 
L 226.611337 195.448081 
L 227.141818 190.373872 
L 227.672299 182.332939 
L 228.202781 178.1864 
L 228.733262 187.123986 
L 229.263743 186.687012 
L 229.794225 184.009685 
L 230.855187 181.190058 
L 231.385668 179.78672 
L 231.91615 177.789398 
L 232.446631 171.151163 
L 232.977112 169.445317 
L 233.507594 178.738334 
L 234.038075 172.602627 
L 235.099037 164.98108 
L 235.629519 167.326319 
L 236.16 157.187814 
L 236.690481 158.3219 
L 237.220963 166.640559 
L 237.751444 181.706657 
L 238.281925 178.027951 
L 238.812406 179.569752 
L 239.342888 179.942611 
L 240.934332 200.007611 
L 241.464813 200.038469 
L 241.995294 189.525666 
L 242.525775 191.966997 
L 243.056257 193.201174 
L 243.586738 197.37905 
L 244.117219 193.471864 
L 244.647701 193.140736 
L 245.708663 189.416462 
L 246.239144 192.476881 
L 246.769626 192.007289 
L 247.300107 187.963559 
L 247.830588 185.290549 
L 248.36107 187.809107 
L 248.891551 190.872883 
L 249.422032 196.440667 
L 249.952513 192.92025 
L 250.482995 185.728643 
L 251.013476 185.805389 
L 251.543957 192.696567 
L 252.074439 191.858753 
L 252.60492 196.454257 
L 253.135401 192.860772 
L 253.665882 201.990703 
L 254.196364 201.603774 
L 254.726845 201.69507 
L 255.257326 201.945455 
L 255.787807 203.368779 
L 256.318289 211.329449 
L 256.84877 212.95743 
L 257.379251 217.350835 
L 257.909733 216.720556 
L 258.440214 210.89935 
L 258.970695 212.232177 
L 260.031658 219.254783 
L 260.562139 224.085483 
L 261.09262 226.055305 
L 261.623102 223.43154 
L 262.153583 224.537167 
L 262.684064 221.789649 
L 263.214545 223.784414 
L 263.745027 220.23122 
L 264.275508 221.213572 
L 264.805989 211.650184 
L 265.336471 204.283499 
L 265.866952 200.882039 
L 266.397433 202.354129 
L 266.927914 192.564339 
L 267.458396 192.570575 
L 268.519358 207.071628 
L 269.04984 201.62424 
L 269.580321 203.006792 
L 270.110802 205.745676 
L 270.641283 210.215828 
L 271.171765 204.492633 
L 271.702246 202.551431 
L 272.232727 204.427398 
L 273.29369 209.964164 
L 273.824171 206.021803 
L 274.354652 199.271646 
L 274.885134 196.847582 
L 275.415615 195.498606 
L 275.946096 193.724807 
L 276.476578 184.890509 
L 277.007059 188.698404 
L 277.53754 185.085732 
L 278.068021 183.062988 
L 278.598503 178.55846 
L 279.128984 179.846998 
L 280.189947 189.581307 
L 280.720428 185.483054 
L 281.250909 179.133258 
L 281.78139 177.165674 
L 282.311872 179.34399 
L 282.842353 187.142213 
L 284.433797 192.34833 
L 284.964278 196.083317 
L 285.494759 195.029814 
L 286.025241 186.86161 
L 286.555722 187.912235 
L 287.086203 185.376089 
L 287.616684 184.824155 
L 288.147166 185.510875 
L 289.208128 191.595098 
L 289.73861 189.735119 
L 290.269091 191.160362 
L 290.799572 183.624355 
L 291.330053 184.579207 
L 291.860535 182.635927 
L 292.391016 186.467805 
L 292.921497 185.798194 
L 293.451979 186.111575 
L 293.98246 185.165836 
L 294.512941 190.746891 
L 295.043422 202.313517 
L 295.573904 208.979093 
L 296.104385 206.602197 
L 296.634866 206.398179 
L 297.165348 202.629936 
L 297.695829 205.849123 
L 298.22631 205.421103 
L 298.756791 197.356186 
L 299.817754 194.322789 
L 300.348235 194.545673 
L 300.878717 189.053196 
L 301.409198 186.155224 
L 301.939679 181.51623 
L 303.000642 171.005185 
L 303.531123 170.624971 
L 304.061604 173.760217 
L 305.122567 177.468502 
L 305.653048 166.174006 
L 306.183529 165.627988 
L 306.714011 174.083831 
L 307.244492 185.447559 
L 307.774973 181.388639 
L 308.305455 175.369331 
L 308.835936 192.14927 
L 309.896898 176.617258 
L 310.42738 179.42953 
L 310.957861 183.828852 
L 311.488342 186.026834 
L 312.018824 186.18912 
L 312.549305 189.51895 
L 313.079786 182.516011 
L 313.610267 182.252355 
L 314.140749 182.422956 
L 314.67123 177.310533 
L 315.201711 177.624233 
L 315.732193 173.82753 
L 316.262674 174.802368 
L 316.793155 170.184959 
L 317.323636 170.253551 
L 317.854118 173.634705 
L 318.384599 172.531477 
L 318.91508 175.540891 
L 319.445561 182.670942 
L 319.976043 178.810443 
L 320.506524 176.865884 
L 321.567487 181.397113 
L 322.097968 175.259808 
L 322.628449 166.034103 
L 323.15893 163.271237 
L 323.689412 162.782619 
L 324.219893 160.533792 
L 324.750374 157.1504 
L 325.280856 154.54918 
L 325.811337 149.222187 
L 326.341818 142.38729 
L 326.872299 142.036336 
L 327.402781 150.793408 
L 327.933262 152.255425 
L 328.463743 143.31672 
L 328.994225 148.119279 
L 330.585668 177.779645 
L 331.11615 177.955362 
L 331.646631 179.113911 
L 332.177112 182.881195 
L 332.707594 175.339112 
L 333.238075 175.100719 
L 333.768556 171.790076 
L 334.299037 165.776684 
L 334.829519 166.663103 
L 335.36 170.253231 
L 336.420963 166.65319 
L 336.951444 167.602286 
L 337.481925 170.230207 
L 338.012406 167.238381 
L 338.542888 167.805504 
L 339.073369 169.789236 
L 339.60385 176.880434 
L 340.134332 178.58612 
L 340.664813 178.484911 
L 341.195294 179.066584 
L 341.725775 180.395574 
L 342.786738 189.073342 
L 343.317219 187.192738 
L 344.378182 195.289313 
L 344.908663 197.500405 
L 345.439144 197.403034 
L 345.969626 202.317994 
L 346.500107 198.041307 
L 347.030588 197.167039 
L 347.56107 200.933043 
L 348.091551 200.787385 
L 348.622032 202.737541 
L 349.152513 201.272326 
L 349.682995 201.079821 
L 350.213476 189.451957 
L 350.743957 183.939335 
L 351.274439 182.565256 
L 351.80492 191.57799 
L 352.335401 184.490949 
L 352.865882 183.411544 
L 353.396364 186.042983 
L 353.926845 197.660294 
L 354.457326 198.232053 
L 354.987807 191.836848 
L 356.04877 201.537101 
L 356.579251 212.492955 
L 357.109733 209.690436 
L 357.640214 189.471304 
L 358.170695 190.052977 
L 358.701176 210.439671 
L 359.231658 213.619047 
L 359.762139 203.522591 
L 360.823102 195.888893 
L 361.353583 195.200415 
L 362.414545 170.224132 
L 362.945027 144.375339 
L 363.475508 147.137566 
L 364.005989 137.268792 
L 364.536471 131.82636 
L 365.066952 106.897563 
L 365.597433 69.529951 
L 366.127914 53.568 
L 367.188877 126.044486 
L 367.719358 123.897988 
L 368.24984 117.429074 
L 369.841283 157.583856 
L 370.371765 152.383016 
L 370.902246 140.531149 
L 371.432727 143.741862 
L 371.963209 152.282286 
L 372.49369 141.440433 
L 373.024171 122.116354 
L 373.554652 143.690058 
L 374.085134 148.815592 
L 374.615615 159.837479 
L 375.146096 161.144885 
L 375.676578 165.206523 
L 376.207059 162.900456 
L 376.73754 170.288566 
L 377.268021 167.814458 
L 377.798503 159.352699 
L 378.328984 163.826688 
L 378.859465 165.459466 
L 379.389947 158.62233 
L 379.920428 163.922781 
L 380.450909 165.389435 
L 380.98139 165.343866 
L 381.511872 166.670458 
L 382.042353 170.134754 
L 382.572834 163.847314 
L 383.103316 163.66616 
L 383.633797 164.373186 
L 384.164278 163.883608 
L 384.694759 163.234462 
L 385.225241 140.026382 
L 385.755722 139.788948 
L 386.286203 146.456443 
L 386.816684 154.852807 
L 387.347166 148.001442 
L 387.877647 146.297514 
L 388.408128 159.929895 
L 388.93861 151.544882 
L 389.469091 147.171302 
L 389.999572 144.903929 
L 390.530053 151.708288 
L 391.060535 153.211556 
L 391.591016 156.281568 
L 392.121497 151.407378 
L 392.651979 157.346902 
L 393.712941 163.833563 
L 394.243422 161.797868 
L 395.834866 178.957221 
L 396.365348 177.726882 
L 396.895829 175.02845 
L 397.42631 185.690589 
L 397.956791 183.27404 
L 398.487273 184.292208 
L 398.487273 184.292208 
" clip-path="url(#pdeeb36e35b)" style="fill: none; stroke: #008000; stroke-width: 1.5; stroke-linecap: square"/>
   </g>
   <g id="patch_3">
    <path d="M 57.6 307.584 
L 57.6 41.472 
" style="fill: none; stroke: #000000; stroke-width: 0.8; stroke-linejoin: miter; stroke-linecap: square"/>
   </g>
   <g id="patch_4">
    <path d="M 414.72 307.584 
L 414.72 41.472 
" style="fill: none; stroke: #000000; stroke-width: 0.8; stroke-linejoin: miter; stroke-linecap: square"/>
   </g>
   <g id="patch_5">
    <path d="M 57.6 307.584 
L 414.72 307.584 
" style="fill: none; stroke: #000000; stroke-width: 0.8; stroke-linejoin: miter; stroke-linecap: square"/>
   </g>
   <g id="patch_6">
    <path d="M 57.6 41.472 
L 414.72 41.472 
" style="fill: none; stroke: #000000; stroke-width: 0.8; stroke-linejoin: miter; stroke-linecap: square"/>
   </g>
   <g id="text_18">
    <!-- EUR price prediction -->
    <g transform="translate(174.960938 35.472)scale(0.12 -0.12)">
     <defs>
      <path id="DejaVuSans-45" d="M 628 4666 
L 3578 4666 
L 3578 4134 
L 1259 4134 
L 1259 2753 
L 3481 2753 
L 3481 2222 
L 1259 2222 
L 1259 531 
L 3634 531 
L 3634 0 
L 628 0 
L 628 4666 
z
" transform="scale(0.015625)"/>
      <path id="DejaVuSans-55" d="M 556 4666 
L 1191 4666 
L 1191 1831 
Q 1191 1081 1462 751 
Q 1734 422 2344 422 
Q 2950 422 3222 751 
Q 3494 1081 3494 1831 
L 3494 4666 
L 4128 4666 
L 4128 1753 
Q 4128 841 3676 375 
Q 3225 -91 2344 -91 
Q 1459 -91 1007 375 
Q 556 841 556 1753 
L 556 4666 
z
" transform="scale(0.015625)"/>
      <path id="DejaVuSans-52" d="M 2841 2188 
Q 3044 2119 3236 1894 
Q 3428 1669 3622 1275 
L 4263 0 
L 3584 0 
L 2988 1197 
Q 2756 1666 2539 1819 
Q 2322 1972 1947 1972 
L 1259 1972 
L 1259 0 
L 628 0 
L 628 4666 
L 2053 4666 
Q 2853 4666 3247 4331 
Q 3641 3997 3641 3322 
Q 3641 2881 3436 2590 
Q 3231 2300 2841 2188 
z
M 1259 4147 
L 1259 2491 
L 2053 2491 
Q 2509 2491 2742 2702 
Q 2975 2913 2975 3322 
Q 2975 3731 2742 3939 
Q 2509 4147 2053 4147 
L 1259 4147 
z
" transform="scale(0.015625)"/>
      <path id="DejaVuSans-20" transform="scale(0.015625)"/>
      <path id="DejaVuSans-70" d="M 1159 525 
L 1159 -1331 
L 581 -1331 
L 581 3500 
L 1159 3500 
L 1159 2969 
Q 1341 3281 1617 3432 
Q 1894 3584 2278 3584 
Q 2916 3584 3314 3078 
Q 3713 2572 3713 1747 
Q 3713 922 3314 415 
Q 2916 -91 2278 -91 
Q 1894 -91 1617 61 
Q 1341 213 1159 525 
z
M 3116 1747 
Q 3116 2381 2855 2742 
Q 2594 3103 2138 3103 
Q 1681 3103 1420 2742 
Q 1159 2381 1159 1747 
Q 1159 1113 1420 752 
Q 1681 391 2138 391 
Q 2594 391 2855 752 
Q 3116 1113 3116 1747 
z
" transform="scale(0.015625)"/>
      <path id="DejaVuSans-64" d="M 2906 2969 
L 2906 4863 
L 3481 4863 
L 3481 0 
L 2906 0 
L 2906 525 
Q 2725 213 2448 61 
Q 2172 -91 1784 -91 
Q 1150 -91 751 415 
Q 353 922 353 1747 
Q 353 2572 751 3078 
Q 1150 3584 1784 3584 
Q 2172 3584 2448 3432 
Q 2725 3281 2906 2969 
z
M 947 1747 
Q 947 1113 1208 752 
Q 1469 391 1925 391 
Q 2381 391 2643 752 
Q 2906 1113 2906 1747 
Q 2906 2381 2643 2742 
Q 2381 3103 1925 3103 
Q 1469 3103 1208 2742 
Q 947 2381 947 1747 
z
" transform="scale(0.015625)"/>
      <path id="DejaVuSans-74" d="M 1172 4494 
L 1172 3500 
L 2356 3500 
L 2356 3053 
L 1172 3053 
L 1172 1153 
Q 1172 725 1289 603 
Q 1406 481 1766 481 
L 2356 481 
L 2356 0 
L 1766 0 
Q 1100 0 847 248 
Q 594 497 594 1153 
L 594 3053 
L 172 3053 
L 172 3500 
L 594 3500 
L 594 4494 
L 1172 4494 
z
" transform="scale(0.015625)"/>
      <path id="DejaVuSans-6f" d="M 1959 3097 
Q 1497 3097 1228 2736 
Q 959 2375 959 1747 
Q 959 1119 1226 758 
Q 1494 397 1959 397 
Q 2419 397 2687 759 
Q 2956 1122 2956 1747 
Q 2956 2369 2687 2733 
Q 2419 3097 1959 3097 
z
M 1959 3584 
Q 2709 3584 3137 3096 
Q 3566 2609 3566 1747 
Q 3566 888 3137 398 
Q 2709 -91 1959 -91 
Q 1206 -91 779 398 
Q 353 888 353 1747 
Q 353 2609 779 3096 
Q 1206 3584 1959 3584 
z
" transform="scale(0.015625)"/>
      <path id="DejaVuSans-6e" d="M 3513 2113 
L 3513 0 
L 2938 0 
L 2938 2094 
Q 2938 2591 2744 2837 
Q 2550 3084 2163 3084 
Q 1697 3084 1428 2787 
Q 1159 2491 1159 1978 
L 1159 0 
L 581 0 
L 581 3500 
L 1159 3500 
L 1159 2956 
Q 1366 3272 1645 3428 
Q 1925 3584 2291 3584 
Q 2894 3584 3203 3211 
Q 3513 2838 3513 2113 
z
" transform="scale(0.015625)"/>
     </defs>
     <use xlink:href="#DejaVuSans-45"/>
     <use xlink:href="#DejaVuSans-55" x="63.183594"/>
     <use xlink:href="#DejaVuSans-52" x="136.376953"/>
     <use xlink:href="#DejaVuSans-20" x="205.859375"/>
     <use xlink:href="#DejaVuSans-70" x="237.646484"/>
     <use xlink:href="#DejaVuSans-72" x="301.123047"/>
     <use xlink:href="#DejaVuSans-69" x="342.236328"/>
     <use xlink:href="#DejaVuSans-63" x="370.019531"/>
     <use xlink:href="#DejaVuSans-65" x="425"/>
     <use xlink:href="#DejaVuSans-20" x="486.523438"/>
     <use xlink:href="#DejaVuSans-70" x="518.310547"/>
     <use xlink:href="#DejaVuSans-72" x="581.787109"/>
     <use xlink:href="#DejaVuSans-65" x="620.650391"/>
     <use xlink:href="#DejaVuSans-64" x="682.173828"/>
     <use xlink:href="#DejaVuSans-69" x="745.650391"/>
     <use xlink:href="#DejaVuSans-63" x="773.433594"/>
     <use xlink:href="#DejaVuSans-74" x="828.414062"/>
     <use xlink:href="#DejaVuSans-69" x="867.623047"/>
     <use xlink:href="#DejaVuSans-6f" x="895.40625"/>
     <use xlink:href="#DejaVuSans-6e" x="956.587891"/>
    </g>
   </g>
   <g id="legend_1">
    <g id="patch_7">
     <path d="M 64.6 78.82825 
L 176.323438 78.82825 
Q 178.323438 78.82825 178.323438 76.82825 
L 178.323438 48.472 
Q 178.323438 46.472 176.323438 46.472 
L 64.6 46.472 
Q 62.6 46.472 62.6 48.472 
L 62.6 76.82825 
Q 62.6 78.82825 64.6 78.82825 
z
" style="fill: #ffffff; opacity: 0.8; stroke: #cccccc; stroke-linejoin: miter"/>
    </g>
    <g id="line2d_18">
     <path d="M 66.6 54.570437 
L 76.6 54.570437 
L 86.6 54.570437 
" style="fill: none; stroke: #000000; stroke-width: 1.5; stroke-linecap: square"/>
    </g>
    <g id="text_19">
     <!-- Actual Prices -->
     <g transform="translate(94.6 58.070437)scale(0.1 -0.1)">
      <defs>
       <path id="DejaVuSans-41" d="M 2188 4044 
L 1331 1722 
L 3047 1722 
L 2188 4044 
z
M 1831 4666 
L 2547 4666 
L 4325 0 
L 3669 0 
L 3244 1197 
L 1141 1197 
L 716 0 
L 50 0 
L 1831 4666 
z
" transform="scale(0.015625)"/>
       <path id="DejaVuSans-75" d="M 544 1381 
L 544 3500 
L 1119 3500 
L 1119 1403 
Q 1119 906 1312 657 
Q 1506 409 1894 409 
Q 2359 409 2629 706 
Q 2900 1003 2900 1516 
L 2900 3500 
L 3475 3500 
L 3475 0 
L 2900 0 
L 2900 538 
Q 2691 219 2414 64 
Q 2138 -91 1772 -91 
Q 1169 -91 856 284 
Q 544 659 544 1381 
z
M 1991 3584 
L 1991 3584 
z
" transform="scale(0.015625)"/>
       <path id="DejaVuSans-61" d="M 2194 1759 
Q 1497 1759 1228 1600 
Q 959 1441 959 1056 
Q 959 750 1161 570 
Q 1363 391 1709 391 
Q 2188 391 2477 730 
Q 2766 1069 2766 1631 
L 2766 1759 
L 2194 1759 
z
M 3341 1997 
L 3341 0 
L 2766 0 
L 2766 531 
Q 2569 213 2275 61 
Q 1981 -91 1556 -91 
Q 1019 -91 701 211 
Q 384 513 384 1019 
Q 384 1609 779 1909 
Q 1175 2209 1959 2209 
L 2766 2209 
L 2766 2266 
Q 2766 2663 2505 2880 
Q 2244 3097 1772 3097 
Q 1472 3097 1187 3025 
Q 903 2953 641 2809 
L 641 3341 
Q 956 3463 1253 3523 
Q 1550 3584 1831 3584 
Q 2591 3584 2966 3190 
Q 3341 2797 3341 1997 
z
" transform="scale(0.015625)"/>
       <path id="DejaVuSans-6c" d="M 603 4863 
L 1178 4863 
L 1178 0 
L 603 0 
L 603 4863 
z
" transform="scale(0.015625)"/>
       <path id="DejaVuSans-73" d="M 2834 3397 
L 2834 2853 
Q 2591 2978 2328 3040 
Q 2066 3103 1784 3103 
Q 1356 3103 1142 2972 
Q 928 2841 928 2578 
Q 928 2378 1081 2264 
Q 1234 2150 1697 2047 
L 1894 2003 
Q 2506 1872 2764 1633 
Q 3022 1394 3022 966 
Q 3022 478 2636 193 
Q 2250 -91 1575 -91 
Q 1294 -91 989 -36 
Q 684 19 347 128 
L 347 722 
Q 666 556 975 473 
Q 1284 391 1588 391 
Q 1994 391 2212 530 
Q 2431 669 2431 922 
Q 2431 1156 2273 1281 
Q 2116 1406 1581 1522 
L 1381 1569 
Q 847 1681 609 1914 
Q 372 2147 372 2553 
Q 372 3047 722 3315 
Q 1072 3584 1716 3584 
Q 2034 3584 2315 3537 
Q 2597 3491 2834 3397 
z
" transform="scale(0.015625)"/>
      </defs>
      <use xlink:href="#DejaVuSans-41"/>
      <use xlink:href="#DejaVuSans-63" x="66.658203"/>
      <use xlink:href="#DejaVuSans-74" x="121.638672"/>
      <use xlink:href="#DejaVuSans-75" x="160.847656"/>
      <use xlink:href="#DejaVuSans-61" x="224.226562"/>
      <use xlink:href="#DejaVuSans-6c" x="285.505859"/>
      <use xlink:href="#DejaVuSans-20" x="313.289062"/>
      <use xlink:href="#DejaVuSans-50" x="345.076172"/>
      <use xlink:href="#DejaVuSans-72" x="403.628906"/>
      <use xlink:href="#DejaVuSans-69" x="444.742188"/>
      <use xlink:href="#DejaVuSans-63" x="472.525391"/>
      <use xlink:href="#DejaVuSans-65" x="527.505859"/>
      <use xlink:href="#DejaVuSans-73" x="589.029297"/>
     </g>
    </g>
    <g id="line2d_19">
     <path d="M 66.6 69.248562 
L 76.6 69.248562 
L 86.6 69.248562 
" style="fill: none; stroke: #008000; stroke-width: 1.5; stroke-linecap: square"/>
    </g>
    <g id="text_20">
     <!-- Predicted Prices -->
     <g transform="translate(94.6 72.748562)scale(0.1 -0.1)">
      <use xlink:href="#DejaVuSans-50"/>
      <use xlink:href="#DejaVuSans-72" x="58.552734"/>
      <use xlink:href="#DejaVuSans-65" x="97.416016"/>
      <use xlink:href="#DejaVuSans-64" x="158.939453"/>
      <use xlink:href="#DejaVuSans-69" x="222.416016"/>
      <use xlink:href="#DejaVuSans-63" x="250.199219"/>
      <use xlink:href="#DejaVuSans-74" x="305.179688"/>
      <use xlink:href="#DejaVuSans-65" x="344.388672"/>
      <use xlink:href="#DejaVuSans-64" x="405.912109"/>
      <use xlink:href="#DejaVuSans-20" x="469.388672"/>
      <use xlink:href="#DejaVuSans-50" x="501.175781"/>
      <use xlink:href="#DejaVuSans-72" x="559.728516"/>
      <use xlink:href="#DejaVuSans-69" x="600.841797"/>
      <use xlink:href="#DejaVuSans-63" x="628.625"/>
      <use xlink:href="#DejaVuSans-65" x="683.605469"/>
      <use xlink:href="#DejaVuSans-73" x="745.128906"/>
     </g>
    </g>
   </g>
  </g>
 </g>
 <defs>
  <clipPath id="pdeeb36e35b">
   <rect x="57.6" y="41.472" width="357.12" height="266.112"/>
  </clipPath>
 </defs>
</svg>
