<?xml version="1.0" encoding="utf-8" standalone="no"?>
<!DOCTYPE svg PUBLIC "-//W3C//DTD SVG 1.1//EN"
  "http://www.w3.org/Graphics/SVG/1.1/DTD/svg11.dtd">
<svg xmlns:xlink="http://www.w3.org/1999/xlink" width="460.8pt" height="345.6pt" viewBox="0 0 460.8 345.6" xmlns="http://www.w3.org/2000/svg" version="1.1">
 <metadata>
  <rdf:RDF xmlns:dc="http://purl.org/dc/elements/1.1/" xmlns:cc="http://creativecommons.org/ns#" xmlns:rdf="http://www.w3.org/1999/02/22-rdf-syntax-ns#">
   <cc:Work>
    <dc:type rdf:resource="http://purl.org/dc/dcmitype/StillImage"/>
    <dc:date>2022-06-06T21:53:46.365019</dc:date>
    <dc:format>image/svg+xml</dc:format>
    <dc:creator>
     <cc:Agent>
      <dc:title>Matplotlib v3.5.1, https://matplotlib.org/</dc:title>
     </cc:Agent>
    </dc:creator>
   </cc:Work>
  </rdf:RDF>
 </metadata>
 <defs>
  <style type="text/css">*{stroke-linejoin: round; stroke-linecap: butt}</style>
 </defs>
 <g id="figure_1">
  <g id="patch_1">
   <path d="M 0 345.6 
L 460.8 345.6 
L 460.8 0 
L 0 0 
z
" style="fill: #ffffff"/>
  </g>
  <g id="axes_1">
   <g id="patch_2">
    <path d="M 57.6 307.584 
L 414.72 307.584 
L 414.72 41.472 
L 57.6 41.472 
z
" style="fill: #ffffff"/>
   </g>
   <g id="matplotlib.axis_1">
    <g id="xtick_1">
     <g id="line2d_1">
      <defs>
       <path id="m5564f6a25f" d="M 0 0 
L 0 3.5 
" style="stroke: #000000; stroke-width: 0.8"/>
      </defs>
      <g>
       <use xlink:href="#m5564f6a25f" x="73.832727" y="307.584" style="stroke: #000000; stroke-width: 0.8"/>
      </g>
     </g>
     <g id="text_1">
      <!-- 0 -->
      <g transform="translate(70.651477 322.182437)scale(0.1 -0.1)">
       <defs>
        <path id="DejaVuSans-30" d="M 2034 4250 
Q 1547 4250 1301 3770 
Q 1056 3291 1056 2328 
Q 1056 1369 1301 889 
Q 1547 409 2034 409 
Q 2525 409 2770 889 
Q 3016 1369 3016 2328 
Q 3016 3291 2770 3770 
Q 2525 4250 2034 4250 
z
M 2034 4750 
Q 2819 4750 3233 4129 
Q 3647 3509 3647 2328 
Q 3647 1150 3233 529 
Q 2819 -91 2034 -91 
Q 1250 -91 836 529 
Q 422 1150 422 2328 
Q 422 3509 836 4129 
Q 1250 4750 2034 4750 
z
" transform="scale(0.015625)"/>
       </defs>
       <use xlink:href="#DejaVuSans-30"/>
      </g>
     </g>
    </g>
    <g id="xtick_2">
     <g id="line2d_2">
      <g>
       <use xlink:href="#m5564f6a25f" x="126.880856" y="307.584" style="stroke: #000000; stroke-width: 0.8"/>
      </g>
     </g>
     <g id="text_2">
      <!-- 100 -->
      <g transform="translate(117.337106 322.182437)scale(0.1 -0.1)">
       <defs>
        <path id="DejaVuSans-31" d="M 794 531 
L 1825 531 
L 1825 4091 
L 703 3866 
L 703 4441 
L 1819 4666 
L 2450 4666 
L 2450 531 
L 3481 531 
L 3481 0 
L 794 0 
L 794 531 
z
" transform="scale(0.015625)"/>
       </defs>
       <use xlink:href="#DejaVuSans-31"/>
       <use xlink:href="#DejaVuSans-30" x="63.623047"/>
       <use xlink:href="#DejaVuSans-30" x="127.246094"/>
      </g>
     </g>
    </g>
    <g id="xtick_3">
     <g id="line2d_3">
      <g>
       <use xlink:href="#m5564f6a25f" x="179.928984" y="307.584" style="stroke: #000000; stroke-width: 0.8"/>
      </g>
     </g>
     <g id="text_3">
      <!-- 200 -->
      <g transform="translate(170.385234 322.182437)scale(0.1 -0.1)">
       <defs>
        <path id="DejaVuSans-32" d="M 1228 531 
L 3431 531 
L 3431 0 
L 469 0 
L 469 531 
Q 828 903 1448 1529 
Q 2069 2156 2228 2338 
Q 2531 2678 2651 2914 
Q 2772 3150 2772 3378 
Q 2772 3750 2511 3984 
Q 2250 4219 1831 4219 
Q 1534 4219 1204 4116 
Q 875 4013 500 3803 
L 500 4441 
Q 881 4594 1212 4672 
Q 1544 4750 1819 4750 
Q 2544 4750 2975 4387 
Q 3406 4025 3406 3419 
Q 3406 3131 3298 2873 
Q 3191 2616 2906 2266 
Q 2828 2175 2409 1742 
Q 1991 1309 1228 531 
z
" transform="scale(0.015625)"/>
       </defs>
       <use xlink:href="#DejaVuSans-32"/>
       <use xlink:href="#DejaVuSans-30" x="63.623047"/>
       <use xlink:href="#DejaVuSans-30" x="127.246094"/>
      </g>
     </g>
    </g>
    <g id="xtick_4">
     <g id="line2d_4">
      <g>
       <use xlink:href="#m5564f6a25f" x="232.977112" y="307.584" style="stroke: #000000; stroke-width: 0.8"/>
      </g>
     </g>
     <g id="text_4">
      <!-- 300 -->
      <g transform="translate(223.433362 322.182437)scale(0.1 -0.1)">
       <defs>
        <path id="DejaVuSans-33" d="M 2597 2516 
Q 3050 2419 3304 2112 
Q 3559 1806 3559 1356 
Q 3559 666 3084 287 
Q 2609 -91 1734 -91 
Q 1441 -91 1130 -33 
Q 819 25 488 141 
L 488 750 
Q 750 597 1062 519 
Q 1375 441 1716 441 
Q 2309 441 2620 675 
Q 2931 909 2931 1356 
Q 2931 1769 2642 2001 
Q 2353 2234 1838 2234 
L 1294 2234 
L 1294 2753 
L 1863 2753 
Q 2328 2753 2575 2939 
Q 2822 3125 2822 3475 
Q 2822 3834 2567 4026 
Q 2313 4219 1838 4219 
Q 1578 4219 1281 4162 
Q 984 4106 628 3988 
L 628 4550 
Q 988 4650 1302 4700 
Q 1616 4750 1894 4750 
Q 2613 4750 3031 4423 
Q 3450 4097 3450 3541 
Q 3450 3153 3228 2886 
Q 3006 2619 2597 2516 
z
" transform="scale(0.015625)"/>
       </defs>
       <use xlink:href="#DejaVuSans-33"/>
       <use xlink:href="#DejaVuSans-30" x="63.623047"/>
       <use xlink:href="#DejaVuSans-30" x="127.246094"/>
      </g>
     </g>
    </g>
    <g id="xtick_5">
     <g id="line2d_5">
      <g>
       <use xlink:href="#m5564f6a25f" x="286.025241" y="307.584" style="stroke: #000000; stroke-width: 0.8"/>
      </g>
     </g>
     <g id="text_5">
      <!-- 400 -->
      <g transform="translate(276.481491 322.182437)scale(0.1 -0.1)">
       <defs>
        <path id="DejaVuSans-34" d="M 2419 4116 
L 825 1625 
L 2419 1625 
L 2419 4116 
z
M 2253 4666 
L 3047 4666 
L 3047 1625 
L 3713 1625 
L 3713 1100 
L 3047 1100 
L 3047 0 
L 2419 0 
L 2419 1100 
L 313 1100 
L 313 1709 
L 2253 4666 
z
" transform="scale(0.015625)"/>
       </defs>
       <use xlink:href="#DejaVuSans-34"/>
       <use xlink:href="#DejaVuSans-30" x="63.623047"/>
       <use xlink:href="#DejaVuSans-30" x="127.246094"/>
      </g>
     </g>
    </g>
    <g id="xtick_6">
     <g id="line2d_6">
      <g>
       <use xlink:href="#m5564f6a25f" x="339.073369" y="307.584" style="stroke: #000000; stroke-width: 0.8"/>
      </g>
     </g>
     <g id="text_6">
      <!-- 500 -->
      <g transform="translate(329.529619 322.182437)scale(0.1 -0.1)">
       <defs>
        <path id="DejaVuSans-35" d="M 691 4666 
L 3169 4666 
L 3169 4134 
L 1269 4134 
L 1269 2991 
Q 1406 3038 1543 3061 
Q 1681 3084 1819 3084 
Q 2600 3084 3056 2656 
Q 3513 2228 3513 1497 
Q 3513 744 3044 326 
Q 2575 -91 1722 -91 
Q 1428 -91 1123 -41 
Q 819 9 494 109 
L 494 744 
Q 775 591 1075 516 
Q 1375 441 1709 441 
Q 2250 441 2565 725 
Q 2881 1009 2881 1497 
Q 2881 1984 2565 2268 
Q 2250 2553 1709 2553 
Q 1456 2553 1204 2497 
Q 953 2441 691 2322 
L 691 4666 
z
" transform="scale(0.015625)"/>
       </defs>
       <use xlink:href="#DejaVuSans-35"/>
       <use xlink:href="#DejaVuSans-30" x="63.623047"/>
       <use xlink:href="#DejaVuSans-30" x="127.246094"/>
      </g>
     </g>
    </g>
    <g id="xtick_7">
     <g id="line2d_7">
      <g>
       <use xlink:href="#m5564f6a25f" x="392.121497" y="307.584" style="stroke: #000000; stroke-width: 0.8"/>
      </g>
     </g>
     <g id="text_7">
      <!-- 600 -->
      <g transform="translate(382.577747 322.182437)scale(0.1 -0.1)">
       <defs>
        <path id="DejaVuSans-36" d="M 2113 2584 
Q 1688 2584 1439 2293 
Q 1191 2003 1191 1497 
Q 1191 994 1439 701 
Q 1688 409 2113 409 
Q 2538 409 2786 701 
Q 3034 994 3034 1497 
Q 3034 2003 2786 2293 
Q 2538 2584 2113 2584 
z
M 3366 4563 
L 3366 3988 
Q 3128 4100 2886 4159 
Q 2644 4219 2406 4219 
Q 1781 4219 1451 3797 
Q 1122 3375 1075 2522 
Q 1259 2794 1537 2939 
Q 1816 3084 2150 3084 
Q 2853 3084 3261 2657 
Q 3669 2231 3669 1497 
Q 3669 778 3244 343 
Q 2819 -91 2113 -91 
Q 1303 -91 875 529 
Q 447 1150 447 2328 
Q 447 3434 972 4092 
Q 1497 4750 2381 4750 
Q 2619 4750 2861 4703 
Q 3103 4656 3366 4563 
z
" transform="scale(0.015625)"/>
       </defs>
       <use xlink:href="#DejaVuSans-36"/>
       <use xlink:href="#DejaVuSans-30" x="63.623047"/>
       <use xlink:href="#DejaVuSans-30" x="127.246094"/>
      </g>
     </g>
    </g>
    <g id="text_8">
     <!-- Time -->
     <g transform="translate(223.926406 335.860562)scale(0.1 -0.1)">
      <defs>
       <path id="DejaVuSans-54" d="M -19 4666 
L 3928 4666 
L 3928 4134 
L 2272 4134 
L 2272 0 
L 1638 0 
L 1638 4134 
L -19 4134 
L -19 4666 
z
" transform="scale(0.015625)"/>
       <path id="DejaVuSans-69" d="M 603 3500 
L 1178 3500 
L 1178 0 
L 603 0 
L 603 3500 
z
M 603 4863 
L 1178 4863 
L 1178 4134 
L 603 4134 
L 603 4863 
z
" transform="scale(0.015625)"/>
       <path id="DejaVuSans-6d" d="M 3328 2828 
Q 3544 3216 3844 3400 
Q 4144 3584 4550 3584 
Q 5097 3584 5394 3201 
Q 5691 2819 5691 2113 
L 5691 0 
L 5113 0 
L 5113 2094 
Q 5113 2597 4934 2840 
Q 4756 3084 4391 3084 
Q 3944 3084 3684 2787 
Q 3425 2491 3425 1978 
L 3425 0 
L 2847 0 
L 2847 2094 
Q 2847 2600 2669 2842 
Q 2491 3084 2119 3084 
Q 1678 3084 1418 2786 
Q 1159 2488 1159 1978 
L 1159 0 
L 581 0 
L 581 3500 
L 1159 3500 
L 1159 2956 
Q 1356 3278 1631 3431 
Q 1906 3584 2284 3584 
Q 2666 3584 2933 3390 
Q 3200 3197 3328 2828 
z
" transform="scale(0.015625)"/>
       <path id="DejaVuSans-65" d="M 3597 1894 
L 3597 1613 
L 953 1613 
Q 991 1019 1311 708 
Q 1631 397 2203 397 
Q 2534 397 2845 478 
Q 3156 559 3463 722 
L 3463 178 
Q 3153 47 2828 -22 
Q 2503 -91 2169 -91 
Q 1331 -91 842 396 
Q 353 884 353 1716 
Q 353 2575 817 3079 
Q 1281 3584 2069 3584 
Q 2775 3584 3186 3129 
Q 3597 2675 3597 1894 
z
M 3022 2063 
Q 3016 2534 2758 2815 
Q 2500 3097 2075 3097 
Q 1594 3097 1305 2825 
Q 1016 2553 972 2059 
L 3022 2063 
z
" transform="scale(0.015625)"/>
      </defs>
      <use xlink:href="#DejaVuSans-54"/>
      <use xlink:href="#DejaVuSans-69" x="57.958984"/>
      <use xlink:href="#DejaVuSans-6d" x="85.742188"/>
      <use xlink:href="#DejaVuSans-65" x="183.154297"/>
     </g>
    </g>
   </g>
   <g id="matplotlib.axis_2">
    <g id="ytick_1">
     <g id="line2d_8">
      <defs>
       <path id="m6054ef6e76" d="M 0 0 
L -3.5 0 
" style="stroke: #000000; stroke-width: 0.8"/>
      </defs>
      <g>
       <use xlink:href="#m6054ef6e76" x="57.6" y="276.822717" style="stroke: #000000; stroke-width: 0.8"/>
      </g>
     </g>
     <g id="text_9">
      <!-- 4.3 -->
      <g transform="translate(34.696875 280.621935)scale(0.1 -0.1)">
       <defs>
        <path id="DejaVuSans-2e" d="M 684 794 
L 1344 794 
L 1344 0 
L 684 0 
L 684 794 
z
" transform="scale(0.015625)"/>
       </defs>
       <use xlink:href="#DejaVuSans-34"/>
       <use xlink:href="#DejaVuSans-2e" x="63.623047"/>
       <use xlink:href="#DejaVuSans-33" x="95.410156"/>
      </g>
     </g>
    </g>
    <g id="ytick_2">
     <g id="line2d_9">
      <g>
       <use xlink:href="#m6054ef6e76" x="57.6" y="243.227846" style="stroke: #000000; stroke-width: 0.8"/>
      </g>
     </g>
     <g id="text_10">
      <!-- 4.4 -->
      <g transform="translate(34.696875 247.027065)scale(0.1 -0.1)">
       <use xlink:href="#DejaVuSans-34"/>
       <use xlink:href="#DejaVuSans-2e" x="63.623047"/>
       <use xlink:href="#DejaVuSans-34" x="95.410156"/>
      </g>
     </g>
    </g>
    <g id="ytick_3">
     <g id="line2d_10">
      <g>
       <use xlink:href="#m6054ef6e76" x="57.6" y="209.632976" style="stroke: #000000; stroke-width: 0.8"/>
      </g>
     </g>
     <g id="text_11">
      <!-- 4.5 -->
      <g transform="translate(34.696875 213.432195)scale(0.1 -0.1)">
       <use xlink:href="#DejaVuSans-34"/>
       <use xlink:href="#DejaVuSans-2e" x="63.623047"/>
       <use xlink:href="#DejaVuSans-35" x="95.410156"/>
      </g>
     </g>
    </g>
    <g id="ytick_4">
     <g id="line2d_11">
      <g>
       <use xlink:href="#m6054ef6e76" x="57.6" y="176.038106" style="stroke: #000000; stroke-width: 0.8"/>
      </g>
     </g>
     <g id="text_12">
      <!-- 4.6 -->
      <g transform="translate(34.696875 179.837324)scale(0.1 -0.1)">
       <use xlink:href="#DejaVuSans-34"/>
       <use xlink:href="#DejaVuSans-2e" x="63.623047"/>
       <use xlink:href="#DejaVuSans-36" x="95.410156"/>
      </g>
     </g>
    </g>
    <g id="ytick_5">
     <g id="line2d_12">
      <g>
       <use xlink:href="#m6054ef6e76" x="57.6" y="142.443235" style="stroke: #000000; stroke-width: 0.8"/>
      </g>
     </g>
     <g id="text_13">
      <!-- 4.7 -->
      <g transform="translate(34.696875 146.242454)scale(0.1 -0.1)">
       <defs>
        <path id="DejaVuSans-37" d="M 525 4666 
L 3525 4666 
L 3525 4397 
L 1831 0 
L 1172 0 
L 2766 4134 
L 525 4134 
L 525 4666 
z
" transform="scale(0.015625)"/>
       </defs>
       <use xlink:href="#DejaVuSans-34"/>
       <use xlink:href="#DejaVuSans-2e" x="63.623047"/>
       <use xlink:href="#DejaVuSans-37" x="95.410156"/>
      </g>
     </g>
    </g>
    <g id="ytick_6">
     <g id="line2d_13">
      <g>
       <use xlink:href="#m6054ef6e76" x="57.6" y="108.848365" style="stroke: #000000; stroke-width: 0.8"/>
      </g>
     </g>
     <g id="text_14">
      <!-- 4.8 -->
      <g transform="translate(34.696875 112.647584)scale(0.1 -0.1)">
       <defs>
        <path id="DejaVuSans-38" d="M 2034 2216 
Q 1584 2216 1326 1975 
Q 1069 1734 1069 1313 
Q 1069 891 1326 650 
Q 1584 409 2034 409 
Q 2484 409 2743 651 
Q 3003 894 3003 1313 
Q 3003 1734 2745 1975 
Q 2488 2216 2034 2216 
z
M 1403 2484 
Q 997 2584 770 2862 
Q 544 3141 544 3541 
Q 544 4100 942 4425 
Q 1341 4750 2034 4750 
Q 2731 4750 3128 4425 
Q 3525 4100 3525 3541 
Q 3525 3141 3298 2862 
Q 3072 2584 2669 2484 
Q 3125 2378 3379 2068 
Q 3634 1759 3634 1313 
Q 3634 634 3220 271 
Q 2806 -91 2034 -91 
Q 1263 -91 848 271 
Q 434 634 434 1313 
Q 434 1759 690 2068 
Q 947 2378 1403 2484 
z
M 1172 3481 
Q 1172 3119 1398 2916 
Q 1625 2713 2034 2713 
Q 2441 2713 2670 2916 
Q 2900 3119 2900 3481 
Q 2900 3844 2670 4047 
Q 2441 4250 2034 4250 
Q 1625 4250 1398 4047 
Q 1172 3844 1172 3481 
z
" transform="scale(0.015625)"/>
       </defs>
       <use xlink:href="#DejaVuSans-34"/>
       <use xlink:href="#DejaVuSans-2e" x="63.623047"/>
       <use xlink:href="#DejaVuSans-38" x="95.410156"/>
      </g>
     </g>
    </g>
    <g id="ytick_7">
     <g id="line2d_14">
      <g>
       <use xlink:href="#m6054ef6e76" x="57.6" y="75.253495" style="stroke: #000000; stroke-width: 0.8"/>
      </g>
     </g>
     <g id="text_15">
      <!-- 4.9 -->
      <g transform="translate(34.696875 79.052714)scale(0.1 -0.1)">
       <defs>
        <path id="DejaVuSans-39" d="M 703 97 
L 703 672 
Q 941 559 1184 500 
Q 1428 441 1663 441 
Q 2288 441 2617 861 
Q 2947 1281 2994 2138 
Q 2813 1869 2534 1725 
Q 2256 1581 1919 1581 
Q 1219 1581 811 2004 
Q 403 2428 403 3163 
Q 403 3881 828 4315 
Q 1253 4750 1959 4750 
Q 2769 4750 3195 4129 
Q 3622 3509 3622 2328 
Q 3622 1225 3098 567 
Q 2575 -91 1691 -91 
Q 1453 -91 1209 -44 
Q 966 3 703 97 
z
M 1959 2075 
Q 2384 2075 2632 2365 
Q 2881 2656 2881 3163 
Q 2881 3666 2632 3958 
Q 2384 4250 1959 4250 
Q 1534 4250 1286 3958 
Q 1038 3666 1038 3163 
Q 1038 2656 1286 2365 
Q 1534 2075 1959 2075 
z
" transform="scale(0.015625)"/>
       </defs>
       <use xlink:href="#DejaVuSans-34"/>
       <use xlink:href="#DejaVuSans-2e" x="63.623047"/>
       <use xlink:href="#DejaVuSans-39" x="95.410156"/>
      </g>
     </g>
    </g>
    <g id="ytick_8">
     <g id="line2d_15">
      <g>
       <use xlink:href="#m6054ef6e76" x="57.6" y="41.658625" style="stroke: #000000; stroke-width: 0.8"/>
      </g>
     </g>
     <g id="text_16">
      <!-- 5.0 -->
      <g transform="translate(34.696875 45.457843)scale(0.1 -0.1)">
       <use xlink:href="#DejaVuSans-35"/>
       <use xlink:href="#DejaVuSans-2e" x="63.623047"/>
       <use xlink:href="#DejaVuSans-30" x="95.410156"/>
      </g>
     </g>
    </g>
    <g id="text_17">
     <!-- Price -->
     <g transform="translate(28.617188 186.725656)rotate(-90)scale(0.1 -0.1)">
      <defs>
       <path id="DejaVuSans-50" d="M 1259 4147 
L 1259 2394 
L 2053 2394 
Q 2494 2394 2734 2622 
Q 2975 2850 2975 3272 
Q 2975 3691 2734 3919 
Q 2494 4147 2053 4147 
L 1259 4147 
z
M 628 4666 
L 2053 4666 
Q 2838 4666 3239 4311 
Q 3641 3956 3641 3272 
Q 3641 2581 3239 2228 
Q 2838 1875 2053 1875 
L 1259 1875 
L 1259 0 
L 628 0 
L 628 4666 
z
" transform="scale(0.015625)"/>
       <path id="DejaVuSans-72" d="M 2631 2963 
Q 2534 3019 2420 3045 
Q 2306 3072 2169 3072 
Q 1681 3072 1420 2755 
Q 1159 2438 1159 1844 
L 1159 0 
L 581 0 
L 581 3500 
L 1159 3500 
L 1159 2956 
Q 1341 3275 1631 3429 
Q 1922 3584 2338 3584 
Q 2397 3584 2469 3576 
Q 2541 3569 2628 3553 
L 2631 2963 
z
" transform="scale(0.015625)"/>
       <path id="DejaVuSans-63" d="M 3122 3366 
L 3122 2828 
Q 2878 2963 2633 3030 
Q 2388 3097 2138 3097 
Q 1578 3097 1268 2742 
Q 959 2388 959 1747 
Q 959 1106 1268 751 
Q 1578 397 2138 397 
Q 2388 397 2633 464 
Q 2878 531 3122 666 
L 3122 134 
Q 2881 22 2623 -34 
Q 2366 -91 2075 -91 
Q 1284 -91 818 406 
Q 353 903 353 1747 
Q 353 2603 823 3093 
Q 1294 3584 2113 3584 
Q 2378 3584 2631 3529 
Q 2884 3475 3122 3366 
z
" transform="scale(0.015625)"/>
      </defs>
      <use xlink:href="#DejaVuSans-50"/>
      <use xlink:href="#DejaVuSans-72" x="58.552734"/>
      <use xlink:href="#DejaVuSans-69" x="99.666016"/>
      <use xlink:href="#DejaVuSans-63" x="127.449219"/>
      <use xlink:href="#DejaVuSans-65" x="182.429688"/>
     </g>
    </g>
   </g>
   <g id="line2d_16">
    <path d="M 73.832727 284.667135 
L 74.363209 286.56526 
L 74.89369 281.895479 
L 75.424171 279.241564 
L 75.954652 278.267271 
L 76.485134 277.770033 
L 77.015615 285.557326 
L 77.546096 295.131891 
L 78.607059 286.491251 
L 79.668021 291.671726 
L 80.728984 295.488 
L 81.259465 295.131891 
L 81.789947 290.39499 
L 82.320428 288.130824 
L 82.850909 287.102707 
L 83.38139 284.583194 
L 84.442353 274.773466 
L 84.972834 275.008629 
L 86.564278 266.085728 
L 87.094759 271.931325 
L 87.625241 274.387081 
L 88.155722 278.233631 
L 89.216684 272.556237 
L 89.747166 267.523619 
L 90.277647 275.643473 
L 90.808128 268.182172 
L 91.33861 251.428405 
L 91.869091 253.679275 
L 92.399572 231.221042 
L 93.460535 212.579242 
L 93.991016 190.853411 
L 94.521497 209.417997 
L 95.051979 176.08171 
L 95.58246 174.36172 
L 96.112941 188.50178 
L 96.643422 205.860275 
L 97.173904 198.674345 
L 97.704385 195.825476 
L 98.234866 191.84116 
L 98.765348 177.509509 
L 99.295829 187.964333 
L 99.82631 181.097508 
L 100.356791 189.308031 
L 100.887273 202.053933 
L 101.417754 199.95765 
L 101.948235 194.407769 
L 102.478717 193.191585 
L 103.009198 196.060639 
L 103.539679 203.350694 
L 104.07016 197.135693 
L 104.600642 199.789607 
L 105.131123 205.01702 
L 105.661604 202.410042 
L 106.192086 199.010269 
L 106.722567 193.205042 
L 107.253048 195.892597 
L 107.783529 197.270095 
L 108.314011 197.774061 
L 108.844492 193.507486 
L 109.374973 194.112214 
L 109.905455 196.450388 
L 110.435936 187.292324 
L 110.966417 193.80977 
L 111.496898 197.337216 
L 112.02738 193.389904 
L 112.557861 193.057344 
L 113.088342 194.088665 
L 113.618824 190.920692 
L 114.149305 188.770584 
L 114.679786 187.561128 
L 115.210267 189.576834 
L 115.740749 187.829932 
L 116.27123 189.959855 
L 116.801711 195.126715 
L 117.332193 197.841182 
L 117.862674 205.33276 
L 118.393155 204.660911 
L 118.923636 209.565855 
L 119.454118 230.025042 
L 119.984599 233.98597 
L 120.51508 224.616291 
L 121.045561 232.225451 
L 121.576043 242.683639 
L 122.106524 249.120347 
L 123.167487 232.00038 
L 123.697968 232.544715 
L 124.228449 235.749693 
L 125.819893 219.167172 
L 126.880856 238.682503 
L 127.411337 228.546943 
L 127.941818 222.314961 
L 128.472299 227.169445 
L 129.002781 220.863775 
L 129.533262 230.898573 
L 130.063743 228.452749 
L 130.594225 224.48189 
L 131.124706 226.369922 
L 131.655187 221.592812 
L 132.185668 225.328509 
L 132.71615 228.180742 
L 133.246631 218.166127 
L 133.777112 222.314961 
L 134.307594 222.610677 
L 134.838075 221.965581 
L 135.368556 218.585993 
L 135.899037 218.528964 
L 136.429519 221.928736 
L 136.96 221.021564 
L 137.490481 213.190698 
L 138.020963 219.066411 
L 138.551444 217.830203 
L 139.081925 217.158194 
L 139.612406 217.987993 
L 140.673369 232.635384 
L 141.20385 236.401357 
L 141.734332 241.850476 
L 142.264813 242.068819 
L 142.795294 246.533553 
L 143.325775 239.639976 
L 143.856257 242.367739 
L 144.386738 241.682434 
L 144.917219 235.944487 
L 145.978182 244.568308 
L 146.508663 243.667864 
L 147.039144 238.826997 
L 147.569626 240.036293 
L 148.100107 243.977036 
L 148.630588 241.642226 
L 149.16107 243.899823 
L 149.691551 244.218927 
L 150.222032 244.840475 
L 150.752513 244.682525 
L 151.282995 251.317552 
L 151.813476 243.590651 
L 152.343957 250.685912 
L 152.874439 240.439498 
L 153.40492 246.113688 
L 153.935401 244.558216 
L 154.465882 240.066569 
L 154.996364 241.178628 
L 155.526845 249.106891 
L 156.057326 244.689253 
L 156.587807 247.833678 
L 158.179251 224.51553 
L 158.709733 233.250204 
L 159.240214 227.707052 
L 159.770695 231.3689 
L 160.301176 226.262433 
L 160.831658 228.479662 
L 161.362139 229.252432 
L 161.89262 226.262433 
L 162.423102 228.076617 
L 162.953583 226.171764 
L 163.484064 226.396835 
L 164.014545 212.908439 
L 164.545027 215.542329 
L 165.075508 205.82327 
L 165.605989 193.917259 
L 166.136471 192.533193 
L 166.666952 180.939558 
L 167.197433 200.458252 
L 167.727914 199.554444 
L 168.258396 217.561399 
L 168.788877 212.750649 
L 169.319358 212.229862 
L 169.84984 213.936556 
L 170.380321 216.82227 
L 170.910802 215.646454 
L 171.441283 222.1639 
L 171.971765 224.854819 
L 172.502246 212.548966 
L 173.032727 205.641932 
L 173.563209 196.262161 
L 174.09369 195.489551 
L 174.624171 186.418953 
L 175.154652 189.533102 
L 175.685134 186.821998 
L 176.215615 185.636091 
L 176.746096 187.809747 
L 177.276578 183.919465 
L 177.807059 181.14124 
L 178.33754 166.141105 
L 178.868021 168.680802 
L 179.398503 173.76372 
L 179.928984 176.111987 
L 180.459465 196.332807 
L 180.989947 198.227567 
L 181.520428 202.114486 
L 182.050909 208.803177 
L 182.58139 216.923031 
L 183.111872 211.010314 
L 183.642353 217.393357 
L 184.172834 214.470639 
L 184.703316 215.932078 
L 185.233797 221.055205 
L 185.764278 214.131351 
L 186.294759 221.327373 
L 186.825241 221.794335 
L 187.355722 221.673389 
L 187.886203 220.030612 
L 188.416684 223.205313 
L 188.947166 223.138192 
L 190.008128 214.393426 
L 190.53861 217.037249 
L 191.069091 228.731645 
L 191.599572 219.247749 
L 192.130053 220.682276 
L 192.660535 220.920803 
L 193.191016 218.663206 
L 194.251979 234.570513 
L 194.78246 234.426019 
L 195.312941 229.302733 
L 195.843422 232.252363 
L 196.373904 231.795493 
L 197.434866 232.107869 
L 197.965348 217.255591 
L 199.02631 207.65091 
L 199.556791 210.046113 
L 200.087273 210.842432 
L 200.617754 209.790926 
L 201.148235 213.194062 
L 202.209198 183.123306 
L 202.739679 198.848955 
L 203.27016 190.604792 
L 203.800642 191.827704 
L 204.331123 199.829976 
L 205.922567 206.209655 
L 206.453048 202.074117 
L 206.983529 203.17272 
L 207.514011 197.471617 
L 208.044492 197.337216 
L 208.574973 198.207383 
L 209.105455 199.712395 
L 209.635936 198.660889 
L 210.166417 199.151399 
L 210.696898 200.024771 
L 211.22738 196.907258 
L 211.757861 196.7594 
L 212.288342 196.362923 
L 212.818824 194.155786 
L 213.349305 197.437977 
L 213.879786 204.526509 
L 214.410267 206.992357 
L 214.940749 216.39904 
L 215.47123 215.982379 
L 216.001711 211.077595 
L 216.532193 215.444932 
L 217.062674 218.770855 
L 217.593155 219.677867 
L 218.123636 212.723736 
L 218.654118 210.607269 
L 219.184599 211.682323 
L 219.71508 216.08314 
L 220.245561 212.186129 
L 220.776043 213.46623 
L 221.306524 213.630748 
L 221.837005 215.317258 
L 222.897968 207.254433 
L 223.428449 208.336215 
L 223.95893 203.935238 
L 224.489412 203.572401 
L 225.019893 200.427976 
L 225.550374 198.647433 
L 226.080856 194.978857 
L 226.611337 189.526374 
L 227.141818 181.503917 
L 227.672299 177.694371 
L 228.202781 187.443546 
L 228.733262 184.769448 
L 229.263743 182.878051 
L 229.794225 183.402042 
L 230.324706 180.207156 
L 230.855187 179.196019 
L 231.385668 177.318078 
L 231.91615 169.799588 
L 232.446631 169.221773 
L 232.977112 179.095258 
L 233.507594 169.964106 
L 234.038075 167.9484 
L 234.568556 165.469096 
L 235.099037 166.094008 
L 235.629519 155.444389 
L 236.16 158.232865 
L 236.690481 166.900258 
L 237.220963 180.647366 
L 237.751444 176.23966 
L 238.281925 179.995541 
L 238.812406 180.674118 
L 239.342888 186.062845 
L 239.873369 195.07289 
L 240.40385 199.34283 
L 240.934332 199.69221 
L 241.464813 188.938466 
L 241.995294 192.969879 
L 242.525775 192.939762 
L 243.056257 196.151308 
L 243.586738 193.016975 
L 244.117219 192.835477 
L 244.647701 191.340557 
L 245.178182 188.582357 
L 245.708663 192.61377 
L 246.239144 191.189335 
L 246.769626 186.885915 
L 247.300107 185.41102 
L 248.36107 190.164742 
L 248.891551 196.195041 
L 249.422032 191.938557 
L 249.952513 185.034887 
L 250.482995 186.620476 
L 251.013476 192.496188 
L 251.543957 190.201747 
L 252.074439 196.72576 
L 252.60492 192.335034 
L 253.135401 202.342921 
L 253.665882 201.341716 
L 254.196364 200.669867 
L 254.726845 202.840159 
L 255.257326 202.880368 
L 255.787807 211.692415 
L 256.318289 212.475117 
L 256.84877 217.258955 
L 257.379251 217.057433 
L 257.909733 210.073026 
L 258.970695 215.90853 
L 259.501176 218.40129 
L 260.031658 224.549171 
L 260.562139 225.892868 
L 261.09262 223.081003 
L 261.623102 225.368877 
L 262.153583 221.45841 
L 262.684064 223.810041 
L 263.214545 220.013791 
L 263.745027 220.991448 
L 264.275508 210.939829 
L 264.805989 203.693346 
L 265.336471 201.267867 
L 265.866952 201.529942 
L 266.397433 190.695621 
L 266.927914 192.805361 
L 267.458396 200.854569 
L 267.988877 205.601563 
L 268.519358 200.559014 
L 269.04984 203.915053 
L 269.580321 206.055069 
L 270.110802 209.562491 
L 270.641283 203.78754 
L 271.171765 202.628385 
L 271.702246 204.933079 
L 272.232727 206.424634 
L 272.763209 209.733737 
L 273.29369 205.379856 
L 273.824171 198.734738 
L 274.354652 197.263367 
L 275.415615 192.758264 
L 275.946096 183.785063 
L 276.476578 189.106508 
L 277.007059 183.966561 
L 277.53754 181.708964 
L 278.068021 178.591291 
L 278.598503 179.162378 
L 279.659465 188.857889 
L 280.720428 178.826454 
L 281.250909 177.41884 
L 281.78139 178.759333 
L 282.311872 186.78179 
L 282.842353 187.964333 
L 284.433797 195.872573 
L 284.964278 194.525351 
L 285.494759 185.914987 
L 286.025241 188.582357 
L 286.555722 184.577857 
L 287.086203 183.640569 
L 287.616684 185.649547 
L 288.147166 188.112031 
L 288.677647 191.122215 
L 289.208128 189.069504 
L 289.73861 191.189335 
L 290.269091 182.683096 
L 290.799572 184.537649 
L 291.330053 182.326988 
L 291.860535 185.55215 
L 292.391016 185.364083 
L 292.921497 185.353991 
L 293.451979 184.981062 
L 293.98246 190.806474 
L 294.512941 202.594904 
L 295.043422 208.221998 
L 295.573904 205.98122 
L 296.104385 207.325078 
L 296.634866 202.473959 
L 297.165348 205.924032 
L 297.695829 205.164878 
L 298.22631 195.748263 
L 298.756791 196.564606 
L 299.287273 193.923987 
L 299.817754 193.389904 
L 300.348235 188.431295 
L 300.878717 185.558878 
L 301.409198 180.942922 
L 301.939679 174.714464 
L 302.47016 170.326943 
L 303.000642 170.038116 
L 303.531123 172.987746 
L 304.061604 174.539854 
L 304.592086 176.888121 
L 305.122567 164.619273 
L 305.653048 165.922762 
L 306.714011 183.953105 
L 307.774973 175.238615 
L 308.305455 194.58254 
L 308.835936 181.161264 
L 309.366417 175.409861 
L 309.896898 182.058344 
L 310.42738 181.829909 
L 310.957861 185.085188 
L 311.488342 186.250911 
L 312.018824 189.123328 
L 312.549305 181.503917 
L 313.079786 182.326988 
L 313.610267 182.400997 
L 314.140749 175.46705 
L 314.67123 177.785041 
L 315.201711 172.947377 
L 315.732193 173.88803 
L 316.262674 169.537513 
L 316.793155 169.419931 
L 317.323636 173.62259 
L 317.854118 171.059345 
L 318.384599 175.332649 
L 318.91508 182.992268 
L 319.445561 176.928329 
L 319.976043 176.851116 
L 320.506524 179.767106 
L 321.037005 180.170312 
L 321.567487 174.082824 
L 322.097968 165.33149 
L 322.628449 163.211658 
L 323.15893 161.827432 
L 324.750374 153.710942 
L 325.811337 141.149903 
L 326.341818 141.549584 
L 326.872299 150.321262 
L 327.402781 150.237321 
L 327.933262 141.489191 
L 328.994225 158.232865 
L 329.524706 169.419931 
L 330.055187 177.613634 
L 330.585668 177.348355 
L 331.11615 179.565584 
L 331.646631 183.328193 
L 332.177112 173.669687 
L 332.707594 175.372857 
L 333.238075 171.435638 
L 333.768556 163.796202 
L 334.299037 167.044752 
L 334.829519 169.500508 
L 335.36 166.480393 
L 335.890481 166.413112 
L 336.420963 167.367221 
L 336.951444 169.433388 
L 337.481925 166.161289 
L 338.012406 167.501622 
L 338.542888 169.544241 
L 339.073369 176.390882 
L 339.60385 177.785041 
L 340.134332 177.835501 
L 340.664813 179.24648 
L 341.195294 179.978721 
L 341.725775 185.044819 
L 342.256257 188.723487 
L 342.786738 186.217431 
L 343.317219 191.978926 
L 343.847701 195.244296 
L 344.378182 196.638454 
L 344.908663 197.474981 
L 345.439144 202.645205 
L 345.969626 197.034932 
L 346.500107 197.098688 
L 347.030588 201.654252 
L 347.56107 199.487324 
L 348.091551 202.702394 
L 348.622032 201.140193 
L 349.152513 200.518645 
L 349.682995 188.46814 
L 350.213476 183.731398 
L 350.743957 182.622704 
L 351.274439 190.92742 
L 351.80492 182.400997 
L 352.335401 183.160151 
L 352.865882 186.892643 
L 353.396364 197.061844 
L 353.926845 197.209542 
L 354.457326 190.954172 
L 354.987807 198.486118 
L 355.518289 201.18729 
L 356.04877 212.169309 
L 356.579251 209.152558 
L 357.109733 187.416634 
L 357.640214 192.570197 
L 358.170695 211.853569 
L 358.701176 209.834499 
L 359.231658 202.662025 
L 359.762139 201.586971 
L 360.29262 195.133443 
L 360.823102 194.565719 
L 361.884064 168.936149 
L 362.414545 142.564245 
L 362.945027 147.475757 
L 363.475508 134.716399 
L 364.005989 128.501398 
L 364.536471 105.052212 
L 365.066952 65.235484 
L 365.597433 53.568 
L 366.658396 122.067894 
L 367.188877 118.100398 
L 367.719358 118.74213 
L 368.24984 134.733219 
L 368.780321 142.33581 
L 369.310802 157.05705 
L 369.841283 151.453345 
L 370.371765 139.238322 
L 371.432727 151.386224 
L 371.963209 137.723218 
L 372.49369 120.982908 
L 373.024171 146.908034 
L 373.554652 145.463415 
L 374.085134 157.762539 
L 374.615615 162.509373 
L 375.146096 163.799566 
L 375.676578 163.070529 
L 376.207059 170.730149 
L 376.73754 166.490485 
L 377.268021 157.896941 
L 377.798503 165.126443 
L 378.328984 164.132126 
L 378.859465 156.28428 
L 379.389947 165.160084 
L 379.920428 164.24298 
L 380.450909 163.6618 
L 380.98139 167.199338 
L 381.511872 169.396383 
L 382.042353 162.29103 
L 382.572834 163.81959 
L 383.103316 164.054753 
L 383.633797 162.331399 
L 384.164278 162.832001 
L 384.694759 137.108398 
L 385.225241 140.608931 
L 385.755722 146.743356 
L 386.286203 151.530718 
L 386.816684 146.588769 
L 387.347166 146.138628 
L 387.877647 161.02791 
L 388.408128 148.32574 
L 388.93861 146.457892 
L 389.469091 145.920285 
L 389.999572 150.1364 
L 390.530053 152.152106 
L 391.060535 155.467937 
L 391.591016 150.307806 
L 392.121497 157.587769 
L 393.18246 162.482621 
L 393.712941 161.457867 
L 395.304385 178.198178 
L 395.834866 177.150036 
L 396.365348 174.680824 
L 396.895829 186.882551 
L 397.42631 181.567834 
L 397.956791 183.697758 
L 398.487273 181.067231 
L 398.487273 181.067231 
" clip-path="url(#p1df2dd48e5)" style="fill: none; stroke: #000000; stroke-width: 1.5; stroke-linecap: square"/>
   </g>
   <g id="line2d_17">
    <path d="M 73.832727 196.561562 
L 74.363209 274.648195 
L 74.89369 281.857353 
L 75.424171 279.685939 
L 75.954652 282.043176 
L 76.485134 278.650933 
L 77.015615 277.723897 
L 77.546096 283.023717 
L 78.076578 282.759078 
L 78.607059 282.813704 
L 79.13754 283.213705 
L 79.668021 283.401291 
L 81.259465 283.19272 
L 82.320428 283.437815 
L 82.850909 283.572057 
L 83.911872 283.463126 
L 84.442353 280.163634 
L 84.972834 275.264297 
L 85.503316 274.817359 
L 86.033797 272.693042 
L 87.094759 266.551249 
L 88.155722 274.504983 
L 88.686203 277.3106 
L 89.216684 276.358414 
L 90.277647 268.411728 
L 90.808128 274.104821 
L 91.33861 270.011574 
L 91.869091 252.521721 
L 92.399572 252.903621 
L 93.460535 219.74707 
L 93.991016 214.268636 
L 94.521497 192.398791 
L 95.051979 204.612052 
L 95.58246 183.10985 
L 96.112941 169.28585 
L 96.643422 189.572669 
L 97.173904 203.569838 
L 97.704385 201.374715 
L 98.234866 196.093478 
L 98.765348 193.869682 
L 99.295829 179.064501 
L 99.82631 185.531485 
L 100.356791 184.051944 
L 100.887273 186.750552 
L 101.417754 202.798189 
L 101.948235 201.335789 
L 102.478717 195.379018 
L 103.009198 194.066719 
L 103.539679 196.03645 
L 104.07016 202.789378 
L 104.600642 198.949556 
L 105.131123 199.030133 
L 105.661604 205.674451 
L 106.192086 203.125943 
L 106.722567 199.456406 
L 107.253048 194.378614 
L 107.783529 195.235005 
L 108.314011 197.785916 
L 108.844492 197.779508 
L 109.374973 194.661675 
L 109.905455 194.055826 
L 110.435936 196.833409 
L 110.966417 188.906107 
L 111.496898 192.371078 
L 112.02738 198.562851 
L 112.557861 193.898997 
L 113.088342 193.416336 
L 113.618824 194.749621 
L 114.679786 189.13326 
L 115.210267 188.191327 
L 115.740749 189.589169 
L 116.27123 188.737584 
L 116.801711 189.881681 
L 117.332193 195.408334 
L 117.862674 198.33794 
L 118.393155 205.001161 
L 118.923636 206.151666 
L 119.454118 209.010467 
L 119.984599 228.543739 
L 120.51508 235.477846 
L 121.045561 225.71137 
L 121.576043 231.204542 
L 122.106524 242.499898 
L 122.637005 248.158069 
L 123.167487 242.612033 
L 123.697968 232.697219 
L 124.228449 232.35777 
L 124.75893 235.186295 
L 125.819893 224.959424 
L 126.350374 219.819958 
L 126.880856 226.478853 
L 127.411337 238.100522 
L 128.472299 222.060255 
L 129.002781 226.827593 
L 129.533262 221.648239 
L 130.063743 228.149665 
L 130.594225 230.285996 
L 131.124706 223.76759 
L 131.655187 226.278292 
L 132.185668 222.273792 
L 132.71615 223.851531 
L 133.246631 228.394599 
L 133.777112 219.222118 
L 134.307594 220.707587 
L 134.838075 223.514806 
L 135.899037 219.162367 
L 136.429519 218.161642 
L 136.96 221.522327 
L 137.490481 221.252402 
L 138.020963 213.965711 
L 138.551444 217.683947 
L 139.081925 218.88251 
L 139.612406 216.378375 
L 140.142888 218.25135 
L 140.673369 223.996505 
L 141.20385 232.217922 
L 141.734332 236.377649 
L 142.264813 241.433815 
L 142.795294 242.647275 
L 143.325775 245.580246 
L 143.856257 241.042464 
L 144.386738 240.980629 
L 144.917219 242.421404 
L 145.447701 235.970919 
L 145.978182 239.390715 
L 146.508663 244.398824 
L 147.039144 243.292052 
L 147.569626 239.249586 
L 148.100107 239.54402 
L 148.630588 243.509593 
L 149.16107 241.722002 
L 150.222032 244.47892 
L 150.752513 244.30399 
L 151.282995 244.648564 
L 151.813476 250.120271 
L 152.343957 245.069071 
L 152.874439 248.479095 
L 153.40492 243.09982 
L 153.935401 243.483001 
L 154.465882 246.006038 
L 154.996364 239.510219 
L 155.526845 240.861766 
L 156.057326 248.005886 
L 156.587807 245.414286 
L 157.118289 246.429268 
L 157.64877 241.993529 
L 158.179251 231.634019 
L 158.709733 225.289262 
L 159.240214 231.260289 
L 159.770695 228.875498 
L 160.301176 229.256277 
L 160.831658 227.917385 
L 161.362139 226.944374 
L 161.89262 229.636254 
L 162.423102 226.128191 
L 162.953583 227.442573 
L 164.014545 225.721782 
L 164.545027 214.784937 
L 165.075508 213.665029 
L 165.605989 207.961043 
L 166.136471 193.603762 
L 166.666952 192.243084 
L 167.197433 182.55318 
L 167.727914 196.366607 
L 168.258396 202.644564 
L 168.788877 213.937037 
L 169.319358 216.927677 
L 169.84984 211.162817 
L 170.380321 215.133677 
L 170.910802 216.406409 
L 171.441283 216.08314 
L 172.502246 225.432474 
L 173.032727 214.109244 
L 174.09369 197.564369 
L 174.624171 194.270324 
L 175.154652 187.816796 
L 175.685134 188.006464 
L 176.215615 188.346874 
L 176.746096 185.338933 
L 177.276578 188.284399 
L 178.33754 181.537718 
L 178.868021 168.801747 
L 179.398503 167.338866 
L 179.928984 174.620431 
L 180.459465 176.137457 
L 180.989947 194.678655 
L 181.520428 201.078199 
L 182.050909 201.679082 
L 183.111872 216.804969 
L 183.642353 212.847405 
L 184.172834 216.137606 
L 184.703316 216.391511 
L 185.233797 214.838121 
L 185.764278 221.10903 
L 186.294759 215.378452 
L 187.355722 223.11176 
L 187.886203 220.967259 
L 188.416684 220.642068 
L 188.947166 222.577678 
L 189.477647 223.478121 
L 190.53861 214.568357 
L 191.069091 216.424511 
L 191.599572 227.299041 
L 192.130053 221.37527 
L 192.660535 219.117352 
L 193.191016 222.119046 
L 193.721497 218.25167 
L 194.78246 234.449728 
L 195.312941 234.631226 
L 195.843422 229.972659 
L 196.373904 231.567058 
L 196.904385 232.104825 
L 197.434866 231.190925 
L 197.965348 232.064457 
L 198.495829 219.094285 
L 199.02631 211.484485 
L 199.556791 208.451554 
L 200.087273 208.532451 
L 200.617754 210.980999 
L 201.148235 209.776349 
L 201.678717 212.899628 
L 202.739679 183.139325 
L 203.27016 196.561562 
L 204.331123 189.759775 
L 204.861604 200.729939 
L 205.922567 204.276448 
L 206.453048 206.949746 
L 206.983529 203.160385 
L 207.514011 202.917052 
L 208.044492 198.925207 
L 208.574973 196.739856 
L 209.105455 198.726888 
L 209.635936 199.604745 
L 210.166417 199.290607 
L 210.696898 199.332417 
L 211.22738 200.458092 
L 211.757861 197.684193 
L 212.288342 196.806337 
L 212.818824 196.961563 
L 213.349305 194.607209 
L 213.879786 197.182149 
L 214.410267 204.398515 
L 214.940749 207.507698 
L 215.47123 215.621464 
L 216.001711 217.599525 
L 216.532193 211.583484 
L 217.593155 219.030528 
L 218.123636 219.46417 
L 218.654118 213.926464 
L 219.184599 210.352402 
L 219.71508 211.714842 
L 220.245561 215.336802 
L 220.776043 213.098908 
L 221.306524 212.862143 
L 221.837005 214.276325 
L 222.367487 214.885699 
L 222.897968 212.330944 
L 223.428449 207.441378 
L 223.95893 208.127163 
L 224.489412 204.721464 
L 225.550374 201.300226 
L 226.611337 195.70421 
L 227.141818 190.100665 
L 227.672299 182.468118 
L 228.202781 177.863054 
L 228.733262 186.32492 
L 229.263743 186.460283 
L 229.794225 182.855784 
L 230.324706 184.515061 
L 230.855187 181.234152 
L 231.385668 179.514322 
L 231.91615 178.322007 
L 232.446631 171.171159 
L 232.977112 169.296743 
L 233.507594 178.733542 
L 234.568556 167.660213 
L 235.099037 167.475831 
L 235.629519 166.147993 
L 236.16 157.87916 
L 236.690481 157.564541 
L 237.220963 167.586204 
L 237.751444 179.981444 
L 238.281925 179.092374 
L 238.812406 179.876838 
L 239.873369 185.696644 
L 240.40385 195.33865 
L 240.934332 200.14924 
L 241.464813 200.576795 
L 241.995294 191.246204 
L 242.525775 191.958261 
L 243.056257 194.280416 
L 243.586738 195.323432 
L 244.117219 194.512215 
L 244.647701 192.845249 
L 245.178182 192.316292 
L 245.708663 189.070465 
L 246.239144 192.329428 
L 246.769626 192.334554 
L 247.300107 187.47975 
L 247.830588 185.999248 
L 248.36107 187.82897 
L 248.891551 190.422813 
L 249.422032 196.033887 
L 249.952513 193.717178 
L 250.482995 185.916428 
L 251.013476 186.747348 
L 251.543957 192.425063 
L 252.074439 191.177481 
L 252.60492 196.005853 
L 253.135401 194.587346 
L 253.665882 200.575994 
L 254.196364 203.56343 
L 254.726845 200.324652 
L 255.257326 203.50512 
L 255.787807 203.376325 
L 256.318289 210.675831 
L 257.379251 216.522709 
L 257.909733 218.246224 
L 258.440214 210.904266 
L 258.970695 212.414084 
L 259.501176 216.226673 
L 260.031658 217.854232 
L 260.562139 224.134271 
L 261.09262 226.429834 
L 261.623102 223.439675 
L 262.153583 224.999793 
L 262.684064 222.307913 
L 263.214545 222.691735 
L 263.745027 220.985201 
L 264.275508 220.022922 
L 264.805989 212.6438 
L 265.336471 203.332112 
L 265.866952 201.393458 
L 266.397433 201.077077 
L 266.927914 192.088818 
L 267.458396 191.559221 
L 267.988877 200.873793 
L 268.519358 205.447298 
L 269.04984 201.920332 
L 269.580321 203.573202 
L 270.110802 206.924596 
L 270.641283 209.118757 
L 271.171765 205.304726 
L 271.702246 202.387455 
L 272.232727 205.202042 
L 272.763209 206.393877 
L 273.29369 209.530132 
L 273.824171 206.628399 
L 274.354652 199.337704 
L 275.415615 195.312859 
L 275.946096 192.784215 
L 276.476578 185.200527 
L 277.007059 187.859247 
L 277.53754 186.000049 
L 278.068021 181.251453 
L 278.598503 179.955173 
L 279.128984 179.178718 
L 280.189947 189.302584 
L 280.720428 185.817109 
L 281.250909 179.854572 
L 281.78139 178.144513 
L 282.311872 179.041112 
L 282.842353 186.277663 
L 283.372834 189.217362 
L 283.903316 190.720291 
L 284.964278 196.171172 
L 285.494759 195.611458 
L 286.025241 187.39661 
L 286.555722 188.0526 
L 287.086203 186.187154 
L 287.616684 183.24265 
L 288.147166 186.226401 
L 288.677647 188.389966 
L 289.208128 191.444843 
L 289.73861 190.269348 
L 290.269091 191.268631 
L 290.799572 184.863 
L 291.330053 183.720024 
L 291.860535 183.904246 
L 292.391016 184.884466 
L 292.921497 186.587476 
L 293.451979 185.690556 
L 293.98246 185.869812 
L 294.512941 190.584928 
L 295.043422 202.228543 
L 295.573904 208.952156 
L 296.104385 207.149026 
L 296.634866 207.714026 
L 297.165348 203.947733 
L 298.22631 206.162078 
L 298.756791 196.72656 
L 299.287273 196.000727 
L 299.817754 195.043254 
L 300.348235 192.932393 
L 301.409198 185.745823 
L 301.939679 181.959666 
L 302.47016 175.456638 
L 303.000642 170.943365 
L 303.531123 170.34056 
L 304.061604 173.180939 
L 305.122567 177.458568 
L 305.653048 167.479836 
L 306.183529 165.303777 
L 307.244492 183.709452 
L 307.774973 181.905841 
L 308.305455 176.366853 
L 308.835936 192.991024 
L 309.366417 185.609178 
L 309.896898 174.315104 
L 310.42738 183.028312 
L 310.957861 182.617417 
L 311.488342 184.689031 
L 312.018824 187.563371 
L 312.549305 189.350322 
L 313.079786 183.603404 
L 313.610267 181.970879 
L 314.140749 183.609171 
L 314.67123 176.537939 
L 315.201711 177.492528 
L 315.732193 174.870973 
L 316.262674 173.480499 
L 317.323636 169.465586 
L 317.854118 174.163882 
L 318.384599 172.454784 
L 318.91508 175.18415 
L 319.445561 183.645695 
L 319.976043 179.011317 
L 320.506524 176.941465 
L 321.037005 180.859461 
L 321.567487 180.777763 
L 322.097968 175.563166 
L 322.628449 166.791648 
L 323.15893 163.666126 
L 323.689412 162.667964 
L 324.750374 157.246718 
L 325.280856 154.889161 
L 325.811337 149.490342 
L 326.341818 142.582187 
L 326.872299 142.151909 
L 327.402781 150.454543 
L 327.933262 152.10549 
L 328.463743 143.671017 
L 328.994225 149.217053 
L 330.585668 178.999142 
L 331.11615 179.365663 
L 331.646631 180.486853 
L 332.177112 184.375053 
L 332.707594 175.986876 
L 333.768556 173.549702 
L 334.299037 164.518832 
L 334.829519 166.954083 
L 335.36 170.505078 
L 335.890481 167.470225 
L 336.420963 167.16762 
L 337.481925 170.019854 
L 338.012406 167.729256 
L 338.542888 167.899221 
L 339.073369 170.628907 
L 339.60385 176.358363 
L 340.134332 179.226616 
L 340.664813 178.66498 
L 341.195294 180.236311 
L 341.725775 180.872116 
L 342.786738 189.528136 
L 343.317219 187.431051 
L 344.378182 196.31903 
L 344.908663 196.910782 
L 345.439144 198.214752 
L 345.969626 202.610123 
L 346.500107 198.77014 
L 347.030588 196.695964 
L 347.56107 201.977681 
L 348.091551 200.253045 
L 348.622032 202.210281 
L 349.152513 202.406998 
L 349.682995 200.479077 
L 350.213476 190.619049 
L 350.743957 183.39259 
L 351.274439 183.205485 
L 351.80492 189.679358 
L 352.335401 184.775535 
L 352.865882 182.352298 
L 353.396364 187.982115 
L 353.926845 196.120871 
L 354.457326 198.734578 
L 354.987807 192.12374 
L 355.518289 197.911827 
L 356.04877 202.313606 
L 356.579251 210.655166 
L 357.109733 211.411757 
L 357.640214 189.973312 
L 358.170695 190.682165 
L 358.701176 210.866301 
L 359.231658 210.897058 
L 359.762139 203.251535 
L 360.29262 202.53355 
L 360.823102 196.28555 
L 361.353583 193.846614 
L 361.884064 183.313135 
L 362.414545 169.202069 
L 362.945027 146.013036 
L 363.475508 144.537981 
L 364.005989 138.41477 
L 364.536471 127.421698 
L 365.066952 109.909418 
L 365.597433 69.254882 
L 366.127914 53.58498 
L 367.188877 121.802935 
L 367.719358 122.564652 
L 368.24984 121.289036 
L 368.780321 136.944521 
L 369.310802 144.508986 
L 369.841283 156.921527 
L 370.371765 155.958768 
L 370.902246 141.492555 
L 371.432727 146.041711 
L 371.963209 152.785829 
L 372.49369 140.458671 
L 373.024171 123.36129 
L 373.554652 144.059485 
L 374.615615 155.299094 
L 375.146096 166.287201 
L 375.676578 164.734772 
L 376.207059 165.020876 
L 376.73754 170.921739 
L 377.268021 168.985008 
L 377.798503 159.212925 
L 378.328984 164.908741 
L 378.859465 166.128129 
L 379.389947 157.415081 
L 379.920428 164.703534 
L 380.450909 166.621203 
L 380.98139 163.815265 
L 381.511872 168.307072 
L 382.042353 170.438598 
L 382.572834 164.272135 
L 383.103316 163.974497 
L 383.633797 165.611187 
L 384.164278 163.075014 
L 384.694759 163.700727 
L 385.225241 141.751427 
L 385.755722 138.432392 
L 386.286203 148.679606 
L 386.816684 151.102683 
L 387.877647 147.206153 
L 388.408128 160.805402 
L 389.469091 145.969624 
L 389.999572 148.545365 
L 390.530053 150.059667 
L 391.591016 156.32577 
L 392.121497 152.798644 
L 393.18246 162.009892 
L 393.712941 162.918025 
L 394.243422 163.366084 
L 394.773904 167.644675 
L 395.304385 174.097241 
L 395.834866 178.736266 
L 396.365348 178.892454 
L 396.895829 175.858401 
L 397.42631 186.144383 
L 398.487273 182.88526 
L 398.487273 182.88526 
" clip-path="url(#p1df2dd48e5)" style="fill: none; stroke: #008000; stroke-width: 1.5; stroke-linecap: square"/>
   </g>
   <g id="patch_3">
    <path d="M 57.6 307.584 
L 57.6 41.472 
" style="fill: none; stroke: #000000; stroke-width: 0.8; stroke-linejoin: miter; stroke-linecap: square"/>
   </g>
   <g id="patch_4">
    <path d="M 414.72 307.584 
L 414.72 41.472 
" style="fill: none; stroke: #000000; stroke-width: 0.8; stroke-linejoin: miter; stroke-linecap: square"/>
   </g>
   <g id="patch_5">
    <path d="M 57.6 307.584 
L 414.72 307.584 
" style="fill: none; stroke: #000000; stroke-width: 0.8; stroke-linejoin: miter; stroke-linecap: square"/>
   </g>
   <g id="patch_6">
    <path d="M 57.6 41.472 
L 414.72 41.472 
" style="fill: none; stroke: #000000; stroke-width: 0.8; stroke-linejoin: miter; stroke-linecap: square"/>
   </g>
   <g id="text_18">
    <!-- EUR price prediction -->
    <g transform="translate(174.960938 35.472)scale(0.12 -0.12)">
     <defs>
      <path id="DejaVuSans-45" d="M 628 4666 
L 3578 4666 
L 3578 4134 
L 1259 4134 
L 1259 2753 
L 3481 2753 
L 3481 2222 
L 1259 2222 
L 1259 531 
L 3634 531 
L 3634 0 
L 628 0 
L 628 4666 
z
" transform="scale(0.015625)"/>
      <path id="DejaVuSans-55" d="M 556 4666 
L 1191 4666 
L 1191 1831 
Q 1191 1081 1462 751 
Q 1734 422 2344 422 
Q 2950 422 3222 751 
Q 3494 1081 3494 1831 
L 3494 4666 
L 4128 4666 
L 4128 1753 
Q 4128 841 3676 375 
Q 3225 -91 2344 -91 
Q 1459 -91 1007 375 
Q 556 841 556 1753 
L 556 4666 
z
" transform="scale(0.015625)"/>
      <path id="DejaVuSans-52" d="M 2841 2188 
Q 3044 2119 3236 1894 
Q 3428 1669 3622 1275 
L 4263 0 
L 3584 0 
L 2988 1197 
Q 2756 1666 2539 1819 
Q 2322 1972 1947 1972 
L 1259 1972 
L 1259 0 
L 628 0 
L 628 4666 
L 2053 4666 
Q 2853 4666 3247 4331 
Q 3641 3997 3641 3322 
Q 3641 2881 3436 2590 
Q 3231 2300 2841 2188 
z
M 1259 4147 
L 1259 2491 
L 2053 2491 
Q 2509 2491 2742 2702 
Q 2975 2913 2975 3322 
Q 2975 3731 2742 3939 
Q 2509 4147 2053 4147 
L 1259 4147 
z
" transform="scale(0.015625)"/>
      <path id="DejaVuSans-20" transform="scale(0.015625)"/>
      <path id="DejaVuSans-70" d="M 1159 525 
L 1159 -1331 
L 581 -1331 
L 581 3500 
L 1159 3500 
L 1159 2969 
Q 1341 3281 1617 3432 
Q 1894 3584 2278 3584 
Q 2916 3584 3314 3078 
Q 3713 2572 3713 1747 
Q 3713 922 3314 415 
Q 2916 -91 2278 -91 
Q 1894 -91 1617 61 
Q 1341 213 1159 525 
z
M 3116 1747 
Q 3116 2381 2855 2742 
Q 2594 3103 2138 3103 
Q 1681 3103 1420 2742 
Q 1159 2381 1159 1747 
Q 1159 1113 1420 752 
Q 1681 391 2138 391 
Q 2594 391 2855 752 
Q 3116 1113 3116 1747 
z
" transform="scale(0.015625)"/>
      <path id="DejaVuSans-64" d="M 2906 2969 
L 2906 4863 
L 3481 4863 
L 3481 0 
L 2906 0 
L 2906 525 
Q 2725 213 2448 61 
Q 2172 -91 1784 -91 
Q 1150 -91 751 415 
Q 353 922 353 1747 
Q 353 2572 751 3078 
Q 1150 3584 1784 3584 
Q 2172 3584 2448 3432 
Q 2725 3281 2906 2969 
z
M 947 1747 
Q 947 1113 1208 752 
Q 1469 391 1925 391 
Q 2381 391 2643 752 
Q 2906 1113 2906 1747 
Q 2906 2381 2643 2742 
Q 2381 3103 1925 3103 
Q 1469 3103 1208 2742 
Q 947 2381 947 1747 
z
" transform="scale(0.015625)"/>
      <path id="DejaVuSans-74" d="M 1172 4494 
L 1172 3500 
L 2356 3500 
L 2356 3053 
L 1172 3053 
L 1172 1153 
Q 1172 725 1289 603 
Q 1406 481 1766 481 
L 2356 481 
L 2356 0 
L 1766 0 
Q 1100 0 847 248 
Q 594 497 594 1153 
L 594 3053 
L 172 3053 
L 172 3500 
L 594 3500 
L 594 4494 
L 1172 4494 
z
" transform="scale(0.015625)"/>
      <path id="DejaVuSans-6f" d="M 1959 3097 
Q 1497 3097 1228 2736 
Q 959 2375 959 1747 
Q 959 1119 1226 758 
Q 1494 397 1959 397 
Q 2419 397 2687 759 
Q 2956 1122 2956 1747 
Q 2956 2369 2687 2733 
Q 2419 3097 1959 3097 
z
M 1959 3584 
Q 2709 3584 3137 3096 
Q 3566 2609 3566 1747 
Q 3566 888 3137 398 
Q 2709 -91 1959 -91 
Q 1206 -91 779 398 
Q 353 888 353 1747 
Q 353 2609 779 3096 
Q 1206 3584 1959 3584 
z
" transform="scale(0.015625)"/>
      <path id="DejaVuSans-6e" d="M 3513 2113 
L 3513 0 
L 2938 0 
L 2938 2094 
Q 2938 2591 2744 2837 
Q 2550 3084 2163 3084 
Q 1697 3084 1428 2787 
Q 1159 2491 1159 1978 
L 1159 0 
L 581 0 
L 581 3500 
L 1159 3500 
L 1159 2956 
Q 1366 3272 1645 3428 
Q 1925 3584 2291 3584 
Q 2894 3584 3203 3211 
Q 3513 2838 3513 2113 
z
" transform="scale(0.015625)"/>
     </defs>
     <use xlink:href="#DejaVuSans-45"/>
     <use xlink:href="#DejaVuSans-55" x="63.183594"/>
     <use xlink:href="#DejaVuSans-52" x="136.376953"/>
     <use xlink:href="#DejaVuSans-20" x="205.859375"/>
     <use xlink:href="#DejaVuSans-70" x="237.646484"/>
     <use xlink:href="#DejaVuSans-72" x="301.123047"/>
     <use xlink:href="#DejaVuSans-69" x="342.236328"/>
     <use xlink:href="#DejaVuSans-63" x="370.019531"/>
     <use xlink:href="#DejaVuSans-65" x="425"/>
     <use xlink:href="#DejaVuSans-20" x="486.523438"/>
     <use xlink:href="#DejaVuSans-70" x="518.310547"/>
     <use xlink:href="#DejaVuSans-72" x="581.787109"/>
     <use xlink:href="#DejaVuSans-65" x="620.650391"/>
     <use xlink:href="#DejaVuSans-64" x="682.173828"/>
     <use xlink:href="#DejaVuSans-69" x="745.650391"/>
     <use xlink:href="#DejaVuSans-63" x="773.433594"/>
     <use xlink:href="#DejaVuSans-74" x="828.414062"/>
     <use xlink:href="#DejaVuSans-69" x="867.623047"/>
     <use xlink:href="#DejaVuSans-6f" x="895.40625"/>
     <use xlink:href="#DejaVuSans-6e" x="956.587891"/>
    </g>
   </g>
   <g id="legend_1">
    <g id="patch_7">
     <path d="M 64.6 78.82825 
L 176.323438 78.82825 
Q 178.323438 78.82825 178.323438 76.82825 
L 178.323438 48.472 
Q 178.323438 46.472 176.323438 46.472 
L 64.6 46.472 
Q 62.6 46.472 62.6 48.472 
L 62.6 76.82825 
Q 62.6 78.82825 64.6 78.82825 
z
" style="fill: #ffffff; opacity: 0.8; stroke: #cccccc; stroke-linejoin: miter"/>
    </g>
    <g id="line2d_18">
     <path d="M 66.6 54.570437 
L 76.6 54.570437 
L 86.6 54.570437 
" style="fill: none; stroke: #000000; stroke-width: 1.5; stroke-linecap: square"/>
    </g>
    <g id="text_19">
     <!-- Actual Prices -->
     <g transform="translate(94.6 58.070437)scale(0.1 -0.1)">
      <defs>
       <path id="DejaVuSans-41" d="M 2188 4044 
L 1331 1722 
L 3047 1722 
L 2188 4044 
z
M 1831 4666 
L 2547 4666 
L 4325 0 
L 3669 0 
L 3244 1197 
L 1141 1197 
L 716 0 
L 50 0 
L 1831 4666 
z
" transform="scale(0.015625)"/>
       <path id="DejaVuSans-75" d="M 544 1381 
L 544 3500 
L 1119 3500 
L 1119 1403 
Q 1119 906 1312 657 
Q 1506 409 1894 409 
Q 2359 409 2629 706 
Q 2900 1003 2900 1516 
L 2900 3500 
L 3475 3500 
L 3475 0 
L 2900 0 
L 2900 538 
Q 2691 219 2414 64 
Q 2138 -91 1772 -91 
Q 1169 -91 856 284 
Q 544 659 544 1381 
z
M 1991 3584 
L 1991 3584 
z
" transform="scale(0.015625)"/>
       <path id="DejaVuSans-61" d="M 2194 1759 
Q 1497 1759 1228 1600 
Q 959 1441 959 1056 
Q 959 750 1161 570 
Q 1363 391 1709 391 
Q 2188 391 2477 730 
Q 2766 1069 2766 1631 
L 2766 1759 
L 2194 1759 
z
M 3341 1997 
L 3341 0 
L 2766 0 
L 2766 531 
Q 2569 213 2275 61 
Q 1981 -91 1556 -91 
Q 1019 -91 701 211 
Q 384 513 384 1019 
Q 384 1609 779 1909 
Q 1175 2209 1959 2209 
L 2766 2209 
L 2766 2266 
Q 2766 2663 2505 2880 
Q 2244 3097 1772 3097 
Q 1472 3097 1187 3025 
Q 903 2953 641 2809 
L 641 3341 
Q 956 3463 1253 3523 
Q 1550 3584 1831 3584 
Q 2591 3584 2966 3190 
Q 3341 2797 3341 1997 
z
" transform="scale(0.015625)"/>
       <path id="DejaVuSans-6c" d="M 603 4863 
L 1178 4863 
L 1178 0 
L 603 0 
L 603 4863 
z
" transform="scale(0.015625)"/>
       <path id="DejaVuSans-73" d="M 2834 3397 
L 2834 2853 
Q 2591 2978 2328 3040 
Q 2066 3103 1784 3103 
Q 1356 3103 1142 2972 
Q 928 2841 928 2578 
Q 928 2378 1081 2264 
Q 1234 2150 1697 2047 
L 1894 2003 
Q 2506 1872 2764 1633 
Q 3022 1394 3022 966 
Q 3022 478 2636 193 
Q 2250 -91 1575 -91 
Q 1294 -91 989 -36 
Q 684 19 347 128 
L 347 722 
Q 666 556 975 473 
Q 1284 391 1588 391 
Q 1994 391 2212 530 
Q 2431 669 2431 922 
Q 2431 1156 2273 1281 
Q 2116 1406 1581 1522 
L 1381 1569 
Q 847 1681 609 1914 
Q 372 2147 372 2553 
Q 372 3047 722 3315 
Q 1072 3584 1716 3584 
Q 2034 3584 2315 3537 
Q 2597 3491 2834 3397 
z
" transform="scale(0.015625)"/>
      </defs>
      <use xlink:href="#DejaVuSans-41"/>
      <use xlink:href="#DejaVuSans-63" x="66.658203"/>
      <use xlink:href="#DejaVuSans-74" x="121.638672"/>
      <use xlink:href="#DejaVuSans-75" x="160.847656"/>
      <use xlink:href="#DejaVuSans-61" x="224.226562"/>
      <use xlink:href="#DejaVuSans-6c" x="285.505859"/>
      <use xlink:href="#DejaVuSans-20" x="313.289062"/>
      <use xlink:href="#DejaVuSans-50" x="345.076172"/>
      <use xlink:href="#DejaVuSans-72" x="403.628906"/>
      <use xlink:href="#DejaVuSans-69" x="444.742188"/>
      <use xlink:href="#DejaVuSans-63" x="472.525391"/>
      <use xlink:href="#DejaVuSans-65" x="527.505859"/>
      <use xlink:href="#DejaVuSans-73" x="589.029297"/>
     </g>
    </g>
    <g id="line2d_19">
     <path d="M 66.6 69.248562 
L 76.6 69.248562 
L 86.6 69.248562 
" style="fill: none; stroke: #008000; stroke-width: 1.5; stroke-linecap: square"/>
    </g>
    <g id="text_20">
     <!-- Predicted Prices -->
     <g transform="translate(94.6 72.748562)scale(0.1 -0.1)">
      <use xlink:href="#DejaVuSans-50"/>
      <use xlink:href="#DejaVuSans-72" x="58.552734"/>
      <use xlink:href="#DejaVuSans-65" x="97.416016"/>
      <use xlink:href="#DejaVuSans-64" x="158.939453"/>
      <use xlink:href="#DejaVuSans-69" x="222.416016"/>
      <use xlink:href="#DejaVuSans-63" x="250.199219"/>
      <use xlink:href="#DejaVuSans-74" x="305.179688"/>
      <use xlink:href="#DejaVuSans-65" x="344.388672"/>
      <use xlink:href="#DejaVuSans-64" x="405.912109"/>
      <use xlink:href="#DejaVuSans-20" x="469.388672"/>
      <use xlink:href="#DejaVuSans-50" x="501.175781"/>
      <use xlink:href="#DejaVuSans-72" x="559.728516"/>
      <use xlink:href="#DejaVuSans-69" x="600.841797"/>
      <use xlink:href="#DejaVuSans-63" x="628.625"/>
      <use xlink:href="#DejaVuSans-65" x="683.605469"/>
      <use xlink:href="#DejaVuSans-73" x="745.128906"/>
     </g>
    </g>
   </g>
  </g>
 </g>
 <defs>
  <clipPath id="p1df2dd48e5">
   <rect x="57.6" y="41.472" width="357.12" height="266.112"/>
  </clipPath>
 </defs>
</svg>
