<?xml version="1.0" encoding="utf-8" standalone="no"?>
<!DOCTYPE svg PUBLIC "-//W3C//DTD SVG 1.1//EN"
  "http://www.w3.org/Graphics/SVG/1.1/DTD/svg11.dtd">
<svg xmlns:xlink="http://www.w3.org/1999/xlink" width="460.8pt" height="345.6pt" viewBox="0 0 460.8 345.6" xmlns="http://www.w3.org/2000/svg" version="1.1">
 <metadata>
  <rdf:RDF xmlns:dc="http://purl.org/dc/elements/1.1/" xmlns:cc="http://creativecommons.org/ns#" xmlns:rdf="http://www.w3.org/1999/02/22-rdf-syntax-ns#">
   <cc:Work>
    <dc:type rdf:resource="http://purl.org/dc/dcmitype/StillImage"/>
    <dc:date>2022-06-06T22:19:06.129369</dc:date>
    <dc:format>image/svg+xml</dc:format>
    <dc:creator>
     <cc:Agent>
      <dc:title>Matplotlib v3.5.1, https://matplotlib.org/</dc:title>
     </cc:Agent>
    </dc:creator>
   </cc:Work>
  </rdf:RDF>
 </metadata>
 <defs>
  <style type="text/css">*{stroke-linejoin: round; stroke-linecap: butt}</style>
 </defs>
 <g id="figure_1">
  <g id="patch_1">
   <path d="M 0 345.6 
L 460.8 345.6 
L 460.8 0 
L 0 0 
z
" style="fill: #ffffff"/>
  </g>
  <g id="axes_1">
   <g id="patch_2">
    <path d="M 57.6 307.584 
L 414.72 307.584 
L 414.72 41.472 
L 57.6 41.472 
z
" style="fill: #ffffff"/>
   </g>
   <g id="matplotlib.axis_1">
    <g id="xtick_1">
     <g id="line2d_1">
      <defs>
       <path id="m3c6533ea8b" d="M 0 0 
L 0 3.5 
" style="stroke: #000000; stroke-width: 0.8"/>
      </defs>
      <g>
       <use xlink:href="#m3c6533ea8b" x="73.832727" y="307.584" style="stroke: #000000; stroke-width: 0.8"/>
      </g>
     </g>
     <g id="text_1">
      <!-- 0 -->
      <g transform="translate(70.651477 322.182437)scale(0.1 -0.1)">
       <defs>
        <path id="DejaVuSans-30" d="M 2034 4250 
Q 1547 4250 1301 3770 
Q 1056 3291 1056 2328 
Q 1056 1369 1301 889 
Q 1547 409 2034 409 
Q 2525 409 2770 889 
Q 3016 1369 3016 2328 
Q 3016 3291 2770 3770 
Q 2525 4250 2034 4250 
z
M 2034 4750 
Q 2819 4750 3233 4129 
Q 3647 3509 3647 2328 
Q 3647 1150 3233 529 
Q 2819 -91 2034 -91 
Q 1250 -91 836 529 
Q 422 1150 422 2328 
Q 422 3509 836 4129 
Q 1250 4750 2034 4750 
z
" transform="scale(0.015625)"/>
       </defs>
       <use xlink:href="#DejaVuSans-30"/>
      </g>
     </g>
    </g>
    <g id="xtick_2">
     <g id="line2d_2">
      <g>
       <use xlink:href="#m3c6533ea8b" x="126.880856" y="307.584" style="stroke: #000000; stroke-width: 0.8"/>
      </g>
     </g>
     <g id="text_2">
      <!-- 100 -->
      <g transform="translate(117.337106 322.182437)scale(0.1 -0.1)">
       <defs>
        <path id="DejaVuSans-31" d="M 794 531 
L 1825 531 
L 1825 4091 
L 703 3866 
L 703 4441 
L 1819 4666 
L 2450 4666 
L 2450 531 
L 3481 531 
L 3481 0 
L 794 0 
L 794 531 
z
" transform="scale(0.015625)"/>
       </defs>
       <use xlink:href="#DejaVuSans-31"/>
       <use xlink:href="#DejaVuSans-30" x="63.623047"/>
       <use xlink:href="#DejaVuSans-30" x="127.246094"/>
      </g>
     </g>
    </g>
    <g id="xtick_3">
     <g id="line2d_3">
      <g>
       <use xlink:href="#m3c6533ea8b" x="179.928984" y="307.584" style="stroke: #000000; stroke-width: 0.8"/>
      </g>
     </g>
     <g id="text_3">
      <!-- 200 -->
      <g transform="translate(170.385234 322.182437)scale(0.1 -0.1)">
       <defs>
        <path id="DejaVuSans-32" d="M 1228 531 
L 3431 531 
L 3431 0 
L 469 0 
L 469 531 
Q 828 903 1448 1529 
Q 2069 2156 2228 2338 
Q 2531 2678 2651 2914 
Q 2772 3150 2772 3378 
Q 2772 3750 2511 3984 
Q 2250 4219 1831 4219 
Q 1534 4219 1204 4116 
Q 875 4013 500 3803 
L 500 4441 
Q 881 4594 1212 4672 
Q 1544 4750 1819 4750 
Q 2544 4750 2975 4387 
Q 3406 4025 3406 3419 
Q 3406 3131 3298 2873 
Q 3191 2616 2906 2266 
Q 2828 2175 2409 1742 
Q 1991 1309 1228 531 
z
" transform="scale(0.015625)"/>
       </defs>
       <use xlink:href="#DejaVuSans-32"/>
       <use xlink:href="#DejaVuSans-30" x="63.623047"/>
       <use xlink:href="#DejaVuSans-30" x="127.246094"/>
      </g>
     </g>
    </g>
    <g id="xtick_4">
     <g id="line2d_4">
      <g>
       <use xlink:href="#m3c6533ea8b" x="232.977112" y="307.584" style="stroke: #000000; stroke-width: 0.8"/>
      </g>
     </g>
     <g id="text_4">
      <!-- 300 -->
      <g transform="translate(223.433362 322.182437)scale(0.1 -0.1)">
       <defs>
        <path id="DejaVuSans-33" d="M 2597 2516 
Q 3050 2419 3304 2112 
Q 3559 1806 3559 1356 
Q 3559 666 3084 287 
Q 2609 -91 1734 -91 
Q 1441 -91 1130 -33 
Q 819 25 488 141 
L 488 750 
Q 750 597 1062 519 
Q 1375 441 1716 441 
Q 2309 441 2620 675 
Q 2931 909 2931 1356 
Q 2931 1769 2642 2001 
Q 2353 2234 1838 2234 
L 1294 2234 
L 1294 2753 
L 1863 2753 
Q 2328 2753 2575 2939 
Q 2822 3125 2822 3475 
Q 2822 3834 2567 4026 
Q 2313 4219 1838 4219 
Q 1578 4219 1281 4162 
Q 984 4106 628 3988 
L 628 4550 
Q 988 4650 1302 4700 
Q 1616 4750 1894 4750 
Q 2613 4750 3031 4423 
Q 3450 4097 3450 3541 
Q 3450 3153 3228 2886 
Q 3006 2619 2597 2516 
z
" transform="scale(0.015625)"/>
       </defs>
       <use xlink:href="#DejaVuSans-33"/>
       <use xlink:href="#DejaVuSans-30" x="63.623047"/>
       <use xlink:href="#DejaVuSans-30" x="127.246094"/>
      </g>
     </g>
    </g>
    <g id="xtick_5">
     <g id="line2d_5">
      <g>
       <use xlink:href="#m3c6533ea8b" x="286.025241" y="307.584" style="stroke: #000000; stroke-width: 0.8"/>
      </g>
     </g>
     <g id="text_5">
      <!-- 400 -->
      <g transform="translate(276.481491 322.182437)scale(0.1 -0.1)">
       <defs>
        <path id="DejaVuSans-34" d="M 2419 4116 
L 825 1625 
L 2419 1625 
L 2419 4116 
z
M 2253 4666 
L 3047 4666 
L 3047 1625 
L 3713 1625 
L 3713 1100 
L 3047 1100 
L 3047 0 
L 2419 0 
L 2419 1100 
L 313 1100 
L 313 1709 
L 2253 4666 
z
" transform="scale(0.015625)"/>
       </defs>
       <use xlink:href="#DejaVuSans-34"/>
       <use xlink:href="#DejaVuSans-30" x="63.623047"/>
       <use xlink:href="#DejaVuSans-30" x="127.246094"/>
      </g>
     </g>
    </g>
    <g id="xtick_6">
     <g id="line2d_6">
      <g>
       <use xlink:href="#m3c6533ea8b" x="339.073369" y="307.584" style="stroke: #000000; stroke-width: 0.8"/>
      </g>
     </g>
     <g id="text_6">
      <!-- 500 -->
      <g transform="translate(329.529619 322.182437)scale(0.1 -0.1)">
       <defs>
        <path id="DejaVuSans-35" d="M 691 4666 
L 3169 4666 
L 3169 4134 
L 1269 4134 
L 1269 2991 
Q 1406 3038 1543 3061 
Q 1681 3084 1819 3084 
Q 2600 3084 3056 2656 
Q 3513 2228 3513 1497 
Q 3513 744 3044 326 
Q 2575 -91 1722 -91 
Q 1428 -91 1123 -41 
Q 819 9 494 109 
L 494 744 
Q 775 591 1075 516 
Q 1375 441 1709 441 
Q 2250 441 2565 725 
Q 2881 1009 2881 1497 
Q 2881 1984 2565 2268 
Q 2250 2553 1709 2553 
Q 1456 2553 1204 2497 
Q 953 2441 691 2322 
L 691 4666 
z
" transform="scale(0.015625)"/>
       </defs>
       <use xlink:href="#DejaVuSans-35"/>
       <use xlink:href="#DejaVuSans-30" x="63.623047"/>
       <use xlink:href="#DejaVuSans-30" x="127.246094"/>
      </g>
     </g>
    </g>
    <g id="xtick_7">
     <g id="line2d_7">
      <g>
       <use xlink:href="#m3c6533ea8b" x="392.121497" y="307.584" style="stroke: #000000; stroke-width: 0.8"/>
      </g>
     </g>
     <g id="text_7">
      <!-- 600 -->
      <g transform="translate(382.577747 322.182437)scale(0.1 -0.1)">
       <defs>
        <path id="DejaVuSans-36" d="M 2113 2584 
Q 1688 2584 1439 2293 
Q 1191 2003 1191 1497 
Q 1191 994 1439 701 
Q 1688 409 2113 409 
Q 2538 409 2786 701 
Q 3034 994 3034 1497 
Q 3034 2003 2786 2293 
Q 2538 2584 2113 2584 
z
M 3366 4563 
L 3366 3988 
Q 3128 4100 2886 4159 
Q 2644 4219 2406 4219 
Q 1781 4219 1451 3797 
Q 1122 3375 1075 2522 
Q 1259 2794 1537 2939 
Q 1816 3084 2150 3084 
Q 2853 3084 3261 2657 
Q 3669 2231 3669 1497 
Q 3669 778 3244 343 
Q 2819 -91 2113 -91 
Q 1303 -91 875 529 
Q 447 1150 447 2328 
Q 447 3434 972 4092 
Q 1497 4750 2381 4750 
Q 2619 4750 2861 4703 
Q 3103 4656 3366 4563 
z
" transform="scale(0.015625)"/>
       </defs>
       <use xlink:href="#DejaVuSans-36"/>
       <use xlink:href="#DejaVuSans-30" x="63.623047"/>
       <use xlink:href="#DejaVuSans-30" x="127.246094"/>
      </g>
     </g>
    </g>
    <g id="text_8">
     <!-- Time -->
     <g transform="translate(223.926406 335.860562)scale(0.1 -0.1)">
      <defs>
       <path id="DejaVuSans-54" d="M -19 4666 
L 3928 4666 
L 3928 4134 
L 2272 4134 
L 2272 0 
L 1638 0 
L 1638 4134 
L -19 4134 
L -19 4666 
z
" transform="scale(0.015625)"/>
       <path id="DejaVuSans-69" d="M 603 3500 
L 1178 3500 
L 1178 0 
L 603 0 
L 603 3500 
z
M 603 4863 
L 1178 4863 
L 1178 4134 
L 603 4134 
L 603 4863 
z
" transform="scale(0.015625)"/>
       <path id="DejaVuSans-6d" d="M 3328 2828 
Q 3544 3216 3844 3400 
Q 4144 3584 4550 3584 
Q 5097 3584 5394 3201 
Q 5691 2819 5691 2113 
L 5691 0 
L 5113 0 
L 5113 2094 
Q 5113 2597 4934 2840 
Q 4756 3084 4391 3084 
Q 3944 3084 3684 2787 
Q 3425 2491 3425 1978 
L 3425 0 
L 2847 0 
L 2847 2094 
Q 2847 2600 2669 2842 
Q 2491 3084 2119 3084 
Q 1678 3084 1418 2786 
Q 1159 2488 1159 1978 
L 1159 0 
L 581 0 
L 581 3500 
L 1159 3500 
L 1159 2956 
Q 1356 3278 1631 3431 
Q 1906 3584 2284 3584 
Q 2666 3584 2933 3390 
Q 3200 3197 3328 2828 
z
" transform="scale(0.015625)"/>
       <path id="DejaVuSans-65" d="M 3597 1894 
L 3597 1613 
L 953 1613 
Q 991 1019 1311 708 
Q 1631 397 2203 397 
Q 2534 397 2845 478 
Q 3156 559 3463 722 
L 3463 178 
Q 3153 47 2828 -22 
Q 2503 -91 2169 -91 
Q 1331 -91 842 396 
Q 353 884 353 1716 
Q 353 2575 817 3079 
Q 1281 3584 2069 3584 
Q 2775 3584 3186 3129 
Q 3597 2675 3597 1894 
z
M 3022 2063 
Q 3016 2534 2758 2815 
Q 2500 3097 2075 3097 
Q 1594 3097 1305 2825 
Q 1016 2553 972 2059 
L 3022 2063 
z
" transform="scale(0.015625)"/>
      </defs>
      <use xlink:href="#DejaVuSans-54"/>
      <use xlink:href="#DejaVuSans-69" x="57.958984"/>
      <use xlink:href="#DejaVuSans-6d" x="85.742188"/>
      <use xlink:href="#DejaVuSans-65" x="183.154297"/>
     </g>
    </g>
   </g>
   <g id="matplotlib.axis_2">
    <g id="ytick_1">
     <g id="line2d_8">
      <defs>
       <path id="m24e8932694" d="M 0 0 
L -3.5 0 
" style="stroke: #000000; stroke-width: 0.8"/>
      </defs>
      <g>
       <use xlink:href="#m24e8932694" x="57.6" y="276.822717" style="stroke: #000000; stroke-width: 0.8"/>
      </g>
     </g>
     <g id="text_9">
      <!-- 4.3 -->
      <g transform="translate(34.696875 280.621935)scale(0.1 -0.1)">
       <defs>
        <path id="DejaVuSans-2e" d="M 684 794 
L 1344 794 
L 1344 0 
L 684 0 
L 684 794 
z
" transform="scale(0.015625)"/>
       </defs>
       <use xlink:href="#DejaVuSans-34"/>
       <use xlink:href="#DejaVuSans-2e" x="63.623047"/>
       <use xlink:href="#DejaVuSans-33" x="95.410156"/>
      </g>
     </g>
    </g>
    <g id="ytick_2">
     <g id="line2d_9">
      <g>
       <use xlink:href="#m24e8932694" x="57.6" y="243.227846" style="stroke: #000000; stroke-width: 0.8"/>
      </g>
     </g>
     <g id="text_10">
      <!-- 4.4 -->
      <g transform="translate(34.696875 247.027065)scale(0.1 -0.1)">
       <use xlink:href="#DejaVuSans-34"/>
       <use xlink:href="#DejaVuSans-2e" x="63.623047"/>
       <use xlink:href="#DejaVuSans-34" x="95.410156"/>
      </g>
     </g>
    </g>
    <g id="ytick_3">
     <g id="line2d_10">
      <g>
       <use xlink:href="#m24e8932694" x="57.6" y="209.632976" style="stroke: #000000; stroke-width: 0.8"/>
      </g>
     </g>
     <g id="text_11">
      <!-- 4.5 -->
      <g transform="translate(34.696875 213.432195)scale(0.1 -0.1)">
       <use xlink:href="#DejaVuSans-34"/>
       <use xlink:href="#DejaVuSans-2e" x="63.623047"/>
       <use xlink:href="#DejaVuSans-35" x="95.410156"/>
      </g>
     </g>
    </g>
    <g id="ytick_4">
     <g id="line2d_11">
      <g>
       <use xlink:href="#m24e8932694" x="57.6" y="176.038106" style="stroke: #000000; stroke-width: 0.8"/>
      </g>
     </g>
     <g id="text_12">
      <!-- 4.6 -->
      <g transform="translate(34.696875 179.837324)scale(0.1 -0.1)">
       <use xlink:href="#DejaVuSans-34"/>
       <use xlink:href="#DejaVuSans-2e" x="63.623047"/>
       <use xlink:href="#DejaVuSans-36" x="95.410156"/>
      </g>
     </g>
    </g>
    <g id="ytick_5">
     <g id="line2d_12">
      <g>
       <use xlink:href="#m24e8932694" x="57.6" y="142.443235" style="stroke: #000000; stroke-width: 0.8"/>
      </g>
     </g>
     <g id="text_13">
      <!-- 4.7 -->
      <g transform="translate(34.696875 146.242454)scale(0.1 -0.1)">
       <defs>
        <path id="DejaVuSans-37" d="M 525 4666 
L 3525 4666 
L 3525 4397 
L 1831 0 
L 1172 0 
L 2766 4134 
L 525 4134 
L 525 4666 
z
" transform="scale(0.015625)"/>
       </defs>
       <use xlink:href="#DejaVuSans-34"/>
       <use xlink:href="#DejaVuSans-2e" x="63.623047"/>
       <use xlink:href="#DejaVuSans-37" x="95.410156"/>
      </g>
     </g>
    </g>
    <g id="ytick_6">
     <g id="line2d_13">
      <g>
       <use xlink:href="#m24e8932694" x="57.6" y="108.848365" style="stroke: #000000; stroke-width: 0.8"/>
      </g>
     </g>
     <g id="text_14">
      <!-- 4.8 -->
      <g transform="translate(34.696875 112.647584)scale(0.1 -0.1)">
       <defs>
        <path id="DejaVuSans-38" d="M 2034 2216 
Q 1584 2216 1326 1975 
Q 1069 1734 1069 1313 
Q 1069 891 1326 650 
Q 1584 409 2034 409 
Q 2484 409 2743 651 
Q 3003 894 3003 1313 
Q 3003 1734 2745 1975 
Q 2488 2216 2034 2216 
z
M 1403 2484 
Q 997 2584 770 2862 
Q 544 3141 544 3541 
Q 544 4100 942 4425 
Q 1341 4750 2034 4750 
Q 2731 4750 3128 4425 
Q 3525 4100 3525 3541 
Q 3525 3141 3298 2862 
Q 3072 2584 2669 2484 
Q 3125 2378 3379 2068 
Q 3634 1759 3634 1313 
Q 3634 634 3220 271 
Q 2806 -91 2034 -91 
Q 1263 -91 848 271 
Q 434 634 434 1313 
Q 434 1759 690 2068 
Q 947 2378 1403 2484 
z
M 1172 3481 
Q 1172 3119 1398 2916 
Q 1625 2713 2034 2713 
Q 2441 2713 2670 2916 
Q 2900 3119 2900 3481 
Q 2900 3844 2670 4047 
Q 2441 4250 2034 4250 
Q 1625 4250 1398 4047 
Q 1172 3844 1172 3481 
z
" transform="scale(0.015625)"/>
       </defs>
       <use xlink:href="#DejaVuSans-34"/>
       <use xlink:href="#DejaVuSans-2e" x="63.623047"/>
       <use xlink:href="#DejaVuSans-38" x="95.410156"/>
      </g>
     </g>
    </g>
    <g id="ytick_7">
     <g id="line2d_14">
      <g>
       <use xlink:href="#m24e8932694" x="57.6" y="75.253495" style="stroke: #000000; stroke-width: 0.8"/>
      </g>
     </g>
     <g id="text_15">
      <!-- 4.9 -->
      <g transform="translate(34.696875 79.052714)scale(0.1 -0.1)">
       <defs>
        <path id="DejaVuSans-39" d="M 703 97 
L 703 672 
Q 941 559 1184 500 
Q 1428 441 1663 441 
Q 2288 441 2617 861 
Q 2947 1281 2994 2138 
Q 2813 1869 2534 1725 
Q 2256 1581 1919 1581 
Q 1219 1581 811 2004 
Q 403 2428 403 3163 
Q 403 3881 828 4315 
Q 1253 4750 1959 4750 
Q 2769 4750 3195 4129 
Q 3622 3509 3622 2328 
Q 3622 1225 3098 567 
Q 2575 -91 1691 -91 
Q 1453 -91 1209 -44 
Q 966 3 703 97 
z
M 1959 2075 
Q 2384 2075 2632 2365 
Q 2881 2656 2881 3163 
Q 2881 3666 2632 3958 
Q 2384 4250 1959 4250 
Q 1534 4250 1286 3958 
Q 1038 3666 1038 3163 
Q 1038 2656 1286 2365 
Q 1534 2075 1959 2075 
z
" transform="scale(0.015625)"/>
       </defs>
       <use xlink:href="#DejaVuSans-34"/>
       <use xlink:href="#DejaVuSans-2e" x="63.623047"/>
       <use xlink:href="#DejaVuSans-39" x="95.410156"/>
      </g>
     </g>
    </g>
    <g id="ytick_8">
     <g id="line2d_15">
      <g>
       <use xlink:href="#m24e8932694" x="57.6" y="41.658625" style="stroke: #000000; stroke-width: 0.8"/>
      </g>
     </g>
     <g id="text_16">
      <!-- 5.0 -->
      <g transform="translate(34.696875 45.457843)scale(0.1 -0.1)">
       <use xlink:href="#DejaVuSans-35"/>
       <use xlink:href="#DejaVuSans-2e" x="63.623047"/>
       <use xlink:href="#DejaVuSans-30" x="95.410156"/>
      </g>
     </g>
    </g>
    <g id="text_17">
     <!-- Price -->
     <g transform="translate(28.617188 186.725656)rotate(-90)scale(0.1 -0.1)">
      <defs>
       <path id="DejaVuSans-50" d="M 1259 4147 
L 1259 2394 
L 2053 2394 
Q 2494 2394 2734 2622 
Q 2975 2850 2975 3272 
Q 2975 3691 2734 3919 
Q 2494 4147 2053 4147 
L 1259 4147 
z
M 628 4666 
L 2053 4666 
Q 2838 4666 3239 4311 
Q 3641 3956 3641 3272 
Q 3641 2581 3239 2228 
Q 2838 1875 2053 1875 
L 1259 1875 
L 1259 0 
L 628 0 
L 628 4666 
z
" transform="scale(0.015625)"/>
       <path id="DejaVuSans-72" d="M 2631 2963 
Q 2534 3019 2420 3045 
Q 2306 3072 2169 3072 
Q 1681 3072 1420 2755 
Q 1159 2438 1159 1844 
L 1159 0 
L 581 0 
L 581 3500 
L 1159 3500 
L 1159 2956 
Q 1341 3275 1631 3429 
Q 1922 3584 2338 3584 
Q 2397 3584 2469 3576 
Q 2541 3569 2628 3553 
L 2631 2963 
z
" transform="scale(0.015625)"/>
       <path id="DejaVuSans-63" d="M 3122 3366 
L 3122 2828 
Q 2878 2963 2633 3030 
Q 2388 3097 2138 3097 
Q 1578 3097 1268 2742 
Q 959 2388 959 1747 
Q 959 1106 1268 751 
Q 1578 397 2138 397 
Q 2388 397 2633 464 
Q 2878 531 3122 666 
L 3122 134 
Q 2881 22 2623 -34 
Q 2366 -91 2075 -91 
Q 1284 -91 818 406 
Q 353 903 353 1747 
Q 353 2603 823 3093 
Q 1294 3584 2113 3584 
Q 2378 3584 2631 3529 
Q 2884 3475 3122 3366 
z
" transform="scale(0.015625)"/>
      </defs>
      <use xlink:href="#DejaVuSans-50"/>
      <use xlink:href="#DejaVuSans-72" x="58.552734"/>
      <use xlink:href="#DejaVuSans-69" x="99.666016"/>
      <use xlink:href="#DejaVuSans-63" x="127.449219"/>
      <use xlink:href="#DejaVuSans-65" x="182.429688"/>
     </g>
    </g>
   </g>
   <g id="line2d_16">
    <path d="M 73.832727 284.667135 
L 74.363209 286.56526 
L 74.89369 281.895479 
L 75.424171 279.241564 
L 75.954652 278.267271 
L 76.485134 277.770033 
L 77.015615 285.557326 
L 77.546096 295.131891 
L 78.607059 286.491251 
L 79.668021 291.671726 
L 80.728984 295.488 
L 81.259465 295.131891 
L 81.789947 290.39499 
L 82.320428 288.130824 
L 82.850909 287.102707 
L 83.38139 284.583194 
L 84.442353 274.773466 
L 84.972834 275.008629 
L 86.564278 266.085728 
L 87.094759 271.931325 
L 87.625241 274.387081 
L 88.155722 278.233631 
L 89.216684 272.556237 
L 89.747166 267.523619 
L 90.277647 275.643473 
L 90.808128 268.182172 
L 91.33861 251.428405 
L 91.869091 253.679275 
L 92.399572 231.221042 
L 93.460535 212.579242 
L 93.991016 190.853411 
L 94.521497 209.417997 
L 95.051979 176.08171 
L 95.58246 174.36172 
L 96.112941 188.50178 
L 96.643422 205.860275 
L 97.173904 198.674345 
L 97.704385 195.825476 
L 98.234866 191.84116 
L 98.765348 177.509509 
L 99.295829 187.964333 
L 99.82631 181.097508 
L 100.356791 189.308031 
L 100.887273 202.053933 
L 101.417754 199.95765 
L 101.948235 194.407769 
L 102.478717 193.191585 
L 103.009198 196.060639 
L 103.539679 203.350694 
L 104.07016 197.135693 
L 104.600642 199.789607 
L 105.131123 205.01702 
L 105.661604 202.410042 
L 106.192086 199.010269 
L 106.722567 193.205042 
L 107.253048 195.892597 
L 107.783529 197.270095 
L 108.314011 197.774061 
L 108.844492 193.507486 
L 109.374973 194.112214 
L 109.905455 196.450388 
L 110.435936 187.292324 
L 110.966417 193.80977 
L 111.496898 197.337216 
L 112.02738 193.389904 
L 112.557861 193.057344 
L 113.088342 194.088665 
L 113.618824 190.920692 
L 114.149305 188.770584 
L 114.679786 187.561128 
L 115.210267 189.576834 
L 115.740749 187.829932 
L 116.27123 189.959855 
L 116.801711 195.126715 
L 117.332193 197.841182 
L 117.862674 205.33276 
L 118.393155 204.660911 
L 118.923636 209.565855 
L 119.454118 230.025042 
L 119.984599 233.98597 
L 120.51508 224.616291 
L 121.045561 232.225451 
L 121.576043 242.683639 
L 122.106524 249.120347 
L 123.167487 232.00038 
L 123.697968 232.544715 
L 124.228449 235.749693 
L 125.819893 219.167172 
L 126.880856 238.682503 
L 127.411337 228.546943 
L 127.941818 222.314961 
L 128.472299 227.169445 
L 129.002781 220.863775 
L 129.533262 230.898573 
L 130.063743 228.452749 
L 130.594225 224.48189 
L 131.124706 226.369922 
L 131.655187 221.592812 
L 132.185668 225.328509 
L 132.71615 228.180742 
L 133.246631 218.166127 
L 133.777112 222.314961 
L 134.307594 222.610677 
L 134.838075 221.965581 
L 135.368556 218.585993 
L 135.899037 218.528964 
L 136.429519 221.928736 
L 136.96 221.021564 
L 137.490481 213.190698 
L 138.020963 219.066411 
L 138.551444 217.830203 
L 139.081925 217.158194 
L 139.612406 217.987993 
L 140.673369 232.635384 
L 141.20385 236.401357 
L 141.734332 241.850476 
L 142.264813 242.068819 
L 142.795294 246.533553 
L 143.325775 239.639976 
L 143.856257 242.367739 
L 144.386738 241.682434 
L 144.917219 235.944487 
L 145.978182 244.568308 
L 146.508663 243.667864 
L 147.039144 238.826997 
L 147.569626 240.036293 
L 148.100107 243.977036 
L 148.630588 241.642226 
L 149.16107 243.899823 
L 149.691551 244.218927 
L 150.222032 244.840475 
L 150.752513 244.682525 
L 151.282995 251.317552 
L 151.813476 243.590651 
L 152.343957 250.685912 
L 152.874439 240.439498 
L 153.40492 246.113688 
L 153.935401 244.558216 
L 154.465882 240.066569 
L 154.996364 241.178628 
L 155.526845 249.106891 
L 156.057326 244.689253 
L 156.587807 247.833678 
L 158.179251 224.51553 
L 158.709733 233.250204 
L 159.240214 227.707052 
L 159.770695 231.3689 
L 160.301176 226.262433 
L 160.831658 228.479662 
L 161.362139 229.252432 
L 161.89262 226.262433 
L 162.423102 228.076617 
L 162.953583 226.171764 
L 163.484064 226.396835 
L 164.014545 212.908439 
L 164.545027 215.542329 
L 165.075508 205.82327 
L 165.605989 193.917259 
L 166.136471 192.533193 
L 166.666952 180.939558 
L 167.197433 200.458252 
L 167.727914 199.554444 
L 168.258396 217.561399 
L 168.788877 212.750649 
L 169.319358 212.229862 
L 169.84984 213.936556 
L 170.380321 216.82227 
L 170.910802 215.646454 
L 171.441283 222.1639 
L 171.971765 224.854819 
L 172.502246 212.548966 
L 173.032727 205.641932 
L 173.563209 196.262161 
L 174.09369 195.489551 
L 174.624171 186.418953 
L 175.154652 189.533102 
L 175.685134 186.821998 
L 176.215615 185.636091 
L 176.746096 187.809747 
L 177.276578 183.919465 
L 177.807059 181.14124 
L 178.33754 166.141105 
L 178.868021 168.680802 
L 179.398503 173.76372 
L 179.928984 176.111987 
L 180.459465 196.332807 
L 180.989947 198.227567 
L 181.520428 202.114486 
L 182.050909 208.803177 
L 182.58139 216.923031 
L 183.111872 211.010314 
L 183.642353 217.393357 
L 184.172834 214.470639 
L 184.703316 215.932078 
L 185.233797 221.055205 
L 185.764278 214.131351 
L 186.294759 221.327373 
L 186.825241 221.794335 
L 187.355722 221.673389 
L 187.886203 220.030612 
L 188.416684 223.205313 
L 188.947166 223.138192 
L 190.008128 214.393426 
L 190.53861 217.037249 
L 191.069091 228.731645 
L 191.599572 219.247749 
L 192.130053 220.682276 
L 192.660535 220.920803 
L 193.191016 218.663206 
L 194.251979 234.570513 
L 194.78246 234.426019 
L 195.312941 229.302733 
L 195.843422 232.252363 
L 196.373904 231.795493 
L 197.434866 232.107869 
L 197.965348 217.255591 
L 199.02631 207.65091 
L 199.556791 210.046113 
L 200.087273 210.842432 
L 200.617754 209.790926 
L 201.148235 213.194062 
L 202.209198 183.123306 
L 202.739679 198.848955 
L 203.27016 190.604792 
L 203.800642 191.827704 
L 204.331123 199.829976 
L 205.922567 206.209655 
L 206.453048 202.074117 
L 206.983529 203.17272 
L 207.514011 197.471617 
L 208.044492 197.337216 
L 208.574973 198.207383 
L 209.105455 199.712395 
L 209.635936 198.660889 
L 210.166417 199.151399 
L 210.696898 200.024771 
L 211.22738 196.907258 
L 211.757861 196.7594 
L 212.288342 196.362923 
L 212.818824 194.155786 
L 213.349305 197.437977 
L 213.879786 204.526509 
L 214.410267 206.992357 
L 214.940749 216.39904 
L 215.47123 215.982379 
L 216.001711 211.077595 
L 216.532193 215.444932 
L 217.062674 218.770855 
L 217.593155 219.677867 
L 218.123636 212.723736 
L 218.654118 210.607269 
L 219.184599 211.682323 
L 219.71508 216.08314 
L 220.245561 212.186129 
L 220.776043 213.46623 
L 221.306524 213.630748 
L 221.837005 215.317258 
L 222.897968 207.254433 
L 223.428449 208.336215 
L 223.95893 203.935238 
L 224.489412 203.572401 
L 225.019893 200.427976 
L 225.550374 198.647433 
L 226.080856 194.978857 
L 226.611337 189.526374 
L 227.141818 181.503917 
L 227.672299 177.694371 
L 228.202781 187.443546 
L 228.733262 184.769448 
L 229.263743 182.878051 
L 229.794225 183.402042 
L 230.324706 180.207156 
L 230.855187 179.196019 
L 231.385668 177.318078 
L 231.91615 169.799588 
L 232.446631 169.221773 
L 232.977112 179.095258 
L 233.507594 169.964106 
L 234.038075 167.9484 
L 234.568556 165.469096 
L 235.099037 166.094008 
L 235.629519 155.444389 
L 236.16 158.232865 
L 236.690481 166.900258 
L 237.220963 180.647366 
L 237.751444 176.23966 
L 238.281925 179.995541 
L 238.812406 180.674118 
L 239.342888 186.062845 
L 239.873369 195.07289 
L 240.40385 199.34283 
L 240.934332 199.69221 
L 241.464813 188.938466 
L 241.995294 192.969879 
L 242.525775 192.939762 
L 243.056257 196.151308 
L 243.586738 193.016975 
L 244.117219 192.835477 
L 244.647701 191.340557 
L 245.178182 188.582357 
L 245.708663 192.61377 
L 246.239144 191.189335 
L 246.769626 186.885915 
L 247.300107 185.41102 
L 248.36107 190.164742 
L 248.891551 196.195041 
L 249.422032 191.938557 
L 249.952513 185.034887 
L 250.482995 186.620476 
L 251.013476 192.496188 
L 251.543957 190.201747 
L 252.074439 196.72576 
L 252.60492 192.335034 
L 253.135401 202.342921 
L 253.665882 201.341716 
L 254.196364 200.669867 
L 254.726845 202.840159 
L 255.257326 202.880368 
L 255.787807 211.692415 
L 256.318289 212.475117 
L 256.84877 217.258955 
L 257.379251 217.057433 
L 257.909733 210.073026 
L 258.970695 215.90853 
L 259.501176 218.40129 
L 260.031658 224.549171 
L 260.562139 225.892868 
L 261.09262 223.081003 
L 261.623102 225.368877 
L 262.153583 221.45841 
L 262.684064 223.810041 
L 263.214545 220.013791 
L 263.745027 220.991448 
L 264.275508 210.939829 
L 264.805989 203.693346 
L 265.336471 201.267867 
L 265.866952 201.529942 
L 266.397433 190.695621 
L 266.927914 192.805361 
L 267.458396 200.854569 
L 267.988877 205.601563 
L 268.519358 200.559014 
L 269.04984 203.915053 
L 269.580321 206.055069 
L 270.110802 209.562491 
L 270.641283 203.78754 
L 271.171765 202.628385 
L 271.702246 204.933079 
L 272.232727 206.424634 
L 272.763209 209.733737 
L 273.29369 205.379856 
L 273.824171 198.734738 
L 274.354652 197.263367 
L 275.415615 192.758264 
L 275.946096 183.785063 
L 276.476578 189.106508 
L 277.007059 183.966561 
L 277.53754 181.708964 
L 278.068021 178.591291 
L 278.598503 179.162378 
L 279.659465 188.857889 
L 280.720428 178.826454 
L 281.250909 177.41884 
L 281.78139 178.759333 
L 282.311872 186.78179 
L 282.842353 187.964333 
L 284.433797 195.872573 
L 284.964278 194.525351 
L 285.494759 185.914987 
L 286.025241 188.582357 
L 286.555722 184.577857 
L 287.086203 183.640569 
L 287.616684 185.649547 
L 288.147166 188.112031 
L 288.677647 191.122215 
L 289.208128 189.069504 
L 289.73861 191.189335 
L 290.269091 182.683096 
L 290.799572 184.537649 
L 291.330053 182.326988 
L 291.860535 185.55215 
L 292.391016 185.364083 
L 292.921497 185.353991 
L 293.451979 184.981062 
L 293.98246 190.806474 
L 294.512941 202.594904 
L 295.043422 208.221998 
L 295.573904 205.98122 
L 296.104385 207.325078 
L 296.634866 202.473959 
L 297.165348 205.924032 
L 297.695829 205.164878 
L 298.22631 195.748263 
L 298.756791 196.564606 
L 299.287273 193.923987 
L 299.817754 193.389904 
L 300.348235 188.431295 
L 300.878717 185.558878 
L 301.409198 180.942922 
L 301.939679 174.714464 
L 302.47016 170.326943 
L 303.000642 170.038116 
L 303.531123 172.987746 
L 304.061604 174.539854 
L 304.592086 176.888121 
L 305.122567 164.619273 
L 305.653048 165.922762 
L 306.714011 183.953105 
L 307.774973 175.238615 
L 308.305455 194.58254 
L 308.835936 181.161264 
L 309.366417 175.409861 
L 309.896898 182.058344 
L 310.42738 181.829909 
L 310.957861 185.085188 
L 311.488342 186.250911 
L 312.018824 189.123328 
L 312.549305 181.503917 
L 313.079786 182.326988 
L 313.610267 182.400997 
L 314.140749 175.46705 
L 314.67123 177.785041 
L 315.201711 172.947377 
L 315.732193 173.88803 
L 316.262674 169.537513 
L 316.793155 169.419931 
L 317.323636 173.62259 
L 317.854118 171.059345 
L 318.384599 175.332649 
L 318.91508 182.992268 
L 319.445561 176.928329 
L 319.976043 176.851116 
L 320.506524 179.767106 
L 321.037005 180.170312 
L 321.567487 174.082824 
L 322.097968 165.33149 
L 322.628449 163.211658 
L 323.15893 161.827432 
L 324.750374 153.710942 
L 325.811337 141.149903 
L 326.341818 141.549584 
L 326.872299 150.321262 
L 327.402781 150.237321 
L 327.933262 141.489191 
L 328.994225 158.232865 
L 329.524706 169.419931 
L 330.055187 177.613634 
L 330.585668 177.348355 
L 331.11615 179.565584 
L 331.646631 183.328193 
L 332.177112 173.669687 
L 332.707594 175.372857 
L 333.238075 171.435638 
L 333.768556 163.796202 
L 334.299037 167.044752 
L 334.829519 169.500508 
L 335.36 166.480393 
L 335.890481 166.413112 
L 336.420963 167.367221 
L 336.951444 169.433388 
L 337.481925 166.161289 
L 338.012406 167.501622 
L 338.542888 169.544241 
L 339.073369 176.390882 
L 339.60385 177.785041 
L 340.134332 177.835501 
L 340.664813 179.24648 
L 341.195294 179.978721 
L 341.725775 185.044819 
L 342.256257 188.723487 
L 342.786738 186.217431 
L 343.317219 191.978926 
L 343.847701 195.244296 
L 344.378182 196.638454 
L 344.908663 197.474981 
L 345.439144 202.645205 
L 345.969626 197.034932 
L 346.500107 197.098688 
L 347.030588 201.654252 
L 347.56107 199.487324 
L 348.091551 202.702394 
L 348.622032 201.140193 
L 349.152513 200.518645 
L 349.682995 188.46814 
L 350.213476 183.731398 
L 350.743957 182.622704 
L 351.274439 190.92742 
L 351.80492 182.400997 
L 352.335401 183.160151 
L 352.865882 186.892643 
L 353.396364 197.061844 
L 353.926845 197.209542 
L 354.457326 190.954172 
L 354.987807 198.486118 
L 355.518289 201.18729 
L 356.04877 212.169309 
L 356.579251 209.152558 
L 357.109733 187.416634 
L 357.640214 192.570197 
L 358.170695 211.853569 
L 358.701176 209.834499 
L 359.231658 202.662025 
L 359.762139 201.586971 
L 360.29262 195.133443 
L 360.823102 194.565719 
L 361.884064 168.936149 
L 362.414545 142.564245 
L 362.945027 147.475757 
L 363.475508 134.716399 
L 364.005989 128.501398 
L 364.536471 105.052212 
L 365.066952 65.235484 
L 365.597433 53.568 
L 366.658396 122.067894 
L 367.188877 118.100398 
L 367.719358 118.74213 
L 368.24984 134.733219 
L 368.780321 142.33581 
L 369.310802 157.05705 
L 369.841283 151.453345 
L 370.371765 139.238322 
L 371.432727 151.386224 
L 371.963209 137.723218 
L 372.49369 120.982908 
L 373.024171 146.908034 
L 373.554652 145.463415 
L 374.085134 157.762539 
L 374.615615 162.509373 
L 375.146096 163.799566 
L 375.676578 163.070529 
L 376.207059 170.730149 
L 376.73754 166.490485 
L 377.268021 157.896941 
L 377.798503 165.126443 
L 378.328984 164.132126 
L 378.859465 156.28428 
L 379.389947 165.160084 
L 379.920428 164.24298 
L 380.450909 163.6618 
L 380.98139 167.199338 
L 381.511872 169.396383 
L 382.042353 162.29103 
L 382.572834 163.81959 
L 383.103316 164.054753 
L 383.633797 162.331399 
L 384.164278 162.832001 
L 384.694759 137.108398 
L 385.225241 140.608931 
L 385.755722 146.743356 
L 386.286203 151.530718 
L 386.816684 146.588769 
L 387.347166 146.138628 
L 387.877647 161.02791 
L 388.408128 148.32574 
L 388.93861 146.457892 
L 389.469091 145.920285 
L 389.999572 150.1364 
L 390.530053 152.152106 
L 391.060535 155.467937 
L 391.591016 150.307806 
L 392.121497 157.587769 
L 393.18246 162.482621 
L 393.712941 161.457867 
L 395.304385 178.198178 
L 395.834866 177.150036 
L 396.365348 174.680824 
L 396.895829 186.882551 
L 397.42631 181.567834 
L 397.956791 183.697758 
L 398.487273 181.067231 
L 398.487273 181.067231 
" clip-path="url(#pe931dac170)" style="fill: none; stroke: #000000; stroke-width: 1.5; stroke-linecap: square"/>
   </g>
   <g id="line2d_17">
    <path d="M 73.832727 196.55964 
L 74.363209 253.304103 
L 74.89369 271.607094 
L 75.424171 281.60617 
L 75.954652 273.549593 
L 76.485134 277.722776 
L 77.015615 277.856217 
L 78.076578 290.851058 
L 78.607059 291.581698 
L 79.13754 286.639109 
L 79.668021 287.517446 
L 80.198503 291.395874 
L 81.259465 294.523479 
L 81.789947 294.015668 
L 82.850909 287.7784 
L 83.38139 286.622288 
L 83.911872 284.770459 
L 84.972834 274.809669 
L 85.503316 274.59405 
L 86.564278 270.018302 
L 87.094759 266.114883 
L 87.625241 271.377698 
L 88.155722 274.39477 
L 88.686203 278.671438 
L 89.747166 272.801652 
L 90.277647 267.403795 
L 90.808128 274.788204 
L 91.33861 268.999476 
L 91.869091 253.561213 
L 92.399572 251.958163 
L 92.930053 232.791091 
L 93.991016 211.74624 
L 94.521497 193.874968 
L 95.051979 207.92452 
L 95.58246 179.523934 
L 96.112941 177.052799 
L 96.643422 184.723312 
L 97.173904 208.104576 
L 98.234866 196.965408 
L 98.765348 191.30163 
L 99.295829 179.826858 
L 99.82631 187.496891 
L 100.356791 182.38674 
L 101.417754 201.110558 
L 101.948235 202.597307 
L 102.478717 196.047984 
L 103.009198 192.994228 
L 103.539679 196.46 
L 104.07016 204.057144 
L 104.600642 199.113754 
L 105.131123 200.543956 
L 105.661604 204.621183 
L 106.192086 204.290385 
L 106.722567 200.243754 
L 107.253048 193.910371 
L 107.783529 196.301409 
L 108.314011 198.002657 
L 108.844492 199.287403 
L 109.374973 194.721587 
L 109.905455 194.777494 
L 110.435936 196.880506 
L 110.966417 189.434103 
L 111.496898 194.014176 
L 112.02738 197.443423 
L 112.557861 195.881383 
L 113.088342 193.691547 
L 113.618824 194.423148 
L 114.149305 192.428747 
L 114.679786 189.903948 
L 115.210267 188.28584 
L 115.740749 190.434667 
L 116.27123 189.125892 
L 116.801711 190.951769 
L 117.332193 195.507974 
L 117.862674 199.037662 
L 118.393155 205.939891 
L 118.923636 205.705849 
L 119.454118 210.300339 
L 119.984599 228.686951 
L 120.51508 235.449171 
L 121.045561 227.227755 
L 121.576043 230.670139 
L 122.637005 250.575699 
L 123.167487 242.691649 
L 123.697968 232.611676 
L 124.228449 231.601019 
L 124.75893 235.864391 
L 125.289412 232.019923 
L 126.350374 219.425884 
L 127.411337 238.688911 
L 128.472299 223.058096 
L 129.002781 225.690064 
L 129.533262 222.407072 
L 130.063743 231.171382 
L 131.124706 226.41814 
L 131.655187 225.777369 
L 132.185668 222.532984 
L 132.71615 225.833437 
L 133.246631 228.204611 
L 133.777112 220.293328 
L 134.307594 222.151404 
L 134.838075 222.46314 
L 135.368556 223.624057 
L 135.899037 219.214269 
L 136.429519 218.984873 
L 136.96 222.094696 
L 137.490481 222.091653 
L 138.020963 214.710608 
L 138.551444 218.655837 
L 139.081925 218.338174 
L 139.612406 218.787676 
L 140.142888 218.081385 
L 141.20385 232.957051 
L 142.264813 242.092688 
L 142.795294 242.424127 
L 143.325775 246.686858 
L 143.856257 240.408581 
L 144.386738 242.562213 
L 144.917219 241.441344 
L 145.447701 237.463115 
L 145.978182 240.124238 
L 146.508663 244.453129 
L 147.039144 244.995061 
L 147.569626 239.556355 
L 148.100107 239.813625 
L 148.630588 243.809795 
L 149.16107 242.790328 
L 149.691551 244.201787 
L 150.222032 244.219087 
L 150.752513 245.483329 
L 151.282995 244.948445 
L 151.813476 251.119233 
L 152.343957 244.765665 
L 152.874439 250.604854 
L 153.40492 240.905018 
L 153.935401 246.627266 
L 154.996364 241.846311 
L 155.526845 240.806339 
L 156.057326 248.647938 
L 156.587807 246.096868 
L 157.118289 248.230156 
L 158.709733 224.501273 
L 159.240214 232.686325 
L 159.770695 229.1097 
L 160.301176 232.48224 
L 160.831658 226.381456 
L 161.362139 229.281107 
L 161.89262 229.210301 
L 162.423102 227.595077 
L 162.953583 228.271411 
L 163.484064 226.695755 
L 164.014545 227.202284 
L 164.545027 214.390543 
L 165.075508 215.611693 
L 166.136471 196.438213 
L 166.666952 192.212327 
L 167.197433 182.638082 
L 167.727914 200.085323 
L 168.258396 200.594737 
L 168.788877 219.052474 
L 169.319358 213.229946 
L 169.84984 214.165952 
L 170.380321 212.94272 
L 170.910802 217.649666 
L 171.441283 216.713018 
L 171.971765 222.342995 
L 172.502246 225.242485 
L 173.563209 206.199723 
L 174.09369 196.515266 
L 174.624171 196.406495 
L 175.154652 187.885358 
L 175.685134 190.491535 
L 176.215615 187.585958 
L 176.746096 187.493366 
L 177.276578 188.213754 
L 178.33754 182.52002 
L 178.868021 167.987167 
L 179.398503 169.157536 
L 180.459465 178.508952 
L 180.989947 196.048624 
L 182.050909 204.069479 
L 182.58139 208.024159 
L 183.111872 217.440774 
L 183.642353 212.772115 
L 184.172834 217.479701 
L 184.703316 214.696351 
L 185.233797 217.252548 
L 185.764278 220.727931 
L 186.294759 215.883219 
L 186.825241 221.398658 
L 187.355722 221.845116 
L 187.886203 223.316487 
L 188.416684 220.342347 
L 188.947166 223.466588 
L 189.477647 223.776881 
L 190.53861 214.97829 
L 191.069091 217.009535 
L 191.599572 228.550307 
L 192.130053 221.568142 
L 192.660535 221.477153 
L 193.191016 220.124324 
L 193.721497 220.24543 
L 194.251979 226.673488 
L 194.78246 234.646925 
L 195.312941 235.990783 
L 195.843422 230.216312 
L 196.373904 231.788605 
L 196.904385 232.101461 
L 197.434866 233.004949 
L 197.965348 232.377634 
L 198.495829 219.088518 
L 199.556791 207.477261 
L 200.087273 211.069105 
L 200.617754 211.649804 
L 201.148235 211.14824 
L 201.678717 213.517652 
L 202.739679 184.798603 
L 203.27016 196.55964 
L 203.800642 193.03748 
L 204.331123 194.39976 
L 204.861604 198.51207 
L 205.392086 203.607803 
L 205.922567 205.461234 
L 206.453048 206.57922 
L 206.983529 203.348772 
L 207.514011 203.747011 
L 208.044492 198.418517 
L 208.574973 198.372702 
L 209.105455 198.550516 
L 209.635936 200.895098 
L 210.166417 199.771346 
L 210.696898 200.010353 
L 211.22738 200.682843 
L 211.757861 198.199373 
L 212.818824 197.023878 
L 213.349305 195.450785 
L 213.879786 197.990482 
L 214.410267 204.832958 
L 214.940749 208.296808 
L 215.47123 216.785105 
L 216.001711 216.810095 
L 216.532193 212.691057 
L 217.062674 214.94529 
L 217.593155 219.042703 
L 218.123636 221.048957 
L 218.654118 213.958182 
L 219.184599 211.064779 
L 219.71508 211.689692 
L 220.245561 216.808013 
L 220.776043 213.622258 
L 221.306524 214.173001 
L 221.837005 213.81481 
L 222.367487 216.254546 
L 223.428449 208.310744 
L 223.95893 208.465491 
L 224.489412 205.095514 
L 225.019893 204.612052 
L 225.550374 201.12962 
L 226.080856 199.811394 
L 226.611337 195.911019 
L 227.141818 190.86062 
L 227.672299 182.818459 
L 228.202781 178.627815 
L 228.733262 187.367615 
L 229.263743 186.708101 
L 230.855187 181.622299 
L 231.385668 180.423737 
L 231.91615 178.293493 
L 232.446631 171.654621 
L 232.977112 170.115649 
L 233.507594 179.041913 
L 234.038075 172.762675 
L 234.568556 169.71821 
L 235.099037 165.525163 
L 235.629519 167.687446 
L 236.16 157.62205 
L 236.690481 159.151411 
L 237.220963 166.828172 
L 237.751444 182.021019 
L 238.281925 178.755008 
L 238.812406 181.054896 
L 239.342888 180.645444 
L 239.873369 187.303218 
L 240.40385 195.366844 
L 240.934332 200.643275 
L 241.464813 201.022932 
L 241.995294 190.466385 
L 242.525775 192.909806 
L 243.056257 193.274085 
L 243.586738 197.852556 
L 244.117219 194.07585 
L 244.647701 193.913735 
L 245.708663 189.935346 
L 246.239144 193.065994 
L 246.769626 192.351855 
L 247.300107 188.657007 
L 247.830588 186.012864 
L 248.36107 188.22737 
L 248.891551 191.25133 
L 249.422032 197.039898 
L 249.952513 193.519821 
L 250.482995 186.689839 
L 251.013476 186.529326 
L 251.543957 192.880651 
L 252.074439 192.19871 
L 252.60492 197.379506 
L 253.135401 193.348895 
L 253.665882 202.89014 
L 254.196364 201.951089 
L 254.726845 202.570555 
L 255.257326 202.750131 
L 255.787807 203.835277 
L 256.318289 211.983806 
L 256.84877 213.384532 
L 257.379251 218.250389 
L 257.909733 217.42075 
L 258.440214 211.640352 
L 258.970695 213.051491 
L 259.501176 216.040849 
L 260.031658 219.692925 
L 260.562139 224.777125 
L 261.09262 226.630556 
L 261.623102 224.235193 
L 262.153583 225.344528 
L 262.684064 222.181681 
L 263.214545 224.4239 
L 263.745027 220.604903 
L 264.275508 221.824131 
L 264.805989 212.048203 
L 265.336471 204.965918 
L 265.866952 201.208916 
L 266.397433 202.420294 
L 266.927914 192.814652 
L 267.458396 193.331434 
L 268.519358 207.289515 
L 269.04984 202.452493 
L 269.580321 204.085819 
L 270.110802 206.163199 
L 270.641283 210.743913 
L 271.171765 205.132359 
L 271.702246 203.426946 
L 272.232727 204.879254 
L 273.29369 210.562415 
L 273.824171 206.615424 
L 274.354652 200.077474 
L 274.885134 197.462166 
L 275.946096 194.116218 
L 276.476578 185.357516 
L 277.007059 189.345356 
L 277.53754 185.135008 
L 278.068021 183.74149 
L 278.598503 179.126655 
L 279.128984 180.293019 
L 280.189947 190.019127 
L 280.720428 186.196285 
L 281.250909 180.123856 
L 281.78139 177.806186 
L 282.311872 179.644559 
L 282.842353 187.540463 
L 283.372834 189.432661 
L 283.903316 191.875922 
L 284.433797 193.139363 
L 284.964278 196.761643 
L 285.494759 195.688831 
L 286.025241 187.630652 
L 286.555722 188.716439 
L 287.086203 185.517388 
L 287.616684 185.383947 
L 288.147166 186.038175 
L 289.208128 192.196307 
L 289.73861 190.402468 
L 290.269091 191.979406 
L 290.799572 184.138448 
L 291.330053 185.388753 
L 291.860535 182.898556 
L 292.391016 186.974021 
L 292.921497 186.282469 
L 293.451979 186.781149 
L 293.98246 185.833609 
L 294.512941 191.356577 
L 295.043422 202.789859 
L 295.573904 209.538783 
L 296.104385 207.661163 
L 296.634866 207.537494 
L 297.165348 203.202195 
L 297.695829 206.518507 
L 298.22631 205.746378 
L 298.756791 197.923361 
L 299.287273 196.733769 
L 299.817754 194.47505 
L 300.348235 194.967483 
L 300.878717 189.546718 
L 301.409198 186.74895 
L 303.000642 171.473443 
L 303.531123 170.962268 
L 304.061604 174.053669 
L 305.122567 178.163897 
L 305.653048 166.841628 
L 306.183529 166.645872 
L 306.714011 174.269128 
L 307.244492 185.633528 
L 307.774973 182.172402 
L 308.305455 176.644788 
L 308.835936 192.969558 
L 309.366417 184.037687 
L 309.896898 178.14163 
L 310.42738 180.131865 
L 311.488342 186.75728 
L 312.018824 186.880309 
L 312.549305 190.218246 
L 313.079786 183.156146 
L 313.610267 183.156626 
L 314.140749 182.771202 
L 314.67123 177.72657 
L 315.201711 178.406108 
L 315.732193 174.09596 
L 316.262674 175.431968 
L 316.793155 170.63179 
L 317.323636 170.874803 
L 317.854118 174.115023 
L 318.384599 172.933601 
L 318.91508 176.386557 
L 319.445561 183.215417 
L 319.976043 179.340192 
L 320.506524 178.016359 
L 321.037005 179.708476 
L 321.567487 181.78025 
L 322.097968 175.953556 
L 322.628449 166.841628 
L 323.15893 163.837532 
L 323.689412 162.942535 
L 324.219893 160.875567 
L 325.280856 155.086839 
L 325.811337 149.720699 
L 326.341818 142.974499 
L 326.872299 142.54358 
L 327.402781 151.048698 
L 327.933262 152.565884 
L 328.463743 144.311468 
L 328.994225 149.20632 
L 329.524706 158.641037 
L 330.055187 171.36259 
L 330.585668 178.748761 
L 331.11615 179.07267 
L 331.646631 180.349407 
L 332.177112 183.647457 
L 332.707594 175.916872 
L 333.238075 176.124962 
L 333.768556 172.062793 
L 334.299037 166.274545 
L 334.829519 167.34207 
L 335.36 170.405438 
L 336.420963 167.521807 
L 336.951444 168.171389 
L 337.481925 170.757221 
L 338.012406 167.843474 
L 338.542888 168.608234 
L 339.073369 170.310123 
L 339.60385 177.442869 
L 340.134332 179.172471 
L 340.664813 179.390012 
L 341.195294 179.906955 
L 341.725775 181.008921 
L 342.256257 185.853152 
L 342.786738 189.636586 
L 343.317219 187.920921 
L 343.847701 192.342403 
L 344.378182 195.75403 
L 344.908663 198.18031 
L 345.439144 198.230771 
L 345.969626 203.026464 
L 346.500107 198.555322 
L 347.030588 198.086437 
L 347.56107 201.423574 
L 348.091551 201.111999 
L 348.622032 203.544687 
L 349.152513 201.796824 
L 349.682995 201.751008 
L 350.213476 190.023933 
L 350.743957 184.699123 
L 351.274439 182.754382 
L 351.80492 191.71621 
L 352.335401 184.715783 
L 352.865882 184.492955 
L 353.396364 186.503535 
L 353.926845 198.008263 
L 354.457326 198.765975 
L 354.987807 192.898112 
L 355.518289 197.881551 
L 356.04877 201.711281 
L 356.579251 213.172116 
L 357.109733 210.308509 
L 357.640214 190.547282 
L 358.170695 191.265427 
L 358.701176 210.007026 
L 359.231658 213.412085 
L 359.762139 205.009491 
L 360.823102 196.120871 
L 361.353583 195.680662 
L 362.414545 170.886817 
L 362.945027 144.617917 
L 363.475508 147.521252 
L 364.005989 136.419248 
L 364.536471 132.267851 
L 365.066952 107.26864 
L 365.597433 70.063856 
L 366.127914 54.047137 
L 367.188877 124.663658 
L 367.719358 124.982762 
L 368.24984 120.472533 
L 369.841283 158.785851 
L 370.371765 153.423717 
L 370.902246 142.055152 
L 371.432727 144.832255 
L 371.963209 152.183023 
L 372.49369 141.884867 
L 373.024171 123.424887 
L 373.554652 144.391885 
L 374.085134 147.905554 
L 374.615615 161.167117 
L 375.146096 162.151022 
L 375.676578 166.199895 
L 376.207059 164.008618 
L 376.73754 171.125665 
L 377.268021 168.266703 
L 377.798503 160.333154 
L 378.328984 164.686073 
L 378.859465 165.478227 
L 379.389947 159.321055 
L 379.920428 164.893042 
L 380.98139 166.143508 
L 381.511872 167.511394 
L 382.042353 170.642523 
L 382.572834 164.531487 
L 383.633797 164.740859 
L 384.694759 163.950628 
L 385.225241 140.520825 
L 385.755722 140.976093 
L 386.286203 146.041871 
L 386.816684 154.870899 
L 387.347166 148.876483 
L 387.877647 147.405913 
L 388.408128 160.556302 
L 388.93861 151.694115 
L 389.999572 145.470624 
L 390.530053 151.983743 
L 391.060535 153.709981 
L 391.591016 157.051123 
L 392.121497 152.158354 
L 392.651979 158.306714 
L 393.18246 160.806363 
L 393.712941 164.586113 
L 394.243422 162.654187 
L 395.834866 179.683165 
L 396.365348 178.597859 
L 396.895829 176.003856 
L 397.42631 186.473899 
L 397.956791 183.473167 
L 398.487273 185.433767 
L 398.487273 185.433767 
" clip-path="url(#pe931dac170)" style="fill: none; stroke: #008000; stroke-width: 1.5; stroke-linecap: square"/>
   </g>
   <g id="line2d_18">
    <path d="M 73.832727 286.56526 
L 74.363209 281.895479 
L 74.89369 279.241564 
L 75.424171 278.267271 
L 75.954652 277.770033 
L 76.485134 285.557326 
L 77.015615 295.131891 
L 78.076578 286.491251 
L 79.13754 291.671726 
L 80.198503 295.488 
L 80.728984 295.131891 
L 81.259465 290.39499 
L 81.789947 288.130824 
L 82.320428 287.102707 
L 82.850909 284.583194 
L 83.911872 274.773466 
L 84.442353 275.008629 
L 86.033797 266.085728 
L 86.564278 271.931325 
L 87.094759 274.387081 
L 87.625241 278.233631 
L 88.686203 272.556237 
L 89.216684 267.523619 
L 89.747166 275.643473 
L 90.277647 268.182172 
L 90.808128 251.428405 
L 91.33861 253.679275 
L 91.869091 231.221042 
L 92.930053 212.579242 
L 93.460535 190.853411 
L 93.991016 209.417997 
L 94.521497 176.08171 
L 95.051979 174.36172 
L 95.58246 188.50178 
L 96.112941 205.860275 
L 96.643422 198.674345 
L 97.173904 195.825476 
L 97.704385 191.84116 
L 98.234866 177.509509 
L 98.765348 187.964333 
L 99.295829 181.097508 
L 99.82631 189.308031 
L 100.356791 202.053933 
L 100.887273 199.95765 
L 101.417754 194.407769 
L 101.948235 193.191585 
L 102.478717 196.060639 
L 103.009198 203.350694 
L 103.539679 197.135693 
L 104.07016 199.789607 
L 104.600642 205.01702 
L 105.131123 202.410042 
L 105.661604 199.010269 
L 106.192086 193.205042 
L 106.722567 195.892597 
L 107.253048 197.270095 
L 107.783529 197.774061 
L 108.314011 193.507486 
L 108.844492 194.112214 
L 109.374973 196.450388 
L 109.905455 187.292324 
L 110.435936 193.80977 
L 110.966417 197.337216 
L 111.496898 193.389904 
L 112.02738 193.057344 
L 112.557861 194.088665 
L 113.088342 190.920692 
L 113.618824 188.770584 
L 114.149305 187.561128 
L 114.679786 189.576834 
L 115.210267 187.829932 
L 115.740749 189.959855 
L 116.27123 195.126715 
L 116.801711 197.841182 
L 117.332193 205.33276 
L 117.862674 204.660911 
L 118.393155 209.565855 
L 118.923636 230.025042 
L 119.454118 233.98597 
L 119.984599 224.616291 
L 120.51508 232.225451 
L 121.045561 242.683639 
L 121.576043 249.120347 
L 122.637005 232.00038 
L 123.167487 232.544715 
L 123.697968 235.749693 
L 125.289412 219.167172 
L 126.350374 238.682503 
L 126.880856 228.546943 
L 127.411337 222.314961 
L 127.941818 227.169445 
L 128.472299 220.863775 
L 129.002781 230.898573 
L 129.533262 228.452749 
L 130.063743 224.48189 
L 130.594225 226.369922 
L 131.124706 221.592812 
L 131.655187 225.328509 
L 132.185668 228.180742 
L 132.71615 218.166127 
L 133.246631 222.314961 
L 133.777112 222.610677 
L 134.307594 221.965581 
L 134.838075 218.585993 
L 135.368556 218.528964 
L 135.899037 221.928736 
L 136.429519 221.021564 
L 136.96 213.190698 
L 137.490481 219.066411 
L 138.020963 217.830203 
L 138.551444 217.158194 
L 139.081925 217.987993 
L 140.142888 232.635384 
L 140.673369 236.401357 
L 141.20385 241.850476 
L 141.734332 242.068819 
L 142.264813 246.533553 
L 142.795294 239.639976 
L 143.325775 242.367739 
L 143.856257 241.682434 
L 144.386738 235.944487 
L 145.447701 244.568308 
L 145.978182 243.667864 
L 146.508663 238.826997 
L 147.039144 240.036293 
L 147.569626 243.977036 
L 148.100107 241.642226 
L 148.630588 243.899823 
L 149.16107 244.218927 
L 149.691551 244.840475 
L 150.222032 244.682525 
L 150.752513 251.317552 
L 151.282995 243.590651 
L 151.813476 250.685912 
L 152.343957 240.439498 
L 152.874439 246.113688 
L 153.40492 244.558216 
L 153.935401 240.066569 
L 154.465882 241.178628 
L 154.996364 249.106891 
L 155.526845 244.689253 
L 156.057326 247.833678 
L 157.64877 224.51553 
L 158.179251 233.250204 
L 158.709733 227.707052 
L 159.240214 231.3689 
L 159.770695 226.262433 
L 160.301176 228.479662 
L 160.831658 229.252432 
L 161.362139 226.262433 
L 161.89262 228.076617 
L 162.423102 226.171764 
L 162.953583 226.396835 
L 163.484064 212.908439 
L 164.014545 215.542329 
L 164.545027 205.82327 
L 165.075508 193.917259 
L 165.605989 192.533193 
L 166.136471 180.939558 
L 166.666952 200.458252 
L 167.197433 199.554444 
L 167.727914 217.561399 
L 168.258396 212.750649 
L 168.788877 212.229862 
L 169.319358 213.936556 
L 169.84984 216.82227 
L 170.380321 215.646454 
L 170.910802 222.1639 
L 171.441283 224.854819 
L 171.971765 212.548966 
L 172.502246 205.641932 
L 173.032727 196.262161 
L 173.563209 195.489551 
L 174.09369 186.418953 
L 174.624171 189.533102 
L 175.154652 186.821998 
L 175.685134 185.636091 
L 176.215615 187.809747 
L 176.746096 183.919465 
L 177.276578 181.14124 
L 177.807059 166.141105 
L 178.33754 168.680802 
L 178.868021 173.76372 
L 179.398503 176.111987 
L 179.928984 196.332807 
L 180.459465 198.227567 
L 180.989947 202.114486 
L 181.520428 208.803177 
L 182.050909 216.923031 
L 182.58139 211.010314 
L 183.111872 217.393357 
L 183.642353 214.470639 
L 184.172834 215.932078 
L 184.703316 221.055205 
L 185.233797 214.131351 
L 185.764278 221.327373 
L 186.294759 221.794335 
L 186.825241 221.673389 
L 187.355722 220.030612 
L 187.886203 223.205313 
L 188.416684 223.138192 
L 189.477647 214.393426 
L 190.008128 217.037249 
L 190.53861 228.731645 
L 191.069091 219.247749 
L 191.599572 220.682276 
L 192.130053 220.920803 
L 192.660535 218.663206 
L 193.721497 234.570513 
L 194.251979 234.426019 
L 194.78246 229.302733 
L 195.312941 232.252363 
L 195.843422 231.795493 
L 196.904385 232.107869 
L 197.434866 217.255591 
L 198.495829 207.65091 
L 199.02631 210.046113 
L 199.556791 210.842432 
L 200.087273 209.790926 
L 200.617754 213.194062 
L 201.678717 183.123306 
L 202.209198 198.848955 
L 202.739679 190.604792 
L 203.27016 191.827704 
L 203.800642 199.829976 
L 205.392086 206.209655 
L 205.922567 202.074117 
L 206.453048 203.17272 
L 206.983529 197.471617 
L 207.514011 197.337216 
L 208.044492 198.207383 
L 208.574973 199.712395 
L 209.105455 198.660889 
L 209.635936 199.151399 
L 210.166417 200.024771 
L 210.696898 196.907258 
L 211.22738 196.7594 
L 211.757861 196.362923 
L 212.288342 194.155786 
L 212.818824 197.437977 
L 213.349305 204.526509 
L 213.879786 206.992357 
L 214.410267 216.39904 
L 214.940749 215.982379 
L 215.47123 211.077595 
L 216.001711 215.444932 
L 216.532193 218.770855 
L 217.062674 219.677867 
L 217.593155 212.723736 
L 218.123636 210.607269 
L 218.654118 211.682323 
L 219.184599 216.08314 
L 219.71508 212.186129 
L 220.245561 213.46623 
L 220.776043 213.630748 
L 221.306524 215.317258 
L 222.367487 207.254433 
L 222.897968 208.336215 
L 223.428449 203.935238 
L 223.95893 203.572401 
L 224.489412 200.427976 
L 225.019893 198.647433 
L 225.550374 194.978857 
L 226.080856 189.526374 
L 226.611337 181.503917 
L 227.141818 177.694371 
L 227.672299 187.443546 
L 228.202781 184.769448 
L 228.733262 182.878051 
L 229.263743 183.402042 
L 229.794225 180.207156 
L 230.324706 179.196019 
L 230.855187 177.318078 
L 231.385668 169.799588 
L 231.91615 169.221773 
L 232.446631 179.095258 
L 232.977112 169.964106 
L 233.507594 167.9484 
L 234.038075 165.469096 
L 234.568556 166.094008 
L 235.099037 155.444389 
L 235.629519 158.232865 
L 236.16 166.900258 
L 236.690481 180.647366 
L 237.220963 176.23966 
L 237.751444 179.995541 
L 238.281925 180.674118 
L 238.812406 186.062845 
L 239.342888 195.07289 
L 239.873369 199.34283 
L 240.40385 199.69221 
L 240.934332 188.938466 
L 241.464813 192.969879 
L 241.995294 192.939762 
L 242.525775 196.151308 
L 243.056257 193.016975 
L 243.586738 192.835477 
L 244.117219 191.340557 
L 244.647701 188.582357 
L 245.178182 192.61377 
L 245.708663 191.189335 
L 246.239144 186.885915 
L 246.769626 185.41102 
L 247.830588 190.164742 
L 248.36107 196.195041 
L 248.891551 191.938557 
L 249.422032 185.034887 
L 249.952513 186.620476 
L 250.482995 192.496188 
L 251.013476 190.201747 
L 251.543957 196.72576 
L 252.074439 192.335034 
L 252.60492 202.342921 
L 253.135401 201.341716 
L 253.665882 200.669867 
L 254.196364 202.840159 
L 254.726845 202.880368 
L 255.257326 211.692415 
L 255.787807 212.475117 
L 256.318289 217.258955 
L 256.84877 217.057433 
L 257.379251 210.073026 
L 258.440214 215.90853 
L 258.970695 218.40129 
L 259.501176 224.549171 
L 260.031658 225.892868 
L 260.562139 223.081003 
L 261.09262 225.368877 
L 261.623102 221.45841 
L 262.153583 223.810041 
L 262.684064 220.013791 
L 263.214545 220.991448 
L 263.745027 210.939829 
L 264.275508 203.693346 
L 264.805989 201.267867 
L 265.336471 201.529942 
L 265.866952 190.695621 
L 266.397433 192.805361 
L 266.927914 200.854569 
L 267.458396 205.601563 
L 267.988877 200.559014 
L 268.519358 203.915053 
L 269.04984 206.055069 
L 269.580321 209.562491 
L 270.110802 203.78754 
L 270.641283 202.628385 
L 271.171765 204.933079 
L 271.702246 206.424634 
L 272.232727 209.733737 
L 272.763209 205.379856 
L 273.29369 198.734738 
L 273.824171 197.263367 
L 274.885134 192.758264 
L 275.415615 183.785063 
L 275.946096 189.106508 
L 276.476578 183.966561 
L 277.007059 181.708964 
L 277.53754 178.591291 
L 278.068021 179.162378 
L 279.128984 188.857889 
L 280.189947 178.826454 
L 280.720428 177.41884 
L 281.250909 178.759333 
L 281.78139 186.78179 
L 282.311872 187.964333 
L 283.903316 195.872573 
L 284.433797 194.525351 
L 284.964278 185.914987 
L 285.494759 188.582357 
L 286.025241 184.577857 
L 286.555722 183.640569 
L 287.086203 185.649547 
L 287.616684 188.112031 
L 288.147166 191.122215 
L 288.677647 189.069504 
L 289.208128 191.189335 
L 289.73861 182.683096 
L 290.269091 184.537649 
L 290.799572 182.326988 
L 291.330053 185.55215 
L 291.860535 185.364083 
L 292.391016 185.353991 
L 292.921497 184.981062 
L 293.451979 190.806474 
L 293.98246 202.594904 
L 294.512941 208.221998 
L 295.043422 205.98122 
L 295.573904 207.325078 
L 296.104385 202.473959 
L 296.634866 205.924032 
L 297.165348 205.164878 
L 297.695829 195.748263 
L 298.22631 196.564606 
L 298.756791 193.923987 
L 299.287273 193.389904 
L 299.817754 188.431295 
L 300.348235 185.558878 
L 300.878717 180.942922 
L 301.409198 174.714464 
L 301.939679 170.326943 
L 302.47016 170.038116 
L 303.000642 172.987746 
L 303.531123 174.539854 
L 304.061604 176.888121 
L 304.592086 164.619273 
L 305.122567 165.922762 
L 306.183529 183.953105 
L 307.244492 175.238615 
L 307.774973 194.58254 
L 308.305455 181.161264 
L 308.835936 175.409861 
L 309.366417 182.058344 
L 309.896898 181.829909 
L 310.42738 185.085188 
L 310.957861 186.250911 
L 311.488342 189.123328 
L 312.018824 181.503917 
L 312.549305 182.326988 
L 313.079786 182.400997 
L 313.610267 175.46705 
L 314.140749 177.785041 
L 314.67123 172.947377 
L 315.201711 173.88803 
L 315.732193 169.537513 
L 316.262674 169.419931 
L 316.793155 173.62259 
L 317.323636 171.059345 
L 317.854118 175.332649 
L 318.384599 182.992268 
L 318.91508 176.928329 
L 319.445561 176.851116 
L 319.976043 179.767106 
L 320.506524 180.170312 
L 321.037005 174.082824 
L 321.567487 165.33149 
L 322.097968 163.211658 
L 322.628449 161.827432 
L 324.219893 153.710942 
L 325.280856 141.149903 
L 325.811337 141.549584 
L 326.341818 150.321262 
L 326.872299 150.237321 
L 327.402781 141.489191 
L 328.463743 158.232865 
L 328.994225 169.419931 
L 329.524706 177.613634 
L 330.055187 177.348355 
L 330.585668 179.565584 
L 331.11615 183.328193 
L 331.646631 173.669687 
L 332.177112 175.372857 
L 332.707594 171.435638 
L 333.238075 163.796202 
L 333.768556 167.044752 
L 334.299037 169.500508 
L 334.829519 166.480393 
L 335.36 166.413112 
L 335.890481 167.367221 
L 336.420963 169.433388 
L 336.951444 166.161289 
L 337.481925 167.501622 
L 338.012406 169.544241 
L 338.542888 176.390882 
L 339.073369 177.785041 
L 339.60385 177.835501 
L 340.134332 179.24648 
L 340.664813 179.978721 
L 341.195294 185.044819 
L 341.725775 188.723487 
L 342.256257 186.217431 
L 342.786738 191.978926 
L 343.317219 195.244296 
L 343.847701 196.638454 
L 344.378182 197.474981 
L 344.908663 202.645205 
L 345.439144 197.034932 
L 345.969626 197.098688 
L 346.500107 201.654252 
L 347.030588 199.487324 
L 347.56107 202.702394 
L 348.091551 201.140193 
L 348.622032 200.518645 
L 349.152513 188.46814 
L 349.682995 183.731398 
L 350.213476 182.622704 
L 350.743957 190.92742 
L 351.274439 182.400997 
L 351.80492 183.160151 
L 352.335401 186.892643 
L 352.865882 197.061844 
L 353.396364 197.209542 
L 353.926845 190.954172 
L 354.457326 198.486118 
L 354.987807 201.18729 
L 355.518289 212.169309 
L 356.04877 209.152558 
L 356.579251 187.416634 
L 357.109733 192.570197 
L 357.640214 211.853569 
L 358.170695 209.834499 
L 358.701176 202.662025 
L 359.231658 201.586971 
L 359.762139 195.133443 
L 360.29262 194.565719 
L 361.353583 168.936149 
L 361.884064 142.564245 
L 362.414545 147.475757 
L 362.945027 134.716399 
L 363.475508 128.501398 
L 364.005989 105.052212 
L 364.536471 65.235484 
L 365.066952 53.568 
L 366.127914 122.067894 
L 366.658396 118.100398 
L 367.188877 118.74213 
L 367.719358 134.733219 
L 368.24984 142.33581 
L 368.780321 157.05705 
L 369.310802 151.453345 
L 369.841283 139.238322 
L 370.902246 151.386224 
L 371.432727 137.723218 
L 371.963209 120.982908 
L 372.49369 146.908034 
L 373.024171 145.463415 
L 373.554652 157.762539 
L 374.085134 162.509373 
L 374.615615 163.799566 
L 375.146096 163.070529 
L 375.676578 170.730149 
L 376.207059 166.490485 
L 376.73754 157.896941 
L 377.268021 165.126443 
L 377.798503 164.132126 
L 378.328984 156.28428 
L 378.859465 165.160084 
L 379.389947 164.24298 
L 379.920428 163.6618 
L 380.450909 167.199338 
L 380.98139 169.396383 
L 381.511872 162.29103 
L 382.042353 163.81959 
L 382.572834 164.054753 
L 383.103316 162.331399 
L 383.633797 162.832001 
L 384.164278 137.108398 
L 384.694759 140.608931 
L 385.225241 146.743356 
L 385.755722 151.530718 
L 386.286203 146.588769 
L 386.816684 146.138628 
L 387.347166 161.02791 
L 387.877647 148.32574 
L 388.408128 146.457892 
L 388.93861 145.920285 
L 389.469091 150.1364 
L 389.999572 152.152106 
L 390.530053 155.467937 
L 391.060535 150.307806 
L 391.591016 157.587769 
L 392.651979 162.482621 
L 393.18246 161.457867 
L 394.773904 178.198178 
L 395.304385 177.150036 
L 395.834866 174.680824 
L 396.365348 186.882551 
L 396.895829 181.567834 
L 397.42631 183.697758 
L 397.956791 181.067231 
L 398.487273 184.702167 
L 398.487273 184.702167 
" clip-path="url(#pe931dac170)" style="fill: none; stroke: #0000ff; stroke-width: 1.5; stroke-linecap: square"/>
   </g>
   <g id="patch_3">
    <path d="M 57.6 307.584 
L 57.6 41.472 
" style="fill: none; stroke: #000000; stroke-width: 0.8; stroke-linejoin: miter; stroke-linecap: square"/>
   </g>
   <g id="patch_4">
    <path d="M 414.72 307.584 
L 414.72 41.472 
" style="fill: none; stroke: #000000; stroke-width: 0.8; stroke-linejoin: miter; stroke-linecap: square"/>
   </g>
   <g id="patch_5">
    <path d="M 57.6 307.584 
L 414.72 307.584 
" style="fill: none; stroke: #000000; stroke-width: 0.8; stroke-linejoin: miter; stroke-linecap: square"/>
   </g>
   <g id="patch_6">
    <path d="M 57.6 41.472 
L 414.72 41.472 
" style="fill: none; stroke: #000000; stroke-width: 0.8; stroke-linejoin: miter; stroke-linecap: square"/>
   </g>
   <g id="text_18">
    <!-- EUR price prediction -->
    <g transform="translate(174.960938 35.472)scale(0.12 -0.12)">
     <defs>
      <path id="DejaVuSans-45" d="M 628 4666 
L 3578 4666 
L 3578 4134 
L 1259 4134 
L 1259 2753 
L 3481 2753 
L 3481 2222 
L 1259 2222 
L 1259 531 
L 3634 531 
L 3634 0 
L 628 0 
L 628 4666 
z
" transform="scale(0.015625)"/>
      <path id="DejaVuSans-55" d="M 556 4666 
L 1191 4666 
L 1191 1831 
Q 1191 1081 1462 751 
Q 1734 422 2344 422 
Q 2950 422 3222 751 
Q 3494 1081 3494 1831 
L 3494 4666 
L 4128 4666 
L 4128 1753 
Q 4128 841 3676 375 
Q 3225 -91 2344 -91 
Q 1459 -91 1007 375 
Q 556 841 556 1753 
L 556 4666 
z
" transform="scale(0.015625)"/>
      <path id="DejaVuSans-52" d="M 2841 2188 
Q 3044 2119 3236 1894 
Q 3428 1669 3622 1275 
L 4263 0 
L 3584 0 
L 2988 1197 
Q 2756 1666 2539 1819 
Q 2322 1972 1947 1972 
L 1259 1972 
L 1259 0 
L 628 0 
L 628 4666 
L 2053 4666 
Q 2853 4666 3247 4331 
Q 3641 3997 3641 3322 
Q 3641 2881 3436 2590 
Q 3231 2300 2841 2188 
z
M 1259 4147 
L 1259 2491 
L 2053 2491 
Q 2509 2491 2742 2702 
Q 2975 2913 2975 3322 
Q 2975 3731 2742 3939 
Q 2509 4147 2053 4147 
L 1259 4147 
z
" transform="scale(0.015625)"/>
      <path id="DejaVuSans-20" transform="scale(0.015625)"/>
      <path id="DejaVuSans-70" d="M 1159 525 
L 1159 -1331 
L 581 -1331 
L 581 3500 
L 1159 3500 
L 1159 2969 
Q 1341 3281 1617 3432 
Q 1894 3584 2278 3584 
Q 2916 3584 3314 3078 
Q 3713 2572 3713 1747 
Q 3713 922 3314 415 
Q 2916 -91 2278 -91 
Q 1894 -91 1617 61 
Q 1341 213 1159 525 
z
M 3116 1747 
Q 3116 2381 2855 2742 
Q 2594 3103 2138 3103 
Q 1681 3103 1420 2742 
Q 1159 2381 1159 1747 
Q 1159 1113 1420 752 
Q 1681 391 2138 391 
Q 2594 391 2855 752 
Q 3116 1113 3116 1747 
z
" transform="scale(0.015625)"/>
      <path id="DejaVuSans-64" d="M 2906 2969 
L 2906 4863 
L 3481 4863 
L 3481 0 
L 2906 0 
L 2906 525 
Q 2725 213 2448 61 
Q 2172 -91 1784 -91 
Q 1150 -91 751 415 
Q 353 922 353 1747 
Q 353 2572 751 3078 
Q 1150 3584 1784 3584 
Q 2172 3584 2448 3432 
Q 2725 3281 2906 2969 
z
M 947 1747 
Q 947 1113 1208 752 
Q 1469 391 1925 391 
Q 2381 391 2643 752 
Q 2906 1113 2906 1747 
Q 2906 2381 2643 2742 
Q 2381 3103 1925 3103 
Q 1469 3103 1208 2742 
Q 947 2381 947 1747 
z
" transform="scale(0.015625)"/>
      <path id="DejaVuSans-74" d="M 1172 4494 
L 1172 3500 
L 2356 3500 
L 2356 3053 
L 1172 3053 
L 1172 1153 
Q 1172 725 1289 603 
Q 1406 481 1766 481 
L 2356 481 
L 2356 0 
L 1766 0 
Q 1100 0 847 248 
Q 594 497 594 1153 
L 594 3053 
L 172 3053 
L 172 3500 
L 594 3500 
L 594 4494 
L 1172 4494 
z
" transform="scale(0.015625)"/>
      <path id="DejaVuSans-6f" d="M 1959 3097 
Q 1497 3097 1228 2736 
Q 959 2375 959 1747 
Q 959 1119 1226 758 
Q 1494 397 1959 397 
Q 2419 397 2687 759 
Q 2956 1122 2956 1747 
Q 2956 2369 2687 2733 
Q 2419 3097 1959 3097 
z
M 1959 3584 
Q 2709 3584 3137 3096 
Q 3566 2609 3566 1747 
Q 3566 888 3137 398 
Q 2709 -91 1959 -91 
Q 1206 -91 779 398 
Q 353 888 353 1747 
Q 353 2609 779 3096 
Q 1206 3584 1959 3584 
z
" transform="scale(0.015625)"/>
      <path id="DejaVuSans-6e" d="M 3513 2113 
L 3513 0 
L 2938 0 
L 2938 2094 
Q 2938 2591 2744 2837 
Q 2550 3084 2163 3084 
Q 1697 3084 1428 2787 
Q 1159 2491 1159 1978 
L 1159 0 
L 581 0 
L 581 3500 
L 1159 3500 
L 1159 2956 
Q 1366 3272 1645 3428 
Q 1925 3584 2291 3584 
Q 2894 3584 3203 3211 
Q 3513 2838 3513 2113 
z
" transform="scale(0.015625)"/>
     </defs>
     <use xlink:href="#DejaVuSans-45"/>
     <use xlink:href="#DejaVuSans-55" x="63.183594"/>
     <use xlink:href="#DejaVuSans-52" x="136.376953"/>
     <use xlink:href="#DejaVuSans-20" x="205.859375"/>
     <use xlink:href="#DejaVuSans-70" x="237.646484"/>
     <use xlink:href="#DejaVuSans-72" x="301.123047"/>
     <use xlink:href="#DejaVuSans-69" x="342.236328"/>
     <use xlink:href="#DejaVuSans-63" x="370.019531"/>
     <use xlink:href="#DejaVuSans-65" x="425"/>
     <use xlink:href="#DejaVuSans-20" x="486.523438"/>
     <use xlink:href="#DejaVuSans-70" x="518.310547"/>
     <use xlink:href="#DejaVuSans-72" x="581.787109"/>
     <use xlink:href="#DejaVuSans-65" x="620.650391"/>
     <use xlink:href="#DejaVuSans-64" x="682.173828"/>
     <use xlink:href="#DejaVuSans-69" x="745.650391"/>
     <use xlink:href="#DejaVuSans-63" x="773.433594"/>
     <use xlink:href="#DejaVuSans-74" x="828.414062"/>
     <use xlink:href="#DejaVuSans-69" x="867.623047"/>
     <use xlink:href="#DejaVuSans-6f" x="895.40625"/>
     <use xlink:href="#DejaVuSans-6e" x="956.587891"/>
    </g>
   </g>
   <g id="legend_1">
    <g id="patch_7">
     <path d="M 64.6 93.506375 
L 176.323438 93.506375 
Q 178.323438 93.506375 178.323438 91.506375 
L 178.323438 48.472 
Q 178.323438 46.472 176.323438 46.472 
L 64.6 46.472 
Q 62.6 46.472 62.6 48.472 
L 62.6 91.506375 
Q 62.6 93.506375 64.6 93.506375 
z
" style="fill: #ffffff; opacity: 0.8; stroke: #cccccc; stroke-linejoin: miter"/>
    </g>
    <g id="line2d_19">
     <path d="M 66.6 54.570438 
L 76.6 54.570438 
L 86.6 54.570438 
" style="fill: none; stroke: #000000; stroke-width: 1.5; stroke-linecap: square"/>
    </g>
    <g id="text_19">
     <!-- Actual Prices -->
     <g transform="translate(94.6 58.070438)scale(0.1 -0.1)">
      <defs>
       <path id="DejaVuSans-41" d="M 2188 4044 
L 1331 1722 
L 3047 1722 
L 2188 4044 
z
M 1831 4666 
L 2547 4666 
L 4325 0 
L 3669 0 
L 3244 1197 
L 1141 1197 
L 716 0 
L 50 0 
L 1831 4666 
z
" transform="scale(0.015625)"/>
       <path id="DejaVuSans-75" d="M 544 1381 
L 544 3500 
L 1119 3500 
L 1119 1403 
Q 1119 906 1312 657 
Q 1506 409 1894 409 
Q 2359 409 2629 706 
Q 2900 1003 2900 1516 
L 2900 3500 
L 3475 3500 
L 3475 0 
L 2900 0 
L 2900 538 
Q 2691 219 2414 64 
Q 2138 -91 1772 -91 
Q 1169 -91 856 284 
Q 544 659 544 1381 
z
M 1991 3584 
L 1991 3584 
z
" transform="scale(0.015625)"/>
       <path id="DejaVuSans-61" d="M 2194 1759 
Q 1497 1759 1228 1600 
Q 959 1441 959 1056 
Q 959 750 1161 570 
Q 1363 391 1709 391 
Q 2188 391 2477 730 
Q 2766 1069 2766 1631 
L 2766 1759 
L 2194 1759 
z
M 3341 1997 
L 3341 0 
L 2766 0 
L 2766 531 
Q 2569 213 2275 61 
Q 1981 -91 1556 -91 
Q 1019 -91 701 211 
Q 384 513 384 1019 
Q 384 1609 779 1909 
Q 1175 2209 1959 2209 
L 2766 2209 
L 2766 2266 
Q 2766 2663 2505 2880 
Q 2244 3097 1772 3097 
Q 1472 3097 1187 3025 
Q 903 2953 641 2809 
L 641 3341 
Q 956 3463 1253 3523 
Q 1550 3584 1831 3584 
Q 2591 3584 2966 3190 
Q 3341 2797 3341 1997 
z
" transform="scale(0.015625)"/>
       <path id="DejaVuSans-6c" d="M 603 4863 
L 1178 4863 
L 1178 0 
L 603 0 
L 603 4863 
z
" transform="scale(0.015625)"/>
       <path id="DejaVuSans-73" d="M 2834 3397 
L 2834 2853 
Q 2591 2978 2328 3040 
Q 2066 3103 1784 3103 
Q 1356 3103 1142 2972 
Q 928 2841 928 2578 
Q 928 2378 1081 2264 
Q 1234 2150 1697 2047 
L 1894 2003 
Q 2506 1872 2764 1633 
Q 3022 1394 3022 966 
Q 3022 478 2636 193 
Q 2250 -91 1575 -91 
Q 1294 -91 989 -36 
Q 684 19 347 128 
L 347 722 
Q 666 556 975 473 
Q 1284 391 1588 391 
Q 1994 391 2212 530 
Q 2431 669 2431 922 
Q 2431 1156 2273 1281 
Q 2116 1406 1581 1522 
L 1381 1569 
Q 847 1681 609 1914 
Q 372 2147 372 2553 
Q 372 3047 722 3315 
Q 1072 3584 1716 3584 
Q 2034 3584 2315 3537 
Q 2597 3491 2834 3397 
z
" transform="scale(0.015625)"/>
      </defs>
      <use xlink:href="#DejaVuSans-41"/>
      <use xlink:href="#DejaVuSans-63" x="66.658203"/>
      <use xlink:href="#DejaVuSans-74" x="121.638672"/>
      <use xlink:href="#DejaVuSans-75" x="160.847656"/>
      <use xlink:href="#DejaVuSans-61" x="224.226562"/>
      <use xlink:href="#DejaVuSans-6c" x="285.505859"/>
      <use xlink:href="#DejaVuSans-20" x="313.289062"/>
      <use xlink:href="#DejaVuSans-50" x="345.076172"/>
      <use xlink:href="#DejaVuSans-72" x="403.628906"/>
      <use xlink:href="#DejaVuSans-69" x="444.742188"/>
      <use xlink:href="#DejaVuSans-63" x="472.525391"/>
      <use xlink:href="#DejaVuSans-65" x="527.505859"/>
      <use xlink:href="#DejaVuSans-73" x="589.029297"/>
     </g>
    </g>
    <g id="line2d_20">
     <path d="M 66.6 69.248563 
L 76.6 69.248563 
L 86.6 69.248563 
" style="fill: none; stroke: #008000; stroke-width: 1.5; stroke-linecap: square"/>
    </g>
    <g id="text_20">
     <!-- Predicted Prices -->
     <g transform="translate(94.6 72.748563)scale(0.1 -0.1)">
      <use xlink:href="#DejaVuSans-50"/>
      <use xlink:href="#DejaVuSans-72" x="58.552734"/>
      <use xlink:href="#DejaVuSans-65" x="97.416016"/>
      <use xlink:href="#DejaVuSans-64" x="158.939453"/>
      <use xlink:href="#DejaVuSans-69" x="222.416016"/>
      <use xlink:href="#DejaVuSans-63" x="250.199219"/>
      <use xlink:href="#DejaVuSans-74" x="305.179688"/>
      <use xlink:href="#DejaVuSans-65" x="344.388672"/>
      <use xlink:href="#DejaVuSans-64" x="405.912109"/>
      <use xlink:href="#DejaVuSans-20" x="469.388672"/>
      <use xlink:href="#DejaVuSans-50" x="501.175781"/>
      <use xlink:href="#DejaVuSans-72" x="559.728516"/>
      <use xlink:href="#DejaVuSans-69" x="600.841797"/>
      <use xlink:href="#DejaVuSans-63" x="628.625"/>
      <use xlink:href="#DejaVuSans-65" x="683.605469"/>
      <use xlink:href="#DejaVuSans-73" x="745.128906"/>
     </g>
    </g>
    <g id="line2d_21">
     <path d="M 66.6 83.926688 
L 76.6 83.926688 
L 86.6 83.926688 
" style="fill: none; stroke: #0000ff; stroke-width: 1.5; stroke-linecap: square"/>
    </g>
    <g id="text_21">
     <!-- Naive method -->
     <g transform="translate(94.6 87.426688)scale(0.1 -0.1)">
      <defs>
       <path id="DejaVuSans-4e" d="M 628 4666 
L 1478 4666 
L 3547 763 
L 3547 4666 
L 4159 4666 
L 4159 0 
L 3309 0 
L 1241 3903 
L 1241 0 
L 628 0 
L 628 4666 
z
" transform="scale(0.015625)"/>
       <path id="DejaVuSans-76" d="M 191 3500 
L 800 3500 
L 1894 563 
L 2988 3500 
L 3597 3500 
L 2284 0 
L 1503 0 
L 191 3500 
z
" transform="scale(0.015625)"/>
       <path id="DejaVuSans-68" d="M 3513 2113 
L 3513 0 
L 2938 0 
L 2938 2094 
Q 2938 2591 2744 2837 
Q 2550 3084 2163 3084 
Q 1697 3084 1428 2787 
Q 1159 2491 1159 1978 
L 1159 0 
L 581 0 
L 581 4863 
L 1159 4863 
L 1159 2956 
Q 1366 3272 1645 3428 
Q 1925 3584 2291 3584 
Q 2894 3584 3203 3211 
Q 3513 2838 3513 2113 
z
" transform="scale(0.015625)"/>
      </defs>
      <use xlink:href="#DejaVuSans-4e"/>
      <use xlink:href="#DejaVuSans-61" x="74.804688"/>
      <use xlink:href="#DejaVuSans-69" x="136.083984"/>
      <use xlink:href="#DejaVuSans-76" x="163.867188"/>
      <use xlink:href="#DejaVuSans-65" x="223.046875"/>
      <use xlink:href="#DejaVuSans-20" x="284.570312"/>
      <use xlink:href="#DejaVuSans-6d" x="316.357422"/>
      <use xlink:href="#DejaVuSans-65" x="413.769531"/>
      <use xlink:href="#DejaVuSans-74" x="475.292969"/>
      <use xlink:href="#DejaVuSans-68" x="514.501953"/>
      <use xlink:href="#DejaVuSans-6f" x="577.880859"/>
      <use xlink:href="#DejaVuSans-64" x="639.0625"/>
     </g>
    </g>
   </g>
  </g>
 </g>
 <defs>
  <clipPath id="pe931dac170">
   <rect x="57.6" y="41.472" width="357.12" height="266.112"/>
  </clipPath>
 </defs>
</svg>
