<?xml version="1.0" encoding="utf-8" standalone="no"?>
<!DOCTYPE svg PUBLIC "-//W3C//DTD SVG 1.1//EN"
  "http://www.w3.org/Graphics/SVG/1.1/DTD/svg11.dtd">
<svg xmlns:xlink="http://www.w3.org/1999/xlink" width="460.8pt" height="345.6pt" viewBox="0 0 460.8 345.6" xmlns="http://www.w3.org/2000/svg" version="1.1">
 <metadata>
  <rdf:RDF xmlns:dc="http://purl.org/dc/elements/1.1/" xmlns:cc="http://creativecommons.org/ns#" xmlns:rdf="http://www.w3.org/1999/02/22-rdf-syntax-ns#">
   <cc:Work>
    <dc:type rdf:resource="http://purl.org/dc/dcmitype/StillImage"/>
    <dc:date>2022-05-27T12:28:11.259674</dc:date>
    <dc:format>image/svg+xml</dc:format>
    <dc:creator>
     <cc:Agent>
      <dc:title>Matplotlib v3.5.1, https://matplotlib.org/</dc:title>
     </cc:Agent>
    </dc:creator>
   </cc:Work>
  </rdf:RDF>
 </metadata>
 <defs>
  <style type="text/css">*{stroke-linejoin: round; stroke-linecap: butt}</style>
 </defs>
 <g id="figure_1">
  <g id="patch_1">
   <path d="M 0 345.6 
L 460.8 345.6 
L 460.8 0 
L 0 0 
z
" style="fill: #ffffff"/>
  </g>
  <g id="axes_1">
   <g id="patch_2">
    <path d="M 57.6 307.584 
L 414.72 307.584 
L 414.72 41.472 
L 57.6 41.472 
z
" style="fill: #ffffff"/>
   </g>
   <g id="matplotlib.axis_1">
    <g id="xtick_1">
     <g id="line2d_1">
      <defs>
       <path id="m2ed8a65f4b" d="M 0 0 
L 0 3.5 
" style="stroke: #000000; stroke-width: 0.8"/>
      </defs>
      <g>
       <use xlink:href="#m2ed8a65f4b" x="73.832727" y="307.584" style="stroke: #000000; stroke-width: 0.8"/>
      </g>
     </g>
     <g id="text_1">
      <!-- 0 -->
      <g transform="translate(70.651477 322.182437)scale(0.1 -0.1)">
       <defs>
        <path id="DejaVuSans-30" d="M 2034 4250 
Q 1547 4250 1301 3770 
Q 1056 3291 1056 2328 
Q 1056 1369 1301 889 
Q 1547 409 2034 409 
Q 2525 409 2770 889 
Q 3016 1369 3016 2328 
Q 3016 3291 2770 3770 
Q 2525 4250 2034 4250 
z
M 2034 4750 
Q 2819 4750 3233 4129 
Q 3647 3509 3647 2328 
Q 3647 1150 3233 529 
Q 2819 -91 2034 -91 
Q 1250 -91 836 529 
Q 422 1150 422 2328 
Q 422 3509 836 4129 
Q 1250 4750 2034 4750 
z
" transform="scale(0.015625)"/>
       </defs>
       <use xlink:href="#DejaVuSans-30"/>
      </g>
     </g>
    </g>
    <g id="xtick_2">
     <g id="line2d_2">
      <g>
       <use xlink:href="#m2ed8a65f4b" x="124.088849" y="307.584" style="stroke: #000000; stroke-width: 0.8"/>
      </g>
     </g>
     <g id="text_2">
      <!-- 100 -->
      <g transform="translate(114.545099 322.182437)scale(0.1 -0.1)">
       <defs>
        <path id="DejaVuSans-31" d="M 794 531 
L 1825 531 
L 1825 4091 
L 703 3866 
L 703 4441 
L 1819 4666 
L 2450 4666 
L 2450 531 
L 3481 531 
L 3481 0 
L 794 0 
L 794 531 
z
" transform="scale(0.015625)"/>
       </defs>
       <use xlink:href="#DejaVuSans-31"/>
       <use xlink:href="#DejaVuSans-30" x="63.623047"/>
       <use xlink:href="#DejaVuSans-30" x="127.246094"/>
      </g>
     </g>
    </g>
    <g id="xtick_3">
     <g id="line2d_3">
      <g>
       <use xlink:href="#m2ed8a65f4b" x="174.34497" y="307.584" style="stroke: #000000; stroke-width: 0.8"/>
      </g>
     </g>
     <g id="text_3">
      <!-- 200 -->
      <g transform="translate(164.80122 322.182437)scale(0.1 -0.1)">
       <defs>
        <path id="DejaVuSans-32" d="M 1228 531 
L 3431 531 
L 3431 0 
L 469 0 
L 469 531 
Q 828 903 1448 1529 
Q 2069 2156 2228 2338 
Q 2531 2678 2651 2914 
Q 2772 3150 2772 3378 
Q 2772 3750 2511 3984 
Q 2250 4219 1831 4219 
Q 1534 4219 1204 4116 
Q 875 4013 500 3803 
L 500 4441 
Q 881 4594 1212 4672 
Q 1544 4750 1819 4750 
Q 2544 4750 2975 4387 
Q 3406 4025 3406 3419 
Q 3406 3131 3298 2873 
Q 3191 2616 2906 2266 
Q 2828 2175 2409 1742 
Q 1991 1309 1228 531 
z
" transform="scale(0.015625)"/>
       </defs>
       <use xlink:href="#DejaVuSans-32"/>
       <use xlink:href="#DejaVuSans-30" x="63.623047"/>
       <use xlink:href="#DejaVuSans-30" x="127.246094"/>
      </g>
     </g>
    </g>
    <g id="xtick_4">
     <g id="line2d_4">
      <g>
       <use xlink:href="#m2ed8a65f4b" x="224.601092" y="307.584" style="stroke: #000000; stroke-width: 0.8"/>
      </g>
     </g>
     <g id="text_4">
      <!-- 300 -->
      <g transform="translate(215.057342 322.182437)scale(0.1 -0.1)">
       <defs>
        <path id="DejaVuSans-33" d="M 2597 2516 
Q 3050 2419 3304 2112 
Q 3559 1806 3559 1356 
Q 3559 666 3084 287 
Q 2609 -91 1734 -91 
Q 1441 -91 1130 -33 
Q 819 25 488 141 
L 488 750 
Q 750 597 1062 519 
Q 1375 441 1716 441 
Q 2309 441 2620 675 
Q 2931 909 2931 1356 
Q 2931 1769 2642 2001 
Q 2353 2234 1838 2234 
L 1294 2234 
L 1294 2753 
L 1863 2753 
Q 2328 2753 2575 2939 
Q 2822 3125 2822 3475 
Q 2822 3834 2567 4026 
Q 2313 4219 1838 4219 
Q 1578 4219 1281 4162 
Q 984 4106 628 3988 
L 628 4550 
Q 988 4650 1302 4700 
Q 1616 4750 1894 4750 
Q 2613 4750 3031 4423 
Q 3450 4097 3450 3541 
Q 3450 3153 3228 2886 
Q 3006 2619 2597 2516 
z
" transform="scale(0.015625)"/>
       </defs>
       <use xlink:href="#DejaVuSans-33"/>
       <use xlink:href="#DejaVuSans-30" x="63.623047"/>
       <use xlink:href="#DejaVuSans-30" x="127.246094"/>
      </g>
     </g>
    </g>
    <g id="xtick_5">
     <g id="line2d_5">
      <g>
       <use xlink:href="#m2ed8a65f4b" x="274.857214" y="307.584" style="stroke: #000000; stroke-width: 0.8"/>
      </g>
     </g>
     <g id="text_5">
      <!-- 400 -->
      <g transform="translate(265.313464 322.182437)scale(0.1 -0.1)">
       <defs>
        <path id="DejaVuSans-34" d="M 2419 4116 
L 825 1625 
L 2419 1625 
L 2419 4116 
z
M 2253 4666 
L 3047 4666 
L 3047 1625 
L 3713 1625 
L 3713 1100 
L 3047 1100 
L 3047 0 
L 2419 0 
L 2419 1100 
L 313 1100 
L 313 1709 
L 2253 4666 
z
" transform="scale(0.015625)"/>
       </defs>
       <use xlink:href="#DejaVuSans-34"/>
       <use xlink:href="#DejaVuSans-30" x="63.623047"/>
       <use xlink:href="#DejaVuSans-30" x="127.246094"/>
      </g>
     </g>
    </g>
    <g id="xtick_6">
     <g id="line2d_6">
      <g>
       <use xlink:href="#m2ed8a65f4b" x="325.113335" y="307.584" style="stroke: #000000; stroke-width: 0.8"/>
      </g>
     </g>
     <g id="text_6">
      <!-- 500 -->
      <g transform="translate(315.569585 322.182437)scale(0.1 -0.1)">
       <defs>
        <path id="DejaVuSans-35" d="M 691 4666 
L 3169 4666 
L 3169 4134 
L 1269 4134 
L 1269 2991 
Q 1406 3038 1543 3061 
Q 1681 3084 1819 3084 
Q 2600 3084 3056 2656 
Q 3513 2228 3513 1497 
Q 3513 744 3044 326 
Q 2575 -91 1722 -91 
Q 1428 -91 1123 -41 
Q 819 9 494 109 
L 494 744 
Q 775 591 1075 516 
Q 1375 441 1709 441 
Q 2250 441 2565 725 
Q 2881 1009 2881 1497 
Q 2881 1984 2565 2268 
Q 2250 2553 1709 2553 
Q 1456 2553 1204 2497 
Q 953 2441 691 2322 
L 691 4666 
z
" transform="scale(0.015625)"/>
       </defs>
       <use xlink:href="#DejaVuSans-35"/>
       <use xlink:href="#DejaVuSans-30" x="63.623047"/>
       <use xlink:href="#DejaVuSans-30" x="127.246094"/>
      </g>
     </g>
    </g>
    <g id="xtick_7">
     <g id="line2d_7">
      <g>
       <use xlink:href="#m2ed8a65f4b" x="375.369457" y="307.584" style="stroke: #000000; stroke-width: 0.8"/>
      </g>
     </g>
     <g id="text_7">
      <!-- 600 -->
      <g transform="translate(365.825707 322.182437)scale(0.1 -0.1)">
       <defs>
        <path id="DejaVuSans-36" d="M 2113 2584 
Q 1688 2584 1439 2293 
Q 1191 2003 1191 1497 
Q 1191 994 1439 701 
Q 1688 409 2113 409 
Q 2538 409 2786 701 
Q 3034 994 3034 1497 
Q 3034 2003 2786 2293 
Q 2538 2584 2113 2584 
z
M 3366 4563 
L 3366 3988 
Q 3128 4100 2886 4159 
Q 2644 4219 2406 4219 
Q 1781 4219 1451 3797 
Q 1122 3375 1075 2522 
Q 1259 2794 1537 2939 
Q 1816 3084 2150 3084 
Q 2853 3084 3261 2657 
Q 3669 2231 3669 1497 
Q 3669 778 3244 343 
Q 2819 -91 2113 -91 
Q 1303 -91 875 529 
Q 447 1150 447 2328 
Q 447 3434 972 4092 
Q 1497 4750 2381 4750 
Q 2619 4750 2861 4703 
Q 3103 4656 3366 4563 
z
" transform="scale(0.015625)"/>
       </defs>
       <use xlink:href="#DejaVuSans-36"/>
       <use xlink:href="#DejaVuSans-30" x="63.623047"/>
       <use xlink:href="#DejaVuSans-30" x="127.246094"/>
      </g>
     </g>
    </g>
    <g id="text_8">
     <!-- Time -->
     <g transform="translate(223.926406 335.860562)scale(0.1 -0.1)">
      <defs>
       <path id="DejaVuSans-54" d="M -19 4666 
L 3928 4666 
L 3928 4134 
L 2272 4134 
L 2272 0 
L 1638 0 
L 1638 4134 
L -19 4134 
L -19 4666 
z
" transform="scale(0.015625)"/>
       <path id="DejaVuSans-69" d="M 603 3500 
L 1178 3500 
L 1178 0 
L 603 0 
L 603 3500 
z
M 603 4863 
L 1178 4863 
L 1178 4134 
L 603 4134 
L 603 4863 
z
" transform="scale(0.015625)"/>
       <path id="DejaVuSans-6d" d="M 3328 2828 
Q 3544 3216 3844 3400 
Q 4144 3584 4550 3584 
Q 5097 3584 5394 3201 
Q 5691 2819 5691 2113 
L 5691 0 
L 5113 0 
L 5113 2094 
Q 5113 2597 4934 2840 
Q 4756 3084 4391 3084 
Q 3944 3084 3684 2787 
Q 3425 2491 3425 1978 
L 3425 0 
L 2847 0 
L 2847 2094 
Q 2847 2600 2669 2842 
Q 2491 3084 2119 3084 
Q 1678 3084 1418 2786 
Q 1159 2488 1159 1978 
L 1159 0 
L 581 0 
L 581 3500 
L 1159 3500 
L 1159 2956 
Q 1356 3278 1631 3431 
Q 1906 3584 2284 3584 
Q 2666 3584 2933 3390 
Q 3200 3197 3328 2828 
z
" transform="scale(0.015625)"/>
       <path id="DejaVuSans-65" d="M 3597 1894 
L 3597 1613 
L 953 1613 
Q 991 1019 1311 708 
Q 1631 397 2203 397 
Q 2534 397 2845 478 
Q 3156 559 3463 722 
L 3463 178 
Q 3153 47 2828 -22 
Q 2503 -91 2169 -91 
Q 1331 -91 842 396 
Q 353 884 353 1716 
Q 353 2575 817 3079 
Q 1281 3584 2069 3584 
Q 2775 3584 3186 3129 
Q 3597 2675 3597 1894 
z
M 3022 2063 
Q 3016 2534 2758 2815 
Q 2500 3097 2075 3097 
Q 1594 3097 1305 2825 
Q 1016 2553 972 2059 
L 3022 2063 
z
" transform="scale(0.015625)"/>
      </defs>
      <use xlink:href="#DejaVuSans-54"/>
      <use xlink:href="#DejaVuSans-69" x="57.958984"/>
      <use xlink:href="#DejaVuSans-6d" x="85.742188"/>
      <use xlink:href="#DejaVuSans-65" x="183.154297"/>
     </g>
    </g>
   </g>
   <g id="matplotlib.axis_2">
    <g id="ytick_1">
     <g id="line2d_8">
      <defs>
       <path id="m1b9a93570f" d="M 0 0 
L -3.5 0 
" style="stroke: #000000; stroke-width: 0.8"/>
      </defs>
      <g>
       <use xlink:href="#m1b9a93570f" x="57.6" y="302.558344" style="stroke: #000000; stroke-width: 0.8"/>
      </g>
     </g>
     <g id="text_9">
      <!-- 4.2 -->
      <g transform="translate(34.696875 306.357562)scale(0.1 -0.1)">
       <defs>
        <path id="DejaVuSans-2e" d="M 684 794 
L 1344 794 
L 1344 0 
L 684 0 
L 684 794 
z
" transform="scale(0.015625)"/>
       </defs>
       <use xlink:href="#DejaVuSans-34"/>
       <use xlink:href="#DejaVuSans-2e" x="63.623047"/>
       <use xlink:href="#DejaVuSans-32" x="95.410156"/>
      </g>
     </g>
    </g>
    <g id="ytick_2">
     <g id="line2d_9">
      <g>
       <use xlink:href="#m1b9a93570f" x="57.6" y="269.99143" style="stroke: #000000; stroke-width: 0.8"/>
      </g>
     </g>
     <g id="text_10">
      <!-- 4.3 -->
      <g transform="translate(34.696875 273.790649)scale(0.1 -0.1)">
       <use xlink:href="#DejaVuSans-34"/>
       <use xlink:href="#DejaVuSans-2e" x="63.623047"/>
       <use xlink:href="#DejaVuSans-33" x="95.410156"/>
      </g>
     </g>
    </g>
    <g id="ytick_3">
     <g id="line2d_10">
      <g>
       <use xlink:href="#m1b9a93570f" x="57.6" y="237.424517" style="stroke: #000000; stroke-width: 0.8"/>
      </g>
     </g>
     <g id="text_11">
      <!-- 4.4 -->
      <g transform="translate(34.696875 241.223735)scale(0.1 -0.1)">
       <use xlink:href="#DejaVuSans-34"/>
       <use xlink:href="#DejaVuSans-2e" x="63.623047"/>
       <use xlink:href="#DejaVuSans-34" x="95.410156"/>
      </g>
     </g>
    </g>
    <g id="ytick_4">
     <g id="line2d_11">
      <g>
       <use xlink:href="#m1b9a93570f" x="57.6" y="204.857603" style="stroke: #000000; stroke-width: 0.8"/>
      </g>
     </g>
     <g id="text_12">
      <!-- 4.5 -->
      <g transform="translate(34.696875 208.656822)scale(0.1 -0.1)">
       <use xlink:href="#DejaVuSans-34"/>
       <use xlink:href="#DejaVuSans-2e" x="63.623047"/>
       <use xlink:href="#DejaVuSans-35" x="95.410156"/>
      </g>
     </g>
    </g>
    <g id="ytick_5">
     <g id="line2d_12">
      <g>
       <use xlink:href="#m1b9a93570f" x="57.6" y="172.290689" style="stroke: #000000; stroke-width: 0.8"/>
      </g>
     </g>
     <g id="text_13">
      <!-- 4.6 -->
      <g transform="translate(34.696875 176.089908)scale(0.1 -0.1)">
       <use xlink:href="#DejaVuSans-34"/>
       <use xlink:href="#DejaVuSans-2e" x="63.623047"/>
       <use xlink:href="#DejaVuSans-36" x="95.410156"/>
      </g>
     </g>
    </g>
    <g id="ytick_6">
     <g id="line2d_13">
      <g>
       <use xlink:href="#m1b9a93570f" x="57.6" y="139.723776" style="stroke: #000000; stroke-width: 0.8"/>
      </g>
     </g>
     <g id="text_14">
      <!-- 4.7 -->
      <g transform="translate(34.696875 143.522995)scale(0.1 -0.1)">
       <defs>
        <path id="DejaVuSans-37" d="M 525 4666 
L 3525 4666 
L 3525 4397 
L 1831 0 
L 1172 0 
L 2766 4134 
L 525 4134 
L 525 4666 
z
" transform="scale(0.015625)"/>
       </defs>
       <use xlink:href="#DejaVuSans-34"/>
       <use xlink:href="#DejaVuSans-2e" x="63.623047"/>
       <use xlink:href="#DejaVuSans-37" x="95.410156"/>
      </g>
     </g>
    </g>
    <g id="ytick_7">
     <g id="line2d_14">
      <g>
       <use xlink:href="#m1b9a93570f" x="57.6" y="107.156862" style="stroke: #000000; stroke-width: 0.8"/>
      </g>
     </g>
     <g id="text_15">
      <!-- 4.8 -->
      <g transform="translate(34.696875 110.956081)scale(0.1 -0.1)">
       <defs>
        <path id="DejaVuSans-38" d="M 2034 2216 
Q 1584 2216 1326 1975 
Q 1069 1734 1069 1313 
Q 1069 891 1326 650 
Q 1584 409 2034 409 
Q 2484 409 2743 651 
Q 3003 894 3003 1313 
Q 3003 1734 2745 1975 
Q 2488 2216 2034 2216 
z
M 1403 2484 
Q 997 2584 770 2862 
Q 544 3141 544 3541 
Q 544 4100 942 4425 
Q 1341 4750 2034 4750 
Q 2731 4750 3128 4425 
Q 3525 4100 3525 3541 
Q 3525 3141 3298 2862 
Q 3072 2584 2669 2484 
Q 3125 2378 3379 2068 
Q 3634 1759 3634 1313 
Q 3634 634 3220 271 
Q 2806 -91 2034 -91 
Q 1263 -91 848 271 
Q 434 634 434 1313 
Q 434 1759 690 2068 
Q 947 2378 1403 2484 
z
M 1172 3481 
Q 1172 3119 1398 2916 
Q 1625 2713 2034 2713 
Q 2441 2713 2670 2916 
Q 2900 3119 2900 3481 
Q 2900 3844 2670 4047 
Q 2441 4250 2034 4250 
Q 1625 4250 1398 4047 
Q 1172 3844 1172 3481 
z
" transform="scale(0.015625)"/>
       </defs>
       <use xlink:href="#DejaVuSans-34"/>
       <use xlink:href="#DejaVuSans-2e" x="63.623047"/>
       <use xlink:href="#DejaVuSans-38" x="95.410156"/>
      </g>
     </g>
    </g>
    <g id="ytick_8">
     <g id="line2d_15">
      <g>
       <use xlink:href="#m1b9a93570f" x="57.6" y="74.589949" style="stroke: #000000; stroke-width: 0.8"/>
      </g>
     </g>
     <g id="text_16">
      <!-- 4.9 -->
      <g transform="translate(34.696875 78.389167)scale(0.1 -0.1)">
       <defs>
        <path id="DejaVuSans-39" d="M 703 97 
L 703 672 
Q 941 559 1184 500 
Q 1428 441 1663 441 
Q 2288 441 2617 861 
Q 2947 1281 2994 2138 
Q 2813 1869 2534 1725 
Q 2256 1581 1919 1581 
Q 1219 1581 811 2004 
Q 403 2428 403 3163 
Q 403 3881 828 4315 
Q 1253 4750 1959 4750 
Q 2769 4750 3195 4129 
Q 3622 3509 3622 2328 
Q 3622 1225 3098 567 
Q 2575 -91 1691 -91 
Q 1453 -91 1209 -44 
Q 966 3 703 97 
z
M 1959 2075 
Q 2384 2075 2632 2365 
Q 2881 2656 2881 3163 
Q 2881 3666 2632 3958 
Q 2384 4250 1959 4250 
Q 1534 4250 1286 3958 
Q 1038 3666 1038 3163 
Q 1038 2656 1286 2365 
Q 1534 2075 1959 2075 
z
" transform="scale(0.015625)"/>
       </defs>
       <use xlink:href="#DejaVuSans-34"/>
       <use xlink:href="#DejaVuSans-2e" x="63.623047"/>
       <use xlink:href="#DejaVuSans-39" x="95.410156"/>
      </g>
     </g>
    </g>
    <g id="ytick_9">
     <g id="line2d_16">
      <g>
       <use xlink:href="#m1b9a93570f" x="57.6" y="42.023035" style="stroke: #000000; stroke-width: 0.8"/>
      </g>
     </g>
     <g id="text_17">
      <!-- 5.0 -->
      <g transform="translate(34.696875 45.822254)scale(0.1 -0.1)">
       <use xlink:href="#DejaVuSans-35"/>
       <use xlink:href="#DejaVuSans-2e" x="63.623047"/>
       <use xlink:href="#DejaVuSans-30" x="95.410156"/>
      </g>
     </g>
    </g>
    <g id="text_18">
     <!-- Price -->
     <g transform="translate(28.617188 186.725656)rotate(-90)scale(0.1 -0.1)">
      <defs>
       <path id="DejaVuSans-50" d="M 1259 4147 
L 1259 2394 
L 2053 2394 
Q 2494 2394 2734 2622 
Q 2975 2850 2975 3272 
Q 2975 3691 2734 3919 
Q 2494 4147 2053 4147 
L 1259 4147 
z
M 628 4666 
L 2053 4666 
Q 2838 4666 3239 4311 
Q 3641 3956 3641 3272 
Q 3641 2581 3239 2228 
Q 2838 1875 2053 1875 
L 1259 1875 
L 1259 0 
L 628 0 
L 628 4666 
z
" transform="scale(0.015625)"/>
       <path id="DejaVuSans-72" d="M 2631 2963 
Q 2534 3019 2420 3045 
Q 2306 3072 2169 3072 
Q 1681 3072 1420 2755 
Q 1159 2438 1159 1844 
L 1159 0 
L 581 0 
L 581 3500 
L 1159 3500 
L 1159 2956 
Q 1341 3275 1631 3429 
Q 1922 3584 2338 3584 
Q 2397 3584 2469 3576 
Q 2541 3569 2628 3553 
L 2631 2963 
z
" transform="scale(0.015625)"/>
       <path id="DejaVuSans-63" d="M 3122 3366 
L 3122 2828 
Q 2878 2963 2633 3030 
Q 2388 3097 2138 3097 
Q 1578 3097 1268 2742 
Q 959 2388 959 1747 
Q 959 1106 1268 751 
Q 1578 397 2138 397 
Q 2388 397 2633 464 
Q 2878 531 3122 666 
L 3122 134 
Q 2881 22 2623 -34 
Q 2366 -91 2075 -91 
Q 1284 -91 818 406 
Q 353 903 353 1747 
Q 353 2603 823 3093 
Q 1294 3584 2113 3584 
Q 2378 3584 2631 3529 
Q 2884 3475 3122 3366 
z
" transform="scale(0.015625)"/>
      </defs>
      <use xlink:href="#DejaVuSans-50"/>
      <use xlink:href="#DejaVuSans-72" x="58.552734"/>
      <use xlink:href="#DejaVuSans-69" x="99.666016"/>
      <use xlink:href="#DejaVuSans-63" x="127.449219"/>
      <use xlink:href="#DejaVuSans-65" x="182.429688"/>
     </g>
    </g>
   </g>
   <g id="line2d_17">
    <path d="M 73.832727 276.341999 
L 74.335288 277.599081 
L 74.83785 277.937771 
L 75.340411 277.618648 
L 75.842972 273.704069 
L 76.345533 273.508712 
L 76.848095 275.820842 
L 77.350656 274.681005 
L 78.355778 284.548826 
L 79.360901 281.878284 
L 79.863462 282.073796 
L 80.366023 284.434842 
L 80.868584 278.751963 
L 81.371146 277.416614 
L 81.873707 283.506667 
L 82.376268 283.708545 
L 82.878829 283.106171 
L 83.38139 285.252295 
L 83.883952 279.500932 
L 84.889074 290.052655 
L 85.391635 288.756439 
L 85.894196 292.527685 
L 86.396758 287.574363 
L 86.899319 291.9969 
L 87.40188 287.805592 
L 87.904441 290.801624 
L 88.407003 291.974072 
L 88.909564 295.488 
L 89.412125 293.179131 
L 89.914686 292.234651 
L 90.417247 289.857298 
L 90.919809 288.320071 
L 91.42237 292.625363 
L 92.427492 288.030298 
L 92.930053 284.880994 
L 93.432615 277.59582 
L 93.935176 279.435865 
L 94.437737 274.908973 
L 94.940298 272.336264 
L 95.44286 271.391784 
L 95.945421 270.90976 
L 96.447982 278.458773 
L 96.950543 287.740369 
L 97.955666 279.36412 
L 98.960788 284.386081 
L 99.96591 288.085582 
L 100.468472 287.740369 
L 100.971033 283.14841 
L 101.473594 280.953525 
L 101.976155 279.956867 
L 102.478717 277.514448 
L 103.483839 268.004884 
L 103.9864 268.232851 
L 105.494084 259.582979 
L 105.996645 265.249708 
L 106.499206 267.630321 
L 107.001768 271.359172 
L 108.00689 265.855499 
L 108.509451 260.976872 
L 109.012012 268.84827 
L 109.514574 261.615274 
L 110.017135 245.37415 
L 110.519696 247.556146 
L 111.022257 225.785104 
L 112.02738 207.713718 
L 112.529941 186.652667 
L 113.032502 204.649202 
L 113.535063 172.33296 
L 114.037625 170.665599 
L 114.540186 184.372993 
L 115.042747 201.200341 
L 115.545308 194.234291 
L 116.047869 191.472593 
L 116.550431 187.610192 
L 117.052992 173.71707 
L 117.555553 183.851991 
L 118.058114 177.195281 
L 118.560675 185.154573 
L 119.063237 197.510468 
L 119.565798 195.478328 
L 120.068359 190.098267 
L 120.57092 188.919296 
L 121.073482 191.700561 
L 121.576043 198.76755 
L 122.078604 192.74272 
L 122.581165 195.315428 
L 123.083726 200.382889 
L 123.586288 197.855681 
L 124.088849 194.559937 
L 124.59141 188.932341 
L 125.093971 191.53766 
L 125.596533 192.873009 
L 126.099094 193.361555 
L 126.601655 189.22553 
L 127.104216 189.811755 
L 127.606777 192.078384 
L 128.109339 183.200545 
L 128.6119 189.518565 
L 129.114461 192.938076 
L 129.617022 189.111547 
L 130.119583 188.789162 
L 130.622145 189.788927 
L 131.124706 186.717889 
L 131.627267 184.633571 
L 132.129828 183.461123 
L 132.63239 185.415152 
L 133.134951 183.721702 
L 133.637512 185.786453 
L 134.140073 190.795213 
L 134.642634 193.426622 
L 135.145196 200.688967 
L 135.647757 200.037676 
L 136.150318 204.792536 
L 136.652879 224.6257 
L 137.15544 228.465429 
L 137.658002 219.38245 
L 138.160563 226.758779 
L 138.663124 236.896961 
L 139.165685 243.136715 
L 140.170808 226.540595 
L 140.673369 227.068274 
L 141.17593 230.175184 
L 142.683614 214.100066 
L 143.688736 233.018255 
L 144.191297 223.192829 
L 144.693859 217.151537 
L 145.19642 221.85748 
L 145.698981 215.744755 
L 146.201542 225.472503 
L 146.704104 223.101517 
L 147.206665 219.25216 
L 147.709226 221.082422 
L 148.211787 216.451485 
L 148.714348 220.072874 
L 149.21691 222.837833 
L 149.719471 213.129652 
L 150.222032 217.151537 
L 150.724593 217.438205 
L 151.227155 216.812847 
L 151.729716 213.53667 
L 152.232277 213.481386 
L 152.734838 216.77713 
L 153.237399 215.897716 
L 153.739961 208.306464 
L 154.242522 214.002388 
L 154.745083 212.804006 
L 155.247644 212.15256 
L 155.750205 212.956968 
L 156.755328 227.156169 
L 157.257889 230.806909 
L 157.76045 236.089292 
L 158.263012 236.300954 
L 158.765573 240.629074 
L 159.268134 233.94643 
L 159.770695 236.590727 
L 160.273256 235.926392 
L 160.775818 230.364018 
L 161.78094 238.723962 
L 162.283501 237.85107 
L 162.786062 233.158327 
L 163.288624 234.33062 
L 163.791185 238.150782 
L 164.293746 235.887414 
L 164.796307 238.075932 
L 165.298869 238.385272 
L 165.80143 238.987801 
L 166.303991 238.834684 
L 166.806552 245.266688 
L 167.309113 237.77622 
L 167.811675 244.654375 
L 168.314236 234.721488 
L 168.816797 240.222055 
L 169.319358 238.714178 
L 169.82192 234.35997 
L 170.324481 235.438001 
L 170.827042 243.123671 
L 171.329603 238.841207 
L 171.832164 241.889417 
L 173.339848 219.284772 
L 173.842409 227.752177 
L 174.34497 222.378637 
L 174.847532 225.928437 
L 175.350093 220.978221 
L 175.852654 223.127606 
L 176.355215 223.876731 
L 176.857777 220.978221 
L 177.360338 222.736894 
L 177.862899 220.890327 
L 178.36546 221.108511 
L 178.868021 208.032841 
L 179.370583 210.586138 
L 179.873144 201.164469 
L 180.375705 189.622765 
L 180.878266 188.28105 
L 181.380827 177.042164 
L 181.883389 195.963613 
L 182.38595 195.087461 
L 182.888511 212.543428 
L 183.391072 207.879879 
L 183.893634 207.375028 
L 184.396195 209.0295 
L 184.898756 211.826914 
L 185.401317 210.687077 
L 185.903878 217.005098 
L 186.40644 219.613678 
L 186.909001 207.684368 
L 187.411562 200.988679 
L 187.914123 191.895917 
L 188.416684 191.146948 
L 188.919246 182.353897 
L 189.421807 185.372757 
L 189.924368 182.74461 
L 190.426929 181.594989 
L 190.929491 183.702135 
L 191.432052 179.93089 
L 191.934613 177.237675 
L 192.437174 162.696523 
L 192.939735 165.158509 
L 193.442297 170.085897 
L 193.944858 172.36231 
L 194.447419 191.9644 
L 194.94998 193.801184 
L 195.452542 197.569168 
L 196.457664 211.924592 
L 196.960225 206.192796 
L 197.462786 212.380527 
L 197.965348 209.54724 
L 198.467909 210.963961 
L 198.97047 215.930328 
L 199.473031 209.218334 
L 199.975592 216.194167 
L 200.478154 216.646841 
L 200.980715 216.529596 
L 201.483276 214.937085 
L 201.985837 218.014645 
L 202.488399 217.949578 
L 203.493521 209.47239 
L 203.996082 212.035315 
L 204.498643 223.371879 
L 205.001205 214.178178 
L 205.503766 215.56881 
L 206.006327 215.800038 
L 206.508888 213.61152 
L 207.514011 229.032086 
L 208.016572 228.892014 
L 208.519133 223.925492 
L 209.021694 226.784868 
L 209.524256 226.341978 
L 210.529378 226.644795 
L 211.031939 212.246977 
L 212.037062 202.936186 
L 212.539623 205.258099 
L 213.042184 206.030051 
L 213.544745 205.01072 
L 214.047307 208.309725 
L 215.052429 179.159093 
L 215.55499 194.403558 
L 216.057551 186.411655 
L 216.560113 187.597147 
L 217.062674 195.354561 
L 218.570357 201.539031 
L 219.072919 197.530035 
L 219.57548 198.595022 
L 220.078041 193.068365 
L 220.580602 192.938076 
L 221.083164 193.781617 
L 221.585725 195.240578 
L 222.088286 194.221247 
L 222.590847 194.696748 
L 223.093408 195.543395 
L 223.59597 192.521274 
L 224.098531 192.377941 
L 224.601092 191.993595 
L 225.103653 189.853994 
L 225.606214 193.035754 
L 226.108776 199.907387 
L 226.611337 202.297784 
L 227.113898 211.416635 
L 227.616459 211.012723 
L 228.119021 206.258019 
L 228.621582 210.491721 
L 229.124143 213.715876 
L 229.626704 214.595134 
L 230.129265 207.85379 
L 230.631827 205.802084 
L 231.134388 206.844243 
L 231.636949 211.110401 
L 232.13951 207.332633 
L 232.642071 208.573565 
L 233.144633 208.733049 
L 233.647194 210.367954 
L 234.652316 202.55184 
L 235.154878 203.600521 
L 235.657439 199.334208 
L 236.16 198.982473 
L 236.662561 195.934263 
L 237.165122 194.208202 
L 237.667684 190.65188 
L 238.170245 185.366235 
L 238.672806 177.589254 
L 239.175367 173.896276 
L 239.677929 183.347139 
L 240.18049 180.754864 
L 240.683051 178.921342 
L 241.185612 179.429299 
L 241.688173 176.332173 
L 242.190735 175.351975 
L 242.693296 173.531497 
L 243.195857 166.243062 
L 243.698418 165.682927 
L 244.200979 175.254297 
L 244.703541 166.402546 
L 245.206102 164.448518 
L 245.708663 162.045077 
L 246.211224 162.650867 
L 246.713786 152.327112 
L 247.216347 155.030265 
L 247.718908 163.432448 
L 248.221469 176.758913 
L 248.72403 172.486077 
L 249.226592 176.127033 
L 249.729153 176.784846 
L 250.231714 182.008685 
L 250.734275 190.743036 
L 251.236836 194.882321 
L 251.739398 195.221011 
L 252.241959 184.796316 
L 252.74452 188.704373 
L 253.247081 188.675179 
L 253.749643 191.788456 
L 254.252204 188.750029 
L 254.754765 188.574084 
L 255.257326 187.124907 
L 255.759887 184.451104 
L 256.262449 188.359161 
L 256.76501 186.978312 
L 257.267571 182.806571 
L 257.770132 181.376805 
L 258.775255 185.98507 
L 259.277816 191.83085 
L 259.780377 187.704609 
L 260.282938 181.012182 
L 260.7855 182.549254 
L 261.288061 188.245177 
L 261.790622 186.020942 
L 262.293183 192.34533 
L 262.795744 188.088955 
L 263.298306 197.790614 
L 263.800867 196.820044 
L 264.303428 196.168753 
L 264.805989 198.272637 
L 265.308551 198.311615 
L 265.811112 206.854026 
L 266.313673 207.612778 
L 266.816234 212.250238 
L 267.318795 212.054882 
L 267.821357 205.284188 
L 268.826479 210.941134 
L 269.32904 213.357619 
L 269.831601 219.317383 
L 270.334163 220.619965 
L 270.836724 217.894139 
L 271.339285 220.112007 
L 271.841846 216.321195 
L 272.344408 218.600869 
L 272.846969 214.92078 
L 273.34953 215.868522 
L 273.852091 206.124468 
L 274.354652 199.099718 
L 274.857214 196.748455 
L 275.359775 197.002511 
L 275.862336 186.499705 
L 276.364897 188.544889 
L 276.867458 196.347804 
L 277.37002 200.949546 
L 277.872581 196.061291 
L 278.375142 199.314641 
L 278.877703 201.389175 
L 279.380265 204.789275 
L 279.882826 199.191029 
L 280.385387 198.067342 
L 280.887948 200.301516 
L 281.390509 201.747432 
L 281.893071 204.955281 
L 282.395632 200.734623 
L 282.898193 194.292836 
L 283.400754 192.866487 
L 284.405877 188.499234 
L 284.908438 179.8006 
L 285.410999 184.959217 
L 285.91356 179.976545 
L 286.416122 177.788027 
L 286.918683 174.765751 
L 287.421244 175.319364 
L 288.426366 184.718205 
L 289.431489 174.993718 
L 289.93405 173.629175 
L 290.436611 174.928651 
L 290.939173 182.705632 
L 291.441734 183.851991 
L 292.949417 191.518249 
L 293.451979 190.21225 
L 293.95454 181.865351 
L 294.457101 184.451104 
L 294.959662 180.569136 
L 295.462223 179.660528 
L 296.467346 183.995169 
L 296.969907 186.913245 
L 297.472468 184.923345 
L 297.97503 186.978312 
L 298.477591 178.732352 
L 298.980152 180.530158 
L 299.482713 178.38714 
L 299.985274 181.513617 
L 300.487836 181.331305 
L 300.990397 181.321522 
L 301.492958 180.960004 
L 301.995519 186.607166 
L 302.49808 198.034887 
L 303.000642 203.489799 
L 303.503203 201.317586 
L 304.005764 202.620323 
L 304.508325 197.917642 
L 305.010887 201.262147 
L 305.513448 200.526222 
L 306.016009 191.397743 
L 306.51857 192.189107 
L 307.021131 189.629287 
L 307.523693 189.111547 
L 308.026254 184.304665 
L 308.528815 181.520139 
L 309.031376 177.045425 
L 309.533938 171.00755 
L 310.036499 166.754281 
L 310.53906 166.474291 
L 311.041621 169.333666 
L 311.544182 170.838282 
L 312.046744 173.114695 
L 312.549305 161.221257 
L 313.051866 162.484861 
L 314.056988 179.963501 
L 315.062111 171.515662 
L 315.564672 190.267689 
L 316.067233 177.257087 
L 316.569795 171.681669 
L 317.072356 178.126717 
L 317.574917 177.905272 
L 318.077478 181.060943 
L 318.580039 182.190997 
L 319.082601 184.975522 
L 319.585162 177.589254 
L 320.087723 178.38714 
L 320.590284 178.458885 
L 321.092845 171.737108 
L 321.595407 173.98417 
L 322.097968 169.294533 
L 322.600529 170.206403 
L 323.10309 165.989006 
L 323.605652 165.875022 
L 324.108213 169.949085 
L 324.610774 167.464272 
L 325.113335 171.606818 
L 325.615896 179.032064 
L 326.118458 173.153673 
L 326.621019 173.078823 
L 327.12358 175.905588 
L 327.626141 176.296456 
L 328.128703 170.395237 
L 328.631264 161.911681 
L 329.133825 159.856714 
L 329.636386 158.514843 
L 331.14407 150.646707 
L 332.149192 138.470017 
L 332.651753 138.857469 
L 333.154315 147.360746 
L 333.656876 147.279373 
L 334.159437 138.798924 
L 335.16456 155.030265 
L 335.667121 165.875022 
L 336.169682 173.818009 
L 336.672243 173.560847 
L 337.174804 175.710231 
L 337.677366 179.35771 
L 338.179927 169.994741 
L 338.682488 171.645796 
L 339.185049 167.829051 
L 339.68761 160.423371 
L 340.190172 163.57252 
L 340.692733 165.953134 
L 341.195294 163.02543 
L 341.697855 162.960207 
L 342.200417 163.885121 
L 342.702978 165.888067 
L 343.205539 162.71609 
L 343.7081 164.015411 
L 344.210661 165.995528 
L 344.713223 172.632672 
L 345.215784 173.98417 
L 345.718345 174.033087 
L 346.220906 175.400892 
L 346.723467 176.110727 
L 347.226029 181.02181 
L 347.72859 184.587916 
L 348.231151 182.158541 
L 348.733712 187.743742 
L 349.236274 190.909197 
L 349.738835 192.260696 
L 350.241396 193.071626 
L 350.743957 198.083648 
L 351.246518 192.645041 
L 351.74908 192.706847 
L 352.251641 197.123017 
L 352.754202 195.022394 
L 353.256763 198.139087 
L 353.759325 196.624688 
L 354.261886 196.022158 
L 354.764447 184.340382 
L 355.267008 179.748578 
L 355.769569 178.673808 
L 356.272131 186.724411 
L 356.774692 178.458885 
L 357.277253 179.194809 
L 357.779814 182.813093 
L 358.282375 192.67113 
L 358.784937 192.814309 
L 359.287498 186.750345 
L 359.790059 194.051824 
L 360.29262 196.670343 
L 360.795182 207.316328 
L 361.297743 204.391885 
L 361.800304 183.321051 
L 362.302865 188.316922 
L 362.805426 207.010249 
L 363.307988 205.052959 
L 363.810549 198.099954 
L 364.31311 197.057795 
L 364.815671 190.801736 
L 365.318232 190.251384 
L 366.323355 165.406043 
L 366.825916 139.841083 
L 367.328477 144.602309 
L 367.831039 132.23337 
L 368.3336 126.208539 
L 368.836161 103.476866 
L 369.338722 64.878475 
L 369.841283 53.568 
L 370.846406 119.971891 
L 371.348967 116.125796 
L 371.851528 116.747892 
L 372.35409 132.249675 
L 372.856651 139.619638 
L 373.359212 153.890428 
L 373.861773 148.458188 
L 374.364334 136.616928 
L 375.369457 148.393121 
L 375.872018 135.148184 
L 376.374579 118.920104 
L 376.87714 144.051957 
L 377.379702 142.651542 
L 377.882263 154.57433 
L 378.384824 159.175917 
L 378.887385 160.426632 
L 379.389947 159.719902 
L 379.892508 167.145148 
L 380.395069 163.035213 
L 380.89763 154.704619 
L 381.400191 161.712909 
L 381.902753 160.749017 
L 382.405314 153.141303 
L 382.907875 161.74552 
L 383.410436 160.856478 
L 383.912997 160.293082 
L 384.415559 163.722376 
L 384.91812 165.852194 
L 385.420681 158.964256 
L 385.923242 160.446044 
L 386.425804 160.674011 
L 386.928365 159.003389 
L 387.430926 159.488674 
L 387.933487 134.552177 
L 388.436048 137.945599 
L 389.441171 148.533194 
L 389.943732 143.742462 
L 390.446293 143.306094 
L 390.948854 157.739785 
L 391.451416 145.426284 
L 391.953977 143.615589 
L 392.456538 143.094432 
L 392.959099 147.18154 
L 393.461661 149.135568 
L 393.964222 152.34994 
L 394.466783 147.347701 
L 394.969344 154.404908 
L 395.974467 159.149984 
L 396.477028 158.156586 
L 397.984712 174.384666 
L 398.487273 173.368596 
L 398.487273 173.368596 
" clip-path="url(#pfb6234ab6b)" style="fill: none; stroke: #000000; stroke-width: 1.5; stroke-linecap: square"/>
   </g>
   <g id="line2d_18">
    <path d="M 73.832727 277.599081 
L 74.335288 277.937771 
L 74.83785 277.618648 
L 75.340411 273.704069 
L 75.842972 273.508712 
L 76.345533 275.820842 
L 76.848095 274.681005 
L 77.853217 284.548826 
L 78.858339 281.878284 
L 79.360901 282.073796 
L 79.863462 284.434842 
L 80.366023 278.751963 
L 80.868584 277.416614 
L 81.371146 283.506667 
L 81.873707 283.708545 
L 82.376268 283.106171 
L 82.878829 285.252295 
L 83.38139 279.500932 
L 84.386513 290.052655 
L 84.889074 288.756439 
L 85.391635 292.527685 
L 85.894196 287.574363 
L 86.396758 291.9969 
L 86.899319 287.805592 
L 87.40188 290.801624 
L 87.904441 291.974072 
L 88.407003 295.488 
L 88.909564 293.179131 
L 89.412125 292.234651 
L 89.914686 289.857298 
L 90.417247 288.320071 
L 90.919809 292.625363 
L 91.924931 288.030298 
L 92.427492 284.880994 
L 92.930053 277.59582 
L 93.432615 279.435865 
L 93.935176 274.908973 
L 94.437737 272.336264 
L 94.940298 271.391784 
L 95.44286 270.90976 
L 95.945421 278.458773 
L 96.447982 287.740369 
L 97.453104 279.36412 
L 98.458227 284.386081 
L 99.463349 288.085582 
L 99.96591 287.740369 
L 100.468472 283.14841 
L 100.971033 280.953525 
L 101.473594 279.956867 
L 101.976155 277.514448 
L 102.981278 268.004884 
L 103.483839 268.232851 
L 104.991523 259.582979 
L 105.494084 265.249708 
L 105.996645 267.630321 
L 106.499206 271.359172 
L 107.504329 265.855499 
L 108.00689 260.976872 
L 108.509451 268.84827 
L 109.012012 261.615274 
L 109.514574 245.37415 
L 110.017135 247.556146 
L 110.519696 225.785104 
L 111.524818 207.713718 
L 112.02738 186.652667 
L 112.529941 204.649202 
L 113.032502 172.33296 
L 113.535063 170.665599 
L 114.037625 184.372993 
L 114.540186 201.200341 
L 115.042747 194.234291 
L 115.545308 191.472593 
L 116.047869 187.610192 
L 116.550431 173.71707 
L 117.052992 183.851991 
L 117.555553 177.195281 
L 118.058114 185.154573 
L 118.560675 197.510468 
L 119.063237 195.478328 
L 119.565798 190.098267 
L 120.068359 188.919296 
L 120.57092 191.700561 
L 121.073482 198.76755 
L 121.576043 192.74272 
L 122.078604 195.315428 
L 122.581165 200.382889 
L 123.083726 197.855681 
L 123.586288 194.559937 
L 124.088849 188.932341 
L 124.59141 191.53766 
L 125.093971 192.873009 
L 125.596533 193.361555 
L 126.099094 189.22553 
L 126.601655 189.811755 
L 127.104216 192.078384 
L 127.606777 183.200545 
L 128.109339 189.518565 
L 128.6119 192.938076 
L 129.114461 189.111547 
L 129.617022 188.789162 
L 130.119583 189.788927 
L 130.622145 186.717889 
L 131.124706 184.633571 
L 131.627267 183.461123 
L 132.129828 185.415152 
L 132.63239 183.721702 
L 133.134951 185.786453 
L 133.637512 190.795213 
L 134.140073 193.426622 
L 134.642634 200.688967 
L 135.145196 200.037676 
L 135.647757 204.792536 
L 136.150318 224.6257 
L 136.652879 228.465429 
L 137.15544 219.38245 
L 137.658002 226.758779 
L 138.160563 236.896961 
L 138.663124 243.136715 
L 139.668247 226.540595 
L 140.170808 227.068274 
L 140.673369 230.175184 
L 142.181053 214.100066 
L 143.186175 233.018255 
L 143.688736 223.192829 
L 144.191297 217.151537 
L 144.693859 221.85748 
L 145.19642 215.744755 
L 145.698981 225.472503 
L 146.201542 223.101517 
L 146.704104 219.25216 
L 147.206665 221.082422 
L 147.709226 216.451485 
L 148.211787 220.072874 
L 148.714348 222.837833 
L 149.21691 213.129652 
L 149.719471 217.151537 
L 150.222032 217.438205 
L 150.724593 216.812847 
L 151.227155 213.53667 
L 151.729716 213.481386 
L 152.232277 216.77713 
L 152.734838 215.897716 
L 153.237399 208.306464 
L 153.739961 214.002388 
L 154.242522 212.804006 
L 154.745083 212.15256 
L 155.247644 212.956968 
L 156.252767 227.156169 
L 156.755328 230.806909 
L 157.257889 236.089292 
L 157.76045 236.300954 
L 158.263012 240.629074 
L 158.765573 233.94643 
L 159.268134 236.590727 
L 159.770695 235.926392 
L 160.273256 230.364018 
L 161.278379 238.723962 
L 161.78094 237.85107 
L 162.283501 233.158327 
L 162.786062 234.33062 
L 163.288624 238.150782 
L 163.791185 235.887414 
L 164.293746 238.075932 
L 164.796307 238.385272 
L 165.298869 238.987801 
L 165.80143 238.834684 
L 166.303991 245.266688 
L 166.806552 237.77622 
L 167.309113 244.654375 
L 167.811675 234.721488 
L 168.314236 240.222055 
L 168.816797 238.714178 
L 169.319358 234.35997 
L 169.82192 235.438001 
L 170.324481 243.123671 
L 170.827042 238.841207 
L 171.329603 241.889417 
L 172.837287 219.284772 
L 173.339848 227.752177 
L 173.842409 222.378637 
L 174.34497 225.928437 
L 174.847532 220.978221 
L 175.350093 223.127606 
L 175.852654 223.876731 
L 176.355215 220.978221 
L 176.857777 222.736894 
L 177.360338 220.890327 
L 177.862899 221.108511 
L 178.36546 208.032841 
L 178.868021 210.586138 
L 179.370583 201.164469 
L 179.873144 189.622765 
L 180.375705 188.28105 
L 180.878266 177.042164 
L 181.380827 195.963613 
L 181.883389 195.087461 
L 182.38595 212.543428 
L 182.888511 207.879879 
L 183.391072 207.375028 
L 183.893634 209.0295 
L 184.396195 211.826914 
L 184.898756 210.687077 
L 185.401317 217.005098 
L 185.903878 219.613678 
L 186.40644 207.684368 
L 186.909001 200.988679 
L 187.411562 191.895917 
L 187.914123 191.146948 
L 188.416684 182.353897 
L 188.919246 185.372757 
L 189.421807 182.74461 
L 189.924368 181.594989 
L 190.426929 183.702135 
L 190.929491 179.93089 
L 191.432052 177.237675 
L 191.934613 162.696523 
L 192.437174 165.158509 
L 192.939735 170.085897 
L 193.442297 172.36231 
L 193.944858 191.9644 
L 194.447419 193.801184 
L 194.94998 197.569168 
L 195.955103 211.924592 
L 196.457664 206.192796 
L 196.960225 212.380527 
L 197.462786 209.54724 
L 197.965348 210.963961 
L 198.467909 215.930328 
L 198.97047 209.218334 
L 199.473031 216.194167 
L 199.975592 216.646841 
L 200.478154 216.529596 
L 200.980715 214.937085 
L 201.483276 218.014645 
L 201.985837 217.949578 
L 202.99096 209.47239 
L 203.493521 212.035315 
L 203.996082 223.371879 
L 204.498643 214.178178 
L 205.001205 215.56881 
L 205.503766 215.800038 
L 206.006327 213.61152 
L 207.011449 229.032086 
L 207.514011 228.892014 
L 208.016572 223.925492 
L 208.519133 226.784868 
L 209.021694 226.341978 
L 210.026817 226.644795 
L 210.529378 212.246977 
L 211.5345 202.936186 
L 212.037062 205.258099 
L 212.539623 206.030051 
L 213.042184 205.01072 
L 213.544745 208.309725 
L 214.549868 179.159093 
L 215.052429 194.403558 
L 215.55499 186.411655 
L 216.057551 187.597147 
L 216.560113 195.354561 
L 218.067796 201.539031 
L 218.570357 197.530035 
L 219.072919 198.595022 
L 219.57548 193.068365 
L 220.078041 192.938076 
L 220.580602 193.781617 
L 221.083164 195.240578 
L 221.585725 194.221247 
L 222.088286 194.696748 
L 222.590847 195.543395 
L 223.093408 192.521274 
L 223.59597 192.377941 
L 224.098531 191.993595 
L 224.601092 189.853994 
L 225.103653 193.035754 
L 225.606214 199.907387 
L 226.108776 202.297784 
L 226.611337 211.416635 
L 227.113898 211.012723 
L 227.616459 206.258019 
L 228.119021 210.491721 
L 228.621582 213.715876 
L 229.124143 214.595134 
L 229.626704 207.85379 
L 230.129265 205.802084 
L 230.631827 206.844243 
L 231.134388 211.110401 
L 231.636949 207.332633 
L 232.13951 208.573565 
L 232.642071 208.733049 
L 233.144633 210.367954 
L 234.149755 202.55184 
L 234.652316 203.600521 
L 235.154878 199.334208 
L 235.657439 198.982473 
L 236.16 195.934263 
L 236.662561 194.208202 
L 237.165122 190.65188 
L 237.667684 185.366235 
L 238.170245 177.589254 
L 238.672806 173.896276 
L 239.175367 183.347139 
L 239.677929 180.754864 
L 240.18049 178.921342 
L 240.683051 179.429299 
L 241.185612 176.332173 
L 241.688173 175.351975 
L 242.190735 173.531497 
L 242.693296 166.243062 
L 243.195857 165.682927 
L 243.698418 175.254297 
L 244.200979 166.402546 
L 244.703541 164.448518 
L 245.206102 162.045077 
L 245.708663 162.650867 
L 246.211224 152.327112 
L 246.713786 155.030265 
L 247.216347 163.432448 
L 247.718908 176.758913 
L 248.221469 172.486077 
L 248.72403 176.127033 
L 249.226592 176.784846 
L 249.729153 182.008685 
L 250.231714 190.743036 
L 250.734275 194.882321 
L 251.236836 195.221011 
L 251.739398 184.796316 
L 252.241959 188.704373 
L 252.74452 188.675179 
L 253.247081 191.788456 
L 253.749643 188.750029 
L 254.252204 188.574084 
L 254.754765 187.124907 
L 255.257326 184.451104 
L 255.759887 188.359161 
L 256.262449 186.978312 
L 256.76501 182.806571 
L 257.267571 181.376805 
L 258.272693 185.98507 
L 258.775255 191.83085 
L 259.277816 187.704609 
L 259.780377 181.012182 
L 260.282938 182.549254 
L 260.7855 188.245177 
L 261.288061 186.020942 
L 261.790622 192.34533 
L 262.293183 188.088955 
L 262.795744 197.790614 
L 263.298306 196.820044 
L 263.800867 196.168753 
L 264.303428 198.272637 
L 264.805989 198.311615 
L 265.308551 206.854026 
L 265.811112 207.612778 
L 266.313673 212.250238 
L 266.816234 212.054882 
L 267.318795 205.284188 
L 268.323918 210.941134 
L 268.826479 213.357619 
L 269.32904 219.317383 
L 269.831601 220.619965 
L 270.334163 217.894139 
L 270.836724 220.112007 
L 271.339285 216.321195 
L 271.841846 218.600869 
L 272.344408 214.92078 
L 272.846969 215.868522 
L 273.34953 206.124468 
L 273.852091 199.099718 
L 274.354652 196.748455 
L 274.857214 197.002511 
L 275.359775 186.499705 
L 275.862336 188.544889 
L 276.364897 196.347804 
L 276.867458 200.949546 
L 277.37002 196.061291 
L 277.872581 199.314641 
L 278.375142 201.389175 
L 278.877703 204.789275 
L 279.380265 199.191029 
L 279.882826 198.067342 
L 280.385387 200.301516 
L 280.887948 201.747432 
L 281.390509 204.955281 
L 281.893071 200.734623 
L 282.395632 194.292836 
L 282.898193 192.866487 
L 283.903316 188.499234 
L 284.405877 179.8006 
L 284.908438 184.959217 
L 285.410999 179.976545 
L 285.91356 177.788027 
L 286.416122 174.765751 
L 286.918683 175.319364 
L 287.923805 184.718205 
L 288.928928 174.993718 
L 289.431489 173.629175 
L 289.93405 174.928651 
L 290.436611 182.705632 
L 290.939173 183.851991 
L 292.446856 191.518249 
L 292.949417 190.21225 
L 293.451979 181.865351 
L 293.95454 184.451104 
L 294.457101 180.569136 
L 294.959662 179.660528 
L 295.964785 183.995169 
L 296.467346 186.913245 
L 296.969907 184.923345 
L 297.472468 186.978312 
L 297.97503 178.732352 
L 298.477591 180.530158 
L 298.980152 178.38714 
L 299.482713 181.513617 
L 299.985274 181.331305 
L 300.487836 181.321522 
L 300.990397 180.960004 
L 301.492958 186.607166 
L 301.995519 198.034887 
L 302.49808 203.489799 
L 303.000642 201.317586 
L 303.503203 202.620323 
L 304.005764 197.917642 
L 304.508325 201.262147 
L 305.010887 200.526222 
L 305.513448 191.397743 
L 306.016009 192.189107 
L 306.51857 189.629287 
L 307.021131 189.111547 
L 307.523693 184.304665 
L 308.026254 181.520139 
L 308.528815 177.045425 
L 309.031376 171.00755 
L 309.533938 166.754281 
L 310.036499 166.474291 
L 310.53906 169.333666 
L 311.041621 170.838282 
L 311.544182 173.114695 
L 312.046744 161.221257 
L 312.549305 162.484861 
L 313.554427 179.963501 
L 314.55955 171.515662 
L 315.062111 190.267689 
L 315.564672 177.257087 
L 316.067233 171.681669 
L 316.569795 178.126717 
L 317.072356 177.905272 
L 317.574917 181.060943 
L 318.077478 182.190997 
L 318.580039 184.975522 
L 319.082601 177.589254 
L 319.585162 178.38714 
L 320.087723 178.458885 
L 320.590284 171.737108 
L 321.092845 173.98417 
L 321.595407 169.294533 
L 322.097968 170.206403 
L 322.600529 165.989006 
L 323.10309 165.875022 
L 323.605652 169.949085 
L 324.108213 167.464272 
L 324.610774 171.606818 
L 325.113335 179.032064 
L 325.615896 173.153673 
L 326.118458 173.078823 
L 326.621019 175.905588 
L 327.12358 176.296456 
L 327.626141 170.395237 
L 328.128703 161.911681 
L 328.631264 159.856714 
L 329.133825 158.514843 
L 330.641509 150.646707 
L 331.646631 138.470017 
L 332.149192 138.857469 
L 332.651753 147.360746 
L 333.154315 147.279373 
L 333.656876 138.798924 
L 334.661998 155.030265 
L 335.16456 165.875022 
L 335.667121 173.818009 
L 336.169682 173.560847 
L 336.672243 175.710231 
L 337.174804 179.35771 
L 337.677366 169.994741 
L 338.179927 171.645796 
L 338.682488 167.829051 
L 339.185049 160.423371 
L 339.68761 163.57252 
L 340.190172 165.953134 
L 340.692733 163.02543 
L 341.195294 162.960207 
L 341.697855 163.885121 
L 342.200417 165.888067 
L 342.702978 162.71609 
L 343.205539 164.015411 
L 343.7081 165.995528 
L 344.210661 172.632672 
L 344.713223 173.98417 
L 345.215784 174.033087 
L 345.718345 175.400892 
L 346.220906 176.110727 
L 346.723467 181.02181 
L 347.226029 184.587916 
L 347.72859 182.158541 
L 348.231151 187.743742 
L 348.733712 190.909197 
L 349.236274 192.260696 
L 349.738835 193.071626 
L 350.241396 198.083648 
L 350.743957 192.645041 
L 351.246518 192.706847 
L 351.74908 197.123017 
L 352.251641 195.022394 
L 352.754202 198.139087 
L 353.256763 196.624688 
L 353.759325 196.022158 
L 354.261886 184.340382 
L 354.764447 179.748578 
L 355.267008 178.673808 
L 355.769569 186.724411 
L 356.272131 178.458885 
L 356.774692 179.194809 
L 357.277253 182.813093 
L 357.779814 192.67113 
L 358.282375 192.814309 
L 358.784937 186.750345 
L 359.287498 194.051824 
L 359.790059 196.670343 
L 360.29262 207.316328 
L 360.795182 204.391885 
L 361.297743 183.321051 
L 361.800304 188.316922 
L 362.302865 207.010249 
L 362.805426 205.052959 
L 363.307988 198.099954 
L 363.810549 197.057795 
L 364.31311 190.801736 
L 364.815671 190.251384 
L 365.820794 165.406043 
L 366.323355 139.841083 
L 366.825916 144.602309 
L 367.328477 132.23337 
L 367.831039 126.208539 
L 368.3336 103.476866 
L 368.836161 64.878475 
L 369.338722 53.568 
L 370.343845 119.971891 
L 370.846406 116.125796 
L 371.348967 116.747892 
L 371.851528 132.249675 
L 372.35409 139.619638 
L 372.856651 153.890428 
L 373.359212 148.458188 
L 373.861773 136.616928 
L 374.866896 148.393121 
L 375.369457 135.148184 
L 375.872018 118.920104 
L 376.374579 144.051957 
L 376.87714 142.651542 
L 377.379702 154.57433 
L 377.882263 159.175917 
L 378.384824 160.426632 
L 378.887385 159.719902 
L 379.389947 167.145148 
L 379.892508 163.035213 
L 380.395069 154.704619 
L 380.89763 161.712909 
L 381.400191 160.749017 
L 381.902753 153.141303 
L 382.405314 161.74552 
L 382.907875 160.856478 
L 383.410436 160.293082 
L 383.912997 163.722376 
L 384.415559 165.852194 
L 384.91812 158.964256 
L 385.420681 160.446044 
L 385.923242 160.674011 
L 386.425804 159.003389 
L 386.928365 159.488674 
L 387.430926 134.552177 
L 387.933487 137.945599 
L 388.93861 148.533194 
L 389.441171 143.742462 
L 389.943732 143.306094 
L 390.446293 157.739785 
L 390.948854 145.426284 
L 391.451416 143.615589 
L 391.953977 143.094432 
L 392.456538 147.18154 
L 392.959099 149.135568 
L 393.461661 152.34994 
L 393.964222 147.347701 
L 394.466783 154.404908 
L 395.471905 159.149984 
L 395.974467 158.156586 
L 397.48215 174.384666 
L 397.984712 173.368596 
L 398.487273 175.091396 
L 398.487273 175.091396 
" clip-path="url(#pfb6234ab6b)" style="fill: none; stroke: #008000; stroke-width: 1.5; stroke-linecap: square"/>
   </g>
   <g id="patch_3">
    <path d="M 57.6 307.584 
L 57.6 41.472 
" style="fill: none; stroke: #000000; stroke-width: 0.8; stroke-linejoin: miter; stroke-linecap: square"/>
   </g>
   <g id="patch_4">
    <path d="M 414.72 307.584 
L 414.72 41.472 
" style="fill: none; stroke: #000000; stroke-width: 0.8; stroke-linejoin: miter; stroke-linecap: square"/>
   </g>
   <g id="patch_5">
    <path d="M 57.6 307.584 
L 414.72 307.584 
" style="fill: none; stroke: #000000; stroke-width: 0.8; stroke-linejoin: miter; stroke-linecap: square"/>
   </g>
   <g id="patch_6">
    <path d="M 57.6 41.472 
L 414.72 41.472 
" style="fill: none; stroke: #000000; stroke-width: 0.8; stroke-linejoin: miter; stroke-linecap: square"/>
   </g>
   <g id="text_19">
    <!-- EUR price prediction -->
    <g transform="translate(174.960938 35.472)scale(0.12 -0.12)">
     <defs>
      <path id="DejaVuSans-45" d="M 628 4666 
L 3578 4666 
L 3578 4134 
L 1259 4134 
L 1259 2753 
L 3481 2753 
L 3481 2222 
L 1259 2222 
L 1259 531 
L 3634 531 
L 3634 0 
L 628 0 
L 628 4666 
z
" transform="scale(0.015625)"/>
      <path id="DejaVuSans-55" d="M 556 4666 
L 1191 4666 
L 1191 1831 
Q 1191 1081 1462 751 
Q 1734 422 2344 422 
Q 2950 422 3222 751 
Q 3494 1081 3494 1831 
L 3494 4666 
L 4128 4666 
L 4128 1753 
Q 4128 841 3676 375 
Q 3225 -91 2344 -91 
Q 1459 -91 1007 375 
Q 556 841 556 1753 
L 556 4666 
z
" transform="scale(0.015625)"/>
      <path id="DejaVuSans-52" d="M 2841 2188 
Q 3044 2119 3236 1894 
Q 3428 1669 3622 1275 
L 4263 0 
L 3584 0 
L 2988 1197 
Q 2756 1666 2539 1819 
Q 2322 1972 1947 1972 
L 1259 1972 
L 1259 0 
L 628 0 
L 628 4666 
L 2053 4666 
Q 2853 4666 3247 4331 
Q 3641 3997 3641 3322 
Q 3641 2881 3436 2590 
Q 3231 2300 2841 2188 
z
M 1259 4147 
L 1259 2491 
L 2053 2491 
Q 2509 2491 2742 2702 
Q 2975 2913 2975 3322 
Q 2975 3731 2742 3939 
Q 2509 4147 2053 4147 
L 1259 4147 
z
" transform="scale(0.015625)"/>
      <path id="DejaVuSans-20" transform="scale(0.015625)"/>
      <path id="DejaVuSans-70" d="M 1159 525 
L 1159 -1331 
L 581 -1331 
L 581 3500 
L 1159 3500 
L 1159 2969 
Q 1341 3281 1617 3432 
Q 1894 3584 2278 3584 
Q 2916 3584 3314 3078 
Q 3713 2572 3713 1747 
Q 3713 922 3314 415 
Q 2916 -91 2278 -91 
Q 1894 -91 1617 61 
Q 1341 213 1159 525 
z
M 3116 1747 
Q 3116 2381 2855 2742 
Q 2594 3103 2138 3103 
Q 1681 3103 1420 2742 
Q 1159 2381 1159 1747 
Q 1159 1113 1420 752 
Q 1681 391 2138 391 
Q 2594 391 2855 752 
Q 3116 1113 3116 1747 
z
" transform="scale(0.015625)"/>
      <path id="DejaVuSans-64" d="M 2906 2969 
L 2906 4863 
L 3481 4863 
L 3481 0 
L 2906 0 
L 2906 525 
Q 2725 213 2448 61 
Q 2172 -91 1784 -91 
Q 1150 -91 751 415 
Q 353 922 353 1747 
Q 353 2572 751 3078 
Q 1150 3584 1784 3584 
Q 2172 3584 2448 3432 
Q 2725 3281 2906 2969 
z
M 947 1747 
Q 947 1113 1208 752 
Q 1469 391 1925 391 
Q 2381 391 2643 752 
Q 2906 1113 2906 1747 
Q 2906 2381 2643 2742 
Q 2381 3103 1925 3103 
Q 1469 3103 1208 2742 
Q 947 2381 947 1747 
z
" transform="scale(0.015625)"/>
      <path id="DejaVuSans-74" d="M 1172 4494 
L 1172 3500 
L 2356 3500 
L 2356 3053 
L 1172 3053 
L 1172 1153 
Q 1172 725 1289 603 
Q 1406 481 1766 481 
L 2356 481 
L 2356 0 
L 1766 0 
Q 1100 0 847 248 
Q 594 497 594 1153 
L 594 3053 
L 172 3053 
L 172 3500 
L 594 3500 
L 594 4494 
L 1172 4494 
z
" transform="scale(0.015625)"/>
      <path id="DejaVuSans-6f" d="M 1959 3097 
Q 1497 3097 1228 2736 
Q 959 2375 959 1747 
Q 959 1119 1226 758 
Q 1494 397 1959 397 
Q 2419 397 2687 759 
Q 2956 1122 2956 1747 
Q 2956 2369 2687 2733 
Q 2419 3097 1959 3097 
z
M 1959 3584 
Q 2709 3584 3137 3096 
Q 3566 2609 3566 1747 
Q 3566 888 3137 398 
Q 2709 -91 1959 -91 
Q 1206 -91 779 398 
Q 353 888 353 1747 
Q 353 2609 779 3096 
Q 1206 3584 1959 3584 
z
" transform="scale(0.015625)"/>
      <path id="DejaVuSans-6e" d="M 3513 2113 
L 3513 0 
L 2938 0 
L 2938 2094 
Q 2938 2591 2744 2837 
Q 2550 3084 2163 3084 
Q 1697 3084 1428 2787 
Q 1159 2491 1159 1978 
L 1159 0 
L 581 0 
L 581 3500 
L 1159 3500 
L 1159 2956 
Q 1366 3272 1645 3428 
Q 1925 3584 2291 3584 
Q 2894 3584 3203 3211 
Q 3513 2838 3513 2113 
z
" transform="scale(0.015625)"/>
     </defs>
     <use xlink:href="#DejaVuSans-45"/>
     <use xlink:href="#DejaVuSans-55" x="63.183594"/>
     <use xlink:href="#DejaVuSans-52" x="136.376953"/>
     <use xlink:href="#DejaVuSans-20" x="205.859375"/>
     <use xlink:href="#DejaVuSans-70" x="237.646484"/>
     <use xlink:href="#DejaVuSans-72" x="301.123047"/>
     <use xlink:href="#DejaVuSans-69" x="342.236328"/>
     <use xlink:href="#DejaVuSans-63" x="370.019531"/>
     <use xlink:href="#DejaVuSans-65" x="425"/>
     <use xlink:href="#DejaVuSans-20" x="486.523438"/>
     <use xlink:href="#DejaVuSans-70" x="518.310547"/>
     <use xlink:href="#DejaVuSans-72" x="581.787109"/>
     <use xlink:href="#DejaVuSans-65" x="620.650391"/>
     <use xlink:href="#DejaVuSans-64" x="682.173828"/>
     <use xlink:href="#DejaVuSans-69" x="745.650391"/>
     <use xlink:href="#DejaVuSans-63" x="773.433594"/>
     <use xlink:href="#DejaVuSans-74" x="828.414062"/>
     <use xlink:href="#DejaVuSans-69" x="867.623047"/>
     <use xlink:href="#DejaVuSans-6f" x="895.40625"/>
     <use xlink:href="#DejaVuSans-6e" x="956.587891"/>
    </g>
   </g>
   <g id="legend_1">
    <g id="patch_7">
     <path d="M 64.6 78.82825 
L 176.323438 78.82825 
Q 178.323438 78.82825 178.323438 76.82825 
L 178.323438 48.472 
Q 178.323438 46.472 176.323438 46.472 
L 64.6 46.472 
Q 62.6 46.472 62.6 48.472 
L 62.6 76.82825 
Q 62.6 78.82825 64.6 78.82825 
z
" style="fill: #ffffff; opacity: 0.8; stroke: #cccccc; stroke-linejoin: miter"/>
    </g>
    <g id="line2d_19">
     <path d="M 66.6 54.570437 
L 76.6 54.570437 
L 86.6 54.570437 
" style="fill: none; stroke: #000000; stroke-width: 1.5; stroke-linecap: square"/>
    </g>
    <g id="text_20">
     <!-- Actual Prices -->
     <g transform="translate(94.6 58.070437)scale(0.1 -0.1)">
      <defs>
       <path id="DejaVuSans-41" d="M 2188 4044 
L 1331 1722 
L 3047 1722 
L 2188 4044 
z
M 1831 4666 
L 2547 4666 
L 4325 0 
L 3669 0 
L 3244 1197 
L 1141 1197 
L 716 0 
L 50 0 
L 1831 4666 
z
" transform="scale(0.015625)"/>
       <path id="DejaVuSans-75" d="M 544 1381 
L 544 3500 
L 1119 3500 
L 1119 1403 
Q 1119 906 1312 657 
Q 1506 409 1894 409 
Q 2359 409 2629 706 
Q 2900 1003 2900 1516 
L 2900 3500 
L 3475 3500 
L 3475 0 
L 2900 0 
L 2900 538 
Q 2691 219 2414 64 
Q 2138 -91 1772 -91 
Q 1169 -91 856 284 
Q 544 659 544 1381 
z
M 1991 3584 
L 1991 3584 
z
" transform="scale(0.015625)"/>
       <path id="DejaVuSans-61" d="M 2194 1759 
Q 1497 1759 1228 1600 
Q 959 1441 959 1056 
Q 959 750 1161 570 
Q 1363 391 1709 391 
Q 2188 391 2477 730 
Q 2766 1069 2766 1631 
L 2766 1759 
L 2194 1759 
z
M 3341 1997 
L 3341 0 
L 2766 0 
L 2766 531 
Q 2569 213 2275 61 
Q 1981 -91 1556 -91 
Q 1019 -91 701 211 
Q 384 513 384 1019 
Q 384 1609 779 1909 
Q 1175 2209 1959 2209 
L 2766 2209 
L 2766 2266 
Q 2766 2663 2505 2880 
Q 2244 3097 1772 3097 
Q 1472 3097 1187 3025 
Q 903 2953 641 2809 
L 641 3341 
Q 956 3463 1253 3523 
Q 1550 3584 1831 3584 
Q 2591 3584 2966 3190 
Q 3341 2797 3341 1997 
z
" transform="scale(0.015625)"/>
       <path id="DejaVuSans-6c" d="M 603 4863 
L 1178 4863 
L 1178 0 
L 603 0 
L 603 4863 
z
" transform="scale(0.015625)"/>
       <path id="DejaVuSans-73" d="M 2834 3397 
L 2834 2853 
Q 2591 2978 2328 3040 
Q 2066 3103 1784 3103 
Q 1356 3103 1142 2972 
Q 928 2841 928 2578 
Q 928 2378 1081 2264 
Q 1234 2150 1697 2047 
L 1894 2003 
Q 2506 1872 2764 1633 
Q 3022 1394 3022 966 
Q 3022 478 2636 193 
Q 2250 -91 1575 -91 
Q 1294 -91 989 -36 
Q 684 19 347 128 
L 347 722 
Q 666 556 975 473 
Q 1284 391 1588 391 
Q 1994 391 2212 530 
Q 2431 669 2431 922 
Q 2431 1156 2273 1281 
Q 2116 1406 1581 1522 
L 1381 1569 
Q 847 1681 609 1914 
Q 372 2147 372 2553 
Q 372 3047 722 3315 
Q 1072 3584 1716 3584 
Q 2034 3584 2315 3537 
Q 2597 3491 2834 3397 
z
" transform="scale(0.015625)"/>
      </defs>
      <use xlink:href="#DejaVuSans-41"/>
      <use xlink:href="#DejaVuSans-63" x="66.658203"/>
      <use xlink:href="#DejaVuSans-74" x="121.638672"/>
      <use xlink:href="#DejaVuSans-75" x="160.847656"/>
      <use xlink:href="#DejaVuSans-61" x="224.226562"/>
      <use xlink:href="#DejaVuSans-6c" x="285.505859"/>
      <use xlink:href="#DejaVuSans-20" x="313.289062"/>
      <use xlink:href="#DejaVuSans-50" x="345.076172"/>
      <use xlink:href="#DejaVuSans-72" x="403.628906"/>
      <use xlink:href="#DejaVuSans-69" x="444.742188"/>
      <use xlink:href="#DejaVuSans-63" x="472.525391"/>
      <use xlink:href="#DejaVuSans-65" x="527.505859"/>
      <use xlink:href="#DejaVuSans-73" x="589.029297"/>
     </g>
    </g>
    <g id="line2d_20">
     <path d="M 66.6 69.248562 
L 76.6 69.248562 
L 86.6 69.248562 
" style="fill: none; stroke: #008000; stroke-width: 1.5; stroke-linecap: square"/>
    </g>
    <g id="text_21">
     <!-- Predicted Prices -->
     <g transform="translate(94.6 72.748562)scale(0.1 -0.1)">
      <use xlink:href="#DejaVuSans-50"/>
      <use xlink:href="#DejaVuSans-72" x="58.552734"/>
      <use xlink:href="#DejaVuSans-65" x="97.416016"/>
      <use xlink:href="#DejaVuSans-64" x="158.939453"/>
      <use xlink:href="#DejaVuSans-69" x="222.416016"/>
      <use xlink:href="#DejaVuSans-63" x="250.199219"/>
      <use xlink:href="#DejaVuSans-74" x="305.179688"/>
      <use xlink:href="#DejaVuSans-65" x="344.388672"/>
      <use xlink:href="#DejaVuSans-64" x="405.912109"/>
      <use xlink:href="#DejaVuSans-20" x="469.388672"/>
      <use xlink:href="#DejaVuSans-50" x="501.175781"/>
      <use xlink:href="#DejaVuSans-72" x="559.728516"/>
      <use xlink:href="#DejaVuSans-69" x="600.841797"/>
      <use xlink:href="#DejaVuSans-63" x="628.625"/>
      <use xlink:href="#DejaVuSans-65" x="683.605469"/>
      <use xlink:href="#DejaVuSans-73" x="745.128906"/>
     </g>
    </g>
   </g>
  </g>
 </g>
 <defs>
  <clipPath id="pfb6234ab6b">
   <rect x="57.6" y="41.472" width="357.12" height="266.112"/>
  </clipPath>
 </defs>
</svg>
