<?xml version="1.0" standalone="no"?>
<!DOCTYPE svg PUBLIC "-//W3C//DTD SVG 20010904//EN"
 "http://www.w3.org/TR/2001/REC-SVG-20010904/DTD/svg10.dtd">
<svg version="1.0" xmlns="http://www.w3.org/2000/svg"
 width="720.000000pt" height="720.000000pt" viewBox="0 0 720.000000 720.000000"
 preserveAspectRatio="xMidYMid meet">

<g transform="translate(0.000000,720.000000) scale(0.100000,-0.100000)"
fill="#000000" stroke="none">
<path d="M3358 7019 c-241 -16 -482 -59 -727 -129 -201 -58 -353 -119 -566
-224 -940 -468 -1618 -1347 -1825 -2365 -56 -279 -64 -368 -64 -706 0 -286 2
-324 27 -487 101 -658 364 -1238 788 -1733 104 -122 342 -352 465 -451 526
-421 1162 -675 1842 -735 176 -15 588 -7 747 16 778 108 1448 443 1994 995
465 471 792 1083 915 1715 55 284 61 350 61 685 0 336 -7 412 -60 682 -203
1027 -883 1913 -1835 2389 -534 268 -1152 390 -1762 348z m662 -44 c685 -90
1307 -370 1820 -821 458 -402 802 -922 989 -1497 116 -358 165 -668 164 -1057
0 -240 -9 -353 -44 -565 -231 -1387 -1316 -2501 -2698 -2769 -420 -82 -893
-82 -1315 0 -339 66 -704 201 -1002 369 -692 392 -1224 1004 -1510 1736 -368
945 -287 2040 216 2914 244 426 591 808 990 1091 499 354 1099 569 1725 618
116 9 546 -3 665 -19z"/>
<path d="M3428 6793 c-30 -5 -34 -13 -17 -30 15 -15 -65 -242 -92 -262 -35
-25 -22 -36 36 -33 39 3 55 8 55 18 0 8 -7 14 -15 14 -17 0 -19 18 -5 54 9 24
14 26 75 26 64 0 65 -1 78 -32 12 -28 12 -34 0 -41 -7 -4 -13 -13 -13 -20 0
-8 17 -11 55 -9 39 3 55 8 55 18 0 8 -8 14 -18 14 -14 0 -34 35 -82 145 -35
80 -68 144 -74 144 -6 -1 -23 -4 -38 -6z m60 -115 c12 -28 20 -53 18 -56 -3
-2 -23 -6 -45 -9 -32 -4 -41 -2 -41 9 0 22 31 108 39 108 4 0 17 -23 29 -52z"/>
<path d="M3860 6785 c0 -8 6 -18 14 -22 10 -5 21 -54 35 -152 19 -137 27 -160
57 -161 9 0 38 59 102 210 13 31 15 33 22 15 4 -11 11 -66 15 -123 7 -102 21
-138 49 -129 6 2 41 65 78 140 51 105 71 135 83 131 9 -4 15 -1 15 9 0 16 -11
21 -72 32 -30 5 -38 3 -38 -10 0 -8 7 -15 15 -15 8 0 15 -3 15 -7 0 -14 -94
-213 -100 -213 -4 0 -11 56 -17 125 -6 69 -12 127 -14 129 -2 2 -13 6 -25 10
-18 6 -25 -2 -52 -66 -56 -132 -74 -170 -79 -164 -7 7 -33 219 -27 228 3 4 11
5 19 1 9 -3 15 1 15 10 0 11 -13 18 -37 22 -21 3 -46 8 -55 10 -10 2 -18 -3
-18 -10z"/>
<path d="M3151 6769 c-52 -10 -62 -18 -39 -32 14 -10 12 -17 -23 -68 -21 -32
-39 -62 -39 -67 0 -6 35 -42 79 -81 71 -64 82 -70 110 -65 34 7 37 27 5 33
-16 3 -140 100 -147 115 -5 11 79 137 96 142 16 5 25 35 10 33 -5 -1 -28 -5
-52 -10z"/>
<path d="M2971 6741 c-38 -7 -55 -31 -23 -31 23 0 22 1 48 -154 15 -91 15
-100 0 -108 -41 -23 -5 -35 63 -22 34 7 43 34 11 34 -11 0 -20 3 -20 8 0 4 -9
59 -20 122 -18 102 -18 116 -5 126 8 6 15 16 15 23 0 12 -14 12 -69 2z"/>
<path d="M2778 6694 c-27 -8 -48 -17 -48 -20 0 -2 10 -8 23 -13 19 -8 28 -28
54 -131 26 -100 29 -122 17 -127 -8 -3 -14 -12 -14 -20 0 -11 7 -13 33 -8 74
17 102 40 55 47 -19 3 -26 20 -54 126 -27 102 -30 124 -18 129 14 5 20 34 7
32 -5 0 -29 -7 -55 -15z"/>
<path d="M4487 6664 c-4 -4 -2 -13 4 -21 9 -10 3 -24 -27 -60 -94 -118 -137
-163 -155 -163 -34 0 -20 -26 20 -38 21 -7 46 -12 55 -12 20 0 21 19 1 26 -13
5 -12 11 6 35 23 33 38 35 101 13 31 -10 48 -22 52 -37 11 -41 7 -57 -15 -57
-36 0 -15 -24 34 -39 50 -15 74 -8 44 13 -14 11 -19 41 -29 170 -12 168 -7
155 -69 172 -8 2 -18 1 -22 -2z m52 -146 c1 -27 -3 -48 -8 -48 -9 0 -74 21
-80 26 -2 2 14 26 35 54 44 57 52 52 53 -32z"/>
<path d="M2590 6640 c-50 -20 -62 -37 -29 -42 18 -2 29 -22 61 -107 21 -57 37
-105 36 -106 -2 -2 -56 40 -121 92 l-119 95 -44 -12 c-46 -13 -59 -36 -23 -42
18 -2 30 -25 65 -118 41 -106 43 -116 27 -128 -32 -23 -1 -32 50 -14 50 18 62
38 25 44 -18 2 -29 22 -60 102 -21 55 -35 102 -33 104 2 3 57 -38 122 -90 109
-87 120 -94 146 -85 21 7 27 14 22 26 -4 9 -27 70 -52 136 -41 112 -43 120
-27 132 32 23 2 32 -46 13z"/>
<path d="M4780 6556 c0 -8 7 -16 15 -19 11 -5 3 -30 -40 -124 -45 -101 -56
-118 -74 -115 -13 2 -21 -2 -21 -11 0 -19 92 -60 102 -44 3 6 0 16 -8 22 -13
9 -12 17 6 58 22 49 26 52 48 39 9 -6 42 -137 42 -168 0 -2 13 -10 29 -18 25
-14 30 -14 35 -1 3 8 -2 18 -10 23 -8 5 -20 28 -25 53 -5 24 -11 54 -14 67 -5
19 -1 22 24 22 61 0 103 94 66 147 -8 11 -48 35 -89 52 -86 36 -86 36 -86 17z
m111 -69 c63 -42 39 -117 -33 -103 -58 11 -61 17 -37 74 12 29 25 52 29 52 4
0 22 -10 41 -23z"/>
<path d="M2162 6464 c-40 -24 -50 -51 -14 -40 12 4 24 -6 40 -34 12 -21 22
-43 22 -49 0 -10 -149 -96 -154 -90 -2 2 -13 23 -26 46 -19 35 -21 45 -10 58
22 27 2 30 -45 7 -47 -22 -62 -54 -24 -49 16 2 32 -18 80 -105 52 -94 58 -110
47 -127 -20 -32 -3 -35 46 -6 50 29 58 45 23 45 -16 0 -28 12 -45 43 -12 23
-22 45 -22 49 0 3 34 25 77 48 83 45 78 46 113 -22 17 -32 18 -37 4 -49 -9 -8
-11 -16 -5 -22 6 -6 25 -1 52 14 49 28 66 55 28 46 -22 -6 -29 4 -86 106 -53
98 -59 114 -47 128 13 14 10 29 -5 29 -3 0 -25 -12 -49 -26z"/>
<path d="M5094 6359 c-30 -33 -24 -87 14 -139 36 -50 40 -79 13 -104 -37 -34
-105 7 -99 59 4 39 -14 41 -34 4 -16 -27 -16 -33 -4 -51 25 -35 69 -58 113
-58 81 0 109 82 53 158 -41 57 -46 83 -20 107 20 18 22 18 56 1 34 -16 36 -19
30 -51 -9 -45 12 -47 38 -4 l18 30 -37 35 c-30 28 -44 34 -79 34 -31 0 -48 -6
-62 -21z"/>
<path d="M1807 6250 c-40 -12 -94 -56 -112 -90 -32 -62 -4 -154 63 -210 30
-24 46 -30 85 -30 55 0 79 10 125 53 30 29 40 56 26 70 -3 3 -25 -14 -48 -39
-40 -42 -60 -50 -110 -44 -48 5 -116 88 -116 141 0 36 34 84 69 99 27 11 34
10 49 -3 11 -10 23 -13 31 -8 11 7 9 15 -10 40 -12 17 -23 31 -23 30 -1 0 -14
-5 -29 -9z"/>
<path d="M3280 6235 c-316 -40 -561 -113 -845 -250 -533 -258 -958 -683 -1221
-1219 -159 -327 -240 -628 -266 -997 -25 -353 32 -744 157 -1085 88 -239 256
-536 421 -744 87 -109 294 -316 404 -404 270 -216 599 -387 924 -480 230 -67
402 -94 656 -103 453 -16 879 79 1288 287 919 466 1489 1432 1448 2455 -15
384 -101 730 -266 1069 -201 415 -537 797 -925 1052 -321 211 -676 348 -1065
409 -143 23 -565 29 -710 10z m415 -15 c3 -5 -2 -10 -12 -10 -10 -1 -50 -13
-89 -29 l-71 -28 -36 33 c-19 18 -33 35 -29 38 10 10 231 6 237 -4z m-257 -31
c45 -22 66 -49 43 -57 -8 -3 -21 -12 -31 -22 -13 -13 -48 -21 -141 -29 -142
-14 -157 -17 -142 -32 7 -7 52 -6 146 5 162 19 184 19 135 1 -21 -8 -78 -35
-129 -61 l-91 -47 -56 18 c-32 10 -81 28 -111 41 -45 20 -51 26 -41 39 24 29
176 119 240 141 81 29 122 30 178 3z m454 11 c33 -10 98 -63 98 -82 0 -4 -17
-15 -37 -24 -33 -14 -54 -14 -167 -4 -70 6 -131 8 -134 5 -15 -14 25 -23 158
-34 80 -7 147 -14 149 -16 1 -2 -14 -7 -35 -10 -54 -9 -185 -45 -207 -57 -20
-10 -59 10 -172 85 l-59 41 59 26 c155 69 267 92 347 70z m-707 -9 c-6 -4 -42
-29 -81 -54 l-72 -45 -46 23 c-27 14 -42 26 -35 30 8 6 199 49 239 54 2 1 0
-3 -5 -8z m913 -12 c61 -12 112 -25 112 -29 0 -4 -28 -10 -62 -13 -35 -3 -76
-9 -93 -12 -26 -5 -34 0 -63 35 -19 23 -28 40 -20 40 7 0 64 -9 126 -21z
m-1126 -85 c15 -8 28 -16 28 -18 0 -2 -13 -17 -28 -34 -21 -22 -54 -38 -133
-62 -144 -45 -154 -49 -142 -61 6 -6 52 4 134 29 68 22 135 42 149 47 14 4 -9
-16 -50 -45 -41 -28 -92 -68 -112 -88 l-38 -36 -106 17 c-58 9 -112 21 -120
25 -11 6 -1 22 43 68 152 158 275 210 375 158z m1391 10 c79 -27 144 -124 83
-124 -14 0 -27 -4 -30 -9 -3 -5 -65 9 -138 30 -86 26 -135 36 -141 30 -13 -13
3 -19 153 -61 147 -41 158 -48 79 -47 -35 0 -99 -3 -141 -7 l-77 -8 -86 83
c-99 95 -101 89 35 114 104 18 207 18 263 -1z m208 -65 c57 -23 108 -45 113
-50 5 -4 -32 -8 -82 -8 l-91 0 -25 49 c-14 28 -24 50 -22 50 2 0 50 -19 107
-41z m-1950 -44 l-67 -65 -50 19 -49 19 35 15 c19 9 67 29 105 46 39 17 75 30
82 31 6 0 -19 -29 -56 -65z m1043 -50 c5 -13 -14 -15 -124 -15 -80 0 -130 -4
-130 -10 0 -6 43 -10 108 -11 70 0 100 -3 87 -9 -11 -5 -57 -24 -101 -43 l-82
-34 -86 45 c-47 25 -86 49 -86 53 0 10 152 88 213 108 l52 18 71 -44 c40 -24
75 -50 78 -58z m400 8 c54 -50 68 -73 44 -73 -6 0 -62 10 -124 22 -63 12 -116
19 -120 15 -15 -15 -9 -16 141 -48 l60 -12 -80 -17 c-44 -9 -89 -20 -100 -23
-16 -5 -39 8 -95 54 -41 33 -76 64 -78 69 -7 19 257 86 284 71 6 -3 37 -29 68
-58z m-942 0 c43 -15 80 -33 82 -39 3 -8 -35 -19 -112 -34 -64 -13 -121 -27
-126 -31 -21 -19 8 -21 86 -5 46 9 89 16 96 16 7 0 -24 -25 -69 -55 -45 -30
-87 -55 -93 -55 -6 0 -51 12 -99 27 l-88 26 33 34 c36 37 186 143 202 143 6 0
46 -12 88 -27z m1644 -17 c90 -28 147 -81 156 -145 3 -21 -1 -24 -37 -25 -31
-1 -66 12 -158 61 -66 35 -121 63 -123 63 -2 0 -4 -6 -4 -14 0 -8 55 -43 128
-81 70 -36 131 -70 135 -74 5 -5 -14 -2 -43 5 -28 7 -89 16 -135 20 -80 6 -87
9 -115 40 -40 46 -110 150 -110 165 0 17 240 5 306 -15z m-2248 -20 c6 -3 4
-18 -7 -39 -13 -27 -39 -46 -133 -97 -65 -36 -118 -70 -118 -77 0 -7 3 -13 6
-13 3 0 66 33 140 74 74 41 134 73 134 71 0 -1 -28 -32 -63 -67 -34 -36 -74
-81 -87 -101 -29 -42 -48 -47 -177 -47 -110 0 -108 -6 -35 102 82 122 162 192
237 208 29 6 82 -1 103 -14z m1245 -58 c29 -24 63 -51 77 -61 l25 -18 -55 5
c-30 3 -85 8 -122 12 -46 5 -68 3 -68 -4 0 -15 19 -19 157 -33 106 -10 125
-15 144 -35 13 -13 19 -30 15 -39 -7 -20 -82 -54 -119 -55 -65 0 -211 67 -315
146 l-44 33 39 16 c59 26 114 46 163 60 25 7 46 14 48 14 1 1 26 -18 55 -41z
m674 36 c32 -9 145 -164 119 -164 -2 0 -57 22 -122 49 -66 28 -121 45 -123 39
-5 -15 6 -22 98 -59 l85 -34 -99 -3 -98 -3 -38 37 c-21 20 -51 56 -68 80 l-31
43 47 6 c27 3 55 8 63 9 27 6 145 6 167 0z m-1092 -61 c41 -21 75 -40 75 -43
0 -4 -24 -8 -52 -9 -101 -5 -173 -16 -168 -26 6 -11 15 -11 166 -1 108 8 111
8 138 -16 l28 -24 -31 -32 c-33 -32 -84 -52 -137 -52 -76 0 -329 89 -321 113
5 15 188 127 208 127 10 0 52 -17 94 -37z m1713 -51 c45 -30 81 -57 79 -58 -2
-2 -44 7 -94 19 -88 20 -91 22 -96 52 -3 16 -9 38 -13 49 -6 17 -5 17 17 6 13
-8 61 -38 107 -68z m-2885 -19 c-35 -49 -62 -77 -72 -76 -9 2 -31 4 -48 4 -18
1 -33 5 -33 8 0 7 192 140 202 141 4 0 -18 -35 -49 -77z m524 50 c93 -10 84
-25 -47 -78 -66 -27 -120 -52 -120 -56 0 -19 22 -15 110 22 l95 40 -75 -76
-75 -77 -90 7 c-49 4 -94 11 -99 15 -12 12 30 67 116 154 64 64 71 68 101 62
17 -4 56 -10 84 -13z m1522 -53 c34 -38 59 -70 54 -70 -4 0 -54 14 -110 31
-94 29 -132 33 -107 10 5 -5 63 -25 129 -46 119 -36 154 -58 155 -96 0 -39
-115 -52 -185 -20 -90 41 -276 214 -243 226 30 12 156 33 198 34 45 1 48 -1
109 -69z m-1291 -23 c43 -12 68 -23 60 -28 -7 -4 -57 -19 -111 -34 -57 -17
-96 -32 -94 -39 5 -14 17 -12 156 29 109 33 114 33 147 18 19 -9 34 -20 34
-25 0 -4 -16 -26 -36 -48 -49 -54 -119 -75 -224 -66 -84 7 -230 35 -230 45 0
8 113 118 159 155 21 17 40 25 50 20 9 -3 49 -16 89 -27z m2139 -28 c146 -37
231 -97 253 -179 14 -51 8 -60 -37 -56 -27 3 -59 23 -137 85 -55 44 -105 81
-111 82 -30 2 -4 -27 95 -105 60 -48 112 -91 115 -97 3 -5 -15 0 -40 11 -25
11 -83 31 -129 45 l-83 25 -41 88 c-22 48 -43 97 -47 110 -7 23 -6 23 42 16
26 -3 80 -15 120 -25z m-312 1 c126 -20 129 -22 169 -107 20 -42 35 -82 32
-89 -3 -9 -41 11 -111 58 -72 50 -108 69 -116 61 -7 -7 15 -26 71 -63 44 -29
82 -56 85 -59 2 -4 -41 2 -96 14 -72 15 -102 25 -113 40 -27 40 -85 153 -80
158 6 5 77 0 159 -13z m-1138 -40 c31 -17 59 -33 62 -35 2 -3 -40 -5 -94 -5
l-99 0 34 35 c19 19 35 35 37 35 2 0 29 -14 60 -30z m951 6 c21 -10 111 -156
97 -156 -4 0 -49 23 -101 51 -64 35 -99 48 -106 41 -6 -6 31 -32 115 -77 102
-56 126 -73 135 -99 10 -26 10 -33 -5 -43 -26 -19 -91 -16 -139 8 -52 24 -142
119 -201 211 -24 36 -43 69 -43 72 0 17 210 11 248 -8z m-2481 -14 c9 -5 9
-16 1 -42 -9 -26 -37 -56 -115 -120 -56 -47 -103 -88 -103 -92 0 -23 28 -6
129 78 143 119 141 118 94 48 -22 -32 -54 -86 -71 -120 -21 -42 -39 -65 -59
-72 -63 -26 -213 -52 -213 -38 0 3 15 41 34 85 64 151 122 231 191 262 42 19
91 24 112 11z m1938 -37 c27 -25 45 -45 40 -45 -15 0 -168 30 -172 34 -3 3 68
54 77 55 3 0 27 -20 55 -44z m-800 6 c64 -21 62 -23 -30 -40 -33 -6 -70 -14
-83 -17 -22 -6 -22 -6 5 35 14 22 31 41 37 41 6 0 38 -9 71 -19z m625 -43
c132 -15 136 -17 172 -94 26 -57 31 -78 32 -152 1 -100 -17 -168 -66 -252 -28
-47 -197 -542 -198 -577 0 -9 21 -13 71 -13 98 0 259 -35 346 -75 85 -39 172
-116 214 -190 16 -27 29 -53 29 -57 0 -5 -378 -8 -840 -8 -586 0 -840 3 -840
11 0 29 61 129 106 174 91 89 226 141 395 152 l97 6 22 73 c21 73 22 74 55 74
25 0 40 8 64 36 31 35 81 108 81 119 0 19 -24 -4 -69 -65 l-51 -70 -74 0 c-54
0 -79 4 -90 15 -19 19 -44 102 -53 173 l-6 52 32 0 c21 0 31 5 31 15 0 11 -13
15 -54 15 -30 0 -57 3 -60 8 -8 14 15 467 25 477 6 5 50 10 98 10 78 0 95 -4
147 -30 49 -25 63 -39 86 -84 23 -44 28 -66 28 -126 0 -58 4 -78 23 -105 33
-50 167 -112 167 -78 0 8 -18 19 -43 25 -23 6 -60 27 -81 46 l-40 33 -6 95
c-7 101 -20 137 -67 180 -42 39 -84 58 -155 68 -59 8 -171 2 -183 -10 -3 -3
-8 -63 -12 -132 -3 -70 -10 -127 -14 -127 -14 0 -56 64 -69 104 -24 74 8 238
48 250 10 3 57 12 105 21 185 34 379 39 597 13z m-1503 -3 c1 -5 -45 -41 -103
-79 -70 -47 -101 -73 -95 -79 7 -7 39 8 97 47 47 32 85 54 83 49 -3 -4 -29
-45 -58 -90 l-54 -82 -66 -6 c-36 -3 -81 -8 -98 -11 -23 -3 -33 -1 -33 8 0 19
76 155 113 205 31 40 34 42 97 46 91 5 113 4 117 -8z m233 -25 c18 0 -3 -15
-75 -54 -91 -49 -125 -76 -95 -76 6 0 63 27 125 61 99 52 119 59 150 53 19 -3
37 -10 40 -13 2 -4 -5 -27 -17 -50 -42 -84 -135 -120 -320 -123 -65 -1 -121 1
-124 4 -7 7 82 140 123 184 28 30 29 30 98 23 39 -4 81 -8 95 -9z m1580 -37
c503 -142 947 -504 1208 -983 252 -463 301 -1047 131 -1563 -164 -501 -522
-919 -996 -1160 -157 -80 -435 -177 -506 -177 -13 0 15 35 88 112 253 265 496
610 658 934 152 302 268 664 317 980 20 132 40 357 40 452 l0 52 -51 0 c-28 0
-49 3 -47 8 40 77 52 147 67 401 9 155 9 155 -16 205 -94 186 -166 207 -248
72 -9 -15 -40 -12 -352 27 l-342 43 -16 -45 c-8 -24 -15 -48 -15 -52 0 -3 18
-9 39 -13 54 -8 93 -45 132 -121 36 -73 60 -102 94 -115 23 -9 23 -10 9 -56
-23 -79 -33 -74 150 -74 l164 0 17 -50 c9 -28 32 -67 51 -87 l34 -36 -40 -53
-41 -54 -103 0 -103 0 -32 64 c-59 119 -194 218 -357 260 -33 9 -108 21 -165
27 -57 6 -105 12 -106 13 -8 7 161 495 190 546 54 98 70 166 65 274 -3 71 -10
103 -30 149 l-27 57 27 -6 c15 -4 65 -18 112 -31z m253 -24 l45 -57 -86 35
c-48 19 -88 36 -90 38 -4 4 71 43 79 41 3 0 27 -26 52 -57z m1028 -28 c85 -81
98 -107 38 -73 -19 11 -55 27 -81 37 -46 17 -46 18 -50 66 -1 27 0 49 4 49 3
0 44 -36 89 -79z m-2346 52 c-21 -51 -27 -85 -26 -150 0 -84 26 -148 75 -190
l31 -26 -4 -108 -3 -107 30 -16 c26 -13 30 -22 35 -73 8 -74 22 -120 47 -160
17 -28 25 -33 60 -33 46 0 45 1 25 -67 l-15 -51 -83 -7 c-108 -10 -213 -37
-294 -76 -71 -36 -162 -119 -182 -167 -15 -37 -27 -41 -36 -12 -4 13 2 31 19
53 25 33 35 94 19 111 -4 4 -9 22 -10 39 -1 18 -6 57 -12 87 -6 30 -13 73 -15
94 -4 44 -34 76 -71 76 -16 0 -24 7 -27 25 -6 31 -8 30 83 50 74 17 74 17 177
118 56 56 102 104 102 107 0 3 -61 26 -136 50 l-136 45 -236 -49 c-131 -26
-240 -50 -243 -52 -5 -3 43 -255 55 -290 3 -9 31 -6 97 7 52 11 99 17 106 15
29 -11 9 -48 -65 -123 -43 -44 -112 -125 -155 -181 -74 -99 -96 -146 -121
-264 -5 -23 -12 -27 -49 -30 l-42 -3 2 -115 c16 -707 301 -1444 798 -2060 51
-63 140 -167 198 -230 58 -63 102 -116 97 -118 -5 -2 -52 8 -104 22 -952 253
-1581 1157 -1485 2132 77 783 610 1453 1355 1704 136 45 149 48 139 23z
m-1284 -17 c-7 -8 -25 -45 -41 -82 l-28 -68 -52 -3 -52 -3 42 48 c51 57 133
132 139 127 2 -3 -2 -11 -8 -19z m1032 14 c26 0 47 -3 47 -7 0 -5 -31 -20 -68
-35 -112 -45 -102 -46 -84 7 14 38 21 45 37 41 11 -3 41 -6 68 -6z m1959 -25
c40 -9 94 -22 119 -30 l45 -15 31 -90 c17 -50 28 -90 26 -90 -2 0 -42 32 -87
70 -78 66 -106 82 -106 61 0 -4 47 -47 105 -95 58 -48 105 -95 105 -104 0 -9
3 -27 6 -39 6 -21 3 -23 -40 -23 -26 0 -57 5 -69 11 -38 19 -97 82 -132 139
-27 45 -95 198 -95 215 0 8 13 6 92 -10z m280 -31 c140 -44 186 -69 194 -101
3 -15 12 -52 19 -81 24 -94 11 -93 -90 8 -59 59 -97 90 -105 85 -8 -5 12 -32
61 -81 41 -41 71 -74 69 -74 -12 1 -173 69 -180 77 -17 17 -68 193 -56 193 3
0 42 -12 88 -26z m306 -55 c153 -61 244 -133 265 -210 13 -46 12 -99 -2 -99
-38 0 -88 40 -162 130 -54 64 -87 96 -93 90 -6 -6 -4 -16 5 -27 9 -10 52 -62
97 -115 45 -53 82 -99 82 -102 0 -3 -30 14 -67 38 -38 24 -91 55 -119 69 -51
26 -52 26 -72 104 -31 116 -36 153 -22 153 6 0 46 -14 88 -31z m-620 -105 c18
-36 29 -63 25 -61 -4 3 -39 26 -76 51 -38 25 -74 46 -80 47 -12 1 68 26 88 28
6 1 25 -29 43 -65z m-2304 -18 c-43 -29 -80 -53 -81 -52 0 0 1 22 4 48 l5 47
52 4 c28 2 62 4 75 5 18 1 2 -13 -55 -52z m-738 22 c-3 -13 -6 -30 -6 -39 0
-9 -39 -65 -87 -123 -58 -72 -83 -110 -76 -117 7 -7 42 29 107 110 53 67 98
121 101 121 2 0 -7 -25 -21 -56 -13 -30 -33 -87 -44 -126 -11 -40 -25 -76 -32
-80 -27 -18 -85 -47 -145 -71 l-63 -26 0 33 c0 43 43 214 65 257 44 87 110
138 179 139 25 0 28 -3 22 -22z m509 14 c-8 -7 -156 -125 -174 -139 -3 -2 0
-8 6 -14 7 -7 44 17 117 76 96 78 110 86 144 83 36 -3 37 -4 34 -37 -6 -81
-78 -141 -221 -185 -78 -25 -201 -45 -201 -34 0 12 60 147 83 188 l26 45 78
11 c104 15 119 16 108 6z m-245 -20 c0 -4 -38 -45 -85 -92 -76 -75 -100 -110
-78 -110 4 0 41 33 81 73 41 39 73 68 71 62 -2 -5 -20 -48 -39 -93 -39 -94
-44 -98 -157 -130 -68 -19 -73 -19 -73 -3 0 24 53 178 77 226 19 36 26 40 89
56 78 19 114 23 114 11z m3210 -105 l105 -52 7 -80 c4 -43 10 -85 12 -92 12
-32 -14 -6 -79 77 -61 78 -85 98 -85 71 0 -5 31 -46 68 -93 98 -119 105 -132
97 -168 -7 -34 -26 -38 -78 -16 -86 35 -145 156 -181 369 -9 51 5 49 134 -16z
m219 -59 c42 -22 97 -57 123 -77 l48 -35 0 -88 c0 -48 -4 -89 -9 -92 -7 -5
-60 68 -142 197 -4 5 -12 7 -18 3 -7 -5 9 -37 44 -88 30 -45 53 -83 51 -85 -8
-8 -164 104 -170 122 -10 35 -19 185 -11 185 5 0 42 -19 84 -42z m340 -47 c83
-122 85 -131 11 -77 -35 26 -69 50 -77 54 -9 6 -11 22 -6 60 3 29 7 52 8 52 2
0 30 -40 64 -89z m-4299 -16 c-11 -38 -19 -79 -19 -90 -1 -16 -13 -25 -51 -36
-27 -9 -50 -12 -50 -7 0 11 131 211 135 206 2 -2 -5 -34 -15 -73z m3616 -29
c12 -36 19 -66 16 -66 -8 0 -132 122 -132 130 0 3 21 4 47 4 l46 -1 23 -67z
m-2224 27 c57 -20 106 -39 110 -42 4 -4 -32 -45 -80 -92 l-87 -86 -210 -42
c-115 -24 -217 -43 -225 -44 -18 -2 -74 242 -56 249 10 3 420 91 438 93 3 1
53 -15 110 -36z m-632 24 c0 -1 -31 -34 -70 -72 l-70 -69 0 51 0 51 63 20 c65
21 77 24 77 19z m3569 -130 c99 -76 148 -162 138 -239 -7 -52 -21 -66 -44 -46
-10 8 -25 17 -33 20 -8 3 -43 58 -78 122 -57 104 -82 137 -82 105 0 -6 26 -58
59 -117 91 -166 90 -163 25 -102 -33 30 -81 73 -107 95 l-47 40 -7 102 c-8
140 -7 142 64 97 32 -20 82 -55 112 -77z m-3729 48 c0 -91 -67 -164 -215 -235
-55 -27 -113 -52 -129 -56 l-29 -7 7 51 c3 28 16 85 29 127 l22 76 88 30 c48
16 90 29 93 29 3 0 -29 -41 -72 -91 -50 -59 -73 -94 -67 -100 7 -7 40 26 98
95 89 106 98 113 148 115 25 1 27 -2 27 -34z m-370 -60 c0 -3 -31 -52 -69
-109 -63 -94 -73 -116 -50 -116 4 0 30 36 59 81 28 44 54 79 56 77 2 -3 -3
-36 -11 -74 -8 -38 -15 -79 -15 -90 0 -13 -14 -31 -38 -46 -41 -27 -137 -78
-148 -78 -9 0 5 144 23 223 l15 68 71 34 c67 31 107 42 107 30z m3847 -142
l33 -28 -8 -99 -7 -100 -54 105 c-64 123 -57 113 -71 104 -7 -4 12 -49 54
-130 61 -115 65 -125 55 -159 -9 -32 -13 -36 -32 -30 -76 23 -119 81 -142 191
-15 68 -21 254 -9 266 7 7 129 -74 181 -120z m-4105 80 c2 -31 -9 -61 -60
-157 -41 -76 -60 -122 -54 -128 10 -10 45 48 116 191 21 40 39 71 41 69 3 -2
-2 -36 -10 -74 -8 -38 -15 -92 -15 -119 0 -29 -7 -60 -15 -73 -14 -19 -92 -79
-169 -128 l-29 -18 5 144 c7 199 34 268 123 314 49 26 63 21 67 -21z m3520 0
c14 -16 43 -59 63 -96 l37 -68 -6 -127 c-9 -156 -23 -295 -36 -343 -6 -20 -21
-48 -35 -63 -23 -25 -28 -26 -135 -26 -60 0 -110 3 -110 6 0 3 18 28 40 54
l41 49 -44 44 c-47 47 -71 102 -82 195 -7 50 -25 74 -25 32 0 -25 -11 -25 -44
1 -30 23 -36 78 -11 99 9 7 49 13 102 14 59 1 88 5 90 14 4 9 -13 12 -61 12
-65 0 -87 12 -43 24 12 3 55 6 95 6 41 0 72 4 72 10 0 6 -29 10 -67 10 -62 1
-66 2 -49 15 14 10 45 15 97 15 43 0 81 5 84 10 4 6 -28 10 -87 10 l-94 0 -87
-66 c-70 -54 -88 -72 -93 -99 -8 -46 13 -86 59 -108 20 -10 37 -23 37 -28 0
-5 -64 -9 -145 -9 l-145 0 6 28 c4 15 11 37 15 50 13 35 11 42 -15 42 -34 0
-69 38 -104 111 -36 75 -65 105 -119 124 -28 10 -37 18 -35 32 2 10 7 21 10
24 6 5 492 -51 654 -75 31 -5 38 -3 43 15 10 31 65 89 84 89 10 0 29 -12 43
-27z m353 -88 c17 -1 21 -11 26 -71 5 -65 2 -94 -8 -68 -2 7 -26 44 -53 84
l-50 72 33 -8 c17 -4 41 -8 52 -9z m362 -36 c29 -23 77 -68 106 -99 l54 -58
-14 -83 c-13 -74 -26 -112 -36 -98 -2 2 -23 54 -47 114 -47 119 -56 136 -65
114 -3 -8 11 -52 30 -97 19 -46 35 -86 35 -90 0 -4 -34 27 -75 68 -72 71 -74
75 -70 114 3 23 7 67 10 99 4 31 9 57 12 57 4 0 30 -19 60 -41z m-3719 24 c-7
-16 -101 -153 -103 -151 -1 2 -5 24 -9 50 l-7 46 53 30 c55 31 72 37 66 25z
m682 -17 c0 -8 2 -21 6 -29 7 -19 -56 -33 -68 -15 -13 22 -9 46 10 51 34 9 52
7 52 -7z m3389 -159 c22 -54 41 -102 41 -108 0 -6 -18 11 -41 38 -22 26 -51
58 -64 70 -23 20 -24 24 -12 72 15 63 21 58 76 -72z m-4206 64 c16 -63 -8
-117 -87 -196 -73 -73 -204 -167 -220 -157 -5 3 -6 58 -3 126 5 101 9 123 24
134 34 25 148 90 151 87 2 -2 -21 -48 -51 -102 -35 -63 -51 -102 -45 -108 10
-11 8 -14 88 130 71 129 123 160 143 86z m-602 -74 l-6 -98 -42 -19 c-24 -10
-43 -15 -43 -11 0 16 91 234 95 229 1 -2 -1 -47 -4 -101z m1507 91 c16 -16 15
-44 -4 -73 -18 -28 -10 -53 12 -34 25 20 29 -19 5 -51 -27 -38 -27 -44 4 -36
21 5 25 3 25 -16 0 -13 -7 -32 -15 -42 -22 -29 -18 -39 10 -32 35 9 33 -20 -4
-64 -24 -30 -46 -40 -142 -70 -110 -35 -114 -37 -125 -70 l-12 -35 -131 -3
c-93 -2 -131 1 -131 9 0 23 32 134 47 164 36 70 242 313 287 337 47 26 155 35
174 16z m3241 -127 c122 -126 164 -214 147 -303 -4 -18 -13 -41 -21 -52 -13
-18 -15 -18 -44 5 -24 20 -37 48 -71 152 -22 70 -45 127 -50 127 -16 0 -12
-18 30 -150 42 -132 50 -175 23 -125 -20 38 -67 100 -111 147 -35 36 -35 38
-29 105 7 87 28 173 40 173 6 0 45 -35 86 -79z m-227 -153 l29 -38 -23 -90
c-12 -49 -25 -90 -28 -90 -3 0 -18 46 -34 103 -34 119 -35 122 -48 109 -6 -6
4 -53 27 -133 34 -112 36 -126 24 -161 -7 -21 -19 -38 -27 -38 -25 0 -89 73
-101 115 -20 74 -12 215 20 339 l11 39 60 -59 c33 -32 73 -76 90 -96z m-4313
25 c-34 -78 -47 -119 -40 -126 10 -10 27 22 68 128 26 66 30 60 31 -47 l0
-103 -65 -55 c-71 -60 -92 -74 -100 -67 -3 3 -7 68 -10 145 l-6 140 69 50
c106 78 111 73 53 -65z m-197 -4 c5 -25 -3 -67 -30 -161 -31 -112 -37 -156
-16 -135 3 3 23 65 45 137 21 72 42 137 46 144 4 8 8 -29 8 -82 1 -53 4 -116
8 -139 7 -42 7 -42 -75 -128 -44 -47 -85 -82 -89 -78 -16 17 -39 166 -39 255
0 110 22 168 79 206 43 28 54 25 63 -19z m4282 11 c22 0 23 -8 12 -84 l-11
-69 -35 84 c-19 46 -37 88 -39 92 -2 5 11 2 27 -7 17 -9 38 -16 46 -16z
m-3787 -78 c-17 -45 -34 -81 -37 -81 -3 0 -13 18 -24 40 l-18 40 23 17 c13 9
37 28 54 43 16 15 31 26 32 25 2 -1 -12 -39 -30 -84z m4156 -53 c29 -37 66
-88 81 -113 l27 -47 -27 -72 c-31 -80 -44 -102 -54 -90 -4 4 -17 61 -30 126
-12 64 -26 117 -30 117 -16 0 -16 -16 1 -102 11 -50 18 -93 16 -94 -2 -2 -28
33 -59 78 l-56 82 19 66 c25 91 38 122 48 118 5 -2 34 -33 64 -69z m-4237 -4
c27 -65 15 -123 -45 -215 -36 -55 -178 -206 -186 -198 -7 6 -33 145 -39 204
l-5 51 70 63 c39 34 72 60 74 58 2 -2 -11 -51 -29 -108 -32 -100 -36 -127 -16
-115 5 3 27 63 49 133 34 106 45 130 68 144 38 24 42 23 59 -17z m1101 -72
c14 -58 8 -73 -27 -73 -24 0 -29 5 -35 33 -4 17 -9 39 -11 49 -4 14 25 33 57
37 3 1 10 -20 16 -46z m-93 -14 c12 -59 12 -59 -69 -59 -78 0 -89 8 -62 42 9
13 87 44 118 47 4 1 9 -13 13 -30z m3525 -94 c28 -146 27 -151 -15 -75 -20 36
-43 73 -51 82 -14 16 -14 22 8 68 13 27 26 46 30 42 3 -4 16 -56 28 -117z
m-5128 -132 c-20 -18 -39 -32 -42 -33 -6 0 23 177 37 230 5 19 11 2 24 -70
l18 -95 -37 -32z m5043 118 c127 -190 150 -330 67 -405 -12 -11 -21 -14 -21
-8 0 7 -9 21 -20 32 -16 16 -23 47 -35 152 -9 73 -17 134 -20 136 -18 18 -19
-24 -4 -153 15 -141 16 -191 2 -135 -3 14 -30 72 -59 128 l-52 104 19 56 c30
87 62 162 70 162 3 0 27 -31 53 -69z m-306 -18 c22 -32 51 -82 66 -112 l27
-53 -43 -86 -43 -85 -8 84 c-12 124 -17 149 -29 149 -10 0 -7 -104 8 -230 4
-38 1 -50 -20 -75 l-24 -30 -27 25 c-58 53 -70 141 -36 265 20 70 76 205 85
205 3 0 23 -26 44 -57z m-711 -110 c-31 -713 -344 -1464 -866 -2073 -143 -167
-431 -445 -573 -554 l-38 -28 -117 98 c-675 566 -1153 1352 -1299 2134 -30
164 -54 376 -54 488 l0 82 1477 0 1476 0 -6 -147z m-3767 26 c-11 -57 -22
-114 -25 -126 -4 -16 -1 -23 9 -23 9 0 19 28 31 93 19 97 35 134 35 78 0 -17
7 -63 16 -102 l16 -70 -41 -52 c-22 -29 -51 -65 -65 -82 l-25 -29 -11 29 c-21
56 -48 164 -55 217 l-6 53 56 57 c48 50 74 70 82 63 2 -1 -6 -48 -17 -106z
m4300 61 c14 -11 31 -20 39 -20 9 0 11 -7 7 -22 -4 -13 -12 -44 -19 -70 -7
-26 -15 -50 -18 -53 -3 -3 -12 28 -19 67 -7 40 -16 83 -21 96 -10 27 -2 28 31
2z m-3998 -93 c-9 -48 -19 -87 -22 -87 -12 1 -50 73 -43 83 11 20 77 97 79 94
2 -1 -5 -42 -14 -90z m-500 -23 c15 -32 15 -51 6 -165 -10 -119 -8 -152 8
-136 4 3 12 71 18 151 6 80 14 148 18 151 3 3 8 -17 12 -46 4 -28 18 -87 32
-131 22 -70 24 -84 13 -111 -15 -36 -106 -177 -114 -177 -4 0 -19 28 -35 63
-91 202 -94 349 -7 419 29 23 29 23 49 -18z m445 -67 c22 -44 13 -138 -20
-212 -29 -63 -127 -215 -139 -215 -8 0 -62 138 -79 202 -12 44 -12 44 34 100
25 31 50 65 55 75 6 10 13 16 16 13 4 -5 -4 -99 -18 -197 -4 -24 -1 -33 10
-33 8 0 14 3 14 8 0 4 7 65 15 136 14 122 16 131 42 152 32 25 44 20 70 -29z
m4439 -72 c63 -132 63 -131 14 -213 -65 -108 -70 -104 -70 48 0 109 -2 130
-15 130 -12 0 -15 -18 -16 -102 0 -83 -2 -98 -11 -78 -6 14 -24 54 -40 90 -33
75 -32 79 29 189 42 76 41 77 109 -64z m233 -207 c0 -105 -3 -127 -11 -103 -6
17 -21 58 -35 92 l-24 63 33 40 c18 22 34 40 36 40 1 0 2 -60 1 -132z m-389
60 c32 -75 60 -158 60 -179 0 -16 -109 -164 -115 -157 -1 2 4 53 11 113 7 64
9 114 4 119 -14 14 -19 -7 -33 -142 -13 -116 -15 -125 -44 -154 l-30 -30 -24
34 c-36 50 -34 151 4 233 29 63 127 215 138 215 4 0 17 -24 29 -52z m-4815
-76 l27 -72 -29 -34 c-15 -19 -31 -35 -35 -35 -5 -1 -8 56 -7 127 0 80 4 120
9 107 5 -11 21 -53 35 -93z m4682 42 c3 0 -67 -134 -70 -134 -1 0 -2 45 -2
100 l0 99 35 -32 c19 -18 36 -32 37 -33z m442 -22 c44 -107 61 -176 61 -250 0
-68 -8 -92 -48 -134 -31 -34 -48 -35 -58 -5 -4 12 -10 24 -15 27 -4 3 -2 67 5
143 11 127 8 165 -9 137 -4 -6 -12 -74 -18 -150 -7 -76 -15 -141 -18 -144 -3
-4 -9 15 -13 41 -3 26 -18 85 -31 130 l-26 83 22 42 c29 57 98 158 108 158 4
0 22 -35 40 -78z m-4573 -27 c0 -52 -1 -95 -3 -95 -2 0 -18 14 -36 31 l-33 32
34 63 c18 35 34 64 35 64 1 0 3 -43 3 -95z m-304 -50 c4 -156 22 -173 26 -25
l3 105 40 -95 c39 -93 39 -96 24 -135 -18 -48 -72 -135 -83 -135 -10 0 -95
169 -112 222 -11 36 -9 41 26 100 45 76 54 88 65 88 5 0 10 -56 11 -125z m244
-30 c56 -39 70 -160 33 -281 -21 -69 -74 -194 -82 -194 -7 0 -93 132 -117 180
l-22 43 42 84 c24 46 44 82 46 81 1 -2 8 -53 14 -113 6 -60 13 -111 15 -113
17 -17 19 26 9 139 -12 127 -12 134 7 161 23 32 27 33 55 13z m-435 -37 c7
-13 16 -26 21 -29 6 -4 17 -66 25 -140 8 -73 16 -136 19 -138 18 -18 19 33 5
157 -9 79 -15 145 -12 147 2 3 16 -25 31 -63 15 -37 42 -91 59 -121 l32 -53
-22 -67 c-12 -36 -32 -88 -45 -115 l-22 -48 -46 62 c-94 128 -143 264 -122
342 8 32 44 88 56 88 5 0 15 -10 21 -22z m4904 -86 c13 -44 26 -105 30 -135
l7 -55 -57 -61 c-61 -64 -89 -78 -80 -38 23 99 44 221 39 229 -12 18 -21 -7
-39 -99 -17 -93 -35 -122 -35 -60 0 17 -7 57 -15 87 -8 30 -15 60 -15 67 0 22
122 165 132 155 5 -5 20 -46 33 -90z m-339 -122 l27 -40 -43 -55 c-24 -31 -45
-54 -47 -52 -2 2 3 33 12 68 8 35 15 76 15 92 0 15 2 27 5 27 3 0 17 -18 31
-40z m172 -60 c6 -36 14 -88 17 -115 l6 -50 -72 -63 c-40 -34 -74 -60 -76 -59
-1 2 10 41 25 88 41 120 45 139 30 139 -8 0 -30 -53 -55 -132 -38 -120 -45
-135 -74 -151 -37 -20 -41 -17 -61 46 -24 79 28 182 158 314 85 87 85 87 102
-17z m-4200 -23 c10 -48 16 -86 13 -85 -45 23 -81 53 -77 65 3 7 13 39 22 71
10 31 19 53 20 47 2 -5 12 -50 22 -98z m4588 21 c-3 -13 -12 -61 -21 -108 -25
-132 -27 -133 -45 -25 -10 57 -13 102 -8 104 5 2 21 14 36 27 34 30 44 30 38
2z m-4877 -118 c22 -112 33 -142 44 -122 3 4 -3 50 -14 101 -10 52 -18 95 -16
97 1 2 28 -35 59 -82 l56 -85 -18 -68 c-11 -37 -24 -80 -30 -95 l-11 -29 -25
24 c-32 30 -116 143 -137 185 -15 30 -15 35 8 95 13 35 26 72 29 82 3 9 11 17
19 17 9 0 20 -38 36 -120z m4769 68 c37 -166 35 -292 -6 -362 -16 -28 -74 -76
-92 -76 -4 0 -12 18 -18 40 -9 35 -5 57 28 167 21 73 33 130 28 132 -16 5 -21
-9 -63 -154 -21 -74 -41 -135 -44 -135 -3 0 -5 26 -3 57 2 32 -1 92 -6 133 -9
72 -9 76 16 110 31 41 131 140 141 140 4 0 13 -24 19 -52z m-5004 -91 c19 -28
19 -29 -4 -74 -28 -56 -31 -51 -59 84 -27 133 -27 137 12 72 18 -30 41 -67 51
-82z m506 17 c48 -43 60 -82 60 -190 0 -85 -25 -231 -42 -249 -6 -7 -33 14
-78 62 -106 111 -104 106 -80 199 12 44 24 86 27 94 3 8 20 -34 37 -94 18 -61
38 -112 44 -114 18 -6 15 7 -24 138 -32 109 -34 124 -23 155 7 19 19 35 26 35
7 0 31 -16 53 -36z m4294 -100 c3 -26 6 -91 6 -144 l0 -98 -70 -51 c-69 -50
-90 -60 -90 -42 0 5 21 59 46 120 43 103 50 132 26 117 -4 -3 -24 -43 -43 -90
-19 -47 -36 -86 -39 -86 -3 0 -5 45 -5 100 l0 101 70 59 c39 33 75 59 81 60 6
0 14 -21 18 -46z m-4718 -14 c7 0 15 -8 18 -17 35 -120 79 -253 85 -253 19 0
16 20 -25 148 -24 75 -44 141 -44 147 0 5 16 -15 36 -45 20 -30 56 -78 80
-107 36 -42 44 -58 44 -91 0 -45 -26 -192 -36 -201 -3 -3 -46 35 -94 86 -110
115 -155 197 -148 272 3 28 13 62 23 77 l18 28 15 -22 c8 -12 20 -22 28 -22z
m4383 -143 c-2 -1 -28 -22 -56 -45 -29 -24 -53 -41 -53 -39 0 2 12 32 26 68
15 35 31 75 36 89 9 24 10 24 30 -23 11 -26 19 -49 17 -50z m-3823 -17 c27
-66 30 -80 16 -75 -9 4 -27 10 -40 12 -12 3 -25 9 -27 14 -7 10 6 141 13 135
2 -3 19 -42 38 -86z m3964 -7 c0 -43 -3 -102 -6 -130 l-7 -53 -79 -46 c-44
-25 -81 -44 -83 -42 -2 2 19 44 47 93 62 112 63 115 46 115 -9 0 -42 -50 -77
-115 -46 -85 -71 -119 -93 -131 -39 -20 -54 -13 -62 30 -11 58 12 113 77 183
51 55 207 172 230 173 4 0 7 -35 7 -77z m-4231 -141 c46 -112 56 -130 68 -119
4 4 -8 42 -26 85 -50 116 -49 117 33 36 l77 -75 -11 -97 c-6 -53 -12 -97 -14
-99 -7 -7 -156 119 -187 158 l-32 41 12 81 c20 129 23 128 80 -11z m4489 -64
c-7 -195 -37 -270 -122 -309 -60 -27 -66 -25 -65 24 1 30 18 75 62 160 33 64
57 121 53 125 -11 10 -30 -19 -97 -151 -33 -65 -62 -117 -64 -115 -2 2 0 21 5
43 6 22 14 80 19 129 7 60 16 95 28 108 21 24 164 127 177 128 5 0 6 -64 4
-142z m82 17 c-39 -97 -70 -148 -56 -95 3 14 6 58 6 97 l0 73 34 14 c18 8 37
20 42 27 7 11 9 11 12 -2 1 -8 -15 -60 -38 -114z m-4303 95 c45 -27 80 -84 97
-160 18 -77 22 -280 5 -280 -16 0 -151 95 -181 127 -24 27 -25 32 -20 116 4
84 13 106 27 70 3 -10 27 -56 52 -101 70 -130 72 -84 1 53 -54 106 -60 124
-54 158 8 43 24 47 73 17z m-524 -86 l57 -61 -13 -54 -14 -54 -16 31 c-20 39
-87 201 -87 210 0 5 4 4 8 -1 5 -6 34 -37 65 -71z m4513 -101 c-4 -43 -14
-108 -22 -145 l-15 -66 -76 -36 c-70 -34 -103 -43 -103 -31 0 3 32 53 70 110
39 57 70 107 70 110 0 3 -6 5 -14 5 -7 0 -37 -36 -66 -80 -29 -44 -55 -79 -57
-77 -2 2 3 33 12 68 8 35 15 76 15 91 0 18 9 33 28 46 36 26 142 82 155 82 6
0 7 -28 3 -77z m-355 -41 c2 -7 -24 -28 -60 -48 -35 -20 -62 -33 -60 -28 2 5
26 43 54 84 l49 75 7 -35 c3 -19 8 -41 10 -48z m-3866 -57 c79 -66 83 -77 84
-217 1 -58 -2 -78 -12 -78 -19 0 -154 94 -206 143 -70 68 -95 113 -95 178 -1
34 5 63 13 73 13 16 15 15 36 -4 12 -11 25 -20 31 -20 5 0 38 -54 73 -119 43
-83 67 -118 77 -114 11 4 9 14 -10 47 -75 132 -126 227 -126 233 1 5 15 -8 33
-28 18 -20 64 -62 102 -94z m418 42 c26 -40 47 -76 47 -78 0 -3 -20 -1 -45 5
-28 7 -45 16 -46 26 -1 15 -5 43 -14 93 -2 15 -1 27 3 27 4 0 28 -33 55 -73z
m3586 -34 c-5 -27 -18 -82 -30 -124 l-21 -76 -89 -30 c-49 -16 -89 -26 -89
-23 0 3 32 43 71 88 48 56 68 87 61 94 -7 7 -39 -25 -98 -95 -71 -86 -94 -107
-121 -112 -47 -9 -56 1 -50 51 7 63 45 115 126 169 68 44 229 117 242 109 4
-2 3 -25 -2 -51z m-3542 -80 c48 -23 97 -94 126 -183 28 -85 52 -208 43 -217
-7 -8 -146 50 -197 82 -28 19 -39 33 -43 57 -2 18 -9 59 -14 91 -5 31 -6 57
-2 57 4 0 37 -38 74 -85 37 -47 71 -85 75 -85 24 0 11 23 -68 120 -80 98 -87
110 -83 143 4 32 8 37 29 37 14 0 41 -8 60 -17z m-266 -100 c35 -54 65 -100
66 -102 2 -3 8 0 13 5 6 6 -10 39 -45 92 -30 45 -55 83 -55 86 0 8 165 -105
172 -119 5 -7 11 -55 15 -106 l6 -92 -79 42 c-43 22 -101 58 -129 79 l-50 38
-3 78 c-4 80 2 111 16 102 5 -3 37 -49 73 -103z m4033 -35 c-43 -226 -112
-334 -220 -341 l-38 -2 3 39 c2 31 19 58 88 143 56 68 82 108 76 114 -7 7 -44
-32 -108 -111 -53 -66 -99 -120 -101 -120 -1 0 7 24 20 53 24 55 38 95 56 165
10 39 16 45 83 78 80 41 139 63 148 58 4 -2 1 -36 -7 -76z m119 23 c-118 -183
-144 -215 -122 -153 5 15 15 56 22 91 l13 65 45 12 c24 6 48 12 52 13 5 0 1
-12 -10 -28z m-733 -50 l0 -48 -57 -17 c-32 -10 -65 -20 -73 -23 -8 -3 16 27
55 66 38 39 71 71 72 71 2 0 3 -22 3 -49z m-3652 -28 c49 -34 53 -40 48 -66
-3 -16 -6 -38 -6 -49 0 -10 -4 -17 -9 -14 -11 7 -131 182 -131 191 0 4 10 0
23 -9 12 -9 46 -33 75 -53z m707 -3 l69 -70 -49 0 -50 0 -21 70 c-12 39 -21
70 -20 70 1 0 33 -31 71 -70z m3315 32 c0 -34 -74 -235 -95 -260 -7 -9 -168
-41 -177 -36 -6 4 31 48 82 99 62 62 88 95 80 100 -8 5 -40 -20 -87 -66 -42
-41 -73 -67 -70 -59 4 8 21 52 39 98 l33 82 90 30 c108 35 105 35 105 12z
m-230 -61 c0 -14 -56 -141 -84 -192 l-26 -46 -73 -6 c-39 -3 -80 -9 -91 -13
-36 -14 -11 14 72 80 76 62 96 86 72 86 -6 0 -58 -39 -116 -86 -95 -77 -109
-85 -142 -82 -35 3 -37 4 -34 37 8 99 111 169 312 211 100 22 110 23 110 11z
m-3583 -35 c27 -18 76 -48 110 -65 34 -17 67 -40 73 -50 12 -23 50 -177 50
-204 0 -22 -11 -19 -120 27 -166 70 -250 153 -250 246 0 55 6 63 34 47 11 -6
26 -12 33 -12 7 0 51 -46 98 -103 47 -56 90 -102 95 -102 27 0 10 24 -168 233
-23 26 -7 21 45 -17z m616 -62 c43 -28 87 -85 128 -166 34 -67 73 -168 67
-173 -6 -7 -180 31 -219 48 -32 13 -38 22 -66 101 -16 47 -27 86 -24 86 3 0
44 -32 90 -70 47 -39 88 -70 93 -70 26 0 -5 35 -97 110 -74 60 -105 91 -105
107 0 12 -3 28 -6 36 -13 35 81 29 139 -9z m-200 -214 c21 0 -1 33 -63 95 -38
38 -68 70 -66 72 1 2 25 -8 52 -21 27 -13 67 -29 89 -36 49 -16 49 -16 80
-113 30 -93 30 -97 7 -97 -22 0 -135 38 -208 69 l-51 22 -20 82 c-11 45 -18
88 -15 95 3 9 37 -18 96 -77 50 -50 95 -91 99 -91z m2720 99 l-5 -47 -72 -4
c-39 -3 -72 -4 -73 -3 -1 0 33 24 75 52 42 28 78 50 79 50 0 -1 -1 -23 -4 -48z
m-2326 -11 l78 -52 -36 -8 c-20 -4 -42 -8 -48 -10 -6 -2 -27 25 -46 60 -19 34
-33 62 -30 62 2 0 40 -23 82 -52z m2958 -20 c-20 -64 -72 -176 -107 -229 -62
-93 -130 -133 -206 -121 -26 3 -32 8 -26 21 3 9 9 25 11 36 2 11 51 58 108
105 94 76 123 110 96 110 -5 0 -60 -43 -122 -95 -62 -52 -115 -93 -117 -90 -2
2 7 19 21 37 14 18 45 69 68 112 49 87 55 92 188 120 92 20 94 20 86 -6z
m-265 -29 c0 -19 -68 -142 -108 -194 l-38 -50 -79 -5 c-129 -8 -129 2 -4 84
72 48 106 75 101 83 -6 9 -32 -4 -90 -42 -45 -30 -83 -55 -86 -55 -3 0 98 156
109 168 4 4 122 19 163 21 17 0 32 -4 32 -10z m295 -99 c-49 -49 -91 -87 -93
-85 -3 3 1 11 7 19 7 8 25 45 41 83 l29 68 48 5 c26 3 50 4 52 2 3 -1 -35 -43
-84 -92z m-546 81 c11 -7 3 -24 -38 -82 -28 -41 -62 -87 -76 -102 l-25 -28
-97 8 -98 8 95 49 c106 54 115 60 106 74 -3 6 -57 -17 -126 -54 -66 -35 -125
-62 -132 -60 -7 3 -25 7 -41 10 l-27 6 15 38 c22 51 49 77 107 102 76 33 301
53 337 31z m-3152 -61 l71 -32 4 -47 c3 -25 3 -48 1 -51 -2 -2 -43 36 -91 84
-48 49 -80 86 -72 83 8 -3 47 -20 87 -37z m863 20 c21 -11 62 -43 90 -72 49
-50 150 -190 150 -209 0 -10 -189 -10 -232 0 -22 5 -38 24 -73 85 -25 44 -44
80 -42 82 1 1 46 -22 101 -53 60 -33 102 -51 108 -45 11 11 -5 22 -135 91 -82
45 -100 59 -113 89 -11 28 -12 37 -2 44 24 15 108 8 148 -12z m-537 -84 l102
-32 42 -84 c23 -47 45 -97 48 -112 7 -27 6 -28 -26 -22 -266 47 -376 111 -387
225 l-5 49 28 -10 c14 -6 31 -8 36 -4 5 3 56 -33 113 -80 57 -47 109 -86 115
-86 27 0 3 26 -109 116 -66 53 -120 98 -120 100 0 3 14 -3 31 -11 17 -9 76
-31 132 -49z m2358 2 l-19 -45 -53 8 c-30 4 -63 8 -74 8 -11 1 17 16 63 35 46
19 86 36 89 40 15 14 12 -4 -6 -46z m-1543 -37 c-7 -2 -28 -10 -46 -19 l-33
-15 -44 49 c-24 27 -44 52 -45 55 0 4 41 -9 90 -29 50 -20 85 -38 78 -41z
m-446 -113 c7 7 -18 29 -76 68 -47 31 -85 58 -84 60 8 7 193 -36 204 -48 7 -7
32 -49 55 -92 l42 -79 -80 6 c-44 3 -111 13 -149 22 l-69 15 -36 77 c-20 43
-35 83 -32 90 3 8 42 -12 110 -58 71 -48 108 -68 115 -61z m541 78 c26 -8 75
-34 109 -59 83 -60 185 -164 173 -176 -11 -10 -181 -41 -224 -41 -20 0 -41 17
-88 73 -33 39 -60 73 -59 74 2 2 40 -10 87 -25 120 -41 139 -45 139 -29 0 8
-48 28 -126 52 -93 28 -130 45 -145 63 -27 35 -24 48 19 65 47 20 58 20 115 3z
m1456 -6 c51 -10 96 -22 100 -26 7 -8 -154 -161 -178 -169 -20 -6 -199 39
-185 47 5 2 55 18 112 34 60 17 102 34 102 41 0 17 4 18 -136 -23 -122 -36
-151 -38 -187 -12 -16 12 -16 15 5 45 24 34 63 60 106 73 48 15 165 10 261
-10z m-1275 -25 c26 -4 57 -15 69 -25 l22 -18 -25 -20 -25 -20 -50 41 c-67 54
-74 61 -54 54 9 -3 37 -9 63 -12z m906 9 c0 -5 -20 -37 -46 -72 -4 -6 -114 32
-114 39 0 5 17 11 38 15 20 3 51 10 67 14 38 10 55 12 55 4z m693 -23 c9 -1
17 -6 17 -12 0 -18 -108 -146 -154 -183 -41 -33 -41 -33 -106 -24 -76 12 -113
25 -106 37 3 5 53 28 111 51 58 23 108 47 111 52 14 23 -12 19 -94 -16 -48
-20 -90 -36 -93 -36 -3 0 27 33 67 73 l73 73 78 -7 c43 -4 86 -8 96 -8z m287
-29 c0 -17 -104 -159 -153 -210 -81 -82 -164 -111 -231 -81 -24 11 -24 12 -8
45 14 27 42 46 140 100 83 44 120 70 113 77 -6 6 -53 -14 -141 -62 -73 -40
-134 -70 -137 -67 -3 3 2 8 11 12 14 5 53 48 156 172 17 20 26 22 134 22 64 0
116 -4 116 -8z m-1032 -53 c40 -15 84 -35 98 -42 l26 -14 -68 -45 c-38 -25
-90 -56 -115 -68 l-46 -22 -88 43 -89 44 120 11 c139 14 127 11 118 25 -6 10
-117 6 -199 -7 -28 -4 -25 -1 35 56 75 70 80 70 208 19z m-684 -16 c28 -26 52
-50 54 -54 1 -3 -21 -4 -50 -1 -41 3 -60 11 -82 33 -29 28 -29 29 -11 49 10
11 23 20 28 20 5 0 33 -21 61 -47z m1789 7 c17 0 26 -4 22 -10 -5 -9 -147
-107 -192 -134 -7 -4 13 30 45 74 46 65 61 80 77 76 11 -3 33 -6 48 -6z
m-2970 -55 c24 -4 48 -10 53 -13 10 -7 38 -91 32 -97 -4 -5 -194 121 -202 134
-4 6 9 5 33 -4 22 -7 59 -17 84 -20z m234 16 c32 -5 87 -13 123 -16 73 -8 74
-9 157 -127 25 -38 43 -71 39 -75 -4 -5 -56 -7 -114 -7 -177 2 -291 44 -326
119 -28 58 -22 72 27 70 31 -2 76 -19 155 -60 62 -32 116 -55 120 -51 10 11
-20 31 -138 91 -106 55 -152 82 -118 71 9 -2 43 -9 75 -15z m564 -67 c34 -41
59 -77 57 -79 -9 -9 -206 -22 -250 -16 -43 6 -50 11 -96 72 -27 37 -46 72 -43
78 5 8 43 -4 119 -35 104 -44 133 -50 118 -26 -3 5 -42 24 -86 42 -44 18 -82
35 -84 39 -2 3 43 5 100 3 l104 -3 61 -75z m1340 20 l81 -26 -23 -25 c-30 -32
-144 -115 -187 -137 -32 -16 -35 -16 -97 9 -35 14 -68 25 -73 25 -5 0 -15 7
-22 15 -10 12 -8 15 12 20 30 7 219 45 224 45 2 0 4 6 4 14 0 11 -16 10 -87
-5 -49 -10 -94 -18 -102 -19 -8 0 21 24 65 54 43 30 89 55 101 55 12 1 59 -11
104 -25z m-800 -54 l51 -40 -27 -10 c-14 -5 -33 -10 -42 -10 -16 0 -153 99
-153 111 0 3 27 2 60 -3 48 -6 70 -16 111 -48z m209 20 c-8 -5 -19 -10 -25
-10 -5 0 -3 5 5 10 8 5 20 10 25 10 6 0 3 -5 -5 -10z m-316 -60 c42 -33 76
-64 76 -69 0 -10 -127 -49 -211 -63 l-67 -12 -66 58 c-64 57 -85 93 -48 82 52
-15 235 -47 240 -42 12 13 -16 24 -108 42 -104 19 -105 16 25 48 33 7 65 14
72 15 6 1 46 -26 87 -59z m461 0 c38 -20 71 -42 72 -47 4 -11 -163 -96 -222
-113 -39 -11 -44 -10 -113 31 -107 65 -104 69 48 69 109 0 130 2 130 15 0 12
-18 15 -102 15 l-103 0 83 34 c46 19 86 36 89 40 10 9 41 -2 118 -44z m686 24
c46 -8 88 -19 92 -23 13 -13 -164 -174 -230 -208 -70 -38 -131 -43 -188 -16
-40 19 -43 28 -15 43 11 6 20 16 20 23 0 8 55 30 135 55 74 23 135 47 135 52
0 16 -21 12 -156 -30 -71 -22 -132 -40 -137 -40 -5 0 17 18 49 40 33 21 79 57
104 79 52 46 68 48 191 25z m-1416 -147 c80 -75 80 -75 54 -85 -50 -20 -231
-45 -284 -39 -75 8 -140 39 -165 79 -27 45 -26 51 16 64 31 10 50 7 147 -21
137 -41 149 -43 154 -29 2 7 -58 29 -148 55 l-153 44 128 7 c70 3 130 9 133
12 10 9 36 -10 118 -87z m1537 54 c13 -5 32 -12 43 -16 18 -6 16 -9 -16 -25
-36 -19 -185 -80 -194 -80 -8 0 129 129 137 130 4 0 17 -4 30 -9z m-574 -51
c45 -18 82 -36 82 -41 0 -26 -198 -140 -285 -164 -71 -20 -127 -10 -172 30
-28 25 -28 25 -8 40 11 8 25 19 32 25 7 5 72 17 144 25 72 8 134 17 137 19 15
16 -43 16 -170 3 -78 -9 -144 -15 -145 -13 -2 2 27 15 64 29 38 15 91 41 118
57 61 37 88 35 203 -10z m-1495 10 l82 -1 22 -47 c12 -25 21 -47 20 -48 -5 -4
-223 88 -232 98 -7 8 -5 9 8 4 10 -3 55 -6 100 -6z m953 -24 c34 -19 82 -49
105 -65 l42 -31 -64 -29 c-149 -67 -299 -93 -359 -62 -34 18 -80 62 -80 77 0
7 14 15 30 19 17 4 30 10 30 15 0 5 10 7 23 5 12 -2 63 -6 112 -10 50 -3 102
-8 118 -11 20 -4 27 -2 27 10 0 9 -8 16 -17 16 -34 0 -249 21 -273 27 -18 4
-5 9 50 19 41 7 100 22 130 33 30 11 57 20 59 20 2 1 33 -14 67 -33z m655
-111 c29 -16 38 -26 29 -29 -22 -8 -210 -46 -228 -46 -13 0 131 96 149 99 4 1
26 -10 50 -24z m-1030 -17 c6 -13 21 -34 33 -47 l21 -23 -30 5 c-16 4 -70 14
-120 23 -108 20 -137 33 -80 35 22 0 65 7 95 14 30 7 58 13 62 14 4 0 13 -9
19 -21z m522 -52 l37 -33 -78 -7 c-44 -4 -102 -4 -130 0 l-51 6 80 28 c44 16
83 31 86 34 10 10 16 7 56 -28z"/>
<path d="M3564 5508 c-3 -5 -4 -10 -3 -12 4 -2 386 -152 405 -158 5 -2 11 1
14 6 3 6 -22 21 -55 34 -242 98 -356 139 -361 130z"/>
<path d="M3630 5401 c0 -6 1 -11 3 -11 3 0 294 -114 325 -127 6 -3 12 1 12 8
0 9 -58 37 -148 72 -173 68 -192 73 -192 58z"/>
<path d="M3680 5311 c0 -11 260 -114 268 -106 11 10 -14 23 -131 69 -125 48
-137 52 -137 37z"/>
<path d="M3665 5250 c-7 -12 -6 -12 130 -65 72 -28 122 -42 128 -36 5 5 -22
21 -70 39 -43 17 -101 40 -130 51 -29 11 -55 16 -58 11z"/>
<path d="M3320 5215 c-8 -2 -32 -6 -52 -10 -25 -4 -35 -10 -32 -19 3 -8 16
-11 34 -8 29 4 30 2 30 -32 0 -20 3 -36 8 -36 14 0 72 40 72 50 0 13 -23 13
-37 -1 -8 -8 -13 -8 -17 0 -19 30 44 47 88 24 l30 -16 -28 -22 c-42 -33 -14
-41 34 -9 22 15 40 30 40 33 0 4 -20 17 -45 29 -41 20 -83 25 -125 17z"/>
<path d="M3690 5162 c0 -13 209 -91 216 -81 3 5 -10 16 -28 23 -162 68 -188
75 -188 58z"/>
<path d="M3330 5075 c0 -9 9 -15 25 -15 16 0 25 6 25 15 0 9 -9 15 -25 15 -16
0 -25 -6 -25 -15z"/>
<path d="M3706 4749 c-96 -182 -104 -199 -87 -199 8 0 201 359 201 373 0 30
-32 -19 -114 -174z"/>
<path d="M4416 5269 c-147 -49 -188 -80 -216 -163 -18 -54 0 -110 42 -132 73
-38 179 20 225 124 18 41 63 183 63 199 0 7 -32 -1 -114 -28z m74 -17 c0 -18
-50 -153 -66 -181 -42 -70 -141 -104 -183 -62 -44 44 -16 138 54 181 33 20
158 68 183 69 6 1 12 -3 12 -7z"/>
<path d="M3310 4050 c-11 -20 -18 -20 -547 -18 l-536 3 7 -135 c38 -806 455
-1632 1134 -2247 57 -51 130 -114 163 -139 58 -44 61 -45 84 -30 115 76 422
371 570 549 483 581 759 1266 776 1925 l2 73 -536 -1 c-528 0 -536 0 -547 20
-9 17 -21 20 -86 20 -67 0 -76 -2 -81 -20 -3 -11 -13 -20 -23 -20 -10 0 -20 9
-23 20 -4 17 -14 20 -70 20 -56 0 -65 -3 -70 -20 -3 -11 -12 -20 -21 -20 -8 0
-20 9 -26 20 -9 17 -21 20 -85 20 -64 0 -76 -3 -85 -20z m140 -55 c0 -25 -4
-45 -8 -45 -8 0 -45 37 -71 73 -12 16 -10 17 33 17 l46 0 0 -45z m180 36 c0
-13 -29 -81 -35 -81 -6 0 -35 68 -35 81 0 5 16 9 35 9 19 0 35 -4 35 -9z m200
2 c0 -10 -72 -83 -82 -83 -4 0 -8 20 -8 45 l0 45 45 0 c25 0 45 -3 45 -7z
m-1510 -285 c0 -144 -3 -258 -6 -255 -20 19 -73 484 -59 508 4 5 19 9 36 9
l29 0 0 -262z m88 -165 c1 -233 -1 -423 -6 -423 -4 0 -18 37 -30 83 -21 78
-22 100 -22 425 l0 343 28 -3 27 -3 3 -422z m90 -123 c1 -332 -1 -540 -7 -535
-5 6 -21 39 -35 74 l-26 64 0 474 0 474 33 -3 32 -3 3 -545z m82 333 c0 -218
-2 -236 -48 -453 -7 -32 -10 58 -11 313 l-1 357 30 0 30 0 0 -217z m88 113 c2
-90 0 -105 -25 -163 -15 -34 -31 -63 -36 -63 -5 0 -6 7 -3 16 3 9 6 83 6 165
l0 150 28 -3 27 -3 3 -99z m90 59 c2 -32 -3 -49 -25 -77 -15 -21 -31 -37 -35
-38 -10 0 -10 144 -1 154 4 4 19 6 33 4 22 -3 25 -9 28 -43z m82 17 c0 -21 -7
-32 -25 -40 -36 -16 -35 -17 -35 28 0 38 2 40 30 40 26 0 30 -4 30 -28z m90 5
c0 -31 -5 -35 -35 -29 -18 3 -25 11 -25 28 0 20 5 24 30 24 25 0 30 -4 30 -23z
m88 -19 c3 -40 -5 -46 -39 -28 -12 7 -19 21 -19 41 0 27 3 30 28 27 23 -3 27
-8 30 -40z m88 -60 c1 -93 -9 -126 -22 -74 -3 14 -14 32 -25 42 -15 13 -19 31
-19 76 l0 59 32 -3 33 -3 1 -97z m84 -274 c0 -395 1 -384 -42 -346 -17 14 -18
44 -18 369 l0 353 30 0 30 0 0 -376z m88 -26 c1 -219 0 -398 -2 -398 -3 0 -16
5 -30 12 l-26 11 -2 384 c-2 212 -1 387 2 389 2 3 16 4 30 2 l25 -3 3 -397z
m77 392 c11 -18 7 -227 -4 -249 -14 -25 -14 -88 -1 -93 7 -2 11 -74 11 -207 0
-197 -1 -205 -22 -227 -13 -13 -26 -24 -31 -24 -10 0 -11 794 -1 803 10 11 41
8 48 -3z m195 -15 c27 -72 26 -75 -24 -75 l-46 0 0 50 c0 49 1 50 30 50 23 0
33 -6 40 -25z m163 -25 l0 -45 -46 -3 c-53 -4 -56 3 -32 62 14 33 19 37 47 34
30 -3 31 -5 31 -48z m175 -358 c1 -221 -2 -402 -6 -402 -5 0 -18 11 -31 23
-21 24 -22 26 -22 397 1 387 1 394 41 387 13 -2 15 -56 18 -405z m82 19 c0
-352 -2 -385 -18 -397 -42 -32 -42 -33 -42 379 0 217 3 397 7 401 4 4 18 6 31
4 l23 -3 -1 -384z m90 37 c0 -347 0 -352 -22 -375 -12 -13 -25 -23 -30 -23 -4
0 -8 169 -8 375 l0 375 30 0 30 0 0 -352z m90 293 c0 -33 -5 -63 -10 -66 -6
-3 -19 -23 -30 -43 l-19 -37 -1 103 0 102 30 0 c30 0 30 0 30 -59z m88 28 c2
-21 -3 -30 -27 -42 -35 -18 -41 -14 -41 28 0 39 7 47 40 43 19 -2 26 -10 28
-29z m82 7 c0 -18 -7 -25 -26 -29 -16 -3 -28 0 -31 9 -9 24 5 44 32 44 20 0
25 -5 25 -24z m90 -15 l0 -40 -30 10 c-24 9 -30 17 -30 40 0 26 4 29 30 29 28
0 30 -2 30 -39z m88 -38 c2 -40 -1 -73 -5 -73 -20 0 -63 71 -63 103 0 41 7 49
40 45 24 -3 25 -6 28 -75z m84 -84 c2 -88 1 -162 -1 -165 -2 -2 -17 24 -32 57
-26 54 -29 72 -29 158 0 54 3 101 7 104 3 4 17 7 29 7 23 0 23 -1 26 -161z
m87 -186 c0 -192 -2 -343 -4 -338 -2 6 -16 67 -30 137 -22 112 -25 153 -25
338 l0 210 30 0 30 0 -1 -347z m91 -126 l0 -474 -26 -64 c-14 -35 -28 -66 -30
-68 -2 -2 -4 239 -4 537 l0 542 30 0 30 0 0 -473z m88 144 c2 -323 2 -325 -24
-415 -14 -50 -30 -95 -35 -101 -5 -5 -9 154 -9 411 0 232 3 424 7 428 4 4 19
6 33 4 l25 -3 3 -324z m88 232 c-9 -132 -47 -406 -57 -417 -5 -6 -9 103 -9
252 l0 262 36 0 36 0 -6 -97z m-1509 15 c32 -30 31 -80 -2 -102 -13 -9 -27
-16 -30 -16 -3 0 -5 32 -5 70 0 39 3 70 7 70 4 0 17 -10 30 -22z m373 -329 c0
-316 -2 -351 -16 -345 -9 3 -22 6 -30 6 -12 0 -14 50 -14 316 0 303 1 317 21
345 11 16 25 29 30 29 5 0 9 -141 9 -351z m-822 310 c127 -62 132 -241 8 -314
-64 -38 -141 -31 -208 17 -12 9 -21 9 -28 2 -14 -14 -48 -151 -70 -289 -18
-109 -22 -122 -50 -147 -19 -18 -42 -28 -60 -28 -36 0 -37 8 -15 155 50 334
147 562 260 611 45 20 113 17 163 -7z m1412 -2 c79 -42 155 -182 206 -384 25
-100 54 -279 54 -337 0 -33 -3 -36 -28 -36 -31 0 -67 22 -82 51 -6 11 -18 63
-25 115 -19 123 -53 267 -68 289 -12 15 -16 14 -57 -9 -79 -45 -167 -31 -227
37 -64 73 -64 161 0 234 59 67 147 82 227 40z m-677 -41 c3 -8 3 -17 0 -20 -4
-3 -57 -6 -120 -6 -106 0 -113 1 -113 20 0 19 7 20 114 20 88 0 115 -3 119
-14z m-3 -336 l-1 -285 51 -12 c196 -47 185 -227 -41 -690 l-73 -148 -4 -231
c-3 -195 -1 -236 12 -261 21 -41 77 -67 132 -60 50 5 56 -5 24 -46 -25 -31
-81 -45 -122 -29 -22 8 -30 8 -33 -1 -2 -7 -11 -37 -19 -67 -23 -80 -32 -90
-56 -62 -10 12 -24 47 -30 76 l-11 53 -65 -1 c-60 -1 -68 1 -90 27 -37 44 -32
58 20 51 30 -5 54 -1 80 11 64 31 68 47 64 308 l-3 232 -47 91 c-110 214 -208
485 -208 575 0 71 35 130 93 158 24 12 55 21 70 21 l27 0 0 228 c0 126 -2 231
-5 234 -3 3 -28 1 -55 -5 -28 -5 -53 -7 -57 -4 -13 13 23 71 61 98 39 29 41
30 164 27 l123 -3 -1 -285z m-605 -15 c0 -96 -2 -175 -6 -175 -3 0 -18 18 -33
40 -23 35 -26 49 -26 131 0 83 2 94 25 121 14 16 25 36 25 44 0 8 3 14 8 14 4
0 7 -79 7 -175z m1035 100 c6 -3 10 -49 10 -103 0 -88 -3 -101 -25 -135 -14
-20 -28 -37 -30 -37 -3 0 -5 80 -5 178 l1 177 19 -37 c11 -20 24 -40 30 -43z
m-692 -147 l-3 -203 -27 -3 -28 -3 0 199 c0 109 3 202 7 205 3 4 17 7 30 7
l23 0 -2 -202z m-660 100 c7 -7 12 -24 12 -38 0 -14 8 -55 18 -91 12 -41 15
-75 11 -93 -12 -43 -29 -231 -29 -313 0 -86 -16 -125 -61 -148 -59 -31 -64
-23 -61 100 6 212 30 401 71 553 12 44 19 50 39 30z m232 -29 c0 -18 -4 -28
-10 -24 -5 3 -10 20 -10 36 0 18 4 28 10 24 6 -3 10 -20 10 -36z m1161 -22
c-8 -8 -11 -2 -11 19 0 40 14 54 18 19 2 -15 -1 -32 -7 -38z m252 56 c3 -5 16
-60 30 -123 29 -127 43 -247 53 -447 6 -130 6 -133 -14 -133 -31 0 -70 20 -86
45 -10 15 -18 75 -26 186 -6 90 -15 189 -21 219 -9 45 -8 68 5 117 9 33 16 68
16 76 0 42 30 82 43 60z m-1449 -63 c3 -20 22 -69 41 -108 42 -83 111 -151
203 -200 57 -31 61 -35 51 -55 -7 -11 -12 -45 -13 -74 0 -33 -5 -53 -12 -53
-6 0 -49 19 -95 41 -97 49 -208 152 -256 239 -31 54 -66 154 -77 216 l-5 30
79 0 78 0 6 -36z m1381 1 c-10 -57 -35 -131 -68 -196 -44 -88 -170 -209 -269
-257 -42 -21 -83 -38 -90 -38 -9 0 -13 15 -13 43 -1 23 -4 58 -8 77 l-8 35 65
33 c115 59 219 193 233 301 l5 38 80 0 80 -1 -7 -35z m-1459 -263 l47 -73 -2
-240 c-3 -264 -5 -275 -64 -300 -18 -7 -35 -10 -40 -6 -4 4 -12 83 -19 176
-12 195 4 515 28 515 1 0 24 -33 50 -72z m1448 20 c19 -170 15 -623 -7 -644
-10 -10 -76 25 -92 49 -14 22 -16 47 -10 194 3 92 2 199 -3 237 -9 70 -9 70
25 114 19 25 41 58 49 73 21 42 31 36 38 -23z m226 -369 c0 -215 -1 -231 -22
-274 -12 -25 -26 -45 -30 -45 -13 0 -10 254 3 267 12 12 13 178 2 267 l-6 48
27 -17 26 -17 0 -229z m-1926 111 c-5 -101 -4 -147 5 -163 8 -15 11 -66 9
-152 l-3 -130 -27 49 -28 49 0 233 c0 211 2 234 18 243 9 6 21 11 25 11 4 0 5
-63 1 -140z m437 60 c4 0 8 -73 8 -162 0 -90 3 -173 5 -185 3 -12 8 -64 11
-115 7 -85 5 -95 -14 -120 -22 -27 -77 -53 -85 -39 -24 39 -56 531 -42 644 l8
58 50 -41 c28 -22 54 -40 59 -40z m1125 -189 c-6 -224 -22 -401 -39 -428 -13
-20 -82 20 -97 56 -10 24 -10 52 0 133 6 57 13 174 14 262 l2 158 46 33 c25
19 49 39 53 46 6 8 11 6 18 -6 6 -12 8 -102 3 -254z m-1636 48 c0 -104 -2
-189 -5 -189 -3 0 -17 24 -30 53 -22 47 -25 65 -25 188 0 75 2 138 5 141 3 3
17 3 30 0 l25 -4 0 -189z m2090 56 c0 -121 -2 -140 -24 -190 -14 -30 -27 -55
-30 -55 -4 0 -6 85 -6 189 0 189 0 190 23 193 12 2 25 2 30 0 4 -2 7 -64 7
-137z m-1465 26 l50 -22 -3 -117 c-3 -110 5 -189 40 -384 15 -83 6 -114 -42
-146 -31 -21 -36 -21 -46 -7 -31 42 -84 418 -84 592 0 88 6 117 24 109 6 -2
34 -14 61 -25z m863 -82 c2 -57 -2 -155 -8 -217 -10 -109 -55 -354 -69 -379
-11 -20 -71 16 -89 53 -14 31 -14 42 7 151 36 190 47 367 27 430 -5 15 6 24
52 45 31 14 62 25 67 24 6 -2 11 -48 13 -107z m-151 -116 c-3 -71 -16 -180
-28 -243 -26 -144 -26 -153 9 -284 27 -96 28 -108 13 -113 -9 -4 -48 -19 -88
-34 -53 -20 -75 -24 -81 -15 -10 12 -62 231 -62 257 0 9 29 76 64 150 69 144
129 292 148 364 22 82 31 50 25 -82z m-583 -17 c27 -74 79 -196 116 -271 l67
-137 -24 -101 c-13 -56 -28 -119 -34 -139 l-10 -37 -87 31 c-48 17 -89 32 -91
34 -2 2 11 60 28 129 l32 125 -20 103 c-33 163 -53 397 -33 397 4 0 29 -61 56
-134z m-505 -200 c8 -9 11 -59 9 -157 l-3 -142 -27 39 -28 40 0 250 c0 138 3
254 8 258 4 4 12 -56 18 -133 6 -77 17 -147 23 -155z m1554 -258 l-28 -42 -3
144 c-2 113 0 146 12 159 10 11 16 55 21 146 4 72 10 135 14 140 3 6 7 -106 9
-247 l2 -258 -27 -42z m-1623 301 c0 -115 -3 -209 -8 -209 -4 0 -20 21 -35 46
-27 45 -27 46 -25 207 l3 161 25 6 c14 4 28 5 33 3 4 -2 7 -98 7 -214z m1738
44 c2 -161 2 -162 -25 -207 -15 -25 -31 -46 -35 -46 -9 0 -11 414 -2 422 3 3
17 3 32 -1 l27 -7 3 -161z m-1568 -283 c0 -121 -3 -220 -7 -220 -5 0 -18 16
-30 35 -22 33 -23 45 -23 208 0 170 0 174 23 185 12 6 25 11 30 11 4 1 7 -98
7 -219z m1365 208 l25 -11 0 -174 c0 -163 -1 -176 -22 -203 -12 -17 -25 -30
-30 -30 -4 0 -8 97 -8 215 0 118 2 215 5 215 2 0 16 -5 30 -12z m-1317 -95 c8
-58 17 -90 27 -95 11 -7 15 -27 15 -81 0 -75 -9 -97 -42 -97 -16 0 -18 12 -18
134 0 73 -3 154 -6 180 -4 27 -3 46 3 46 5 0 15 -39 21 -87z m1262 -99 l0
-174 -24 0 c-35 0 -43 17 -45 94 -2 57 1 72 18 87 15 14 21 38 27 99 11 134
24 79 24 -106z m-1077 -27 c11 -45 21 -109 23 -142 l5 -60 -31 33 c-30 32 -30
33 -30 149 0 64 3 113 7 109 4 -4 16 -44 26 -89z m867 -171 l-30 -31 0 53 c0
29 4 60 10 70 5 9 17 53 27 97 l18 80 3 -119 3 -120 -31 -30z m-925 142 l-1
-83 -32 -3 -32 -3 0 75 c0 72 1 75 28 89 15 7 30 12 33 11 3 -2 5 -40 4 -86z
m1045 -14 l0 -74 -30 0 -30 0 0 89 0 89 30 -14 c29 -15 30 -17 30 -90z m-886
-76 c-8 -29 -19 -65 -24 -80 -6 -18 -5 -28 3 -31 7 -2 9 -8 5 -12 -4 -4 -13
-3 -20 3 -9 7 -12 32 -10 80 3 60 7 71 25 80 35 17 37 15 21 -40z m706 -37 c3
-39 4 -76 2 -81 -5 -13 -32 -13 -32 0 0 6 4 10 9 10 5 0 1 30 -10 67 -25 88
-25 94 4 84 19 -7 23 -17 27 -80z m-279 -13 c18 -78 27 -328 12 -328 -21 0
-43 57 -43 113 0 64 12 267 16 267 1 0 8 -24 15 -52z m-163 -112 c3 -126 0
-160 -13 -185 -27 -54 -35 -36 -35 85 0 108 22 254 38 254 4 0 8 -69 10 -154z
m-374 78 c56 -63 61 -66 95 -60 46 8 72 8 78 2 3 -3 0 -19 -6 -37 -9 -27 -8
-37 9 -64 38 -61 19 -74 -37 -25 -19 17 -82 55 -141 84 -120 61 -196 112 -187
126 10 17 23 11 64 -25 21 -19 41 -35 45 -35 12 0 5 16 -19 42 -29 31 -31 38
-11 38 8 0 24 -13 36 -30 12 -16 28 -30 36 -30 18 0 18 14 -2 30 -8 8 -20 22
-25 32 -19 36 7 17 65 -48z m932 27 c-20 -20 -24 -31 -16 -36 8 -5 24 5 42 24
28 30 48 40 48 23 0 -5 -11 -19 -25 -32 -28 -26 -32 -40 -11 -40 7 0 21 11 30
25 20 31 55 50 68 37 15 -15 -54 -63 -180 -126 -62 -31 -130 -73 -152 -92 -38
-35 -46 -33 -40 6 1 8 9 23 18 33 14 15 14 23 3 53 -7 20 -11 38 -8 40 6 6 30
6 83 -2 37 -5 42 -3 66 28 45 57 89 101 95 94 4 -3 -6 -19 -21 -35z m154 -61
c0 -12 -50 -70 -61 -70 -19 0 -8 36 19 61 25 25 42 29 42 9z m-1243 -12 c22
-20 32 -68 15 -68 -10 0 -46 47 -55 73 -9 24 12 22 40 -5z m89 -52 c14 -11 19
-26 19 -65 0 -28 -3 -51 -6 -51 -3 0 -17 13 -32 28 -19 20 -27 39 -27 65 0 40
13 47 46 23z m278 -18 c-1 -18 -3 -35 -4 -38 0 -3 -5 3 -11 13 -11 18 -4 57
11 57 4 0 6 -15 4 -32z m67 22 c17 -10 19 -22 19 -115 l0 -105 -30 0 -30 0 0
115 c0 118 3 125 41 105z m369 -105 l0 -115 -30 0 -30 0 0 105 c0 100 1 106
23 115 12 5 25 9 30 9 4 1 7 -51 7 -114z m46 89 c4 -14 2 -30 -5 -37 -6 -6
-11 -9 -12 -6 -6 41 -5 69 2 69 5 0 12 -12 15 -26z m304 -7 c0 -22 -10 -44
-30 -67 l-29 -35 -1 57 c0 44 4 59 18 67 31 18 42 12 42 -22z m-985 -19 c24
-11 25 -15 25 -96 l0 -86 -30 29 c-28 26 -30 34 -30 97 0 37 2 68 5 68 2 0 16
-5 30 -12z m895 -52 c0 -49 -5 -69 -21 -90 -11 -14 -25 -26 -30 -26 -5 0 -9
35 -9 78 0 72 2 80 23 90 36 17 37 15 37 -52z m-780 -117 c0 -54 -3 -99 -7
-98 -5 0 -18 13 -30 28 -18 23 -22 42 -23 112 -1 46 -1 88 -1 92 1 5 15 -1 31
-13 30 -21 30 -22 30 -121z m691 44 c-2 -74 -6 -92 -23 -110 -12 -13 -25 -23
-30 -23 -4 0 -8 42 -8 94 0 91 1 95 27 114 16 11 30 19 32 16 2 -2 3 -43 2
-91z m-649 16 c2 -5 12 -11 23 -13 27 -4 30 -23 5 -36 -19 -10 -21 -17 -15
-48 4 -20 12 -46 17 -56 12 -21 19 -86 10 -86 -3 0 -19 12 -34 27 -27 26 -28
30 -28 125 0 54 4 98 9 98 5 0 11 -5 13 -11z m542 -210 c-15 -16 -30 -26 -34
-24 -10 6 -3 57 14 97 21 50 20 79 -3 85 -24 6 -21 35 4 39 10 1 23 8 29 14 8
8 12 -14 14 -86 3 -94 2 -98 -24 -125z m-440 11 c24 -9 26 -15 26 -66 l0 -56
-29 24 c-25 19 -30 31 -30 66 -1 47 -2 46 33 32z m355 -86 c-33 -35 -40 -30
-37 28 3 46 6 53 28 58 23 5 25 3 28 -28 2 -25 -3 -41 -19 -58z m-251 41 c13
-49 16 -145 5 -145 -4 0 -17 10 -30 22 -20 18 -23 31 -23 88 0 37 3 70 7 73
16 17 30 4 41 -38z m184 -26 c3 -69 2 -72 -27 -95 l-30 -24 -3 43 c-5 63 17
147 39 147 15 0 18 -11 21 -71z m-82 -102 c0 -36 -28 -71 -46 -59 -6 4 -13 24
-16 45 -4 33 -2 38 14 34 10 -3 21 -1 24 4 12 20 24 7 24 -24z"/>
<path d="M3487 3794 c-9 -9 21 -64 36 -64 21 0 71 46 63 58 -7 12 -88 17 -99
6z"/>
<path d="M5360 6223 c-23 -30 -12 -56 15 -33 13 10 24 6 70 -25 30 -21 54 -40
52 -41 -1 -2 -66 -26 -142 -54 -77 -28 -146 -57 -153 -63 -10 -11 -4 -19 30
-43 24 -17 66 -47 95 -67 l51 -38 22 31 c17 24 20 34 11 43 -10 9 -16 8 -26
-6 -13 -18 -17 -16 -71 24 l-57 42 139 52 c148 54 164 62 164 74 0 7 -165 131
-174 131 -3 0 -14 -12 -26 -27z"/>
<path d="M1449 5973 c-85 -76 -93 -94 -39 -80 5 1 48 -41 94 -93 66 -73 82
-97 74 -108 -7 -8 -8 -16 -2 -22 6 -6 42 21 94 70 l85 78 -27 28 c-21 22 -30
26 -39 17 -9 -9 -9 -16 2 -29 12 -15 9 -21 -31 -56 l-45 -38 -36 42 -37 42 42
37 c33 30 39 40 28 50 -10 11 -20 6 -52 -26 l-41 -40 -34 40 c-36 44 -35 49
17 86 23 17 31 19 44 8 10 -9 18 -9 26 -1 11 11 -18 61 -38 62 -6 0 -44 -30
-85 -67z"/>
<path d="M5709 5983 c-1 -5 -1 -15 0 -23 2 -22 -238 -131 -261 -119 -35 19
-29 -13 9 -46 45 -41 57 -43 49 -11 -5 21 -1 26 30 36 34 12 38 10 72 -21 21
-19 41 -37 46 -40 4 -4 2 -23 -5 -43 -11 -30 -16 -35 -36 -30 -33 9 -28 -7 15
-49 45 -44 56 -46 47 -9 -4 21 9 66 49 168 l54 139 -26 28 c-26 27 -41 34 -43
20z m-9 -138 l-22 -55 -32 27 c-17 14 -31 30 -31 35 0 9 97 58 104 52 2 -2 -6
-28 -19 -59z"/>
<path d="M1282 5815 c-11 -14 -47 -55 -81 -91 -34 -37 -61 -70 -61 -74 0 -3
11 -17 25 -30 19 -18 28 -21 37 -12 8 8 8 15 -1 26 -10 12 -9 20 4 40 10 14
20 26 24 26 4 0 43 -32 86 -71 116 -102 110 -96 96 -113 -9 -11 -9 -16 0 -22
13 -7 79 56 79 76 0 6 -11 9 -24 8 -18 -2 -47 17 -115 77 l-91 79 27 28 c20
21 30 25 39 17 13 -11 34 -5 34 10 0 4 -13 17 -29 29 l-30 22 -19 -25z"/>
<path d="M5907 5803 c-4 -6 -4 -18 -1 -26 3 -9 -27 -64 -76 -137 -115 -171
-103 -189 73 -106 64 30 117 53 117 50 0 -3 -34 -51 -75 -107 -41 -55 -75
-106 -75 -113 0 -6 6 -17 14 -23 10 -9 45 2 151 46 113 46 141 54 156 45 32
-21 32 6 -1 48 -17 22 -35 40 -39 40 -16 0 -20 -14 -10 -27 9 -10 4 -16 -22
-27 -19 -8 -69 -30 -113 -50 -52 -24 -76 -31 -72 -21 3 8 37 57 76 109 63 83
70 97 60 116 -14 25 -16 25 -152 -40 -57 -26 -105 -47 -107 -45 -2 2 27 47 64
100 56 80 69 94 81 84 9 -8 18 -9 24 -3 6 6 -5 26 -29 54 -23 26 -40 39 -44
33z"/>
<path d="M1050 5540 c-31 -39 -34 -74 -5 -50 16 14 15 15 132 -74 77 -58 90
-73 82 -87 -6 -12 -5 -20 2 -24 6 -4 11 -5 13 -4 1 2 17 23 34 46 20 26 29 44
22 48 -6 4 -17 2 -25 -5 -10 -9 -35 5 -114 67 -86 66 -100 80 -95 100 9 35
-11 28 -46 -17z"/>
<path d="M876 5289 c-17 -25 -25 -47 -21 -57 6 -16 8 -16 20 1 12 16 21 12
123 -53 89 -58 109 -75 105 -91 -3 -10 -1 -19 5 -19 15 0 124 170 119 184 -6
16 -55 41 -64 33 -3 -4 -1 -18 6 -31 11 -21 10 -28 -14 -65 -15 -22 -29 -41
-31 -41 -2 0 -51 30 -108 68 -81 52 -103 71 -96 82 9 15 5 30 -9 30 -5 0 -21
-18 -35 -41z"/>
<path d="M6208 5304 c-34 -18 -42 -48 -35 -121 5 -49 3 -58 -19 -79 -20 -21
-27 -23 -44 -14 -12 6 -30 26 -40 43 l-20 32 23 17 c17 13 19 20 10 29 -8 8
-18 7 -41 -6 -28 -17 -29 -20 -20 -53 14 -49 36 -80 70 -98 33 -17 62 -11 96
19 19 18 22 30 22 104 0 80 1 84 26 95 31 15 55 2 68 -35 8 -21 6 -31 -8 -46
-27 -30 -11 -45 25 -24 33 20 37 48 14 93 -29 57 -75 73 -127 44z"/>
<path d="M790 5083 c-59 -21 -107 -122 -89 -186 20 -74 96 -127 182 -127 38 0
53 6 83 32 64 57 83 142 44 205 -36 59 -154 100 -220 76z m113 -47 c47 -19 87
-70 87 -110 0 -45 -38 -98 -78 -110 -44 -12 -103 6 -141 44 -39 39 -47 79 -25
125 28 60 89 80 157 51z"/>
<path d="M6416 5083 c-3 -3 -6 -14 -6 -24 0 -14 -29 -32 -106 -69 -108 -50
-134 -58 -134 -40 0 6 -7 10 -15 10 -19 0 -19 -2 6 -61 21 -49 46 -62 42 -22
-2 17 18 30 110 73 93 43 115 50 130 40 28 -17 32 -5 13 45 -18 46 -29 59 -40
48z"/>
<path d="M6283 4845 c-40 -80 -46 -98 -38 -121 14 -39 36 -43 34 -7 -2 16 14
60 37 104 l39 77 71 -22 c40 -11 81 -29 92 -39 30 -28 35 -4 10 47 -24 49 -32
55 -46 30 -8 -14 -15 -14 -76 5 -38 12 -70 21 -72 21 -2 0 -25 -43 -51 -95z"/>
<path d="M596 4700 c-14 -17 -30 -50 -36 -73 -6 -23 -15 -53 -21 -66 -12 -30
2 -48 21 -26 7 8 16 15 21 15 4 0 60 -19 124 -41 100 -36 115 -44 110 -60 -4
-13 -1 -19 9 -19 9 0 21 20 32 55 19 60 12 82 -14 47 -17 -22 -18 -22 -65 -6
-38 13 -47 20 -42 33 31 75 27 120 -12 151 -40 31 -95 27 -127 -10z m102 -26
c25 -17 27 -36 11 -83 -13 -36 -18 -37 -77 -14 -39 15 -43 19 -37 42 16 67 56
88 103 55z"/>
<path d="M6278 4664 c-8 -8 28 -98 41 -102 6 -2 11 6 11 18 0 18 5 21 37 18
37 -3 39 -5 60 -65 l22 -62 -30 -22 c-24 -17 -33 -19 -45 -9 -24 20 -29 3 -13
-47 15 -48 39 -70 39 -35 0 13 40 53 118 118 64 53 119 99 120 100 2 1 -1 19
-8 38 -11 35 -40 50 -40 21 0 -18 13 -17 -146 -5 -94 8 -131 15 -137 25 -8 16
-20 19 -29 9z m295 -80 c5 -5 -85 -84 -96 -84 -3 0 -7 12 -10 28 -3 15 -9 35
-12 45 -6 15 0 17 52 17 33 0 62 -3 66 -6z"/>
<path d="M710 4016 c0 -17 1 -17 -150 -51 -158 -36 -150 -33 -150 -60 0 -21
12 -27 113 -60 61 -21 116 -41 121 -46 10 -9 4 -10 -124 -34 -119 -23 -120
-23 -120 -50 0 -24 15 -31 218 -105 46 -17 62 -28 62 -41 0 -11 7 -19 15 -19
11 0 15 11 15 39 0 22 3 46 6 55 4 10 1 16 -9 16 -8 0 -17 -7 -20 -15 -5 -12
-25 -8 -114 22 -59 20 -110 38 -112 40 -11 8 15 15 130 36 119 21 124 23 127
48 3 24 -3 27 -122 65 -69 21 -126 42 -126 45 0 6 194 49 223 49 9 0 17 -7 17
-15 0 -23 17 -18 24 8 11 43 7 87 -9 87 -8 0 -15 -6 -15 -14z"/>
<path d="M6444 4008 c3 -13 6 -38 6 -55 0 -23 5 -33 15 -33 8 0 15 7 15 15 0
8 2 15 5 15 14 0 135 -53 135 -59 0 -4 -15 -15 -32 -24 -18 -9 -46 -24 -61
-34 -24 -16 -29 -16 -37 -3 -6 10 -12 12 -20 4 -15 -15 -1 -104 16 -104 8 0
14 8 14 18 0 13 29 39 85 75 67 45 93 57 124 57 25 0 41 -5 45 -15 11 -29 26
-15 26 24 0 64 -21 96 -33 51 -4 -16 -14 -20 -48 -20 -56 0 -220 67 -227 92
-2 10 -11 18 -19 18 -11 0 -14 -6 -9 -22z"/>
<path d="M6479 3623 c-6 -16 -11 -51 -12 -80 0 -98 59 -153 166 -153 96 0 141
34 159 121 8 40 8 65 -1 97 l-12 42 -79 0 -80 0 0 -44 c0 -28 5 -46 14 -49 19
-7 26 1 26 30 0 21 4 23 50 23 l50 0 0 -55 c0 -46 -5 -60 -28 -86 -24 -27 -37
-33 -84 -37 -66 -5 -110 14 -133 58 -28 53 -16 120 21 120 31 0 32 26 2 34
-39 10 -48 7 -59 -21z"/>
<path d="M397 3523 c-9 -14 4 -113 15 -113 5 0 12 8 16 19 6 17 11 17 42 7 34
-11 35 -12 40 -75 l5 -64 -34 -16 c-26 -12 -35 -13 -38 -3 -8 22 -33 13 -33
-12 0 -69 25 -112 37 -65 5 16 41 39 139 85 73 35 135 68 139 74 8 13 -5 80
-16 80 -5 0 -9 -7 -9 -15 0 -21 -11 -20 -144 24 -80 27 -125 47 -137 62 -9 12
-19 17 -22 12z m243 -138 l35 -13 -58 -27 c-32 -15 -60 -25 -61 -24 -2 2 -6
23 -9 47 l-5 43 31 -7 c17 -3 47 -12 67 -19z"/>
<path d="M6496 3260 c-63 -41 -87 -151 -47 -216 38 -62 163 -93 230 -57 52 27
74 64 79 130 3 48 0 64 -20 93 -32 48 -80 70 -153 70 -43 0 -69 -6 -89 -20z
m164 -35 c67 -35 82 -120 31 -177 -26 -30 -35 -33 -83 -33 -102 1 -160 63
-137 147 18 69 115 101 189 63z"/>
<path d="M723 3140 c-6 -22 -3 -21 -147 -50 -89 -18 -101 -19 -108 -5 -12 21
-42 20 -34 -1 3 -9 9 -33 12 -55 7 -40 34 -56 34 -20 0 20 10 26 73 37 34 6
37 4 37 -18 0 -16 -19 -42 -55 -78 -44 -44 -55 -61 -55 -87 0 -23 5 -33 15
-33 8 0 15 8 15 18 0 9 21 39 46 65 l46 48 22 -19 c31 -29 61 -35 99 -18 60
25 69 61 41 171 -17 66 -31 82 -41 45z m18 -100 c11 -50 -11 -80 -56 -80 -37
0 -48 12 -59 67 -7 31 -6 32 36 41 62 14 71 11 79 -28z"/>
<path d="M6629 2863 c-10 -11 -8 -15 9 -20 25 -6 27 -16 11 -64 -6 -19 -12
-39 -14 -46 -3 -8 -21 -6 -67 7 -35 10 -89 26 -120 34 -46 13 -58 21 -58 36 0
41 -28 20 -40 -31 -13 -54 -6 -75 15 -46 13 17 19 17 137 -16 100 -27 123 -37
123 -52 0 -10 5 -20 11 -22 7 -2 22 35 37 89 14 51 28 100 32 109 9 23 -59 43
-76 22z"/>
<path d="M717 2790 c-15 -12 -28 -34 -31 -53 -3 -18 -8 -48 -11 -67 -10 -68
-75 -77 -101 -14 -19 45 -18 51 11 66 37 20 18 42 -23 27 -29 -10 -32 -15 -32
-51 0 -107 82 -162 150 -100 23 21 32 39 36 77 8 64 27 95 60 95 19 0 28 -8
40 -37 15 -34 15 -38 -1 -50 -10 -7 -23 -14 -29 -16 -8 -3 -8 -8 -1 -15 7 -7
22 -9 40 -4 26 7 30 13 33 48 7 88 -77 144 -141 94z"/>
<path d="M6316 2590 c-73 -47 -98 -154 -53 -220 46 -69 170 -101 234 -61 69
43 95 156 51 221 -48 70 -170 102 -232 60z m129 -34 c60 -25 85 -59 85 -112 0
-39 -5 -51 -34 -80 -38 -38 -74 -44 -131 -20 -59 25 -85 59 -85 109 0 92 77
139 165 103z"/>
<path d="M924 2473 c-5 -18 -18 -21 -142 -26 -118 -6 -139 -4 -149 9 -25 33
-32 3 -11 -47 19 -46 45 -62 42 -26 -2 17 64 35 75 20 4 -4 18 -32 31 -61 l24
-53 -27 -26 c-22 -22 -28 -24 -42 -13 -26 21 -30 3 -9 -47 21 -52 44 -68 44
-31 0 16 32 55 106 129 l106 107 -12 36 c-14 43 -29 55 -36 29z m-54 -108
c-24 -25 -45 -45 -47 -45 -3 0 -43 78 -43 85 0 3 30 5 67 5 l67 0 -44 -45z"/>
<path d="M6138 2255 c-27 -43 -23 -70 7 -45 11 9 36 -2 117 -49 l103 -61 -157
0 -158 0 -25 -40 c-27 -43 -25 -72 3 -47 15 13 28 9 125 -46 92 -53 107 -65
104 -84 -7 -39 17 -32 46 14 29 47 29 70 -2 51 -15 -9 -34 -2 -110 42 -50 29
-94 57 -97 61 -3 5 64 9 149 9 154 0 155 0 171 25 l16 25 -125 72 c-111 65
-125 76 -120 96 9 38 -18 25 -47 -23z"/>
<path d="M1013 2258 c5 -17 -15 -45 -94 -135 -87 -99 -99 -115 -89 -133 6 -11
14 -20 18 -20 4 0 62 18 130 39 68 22 122 35 120 31 -2 -5 -43 -49 -91 -99
-80 -81 -87 -92 -77 -111 13 -25 4 -26 183 21 110 29 129 32 137 19 7 -11 12
-12 21 -3 8 8 3 23 -21 57 -31 45 -53 54 -43 18 4 -16 -11 -23 -104 -51 -59
-17 -112 -31 -118 -31 -5 0 32 42 84 94 76 77 92 97 86 115 -9 28 -21 27 -150
-14 -60 -19 -114 -35 -119 -35 -4 0 29 41 75 91 46 50 85 86 87 80 5 -14 32
-15 32 -1 0 16 -51 90 -62 90 -6 0 -8 -10 -5 -22z"/>
<path d="M5921 1909 c-24 -29 -30 -44 -23 -51 8 -8 15 -8 26 1 12 10 22 7 55
-19 l40 -33 -52 -68 c-29 -37 -56 -68 -61 -68 -4 -1 -26 13 -47 30 -32 25 -37
34 -28 46 8 9 9 17 2 24 -7 7 -22 -4 -48 -36 -38 -45 -41 -70 -6 -48 15 9 33
-1 119 -69 86 -68 100 -83 92 -99 -11 -19 7 -40 19 -22 3 5 19 26 35 46 30 39
28 60 -3 40 -14 -9 -25 -5 -59 21 -23 17 -40 36 -37 43 5 16 97 133 104 133 4
0 23 -14 44 -31 26 -21 37 -38 35 -53 -5 -33 17 -25 51 18 24 29 29 42 20 50
-8 8 -13 7 -16 -1 -3 -7 -9 -13 -14 -13 -8 0 -113 79 -208 156 -2 2 1 10 7 17
11 13 7 27 -8 27 -4 0 -21 -18 -39 -41z"/>
<path d="M1387 1723 c-4 -3 -2 -12 5 -20 9 -11 -5 -29 -70 -91 -93 -89 -106
-119 -74 -180 22 -44 74 -82 111 -82 33 0 63 20 149 97 52 47 72 59 80 51 8
-8 15 -8 21 -3 6 6 -5 26 -29 52 -38 40 -57 42 -46 5 5 -13 -15 -37 -74 -90
-45 -40 -88 -72 -96 -72 -44 0 -94 52 -94 98 0 9 35 50 77 90 60 56 83 72 99
68 37 -10 36 6 -3 46 -38 39 -45 43 -56 31z"/>
<path d="M5685 1618 c-11 -6 -33 -22 -48 -37 -89 -81 -75 -195 32 -262 52 -33
96 -37 148 -12 39 18 95 88 91 112 -5 27 -23 21 -42 -14 -21 -39 -72 -75 -105
-75 -61 0 -141 79 -141 139 0 40 26 83 62 102 15 8 24 7 37 -5 15 -14 20 -14
29 -3 9 11 5 20 -16 40 -22 21 -31 24 -47 15z"/>
<path d="M1665 1450 c-4 -6 -2 -17 4 -23 7 -10 -11 -39 -70 -112 -44 -55 -85
-98 -92 -97 -45 13 -43 -5 6 -48 28 -24 41 -30 49 -22 8 8 8 15 0 25 -8 10 2
29 45 82 30 39 61 79 69 89 7 11 16 18 18 15 3 -3 -4 -71 -15 -152 -20 -142
-20 -149 -3 -168 10 -11 21 -18 25 -17 4 2 46 51 93 110 66 82 91 107 108 105
35 -4 29 16 -15 50 -41 32 -74 31 -48 -1 11 -13 2 -30 -59 -106 -40 -50 -74
-90 -75 -88 -2 2 5 62 16 133 25 175 25 175 -15 207 -21 17 -37 24 -41 18z"/>
<path d="M5373 1343 c-46 -36 -83 -71 -83 -79 0 -17 12 -18 27 -3 7 7 34 -20
91 -92 67 -86 78 -105 69 -120 -6 -10 -8 -21 -4 -25 6 -6 44 21 174 123 13 10
13 15 -6 42 -13 18 -27 28 -36 24 -18 -6 -19 -15 -4 -30 15 -15 8 -24 -41 -58
l-42 -29 -33 40 c-19 21 -34 41 -34 44 0 3 20 20 45 38 36 27 43 36 34 48 -10
11 -19 8 -56 -23 -49 -40 -45 -41 -91 25 -15 22 -15 24 18 52 37 32 49 36 66
19 11 -11 33 -5 33 9 -1 4 -11 19 -23 33 l-22 27 -82 -65z"/>
<path d="M5133 1173 c-57 -36 -103 -71 -103 -78 0 -7 8 -23 18 -35 22 -28 48
-19 32 10 -8 15 -5 22 19 39 l29 21 20 -27 c11 -16 42 -65 70 -110 44 -70 49
-83 36 -94 -9 -7 -11 -16 -6 -21 11 -11 103 42 98 57 -1 6 -13 10 -26 10 -18
0 -36 21 -86 100 -35 55 -64 102 -64 105 0 3 13 13 28 22 26 16 30 16 44 1 20
-20 42 -8 29 15 -31 56 -28 56 -138 -15z"/>
<path d="M1976 1211 c-4 -6 -2 -18 5 -28 9 -16 1 -35 -55 -121 -53 -81 -71
-101 -87 -99 -38 4 -30 -17 16 -46 47 -30 79 -29 51 1 -13 15 -7 28 54 122 53
81 74 104 89 102 30 -5 34 14 6 32 -14 9 -36 23 -49 32 -15 9 -26 11 -30 5z"/>
<path d="M2115 1120 c-4 -6 0 -19 8 -28 13 -15 12 -34 -4 -162 -10 -80 -18
-148 -19 -152 0 -4 9 -10 20 -13 16 -5 46 16 137 94 85 74 121 100 135 95 36
-11 19 25 -22 46 -47 24 -60 25 -60 5 0 -8 5 -15 11 -15 6 0 9 -4 7 -9 -4 -11
-169 -161 -177 -161 -4 0 0 54 8 120 14 110 17 120 35 118 37 -6 26 17 -23 45
-33 18 -52 24 -56 17z"/>
<path d="M4763 977 c-88 -39 -118 -67 -73 -67 16 0 29 -18 59 -82 61 -136 67
-151 53 -156 -13 -4 -17 -32 -5 -32 4 0 31 10 60 22 55 23 66 45 19 40 -23 -2
-29 3 -46 43 -11 26 -20 48 -20 51 0 2 23 13 50 25 28 12 50 26 50 31 0 19
-30 18 -70 -2 -23 -12 -43 -20 -45 -18 -5 6 -45 87 -45 92 0 3 21 14 47 26 44
19 48 20 60 4 7 -9 19 -14 28 -11 13 6 13 10 -2 42 -9 19 -19 35 -22 34 -3 0
-48 -19 -98 -42z"/>
<path d="M2460 935 c0 -8 5 -15 10 -15 17 0 12 -21 -33 -135 -33 -85 -47 -110
-62 -110 -48 0 -16 -25 80 -62 l106 -41 14 29 c8 15 15 33 15 39 0 15 -28 12
-37 -5 -8 -13 -14 -13 -56 1 -26 9 -50 20 -53 26 -7 11 24 98 36 98 4 0 24 -7
45 -16 37 -15 65 -13 65 5 0 5 -22 17 -50 27 -27 10 -50 21 -50 26 0 14 32 88
38 88 4 0 26 -7 49 -16 34 -13 43 -22 43 -40 0 -28 25 -33 33 -6 2 9 8 24 11
33 6 13 -12 23 -88 52 -108 42 -116 43 -116 22z"/>
<path d="M4423 851 c-24 -11 -51 -34 -63 -53 -40 -65 -17 -188 45 -236 21 -17
41 -22 82 -22 107 0 163 51 163 148 0 140 -109 218 -227 163z m132 -43 c34
-27 55 -75 55 -128 0 -78 -89 -132 -159 -96 -39 20 -71 82 -71 137 0 88 106
141 175 87z"/>
<path d="M2730 840 c0 -5 8 -13 17 -18 15 -9 14 -18 -11 -118 -33 -128 -41
-145 -61 -138 -9 4 -15 0 -15 -9 0 -10 17 -21 48 -30 52 -15 80 -5 49 18 -16
11 -17 18 -6 59 6 26 15 48 19 51 16 10 41 -24 67 -94 24 -62 33 -76 56 -82
34 -9 46 8 19 27 -11 7 -27 33 -35 56 -8 24 -18 50 -22 60 -5 12 1 18 24 23
38 8 61 39 61 83 0 65 -25 87 -125 108 -73 16 -85 17 -85 4z m128 -51 c34 -12
47 -37 38 -74 -7 -29 -36 -39 -82 -30 -38 7 -40 16 -22 76 12 42 19 45 66 28z"/>
<path d="M3105 761 c-29 -12 -44 -33 -51 -69 -6 -28 -1 -37 33 -69 22 -21 52
-46 66 -56 32 -22 35 -57 7 -82 -17 -15 -27 -17 -58 -9 -30 7 -38 14 -40 37
-4 31 -32 38 -32 8 0 -11 -3 -26 -6 -35 -8 -22 46 -46 105 -46 42 0 53 4 70
26 43 55 20 112 -64 164 -73 45 -48 113 35 95 25 -5 30 -12 30 -36 0 -19 5
-29 15 -29 8 0 15 9 15 19 0 11 3 26 6 34 12 31 -87 67 -131 48z"/>
<path d="M4038 763 c-25 -3 -38 -9 -38 -19 0 -8 7 -14 16 -14 9 0 14 -6 11
-12 -2 -7 -13 -39 -23 -70 -10 -32 -21 -58 -24 -58 -4 0 -24 25 -44 56 -27 41
-35 59 -27 67 6 6 11 15 11 19 0 9 -55 10 -87 2 -25 -7 -31 -24 -10 -24 18 0
45 -30 101 -113 49 -72 62 -132 31 -143 -8 -4 -15 -12 -15 -19 0 -9 12 -12 43
-8 23 2 48 6 55 9 18 5 15 21 -7 27 -13 3 -20 16 -23 43 -6 51 57 224 84 232
23 6 24 33 1 30 -10 -1 -35 -3 -55 -5z"/>
<path d="M3330 725 c0 -8 7 -15 15 -15 20 0 20 4 10 -145 -6 -103 -10 -117
-40 -128 -20 -8 6 -20 55 -25 41 -4 50 -2 50 12 0 9 -7 16 -16 16 -15 0 -16
11 -10 92 3 50 6 108 6 130 0 31 3 38 20 38 36 0 22 27 -17 34 -58 9 -73 7
-73 -9z"/>
<path d="M3507 724 c-4 -4 -7 -22 -7 -41 0 -23 5 -33 15 -33 8 0 15 9 15 20 0
17 7 20 40 20 l40 0 0 -125 c0 -102 -3 -127 -15 -131 -8 -4 -15 -13 -15 -21 0
-10 6 -13 16 -9 9 3 33 6 55 6 41 0 52 14 19 25 -19 6 -20 15 -20 131 l0 124
34 0 c26 0 36 -5 41 -21 10 -31 30 -17 30 22 l0 34 -121 3 c-66 1 -123 -1
-127 -4z"/>
</g>
</svg>
