<?xml version="1.0" encoding="utf-8" standalone="no"?>
<!DOCTYPE svg PUBLIC "-//W3C//DTD SVG 1.1//EN"
  "http://www.w3.org/Graphics/SVG/1.1/DTD/svg11.dtd">
<svg xmlns:xlink="http://www.w3.org/1999/xlink" width="460.8pt" height="345.6pt" viewBox="0 0 460.8 345.6" xmlns="http://www.w3.org/2000/svg" version="1.1">
 <metadata>
  <rdf:RDF xmlns:dc="http://purl.org/dc/elements/1.1/" xmlns:cc="http://creativecommons.org/ns#" xmlns:rdf="http://www.w3.org/1999/02/22-rdf-syntax-ns#">
   <cc:Work>
    <dc:type rdf:resource="http://purl.org/dc/dcmitype/StillImage"/>
    <dc:date>2022-03-31T21:48:45.201370</dc:date>
    <dc:format>image/svg+xml</dc:format>
    <dc:creator>
     <cc:Agent>
      <dc:title>Matplotlib v3.5.1, https://matplotlib.org/</dc:title>
     </cc:Agent>
    </dc:creator>
   </cc:Work>
  </rdf:RDF>
 </metadata>
 <defs>
  <style type="text/css">*{stroke-linejoin: round; stroke-linecap: butt}</style>
 </defs>
 <g id="figure_1">
  <g id="patch_1">
   <path d="M 0 345.6 
L 460.8 345.6 
L 460.8 0 
L 0 0 
z
" style="fill: #ffffff"/>
  </g>
  <g id="axes_1">
   <g id="patch_2">
    <path d="M 57.6 307.584 
L 414.72 307.584 
L 414.72 41.472 
L 57.6 41.472 
z
" style="fill: #ffffff"/>
   </g>
   <g id="matplotlib.axis_1">
    <g id="xtick_1">
     <g id="line2d_1">
      <defs>
       <path id="m2e9df85f28" d="M 0 0 
L 0 3.5 
" style="stroke: #000000; stroke-width: 0.8"/>
      </defs>
      <g>
       <use xlink:href="#m2e9df85f28" x="73.832727" y="307.584" style="stroke: #000000; stroke-width: 0.8"/>
      </g>
     </g>
     <g id="text_1">
      <!-- 0 -->
      <g transform="translate(70.651477 322.182437)scale(0.1 -0.1)">
       <defs>
        <path id="DejaVuSans-30" d="M 2034 4250 
Q 1547 4250 1301 3770 
Q 1056 3291 1056 2328 
Q 1056 1369 1301 889 
Q 1547 409 2034 409 
Q 2525 409 2770 889 
Q 3016 1369 3016 2328 
Q 3016 3291 2770 3770 
Q 2525 4250 2034 4250 
z
M 2034 4750 
Q 2819 4750 3233 4129 
Q 3647 3509 3647 2328 
Q 3647 1150 3233 529 
Q 2819 -91 2034 -91 
Q 1250 -91 836 529 
Q 422 1150 422 2328 
Q 422 3509 836 4129 
Q 1250 4750 2034 4750 
z
" transform="scale(0.015625)"/>
       </defs>
       <use xlink:href="#DejaVuSans-30"/>
      </g>
     </g>
    </g>
    <g id="xtick_2">
     <g id="line2d_2">
      <g>
       <use xlink:href="#m2e9df85f28" x="127.406085" y="307.584" style="stroke: #000000; stroke-width: 0.8"/>
      </g>
     </g>
     <g id="text_2">
      <!-- 100 -->
      <g transform="translate(117.862335 322.182437)scale(0.1 -0.1)">
       <defs>
        <path id="DejaVuSans-31" d="M 794 531 
L 1825 531 
L 1825 4091 
L 703 3866 
L 703 4441 
L 1819 4666 
L 2450 4666 
L 2450 531 
L 3481 531 
L 3481 0 
L 794 0 
L 794 531 
z
" transform="scale(0.015625)"/>
       </defs>
       <use xlink:href="#DejaVuSans-31"/>
       <use xlink:href="#DejaVuSans-30" x="63.623047"/>
       <use xlink:href="#DejaVuSans-30" x="127.246094"/>
      </g>
     </g>
    </g>
    <g id="xtick_3">
     <g id="line2d_3">
      <g>
       <use xlink:href="#m2e9df85f28" x="180.979442" y="307.584" style="stroke: #000000; stroke-width: 0.8"/>
      </g>
     </g>
     <g id="text_3">
      <!-- 200 -->
      <g transform="translate(171.435692 322.182437)scale(0.1 -0.1)">
       <defs>
        <path id="DejaVuSans-32" d="M 1228 531 
L 3431 531 
L 3431 0 
L 469 0 
L 469 531 
Q 828 903 1448 1529 
Q 2069 2156 2228 2338 
Q 2531 2678 2651 2914 
Q 2772 3150 2772 3378 
Q 2772 3750 2511 3984 
Q 2250 4219 1831 4219 
Q 1534 4219 1204 4116 
Q 875 4013 500 3803 
L 500 4441 
Q 881 4594 1212 4672 
Q 1544 4750 1819 4750 
Q 2544 4750 2975 4387 
Q 3406 4025 3406 3419 
Q 3406 3131 3298 2873 
Q 3191 2616 2906 2266 
Q 2828 2175 2409 1742 
Q 1991 1309 1228 531 
z
" transform="scale(0.015625)"/>
       </defs>
       <use xlink:href="#DejaVuSans-32"/>
       <use xlink:href="#DejaVuSans-30" x="63.623047"/>
       <use xlink:href="#DejaVuSans-30" x="127.246094"/>
      </g>
     </g>
    </g>
    <g id="xtick_4">
     <g id="line2d_4">
      <g>
       <use xlink:href="#m2e9df85f28" x="234.552799" y="307.584" style="stroke: #000000; stroke-width: 0.8"/>
      </g>
     </g>
     <g id="text_4">
      <!-- 300 -->
      <g transform="translate(225.009049 322.182437)scale(0.1 -0.1)">
       <defs>
        <path id="DejaVuSans-33" d="M 2597 2516 
Q 3050 2419 3304 2112 
Q 3559 1806 3559 1356 
Q 3559 666 3084 287 
Q 2609 -91 1734 -91 
Q 1441 -91 1130 -33 
Q 819 25 488 141 
L 488 750 
Q 750 597 1062 519 
Q 1375 441 1716 441 
Q 2309 441 2620 675 
Q 2931 909 2931 1356 
Q 2931 1769 2642 2001 
Q 2353 2234 1838 2234 
L 1294 2234 
L 1294 2753 
L 1863 2753 
Q 2328 2753 2575 2939 
Q 2822 3125 2822 3475 
Q 2822 3834 2567 4026 
Q 2313 4219 1838 4219 
Q 1578 4219 1281 4162 
Q 984 4106 628 3988 
L 628 4550 
Q 988 4650 1302 4700 
Q 1616 4750 1894 4750 
Q 2613 4750 3031 4423 
Q 3450 4097 3450 3541 
Q 3450 3153 3228 2886 
Q 3006 2619 2597 2516 
z
" transform="scale(0.015625)"/>
       </defs>
       <use xlink:href="#DejaVuSans-33"/>
       <use xlink:href="#DejaVuSans-30" x="63.623047"/>
       <use xlink:href="#DejaVuSans-30" x="127.246094"/>
      </g>
     </g>
    </g>
    <g id="xtick_5">
     <g id="line2d_5">
      <g>
       <use xlink:href="#m2e9df85f28" x="288.126157" y="307.584" style="stroke: #000000; stroke-width: 0.8"/>
      </g>
     </g>
     <g id="text_5">
      <!-- 400 -->
      <g transform="translate(278.582407 322.182437)scale(0.1 -0.1)">
       <defs>
        <path id="DejaVuSans-34" d="M 2419 4116 
L 825 1625 
L 2419 1625 
L 2419 4116 
z
M 2253 4666 
L 3047 4666 
L 3047 1625 
L 3713 1625 
L 3713 1100 
L 3047 1100 
L 3047 0 
L 2419 0 
L 2419 1100 
L 313 1100 
L 313 1709 
L 2253 4666 
z
" transform="scale(0.015625)"/>
       </defs>
       <use xlink:href="#DejaVuSans-34"/>
       <use xlink:href="#DejaVuSans-30" x="63.623047"/>
       <use xlink:href="#DejaVuSans-30" x="127.246094"/>
      </g>
     </g>
    </g>
    <g id="xtick_6">
     <g id="line2d_6">
      <g>
       <use xlink:href="#m2e9df85f28" x="341.699514" y="307.584" style="stroke: #000000; stroke-width: 0.8"/>
      </g>
     </g>
     <g id="text_6">
      <!-- 500 -->
      <g transform="translate(332.155764 322.182437)scale(0.1 -0.1)">
       <defs>
        <path id="DejaVuSans-35" d="M 691 4666 
L 3169 4666 
L 3169 4134 
L 1269 4134 
L 1269 2991 
Q 1406 3038 1543 3061 
Q 1681 3084 1819 3084 
Q 2600 3084 3056 2656 
Q 3513 2228 3513 1497 
Q 3513 744 3044 326 
Q 2575 -91 1722 -91 
Q 1428 -91 1123 -41 
Q 819 9 494 109 
L 494 744 
Q 775 591 1075 516 
Q 1375 441 1709 441 
Q 2250 441 2565 725 
Q 2881 1009 2881 1497 
Q 2881 1984 2565 2268 
Q 2250 2553 1709 2553 
Q 1456 2553 1204 2497 
Q 953 2441 691 2322 
L 691 4666 
z
" transform="scale(0.015625)"/>
       </defs>
       <use xlink:href="#DejaVuSans-35"/>
       <use xlink:href="#DejaVuSans-30" x="63.623047"/>
       <use xlink:href="#DejaVuSans-30" x="127.246094"/>
      </g>
     </g>
    </g>
    <g id="xtick_7">
     <g id="line2d_7">
      <g>
       <use xlink:href="#m2e9df85f28" x="395.272871" y="307.584" style="stroke: #000000; stroke-width: 0.8"/>
      </g>
     </g>
     <g id="text_7">
      <!-- 600 -->
      <g transform="translate(385.729121 322.182437)scale(0.1 -0.1)">
       <defs>
        <path id="DejaVuSans-36" d="M 2113 2584 
Q 1688 2584 1439 2293 
Q 1191 2003 1191 1497 
Q 1191 994 1439 701 
Q 1688 409 2113 409 
Q 2538 409 2786 701 
Q 3034 994 3034 1497 
Q 3034 2003 2786 2293 
Q 2538 2584 2113 2584 
z
M 3366 4563 
L 3366 3988 
Q 3128 4100 2886 4159 
Q 2644 4219 2406 4219 
Q 1781 4219 1451 3797 
Q 1122 3375 1075 2522 
Q 1259 2794 1537 2939 
Q 1816 3084 2150 3084 
Q 2853 3084 3261 2657 
Q 3669 2231 3669 1497 
Q 3669 778 3244 343 
Q 2819 -91 2113 -91 
Q 1303 -91 875 529 
Q 447 1150 447 2328 
Q 447 3434 972 4092 
Q 1497 4750 2381 4750 
Q 2619 4750 2861 4703 
Q 3103 4656 3366 4563 
z
" transform="scale(0.015625)"/>
       </defs>
       <use xlink:href="#DejaVuSans-36"/>
       <use xlink:href="#DejaVuSans-30" x="63.623047"/>
       <use xlink:href="#DejaVuSans-30" x="127.246094"/>
      </g>
     </g>
    </g>
    <g id="text_8">
     <!-- Time -->
     <g transform="translate(223.926406 335.860562)scale(0.1 -0.1)">
      <defs>
       <path id="DejaVuSans-54" d="M -19 4666 
L 3928 4666 
L 3928 4134 
L 2272 4134 
L 2272 0 
L 1638 0 
L 1638 4134 
L -19 4134 
L -19 4666 
z
" transform="scale(0.015625)"/>
       <path id="DejaVuSans-69" d="M 603 3500 
L 1178 3500 
L 1178 0 
L 603 0 
L 603 3500 
z
M 603 4863 
L 1178 4863 
L 1178 4134 
L 603 4134 
L 603 4863 
z
" transform="scale(0.015625)"/>
       <path id="DejaVuSans-6d" d="M 3328 2828 
Q 3544 3216 3844 3400 
Q 4144 3584 4550 3584 
Q 5097 3584 5394 3201 
Q 5691 2819 5691 2113 
L 5691 0 
L 5113 0 
L 5113 2094 
Q 5113 2597 4934 2840 
Q 4756 3084 4391 3084 
Q 3944 3084 3684 2787 
Q 3425 2491 3425 1978 
L 3425 0 
L 2847 0 
L 2847 2094 
Q 2847 2600 2669 2842 
Q 2491 3084 2119 3084 
Q 1678 3084 1418 2786 
Q 1159 2488 1159 1978 
L 1159 0 
L 581 0 
L 581 3500 
L 1159 3500 
L 1159 2956 
Q 1356 3278 1631 3431 
Q 1906 3584 2284 3584 
Q 2666 3584 2933 3390 
Q 3200 3197 3328 2828 
z
" transform="scale(0.015625)"/>
       <path id="DejaVuSans-65" d="M 3597 1894 
L 3597 1613 
L 953 1613 
Q 991 1019 1311 708 
Q 1631 397 2203 397 
Q 2534 397 2845 478 
Q 3156 559 3463 722 
L 3463 178 
Q 3153 47 2828 -22 
Q 2503 -91 2169 -91 
Q 1331 -91 842 396 
Q 353 884 353 1716 
Q 353 2575 817 3079 
Q 1281 3584 2069 3584 
Q 2775 3584 3186 3129 
Q 3597 2675 3597 1894 
z
M 3022 2063 
Q 3016 2534 2758 2815 
Q 2500 3097 2075 3097 
Q 1594 3097 1305 2825 
Q 1016 2553 972 2059 
L 3022 2063 
z
" transform="scale(0.015625)"/>
      </defs>
      <use xlink:href="#DejaVuSans-54"/>
      <use xlink:href="#DejaVuSans-69" x="57.958984"/>
      <use xlink:href="#DejaVuSans-6d" x="85.742188"/>
      <use xlink:href="#DejaVuSans-65" x="183.154297"/>
     </g>
    </g>
   </g>
   <g id="matplotlib.axis_2">
    <g id="ytick_1">
     <g id="line2d_8">
      <defs>
       <path id="m5dec0cb7bb" d="M 0 0 
L -3.5 0 
" style="stroke: #000000; stroke-width: 0.8"/>
      </defs>
      <g>
       <use xlink:href="#m5dec0cb7bb" x="57.6" y="302.558344" style="stroke: #000000; stroke-width: 0.8"/>
      </g>
     </g>
     <g id="text_9">
      <!-- 4.2 -->
      <g transform="translate(34.696875 306.357562)scale(0.1 -0.1)">
       <defs>
        <path id="DejaVuSans-2e" d="M 684 794 
L 1344 794 
L 1344 0 
L 684 0 
L 684 794 
z
" transform="scale(0.015625)"/>
       </defs>
       <use xlink:href="#DejaVuSans-34"/>
       <use xlink:href="#DejaVuSans-2e" x="63.623047"/>
       <use xlink:href="#DejaVuSans-32" x="95.410156"/>
      </g>
     </g>
    </g>
    <g id="ytick_2">
     <g id="line2d_9">
      <g>
       <use xlink:href="#m5dec0cb7bb" x="57.6" y="269.99143" style="stroke: #000000; stroke-width: 0.8"/>
      </g>
     </g>
     <g id="text_10">
      <!-- 4.3 -->
      <g transform="translate(34.696875 273.790649)scale(0.1 -0.1)">
       <use xlink:href="#DejaVuSans-34"/>
       <use xlink:href="#DejaVuSans-2e" x="63.623047"/>
       <use xlink:href="#DejaVuSans-33" x="95.410156"/>
      </g>
     </g>
    </g>
    <g id="ytick_3">
     <g id="line2d_10">
      <g>
       <use xlink:href="#m5dec0cb7bb" x="57.6" y="237.424517" style="stroke: #000000; stroke-width: 0.8"/>
      </g>
     </g>
     <g id="text_11">
      <!-- 4.4 -->
      <g transform="translate(34.696875 241.223735)scale(0.1 -0.1)">
       <use xlink:href="#DejaVuSans-34"/>
       <use xlink:href="#DejaVuSans-2e" x="63.623047"/>
       <use xlink:href="#DejaVuSans-34" x="95.410156"/>
      </g>
     </g>
    </g>
    <g id="ytick_4">
     <g id="line2d_11">
      <g>
       <use xlink:href="#m5dec0cb7bb" x="57.6" y="204.857603" style="stroke: #000000; stroke-width: 0.8"/>
      </g>
     </g>
     <g id="text_12">
      <!-- 4.5 -->
      <g transform="translate(34.696875 208.656822)scale(0.1 -0.1)">
       <use xlink:href="#DejaVuSans-34"/>
       <use xlink:href="#DejaVuSans-2e" x="63.623047"/>
       <use xlink:href="#DejaVuSans-35" x="95.410156"/>
      </g>
     </g>
    </g>
    <g id="ytick_5">
     <g id="line2d_12">
      <g>
       <use xlink:href="#m5dec0cb7bb" x="57.6" y="172.290689" style="stroke: #000000; stroke-width: 0.8"/>
      </g>
     </g>
     <g id="text_13">
      <!-- 4.6 -->
      <g transform="translate(34.696875 176.089908)scale(0.1 -0.1)">
       <use xlink:href="#DejaVuSans-34"/>
       <use xlink:href="#DejaVuSans-2e" x="63.623047"/>
       <use xlink:href="#DejaVuSans-36" x="95.410156"/>
      </g>
     </g>
    </g>
    <g id="ytick_6">
     <g id="line2d_13">
      <g>
       <use xlink:href="#m5dec0cb7bb" x="57.6" y="139.723776" style="stroke: #000000; stroke-width: 0.8"/>
      </g>
     </g>
     <g id="text_14">
      <!-- 4.7 -->
      <g transform="translate(34.696875 143.522995)scale(0.1 -0.1)">
       <defs>
        <path id="DejaVuSans-37" d="M 525 4666 
L 3525 4666 
L 3525 4397 
L 1831 0 
L 1172 0 
L 2766 4134 
L 525 4134 
L 525 4666 
z
" transform="scale(0.015625)"/>
       </defs>
       <use xlink:href="#DejaVuSans-34"/>
       <use xlink:href="#DejaVuSans-2e" x="63.623047"/>
       <use xlink:href="#DejaVuSans-37" x="95.410156"/>
      </g>
     </g>
    </g>
    <g id="ytick_7">
     <g id="line2d_14">
      <g>
       <use xlink:href="#m5dec0cb7bb" x="57.6" y="107.156862" style="stroke: #000000; stroke-width: 0.8"/>
      </g>
     </g>
     <g id="text_15">
      <!-- 4.8 -->
      <g transform="translate(34.696875 110.956081)scale(0.1 -0.1)">
       <defs>
        <path id="DejaVuSans-38" d="M 2034 2216 
Q 1584 2216 1326 1975 
Q 1069 1734 1069 1313 
Q 1069 891 1326 650 
Q 1584 409 2034 409 
Q 2484 409 2743 651 
Q 3003 894 3003 1313 
Q 3003 1734 2745 1975 
Q 2488 2216 2034 2216 
z
M 1403 2484 
Q 997 2584 770 2862 
Q 544 3141 544 3541 
Q 544 4100 942 4425 
Q 1341 4750 2034 4750 
Q 2731 4750 3128 4425 
Q 3525 4100 3525 3541 
Q 3525 3141 3298 2862 
Q 3072 2584 2669 2484 
Q 3125 2378 3379 2068 
Q 3634 1759 3634 1313 
Q 3634 634 3220 271 
Q 2806 -91 2034 -91 
Q 1263 -91 848 271 
Q 434 634 434 1313 
Q 434 1759 690 2068 
Q 947 2378 1403 2484 
z
M 1172 3481 
Q 1172 3119 1398 2916 
Q 1625 2713 2034 2713 
Q 2441 2713 2670 2916 
Q 2900 3119 2900 3481 
Q 2900 3844 2670 4047 
Q 2441 4250 2034 4250 
Q 1625 4250 1398 4047 
Q 1172 3844 1172 3481 
z
" transform="scale(0.015625)"/>
       </defs>
       <use xlink:href="#DejaVuSans-34"/>
       <use xlink:href="#DejaVuSans-2e" x="63.623047"/>
       <use xlink:href="#DejaVuSans-38" x="95.410156"/>
      </g>
     </g>
    </g>
    <g id="ytick_8">
     <g id="line2d_15">
      <g>
       <use xlink:href="#m5dec0cb7bb" x="57.6" y="74.589949" style="stroke: #000000; stroke-width: 0.8"/>
      </g>
     </g>
     <g id="text_16">
      <!-- 4.9 -->
      <g transform="translate(34.696875 78.389167)scale(0.1 -0.1)">
       <defs>
        <path id="DejaVuSans-39" d="M 703 97 
L 703 672 
Q 941 559 1184 500 
Q 1428 441 1663 441 
Q 2288 441 2617 861 
Q 2947 1281 2994 2138 
Q 2813 1869 2534 1725 
Q 2256 1581 1919 1581 
Q 1219 1581 811 2004 
Q 403 2428 403 3163 
Q 403 3881 828 4315 
Q 1253 4750 1959 4750 
Q 2769 4750 3195 4129 
Q 3622 3509 3622 2328 
Q 3622 1225 3098 567 
Q 2575 -91 1691 -91 
Q 1453 -91 1209 -44 
Q 966 3 703 97 
z
M 1959 2075 
Q 2384 2075 2632 2365 
Q 2881 2656 2881 3163 
Q 2881 3666 2632 3958 
Q 2384 4250 1959 4250 
Q 1534 4250 1286 3958 
Q 1038 3666 1038 3163 
Q 1038 2656 1286 2365 
Q 1534 2075 1959 2075 
z
" transform="scale(0.015625)"/>
       </defs>
       <use xlink:href="#DejaVuSans-34"/>
       <use xlink:href="#DejaVuSans-2e" x="63.623047"/>
       <use xlink:href="#DejaVuSans-39" x="95.410156"/>
      </g>
     </g>
    </g>
    <g id="ytick_9">
     <g id="line2d_16">
      <g>
       <use xlink:href="#m5dec0cb7bb" x="57.6" y="42.023035" style="stroke: #000000; stroke-width: 0.8"/>
      </g>
     </g>
     <g id="text_17">
      <!-- 5.0 -->
      <g transform="translate(34.696875 45.822254)scale(0.1 -0.1)">
       <use xlink:href="#DejaVuSans-35"/>
       <use xlink:href="#DejaVuSans-2e" x="63.623047"/>
       <use xlink:href="#DejaVuSans-30" x="95.410156"/>
      </g>
     </g>
    </g>
    <g id="text_18">
     <!-- Price -->
     <g transform="translate(28.617188 186.725656)rotate(-90)scale(0.1 -0.1)">
      <defs>
       <path id="DejaVuSans-50" d="M 1259 4147 
L 1259 2394 
L 2053 2394 
Q 2494 2394 2734 2622 
Q 2975 2850 2975 3272 
Q 2975 3691 2734 3919 
Q 2494 4147 2053 4147 
L 1259 4147 
z
M 628 4666 
L 2053 4666 
Q 2838 4666 3239 4311 
Q 3641 3956 3641 3272 
Q 3641 2581 3239 2228 
Q 2838 1875 2053 1875 
L 1259 1875 
L 1259 0 
L 628 0 
L 628 4666 
z
" transform="scale(0.015625)"/>
       <path id="DejaVuSans-72" d="M 2631 2963 
Q 2534 3019 2420 3045 
Q 2306 3072 2169 3072 
Q 1681 3072 1420 2755 
Q 1159 2438 1159 1844 
L 1159 0 
L 581 0 
L 581 3500 
L 1159 3500 
L 1159 2956 
Q 1341 3275 1631 3429 
Q 1922 3584 2338 3584 
Q 2397 3584 2469 3576 
Q 2541 3569 2628 3553 
L 2631 2963 
z
" transform="scale(0.015625)"/>
       <path id="DejaVuSans-63" d="M 3122 3366 
L 3122 2828 
Q 2878 2963 2633 3030 
Q 2388 3097 2138 3097 
Q 1578 3097 1268 2742 
Q 959 2388 959 1747 
Q 959 1106 1268 751 
Q 1578 397 2138 397 
Q 2388 397 2633 464 
Q 2878 531 3122 666 
L 3122 134 
Q 2881 22 2623 -34 
Q 2366 -91 2075 -91 
Q 1284 -91 818 406 
Q 353 903 353 1747 
Q 353 2603 823 3093 
Q 1294 3584 2113 3584 
Q 2378 3584 2631 3529 
Q 2884 3475 3122 3366 
z
" transform="scale(0.015625)"/>
      </defs>
      <use xlink:href="#DejaVuSans-50"/>
      <use xlink:href="#DejaVuSans-72" x="58.552734"/>
      <use xlink:href="#DejaVuSans-69" x="99.666016"/>
      <use xlink:href="#DejaVuSans-63" x="127.449219"/>
      <use xlink:href="#DejaVuSans-65" x="182.429688"/>
     </g>
    </g>
   </g>
   <g id="line2d_17">
    <path d="M 73.832727 276.341999 
L 74.368461 277.599081 
L 74.904194 277.937771 
L 75.439928 277.618648 
L 75.975662 273.704069 
L 76.511395 273.508712 
L 77.047129 275.820842 
L 77.582862 274.681005 
L 78.654329 284.548826 
L 79.725797 281.878284 
L 80.26153 282.073796 
L 80.797264 284.434842 
L 81.332997 278.751963 
L 81.868731 277.416614 
L 82.404464 283.506667 
L 82.940198 283.708545 
L 83.475932 283.106171 
L 84.011665 285.252295 
L 84.547399 279.500932 
L 85.618866 290.052655 
L 86.154599 288.756439 
L 86.690333 292.527685 
L 87.226067 287.574363 
L 87.7618 291.9969 
L 88.297534 287.805592 
L 88.833267 290.801624 
L 89.369001 291.974072 
L 89.904734 295.488 
L 90.440468 293.179131 
L 90.976202 292.234651 
L 91.511935 289.857298 
L 92.047669 288.320071 
L 92.583402 292.625363 
L 93.654869 288.030298 
L 94.190603 284.880994 
L 94.726337 277.59582 
L 95.26207 279.435865 
L 95.797804 274.908973 
L 96.333537 272.336264 
L 96.869271 271.391784 
L 97.405005 270.90976 
L 97.940738 278.458773 
L 98.476472 287.740369 
L 99.547939 279.36412 
L 100.619406 284.386081 
L 101.690873 288.085582 
L 102.226607 287.740369 
L 102.76234 283.14841 
L 103.298074 280.953525 
L 103.833807 279.956867 
L 104.369541 277.514448 
L 105.441008 268.004884 
L 105.976742 268.232851 
L 107.583942 259.582979 
L 108.119676 265.249708 
L 108.65541 267.630321 
L 109.191143 271.359172 
L 110.26261 265.855499 
L 110.798344 260.976872 
L 111.334077 268.84827 
L 111.869811 261.615274 
L 112.405545 245.37415 
L 112.941278 247.556146 
L 113.477012 225.785104 
L 114.548479 207.713718 
L 115.084212 186.652667 
L 115.619946 204.649202 
L 116.15568 172.33296 
L 116.691413 170.665599 
L 117.227147 184.372993 
L 117.76288 201.200341 
L 118.298614 194.234291 
L 118.834347 191.472593 
L 119.370081 187.610192 
L 119.905815 173.71707 
L 120.441548 183.851991 
L 120.977282 177.195281 
L 121.513015 185.154573 
L 122.048749 197.510468 
L 122.584482 195.478328 
L 123.120216 190.098267 
L 123.65595 188.919296 
L 124.191683 191.700561 
L 124.727417 198.76755 
L 125.26315 192.74272 
L 125.798884 195.315428 
L 126.334617 200.382889 
L 126.870351 197.855681 
L 127.406085 194.559937 
L 127.941818 188.932341 
L 128.477552 191.53766 
L 129.013285 192.873009 
L 129.549019 193.361555 
L 130.084752 189.22553 
L 130.620486 189.811755 
L 131.15622 192.078384 
L 131.691953 183.200545 
L 132.227687 189.518565 
L 132.76342 192.938076 
L 133.299154 189.111547 
L 133.834887 188.789162 
L 134.370621 189.788927 
L 134.906355 186.717889 
L 135.442088 184.633571 
L 135.977822 183.461123 
L 136.513555 185.415152 
L 137.049289 183.721702 
L 137.585023 185.786453 
L 138.120756 190.795213 
L 138.65649 193.426622 
L 139.192223 200.688967 
L 139.727957 200.037676 
L 140.26369 204.792536 
L 140.799424 224.6257 
L 141.335158 228.465429 
L 141.870891 219.38245 
L 142.406625 226.758779 
L 142.942358 236.896961 
L 143.478092 243.136715 
L 144.549559 226.540595 
L 145.085293 227.068274 
L 145.621026 230.175184 
L 147.228227 214.100066 
L 148.299694 233.018255 
L 148.835428 223.192829 
L 149.371161 217.151537 
L 149.906895 221.85748 
L 150.442628 215.744755 
L 150.978362 225.472503 
L 151.514095 223.101517 
L 152.049829 219.25216 
L 152.585563 221.082422 
L 153.121296 216.451485 
L 153.65703 220.072874 
L 154.192763 222.837833 
L 154.728497 213.129652 
L 155.26423 217.151537 
L 155.799964 217.438205 
L 156.335698 216.812847 
L 156.871431 213.53667 
L 157.407165 213.481386 
L 157.942898 216.77713 
L 158.478632 215.897716 
L 159.014365 208.306464 
L 159.550099 214.002388 
L 160.085833 212.804006 
L 160.621566 212.15256 
L 161.1573 212.956968 
L 162.228767 227.156169 
L 162.7645 230.806909 
L 163.300234 236.089292 
L 163.835968 236.300954 
L 164.371701 240.629074 
L 164.907435 233.94643 
L 165.443168 236.590727 
L 165.978902 235.926392 
L 166.514635 230.364018 
L 167.586103 238.723962 
L 168.121836 237.85107 
L 168.65757 233.158327 
L 169.193303 234.33062 
L 169.729037 238.150782 
L 170.26477 235.887414 
L 170.800504 238.075932 
L 171.336238 238.385272 
L 171.871971 238.987801 
L 172.407705 238.834684 
L 172.943438 245.266688 
L 173.479172 237.77622 
L 174.014905 244.654375 
L 174.550639 234.721488 
L 175.086373 240.222055 
L 175.622106 238.714178 
L 176.15784 234.35997 
L 176.693573 235.438001 
L 177.229307 243.123671 
L 177.765041 238.841207 
L 178.300774 241.889417 
L 179.907975 219.284772 
L 180.443708 227.752177 
L 180.979442 222.378637 
L 181.515176 225.928437 
L 182.050909 220.978221 
L 182.586643 223.127606 
L 183.122376 223.876731 
L 183.65811 220.978221 
L 184.193843 222.736894 
L 184.729577 220.890327 
L 185.265311 221.108511 
L 185.801044 208.032841 
L 186.336778 210.586138 
L 186.872511 201.164469 
L 187.408245 189.622765 
L 187.943978 188.28105 
L 188.479712 177.042164 
L 189.015446 195.963613 
L 189.551179 195.087461 
L 190.086913 212.543428 
L 190.622646 207.879879 
L 191.15838 207.375028 
L 191.694113 209.0295 
L 192.229847 211.826914 
L 192.765581 210.687077 
L 193.301314 217.005098 
L 193.837048 219.613678 
L 194.372781 207.684368 
L 194.908515 200.988679 
L 195.444248 191.895917 
L 195.979982 191.146948 
L 196.515716 182.353897 
L 197.051449 185.372757 
L 197.587183 182.74461 
L 198.122916 181.594989 
L 198.65865 183.702135 
L 199.194383 179.93089 
L 199.730117 177.237675 
L 200.265851 162.696523 
L 200.801584 165.158509 
L 201.337318 170.085897 
L 201.873051 172.36231 
L 202.408785 191.9644 
L 202.944518 193.801184 
L 203.480252 197.569168 
L 204.015986 204.053195 
L 204.551719 211.924592 
L 205.087453 206.192796 
L 205.623186 212.380527 
L 206.15892 209.54724 
L 206.694653 210.963961 
L 207.230387 215.930328 
L 207.766121 209.218334 
L 208.301854 216.194167 
L 208.837588 216.646841 
L 209.373321 216.529596 
L 209.909055 214.937085 
L 210.444788 218.014645 
L 210.980522 217.949578 
L 212.051989 209.47239 
L 212.587723 212.035315 
L 213.123456 223.371879 
L 213.65919 214.178178 
L 214.194923 215.56881 
L 214.730657 215.800038 
L 215.266391 213.61152 
L 216.337858 229.032086 
L 216.873591 228.892014 
L 217.409325 223.925492 
L 217.945059 226.784868 
L 218.480792 226.341978 
L 219.552259 226.644795 
L 220.087993 212.246977 
L 221.15946 202.936186 
L 221.695194 205.258099 
L 222.230927 206.030051 
L 222.766661 205.01072 
L 223.302394 208.309725 
L 224.373861 179.159093 
L 224.909595 194.403558 
L 225.445329 186.411655 
L 225.981062 187.597147 
L 226.516796 195.354561 
L 228.123996 201.539031 
L 228.65973 197.530035 
L 229.195464 198.595022 
L 229.731197 193.068365 
L 230.266931 192.938076 
L 230.802664 193.781617 
L 231.338398 195.240578 
L 231.874131 194.221247 
L 232.409865 194.696748 
L 232.945599 195.543395 
L 233.481332 192.521274 
L 234.017066 192.377941 
L 234.552799 191.993595 
L 235.088533 189.853994 
L 235.624266 193.035754 
L 236.16 199.907387 
L 236.695734 202.297784 
L 237.231467 211.416635 
L 237.767201 211.012723 
L 238.302934 206.258019 
L 238.838668 210.491721 
L 239.374401 213.715876 
L 239.910135 214.595134 
L 240.445869 207.85379 
L 240.981602 205.802084 
L 241.517336 206.844243 
L 242.053069 211.110401 
L 242.588803 207.332633 
L 243.124536 208.573565 
L 243.66027 208.733049 
L 244.196004 210.367954 
L 245.267471 202.55184 
L 245.803204 203.600521 
L 246.338938 199.334208 
L 246.874671 198.982473 
L 247.410405 195.934263 
L 247.946139 194.208202 
L 248.481872 190.65188 
L 249.017606 185.366235 
L 249.553339 177.589254 
L 250.089073 173.896276 
L 250.624806 183.347139 
L 251.16054 180.754864 
L 251.696274 178.921342 
L 252.232007 179.429299 
L 252.767741 176.332173 
L 253.303474 175.351975 
L 253.839208 173.531497 
L 254.374941 166.243062 
L 254.910675 165.682927 
L 255.446409 175.254297 
L 255.982142 166.402546 
L 256.517876 164.448518 
L 257.053609 162.045077 
L 257.589343 162.650867 
L 258.125077 152.327112 
L 258.66081 155.030265 
L 259.196544 163.432448 
L 259.732277 176.758913 
L 260.268011 172.486077 
L 260.803744 176.127033 
L 261.339478 176.784846 
L 261.875212 182.008685 
L 262.410945 190.743036 
L 262.946679 194.882321 
L 263.482412 195.221011 
L 264.018146 184.796316 
L 264.553879 188.704373 
L 265.089613 188.675179 
L 265.625347 191.788456 
L 266.16108 188.750029 
L 266.696814 188.574084 
L 267.232547 187.124907 
L 267.768281 184.451104 
L 268.304014 188.359161 
L 268.839748 186.978312 
L 269.375482 182.806571 
L 269.911215 181.376805 
L 270.982682 185.98507 
L 271.518416 191.83085 
L 272.054149 187.704609 
L 272.589883 181.012182 
L 273.125617 182.549254 
L 273.66135 188.245177 
L 274.197084 186.020942 
L 274.732817 192.34533 
L 275.268551 188.088955 
L 275.804284 197.790614 
L 276.340018 196.820044 
L 276.875752 196.168753 
L 277.411485 198.272637 
L 277.947219 198.311615 
L 278.482952 206.854026 
L 279.018686 207.612778 
L 279.554419 212.250238 
L 280.090153 212.054882 
L 280.625887 205.284188 
L 281.697354 210.941134 
L 282.233087 213.357619 
L 282.768821 219.317383 
L 283.304554 220.619965 
L 283.840288 217.894139 
L 284.376022 220.112007 
L 284.911755 216.321195 
L 285.447489 218.600869 
L 285.983222 214.92078 
L 286.518956 215.868522 
L 287.054689 206.124468 
L 287.590423 199.099718 
L 288.126157 196.748455 
L 288.66189 197.002511 
L 289.197624 186.499705 
L 289.733357 188.544889 
L 290.269091 196.347804 
L 290.804824 200.949546 
L 291.340558 196.061291 
L 291.876292 199.314641 
L 292.412025 201.389175 
L 292.947759 204.789275 
L 293.483492 199.191029 
L 294.019226 198.067342 
L 294.554959 200.301516 
L 295.090693 201.747432 
L 295.626427 204.955281 
L 296.16216 200.734623 
L 296.697894 194.292836 
L 297.233627 192.866487 
L 298.305095 188.499234 
L 298.840828 179.8006 
L 299.376562 184.959217 
L 299.912295 179.976545 
L 300.448029 177.788027 
L 300.983762 174.765751 
L 301.519496 175.319364 
L 302.590963 184.718205 
L 303.66243 174.993718 
L 304.198164 173.629175 
L 304.733897 174.928651 
L 305.269631 182.705632 
L 305.805365 183.851991 
L 307.412565 191.518249 
L 307.948299 190.21225 
L 308.484032 181.865351 
L 309.019766 184.451104 
L 309.5555 180.569136 
L 310.091233 179.660528 
L 310.626967 181.608034 
L 311.1627 183.995169 
L 311.698434 186.913245 
L 312.234167 184.923345 
L 312.769901 186.978312 
L 313.305635 178.732352 
L 313.841368 180.530158 
L 314.377102 178.38714 
L 314.912835 181.513617 
L 315.448569 181.331305 
L 315.984302 181.321522 
L 316.520036 180.960004 
L 317.05577 186.607166 
L 317.591503 198.034887 
L 318.127237 203.489799 
L 318.66297 201.317586 
L 319.198704 202.620323 
L 319.734437 197.917642 
L 320.270171 201.262147 
L 320.805905 200.526222 
L 321.341638 191.397743 
L 321.877372 192.189107 
L 322.413105 189.629287 
L 322.948839 189.111547 
L 323.484572 184.304665 
L 324.020306 181.520139 
L 324.55604 177.045425 
L 325.091773 171.00755 
L 325.627507 166.754281 
L 326.16324 166.474291 
L 326.698974 169.333666 
L 327.234707 170.838282 
L 327.770441 173.114695 
L 328.306175 161.221257 
L 328.841908 162.484861 
L 329.913375 179.963501 
L 330.984842 171.515662 
L 331.520576 190.267689 
L 332.05631 177.257087 
L 332.592043 171.681669 
L 333.127777 178.126717 
L 333.66351 177.905272 
L 334.199244 181.060943 
L 334.734977 182.190997 
L 335.270711 184.975522 
L 335.806445 177.589254 
L 336.342178 178.38714 
L 336.877912 178.458885 
L 337.413645 171.737108 
L 337.949379 173.98417 
L 338.485113 169.294533 
L 339.020846 170.206403 
L 339.55658 165.989006 
L 340.092313 165.875022 
L 340.628047 169.949085 
L 341.16378 167.464272 
L 341.699514 171.606818 
L 342.235248 179.032064 
L 342.770981 173.153673 
L 343.306715 173.078823 
L 343.842448 175.905588 
L 344.378182 176.296456 
L 344.913915 170.395237 
L 345.449649 161.911681 
L 345.985383 159.856714 
L 346.521116 158.514843 
L 348.128317 150.646707 
L 349.199784 138.470017 
L 349.735518 138.857469 
L 350.271251 147.360746 
L 350.806985 147.279373 
L 351.342718 138.798924 
L 352.414185 155.030265 
L 352.949919 165.875022 
L 353.485653 173.818009 
L 354.021386 173.560847 
L 354.55712 175.710231 
L 355.092853 179.35771 
L 355.628587 169.994741 
L 356.16432 171.645796 
L 356.700054 167.829051 
L 357.235788 160.423371 
L 357.771521 163.57252 
L 358.307255 165.953134 
L 358.842988 163.02543 
L 359.378722 162.960207 
L 359.914455 163.885121 
L 360.450189 165.888067 
L 360.985923 162.71609 
L 361.521656 164.015411 
L 362.05739 165.995528 
L 362.593123 172.632672 
L 363.128857 173.98417 
L 363.66459 174.033087 
L 364.200324 175.400892 
L 364.736058 176.110727 
L 365.271791 181.02181 
L 365.807525 184.587916 
L 366.343258 182.158541 
L 366.878992 187.743742 
L 367.414725 190.909197 
L 367.950459 192.260696 
L 368.486193 193.071626 
L 369.021926 198.083648 
L 369.55766 192.645041 
L 370.093393 192.706847 
L 370.629127 197.123017 
L 371.16486 195.022394 
L 371.700594 198.139087 
L 372.236328 196.624688 
L 372.772061 196.022158 
L 373.307795 184.340382 
L 373.843528 179.748578 
L 374.379262 178.673808 
L 374.914995 186.724411 
L 375.450729 178.458885 
L 375.986463 179.194809 
L 376.522196 182.813093 
L 377.05793 192.67113 
L 377.593663 192.814309 
L 378.129397 186.750345 
L 378.665131 194.051824 
L 379.200864 196.670343 
L 379.736598 207.316328 
L 380.272331 204.391885 
L 380.808065 183.321051 
L 381.343798 188.316922 
L 381.879532 207.010249 
L 382.415266 205.052959 
L 382.950999 198.099954 
L 383.486733 197.057795 
L 384.022466 190.801736 
L 384.5582 190.251384 
L 385.629667 165.406043 
L 386.165401 139.841083 
L 386.701134 144.602309 
L 387.236868 132.23337 
L 387.772601 126.208539 
L 388.308335 103.476866 
L 388.844068 64.878475 
L 389.379802 53.568 
L 390.451269 119.971891 
L 390.987003 116.125796 
L 391.522736 116.747892 
L 392.05847 132.249675 
L 392.594203 139.619638 
L 393.129937 153.890428 
L 393.665671 148.458188 
L 394.201404 136.616928 
L 395.272871 148.393121 
L 395.808605 135.148184 
L 396.344338 118.920104 
L 396.880072 144.051957 
L 397.415806 142.651542 
L 397.951539 154.57433 
L 398.487273 157.042838 
L 398.487273 157.042838 
" clip-path="url(#p1b1cafc24b)" style="fill: none; stroke: #000000; stroke-width: 1.5; stroke-linecap: square"/>
   </g>
   <g id="line2d_18">
    <path d="M 73.832727 151.674734 
L 74.368461 157.004015 
L 74.904194 167.830759 
L 75.975662 199.38328 
L 77.047129 232.55735 
L 78.118596 258.645642 
L 78.654329 268.024761 
L 79.190063 275.124206 
L 79.725797 280.153155 
L 80.26153 283.352308 
L 80.797264 285.029141 
L 81.332997 285.582444 
L 81.868731 285.223255 
L 82.404464 284.16448 
L 84.011665 280.322577 
L 84.547399 279.49736 
L 85.083132 278.894209 
L 85.618866 278.572136 
L 86.154599 278.67851 
L 86.690333 279.183206 
L 87.7618 281.178232 
L 89.369001 284.640448 
L 90.976202 287.462864 
L 91.511935 288.229692 
L 92.047669 288.778801 
L 92.583402 289.042175 
L 93.119136 289.128672 
L 93.654869 289.07137 
L 94.190603 288.845887 
L 94.726337 288.389797 
L 95.26207 287.531658 
L 95.797804 286.310759 
L 96.869271 282.803509 
L 98.476472 276.364051 
L 99.012205 275.066127 
L 99.547939 274.503197 
L 100.083672 274.465927 
L 100.619406 274.830551 
L 101.15514 275.533088 
L 102.226607 277.721295 
L 103.298074 280.280649 
L 103.833807 281.213327 
L 104.369541 281.751256 
L 104.905275 281.828746 
L 105.441008 281.352934 
L 105.976742 280.247106 
L 106.512475 278.60661 
L 107.583942 274.149133 
L 109.191143 266.790662 
L 109.726877 265.249398 
L 110.26261 264.326192 
L 110.798344 263.853951 
L 111.334077 263.549115 
L 112.405545 263.461997 
L 112.941278 262.880742 
L 113.477012 261.627542 
L 114.012745 259.117416 
L 114.548479 255.016953 
L 115.084212 249.271336 
L 116.15568 233.069345 
L 118.298614 196.722521 
L 118.834347 191.837838 
L 119.370081 189.019459 
L 119.905815 187.708491 
L 120.441548 186.885603 
L 121.513015 186.191141 
L 122.048749 186.089736 
L 122.584482 186.698478 
L 123.65595 189.35877 
L 125.26315 193.053923 
L 126.334617 194.948164 
L 127.406085 196.638043 
L 127.941818 197.214328 
L 128.477552 197.284364 
L 129.013285 196.939463 
L 130.084752 195.685487 
L 132.227687 192.312253 
L 132.76342 191.43874 
L 133.299154 190.870374 
L 133.834887 190.513515 
L 134.370621 190.304649 
L 135.442088 190.167371 
L 135.977822 189.954156 
L 137.049289 189.028311 
L 138.120756 187.892045 
L 138.65649 187.661127 
L 139.192223 187.892045 
L 139.727957 188.830159 
L 140.26369 190.356982 
L 140.799424 192.440212 
L 141.335158 195.622904 
L 142.942358 209.263679 
L 144.549559 224.023326 
L 145.085293 227.86321 
L 145.621026 230.558598 
L 146.15676 232.21307 
L 146.692493 232.808146 
L 147.228227 232.323327 
L 147.76396 230.754576 
L 148.835428 226.872918 
L 149.906895 223.873935 
L 150.978362 221.447822 
L 151.514095 220.653508 
L 152.049829 220.253944 
L 152.585563 220.062159 
L 155.26423 219.843509 
L 156.335698 219.194858 
L 157.407165 218.232053 
L 158.478632 216.946087 
L 159.014365 216.429278 
L 160.621566 214.484101 
L 161.693033 213.481697 
L 162.228767 213.399548 
L 162.7645 213.9954 
L 163.300234 215.373609 
L 163.835968 217.565543 
L 164.907435 223.591306 
L 165.978902 229.704497 
L 166.514635 232.180148 
L 167.050369 233.931832 
L 167.586103 235.052103 
L 168.121836 235.779642 
L 168.65757 236.23185 
L 169.193303 236.337137 
L 170.26477 235.92546 
L 171.336238 235.482259 
L 171.871971 235.437069 
L 172.407705 235.549345 
L 172.943438 235.794239 
L 174.014905 236.955351 
L 175.086373 238.284643 
L 175.622106 238.709054 
L 176.15784 238.968545 
L 176.693573 238.928946 
L 177.765041 238.373159 
L 178.300774 238.183549 
L 179.372241 238.047824 
L 179.907975 237.506635 
L 180.443708 236.225793 
L 181.515176 232.530019 
L 183.122376 226.651473 
L 184.193843 223.882942 
L 184.729577 222.947003 
L 185.265311 222.253162 
L 185.801044 221.76151 
L 186.336778 220.962226 
L 186.872511 219.824098 
L 187.408245 218.080178 
L 187.943978 215.361341 
L 188.479712 211.746629 
L 190.086913 198.795813 
L 190.622646 196.592076 
L 191.15838 195.962992 
L 191.694113 196.604034 
L 192.229847 198.188314 
L 193.301314 202.985413 
L 194.908515 210.997038 
L 195.444248 212.376024 
L 195.979982 212.326641 
L 196.515716 210.89144 
L 197.051449 208.045264 
L 198.122916 200.030688 
L 199.194383 191.781002 
L 200.265851 185.503357 
L 201.873051 177.117635 
L 202.408785 175.171837 
L 202.944518 174.713728 
L 203.480252 175.819556 
L 204.015986 178.314619 
L 204.551719 182.002318 
L 207.230387 205.452834 
L 207.766121 208.828708 
L 208.301854 211.32051 
L 208.837588 213.14223 
L 209.373321 214.437669 
L 209.909055 215.308697 
L 210.444788 215.785907 
L 211.516256 216.209075 
L 212.051989 216.15022 
L 212.587723 215.738077 
L 213.123456 215.096725 
L 213.65919 214.76378 
L 214.194923 214.574791 
L 215.266391 214.556001 
L 215.802124 214.599793 
L 216.337858 214.894225 
L 216.873591 215.748016 
L 217.945059 218.751346 
L 219.552259 223.502168 
L 220.087993 224.704277 
L 220.623726 225.126514 
L 221.15946 224.487491 
L 221.695194 222.710028 
L 222.766661 217.122808 
L 226.516796 195.768257 
L 227.052529 193.628811 
L 227.588263 192.442231 
L 228.123996 192.236315 
L 228.65973 192.912763 
L 229.731197 195.46839 
L 230.266931 196.669256 
L 230.802664 197.489349 
L 231.338398 197.912828 
L 231.874131 198.038458 
L 232.409865 197.909877 
L 233.481332 197.266195 
L 234.552799 196.26084 
L 236.16 194.315664 
L 236.695734 194.093753 
L 237.231467 194.435548 
L 237.767201 195.632843 
L 238.838668 199.7757 
L 240.981602 208.890669 
L 241.517336 210.196202 
L 242.053069 210.859761 
L 242.588803 211.130744 
L 243.124536 211.027941 
L 244.196004 210.224465 
L 245.267471 209.340548 
L 246.338938 207.928796 
L 247.410405 205.733911 
L 248.481872 202.757601 
L 249.553339 198.882621 
L 250.624806 193.169149 
L 251.696274 187.474933 
L 252.232007 185.214515 
L 253.303474 182.05931 
L 257.053609 174.206703 
L 258.125077 171.577779 
L 259.732277 166.2339 
L 260.268011 165.670038 
L 260.803744 166.06075 
L 261.339478 167.324665 
L 261.875212 169.215801 
L 262.410945 171.64533 
L 263.482412 178.312445 
L 264.553879 185.578363 
L 265.089613 188.327792 
L 265.625347 190.345335 
L 266.16108 191.765938 
L 266.696814 192.565843 
L 267.232547 192.817725 
L 267.768281 192.585254 
L 268.839748 191.032188 
L 269.911215 189.121019 
L 270.982682 186.936694 
L 271.518416 186.119397 
L 272.054149 185.852762 
L 274.732817 186.597228 
L 275.804284 187.755389 
L 276.340018 188.777671 
L 277.411485 191.621052 
L 279.018686 196.497659 
L 280.090153 200.610701 
L 281.16162 204.939286 
L 282.233087 207.947741 
L 283.304554 210.341244 
L 285.447489 215.676582 
L 285.983222 216.628361 
L 286.518956 217.229959 
L 287.054689 217.50498 
L 287.590423 217.153556 
L 288.126157 215.921942 
L 288.66189 213.823958 
L 289.197624 211.117234 
L 291.340558 197.99125 
L 291.876292 196.237857 
L 292.412025 195.347418 
L 292.947759 195.283438 
L 293.483492 196.00461 
L 296.16216 201.318673 
L 296.697894 202.136281 
L 297.233627 202.456491 
L 297.769361 202.177588 
L 298.305095 201.283422 
L 298.840828 199.838593 
L 299.912295 195.212315 
L 302.590963 182.249076 
L 303.126697 180.998982 
L 303.66243 180.399558 
L 305.269631 179.531636 
L 305.805365 179.578534 
L 306.341098 180.020493 
L 306.876832 180.891676 
L 307.412565 182.161492 
L 309.019766 187.043069 
L 309.5555 188.033671 
L 310.091233 188.414289 
L 310.626967 188.185701 
L 312.769901 185.748251 
L 313.841368 185.339525 
L 314.377102 184.99571 
L 315.984302 183.51827 
L 317.05577 182.928164 
L 317.591503 183.006897 
L 318.127237 183.877148 
L 318.66297 185.722162 
L 319.734437 191.192914 
L 320.805905 196.62329 
L 321.341638 198.792863 
L 321.877372 200.112216 
L 322.413105 200.54874 
L 322.948839 200.125261 
L 323.484572 199.009804 
L 324.020306 197.257033 
L 325.091773 192.256969 
L 326.16324 185.506463 
L 327.234707 178.410589 
L 327.770441 175.627927 
L 328.841908 172.097383 
L 329.377642 170.757376 
L 329.913375 169.992101 
L 330.449109 170.189631 
L 330.984842 171.104917 
L 331.520576 172.294603 
L 333.127777 178.056215 
L 333.66351 179.386128 
L 334.734977 181.099145 
L 335.806445 182.402659 
L 336.342178 182.81418 
L 336.877912 182.939345 
L 337.413645 182.811385 
L 337.949379 182.220502 
L 338.485113 181.308011 
L 339.55658 178.551128 
L 341.16378 173.547958 
L 341.699514 172.277055 
L 342.235248 171.479945 
L 342.770981 171.477305 
L 343.306715 171.971287 
L 343.842448 172.747898 
L 345.449649 175.749054 
L 345.985383 175.914129 
L 346.521116 175.239233 
L 347.05685 173.807139 
L 347.592583 171.744251 
L 348.66405 166.399906 
L 349.735518 159.938086 
L 350.806985 153.619911 
L 351.342718 151.566651 
L 351.878452 149.980508 
L 352.414185 149.080751 
L 352.949919 149.19256 
L 353.485653 150.655713 
L 354.021386 153.548011 
L 355.092853 161.898637 
L 356.16432 170.724143 
L 356.700054 174.021751 
L 357.235788 176.198933 
L 357.771521 176.950076 
L 358.307255 176.532032 
L 358.842988 175.373094 
L 359.914455 171.821897 
L 360.985923 168.496803 
L 361.521656 167.304632 
L 362.05739 166.474291 
L 362.593123 166.077677 
L 363.128857 166.352232 
L 363.66459 167.282426 
L 364.200324 168.695265 
L 365.271791 172.299727 
L 366.878992 178.716202 
L 370.093393 191.480668 
L 371.16486 194.184443 
L 372.236328 195.853512 
L 372.772061 196.424051 
L 373.307795 196.805447 
L 373.843528 196.555894 
L 374.379262 195.462489 
L 375.450729 191.56406 
L 377.05793 185.317473 
L 377.593663 184.343798 
L 378.129397 184.315535 
L 378.665131 184.841351 
L 379.200864 185.947956 
L 379.736598 187.570903 
L 381.343798 194.868034 
L 382.950999 198.477 
L 383.486733 199.446172 
L 384.022466 200.072772 
L 384.5582 200.097308 
L 385.093933 199.509376 
L 385.629667 197.916555 
L 386.165401 194.958569 
L 386.701134 189.821072 
L 387.772601 175.019031 
L 388.844068 156.610663 
L 390.987003 112.864526 
L 391.522736 109.261461 
L 392.05847 109.01284 
L 392.594203 111.837431 
L 393.129937 117.068257 
L 395.272871 146.049467 
L 395.808605 151.17656 
L 396.344338 154.43581 
L 396.880072 155.076697 
L 397.415806 154.41966 
L 398.487273 152.005815 
L 398.487273 152.005815 
" clip-path="url(#p1b1cafc24b)" style="fill: none; stroke: #008000; stroke-width: 1.5; stroke-linecap: square"/>
   </g>
   <g id="patch_3">
    <path d="M 57.6 307.584 
L 57.6 41.472 
" style="fill: none; stroke: #000000; stroke-width: 0.8; stroke-linejoin: miter; stroke-linecap: square"/>
   </g>
   <g id="patch_4">
    <path d="M 414.72 307.584 
L 414.72 41.472 
" style="fill: none; stroke: #000000; stroke-width: 0.8; stroke-linejoin: miter; stroke-linecap: square"/>
   </g>
   <g id="patch_5">
    <path d="M 57.6 307.584 
L 414.72 307.584 
" style="fill: none; stroke: #000000; stroke-width: 0.8; stroke-linejoin: miter; stroke-linecap: square"/>
   </g>
   <g id="patch_6">
    <path d="M 57.6 41.472 
L 414.72 41.472 
" style="fill: none; stroke: #000000; stroke-width: 0.8; stroke-linejoin: miter; stroke-linecap: square"/>
   </g>
   <g id="text_19">
    <!-- EUR price prediction -->
    <g transform="translate(174.960938 35.472)scale(0.12 -0.12)">
     <defs>
      <path id="DejaVuSans-45" d="M 628 4666 
L 3578 4666 
L 3578 4134 
L 1259 4134 
L 1259 2753 
L 3481 2753 
L 3481 2222 
L 1259 2222 
L 1259 531 
L 3634 531 
L 3634 0 
L 628 0 
L 628 4666 
z
" transform="scale(0.015625)"/>
      <path id="DejaVuSans-55" d="M 556 4666 
L 1191 4666 
L 1191 1831 
Q 1191 1081 1462 751 
Q 1734 422 2344 422 
Q 2950 422 3222 751 
Q 3494 1081 3494 1831 
L 3494 4666 
L 4128 4666 
L 4128 1753 
Q 4128 841 3676 375 
Q 3225 -91 2344 -91 
Q 1459 -91 1007 375 
Q 556 841 556 1753 
L 556 4666 
z
" transform="scale(0.015625)"/>
      <path id="DejaVuSans-52" d="M 2841 2188 
Q 3044 2119 3236 1894 
Q 3428 1669 3622 1275 
L 4263 0 
L 3584 0 
L 2988 1197 
Q 2756 1666 2539 1819 
Q 2322 1972 1947 1972 
L 1259 1972 
L 1259 0 
L 628 0 
L 628 4666 
L 2053 4666 
Q 2853 4666 3247 4331 
Q 3641 3997 3641 3322 
Q 3641 2881 3436 2590 
Q 3231 2300 2841 2188 
z
M 1259 4147 
L 1259 2491 
L 2053 2491 
Q 2509 2491 2742 2702 
Q 2975 2913 2975 3322 
Q 2975 3731 2742 3939 
Q 2509 4147 2053 4147 
L 1259 4147 
z
" transform="scale(0.015625)"/>
      <path id="DejaVuSans-20" transform="scale(0.015625)"/>
      <path id="DejaVuSans-70" d="M 1159 525 
L 1159 -1331 
L 581 -1331 
L 581 3500 
L 1159 3500 
L 1159 2969 
Q 1341 3281 1617 3432 
Q 1894 3584 2278 3584 
Q 2916 3584 3314 3078 
Q 3713 2572 3713 1747 
Q 3713 922 3314 415 
Q 2916 -91 2278 -91 
Q 1894 -91 1617 61 
Q 1341 213 1159 525 
z
M 3116 1747 
Q 3116 2381 2855 2742 
Q 2594 3103 2138 3103 
Q 1681 3103 1420 2742 
Q 1159 2381 1159 1747 
Q 1159 1113 1420 752 
Q 1681 391 2138 391 
Q 2594 391 2855 752 
Q 3116 1113 3116 1747 
z
" transform="scale(0.015625)"/>
      <path id="DejaVuSans-64" d="M 2906 2969 
L 2906 4863 
L 3481 4863 
L 3481 0 
L 2906 0 
L 2906 525 
Q 2725 213 2448 61 
Q 2172 -91 1784 -91 
Q 1150 -91 751 415 
Q 353 922 353 1747 
Q 353 2572 751 3078 
Q 1150 3584 1784 3584 
Q 2172 3584 2448 3432 
Q 2725 3281 2906 2969 
z
M 947 1747 
Q 947 1113 1208 752 
Q 1469 391 1925 391 
Q 2381 391 2643 752 
Q 2906 1113 2906 1747 
Q 2906 2381 2643 2742 
Q 2381 3103 1925 3103 
Q 1469 3103 1208 2742 
Q 947 2381 947 1747 
z
" transform="scale(0.015625)"/>
      <path id="DejaVuSans-74" d="M 1172 4494 
L 1172 3500 
L 2356 3500 
L 2356 3053 
L 1172 3053 
L 1172 1153 
Q 1172 725 1289 603 
Q 1406 481 1766 481 
L 2356 481 
L 2356 0 
L 1766 0 
Q 1100 0 847 248 
Q 594 497 594 1153 
L 594 3053 
L 172 3053 
L 172 3500 
L 594 3500 
L 594 4494 
L 1172 4494 
z
" transform="scale(0.015625)"/>
      <path id="DejaVuSans-6f" d="M 1959 3097 
Q 1497 3097 1228 2736 
Q 959 2375 959 1747 
Q 959 1119 1226 758 
Q 1494 397 1959 397 
Q 2419 397 2687 759 
Q 2956 1122 2956 1747 
Q 2956 2369 2687 2733 
Q 2419 3097 1959 3097 
z
M 1959 3584 
Q 2709 3584 3137 3096 
Q 3566 2609 3566 1747 
Q 3566 888 3137 398 
Q 2709 -91 1959 -91 
Q 1206 -91 779 398 
Q 353 888 353 1747 
Q 353 2609 779 3096 
Q 1206 3584 1959 3584 
z
" transform="scale(0.015625)"/>
      <path id="DejaVuSans-6e" d="M 3513 2113 
L 3513 0 
L 2938 0 
L 2938 2094 
Q 2938 2591 2744 2837 
Q 2550 3084 2163 3084 
Q 1697 3084 1428 2787 
Q 1159 2491 1159 1978 
L 1159 0 
L 581 0 
L 581 3500 
L 1159 3500 
L 1159 2956 
Q 1366 3272 1645 3428 
Q 1925 3584 2291 3584 
Q 2894 3584 3203 3211 
Q 3513 2838 3513 2113 
z
" transform="scale(0.015625)"/>
     </defs>
     <use xlink:href="#DejaVuSans-45"/>
     <use xlink:href="#DejaVuSans-55" x="63.183594"/>
     <use xlink:href="#DejaVuSans-52" x="136.376953"/>
     <use xlink:href="#DejaVuSans-20" x="205.859375"/>
     <use xlink:href="#DejaVuSans-70" x="237.646484"/>
     <use xlink:href="#DejaVuSans-72" x="301.123047"/>
     <use xlink:href="#DejaVuSans-69" x="342.236328"/>
     <use xlink:href="#DejaVuSans-63" x="370.019531"/>
     <use xlink:href="#DejaVuSans-65" x="425"/>
     <use xlink:href="#DejaVuSans-20" x="486.523438"/>
     <use xlink:href="#DejaVuSans-70" x="518.310547"/>
     <use xlink:href="#DejaVuSans-72" x="581.787109"/>
     <use xlink:href="#DejaVuSans-65" x="620.650391"/>
     <use xlink:href="#DejaVuSans-64" x="682.173828"/>
     <use xlink:href="#DejaVuSans-69" x="745.650391"/>
     <use xlink:href="#DejaVuSans-63" x="773.433594"/>
     <use xlink:href="#DejaVuSans-74" x="828.414062"/>
     <use xlink:href="#DejaVuSans-69" x="867.623047"/>
     <use xlink:href="#DejaVuSans-6f" x="895.40625"/>
     <use xlink:href="#DejaVuSans-6e" x="956.587891"/>
    </g>
   </g>
   <g id="legend_1">
    <g id="patch_7">
     <path d="M 64.6 78.82825 
L 176.323438 78.82825 
Q 178.323438 78.82825 178.323438 76.82825 
L 178.323438 48.472 
Q 178.323438 46.472 176.323438 46.472 
L 64.6 46.472 
Q 62.6 46.472 62.6 48.472 
L 62.6 76.82825 
Q 62.6 78.82825 64.6 78.82825 
z
" style="fill: #ffffff; opacity: 0.8; stroke: #cccccc; stroke-linejoin: miter"/>
    </g>
    <g id="line2d_19">
     <path d="M 66.6 54.570437 
L 76.6 54.570437 
L 86.6 54.570437 
" style="fill: none; stroke: #000000; stroke-width: 1.5; stroke-linecap: square"/>
    </g>
    <g id="text_20">
     <!-- Actual Prices -->
     <g transform="translate(94.6 58.070437)scale(0.1 -0.1)">
      <defs>
       <path id="DejaVuSans-41" d="M 2188 4044 
L 1331 1722 
L 3047 1722 
L 2188 4044 
z
M 1831 4666 
L 2547 4666 
L 4325 0 
L 3669 0 
L 3244 1197 
L 1141 1197 
L 716 0 
L 50 0 
L 1831 4666 
z
" transform="scale(0.015625)"/>
       <path id="DejaVuSans-75" d="M 544 1381 
L 544 3500 
L 1119 3500 
L 1119 1403 
Q 1119 906 1312 657 
Q 1506 409 1894 409 
Q 2359 409 2629 706 
Q 2900 1003 2900 1516 
L 2900 3500 
L 3475 3500 
L 3475 0 
L 2900 0 
L 2900 538 
Q 2691 219 2414 64 
Q 2138 -91 1772 -91 
Q 1169 -91 856 284 
Q 544 659 544 1381 
z
M 1991 3584 
L 1991 3584 
z
" transform="scale(0.015625)"/>
       <path id="DejaVuSans-61" d="M 2194 1759 
Q 1497 1759 1228 1600 
Q 959 1441 959 1056 
Q 959 750 1161 570 
Q 1363 391 1709 391 
Q 2188 391 2477 730 
Q 2766 1069 2766 1631 
L 2766 1759 
L 2194 1759 
z
M 3341 1997 
L 3341 0 
L 2766 0 
L 2766 531 
Q 2569 213 2275 61 
Q 1981 -91 1556 -91 
Q 1019 -91 701 211 
Q 384 513 384 1019 
Q 384 1609 779 1909 
Q 1175 2209 1959 2209 
L 2766 2209 
L 2766 2266 
Q 2766 2663 2505 2880 
Q 2244 3097 1772 3097 
Q 1472 3097 1187 3025 
Q 903 2953 641 2809 
L 641 3341 
Q 956 3463 1253 3523 
Q 1550 3584 1831 3584 
Q 2591 3584 2966 3190 
Q 3341 2797 3341 1997 
z
" transform="scale(0.015625)"/>
       <path id="DejaVuSans-6c" d="M 603 4863 
L 1178 4863 
L 1178 0 
L 603 0 
L 603 4863 
z
" transform="scale(0.015625)"/>
       <path id="DejaVuSans-73" d="M 2834 3397 
L 2834 2853 
Q 2591 2978 2328 3040 
Q 2066 3103 1784 3103 
Q 1356 3103 1142 2972 
Q 928 2841 928 2578 
Q 928 2378 1081 2264 
Q 1234 2150 1697 2047 
L 1894 2003 
Q 2506 1872 2764 1633 
Q 3022 1394 3022 966 
Q 3022 478 2636 193 
Q 2250 -91 1575 -91 
Q 1294 -91 989 -36 
Q 684 19 347 128 
L 347 722 
Q 666 556 975 473 
Q 1284 391 1588 391 
Q 1994 391 2212 530 
Q 2431 669 2431 922 
Q 2431 1156 2273 1281 
Q 2116 1406 1581 1522 
L 1381 1569 
Q 847 1681 609 1914 
Q 372 2147 372 2553 
Q 372 3047 722 3315 
Q 1072 3584 1716 3584 
Q 2034 3584 2315 3537 
Q 2597 3491 2834 3397 
z
" transform="scale(0.015625)"/>
      </defs>
      <use xlink:href="#DejaVuSans-41"/>
      <use xlink:href="#DejaVuSans-63" x="66.658203"/>
      <use xlink:href="#DejaVuSans-74" x="121.638672"/>
      <use xlink:href="#DejaVuSans-75" x="160.847656"/>
      <use xlink:href="#DejaVuSans-61" x="224.226562"/>
      <use xlink:href="#DejaVuSans-6c" x="285.505859"/>
      <use xlink:href="#DejaVuSans-20" x="313.289062"/>
      <use xlink:href="#DejaVuSans-50" x="345.076172"/>
      <use xlink:href="#DejaVuSans-72" x="403.628906"/>
      <use xlink:href="#DejaVuSans-69" x="444.742188"/>
      <use xlink:href="#DejaVuSans-63" x="472.525391"/>
      <use xlink:href="#DejaVuSans-65" x="527.505859"/>
      <use xlink:href="#DejaVuSans-73" x="589.029297"/>
     </g>
    </g>
    <g id="line2d_20">
     <path d="M 66.6 69.248562 
L 76.6 69.248562 
L 86.6 69.248562 
" style="fill: none; stroke: #008000; stroke-width: 1.5; stroke-linecap: square"/>
    </g>
    <g id="text_21">
     <!-- Predicted Prices -->
     <g transform="translate(94.6 72.748562)scale(0.1 -0.1)">
      <use xlink:href="#DejaVuSans-50"/>
      <use xlink:href="#DejaVuSans-72" x="58.552734"/>
      <use xlink:href="#DejaVuSans-65" x="97.416016"/>
      <use xlink:href="#DejaVuSans-64" x="158.939453"/>
      <use xlink:href="#DejaVuSans-69" x="222.416016"/>
      <use xlink:href="#DejaVuSans-63" x="250.199219"/>
      <use xlink:href="#DejaVuSans-74" x="305.179688"/>
      <use xlink:href="#DejaVuSans-65" x="344.388672"/>
      <use xlink:href="#DejaVuSans-64" x="405.912109"/>
      <use xlink:href="#DejaVuSans-20" x="469.388672"/>
      <use xlink:href="#DejaVuSans-50" x="501.175781"/>
      <use xlink:href="#DejaVuSans-72" x="559.728516"/>
      <use xlink:href="#DejaVuSans-69" x="600.841797"/>
      <use xlink:href="#DejaVuSans-63" x="628.625"/>
      <use xlink:href="#DejaVuSans-65" x="683.605469"/>
      <use xlink:href="#DejaVuSans-73" x="745.128906"/>
     </g>
    </g>
   </g>
  </g>
 </g>
 <defs>
  <clipPath id="p1b1cafc24b">
   <rect x="57.6" y="41.472" width="357.12" height="266.112"/>
  </clipPath>
 </defs>
</svg>
