<?xml version="1.0" encoding="utf-8" standalone="no"?>
<!DOCTYPE svg PUBLIC "-//W3C//DTD SVG 1.1//EN"
  "http://www.w3.org/Graphics/SVG/1.1/DTD/svg11.dtd">
<svg xmlns:xlink="http://www.w3.org/1999/xlink" width="1382.4pt" height="709.92pt" viewBox="0 0 1382.4 709.92" xmlns="http://www.w3.org/2000/svg" version="1.1">
 <metadata>
  <rdf:RDF xmlns:dc="http://purl.org/dc/elements/1.1/" xmlns:cc="http://creativecommons.org/ns#" xmlns:rdf="http://www.w3.org/1999/02/22-rdf-syntax-ns#">
   <cc:Work>
    <dc:type rdf:resource="http://purl.org/dc/dcmitype/StillImage"/>
    <dc:date>2022-03-31T21:50:46.836524</dc:date>
    <dc:format>image/svg+xml</dc:format>
    <dc:creator>
     <cc:Agent>
      <dc:title>Matplotlib v3.5.1, https://matplotlib.org/</dc:title>
     </cc:Agent>
    </dc:creator>
   </cc:Work>
  </rdf:RDF>
 </metadata>
 <defs>
  <style type="text/css">*{stroke-linejoin: round; stroke-linecap: butt}</style>
 </defs>
 <g id="figure_1">
  <g id="patch_1">
   <path d="M 0 709.92 
L 1382.4 709.92 
L 1382.4 0 
L 0 0 
z
" style="fill: #ffffff"/>
  </g>
  <g id="axes_1">
   <g id="patch_2">
    <path d="M 172.8 631.8288 
L 1244.16 631.8288 
L 1244.16 85.1904 
L 172.8 85.1904 
z
" style="fill: #ffffff"/>
   </g>
   <g id="matplotlib.axis_1">
    <g id="xtick_1">
     <g id="line2d_1">
      <defs>
       <path id="m9e68e90772" d="M 0 0 
L 0 3.5 
" style="stroke: #000000; stroke-width: 0.8"/>
      </defs>
      <g>
       <use xlink:href="#m9e68e90772" x="221.498182" y="631.8288" style="stroke: #000000; stroke-width: 0.8"/>
      </g>
     </g>
     <g id="text_1">
      <!-- 0 -->
      <g transform="translate(218.316932 646.427237)scale(0.1 -0.1)">
       <defs>
        <path id="DejaVuSans-30" d="M 2034 4250 
Q 1547 4250 1301 3770 
Q 1056 3291 1056 2328 
Q 1056 1369 1301 889 
Q 1547 409 2034 409 
Q 2525 409 2770 889 
Q 3016 1369 3016 2328 
Q 3016 3291 2770 3770 
Q 2525 4250 2034 4250 
z
M 2034 4750 
Q 2819 4750 3233 4129 
Q 3647 3509 3647 2328 
Q 3647 1150 3233 529 
Q 2819 -91 2034 -91 
Q 1250 -91 836 529 
Q 422 1150 422 2328 
Q 422 3509 836 4129 
Q 1250 4750 2034 4750 
z
" transform="scale(0.015625)"/>
       </defs>
       <use xlink:href="#DejaVuSans-30"/>
      </g>
     </g>
    </g>
    <g id="xtick_2">
     <g id="line2d_2">
      <g>
       <use xlink:href="#m9e68e90772" x="382.218254" y="631.8288" style="stroke: #000000; stroke-width: 0.8"/>
      </g>
     </g>
     <g id="text_2">
      <!-- 100 -->
      <g transform="translate(372.674504 646.427237)scale(0.1 -0.1)">
       <defs>
        <path id="DejaVuSans-31" d="M 794 531 
L 1825 531 
L 1825 4091 
L 703 3866 
L 703 4441 
L 1819 4666 
L 2450 4666 
L 2450 531 
L 3481 531 
L 3481 0 
L 794 0 
L 794 531 
z
" transform="scale(0.015625)"/>
       </defs>
       <use xlink:href="#DejaVuSans-31"/>
       <use xlink:href="#DejaVuSans-30" x="63.623047"/>
       <use xlink:href="#DejaVuSans-30" x="127.246094"/>
      </g>
     </g>
    </g>
    <g id="xtick_3">
     <g id="line2d_3">
      <g>
       <use xlink:href="#m9e68e90772" x="542.938326" y="631.8288" style="stroke: #000000; stroke-width: 0.8"/>
      </g>
     </g>
     <g id="text_3">
      <!-- 200 -->
      <g transform="translate(533.394576 646.427237)scale(0.1 -0.1)">
       <defs>
        <path id="DejaVuSans-32" d="M 1228 531 
L 3431 531 
L 3431 0 
L 469 0 
L 469 531 
Q 828 903 1448 1529 
Q 2069 2156 2228 2338 
Q 2531 2678 2651 2914 
Q 2772 3150 2772 3378 
Q 2772 3750 2511 3984 
Q 2250 4219 1831 4219 
Q 1534 4219 1204 4116 
Q 875 4013 500 3803 
L 500 4441 
Q 881 4594 1212 4672 
Q 1544 4750 1819 4750 
Q 2544 4750 2975 4387 
Q 3406 4025 3406 3419 
Q 3406 3131 3298 2873 
Q 3191 2616 2906 2266 
Q 2828 2175 2409 1742 
Q 1991 1309 1228 531 
z
" transform="scale(0.015625)"/>
       </defs>
       <use xlink:href="#DejaVuSans-32"/>
       <use xlink:href="#DejaVuSans-30" x="63.623047"/>
       <use xlink:href="#DejaVuSans-30" x="127.246094"/>
      </g>
     </g>
    </g>
    <g id="xtick_4">
     <g id="line2d_4">
      <g>
       <use xlink:href="#m9e68e90772" x="703.658398" y="631.8288" style="stroke: #000000; stroke-width: 0.8"/>
      </g>
     </g>
     <g id="text_4">
      <!-- 300 -->
      <g transform="translate(694.114648 646.427237)scale(0.1 -0.1)">
       <defs>
        <path id="DejaVuSans-33" d="M 2597 2516 
Q 3050 2419 3304 2112 
Q 3559 1806 3559 1356 
Q 3559 666 3084 287 
Q 2609 -91 1734 -91 
Q 1441 -91 1130 -33 
Q 819 25 488 141 
L 488 750 
Q 750 597 1062 519 
Q 1375 441 1716 441 
Q 2309 441 2620 675 
Q 2931 909 2931 1356 
Q 2931 1769 2642 2001 
Q 2353 2234 1838 2234 
L 1294 2234 
L 1294 2753 
L 1863 2753 
Q 2328 2753 2575 2939 
Q 2822 3125 2822 3475 
Q 2822 3834 2567 4026 
Q 2313 4219 1838 4219 
Q 1578 4219 1281 4162 
Q 984 4106 628 3988 
L 628 4550 
Q 988 4650 1302 4700 
Q 1616 4750 1894 4750 
Q 2613 4750 3031 4423 
Q 3450 4097 3450 3541 
Q 3450 3153 3228 2886 
Q 3006 2619 2597 2516 
z
" transform="scale(0.015625)"/>
       </defs>
       <use xlink:href="#DejaVuSans-33"/>
       <use xlink:href="#DejaVuSans-30" x="63.623047"/>
       <use xlink:href="#DejaVuSans-30" x="127.246094"/>
      </g>
     </g>
    </g>
    <g id="xtick_5">
     <g id="line2d_5">
      <g>
       <use xlink:href="#m9e68e90772" x="864.37847" y="631.8288" style="stroke: #000000; stroke-width: 0.8"/>
      </g>
     </g>
     <g id="text_5">
      <!-- 400 -->
      <g transform="translate(854.83472 646.427237)scale(0.1 -0.1)">
       <defs>
        <path id="DejaVuSans-34" d="M 2419 4116 
L 825 1625 
L 2419 1625 
L 2419 4116 
z
M 2253 4666 
L 3047 4666 
L 3047 1625 
L 3713 1625 
L 3713 1100 
L 3047 1100 
L 3047 0 
L 2419 0 
L 2419 1100 
L 313 1100 
L 313 1709 
L 2253 4666 
z
" transform="scale(0.015625)"/>
       </defs>
       <use xlink:href="#DejaVuSans-34"/>
       <use xlink:href="#DejaVuSans-30" x="63.623047"/>
       <use xlink:href="#DejaVuSans-30" x="127.246094"/>
      </g>
     </g>
    </g>
    <g id="xtick_6">
     <g id="line2d_6">
      <g>
       <use xlink:href="#m9e68e90772" x="1025.098542" y="631.8288" style="stroke: #000000; stroke-width: 0.8"/>
      </g>
     </g>
     <g id="text_6">
      <!-- 500 -->
      <g transform="translate(1015.554792 646.427237)scale(0.1 -0.1)">
       <defs>
        <path id="DejaVuSans-35" d="M 691 4666 
L 3169 4666 
L 3169 4134 
L 1269 4134 
L 1269 2991 
Q 1406 3038 1543 3061 
Q 1681 3084 1819 3084 
Q 2600 3084 3056 2656 
Q 3513 2228 3513 1497 
Q 3513 744 3044 326 
Q 2575 -91 1722 -91 
Q 1428 -91 1123 -41 
Q 819 9 494 109 
L 494 744 
Q 775 591 1075 516 
Q 1375 441 1709 441 
Q 2250 441 2565 725 
Q 2881 1009 2881 1497 
Q 2881 1984 2565 2268 
Q 2250 2553 1709 2553 
Q 1456 2553 1204 2497 
Q 953 2441 691 2322 
L 691 4666 
z
" transform="scale(0.015625)"/>
       </defs>
       <use xlink:href="#DejaVuSans-35"/>
       <use xlink:href="#DejaVuSans-30" x="63.623047"/>
       <use xlink:href="#DejaVuSans-30" x="127.246094"/>
      </g>
     </g>
    </g>
    <g id="xtick_7">
     <g id="line2d_7">
      <g>
       <use xlink:href="#m9e68e90772" x="1185.818614" y="631.8288" style="stroke: #000000; stroke-width: 0.8"/>
      </g>
     </g>
     <g id="text_7">
      <!-- 600 -->
      <g transform="translate(1176.274864 646.427237)scale(0.1 -0.1)">
       <defs>
        <path id="DejaVuSans-36" d="M 2113 2584 
Q 1688 2584 1439 2293 
Q 1191 2003 1191 1497 
Q 1191 994 1439 701 
Q 1688 409 2113 409 
Q 2538 409 2786 701 
Q 3034 994 3034 1497 
Q 3034 2003 2786 2293 
Q 2538 2584 2113 2584 
z
M 3366 4563 
L 3366 3988 
Q 3128 4100 2886 4159 
Q 2644 4219 2406 4219 
Q 1781 4219 1451 3797 
Q 1122 3375 1075 2522 
Q 1259 2794 1537 2939 
Q 1816 3084 2150 3084 
Q 2853 3084 3261 2657 
Q 3669 2231 3669 1497 
Q 3669 778 3244 343 
Q 2819 -91 2113 -91 
Q 1303 -91 875 529 
Q 447 1150 447 2328 
Q 447 3434 972 4092 
Q 1497 4750 2381 4750 
Q 2619 4750 2861 4703 
Q 3103 4656 3366 4563 
z
" transform="scale(0.015625)"/>
       </defs>
       <use xlink:href="#DejaVuSans-36"/>
       <use xlink:href="#DejaVuSans-30" x="63.623047"/>
       <use xlink:href="#DejaVuSans-30" x="127.246094"/>
      </g>
     </g>
    </g>
    <g id="text_8">
     <!-- Time -->
     <g transform="translate(696.246406 660.105362)scale(0.1 -0.1)">
      <defs>
       <path id="DejaVuSans-54" d="M -19 4666 
L 3928 4666 
L 3928 4134 
L 2272 4134 
L 2272 0 
L 1638 0 
L 1638 4134 
L -19 4134 
L -19 4666 
z
" transform="scale(0.015625)"/>
       <path id="DejaVuSans-69" d="M 603 3500 
L 1178 3500 
L 1178 0 
L 603 0 
L 603 3500 
z
M 603 4863 
L 1178 4863 
L 1178 4134 
L 603 4134 
L 603 4863 
z
" transform="scale(0.015625)"/>
       <path id="DejaVuSans-6d" d="M 3328 2828 
Q 3544 3216 3844 3400 
Q 4144 3584 4550 3584 
Q 5097 3584 5394 3201 
Q 5691 2819 5691 2113 
L 5691 0 
L 5113 0 
L 5113 2094 
Q 5113 2597 4934 2840 
Q 4756 3084 4391 3084 
Q 3944 3084 3684 2787 
Q 3425 2491 3425 1978 
L 3425 0 
L 2847 0 
L 2847 2094 
Q 2847 2600 2669 2842 
Q 2491 3084 2119 3084 
Q 1678 3084 1418 2786 
Q 1159 2488 1159 1978 
L 1159 0 
L 581 0 
L 581 3500 
L 1159 3500 
L 1159 2956 
Q 1356 3278 1631 3431 
Q 1906 3584 2284 3584 
Q 2666 3584 2933 3390 
Q 3200 3197 3328 2828 
z
" transform="scale(0.015625)"/>
       <path id="DejaVuSans-65" d="M 3597 1894 
L 3597 1613 
L 953 1613 
Q 991 1019 1311 708 
Q 1631 397 2203 397 
Q 2534 397 2845 478 
Q 3156 559 3463 722 
L 3463 178 
Q 3153 47 2828 -22 
Q 2503 -91 2169 -91 
Q 1331 -91 842 396 
Q 353 884 353 1716 
Q 353 2575 817 3079 
Q 1281 3584 2069 3584 
Q 2775 3584 3186 3129 
Q 3597 2675 3597 1894 
z
M 3022 2063 
Q 3016 2534 2758 2815 
Q 2500 3097 2075 3097 
Q 1594 3097 1305 2825 
Q 1016 2553 972 2059 
L 3022 2063 
z
" transform="scale(0.015625)"/>
      </defs>
      <use xlink:href="#DejaVuSans-54"/>
      <use xlink:href="#DejaVuSans-69" x="57.958984"/>
      <use xlink:href="#DejaVuSans-6d" x="85.742188"/>
      <use xlink:href="#DejaVuSans-65" x="183.154297"/>
     </g>
    </g>
   </g>
   <g id="matplotlib.axis_2">
    <g id="ytick_1">
     <g id="line2d_8">
      <defs>
       <path id="md14e955026" d="M 0 0 
L -3.5 0 
" style="stroke: #000000; stroke-width: 0.8"/>
      </defs>
      <g>
       <use xlink:href="#md14e955026" x="172.8" y="621.505264" style="stroke: #000000; stroke-width: 0.8"/>
      </g>
     </g>
     <g id="text_9">
      <!-- 4.2 -->
      <g transform="translate(149.896875 625.304483)scale(0.1 -0.1)">
       <defs>
        <path id="DejaVuSans-2e" d="M 684 794 
L 1344 794 
L 1344 0 
L 684 0 
L 684 794 
z
" transform="scale(0.015625)"/>
       </defs>
       <use xlink:href="#DejaVuSans-34"/>
       <use xlink:href="#DejaVuSans-2e" x="63.623047"/>
       <use xlink:href="#DejaVuSans-32" x="95.410156"/>
      </g>
     </g>
    </g>
    <g id="ytick_2">
     <g id="line2d_9">
      <g>
       <use xlink:href="#md14e955026" x="172.8" y="554.607396" style="stroke: #000000; stroke-width: 0.8"/>
      </g>
     </g>
     <g id="text_10">
      <!-- 4.3 -->
      <g transform="translate(149.896875 558.406615)scale(0.1 -0.1)">
       <use xlink:href="#DejaVuSans-34"/>
       <use xlink:href="#DejaVuSans-2e" x="63.623047"/>
       <use xlink:href="#DejaVuSans-33" x="95.410156"/>
      </g>
     </g>
    </g>
    <g id="ytick_3">
     <g id="line2d_10">
      <g>
       <use xlink:href="#md14e955026" x="172.8" y="487.709528" style="stroke: #000000; stroke-width: 0.8"/>
      </g>
     </g>
     <g id="text_11">
      <!-- 4.4 -->
      <g transform="translate(149.896875 491.508747)scale(0.1 -0.1)">
       <use xlink:href="#DejaVuSans-34"/>
       <use xlink:href="#DejaVuSans-2e" x="63.623047"/>
       <use xlink:href="#DejaVuSans-34" x="95.410156"/>
      </g>
     </g>
    </g>
    <g id="ytick_4">
     <g id="line2d_11">
      <g>
       <use xlink:href="#md14e955026" x="172.8" y="420.811659" style="stroke: #000000; stroke-width: 0.8"/>
      </g>
     </g>
     <g id="text_12">
      <!-- 4.5 -->
      <g transform="translate(149.896875 424.610878)scale(0.1 -0.1)">
       <use xlink:href="#DejaVuSans-34"/>
       <use xlink:href="#DejaVuSans-2e" x="63.623047"/>
       <use xlink:href="#DejaVuSans-35" x="95.410156"/>
      </g>
     </g>
    </g>
    <g id="ytick_5">
     <g id="line2d_12">
      <g>
       <use xlink:href="#md14e955026" x="172.8" y="353.913791" style="stroke: #000000; stroke-width: 0.8"/>
      </g>
     </g>
     <g id="text_13">
      <!-- 4.6 -->
      <g transform="translate(149.896875 357.71301)scale(0.1 -0.1)">
       <use xlink:href="#DejaVuSans-34"/>
       <use xlink:href="#DejaVuSans-2e" x="63.623047"/>
       <use xlink:href="#DejaVuSans-36" x="95.410156"/>
      </g>
     </g>
    </g>
    <g id="ytick_6">
     <g id="line2d_13">
      <g>
       <use xlink:href="#md14e955026" x="172.8" y="287.015923" style="stroke: #000000; stroke-width: 0.8"/>
      </g>
     </g>
     <g id="text_14">
      <!-- 4.7 -->
      <g transform="translate(149.896875 290.815142)scale(0.1 -0.1)">
       <defs>
        <path id="DejaVuSans-37" d="M 525 4666 
L 3525 4666 
L 3525 4397 
L 1831 0 
L 1172 0 
L 2766 4134 
L 525 4134 
L 525 4666 
z
" transform="scale(0.015625)"/>
       </defs>
       <use xlink:href="#DejaVuSans-34"/>
       <use xlink:href="#DejaVuSans-2e" x="63.623047"/>
       <use xlink:href="#DejaVuSans-37" x="95.410156"/>
      </g>
     </g>
    </g>
    <g id="ytick_7">
     <g id="line2d_14">
      <g>
       <use xlink:href="#md14e955026" x="172.8" y="220.118055" style="stroke: #000000; stroke-width: 0.8"/>
      </g>
     </g>
     <g id="text_15">
      <!-- 4.8 -->
      <g transform="translate(149.896875 223.917273)scale(0.1 -0.1)">
       <defs>
        <path id="DejaVuSans-38" d="M 2034 2216 
Q 1584 2216 1326 1975 
Q 1069 1734 1069 1313 
Q 1069 891 1326 650 
Q 1584 409 2034 409 
Q 2484 409 2743 651 
Q 3003 894 3003 1313 
Q 3003 1734 2745 1975 
Q 2488 2216 2034 2216 
z
M 1403 2484 
Q 997 2584 770 2862 
Q 544 3141 544 3541 
Q 544 4100 942 4425 
Q 1341 4750 2034 4750 
Q 2731 4750 3128 4425 
Q 3525 4100 3525 3541 
Q 3525 3141 3298 2862 
Q 3072 2584 2669 2484 
Q 3125 2378 3379 2068 
Q 3634 1759 3634 1313 
Q 3634 634 3220 271 
Q 2806 -91 2034 -91 
Q 1263 -91 848 271 
Q 434 634 434 1313 
Q 434 1759 690 2068 
Q 947 2378 1403 2484 
z
M 1172 3481 
Q 1172 3119 1398 2916 
Q 1625 2713 2034 2713 
Q 2441 2713 2670 2916 
Q 2900 3119 2900 3481 
Q 2900 3844 2670 4047 
Q 2441 4250 2034 4250 
Q 1625 4250 1398 4047 
Q 1172 3844 1172 3481 
z
" transform="scale(0.015625)"/>
       </defs>
       <use xlink:href="#DejaVuSans-34"/>
       <use xlink:href="#DejaVuSans-2e" x="63.623047"/>
       <use xlink:href="#DejaVuSans-38" x="95.410156"/>
      </g>
     </g>
    </g>
    <g id="ytick_8">
     <g id="line2d_15">
      <g>
       <use xlink:href="#md14e955026" x="172.8" y="153.220186" style="stroke: #000000; stroke-width: 0.8"/>
      </g>
     </g>
     <g id="text_16">
      <!-- 4.9 -->
      <g transform="translate(149.896875 157.019405)scale(0.1 -0.1)">
       <defs>
        <path id="DejaVuSans-39" d="M 703 97 
L 703 672 
Q 941 559 1184 500 
Q 1428 441 1663 441 
Q 2288 441 2617 861 
Q 2947 1281 2994 2138 
Q 2813 1869 2534 1725 
Q 2256 1581 1919 1581 
Q 1219 1581 811 2004 
Q 403 2428 403 3163 
Q 403 3881 828 4315 
Q 1253 4750 1959 4750 
Q 2769 4750 3195 4129 
Q 3622 3509 3622 2328 
Q 3622 1225 3098 567 
Q 2575 -91 1691 -91 
Q 1453 -91 1209 -44 
Q 966 3 703 97 
z
M 1959 2075 
Q 2384 2075 2632 2365 
Q 2881 2656 2881 3163 
Q 2881 3666 2632 3958 
Q 2384 4250 1959 4250 
Q 1534 4250 1286 3958 
Q 1038 3666 1038 3163 
Q 1038 2656 1286 2365 
Q 1534 2075 1959 2075 
z
" transform="scale(0.015625)"/>
       </defs>
       <use xlink:href="#DejaVuSans-34"/>
       <use xlink:href="#DejaVuSans-2e" x="63.623047"/>
       <use xlink:href="#DejaVuSans-39" x="95.410156"/>
      </g>
     </g>
    </g>
    <g id="ytick_9">
     <g id="line2d_16">
      <g>
       <use xlink:href="#md14e955026" x="172.8" y="86.322318" style="stroke: #000000; stroke-width: 0.8"/>
      </g>
     </g>
     <g id="text_17">
      <!-- 5.0 -->
      <g transform="translate(149.896875 90.121537)scale(0.1 -0.1)">
       <use xlink:href="#DejaVuSans-35"/>
       <use xlink:href="#DejaVuSans-2e" x="63.623047"/>
       <use xlink:href="#DejaVuSans-30" x="95.410156"/>
      </g>
     </g>
    </g>
    <g id="text_18">
     <!-- Price -->
     <g transform="translate(143.817187 370.707256)rotate(-90)scale(0.1 -0.1)">
      <defs>
       <path id="DejaVuSans-50" d="M 1259 4147 
L 1259 2394 
L 2053 2394 
Q 2494 2394 2734 2622 
Q 2975 2850 2975 3272 
Q 2975 3691 2734 3919 
Q 2494 4147 2053 4147 
L 1259 4147 
z
M 628 4666 
L 2053 4666 
Q 2838 4666 3239 4311 
Q 3641 3956 3641 3272 
Q 3641 2581 3239 2228 
Q 2838 1875 2053 1875 
L 1259 1875 
L 1259 0 
L 628 0 
L 628 4666 
z
" transform="scale(0.015625)"/>
       <path id="DejaVuSans-72" d="M 2631 2963 
Q 2534 3019 2420 3045 
Q 2306 3072 2169 3072 
Q 1681 3072 1420 2755 
Q 1159 2438 1159 1844 
L 1159 0 
L 581 0 
L 581 3500 
L 1159 3500 
L 1159 2956 
Q 1341 3275 1631 3429 
Q 1922 3584 2338 3584 
Q 2397 3584 2469 3576 
Q 2541 3569 2628 3553 
L 2631 2963 
z
" transform="scale(0.015625)"/>
       <path id="DejaVuSans-63" d="M 3122 3366 
L 3122 2828 
Q 2878 2963 2633 3030 
Q 2388 3097 2138 3097 
Q 1578 3097 1268 2742 
Q 959 2388 959 1747 
Q 959 1106 1268 751 
Q 1578 397 2138 397 
Q 2388 397 2633 464 
Q 2878 531 3122 666 
L 3122 134 
Q 2881 22 2623 -34 
Q 2366 -91 2075 -91 
Q 1284 -91 818 406 
Q 353 903 353 1747 
Q 353 2603 823 3093 
Q 1294 3584 2113 3584 
Q 2378 3584 2631 3529 
Q 2884 3475 3122 3366 
z
" transform="scale(0.015625)"/>
      </defs>
      <use xlink:href="#DejaVuSans-50"/>
      <use xlink:href="#DejaVuSans-72" x="58.552734"/>
      <use xlink:href="#DejaVuSans-69" x="99.666016"/>
      <use xlink:href="#DejaVuSans-63" x="127.449219"/>
      <use xlink:href="#DejaVuSans-65" x="182.429688"/>
     </g>
    </g>
   </g>
   <g id="line2d_17">
    <path d="M 221.498182 567.652524 
L 223.105383 570.234779 
L 224.712583 570.930505 
L 226.319784 570.274973 
L 227.926985 562.233775 
L 229.534185 561.83248 
L 231.141386 566.58198 
L 232.748587 564.240565 
L 234.355788 573.893958 
L 235.962988 584.510713 
L 237.570189 581.594152 
L 239.17739 579.024975 
L 240.78459 579.426588 
L 242.391791 584.276572 
L 243.998992 572.60299 
L 245.606193 569.859962 
L 247.213393 582.369945 
L 248.820594 582.784637 
L 250.427795 581.54726 
L 252.034995 585.955755 
L 253.642196 574.141498 
L 255.249397 584.443724 
L 256.856598 595.816495 
L 258.463798 593.153853 
L 260.070999 600.900619 
L 261.6782 590.725671 
L 263.285401 599.810298 
L 264.892601 591.200653 
L 266.499802 597.355002 
L 268.107003 599.763406 
L 269.714203 606.9816 
L 271.321404 602.238799 
L 272.928605 600.298678 
L 274.535806 595.4152 
L 276.143006 592.25748 
L 277.750207 601.101267 
L 279.357408 596.659277 
L 280.964608 591.662237 
L 282.571809 585.193041 
L 284.17901 570.22808 
L 285.786211 574.007839 
L 287.393411 564.708848 
L 289.000612 559.424076 
L 290.607813 557.483955 
L 292.215014 556.493798 
L 293.822214 572.00073 
L 295.429415 591.066676 
L 297.036616 582.035639 
L 298.643816 573.860464 
L 301.858218 584.176408 
L 303.465419 587.641638 
L 305.072619 591.775799 
L 306.67982 591.066676 
L 308.287021 581.634026 
L 309.894221 577.125366 
L 311.501422 575.078064 
L 313.108623 570.060928 
L 316.323024 550.526699 
L 317.930225 550.994982 
L 321.144626 540.083795 
L 322.751827 533.226703 
L 324.359028 544.867109 
L 325.966229 549.757285 
L 327.573429 557.416967 
L 329.18063 551.971741 
L 330.787831 546.111504 
L 332.395032 536.089992 
L 334.002232 552.259154 
L 335.609433 537.401376 
L 337.216634 504.039399 
L 338.823834 508.521583 
L 340.431035 463.800234 
L 342.038236 443.86471 
L 343.645437 426.678595 
L 345.252637 383.415686 
L 346.859838 420.38357 
L 348.467039 354.000621 
L 350.074239 350.575584 
L 351.68144 378.732856 
L 353.288641 413.299034 
L 354.895842 398.989606 
L 356.503042 393.316619 
L 358.110243 385.382603 
L 359.717444 356.843814 
L 361.324644 377.662631 
L 362.931845 363.988639 
L 364.539046 380.338352 
L 366.146247 405.71942 
L 367.753447 401.545066 
L 369.360648 390.493523 
L 370.967849 388.071721 
L 372.57505 393.784902 
L 374.18225 408.301676 
L 375.789451 395.92567 
L 377.396652 401.210442 
L 379.003852 411.61985 
L 380.611053 406.428544 
L 382.218254 399.658536 
L 383.825455 388.098517 
L 385.432655 393.450277 
L 387.039856 396.193306 
L 388.647057 397.19686 
L 390.254257 388.700777 
L 391.861458 389.904979 
L 393.468659 394.561014 
L 395.07586 376.324452 
L 396.68306 389.302719 
L 398.290261 396.326964 
L 399.897462 388.466636 
L 401.504662 387.804404 
L 403.111863 389.858087 
L 404.719064 383.549664 
L 406.326265 379.268128 
L 407.933465 376.859724 
L 409.540666 380.873624 
L 411.147867 377.394996 
L 412.755068 381.636338 
L 414.362268 391.925167 
L 415.969469 397.330519 
L 417.57667 412.248587 
L 419.18387 410.910727 
L 420.791071 420.678001 
L 422.398272 461.418625 
L 424.005473 469.306068 
L 425.612673 450.648115 
L 427.219874 465.800325 
L 428.827075 486.625842 
L 430.434275 499.443335 
L 432.041476 483.635593 
L 433.648677 465.352139 
L 435.255878 466.43608 
L 436.863078 472.818191 
L 441.68468 439.797219 
L 444.899082 478.658331 
L 446.506283 458.475269 
L 448.113483 446.065449 
L 449.720684 455.73224 
L 451.327885 443.175683 
L 452.935086 463.158099 
L 454.542286 458.2877 
L 456.149487 450.38048 
L 457.756688 454.140142 
L 459.363888 444.627425 
L 460.971089 452.066362 
L 462.57829 457.746049 
L 464.185491 437.803826 
L 465.792691 446.065449 
L 467.399892 446.654312 
L 469.007093 445.369723 
L 470.614293 438.639909 
L 472.221494 438.526347 
L 473.828695 445.296355 
L 475.435896 443.489892 
L 477.043096 427.896195 
L 478.650297 439.596572 
L 480.257498 437.134896 
L 481.864698 435.796717 
L 483.471899 437.449105 
L 485.0791 451.190086 
L 486.686301 466.616631 
L 488.293501 474.115858 
L 489.900702 484.966754 
L 491.507903 485.401543 
L 493.115104 494.292222 
L 494.722304 480.564958 
L 496.329505 485.996786 
L 497.936706 484.63213 
L 499.543906 473.206088 
L 501.151107 482.357703 
L 502.758308 490.378805 
L 504.365509 488.58574 
L 505.972709 478.946064 
L 507.57991 481.354149 
L 509.187111 489.201398 
L 510.794311 484.552062 
L 512.401512 489.047643 
L 514.008713 489.683079 
L 515.615914 490.920776 
L 517.223114 490.606248 
L 518.830315 503.818656 
L 520.437516 488.431985 
L 522.044716 502.560863 
L 523.651917 482.157056 
L 525.259118 493.456139 
L 526.866319 490.358708 
L 528.473519 481.414438 
L 530.08072 483.628894 
L 531.687921 499.41654 
L 533.295122 490.619645 
L 534.902322 496.881176 
L 536.509523 481.561495 
L 538.116724 464.562948 
L 539.723924 450.447468 
L 541.331125 467.840929 
L 542.938326 456.802784 
L 544.545527 464.094665 
L 546.152727 453.926097 
L 547.759928 458.341291 
L 549.367129 459.880118 
L 550.974329 453.926097 
L 552.58153 457.538702 
L 554.188731 453.745546 
L 555.795932 454.193733 
L 557.403132 427.334128 
L 559.010333 432.579025 
L 560.617534 413.225347 
L 562.224734 389.516763 
L 563.831935 386.760656 
L 565.439136 363.674111 
L 567.046337 402.541922 
L 568.653537 400.742159 
L 570.260738 436.599624 
L 571.867939 427.019919 
L 573.47514 425.982869 
L 575.08234 429.38143 
L 576.689541 435.127786 
L 578.296742 432.786371 
L 579.903942 445.764638 
L 581.511143 451.123097 
L 583.118344 426.618305 
L 584.725545 412.864246 
L 586.332745 394.186196 
L 587.939946 392.647689 
L 589.547147 374.585297 
L 591.154347 380.786539 
L 592.761548 375.387886 
L 594.368749 373.026374 
L 595.97595 377.354802 
L 597.58315 369.608036 
L 599.190351 364.075724 
L 600.797552 334.205774 
L 602.404752 339.263103 
L 604.011953 349.38478 
L 605.619154 354.060911 
L 607.226355 394.326872 
L 608.833555 398.099932 
L 610.440756 405.84 
L 612.047957 419.159271 
L 613.655158 435.328434 
L 615.262358 423.554369 
L 616.869559 436.265 
L 618.47676 430.444956 
L 620.08396 433.355137 
L 621.691161 443.556881 
L 623.298362 429.769327 
L 624.905563 444.098852 
L 626.512763 445.028719 
L 628.119964 444.787879 
L 629.727165 441.516596 
L 631.334365 447.838417 
L 632.941566 447.704759 
L 634.548767 438.211819 
L 636.155968 430.291201 
L 637.763168 435.555876 
L 639.370369 458.843069 
L 640.97757 439.957673 
L 642.58477 442.814263 
L 644.191971 443.289245 
L 645.799172 438.793664 
L 649.013573 470.470077 
L 650.620774 470.182344 
L 652.227975 459.980282 
L 653.835176 465.853916 
L 655.442376 464.944146 
L 658.656778 465.566184 
L 660.263978 435.990665 
L 661.871179 425.915881 
L 663.47838 416.864748 
L 665.085581 421.634345 
L 666.692781 423.220063 
L 668.299982 421.126187 
L 669.907183 427.902894 
L 671.514383 394.634383 
L 673.121584 368.022636 
L 674.728785 399.33731 
L 676.335986 382.920608 
L 677.943186 385.355807 
L 679.550387 401.290828 
L 681.157588 405.451784 
L 682.764788 410.021053 
L 684.371989 413.99476 
L 685.97919 405.759614 
L 687.586391 407.947274 
L 689.193591 396.5946 
L 690.800792 396.326964 
L 692.407993 398.059739 
L 694.015194 401.056687 
L 695.622394 398.962811 
L 697.229595 399.93957 
L 698.836796 401.678725 
L 700.443996 395.470785 
L 702.051197 395.176353 
L 703.658398 394.386843 
L 705.265599 389.991745 
L 706.872799 396.527611 
L 708.48 410.643091 
L 710.087201 415.553364 
L 711.694401 434.285005 
L 713.301602 433.455301 
L 714.908803 423.688346 
L 716.516004 432.385077 
L 718.123204 439.008028 
L 719.730405 440.814172 
L 721.337606 426.966328 
L 722.944806 422.75178 
L 724.552007 424.892548 
L 726.159208 433.655949 
L 727.766409 425.895784 
L 729.373609 428.444864 
L 730.98081 428.772471 
L 732.588011 432.130839 
L 734.195212 424.484236 
L 735.802412 416.075238 
L 737.409613 418.229404 
L 739.016814 409.465685 
L 740.624014 408.743163 
L 742.231215 402.481632 
L 743.838416 398.936015 
L 745.445617 391.630736 
L 747.052817 380.773141 
L 748.660018 364.797927 
L 750.267219 357.211933 
L 751.874419 376.625582 
L 753.48162 371.300617 
L 755.088821 367.534256 
L 756.696022 368.577685 
L 758.303222 362.215671 
L 759.910423 360.202182 
L 761.517624 356.462616 
L 763.124824 341.490957 
L 764.732025 340.340346 
L 766.339226 360.001534 
L 767.946427 341.818563 
L 769.553627 337.804663 
L 771.160828 332.867595 
L 772.768029 334.11199 
L 774.37523 312.905276 
L 775.98243 318.458003 
L 777.589631 335.717486 
L 779.196832 363.092266 
L 780.804032 354.315149 
L 782.411233 361.79428 
L 784.018434 363.145538 
L 785.625635 373.876174 
L 787.232835 391.817985 
L 788.840036 400.320768 
L 790.447237 401.016493 
L 792.054437 379.602433 
L 793.661638 387.630234 
L 795.268839 387.570263 
L 796.87604 393.965452 
L 798.48324 387.724018 
L 800.090441 387.362598 
L 801.697642 384.385747 
L 803.304842 378.89331 
L 804.912043 386.92111 
L 806.519244 384.084616 
L 808.126445 375.515164 
L 809.733645 372.578188 
L 811.340846 377.033575 
L 812.948047 382.044332 
L 814.555248 394.052538 
L 816.162448 385.576551 
L 817.769649 371.82919 
L 819.37685 374.986592 
L 820.98405 386.686969 
L 822.591251 382.118019 
L 824.198452 395.109364 
L 825.805653 386.366061 
L 827.412853 406.294885 
L 829.020054 404.301174 
L 830.627255 402.963313 
L 832.234455 407.285042 
L 833.841656 407.36511 
L 835.448857 424.912645 
L 837.056058 426.471249 
L 838.663258 435.997364 
L 840.270459 435.596069 
L 841.87766 421.687936 
L 843.48486 427.902894 
L 845.092061 433.308245 
L 846.699262 438.272109 
L 848.306463 450.514457 
L 849.913663 453.190178 
L 851.520864 447.590878 
L 853.128065 452.146749 
L 854.735266 444.359789 
L 856.342466 449.042619 
L 857.949667 441.483102 
L 859.556868 443.429922 
L 861.164068 423.414012 
L 862.771269 408.984004 
L 864.37847 404.154117 
L 865.985671 404.675991 
L 867.592871 383.101477 
L 869.200072 387.302627 
L 870.807273 403.331113 
L 872.414473 412.783859 
L 874.021674 402.742569 
L 875.628875 409.425491 
L 877.236076 413.686931 
L 878.843276 420.671302 
L 880.450477 409.171572 
L 882.057678 406.863332 
L 883.664878 411.452698 
L 885.272079 414.42285 
L 886.87928 421.012307 
L 888.486481 412.342372 
L 890.093681 399.109867 
L 891.700882 396.179908 
L 893.308083 391.369799 
L 894.915284 387.208843 
L 896.522484 369.3404 
L 898.129685 379.937058 
L 899.736886 369.70182 
L 901.344086 365.206239 
L 902.951287 358.99798 
L 904.558488 360.135193 
L 906.165689 370.684959 
L 907.772889 379.441979 
L 909.38009 370.276966 
L 910.987291 359.466263 
L 912.594491 356.663263 
L 914.201692 359.332604 
L 915.808893 375.307818 
L 917.416094 377.662631 
L 919.023294 382.78025 
L 920.630495 387.048389 
L 922.237696 393.410403 
L 923.844896 390.727664 
L 925.452097 373.581743 
L 927.059298 378.89331 
L 928.666499 370.9191 
L 930.273699 369.052667 
L 931.8809 373.05317 
L 933.488101 377.956744 
L 935.095302 383.950958 
L 936.702502 379.86337 
L 938.309703 384.084616 
L 939.916904 367.146041 
L 941.524104 370.839033 
L 943.131305 366.436917 
L 944.738506 372.859221 
L 946.345707 372.484723 
L 947.952907 372.464626 
L 949.560108 371.722008 
L 951.167309 383.322221 
L 952.774509 406.796663 
L 954.38171 418.001961 
L 955.988911 413.539875 
L 957.596112 416.215914 
L 959.203312 406.555822 
L 960.810513 413.425994 
L 962.417714 411.914282 
L 964.024914 393.162864 
L 965.632115 394.788457 
L 967.239316 389.530161 
L 968.846517 388.466636 
L 970.453717 378.592499 
L 972.060918 372.872619 
L 973.668119 363.68081 
L 975.27532 351.278008 
L 976.88252 342.541085 
L 978.489721 341.965939 
L 980.096922 347.839573 
L 981.704122 350.930305 
L 983.311323 355.606437 
L 984.918524 331.175332 
L 986.525725 333.770986 
L 989.740126 369.675024 
L 991.347327 361.406384 
L 992.954527 352.321756 
L 994.561728 390.841545 
L 996.168929 364.115599 
L 997.77613 352.662761 
L 999.38333 365.901965 
L 1000.990531 365.447079 
L 1002.597732 371.929354 
L 1004.204932 374.250673 
L 1005.812133 379.970552 
L 1007.419334 364.797927 
L 1009.026535 366.436917 
L 1010.633735 366.584292 
L 1012.240936 352.776642 
L 1013.848137 357.392483 
L 1015.455338 347.759187 
L 1017.062538 349.632319 
L 1018.669739 340.969083 
L 1020.27694 340.734941 
L 1021.88414 349.103746 
L 1023.491341 343.999525 
L 1025.098542 352.509006 
L 1026.705743 367.761699 
L 1028.312943 355.686504 
L 1029.920144 355.532749 
L 1031.527345 361.339395 
L 1033.134545 362.142302 
L 1034.741746 350.020215 
L 1036.348947 332.593579 
L 1037.956148 328.372333 
L 1039.563348 325.615907 
L 1042.77775 314.444102 
L 1044.38495 309.453443 
L 1045.992151 297.893423 
L 1047.599352 284.440494 
L 1049.206553 285.236384 
L 1050.813753 302.703532 
L 1052.420954 302.536379 
L 1054.028155 285.116123 
L 1055.635356 300.636452 
L 1057.242556 318.458003 
L 1058.849757 340.734941 
L 1060.456958 357.05116 
L 1062.064158 356.522906 
L 1063.671359 360.938101 
L 1065.27856 368.430629 
L 1066.885761 349.19753 
L 1068.492961 352.589073 
L 1070.100162 344.748841 
L 1071.707363 329.536342 
L 1073.314563 336.005219 
L 1074.921764 340.895395 
L 1076.528965 334.881403 
L 1078.136166 334.747426 
L 1079.743366 336.647353 
L 1081.350567 340.761737 
L 1082.957768 334.245967 
L 1084.564968 336.914989 
L 1086.172169 340.98248 
L 1087.77937 354.61628 
L 1089.386571 357.392483 
L 1090.993771 357.492966 
L 1092.600972 360.302665 
L 1094.208173 361.760786 
L 1095.815374 371.848968 
L 1097.422574 379.174343 
L 1099.029775 374.184003 
L 1100.636976 385.656937 
L 1102.244176 392.159309 
L 1103.851377 394.935513 
L 1105.458578 396.601299 
L 1107.065779 406.896827 
L 1108.672979 395.725023 
L 1110.28018 395.851982 
L 1111.887381 404.923531 
L 1113.494581 400.6085 
L 1115.101782 407.010708 
L 1116.708983 403.899879 
L 1118.316184 402.662183 
L 1119.923384 378.665867 
L 1121.530585 369.233537 
L 1123.137786 367.02578 
L 1124.744986 383.563061 
L 1126.352187 366.584292 
L 1127.959388 368.096005 
L 1129.566589 375.528562 
L 1131.173789 395.778614 
L 1132.78099 396.072726 
L 1134.388191 383.616333 
L 1135.995392 398.614788 
L 1137.602592 403.993663 
L 1139.209793 425.86229 
L 1140.816994 419.854997 
L 1142.424194 376.571991 
L 1144.031395 386.834344 
L 1145.638596 425.233553 
L 1147.245797 421.212954 
L 1148.852997 406.930321 
L 1150.460198 404.789553 
L 1152.067399 391.938565 
L 1153.674599 390.808051 
L 1155.2818 363.721003 
L 1156.889001 339.77158 
L 1158.496202 287.256891 
L 1160.103402 297.037244 
L 1161.710603 271.62938 
L 1163.317804 259.253374 
L 1164.925005 212.558729 
L 1166.532205 133.271201 
L 1168.139406 110.0376 
L 1171.353807 246.44226 
L 1172.961008 238.541738 
L 1174.568209 239.819628 
L 1176.17541 271.662874 
L 1177.78261 286.802006 
L 1179.389811 316.116587 
L 1180.997012 304.957862 
L 1182.604212 280.63394 
L 1184.211413 293.538519 
L 1185.818614 304.824204 
L 1187.425815 277.616895 
L 1189.033015 244.281714 
L 1190.640216 295.906729 
L 1192.247417 293.030042 
L 1193.854617 317.521437 
L 1195.461818 324.13099 
L 1195.461818 324.13099 
" clip-path="url(#p15005b600b)" style="fill: none; stroke: #000000; stroke-width: 1.5; stroke-linecap: square"/>
   </g>
   <g id="line2d_18">
    <path d="M 221.498182 306.525079 
L 223.105383 361.387563 
L 224.712583 427.629835 
L 226.319784 488.308535 
L 227.926985 536.09063 
L 229.534185 567.715047 
L 231.141386 583.230591 
L 232.748587 585.630701 
L 234.355788 579.088136 
L 235.962988 569.313844 
L 237.570189 561.569629 
L 239.17739 557.77424 
L 240.78459 557.612829 
L 242.391791 560.032717 
L 243.998992 564.235142 
L 245.606193 568.081571 
L 247.213393 570.363653 
L 252.034995 575.708077 
L 253.642196 577.753146 
L 255.249397 578.869625 
L 256.856598 579.738564 
L 258.463798 581.712499 
L 260.070999 584.601945 
L 261.6782 588.514724 
L 263.285401 592.008346 
L 264.892601 595.153625 
L 266.499802 597.110972 
L 268.107003 598.259669 
L 269.714203 599.123185 
L 271.321404 600.548131 
L 272.928605 602.19414 
L 274.535806 603.552097 
L 276.143006 603.977634 
L 277.750207 603.166114 
L 280.964608 601.240986 
L 282.571809 600.013497 
L 284.17901 597.982463 
L 285.786211 593.964416 
L 287.393411 588.719519 
L 289.000612 582.507112 
L 292.215014 569.185927 
L 293.822214 563.609276 
L 295.429415 561.131332 
L 297.036616 563.68424 
L 300.251017 575.063071 
L 301.858218 579.849255 
L 303.465419 583.594882 
L 305.072619 586.57588 
L 306.67982 589.223529 
L 308.287021 591.494127 
L 309.894221 592.416658 
L 311.501422 591.47116 
L 313.108623 588.858919 
L 314.715824 584.881703 
L 316.323024 579.429459 
L 319.537426 564.906943 
L 321.144626 557.688431 
L 322.751827 551.087809 
L 324.359028 544.979714 
L 325.966229 541.079375 
L 327.573429 540.264984 
L 329.18063 542.766534 
L 330.787831 546.805954 
L 332.395032 550.289367 
L 334.002232 551.248582 
L 335.609433 551.307915 
L 337.216634 549.773873 
L 338.823834 543.330515 
L 340.431035 533.267534 
L 342.038236 516.766299 
L 343.645437 493.80448 
L 345.252637 466.815683 
L 346.859838 434.996999 
L 348.467039 411.073095 
L 350.074239 388.923435 
L 351.68144 369.507552 
L 353.288641 361.045601 
L 354.895842 369.12476 
L 356.503042 384.233268 
L 358.110243 397.735003 
L 359.717444 404.150289 
L 361.324644 398.151609 
L 362.931845 386.910583 
L 364.539046 373.758465 
L 366.146247 365.964487 
L 367.753447 369.44503 
L 370.967849 389.637343 
L 372.57505 395.117339 
L 374.18225 396.601937 
L 375.789451 397.661635 
L 377.396652 397.109456 
L 379.003852 396.189797 
L 380.611053 397.202283 
L 382.218254 399.018316 
L 383.825455 399.649286 
L 385.432655 396.92444 
L 387.039856 392.783899 
L 388.647057 389.462216 
L 390.254257 388.077463 
L 391.861458 387.056683 
L 393.468659 386.250904 
L 395.07586 386.453784 
L 396.68306 384.328009 
L 398.290261 382.464765 
L 399.897462 382.943894 
L 401.504662 384.025603 
L 403.111863 384.73983 
L 404.719064 385.1424 
L 406.326265 384.173935 
L 407.933465 381.472375 
L 409.540666 377.621481 
L 411.147867 374.62868 
L 412.755068 372.667825 
L 414.362268 372.559048 
L 415.969469 375.635106 
L 417.57667 381.367426 
L 422.398272 407.021553 
L 424.005473 419.366936 
L 425.612673 434.597619 
L 427.219874 446.587961 
L 428.827075 455.125195 
L 430.434275 462.840381 
L 432.041476 471.392288 
L 433.648677 477.930387 
L 435.255878 479.101095 
L 436.863078 475.493593 
L 438.470279 470.208502 
L 440.07748 464.117314 
L 441.68468 457.228959 
L 443.291881 449.151715 
L 444.899082 444.145744 
L 446.506283 446.060983 
L 448.113483 450.52626 
L 449.720684 453.104687 
L 451.327885 454.056565 
L 452.935086 452.055197 
L 454.542286 450.850358 
L 456.149487 450.769333 
L 459.363888 450.153037 
L 462.57829 447.182247 
L 464.185491 447.255296 
L 465.792691 445.869906 
L 467.399892 444.059296 
L 469.007093 442.608831 
L 470.614293 441.675455 
L 472.221494 440.288789 
L 473.828695 438.507208 
L 475.435896 437.746407 
L 477.043096 437.908456 
L 480.257498 434.765728 
L 481.864698 433.603953 
L 483.471899 432.788285 
L 485.0791 432.553506 
L 486.686301 434.826018 
L 488.293501 441.102542 
L 489.900702 450.450977 
L 493.115104 472.165849 
L 494.722304 481.283332 
L 496.329505 486.313228 
L 497.936706 487.757632 
L 499.543906 486.550559 
L 502.758308 478.295954 
L 504.365509 476.40432 
L 505.972709 476.932255 
L 507.57991 477.819377 
L 509.187111 478.518931 
L 514.008713 482.551333 
L 517.223114 485.590707 
L 518.830315 486.859983 
L 520.437516 489.376526 
L 522.044716 490.982979 
L 523.651917 492.852603 
L 525.259118 492.502028 
L 526.866319 491.306439 
L 528.473519 489.747835 
L 530.08072 487.175468 
L 531.687921 484.326853 
L 533.295122 483.941827 
L 534.902322 485.010138 
L 536.509523 487.407696 
L 538.116724 488.427838 
L 539.723924 485.308078 
L 544.545527 460.090654 
L 546.152727 455.510539 
L 547.759928 453.044717 
L 549.367129 452.593978 
L 552.58153 454.668714 
L 554.188731 455.414522 
L 555.795932 455.30096 
L 557.403132 454.487526 
L 559.010333 449.464967 
L 560.617534 442.016779 
L 562.224734 431.618216 
L 563.831935 416.902389 
L 565.439136 400.873265 
L 567.046337 383.649509 
L 568.653537 375.978344 
L 570.260738 378.15452 
L 571.867939 391.946859 
L 573.47514 409.130422 
L 575.08234 423.481957 
L 576.689541 432.463549 
L 578.296742 436.508392 
L 579.903942 436.33454 
L 581.511143 435.518554 
L 583.118344 436.219384 
L 584.725545 434.829208 
L 586.332745 429.124002 
L 587.939946 417.747404 
L 589.547147 403.826192 
L 591.154347 388.54128 
L 592.761548 376.738187 
L 594.368749 369.813468 
L 595.97595 367.286079 
L 597.58315 368.618835 
L 599.190351 370.510788 
L 600.797552 370.476656 
L 602.404752 362.901508 
L 604.011953 351.270672 
L 605.619154 342.26675 
L 607.226355 339.436955 
L 608.833555 349.375848 
L 610.440756 366.824495 
L 612.047957 385.63397 
L 613.655158 402.524059 
L 615.262358 416.874637 
L 616.869559 425.255563 
L 618.47676 429.339961 
L 620.08396 429.494673 
L 621.691161 427.628878 
L 623.298362 426.892321 
L 624.905563 425.917795 
L 626.512763 426.820866 
L 628.119964 429.586225 
L 629.727165 433.184795 
L 631.334365 436.066266 
L 632.941566 438.548677 
L 634.548767 440.485608 
L 636.155968 440.381935 
L 637.763168 437.338095 
L 639.370369 433.332808 
L 640.97757 433.404581 
L 642.58477 434.804008 
L 644.191971 436.561664 
L 645.799172 438.05934 
L 647.406373 438.331123 
L 649.013573 439.88877 
L 650.620774 444.936211 
L 652.227975 452.100814 
L 653.835176 457.891829 
L 655.442376 461.736024 
L 657.049577 463.431477 
L 658.656778 463.455082 
L 660.263978 462.55839 
L 661.871179 457.277765 
L 663.47838 447.180971 
L 665.085581 433.800134 
L 666.692781 421.644234 
L 668.299982 413.973068 
L 669.907183 411.127005 
L 671.514383 413.016725 
L 673.121584 412.332483 
L 677.943186 386.365104 
L 679.550387 381.034397 
L 681.157588 381.74352 
L 682.764788 387.534854 
L 685.97919 404.439298 
L 687.586391 409.538734 
L 689.193591 410.896691 
L 690.800792 407.546617 
L 694.015194 395.157852 
L 695.622394 391.455289 
L 697.229595 390.345191 
L 698.836796 391.312699 
L 700.443996 393.582979 
L 702.051197 395.037272 
L 703.658398 395.07906 
L 705.265599 393.863693 
L 706.872799 391.324502 
L 708.48 389.470509 
L 710.087201 391.273463 
L 711.694401 396.619482 
L 713.301602 406.201739 
L 714.908803 416.849755 
L 716.516004 424.196504 
L 718.123204 428.307378 
L 719.730405 430.606048 
L 721.337606 432.046305 
L 722.944806 430.932379 
L 724.552007 427.192813 
L 726.159208 422.641089 
L 727.766409 420.236194 
L 729.373609 419.314302 
L 730.98081 419.774929 
L 732.588011 421.093012 
L 734.195212 423.140315 
L 735.802412 424.138128 
L 737.409613 422.492757 
L 739.016814 419.232321 
L 742.231215 409.085125 
L 743.838416 403.837037 
L 747.052817 394.250952 
L 748.660018 388.366791 
L 750.267219 379.693666 
L 751.874419 368.967177 
L 753.48162 362.810595 
L 755.088821 361.460932 
L 756.696022 362.784756 
L 758.303222 365.11086 
L 759.910423 365.934821 
L 761.517624 364.547516 
L 763.124824 361.041774 
L 764.732025 354.005725 
L 766.339226 345.524635 
L 767.946427 342.246653 
L 771.160828 339.775727 
L 772.768029 337.307671 
L 774.37523 334.441192 
L 775.98243 327.813456 
L 777.589631 320.57995 
L 779.196832 318.847175 
L 780.804032 327.635138 
L 784.018434 352.121747 
L 785.625635 360.528831 
L 788.840036 371.908301 
L 792.054437 386.088536 
L 793.661638 387.878411 
L 795.268839 385.992838 
L 796.87604 382.486776 
L 798.48324 380.368657 
L 800.090441 379.353618 
L 803.304842 379.117882 
L 804.912043 377.9644 
L 806.519244 377.481443 
L 808.126445 377.478891 
L 809.733645 376.269904 
L 811.340846 373.554628 
L 812.948047 371.091357 
L 814.555248 370.609676 
L 816.162448 374.030567 
L 817.769649 378.268082 
L 819.37685 379.105122 
L 820.98405 377.007737 
L 822.591251 375.56429 
L 824.198452 374.95214 
L 825.805653 377.350655 
L 827.412853 380.234041 
L 829.020054 385.673525 
L 830.627255 391.874447 
L 832.234455 396.828104 
L 833.841656 400.28185 
L 835.448857 402.098202 
L 837.056058 405.348749 
L 838.663258 410.025519 
L 841.87766 422.746995 
L 843.48486 425.668661 
L 845.092061 425.812846 
L 846.699262 425.12988 
L 848.306463 425.380609 
L 849.913663 428.578523 
L 853.128065 439.539472 
L 854.735266 443.923086 
L 856.342466 445.671811 
L 857.949667 445.622048 
L 859.556868 443.554329 
L 861.164068 440.713051 
L 862.771269 435.197646 
L 864.37847 425.958945 
L 865.985671 414.628282 
L 869.200072 394.126863 
L 870.807273 385.983906 
L 872.414473 384.116835 
L 874.021674 389.157257 
L 877.236076 402.84688 
L 878.843276 408.285726 
L 880.450477 412.710172 
L 882.057678 413.935427 
L 883.664878 411.858139 
L 885.272079 408.638852 
L 886.87928 406.317534 
L 888.486481 406.631743 
L 890.093681 407.696545 
L 891.700882 406.456615 
L 893.308083 402.579244 
L 894.915284 396.731448 
L 896.522484 390.135931 
L 898.129685 381.481626 
L 899.736886 374.672064 
L 901.344086 369.519355 
L 904.558488 361.893168 
L 906.165689 359.003722 
L 907.772889 359.219999 
L 910.987291 367.760423 
L 912.594491 368.438285 
L 914.201692 365.014523 
L 915.808893 359.919872 
L 917.416094 358.361587 
L 919.023294 361.035394 
L 920.630495 366.922745 
L 923.844896 381.451322 
L 925.452097 386.648051 
L 927.059298 386.039092 
L 928.666499 381.663453 
L 931.8809 367.613048 
L 933.488101 363.104069 
L 935.095302 362.836433 
L 936.702502 366.781112 
L 939.916904 376.719685 
L 941.524104 377.106625 
L 943.131305 374.076821 
L 944.738506 368.826501 
L 946.345707 364.686279 
L 947.952907 362.86929 
L 949.560108 363.217631 
L 951.167309 364.696487 
L 952.774509 368.403834 
L 954.38171 377.073769 
L 957.596112 401.485414 
L 959.203312 410.09825 
L 960.810513 412.946546 
L 962.417714 411.897056 
L 964.024914 408.74731 
L 965.632115 402.258975 
L 968.846517 387.591635 
L 970.453717 382.410218 
L 973.668119 374.109996 
L 975.27532 369.090308 
L 976.88252 361.836068 
L 980.096922 343.856615 
L 981.704122 339.116366 
L 983.311323 339.277139 
L 984.918524 343.491048 
L 986.525725 344.387421 
L 988.132925 341.632909 
L 989.740126 340.320249 
L 991.347327 344.817106 
L 992.954527 351.370198 
L 994.561728 355.329231 
L 996.168929 362.670237 
L 997.77613 367.188148 
L 999.38333 365.529699 
L 1000.990531 361.698901 
L 1002.597732 358.174656 
L 1004.204932 357.479888 
L 1005.812133 359.797059 
L 1007.419334 364.655655 
L 1009.026535 367.366465 
L 1010.633735 367.322444 
L 1012.240936 365.335112 
L 1013.848137 360.161988 
L 1017.062538 348.69352 
L 1018.669739 344.350099 
L 1020.27694 340.650408 
L 1021.88414 337.910569 
L 1023.491341 338.039443 
L 1025.098542 339.358164 
L 1026.705743 342.36181 
L 1028.312943 348.665767 
L 1029.920144 353.786576 
L 1031.527345 356.018896 
L 1033.134545 356.520354 
L 1034.741746 356.210611 
L 1036.348947 353.428984 
L 1037.956148 345.901366 
L 1041.170549 325.487352 
L 1042.77775 317.707091 
L 1044.38495 312.516103 
L 1045.992151 309.211008 
L 1047.599352 305.215928 
L 1049.206553 298.167439 
L 1050.813753 290.455762 
L 1052.420954 288.589009 
L 1054.028155 291.989165 
L 1055.635356 293.769151 
L 1057.242556 295.8844 
L 1058.849757 301.638412 
L 1060.456958 313.327305 
L 1062.064158 329.377802 
L 1063.671359 344.056306 
L 1065.27856 354.367145 
L 1066.885761 360.412399 
L 1068.492961 359.004041 
L 1070.100162 352.947941 
L 1071.707363 344.43527 
L 1073.314563 333.910705 
L 1074.921764 326.019115 
L 1076.528965 323.807211 
L 1078.136166 325.272031 
L 1082.957768 334.472772 
L 1084.564968 335.280784 
L 1087.77937 333.796186 
L 1089.386571 336.26488 
L 1090.993771 341.411208 
L 1092.600972 347.063461 
L 1094.208173 351.87995 
L 1097.422574 358.400823 
L 1099.029775 362.76466 
L 1100.636976 366.376627 
L 1102.244176 370.448903 
L 1108.672979 390.511705 
L 1110.28018 393.209437 
L 1111.887381 393.354898 
L 1113.494581 393.287271 
L 1115.101782 393.055363 
L 1116.708983 393.920155 
L 1118.316184 395.202192 
L 1119.923384 396.204789 
L 1121.530585 392.683735 
L 1123.137786 384.02018 
L 1124.744986 373.015528 
L 1126.352187 366.488594 
L 1127.959388 362.84377 
L 1129.566589 361.700496 
L 1131.173789 363.562144 
L 1132.78099 370.592451 
L 1134.388191 379.985226 
L 1135.995392 386.352025 
L 1137.602592 390.724474 
L 1139.209793 394.071677 
L 1140.816994 399.98072 
L 1142.424194 406.43939 
L 1144.031395 404.741066 
L 1145.638596 397.142951 
L 1147.245797 394.148555 
L 1148.852997 396.830337 
L 1150.460198 400.778524 
L 1152.067399 403.405439 
L 1153.674599 401.897236 
L 1155.2818 396.964633 
L 1156.889001 386.154887 
L 1158.496202 368.360769 
L 1161.710603 308.102185 
L 1163.317804 281.995725 
L 1166.532205 245.233592 
L 1168.139406 208.244974 
L 1169.746607 160.090294 
L 1171.353807 145.221351 
L 1172.961008 181.638969 
L 1174.568209 231.341727 
L 1176.17541 268.01805 
L 1177.78261 288.96606 
L 1179.389811 296.078667 
L 1180.997012 298.704306 
L 1182.604212 297.101999 
L 1185.818614 279.309158 
L 1187.425815 277.506523 
L 1189.033015 276.441722 
L 1190.640216 267.692676 
L 1192.247417 266.984191 
L 1193.854617 273.923903 
L 1195.461818 289.071009 
L 1195.461818 289.071009 
" clip-path="url(#p15005b600b)" style="fill: none; stroke: #008000; stroke-width: 1.5; stroke-linecap: square"/>
   </g>
   <g id="patch_3">
    <path d="M 172.8 631.8288 
L 172.8 85.1904 
" style="fill: none; stroke: #000000; stroke-width: 0.8; stroke-linejoin: miter; stroke-linecap: square"/>
   </g>
   <g id="patch_4">
    <path d="M 1244.16 631.8288 
L 1244.16 85.1904 
" style="fill: none; stroke: #000000; stroke-width: 0.8; stroke-linejoin: miter; stroke-linecap: square"/>
   </g>
   <g id="patch_5">
    <path d="M 172.8 631.8288 
L 1244.16 631.8288 
" style="fill: none; stroke: #000000; stroke-width: 0.8; stroke-linejoin: miter; stroke-linecap: square"/>
   </g>
   <g id="patch_6">
    <path d="M 172.8 85.1904 
L 1244.16 85.1904 
" style="fill: none; stroke: #000000; stroke-width: 0.8; stroke-linejoin: miter; stroke-linecap: square"/>
   </g>
   <g id="text_19">
    <!-- EUR price prediction -->
    <g transform="translate(647.280937 79.1904)scale(0.12 -0.12)">
     <defs>
      <path id="DejaVuSans-45" d="M 628 4666 
L 3578 4666 
L 3578 4134 
L 1259 4134 
L 1259 2753 
L 3481 2753 
L 3481 2222 
L 1259 2222 
L 1259 531 
L 3634 531 
L 3634 0 
L 628 0 
L 628 4666 
z
" transform="scale(0.015625)"/>
      <path id="DejaVuSans-55" d="M 556 4666 
L 1191 4666 
L 1191 1831 
Q 1191 1081 1462 751 
Q 1734 422 2344 422 
Q 2950 422 3222 751 
Q 3494 1081 3494 1831 
L 3494 4666 
L 4128 4666 
L 4128 1753 
Q 4128 841 3676 375 
Q 3225 -91 2344 -91 
Q 1459 -91 1007 375 
Q 556 841 556 1753 
L 556 4666 
z
" transform="scale(0.015625)"/>
      <path id="DejaVuSans-52" d="M 2841 2188 
Q 3044 2119 3236 1894 
Q 3428 1669 3622 1275 
L 4263 0 
L 3584 0 
L 2988 1197 
Q 2756 1666 2539 1819 
Q 2322 1972 1947 1972 
L 1259 1972 
L 1259 0 
L 628 0 
L 628 4666 
L 2053 4666 
Q 2853 4666 3247 4331 
Q 3641 3997 3641 3322 
Q 3641 2881 3436 2590 
Q 3231 2300 2841 2188 
z
M 1259 4147 
L 1259 2491 
L 2053 2491 
Q 2509 2491 2742 2702 
Q 2975 2913 2975 3322 
Q 2975 3731 2742 3939 
Q 2509 4147 2053 4147 
L 1259 4147 
z
" transform="scale(0.015625)"/>
      <path id="DejaVuSans-20" transform="scale(0.015625)"/>
      <path id="DejaVuSans-70" d="M 1159 525 
L 1159 -1331 
L 581 -1331 
L 581 3500 
L 1159 3500 
L 1159 2969 
Q 1341 3281 1617 3432 
Q 1894 3584 2278 3584 
Q 2916 3584 3314 3078 
Q 3713 2572 3713 1747 
Q 3713 922 3314 415 
Q 2916 -91 2278 -91 
Q 1894 -91 1617 61 
Q 1341 213 1159 525 
z
M 3116 1747 
Q 3116 2381 2855 2742 
Q 2594 3103 2138 3103 
Q 1681 3103 1420 2742 
Q 1159 2381 1159 1747 
Q 1159 1113 1420 752 
Q 1681 391 2138 391 
Q 2594 391 2855 752 
Q 3116 1113 3116 1747 
z
" transform="scale(0.015625)"/>
      <path id="DejaVuSans-64" d="M 2906 2969 
L 2906 4863 
L 3481 4863 
L 3481 0 
L 2906 0 
L 2906 525 
Q 2725 213 2448 61 
Q 2172 -91 1784 -91 
Q 1150 -91 751 415 
Q 353 922 353 1747 
Q 353 2572 751 3078 
Q 1150 3584 1784 3584 
Q 2172 3584 2448 3432 
Q 2725 3281 2906 2969 
z
M 947 1747 
Q 947 1113 1208 752 
Q 1469 391 1925 391 
Q 2381 391 2643 752 
Q 2906 1113 2906 1747 
Q 2906 2381 2643 2742 
Q 2381 3103 1925 3103 
Q 1469 3103 1208 2742 
Q 947 2381 947 1747 
z
" transform="scale(0.015625)"/>
      <path id="DejaVuSans-74" d="M 1172 4494 
L 1172 3500 
L 2356 3500 
L 2356 3053 
L 1172 3053 
L 1172 1153 
Q 1172 725 1289 603 
Q 1406 481 1766 481 
L 2356 481 
L 2356 0 
L 1766 0 
Q 1100 0 847 248 
Q 594 497 594 1153 
L 594 3053 
L 172 3053 
L 172 3500 
L 594 3500 
L 594 4494 
L 1172 4494 
z
" transform="scale(0.015625)"/>
      <path id="DejaVuSans-6f" d="M 1959 3097 
Q 1497 3097 1228 2736 
Q 959 2375 959 1747 
Q 959 1119 1226 758 
Q 1494 397 1959 397 
Q 2419 397 2687 759 
Q 2956 1122 2956 1747 
Q 2956 2369 2687 2733 
Q 2419 3097 1959 3097 
z
M 1959 3584 
Q 2709 3584 3137 3096 
Q 3566 2609 3566 1747 
Q 3566 888 3137 398 
Q 2709 -91 1959 -91 
Q 1206 -91 779 398 
Q 353 888 353 1747 
Q 353 2609 779 3096 
Q 1206 3584 1959 3584 
z
" transform="scale(0.015625)"/>
      <path id="DejaVuSans-6e" d="M 3513 2113 
L 3513 0 
L 2938 0 
L 2938 2094 
Q 2938 2591 2744 2837 
Q 2550 3084 2163 3084 
Q 1697 3084 1428 2787 
Q 1159 2491 1159 1978 
L 1159 0 
L 581 0 
L 581 3500 
L 1159 3500 
L 1159 2956 
Q 1366 3272 1645 3428 
Q 1925 3584 2291 3584 
Q 2894 3584 3203 3211 
Q 3513 2838 3513 2113 
z
" transform="scale(0.015625)"/>
     </defs>
     <use xlink:href="#DejaVuSans-45"/>
     <use xlink:href="#DejaVuSans-55" x="63.183594"/>
     <use xlink:href="#DejaVuSans-52" x="136.376953"/>
     <use xlink:href="#DejaVuSans-20" x="205.859375"/>
     <use xlink:href="#DejaVuSans-70" x="237.646484"/>
     <use xlink:href="#DejaVuSans-72" x="301.123047"/>
     <use xlink:href="#DejaVuSans-69" x="342.236328"/>
     <use xlink:href="#DejaVuSans-63" x="370.019531"/>
     <use xlink:href="#DejaVuSans-65" x="425"/>
     <use xlink:href="#DejaVuSans-20" x="486.523438"/>
     <use xlink:href="#DejaVuSans-70" x="518.310547"/>
     <use xlink:href="#DejaVuSans-72" x="581.787109"/>
     <use xlink:href="#DejaVuSans-65" x="620.650391"/>
     <use xlink:href="#DejaVuSans-64" x="682.173828"/>
     <use xlink:href="#DejaVuSans-69" x="745.650391"/>
     <use xlink:href="#DejaVuSans-63" x="773.433594"/>
     <use xlink:href="#DejaVuSans-74" x="828.414062"/>
     <use xlink:href="#DejaVuSans-69" x="867.623047"/>
     <use xlink:href="#DejaVuSans-6f" x="895.40625"/>
     <use xlink:href="#DejaVuSans-6e" x="956.587891"/>
    </g>
   </g>
   <g id="legend_1">
    <g id="patch_7">
     <path d="M 179.8 122.54665 
L 291.523438 122.54665 
Q 293.523438 122.54665 293.523438 120.54665 
L 293.523438 92.1904 
Q 293.523438 90.1904 291.523438 90.1904 
L 179.8 90.1904 
Q 177.8 90.1904 177.8 92.1904 
L 177.8 120.54665 
Q 177.8 122.54665 179.8 122.54665 
z
" style="fill: #ffffff; opacity: 0.8; stroke: #cccccc; stroke-linejoin: miter"/>
    </g>
    <g id="line2d_19">
     <path d="M 181.8 98.288837 
L 191.8 98.288837 
L 201.8 98.288837 
" style="fill: none; stroke: #000000; stroke-width: 1.5; stroke-linecap: square"/>
    </g>
    <g id="text_20">
     <!-- Actual Prices -->
     <g transform="translate(209.8 101.788837)scale(0.1 -0.1)">
      <defs>
       <path id="DejaVuSans-41" d="M 2188 4044 
L 1331 1722 
L 3047 1722 
L 2188 4044 
z
M 1831 4666 
L 2547 4666 
L 4325 0 
L 3669 0 
L 3244 1197 
L 1141 1197 
L 716 0 
L 50 0 
L 1831 4666 
z
" transform="scale(0.015625)"/>
       <path id="DejaVuSans-75" d="M 544 1381 
L 544 3500 
L 1119 3500 
L 1119 1403 
Q 1119 906 1312 657 
Q 1506 409 1894 409 
Q 2359 409 2629 706 
Q 2900 1003 2900 1516 
L 2900 3500 
L 3475 3500 
L 3475 0 
L 2900 0 
L 2900 538 
Q 2691 219 2414 64 
Q 2138 -91 1772 -91 
Q 1169 -91 856 284 
Q 544 659 544 1381 
z
M 1991 3584 
L 1991 3584 
z
" transform="scale(0.015625)"/>
       <path id="DejaVuSans-61" d="M 2194 1759 
Q 1497 1759 1228 1600 
Q 959 1441 959 1056 
Q 959 750 1161 570 
Q 1363 391 1709 391 
Q 2188 391 2477 730 
Q 2766 1069 2766 1631 
L 2766 1759 
L 2194 1759 
z
M 3341 1997 
L 3341 0 
L 2766 0 
L 2766 531 
Q 2569 213 2275 61 
Q 1981 -91 1556 -91 
Q 1019 -91 701 211 
Q 384 513 384 1019 
Q 384 1609 779 1909 
Q 1175 2209 1959 2209 
L 2766 2209 
L 2766 2266 
Q 2766 2663 2505 2880 
Q 2244 3097 1772 3097 
Q 1472 3097 1187 3025 
Q 903 2953 641 2809 
L 641 3341 
Q 956 3463 1253 3523 
Q 1550 3584 1831 3584 
Q 2591 3584 2966 3190 
Q 3341 2797 3341 1997 
z
" transform="scale(0.015625)"/>
       <path id="DejaVuSans-6c" d="M 603 4863 
L 1178 4863 
L 1178 0 
L 603 0 
L 603 4863 
z
" transform="scale(0.015625)"/>
       <path id="DejaVuSans-73" d="M 2834 3397 
L 2834 2853 
Q 2591 2978 2328 3040 
Q 2066 3103 1784 3103 
Q 1356 3103 1142 2972 
Q 928 2841 928 2578 
Q 928 2378 1081 2264 
Q 1234 2150 1697 2047 
L 1894 2003 
Q 2506 1872 2764 1633 
Q 3022 1394 3022 966 
Q 3022 478 2636 193 
Q 2250 -91 1575 -91 
Q 1294 -91 989 -36 
Q 684 19 347 128 
L 347 722 
Q 666 556 975 473 
Q 1284 391 1588 391 
Q 1994 391 2212 530 
Q 2431 669 2431 922 
Q 2431 1156 2273 1281 
Q 2116 1406 1581 1522 
L 1381 1569 
Q 847 1681 609 1914 
Q 372 2147 372 2553 
Q 372 3047 722 3315 
Q 1072 3584 1716 3584 
Q 2034 3584 2315 3537 
Q 2597 3491 2834 3397 
z
" transform="scale(0.015625)"/>
      </defs>
      <use xlink:href="#DejaVuSans-41"/>
      <use xlink:href="#DejaVuSans-63" x="66.658203"/>
      <use xlink:href="#DejaVuSans-74" x="121.638672"/>
      <use xlink:href="#DejaVuSans-75" x="160.847656"/>
      <use xlink:href="#DejaVuSans-61" x="224.226562"/>
      <use xlink:href="#DejaVuSans-6c" x="285.505859"/>
      <use xlink:href="#DejaVuSans-20" x="313.289062"/>
      <use xlink:href="#DejaVuSans-50" x="345.076172"/>
      <use xlink:href="#DejaVuSans-72" x="403.628906"/>
      <use xlink:href="#DejaVuSans-69" x="444.742188"/>
      <use xlink:href="#DejaVuSans-63" x="472.525391"/>
      <use xlink:href="#DejaVuSans-65" x="527.505859"/>
      <use xlink:href="#DejaVuSans-73" x="589.029297"/>
     </g>
    </g>
    <g id="line2d_20">
     <path d="M 181.8 112.966962 
L 191.8 112.966962 
L 201.8 112.966962 
" style="fill: none; stroke: #008000; stroke-width: 1.5; stroke-linecap: square"/>
    </g>
    <g id="text_21">
     <!-- Predicted Prices -->
     <g transform="translate(209.8 116.466962)scale(0.1 -0.1)">
      <use xlink:href="#DejaVuSans-50"/>
      <use xlink:href="#DejaVuSans-72" x="58.552734"/>
      <use xlink:href="#DejaVuSans-65" x="97.416016"/>
      <use xlink:href="#DejaVuSans-64" x="158.939453"/>
      <use xlink:href="#DejaVuSans-69" x="222.416016"/>
      <use xlink:href="#DejaVuSans-63" x="250.199219"/>
      <use xlink:href="#DejaVuSans-74" x="305.179688"/>
      <use xlink:href="#DejaVuSans-65" x="344.388672"/>
      <use xlink:href="#DejaVuSans-64" x="405.912109"/>
      <use xlink:href="#DejaVuSans-20" x="469.388672"/>
      <use xlink:href="#DejaVuSans-50" x="501.175781"/>
      <use xlink:href="#DejaVuSans-72" x="559.728516"/>
      <use xlink:href="#DejaVuSans-69" x="600.841797"/>
      <use xlink:href="#DejaVuSans-63" x="628.625"/>
      <use xlink:href="#DejaVuSans-65" x="683.605469"/>
      <use xlink:href="#DejaVuSans-73" x="745.128906"/>
     </g>
    </g>
   </g>
  </g>
 </g>
 <defs>
  <clipPath id="p15005b600b">
   <rect x="172.8" y="85.1904" width="1071.36" height="546.6384"/>
  </clipPath>
 </defs>
</svg>
